G04 #@! TF.FileFunction,Copper,L2,Bot,Signal*
%FSLAX46Y46*%
G04 Gerber Fmt 4.6, Leading zero omitted, Abs format (unit mm)*
G04 Created by KiCad (PCBNEW 4.0.7) date 10/12/18 11:57:34*
%MOMM*%
%LPD*%
G01*
G04 APERTURE LIST*
%ADD10C,0.100000*%
%ADD11R,1.700000X1.700000*%
%ADD12O,1.700000X1.700000*%
%ADD13C,2.200000*%
%ADD14C,0.600000*%
%ADD15C,1.000000*%
%ADD16C,0.250000*%
G04 APERTURE END LIST*
D10*
D11*
X41275000Y-119316500D03*
X41275000Y-113347500D03*
X58420000Y-111252000D03*
D12*
X55880000Y-111252000D03*
X58420000Y-108712000D03*
X55880000Y-108712000D03*
X58420000Y-106172000D03*
X55880000Y-106172000D03*
X58420000Y-103632000D03*
X55880000Y-103632000D03*
X58420000Y-101092000D03*
X55880000Y-101092000D03*
X58420000Y-98552000D03*
X55880000Y-98552000D03*
X58420000Y-96012000D03*
X55880000Y-96012000D03*
X58420000Y-93472000D03*
X55880000Y-93472000D03*
X58420000Y-90932000D03*
X55880000Y-90932000D03*
D11*
X28194000Y-111252000D03*
D12*
X25654000Y-111252000D03*
X28194000Y-108712000D03*
X25654000Y-108712000D03*
X28194000Y-106172000D03*
X25654000Y-106172000D03*
X28194000Y-103632000D03*
X25654000Y-103632000D03*
X28194000Y-101092000D03*
X25654000Y-101092000D03*
X28194000Y-98552000D03*
X25654000Y-98552000D03*
X28194000Y-96012000D03*
X25654000Y-96012000D03*
X28194000Y-93472000D03*
X25654000Y-93472000D03*
X28194000Y-90932000D03*
X25654000Y-90932000D03*
D13*
X83058000Y-35560000D03*
X83058000Y-33020000D03*
X83058000Y-30480000D03*
X83058000Y-27940000D03*
X85598000Y-36830000D03*
X85598000Y-34290000D03*
X85598000Y-31750000D03*
X85598000Y-29210000D03*
X83058000Y-63500000D03*
X83058000Y-60960000D03*
X83058000Y-58420000D03*
X83058000Y-55880000D03*
X85598000Y-64770000D03*
X85598000Y-62230000D03*
X85598000Y-59690000D03*
X85598000Y-57150000D03*
X83058000Y-49530000D03*
X83058000Y-46990000D03*
X83058000Y-44450000D03*
X83058000Y-41910000D03*
X85598000Y-50800000D03*
X85598000Y-48260000D03*
X85598000Y-45720000D03*
X85598000Y-43180000D03*
X83058000Y-77470000D03*
X83058000Y-74930000D03*
X83058000Y-72390000D03*
X83058000Y-69850000D03*
X85598000Y-78740000D03*
X85598000Y-76200000D03*
X85598000Y-73660000D03*
X85598000Y-71120000D03*
X83058000Y-91440000D03*
X83058000Y-88900000D03*
X83058000Y-86360000D03*
X83058000Y-83820000D03*
X85598000Y-92710000D03*
X85598000Y-90170000D03*
X85598000Y-87630000D03*
X85598000Y-85090000D03*
X83058000Y-119380000D03*
X83058000Y-116840000D03*
X83058000Y-114300000D03*
X83058000Y-111760000D03*
X85598000Y-120650000D03*
X85598000Y-118110000D03*
X85598000Y-115570000D03*
X85598000Y-113030000D03*
X83058000Y-105410000D03*
X83058000Y-102870000D03*
X83058000Y-100330000D03*
X83058000Y-97790000D03*
X85598000Y-106680000D03*
X85598000Y-104140000D03*
X85598000Y-101600000D03*
X85598000Y-99060000D03*
D14*
X34417000Y-105283000D03*
X32131000Y-105410000D03*
X65405000Y-103505000D03*
X65405000Y-102235000D03*
X66548000Y-98552000D03*
X66548000Y-97282000D03*
X34163000Y-100203000D03*
X31623000Y-100203000D03*
X34036000Y-95377000D03*
X32131000Y-94488000D03*
X34036000Y-90170000D03*
X32131000Y-89916000D03*
X66040000Y-89916000D03*
X59563000Y-87757000D03*
D15*
X41275000Y-113347500D02*
X41275000Y-113665000D01*
X41275000Y-113665000D02*
X40640000Y-114300000D01*
X43815000Y-114300000D02*
X40640000Y-114300000D01*
X40640000Y-114300000D02*
X29210000Y-114300000D01*
X28194000Y-113284000D02*
X28194000Y-111252000D01*
X29210000Y-114300000D02*
X28194000Y-113284000D01*
X58420000Y-111252000D02*
X58420000Y-113030000D01*
X42227500Y-114300000D02*
X41275000Y-113347500D01*
X57150000Y-114300000D02*
X43815000Y-114300000D01*
X43815000Y-114300000D02*
X42227500Y-114300000D01*
X58420000Y-113030000D02*
X57150000Y-114300000D01*
D16*
X83058000Y-72390000D02*
X82296000Y-72390000D01*
X82296000Y-72390000D02*
X80137000Y-74549000D01*
X80137000Y-74549000D02*
X80137000Y-81026000D01*
X80137000Y-81026000D02*
X75565000Y-85598000D01*
X75565000Y-85598000D02*
X55499000Y-85598000D01*
X55499000Y-85598000D02*
X52324000Y-88773000D01*
X52324000Y-88773000D02*
X52324000Y-103378000D01*
X52324000Y-103378000D02*
X50419000Y-105283000D01*
X50419000Y-105283000D02*
X34417000Y-105283000D01*
X83058000Y-69850000D02*
X82550000Y-69850000D01*
X82550000Y-69850000D02*
X79502000Y-72898000D01*
X79502000Y-72898000D02*
X79502000Y-80518000D01*
X79502000Y-80518000D02*
X75311000Y-84709000D01*
X75311000Y-84709000D02*
X55372000Y-84709000D01*
X55372000Y-84709000D02*
X51435000Y-88646000D01*
X51435000Y-88646000D02*
X51435000Y-102616000D01*
X51435000Y-102616000D02*
X49530000Y-104521000D01*
X49530000Y-104521000D02*
X33020000Y-104521000D01*
X33020000Y-104521000D02*
X32131000Y-105410000D01*
X85598000Y-76200000D02*
X86360000Y-76200000D01*
X86360000Y-76200000D02*
X87503000Y-77343000D01*
X87503000Y-77343000D02*
X87503000Y-79883000D01*
X87503000Y-79883000D02*
X86614000Y-80772000D01*
X86614000Y-80772000D02*
X83312000Y-80772000D01*
X83312000Y-80772000D02*
X81407000Y-80772000D01*
X81407000Y-80772000D02*
X75438000Y-86741000D01*
X75438000Y-86741000D02*
X55880000Y-86741000D01*
X55880000Y-86741000D02*
X53213000Y-89408000D01*
X53213000Y-89408000D02*
X53213000Y-103886000D01*
X53213000Y-103886000D02*
X50927000Y-106172000D01*
X50927000Y-106172000D02*
X28194000Y-106172000D01*
X85598000Y-71120000D02*
X85598000Y-69342000D01*
X26924000Y-104902000D02*
X25654000Y-106172000D01*
X30734000Y-104902000D02*
X26924000Y-104902000D01*
X31750000Y-103886000D02*
X30734000Y-104902000D01*
X48514000Y-103886000D02*
X31750000Y-103886000D01*
X50546000Y-101854000D02*
X48514000Y-103886000D01*
X50546000Y-88265000D02*
X50546000Y-101854000D01*
X54737000Y-84074000D02*
X50546000Y-88265000D01*
X74549000Y-84074000D02*
X54737000Y-84074000D01*
X78740000Y-79883000D02*
X74549000Y-84074000D01*
X78740000Y-70993000D02*
X78740000Y-79883000D01*
X81661000Y-68072000D02*
X78740000Y-70993000D01*
X84328000Y-68072000D02*
X81661000Y-68072000D01*
X85598000Y-69342000D02*
X84328000Y-68072000D01*
X83058000Y-114300000D02*
X76200000Y-114300000D01*
X76200000Y-114300000D02*
X65405000Y-103505000D01*
X83058000Y-111760000D02*
X74930000Y-111760000D01*
X74930000Y-111760000D02*
X65405000Y-102235000D01*
X85598000Y-118110000D02*
X86360000Y-118110000D01*
X86360000Y-118110000D02*
X87630000Y-119380000D01*
X87630000Y-119380000D02*
X87630000Y-121285000D01*
X87630000Y-121285000D02*
X86360000Y-122555000D01*
X86360000Y-122555000D02*
X82550000Y-122555000D01*
X82550000Y-122555000D02*
X64770000Y-104775000D01*
X64770000Y-104775000D02*
X61595000Y-101600000D01*
X61595000Y-101600000D02*
X58928000Y-101600000D01*
X58928000Y-101600000D02*
X58420000Y-101092000D01*
X85598000Y-113030000D02*
X85598000Y-111252000D01*
X57150000Y-99822000D02*
X55880000Y-101092000D01*
X64770000Y-99822000D02*
X57150000Y-99822000D01*
X74803000Y-109855000D02*
X64770000Y-99822000D01*
X84201000Y-109855000D02*
X74803000Y-109855000D01*
X85598000Y-111252000D02*
X84201000Y-109855000D01*
X69977000Y-100330000D02*
X68326000Y-100330000D01*
X68326000Y-100330000D02*
X66548000Y-98552000D01*
X83058000Y-100330000D02*
X69977000Y-100330000D01*
X82423000Y-97790000D02*
X81915000Y-97282000D01*
X67945000Y-97282000D02*
X81915000Y-97282000D01*
X67945000Y-97282000D02*
X66548000Y-97282000D01*
X82423000Y-97790000D02*
X83058000Y-97790000D01*
X55880000Y-98552000D02*
X55880000Y-98679000D01*
X77216000Y-108331000D02*
X74803000Y-108331000D01*
X62484000Y-96012000D02*
X58420000Y-96012000D01*
X74803000Y-108331000D02*
X62484000Y-96012000D01*
X85598000Y-104140000D02*
X86614000Y-104140000D01*
X86614000Y-104140000D02*
X87503000Y-105029000D01*
X87503000Y-105029000D02*
X87503000Y-107569000D01*
X87503000Y-107569000D02*
X86741000Y-108331000D01*
X86741000Y-108331000D02*
X77216000Y-108331000D01*
X85598000Y-99060000D02*
X85598000Y-96901000D01*
X57150000Y-94742000D02*
X55880000Y-96012000D01*
X66802000Y-94742000D02*
X57150000Y-94742000D01*
X67818000Y-95758000D02*
X66802000Y-94742000D01*
X84455000Y-95758000D02*
X67818000Y-95758000D01*
X85598000Y-96901000D02*
X84455000Y-95758000D01*
X83058000Y-58420000D02*
X82169000Y-58420000D01*
X82169000Y-58420000D02*
X80645000Y-59944000D01*
X80645000Y-59944000D02*
X80645000Y-66421000D01*
X80645000Y-66421000D02*
X76708000Y-70358000D01*
X76708000Y-70358000D02*
X76708000Y-78613000D01*
X76708000Y-78613000D02*
X73406000Y-81915000D01*
X73406000Y-81915000D02*
X54356000Y-81915000D01*
X54356000Y-81915000D02*
X48641000Y-87630000D01*
X48641000Y-87630000D02*
X48641000Y-99187000D01*
X48641000Y-99187000D02*
X47625000Y-100203000D01*
X47625000Y-100203000D02*
X34163000Y-100203000D01*
X83058000Y-55880000D02*
X82677000Y-55880000D01*
X82677000Y-55880000D02*
X79756000Y-58801000D01*
X79756000Y-58801000D02*
X79756000Y-65405000D01*
X79756000Y-65405000D02*
X75565000Y-69596000D01*
X75565000Y-69596000D02*
X75565000Y-77597000D01*
X75565000Y-77597000D02*
X72136000Y-81026000D01*
X72136000Y-81026000D02*
X53467000Y-81026000D01*
X53467000Y-81026000D02*
X47498000Y-86995000D01*
X47498000Y-86995000D02*
X47498000Y-98806000D01*
X47498000Y-98806000D02*
X46990000Y-99314000D01*
X46990000Y-99314000D02*
X32512000Y-99314000D01*
X32512000Y-99314000D02*
X31623000Y-100203000D01*
X85598000Y-62230000D02*
X86614000Y-62230000D01*
X86614000Y-62230000D02*
X87503000Y-63119000D01*
X87503000Y-63119000D02*
X87503000Y-65786000D01*
X87503000Y-65786000D02*
X86360000Y-66929000D01*
X86360000Y-66929000D02*
X81661000Y-66929000D01*
X81661000Y-66929000D02*
X77724000Y-70866000D01*
X77724000Y-70866000D02*
X77724000Y-79375000D01*
X77724000Y-79375000D02*
X74041000Y-83058000D01*
X74041000Y-83058000D02*
X54356000Y-83058000D01*
X54356000Y-83058000D02*
X49657000Y-87757000D01*
X49657000Y-87757000D02*
X49657000Y-100203000D01*
X49657000Y-100203000D02*
X48768000Y-101092000D01*
X48768000Y-101092000D02*
X28194000Y-101092000D01*
X85598000Y-57150000D02*
X85598000Y-54991000D01*
X26924000Y-99822000D02*
X25654000Y-101092000D01*
X30607000Y-99822000D02*
X26924000Y-99822000D01*
X31750000Y-98679000D02*
X30607000Y-99822000D01*
X44704000Y-98679000D02*
X31750000Y-98679000D01*
X46355000Y-97028000D02*
X44704000Y-98679000D01*
X46355000Y-86741000D02*
X46355000Y-97028000D01*
X52959000Y-80137000D02*
X46355000Y-86741000D01*
X71374000Y-80137000D02*
X52959000Y-80137000D01*
X74295000Y-77216000D02*
X71374000Y-80137000D01*
X74295000Y-69469000D02*
X74295000Y-77216000D01*
X78486000Y-65278000D02*
X74295000Y-69469000D01*
X78486000Y-57150000D02*
X78486000Y-65278000D01*
X81788000Y-53848000D02*
X78486000Y-57150000D01*
X84455000Y-53848000D02*
X81788000Y-53848000D01*
X85598000Y-54991000D02*
X84455000Y-53848000D01*
X83058000Y-44450000D02*
X81280000Y-44450000D01*
X40894000Y-95377000D02*
X34036000Y-95377000D01*
X44450000Y-91821000D02*
X40894000Y-95377000D01*
X44450000Y-85725000D02*
X44450000Y-91821000D01*
X52324000Y-77851000D02*
X44450000Y-85725000D01*
X70358000Y-77851000D02*
X52324000Y-77851000D01*
X72390000Y-75819000D02*
X70358000Y-77851000D01*
X72390000Y-68834000D02*
X72390000Y-75819000D01*
X75946000Y-65278000D02*
X72390000Y-68834000D01*
X75946000Y-49784000D02*
X75946000Y-65278000D01*
X81280000Y-44450000D02*
X75946000Y-49784000D01*
X83058000Y-41910000D02*
X81534000Y-41910000D01*
X40005000Y-94488000D02*
X32131000Y-94488000D01*
X43307000Y-91186000D02*
X40005000Y-94488000D01*
X43307000Y-85344000D02*
X43307000Y-91186000D01*
X51943000Y-76708000D02*
X43307000Y-85344000D01*
X69596000Y-76708000D02*
X51943000Y-76708000D01*
X71247000Y-75057000D02*
X69596000Y-76708000D01*
X71247000Y-68707000D02*
X71247000Y-75057000D01*
X74930000Y-65024000D02*
X71247000Y-68707000D01*
X74930000Y-48514000D02*
X74930000Y-65024000D01*
X81534000Y-41910000D02*
X74930000Y-48514000D01*
X85598000Y-48260000D02*
X86106000Y-48260000D01*
X86106000Y-48260000D02*
X87503000Y-49657000D01*
X87503000Y-49657000D02*
X87503000Y-51816000D01*
X87503000Y-51816000D02*
X86614000Y-52705000D01*
X86614000Y-52705000D02*
X81534000Y-52705000D01*
X81534000Y-52705000D02*
X77343000Y-56896000D01*
X77343000Y-56896000D02*
X77343000Y-65151000D01*
X77343000Y-65151000D02*
X73279000Y-69215000D01*
X73279000Y-69215000D02*
X73279000Y-76327000D01*
X73279000Y-76327000D02*
X70485000Y-79121000D01*
X70485000Y-79121000D02*
X52705000Y-79121000D01*
X52705000Y-79121000D02*
X45466000Y-86360000D01*
X45466000Y-86360000D02*
X45466000Y-92837000D01*
X45466000Y-92837000D02*
X42291000Y-96012000D01*
X42291000Y-96012000D02*
X28194000Y-96012000D01*
X85598000Y-43180000D02*
X85598000Y-41275000D01*
X26924000Y-94742000D02*
X25654000Y-96012000D01*
X29591000Y-94742000D02*
X26924000Y-94742000D01*
X30861000Y-93472000D02*
X29591000Y-94742000D01*
X39370000Y-93472000D02*
X30861000Y-93472000D01*
X42291000Y-90551000D02*
X39370000Y-93472000D01*
X42291000Y-84836000D02*
X42291000Y-90551000D01*
X51308000Y-75819000D02*
X42291000Y-84836000D01*
X68961000Y-75819000D02*
X51308000Y-75819000D01*
X70231000Y-74549000D02*
X68961000Y-75819000D01*
X70231000Y-68326000D02*
X70231000Y-74549000D01*
X73914000Y-64643000D02*
X70231000Y-68326000D01*
X73914000Y-47752000D02*
X73914000Y-64643000D01*
X81661000Y-40005000D02*
X73914000Y-47752000D01*
X84328000Y-40005000D02*
X81661000Y-40005000D01*
X85598000Y-41275000D02*
X84328000Y-40005000D01*
X83058000Y-30480000D02*
X81915000Y-30480000D01*
X38100000Y-90170000D02*
X34036000Y-90170000D01*
X40005000Y-88265000D02*
X38100000Y-90170000D01*
X40005000Y-84201000D02*
X40005000Y-88265000D01*
X50800000Y-73406000D02*
X40005000Y-84201000D01*
X67310000Y-73406000D02*
X50800000Y-73406000D01*
X67945000Y-72771000D02*
X67310000Y-73406000D01*
X67945000Y-67056000D02*
X67945000Y-72771000D01*
X72009000Y-62992000D02*
X67945000Y-67056000D01*
X72009000Y-46736000D02*
X72009000Y-62992000D01*
X80264000Y-38481000D02*
X72009000Y-46736000D01*
X80264000Y-32131000D02*
X80264000Y-38481000D01*
X81915000Y-30480000D02*
X80264000Y-32131000D01*
X83058000Y-27940000D02*
X82296000Y-27940000D01*
X82296000Y-27940000D02*
X79502000Y-30734000D01*
X79502000Y-30734000D02*
X79502000Y-37846000D01*
X79502000Y-37846000D02*
X71120000Y-46228000D01*
X71120000Y-46228000D02*
X71120000Y-62103000D01*
X71120000Y-62103000D02*
X66802000Y-66421000D01*
X66802000Y-66421000D02*
X66802000Y-72009000D01*
X66802000Y-72009000D02*
X66421000Y-72390000D01*
X66421000Y-72390000D02*
X50292000Y-72390000D01*
X50292000Y-72390000D02*
X32766000Y-89916000D01*
X32766000Y-89916000D02*
X32131000Y-89916000D01*
X85598000Y-34290000D02*
X86233000Y-34290000D01*
X86233000Y-34290000D02*
X87503000Y-35560000D01*
X87503000Y-35560000D02*
X87503000Y-37973000D01*
X87503000Y-37973000D02*
X86487000Y-38989000D01*
X86487000Y-38989000D02*
X81280000Y-38989000D01*
X81280000Y-38989000D02*
X72898000Y-47371000D01*
X72898000Y-47371000D02*
X72898000Y-63754000D01*
X72898000Y-63754000D02*
X69088000Y-67564000D01*
X69088000Y-67564000D02*
X69088000Y-73406000D01*
X69088000Y-73406000D02*
X67945000Y-74549000D01*
X67945000Y-74549000D02*
X51308000Y-74549000D01*
X51308000Y-74549000D02*
X41148000Y-84709000D01*
X41148000Y-84709000D02*
X41148000Y-88646000D01*
X41148000Y-88646000D02*
X38862000Y-90932000D01*
X38862000Y-90932000D02*
X28194000Y-90932000D01*
X85598000Y-29210000D02*
X85598000Y-26924000D01*
X28067000Y-88519000D02*
X25654000Y-90932000D01*
X32258000Y-88519000D02*
X28067000Y-88519000D01*
X49276000Y-71501000D02*
X32258000Y-88519000D01*
X65024000Y-71501000D02*
X49276000Y-71501000D01*
X65659000Y-70866000D02*
X65024000Y-71501000D01*
X65659000Y-66040000D02*
X65659000Y-70866000D01*
X70104000Y-61595000D02*
X65659000Y-66040000D01*
X70104000Y-46101000D02*
X70104000Y-61595000D01*
X78740000Y-37465000D02*
X70104000Y-46101000D01*
X78740000Y-28829000D02*
X78740000Y-37465000D01*
X81534000Y-26035000D02*
X78740000Y-28829000D01*
X84709000Y-26035000D02*
X81534000Y-26035000D01*
X85598000Y-26924000D02*
X84709000Y-26035000D01*
X83058000Y-86360000D02*
X81407000Y-86360000D01*
X77851000Y-89916000D02*
X66040000Y-89916000D01*
X81407000Y-86360000D02*
X77851000Y-89916000D01*
X83058000Y-83820000D02*
X82423000Y-83820000D01*
X82423000Y-83820000D02*
X77597000Y-88646000D01*
X77597000Y-88646000D02*
X55372000Y-88646000D01*
X55372000Y-88646000D02*
X53975000Y-90043000D01*
X53975000Y-90043000D02*
X53975000Y-91567000D01*
X53975000Y-91567000D02*
X55880000Y-93472000D01*
X85598000Y-90170000D02*
X86487000Y-90170000D01*
X86487000Y-90170000D02*
X87503000Y-91186000D01*
X87503000Y-91186000D02*
X87503000Y-93472000D01*
X87503000Y-93472000D02*
X86614000Y-94361000D01*
X86614000Y-94361000D02*
X82931000Y-94361000D01*
X82931000Y-94361000D02*
X79502000Y-90932000D01*
X79502000Y-90932000D02*
X58420000Y-90932000D01*
X85598000Y-85090000D02*
X85598000Y-83312000D01*
X59690000Y-87884000D02*
X59563000Y-87757000D01*
X75946000Y-87884000D02*
X59690000Y-87884000D01*
X81915000Y-81915000D02*
X75946000Y-87884000D01*
X84201000Y-81915000D02*
X81915000Y-81915000D01*
X85598000Y-83312000D02*
X84201000Y-81915000D01*
M02*
