G04 #@! TF.FileFunction,Soldermask,Bot*
%FSLAX46Y46*%
G04 Gerber Fmt 4.6, Leading zero omitted, Abs format (unit mm)*
G04 Created by KiCad (PCBNEW 4.0.7) date 10/12/18 11:57:34*
%MOMM*%
%LPD*%
G01*
G04 APERTURE LIST*
%ADD10C,0.100000*%
%ADD11R,2.100000X2.100000*%
%ADD12O,2.100000X2.100000*%
%ADD13C,2.600000*%
G04 APERTURE END LIST*
D10*
D11*
X41275000Y-119316500D03*
X41275000Y-113347500D03*
X58420000Y-111252000D03*
D12*
X55880000Y-111252000D03*
X58420000Y-108712000D03*
X55880000Y-108712000D03*
X58420000Y-106172000D03*
X55880000Y-106172000D03*
X58420000Y-103632000D03*
X55880000Y-103632000D03*
X58420000Y-101092000D03*
X55880000Y-101092000D03*
X58420000Y-98552000D03*
X55880000Y-98552000D03*
X58420000Y-96012000D03*
X55880000Y-96012000D03*
X58420000Y-93472000D03*
X55880000Y-93472000D03*
X58420000Y-90932000D03*
X55880000Y-90932000D03*
D11*
X28194000Y-111252000D03*
D12*
X25654000Y-111252000D03*
X28194000Y-108712000D03*
X25654000Y-108712000D03*
X28194000Y-106172000D03*
X25654000Y-106172000D03*
X28194000Y-103632000D03*
X25654000Y-103632000D03*
X28194000Y-101092000D03*
X25654000Y-101092000D03*
X28194000Y-98552000D03*
X25654000Y-98552000D03*
X28194000Y-96012000D03*
X25654000Y-96012000D03*
X28194000Y-93472000D03*
X25654000Y-93472000D03*
X28194000Y-90932000D03*
X25654000Y-90932000D03*
D13*
X83058000Y-35560000D03*
X83058000Y-33020000D03*
X83058000Y-30480000D03*
X83058000Y-27940000D03*
X85598000Y-36830000D03*
X85598000Y-34290000D03*
X85598000Y-31750000D03*
X85598000Y-29210000D03*
X83058000Y-63500000D03*
X83058000Y-60960000D03*
X83058000Y-58420000D03*
X83058000Y-55880000D03*
X85598000Y-64770000D03*
X85598000Y-62230000D03*
X85598000Y-59690000D03*
X85598000Y-57150000D03*
X83058000Y-49530000D03*
X83058000Y-46990000D03*
X83058000Y-44450000D03*
X83058000Y-41910000D03*
X85598000Y-50800000D03*
X85598000Y-48260000D03*
X85598000Y-45720000D03*
X85598000Y-43180000D03*
X83058000Y-77470000D03*
X83058000Y-74930000D03*
X83058000Y-72390000D03*
X83058000Y-69850000D03*
X85598000Y-78740000D03*
X85598000Y-76200000D03*
X85598000Y-73660000D03*
X85598000Y-71120000D03*
X83058000Y-91440000D03*
X83058000Y-88900000D03*
X83058000Y-86360000D03*
X83058000Y-83820000D03*
X85598000Y-92710000D03*
X85598000Y-90170000D03*
X85598000Y-87630000D03*
X85598000Y-85090000D03*
X83058000Y-119380000D03*
X83058000Y-116840000D03*
X83058000Y-114300000D03*
X83058000Y-111760000D03*
X85598000Y-120650000D03*
X85598000Y-118110000D03*
X85598000Y-115570000D03*
X85598000Y-113030000D03*
X83058000Y-105410000D03*
X83058000Y-102870000D03*
X83058000Y-100330000D03*
X83058000Y-97790000D03*
X85598000Y-106680000D03*
X85598000Y-104140000D03*
X85598000Y-101600000D03*
X85598000Y-99060000D03*
M02*
