M48
;DRILL file {KiCad 4.0.7} date 10/12/18 11:57:36
;FORMAT={-:-/ absolute / inch / decimal}
FMAT,2
INCH,TZ
T1C0.016
T2C0.039
T3C0.051
%
G90
G05
M72
T1
X1.245Y-3.945
X1.265Y-3.54
X1.265Y-3.72
X1.265Y-4.15
X1.34Y-3.55
X1.34Y-3.755
X1.345Y-3.945
X1.355Y-4.145
X2.345Y-3.455
X2.575Y-4.025
X2.575Y-4.075
X2.6Y-3.54
X2.62Y-3.83
X2.62Y-3.88
T2
X1.01Y-3.58
X1.01Y-3.68
X1.01Y-3.78
X1.01Y-3.88
X1.01Y-3.98
X1.01Y-4.08
X1.01Y-4.18
X1.01Y-4.28
X1.01Y-4.38
X1.11Y-3.58
X1.11Y-3.68
X1.11Y-3.78
X1.11Y-3.88
X1.11Y-3.98
X1.11Y-4.08
X1.11Y-4.18
X1.11Y-4.28
X1.11Y-4.38
X1.625Y-4.4625
X1.625Y-4.6975
X2.2Y-3.58
X2.2Y-3.68
X2.2Y-3.78
X2.2Y-3.88
X2.2Y-3.98
X2.2Y-4.08
X2.2Y-4.18
X2.2Y-4.28
X2.2Y-4.38
X2.3Y-3.58
X2.3Y-3.68
X2.3Y-3.78
X2.3Y-3.88
X2.3Y-3.98
X2.3Y-4.08
X2.3Y-4.18
X2.3Y-4.28
X2.3Y-4.38
T3
X3.27Y-1.1
X3.27Y-1.2
X3.27Y-1.3
X3.27Y-1.4
X3.27Y-1.65
X3.27Y-1.75
X3.27Y-1.85
X3.27Y-1.95
X3.27Y-2.2
X3.27Y-2.3
X3.27Y-2.4
X3.27Y-2.5
X3.27Y-2.75
X3.27Y-2.85
X3.27Y-2.95
X3.27Y-3.05
X3.27Y-3.3
X3.27Y-3.4
X3.27Y-3.5
X3.27Y-3.6
X3.27Y-3.85
X3.27Y-3.95
X3.27Y-4.05
X3.27Y-4.15
X3.27Y-4.4
X3.27Y-4.5
X3.27Y-4.6
X3.27Y-4.7
X3.37Y-1.15
X3.37Y-1.25
X3.37Y-1.35
X3.37Y-1.45
X3.37Y-1.7
X3.37Y-1.8
X3.37Y-1.9
X3.37Y-2.
X3.37Y-2.25
X3.37Y-2.35
X3.37Y-2.45
X3.37Y-2.55
X3.37Y-2.8
X3.37Y-2.9
X3.37Y-3.
X3.37Y-3.1
X3.37Y-3.35
X3.37Y-3.45
X3.37Y-3.55
X3.37Y-3.65
X3.37Y-3.9
X3.37Y-4.
X3.37Y-4.1
X3.37Y-4.2
X3.37Y-4.45
X3.37Y-4.55
X3.37Y-4.65
X3.37Y-4.75
T0
M30
