G04 #@! TF.FileFunction,Legend,Top*
%FSLAX46Y46*%
G04 Gerber Fmt 4.6, Leading zero omitted, Abs format (unit mm)*
G04 Created by KiCad (PCBNEW 4.0.7) date 10/12/18 11:57:34*
%MOMM*%
%LPD*%
G01*
G04 APERTURE LIST*
%ADD10C,0.100000*%
%ADD11C,0.300000*%
%ADD12C,0.120000*%
%ADD13C,0.150000*%
%ADD14C,0.180000*%
G04 APERTURE END LIST*
D10*
D11*
X40279428Y-33069571D02*
X40850857Y-33069571D01*
X40493714Y-32569571D02*
X40493714Y-33855286D01*
X40565142Y-33998143D01*
X40708000Y-34069571D01*
X40850857Y-34069571D01*
X41350857Y-34069571D02*
X41350857Y-33069571D01*
X41350857Y-33355286D02*
X41422285Y-33212429D01*
X41493714Y-33141000D01*
X41636571Y-33069571D01*
X41779428Y-33069571D01*
X42493714Y-34069571D02*
X42350856Y-33998143D01*
X42279428Y-33926714D01*
X42207999Y-33783857D01*
X42207999Y-33355286D01*
X42279428Y-33212429D01*
X42350856Y-33141000D01*
X42493714Y-33069571D01*
X42707999Y-33069571D01*
X42850856Y-33141000D01*
X42922285Y-33212429D01*
X42993714Y-33355286D01*
X42993714Y-33783857D01*
X42922285Y-33926714D01*
X42850856Y-33998143D01*
X42707999Y-34069571D01*
X42493714Y-34069571D01*
X43636571Y-33069571D02*
X43636571Y-34069571D01*
X43636571Y-33212429D02*
X43707999Y-33141000D01*
X43850857Y-33069571D01*
X44065142Y-33069571D01*
X44207999Y-33141000D01*
X44279428Y-33283857D01*
X44279428Y-34069571D01*
X44993714Y-34069571D02*
X44993714Y-33069571D01*
X44993714Y-32569571D02*
X44922285Y-32641000D01*
X44993714Y-32712429D01*
X45065142Y-32641000D01*
X44993714Y-32569571D01*
X44993714Y-32712429D01*
X46350857Y-33998143D02*
X46208000Y-34069571D01*
X45922286Y-34069571D01*
X45779428Y-33998143D01*
X45708000Y-33926714D01*
X45636571Y-33783857D01*
X45636571Y-33355286D01*
X45708000Y-33212429D01*
X45779428Y-33141000D01*
X45922286Y-33069571D01*
X46208000Y-33069571D01*
X46350857Y-33141000D01*
X46993714Y-33926714D02*
X47065142Y-33998143D01*
X46993714Y-34069571D01*
X46922285Y-33998143D01*
X46993714Y-33926714D01*
X46993714Y-34069571D01*
X47636571Y-33998143D02*
X47779428Y-34069571D01*
X48065143Y-34069571D01*
X48208000Y-33998143D01*
X48279428Y-33855286D01*
X48279428Y-33783857D01*
X48208000Y-33641000D01*
X48065143Y-33569571D01*
X47850857Y-33569571D01*
X47708000Y-33498143D01*
X47636571Y-33355286D01*
X47636571Y-33283857D01*
X47708000Y-33141000D01*
X47850857Y-33069571D01*
X48065143Y-33069571D01*
X48208000Y-33141000D01*
X48922286Y-34069571D02*
X48922286Y-32569571D01*
X49065143Y-33498143D02*
X49493714Y-34069571D01*
X49493714Y-33069571D02*
X48922286Y-33641000D01*
X35708001Y-36619571D02*
X35708001Y-35619571D01*
X35708001Y-35762429D02*
X35779429Y-35691000D01*
X35922287Y-35619571D01*
X36136572Y-35619571D01*
X36279429Y-35691000D01*
X36350858Y-35833857D01*
X36350858Y-36619571D01*
X36350858Y-35833857D02*
X36422287Y-35691000D01*
X36565144Y-35619571D01*
X36779429Y-35619571D01*
X36922287Y-35691000D01*
X36993715Y-35833857D01*
X36993715Y-36619571D01*
X37922287Y-36619571D02*
X37779429Y-36548143D01*
X37708001Y-36476714D01*
X37636572Y-36333857D01*
X37636572Y-35905286D01*
X37708001Y-35762429D01*
X37779429Y-35691000D01*
X37922287Y-35619571D01*
X38136572Y-35619571D01*
X38279429Y-35691000D01*
X38350858Y-35762429D01*
X38422287Y-35905286D01*
X38422287Y-36333857D01*
X38350858Y-36476714D01*
X38279429Y-36548143D01*
X38136572Y-36619571D01*
X37922287Y-36619571D01*
X39708001Y-36619571D02*
X39708001Y-35119571D01*
X39708001Y-36548143D02*
X39565144Y-36619571D01*
X39279430Y-36619571D01*
X39136572Y-36548143D01*
X39065144Y-36476714D01*
X38993715Y-36333857D01*
X38993715Y-35905286D01*
X39065144Y-35762429D01*
X39136572Y-35691000D01*
X39279430Y-35619571D01*
X39565144Y-35619571D01*
X39708001Y-35691000D01*
X41065144Y-35619571D02*
X41065144Y-36619571D01*
X40422287Y-35619571D02*
X40422287Y-36405286D01*
X40493715Y-36548143D01*
X40636573Y-36619571D01*
X40850858Y-36619571D01*
X40993715Y-36548143D01*
X41065144Y-36476714D01*
X41993716Y-36619571D02*
X41850858Y-36548143D01*
X41779430Y-36405286D01*
X41779430Y-35119571D01*
X43136572Y-36548143D02*
X42993715Y-36619571D01*
X42708001Y-36619571D01*
X42565144Y-36548143D01*
X42493715Y-36405286D01*
X42493715Y-35833857D01*
X42565144Y-35691000D01*
X42708001Y-35619571D01*
X42993715Y-35619571D01*
X43136572Y-35691000D01*
X43208001Y-35833857D01*
X43208001Y-35976714D01*
X42493715Y-36119571D01*
X43850858Y-36048143D02*
X44993715Y-36048143D01*
X46279429Y-36548143D02*
X46136572Y-36619571D01*
X45850858Y-36619571D01*
X45708001Y-36548143D01*
X45636572Y-36405286D01*
X45636572Y-35833857D01*
X45708001Y-35691000D01*
X45850858Y-35619571D01*
X46136572Y-35619571D01*
X46279429Y-35691000D01*
X46350858Y-35833857D01*
X46350858Y-35976714D01*
X45636572Y-36119571D01*
X46779429Y-35619571D02*
X47350858Y-35619571D01*
X46993715Y-35119571D02*
X46993715Y-36405286D01*
X47065143Y-36548143D01*
X47208001Y-36619571D01*
X47350858Y-36619571D01*
X47850858Y-36619571D02*
X47850858Y-35119571D01*
X48493715Y-36619571D02*
X48493715Y-35833857D01*
X48422286Y-35691000D01*
X48279429Y-35619571D01*
X48065144Y-35619571D01*
X47922286Y-35691000D01*
X47850858Y-35762429D01*
X49779429Y-36548143D02*
X49636572Y-36619571D01*
X49350858Y-36619571D01*
X49208001Y-36548143D01*
X49136572Y-36405286D01*
X49136572Y-35833857D01*
X49208001Y-35691000D01*
X49350858Y-35619571D01*
X49636572Y-35619571D01*
X49779429Y-35691000D01*
X49850858Y-35833857D01*
X49850858Y-35976714D01*
X49136572Y-36119571D01*
X50493715Y-36619571D02*
X50493715Y-35619571D01*
X50493715Y-35905286D02*
X50565143Y-35762429D01*
X50636572Y-35691000D01*
X50779429Y-35619571D01*
X50922286Y-35619571D01*
X51422286Y-35619571D02*
X51422286Y-36619571D01*
X51422286Y-35762429D02*
X51493714Y-35691000D01*
X51636572Y-35619571D01*
X51850857Y-35619571D01*
X51993714Y-35691000D01*
X52065143Y-35833857D01*
X52065143Y-36619571D01*
X53350857Y-36548143D02*
X53208000Y-36619571D01*
X52922286Y-36619571D01*
X52779429Y-36548143D01*
X52708000Y-36405286D01*
X52708000Y-35833857D01*
X52779429Y-35691000D01*
X52922286Y-35619571D01*
X53208000Y-35619571D01*
X53350857Y-35691000D01*
X53422286Y-35833857D01*
X53422286Y-35976714D01*
X52708000Y-36119571D01*
X53850857Y-35619571D02*
X54422286Y-35619571D01*
X54065143Y-35119571D02*
X54065143Y-36405286D01*
X54136571Y-36548143D01*
X54279429Y-36619571D01*
X54422286Y-36619571D01*
X37958002Y-38169571D02*
X38315145Y-39169571D01*
X38672287Y-38169571D01*
X40029430Y-39169571D02*
X39172287Y-39169571D01*
X39600859Y-39169571D02*
X39600859Y-37669571D01*
X39458002Y-37883857D01*
X39315144Y-38026714D01*
X39172287Y-38098143D01*
X40672287Y-39026714D02*
X40743715Y-39098143D01*
X40672287Y-39169571D01*
X40600858Y-39098143D01*
X40672287Y-39026714D01*
X40672287Y-39169571D01*
X42029430Y-37669571D02*
X41743716Y-37669571D01*
X41600859Y-37741000D01*
X41529430Y-37812429D01*
X41386573Y-38026714D01*
X41315144Y-38312429D01*
X41315144Y-38883857D01*
X41386573Y-39026714D01*
X41458001Y-39098143D01*
X41600859Y-39169571D01*
X41886573Y-39169571D01*
X42029430Y-39098143D01*
X42100859Y-39026714D01*
X42172287Y-38883857D01*
X42172287Y-38526714D01*
X42100859Y-38383857D01*
X42029430Y-38312429D01*
X41886573Y-38241000D01*
X41600859Y-38241000D01*
X41458001Y-38312429D01*
X41386573Y-38383857D01*
X41315144Y-38526714D01*
X44743715Y-39169571D02*
X43886572Y-39169571D01*
X44315144Y-39169571D02*
X44315144Y-37669571D01*
X44172287Y-37883857D01*
X44029429Y-38026714D01*
X43886572Y-38098143D01*
X45600858Y-38312429D02*
X45458000Y-38241000D01*
X45386572Y-38169571D01*
X45315143Y-38026714D01*
X45315143Y-37955286D01*
X45386572Y-37812429D01*
X45458000Y-37741000D01*
X45600858Y-37669571D01*
X45886572Y-37669571D01*
X46029429Y-37741000D01*
X46100858Y-37812429D01*
X46172286Y-37955286D01*
X46172286Y-38026714D01*
X46100858Y-38169571D01*
X46029429Y-38241000D01*
X45886572Y-38312429D01*
X45600858Y-38312429D01*
X45458000Y-38383857D01*
X45386572Y-38455286D01*
X45315143Y-38598143D01*
X45315143Y-38883857D01*
X45386572Y-39026714D01*
X45458000Y-39098143D01*
X45600858Y-39169571D01*
X45886572Y-39169571D01*
X46029429Y-39098143D01*
X46100858Y-39026714D01*
X46172286Y-38883857D01*
X46172286Y-38598143D01*
X46100858Y-38455286D01*
X46029429Y-38383857D01*
X45886572Y-38312429D01*
X47600857Y-39169571D02*
X46743714Y-39169571D01*
X47172286Y-39169571D02*
X47172286Y-37669571D01*
X47029429Y-37883857D01*
X46886571Y-38026714D01*
X46743714Y-38098143D01*
X48529428Y-37669571D02*
X48672285Y-37669571D01*
X48815142Y-37741000D01*
X48886571Y-37812429D01*
X48958000Y-37955286D01*
X49029428Y-38241000D01*
X49029428Y-38598143D01*
X48958000Y-38883857D01*
X48886571Y-39026714D01*
X48815142Y-39098143D01*
X48672285Y-39169571D01*
X48529428Y-39169571D01*
X48386571Y-39098143D01*
X48315142Y-39026714D01*
X48243714Y-38883857D01*
X48172285Y-38598143D01*
X48172285Y-38241000D01*
X48243714Y-37955286D01*
X48315142Y-37812429D01*
X48386571Y-37741000D01*
X48529428Y-37669571D01*
X50457999Y-39169571D02*
X49600856Y-39169571D01*
X50029428Y-39169571D02*
X50029428Y-37669571D01*
X49886571Y-37883857D01*
X49743713Y-38026714D01*
X49600856Y-38098143D01*
X51029427Y-37812429D02*
X51100856Y-37741000D01*
X51243713Y-37669571D01*
X51600856Y-37669571D01*
X51743713Y-37741000D01*
X51815142Y-37812429D01*
X51886570Y-37955286D01*
X51886570Y-38098143D01*
X51815142Y-38312429D01*
X50957999Y-39169571D01*
X51886570Y-39169571D01*
D12*
X39945000Y-120646500D02*
X42605000Y-120646500D01*
X39945000Y-120586500D02*
X39945000Y-120646500D01*
X42605000Y-120586500D02*
X42605000Y-120646500D01*
X39945000Y-120586500D02*
X42605000Y-120586500D01*
X39945000Y-119316500D02*
X39945000Y-117986500D01*
X39945000Y-117986500D02*
X41275000Y-117986500D01*
X39945000Y-114677500D02*
X42605000Y-114677500D01*
X39945000Y-114617500D02*
X39945000Y-114677500D01*
X42605000Y-114617500D02*
X42605000Y-114677500D01*
X39945000Y-114617500D02*
X42605000Y-114617500D01*
X39945000Y-113347500D02*
X39945000Y-112017500D01*
X39945000Y-112017500D02*
X41275000Y-112017500D01*
X59750000Y-89602000D02*
X54550000Y-89602000D01*
X59750000Y-109982000D02*
X59750000Y-89602000D01*
X54550000Y-112582000D02*
X54550000Y-89602000D01*
X59750000Y-109982000D02*
X57150000Y-109982000D01*
X57150000Y-109982000D02*
X57150000Y-112582000D01*
X57150000Y-112582000D02*
X54550000Y-112582000D01*
X59750000Y-111252000D02*
X59750000Y-112582000D01*
X59750000Y-112582000D02*
X58420000Y-112582000D01*
X29524000Y-89602000D02*
X24324000Y-89602000D01*
X29524000Y-109982000D02*
X29524000Y-89602000D01*
X24324000Y-112582000D02*
X24324000Y-89602000D01*
X29524000Y-109982000D02*
X26924000Y-109982000D01*
X26924000Y-109982000D02*
X26924000Y-112582000D01*
X26924000Y-112582000D02*
X24324000Y-112582000D01*
X29524000Y-111252000D02*
X29524000Y-112582000D01*
X29524000Y-112582000D02*
X28194000Y-112582000D01*
D13*
X68326000Y-24638000D02*
X87122000Y-24638000D01*
X87122000Y-24638000D02*
X87122000Y-25400000D01*
X85598000Y-40386000D02*
X87122000Y-40386000D01*
X87122000Y-40386000D02*
X87122000Y-25146000D01*
X68326000Y-24638000D02*
X68326000Y-40386000D01*
X68326000Y-40386000D02*
X86360000Y-40386000D01*
X68326000Y-52578000D02*
X87122000Y-52578000D01*
X87122000Y-52578000D02*
X87122000Y-53340000D01*
X85598000Y-68326000D02*
X87122000Y-68326000D01*
X87122000Y-68326000D02*
X87122000Y-53086000D01*
X68326000Y-52578000D02*
X68326000Y-68326000D01*
X68326000Y-68326000D02*
X86360000Y-68326000D01*
X68326000Y-38608000D02*
X87122000Y-38608000D01*
X87122000Y-38608000D02*
X87122000Y-39370000D01*
X85598000Y-54356000D02*
X87122000Y-54356000D01*
X87122000Y-54356000D02*
X87122000Y-39116000D01*
X68326000Y-38608000D02*
X68326000Y-54356000D01*
X68326000Y-54356000D02*
X86360000Y-54356000D01*
X68326000Y-66548000D02*
X87122000Y-66548000D01*
X87122000Y-66548000D02*
X87122000Y-67310000D01*
X85598000Y-82296000D02*
X87122000Y-82296000D01*
X87122000Y-82296000D02*
X87122000Y-67056000D01*
X68326000Y-66548000D02*
X68326000Y-82296000D01*
X68326000Y-82296000D02*
X86360000Y-82296000D01*
X68326000Y-80518000D02*
X87122000Y-80518000D01*
X87122000Y-80518000D02*
X87122000Y-81280000D01*
X85598000Y-96266000D02*
X87122000Y-96266000D01*
X87122000Y-96266000D02*
X87122000Y-81026000D01*
X68326000Y-80518000D02*
X68326000Y-96266000D01*
X68326000Y-96266000D02*
X86360000Y-96266000D01*
X68326000Y-108458000D02*
X87122000Y-108458000D01*
X87122000Y-108458000D02*
X87122000Y-109220000D01*
X85598000Y-124206000D02*
X87122000Y-124206000D01*
X87122000Y-124206000D02*
X87122000Y-108966000D01*
X68326000Y-108458000D02*
X68326000Y-124206000D01*
X68326000Y-124206000D02*
X86360000Y-124206000D01*
X68326000Y-94488000D02*
X87122000Y-94488000D01*
X87122000Y-94488000D02*
X87122000Y-95250000D01*
X85598000Y-110236000D02*
X87122000Y-110236000D01*
X87122000Y-110236000D02*
X87122000Y-94996000D01*
X68326000Y-94488000D02*
X68326000Y-110236000D01*
X68326000Y-110236000D02*
X86360000Y-110236000D01*
X41084524Y-121372381D02*
X40608333Y-121372381D01*
X40560714Y-121848571D01*
X40608333Y-121800952D01*
X40703571Y-121753333D01*
X40941667Y-121753333D01*
X41036905Y-121800952D01*
X41084524Y-121848571D01*
X41132143Y-121943810D01*
X41132143Y-122181905D01*
X41084524Y-122277143D01*
X41036905Y-122324762D01*
X40941667Y-122372381D01*
X40703571Y-122372381D01*
X40608333Y-122324762D01*
X40560714Y-122277143D01*
X41417857Y-121372381D02*
X41751190Y-122372381D01*
X42084524Y-121372381D01*
X40513096Y-115705000D02*
X40417858Y-115657381D01*
X40275001Y-115657381D01*
X40132143Y-115705000D01*
X40036905Y-115800238D01*
X39989286Y-115895476D01*
X39941667Y-116085952D01*
X39941667Y-116228810D01*
X39989286Y-116419286D01*
X40036905Y-116514524D01*
X40132143Y-116609762D01*
X40275001Y-116657381D01*
X40370239Y-116657381D01*
X40513096Y-116609762D01*
X40560715Y-116562143D01*
X40560715Y-116228810D01*
X40370239Y-116228810D01*
X40989286Y-116657381D02*
X40989286Y-115657381D01*
X41560715Y-116657381D01*
X41560715Y-115657381D01*
X42036905Y-116657381D02*
X42036905Y-115657381D01*
X42275000Y-115657381D01*
X42417858Y-115705000D01*
X42513096Y-115800238D01*
X42560715Y-115895476D01*
X42608334Y-116085952D01*
X42608334Y-116228810D01*
X42560715Y-116419286D01*
X42513096Y-116514524D01*
X42417858Y-116609762D01*
X42275000Y-116657381D01*
X42036905Y-116657381D01*
X56816667Y-113034381D02*
X56816667Y-113748667D01*
X56769047Y-113891524D01*
X56673809Y-113986762D01*
X56530952Y-114034381D01*
X56435714Y-114034381D01*
X57816667Y-114034381D02*
X57245238Y-114034381D01*
X57530952Y-114034381D02*
X57530952Y-113034381D01*
X57435714Y-113177238D01*
X57340476Y-113272476D01*
X57245238Y-113320095D01*
X26590667Y-113034381D02*
X26590667Y-113748667D01*
X26543047Y-113891524D01*
X26447809Y-113986762D01*
X26304952Y-114034381D01*
X26209714Y-114034381D01*
X27019238Y-113129619D02*
X27066857Y-113082000D01*
X27162095Y-113034381D01*
X27400191Y-113034381D01*
X27495429Y-113082000D01*
X27543048Y-113129619D01*
X27590667Y-113224857D01*
X27590667Y-113320095D01*
X27543048Y-113462952D01*
X26971619Y-114034381D01*
X27590667Y-114034381D01*
D14*
X75660381Y-33766190D02*
X76374667Y-33766190D01*
X76517524Y-33813810D01*
X76612762Y-33909048D01*
X76660381Y-34051905D01*
X76660381Y-34147143D01*
X75993714Y-32861428D02*
X76660381Y-32861428D01*
X75612762Y-33099524D02*
X76327048Y-33337619D01*
X76327048Y-32718571D01*
X75660381Y-61706190D02*
X76374667Y-61706190D01*
X76517524Y-61753810D01*
X76612762Y-61849048D01*
X76660381Y-61991905D01*
X76660381Y-62087143D01*
X75660381Y-60801428D02*
X75660381Y-60991905D01*
X75708000Y-61087143D01*
X75755619Y-61134762D01*
X75898476Y-61230000D01*
X76088952Y-61277619D01*
X76469905Y-61277619D01*
X76565143Y-61230000D01*
X76612762Y-61182381D01*
X76660381Y-61087143D01*
X76660381Y-60896666D01*
X76612762Y-60801428D01*
X76565143Y-60753809D01*
X76469905Y-60706190D01*
X76231810Y-60706190D01*
X76136571Y-60753809D01*
X76088952Y-60801428D01*
X76041333Y-60896666D01*
X76041333Y-61087143D01*
X76088952Y-61182381D01*
X76136571Y-61230000D01*
X76231810Y-61277619D01*
X75660381Y-47736190D02*
X76374667Y-47736190D01*
X76517524Y-47783810D01*
X76612762Y-47879048D01*
X76660381Y-48021905D01*
X76660381Y-48117143D01*
X76660381Y-46736190D02*
X76660381Y-47307619D01*
X76660381Y-47021905D02*
X75660381Y-47021905D01*
X75803238Y-47117143D01*
X75898476Y-47212381D01*
X75946095Y-47307619D01*
X76660381Y-45783809D02*
X76660381Y-46355238D01*
X76660381Y-46069524D02*
X75660381Y-46069524D01*
X75803238Y-46164762D01*
X75898476Y-46260000D01*
X75946095Y-46355238D01*
X75660381Y-75676190D02*
X76374667Y-75676190D01*
X76517524Y-75723810D01*
X76612762Y-75819048D01*
X76660381Y-75961905D01*
X76660381Y-76057143D01*
X75660381Y-75295238D02*
X75660381Y-74628571D01*
X76660381Y-75057143D01*
X75660381Y-89646190D02*
X76374667Y-89646190D01*
X76517524Y-89693810D01*
X76612762Y-89789048D01*
X76660381Y-89931905D01*
X76660381Y-90027143D01*
X76088952Y-89027143D02*
X76041333Y-89122381D01*
X75993714Y-89170000D01*
X75898476Y-89217619D01*
X75850857Y-89217619D01*
X75755619Y-89170000D01*
X75708000Y-89122381D01*
X75660381Y-89027143D01*
X75660381Y-88836666D01*
X75708000Y-88741428D01*
X75755619Y-88693809D01*
X75850857Y-88646190D01*
X75898476Y-88646190D01*
X75993714Y-88693809D01*
X76041333Y-88741428D01*
X76088952Y-88836666D01*
X76088952Y-89027143D01*
X76136571Y-89122381D01*
X76184190Y-89170000D01*
X76279429Y-89217619D01*
X76469905Y-89217619D01*
X76565143Y-89170000D01*
X76612762Y-89122381D01*
X76660381Y-89027143D01*
X76660381Y-88836666D01*
X76612762Y-88741428D01*
X76565143Y-88693809D01*
X76469905Y-88646190D01*
X76279429Y-88646190D01*
X76184190Y-88693809D01*
X76136571Y-88741428D01*
X76088952Y-88836666D01*
X75660381Y-117586190D02*
X76374667Y-117586190D01*
X76517524Y-117633810D01*
X76612762Y-117729048D01*
X76660381Y-117871905D01*
X76660381Y-117967143D01*
X76660381Y-117062381D02*
X76660381Y-116871905D01*
X76612762Y-116776666D01*
X76565143Y-116729047D01*
X76422286Y-116633809D01*
X76231810Y-116586190D01*
X75850857Y-116586190D01*
X75755619Y-116633809D01*
X75708000Y-116681428D01*
X75660381Y-116776666D01*
X75660381Y-116967143D01*
X75708000Y-117062381D01*
X75755619Y-117110000D01*
X75850857Y-117157619D01*
X76088952Y-117157619D01*
X76184190Y-117110000D01*
X76231810Y-117062381D01*
X76279429Y-116967143D01*
X76279429Y-116776666D01*
X76231810Y-116681428D01*
X76184190Y-116633809D01*
X76088952Y-116586190D01*
X75660381Y-103616190D02*
X76374667Y-103616190D01*
X76517524Y-103663810D01*
X76612762Y-103759048D01*
X76660381Y-103901905D01*
X76660381Y-103997143D01*
X76660381Y-102616190D02*
X76660381Y-103187619D01*
X76660381Y-102901905D02*
X75660381Y-102901905D01*
X75803238Y-102997143D01*
X75898476Y-103092381D01*
X75946095Y-103187619D01*
X75660381Y-101997143D02*
X75660381Y-101901904D01*
X75708000Y-101806666D01*
X75755619Y-101759047D01*
X75850857Y-101711428D01*
X76041333Y-101663809D01*
X76279429Y-101663809D01*
X76469905Y-101711428D01*
X76565143Y-101759047D01*
X76612762Y-101806666D01*
X76660381Y-101901904D01*
X76660381Y-101997143D01*
X76612762Y-102092381D01*
X76565143Y-102140000D01*
X76469905Y-102187619D01*
X76279429Y-102235238D01*
X76041333Y-102235238D01*
X75850857Y-102187619D01*
X75755619Y-102140000D01*
X75708000Y-102092381D01*
X75660381Y-101997143D01*
M02*
