G04 #@! TF.FileFunction,Legend,Bot*
%FSLAX46Y46*%
G04 Gerber Fmt 4.6, Leading zero omitted, Abs format (unit mm)*
G04 Created by KiCad (PCBNEW 4.0.7) date 02/27/21 15:52:34*
%MOMM*%
%LPD*%
G01*
G04 APERTURE LIST*
%ADD10C,0.100000*%
%ADD11C,0.150000*%
G04 APERTURE END LIST*
D10*
X75616189Y-66774190D02*
X75616189Y-66440857D01*
X75616189Y-66488476D02*
X75592380Y-66464667D01*
X75544761Y-66440857D01*
X75473332Y-66440857D01*
X75425713Y-66464667D01*
X75401904Y-66512286D01*
X75401904Y-66774190D01*
X75401904Y-66512286D02*
X75378094Y-66464667D01*
X75330475Y-66440857D01*
X75259047Y-66440857D01*
X75211427Y-66464667D01*
X75187618Y-66512286D01*
X75187618Y-66774190D01*
X74878094Y-66774190D02*
X74925713Y-66750381D01*
X74949522Y-66726571D01*
X74973332Y-66678952D01*
X74973332Y-66536095D01*
X74949522Y-66488476D01*
X74925713Y-66464667D01*
X74878094Y-66440857D01*
X74806665Y-66440857D01*
X74759046Y-66464667D01*
X74735237Y-66488476D01*
X74711427Y-66536095D01*
X74711427Y-66678952D01*
X74735237Y-66726571D01*
X74759046Y-66750381D01*
X74806665Y-66774190D01*
X74878094Y-66774190D01*
X74497141Y-66440857D02*
X74497141Y-66869429D01*
X74520951Y-66917048D01*
X74568570Y-66940857D01*
X74592379Y-66940857D01*
X74497141Y-66274190D02*
X74520951Y-66298000D01*
X74497141Y-66321810D01*
X74473332Y-66298000D01*
X74497141Y-66274190D01*
X74497141Y-66321810D01*
X74068570Y-66750381D02*
X74116189Y-66774190D01*
X74211427Y-66774190D01*
X74259046Y-66750381D01*
X74282856Y-66702762D01*
X74282856Y-66512286D01*
X74259046Y-66464667D01*
X74211427Y-66440857D01*
X74116189Y-66440857D01*
X74068570Y-66464667D01*
X74044761Y-66512286D01*
X74044761Y-66559905D01*
X74282856Y-66607524D01*
X73235238Y-66774190D02*
X73235238Y-66274190D01*
X73235238Y-66750381D02*
X73282857Y-66774190D01*
X73378095Y-66774190D01*
X73425714Y-66750381D01*
X73449523Y-66726571D01*
X73473333Y-66678952D01*
X73473333Y-66536095D01*
X73449523Y-66488476D01*
X73425714Y-66464667D01*
X73378095Y-66440857D01*
X73282857Y-66440857D01*
X73235238Y-66464667D01*
X72925714Y-66774190D02*
X72973333Y-66750381D01*
X72997142Y-66726571D01*
X73020952Y-66678952D01*
X73020952Y-66536095D01*
X72997142Y-66488476D01*
X72973333Y-66464667D01*
X72925714Y-66440857D01*
X72854285Y-66440857D01*
X72806666Y-66464667D01*
X72782857Y-66488476D01*
X72759047Y-66536095D01*
X72759047Y-66678952D01*
X72782857Y-66726571D01*
X72806666Y-66750381D01*
X72854285Y-66774190D01*
X72925714Y-66774190D01*
X72330476Y-66774190D02*
X72330476Y-66274190D01*
X72330476Y-66750381D02*
X72378095Y-66774190D01*
X72473333Y-66774190D01*
X72520952Y-66750381D01*
X72544761Y-66726571D01*
X72568571Y-66678952D01*
X72568571Y-66536095D01*
X72544761Y-66488476D01*
X72520952Y-66464667D01*
X72473333Y-66440857D01*
X72378095Y-66440857D01*
X72330476Y-66464667D01*
X72092380Y-66774190D02*
X72092380Y-66440857D01*
X72092380Y-66274190D02*
X72116190Y-66298000D01*
X72092380Y-66321810D01*
X72068571Y-66298000D01*
X72092380Y-66274190D01*
X72092380Y-66321810D01*
X71854285Y-66440857D02*
X71854285Y-66774190D01*
X71854285Y-66488476D02*
X71830476Y-66464667D01*
X71782857Y-66440857D01*
X71711428Y-66440857D01*
X71663809Y-66464667D01*
X71640000Y-66512286D01*
X71640000Y-66774190D01*
X71401904Y-66774190D02*
X71401904Y-66274190D01*
X71354285Y-66583714D02*
X71211428Y-66774190D01*
X71211428Y-66440857D02*
X71401904Y-66631333D01*
X70925714Y-66774190D02*
X70973333Y-66750381D01*
X70997142Y-66726571D01*
X71020952Y-66678952D01*
X71020952Y-66536095D01*
X70997142Y-66488476D01*
X70973333Y-66464667D01*
X70925714Y-66440857D01*
X70854285Y-66440857D01*
X70806666Y-66464667D01*
X70782857Y-66488476D01*
X70759047Y-66536095D01*
X70759047Y-66678952D01*
X70782857Y-66726571D01*
X70806666Y-66750381D01*
X70854285Y-66774190D01*
X70925714Y-66774190D01*
X70163809Y-66726571D02*
X70140000Y-66750381D01*
X70163809Y-66774190D01*
X70187619Y-66750381D01*
X70163809Y-66726571D01*
X70163809Y-66774190D01*
X70163809Y-66464667D02*
X70140000Y-66488476D01*
X70163809Y-66512286D01*
X70187619Y-66488476D01*
X70163809Y-66464667D01*
X70163809Y-66512286D01*
X69925714Y-66583714D02*
X69544762Y-66583714D01*
X69235238Y-66274190D02*
X69235238Y-66393238D01*
X69354285Y-66345619D02*
X69235238Y-66393238D01*
X69116190Y-66345619D01*
X69306666Y-66488476D02*
X69235238Y-66393238D01*
X69163809Y-66488476D01*
D11*
X21082000Y-42545000D02*
X21082000Y-67564000D01*
X21082000Y-67564000D02*
X73660000Y-67564000D01*
X73660000Y-67564000D02*
X76200000Y-67564000D01*
X76200000Y-67564000D02*
X76200000Y-17526000D01*
X76200000Y-17526000D02*
X21082000Y-17526000D01*
X21082000Y-17526000D02*
X21082000Y-42545000D01*
M02*
