G04 #@! TF.FileFunction,Legend,Top*
%FSLAX46Y46*%
G04 Gerber Fmt 4.6, Leading zero omitted, Abs format (unit mm)*
G04 Created by KiCad (PCBNEW 4.0.7) date 02/27/21 15:52:34*
%MOMM*%
%LPD*%
G01*
G04 APERTURE LIST*
%ADD10C,0.100000*%
%ADD11C,0.200000*%
%ADD12C,0.150000*%
%ADD13C,0.120000*%
G04 APERTURE END LIST*
D10*
D11*
X53778047Y-18835714D02*
X54158999Y-18835714D01*
X53920904Y-18502381D02*
X53920904Y-19359524D01*
X53968523Y-19454762D01*
X54063761Y-19502381D01*
X54158999Y-19502381D01*
X54492333Y-19502381D02*
X54492333Y-18835714D01*
X54492333Y-19026190D02*
X54539952Y-18930952D01*
X54587571Y-18883333D01*
X54682809Y-18835714D01*
X54778048Y-18835714D01*
X55254238Y-19502381D02*
X55159000Y-19454762D01*
X55111381Y-19407143D01*
X55063762Y-19311905D01*
X55063762Y-19026190D01*
X55111381Y-18930952D01*
X55159000Y-18883333D01*
X55254238Y-18835714D01*
X55397096Y-18835714D01*
X55492334Y-18883333D01*
X55539953Y-18930952D01*
X55587572Y-19026190D01*
X55587572Y-19311905D01*
X55539953Y-19407143D01*
X55492334Y-19454762D01*
X55397096Y-19502381D01*
X55254238Y-19502381D01*
X56016143Y-18835714D02*
X56016143Y-19502381D01*
X56016143Y-18930952D02*
X56063762Y-18883333D01*
X56159000Y-18835714D01*
X56301858Y-18835714D01*
X56397096Y-18883333D01*
X56444715Y-18978571D01*
X56444715Y-19502381D01*
X56920905Y-19502381D02*
X56920905Y-18835714D01*
X56920905Y-18502381D02*
X56873286Y-18550000D01*
X56920905Y-18597619D01*
X56968524Y-18550000D01*
X56920905Y-18502381D01*
X56920905Y-18597619D01*
X57825667Y-19454762D02*
X57730429Y-19502381D01*
X57539952Y-19502381D01*
X57444714Y-19454762D01*
X57397095Y-19407143D01*
X57349476Y-19311905D01*
X57349476Y-19026190D01*
X57397095Y-18930952D01*
X57444714Y-18883333D01*
X57539952Y-18835714D01*
X57730429Y-18835714D01*
X57825667Y-18883333D01*
X58254238Y-19407143D02*
X58301857Y-19454762D01*
X58254238Y-19502381D01*
X58206619Y-19454762D01*
X58254238Y-19407143D01*
X58254238Y-19502381D01*
X58682809Y-19454762D02*
X58778047Y-19502381D01*
X58968523Y-19502381D01*
X59063762Y-19454762D01*
X59111381Y-19359524D01*
X59111381Y-19311905D01*
X59063762Y-19216667D01*
X58968523Y-19169048D01*
X58825666Y-19169048D01*
X58730428Y-19121429D01*
X58682809Y-19026190D01*
X58682809Y-18978571D01*
X58730428Y-18883333D01*
X58825666Y-18835714D01*
X58968523Y-18835714D01*
X59063762Y-18883333D01*
X59539952Y-19502381D02*
X59539952Y-18502381D01*
X59635190Y-19121429D02*
X59920905Y-19502381D01*
X59920905Y-18835714D02*
X59539952Y-19216667D01*
X61825667Y-18454762D02*
X60968524Y-19740476D01*
X62920905Y-19502381D02*
X62920905Y-18502381D01*
X62920905Y-18883333D02*
X63016143Y-18835714D01*
X63206620Y-18835714D01*
X63301858Y-18883333D01*
X63349477Y-18930952D01*
X63397096Y-19026190D01*
X63397096Y-19311905D01*
X63349477Y-19407143D01*
X63301858Y-19454762D01*
X63206620Y-19502381D01*
X63016143Y-19502381D01*
X62920905Y-19454762D01*
X63968524Y-19502381D02*
X63873286Y-19454762D01*
X63825667Y-19407143D01*
X63778048Y-19311905D01*
X63778048Y-19026190D01*
X63825667Y-18930952D01*
X63873286Y-18883333D01*
X63968524Y-18835714D01*
X64111382Y-18835714D01*
X64206620Y-18883333D01*
X64254239Y-18930952D01*
X64301858Y-19026190D01*
X64301858Y-19311905D01*
X64254239Y-19407143D01*
X64206620Y-19454762D01*
X64111382Y-19502381D01*
X63968524Y-19502381D01*
X64873286Y-19502381D02*
X64778048Y-19454762D01*
X64730429Y-19407143D01*
X64682810Y-19311905D01*
X64682810Y-19026190D01*
X64730429Y-18930952D01*
X64778048Y-18883333D01*
X64873286Y-18835714D01*
X65016144Y-18835714D01*
X65111382Y-18883333D01*
X65159001Y-18930952D01*
X65206620Y-19026190D01*
X65206620Y-19311905D01*
X65159001Y-19407143D01*
X65111382Y-19454762D01*
X65016144Y-19502381D01*
X64873286Y-19502381D01*
X65635191Y-19502381D02*
X65635191Y-18835714D01*
X65635191Y-18930952D02*
X65682810Y-18883333D01*
X65778048Y-18835714D01*
X65920906Y-18835714D01*
X66016144Y-18883333D01*
X66063763Y-18978571D01*
X66063763Y-19502381D01*
X66063763Y-18978571D02*
X66111382Y-18883333D01*
X66206620Y-18835714D01*
X66349477Y-18835714D01*
X66444715Y-18883333D01*
X66492334Y-18978571D01*
X66492334Y-19502381D01*
X66968524Y-19502381D02*
X66968524Y-18502381D01*
X66968524Y-18883333D02*
X67063762Y-18835714D01*
X67254239Y-18835714D01*
X67349477Y-18883333D01*
X67397096Y-18930952D01*
X67444715Y-19026190D01*
X67444715Y-19311905D01*
X67397096Y-19407143D01*
X67349477Y-19454762D01*
X67254239Y-19502381D01*
X67063762Y-19502381D01*
X66968524Y-19454762D01*
X68016143Y-19502381D02*
X67920905Y-19454762D01*
X67873286Y-19407143D01*
X67825667Y-19311905D01*
X67825667Y-19026190D01*
X67873286Y-18930952D01*
X67920905Y-18883333D01*
X68016143Y-18835714D01*
X68159001Y-18835714D01*
X68254239Y-18883333D01*
X68301858Y-18930952D01*
X68349477Y-19026190D01*
X68349477Y-19311905D01*
X68301858Y-19407143D01*
X68254239Y-19454762D01*
X68159001Y-19502381D01*
X68016143Y-19502381D01*
X68682810Y-19502381D02*
X69206620Y-18835714D01*
X68682810Y-18835714D02*
X69206620Y-19502381D01*
X71063763Y-18454762D02*
X70206620Y-19740476D01*
X72111382Y-18597619D02*
X72159001Y-18550000D01*
X72254239Y-18502381D01*
X72492335Y-18502381D01*
X72587573Y-18550000D01*
X72635192Y-18597619D01*
X72682811Y-18692857D01*
X72682811Y-18788095D01*
X72635192Y-18930952D01*
X72063763Y-19502381D01*
X72682811Y-19502381D01*
X73635192Y-19502381D02*
X73063763Y-19502381D01*
X73349477Y-19502381D02*
X73349477Y-18502381D01*
X73254239Y-18645238D01*
X73159001Y-18740476D01*
X73063763Y-18788095D01*
X74254239Y-18502381D02*
X74349478Y-18502381D01*
X74444716Y-18550000D01*
X74492335Y-18597619D01*
X74539954Y-18692857D01*
X74587573Y-18883333D01*
X74587573Y-19121429D01*
X74539954Y-19311905D01*
X74492335Y-19407143D01*
X74444716Y-19454762D01*
X74349478Y-19502381D01*
X74254239Y-19502381D01*
X74159001Y-19454762D01*
X74111382Y-19407143D01*
X74063763Y-19311905D01*
X74016144Y-19121429D01*
X74016144Y-18883333D01*
X74063763Y-18692857D01*
X74111382Y-18597619D01*
X74159001Y-18550000D01*
X74254239Y-18502381D01*
X74968525Y-18597619D02*
X75016144Y-18550000D01*
X75111382Y-18502381D01*
X75349478Y-18502381D01*
X75444716Y-18550000D01*
X75492335Y-18597619D01*
X75539954Y-18692857D01*
X75539954Y-18788095D01*
X75492335Y-18930952D01*
X74920906Y-19502381D01*
X75539954Y-19502381D01*
X75920906Y-18597619D02*
X75968525Y-18550000D01*
X76063763Y-18502381D01*
X76301859Y-18502381D01*
X76397097Y-18550000D01*
X76444716Y-18597619D01*
X76492335Y-18692857D01*
X76492335Y-18788095D01*
X76444716Y-18930952D01*
X75873287Y-19502381D01*
X76492335Y-19502381D01*
X76825668Y-18502381D02*
X77492335Y-18502381D01*
X77063763Y-19502381D01*
D12*
X77851000Y-55753000D02*
X77851000Y-43561000D01*
X73025000Y-38989000D02*
X73025000Y-43307000D01*
X73025000Y-43307000D02*
X73025000Y-43561000D01*
X73025000Y-43561000D02*
X77851000Y-43561000D01*
X77851000Y-55753000D02*
X73025000Y-55753000D01*
X73025000Y-55753000D02*
X73025000Y-60833000D01*
X73025000Y-60833000D02*
X38735000Y-60833000D01*
X38735000Y-60833000D02*
X38735000Y-55753000D01*
X38735000Y-55753000D02*
X34163000Y-55753000D01*
X34163000Y-55753000D02*
X34163000Y-43561000D01*
X34163000Y-43561000D02*
X38735000Y-43561000D01*
X38735000Y-43561000D02*
X38735000Y-38989000D01*
X38735000Y-38989000D02*
X73025000Y-38989000D01*
D13*
X84820000Y-38535000D02*
X82820000Y-38535000D01*
X82820000Y-36395000D02*
X84820000Y-36395000D01*
D12*
X78613000Y-34925000D02*
X89027000Y-34925000D01*
X89027000Y-34925000D02*
X89027000Y-49911000D01*
X89027000Y-49911000D02*
X78613000Y-49911000D01*
X78613000Y-49911000D02*
X78613000Y-34925000D01*
X15621000Y-67183000D02*
X15621000Y-41148000D01*
X15621000Y-41148000D02*
X33401000Y-41148000D01*
X33401000Y-41148000D02*
X33401000Y-67183000D01*
X33401000Y-67183000D02*
X15621000Y-67183000D01*
X68929428Y-41346381D02*
X68834190Y-41298762D01*
X68786571Y-41251143D01*
X68738952Y-41155905D01*
X68738952Y-40870190D01*
X68786571Y-40774952D01*
X68834190Y-40727333D01*
X68929428Y-40679714D01*
X69072286Y-40679714D01*
X69167524Y-40727333D01*
X69215143Y-40774952D01*
X69262762Y-40870190D01*
X69262762Y-41155905D01*
X69215143Y-41251143D01*
X69167524Y-41298762D01*
X69072286Y-41346381D01*
X68929428Y-41346381D01*
X70119905Y-40679714D02*
X70119905Y-41346381D01*
X69691333Y-40679714D02*
X69691333Y-41203524D01*
X69738952Y-41298762D01*
X69834190Y-41346381D01*
X69977048Y-41346381D01*
X70072286Y-41298762D01*
X70119905Y-41251143D01*
X70453238Y-40679714D02*
X70834190Y-40679714D01*
X70596095Y-40346381D02*
X70596095Y-41203524D01*
X70643714Y-41298762D01*
X70738952Y-41346381D01*
X70834190Y-41346381D01*
X71167524Y-40965429D02*
X71929429Y-40965429D01*
X71548477Y-41346381D02*
X71548477Y-40584476D01*
X39441572Y-40711381D02*
X39441572Y-40044714D01*
X39441572Y-39711381D02*
X39393953Y-39759000D01*
X39441572Y-39806619D01*
X39489191Y-39759000D01*
X39441572Y-39711381D01*
X39441572Y-39806619D01*
X39917762Y-40044714D02*
X39917762Y-40711381D01*
X39917762Y-40139952D02*
X39965381Y-40092333D01*
X40060619Y-40044714D01*
X40203477Y-40044714D01*
X40298715Y-40092333D01*
X40346334Y-40187571D01*
X40346334Y-40711381D01*
X40822524Y-40330429D02*
X41584429Y-40330429D01*
X41203477Y-40711381D02*
X41203477Y-39949476D01*
X70302524Y-57824714D02*
X70302524Y-58634238D01*
X70254905Y-58729476D01*
X70207286Y-58777095D01*
X70112047Y-58824714D01*
X69969190Y-58824714D01*
X69873952Y-58777095D01*
X70302524Y-58443762D02*
X70207286Y-58491381D01*
X70016809Y-58491381D01*
X69921571Y-58443762D01*
X69873952Y-58396143D01*
X69826333Y-58300905D01*
X69826333Y-58015190D01*
X69873952Y-57919952D01*
X69921571Y-57872333D01*
X70016809Y-57824714D01*
X70207286Y-57824714D01*
X70302524Y-57872333D01*
X70778714Y-57824714D02*
X70778714Y-58491381D01*
X70778714Y-57919952D02*
X70826333Y-57872333D01*
X70921571Y-57824714D01*
X71064429Y-57824714D01*
X71159667Y-57872333D01*
X71207286Y-57967571D01*
X71207286Y-58491381D01*
X72112048Y-58491381D02*
X72112048Y-57491381D01*
X72112048Y-58443762D02*
X72016810Y-58491381D01*
X71826333Y-58491381D01*
X71731095Y-58443762D01*
X71683476Y-58396143D01*
X71635857Y-58300905D01*
X71635857Y-58015190D01*
X71683476Y-57919952D01*
X71731095Y-57872333D01*
X71826333Y-57824714D01*
X72016810Y-57824714D01*
X72112048Y-57872333D01*
X39822524Y-57824714D02*
X39822524Y-58634238D01*
X39774905Y-58729476D01*
X39727286Y-58777095D01*
X39632047Y-58824714D01*
X39489190Y-58824714D01*
X39393952Y-58777095D01*
X39822524Y-58443762D02*
X39727286Y-58491381D01*
X39536809Y-58491381D01*
X39441571Y-58443762D01*
X39393952Y-58396143D01*
X39346333Y-58300905D01*
X39346333Y-58015190D01*
X39393952Y-57919952D01*
X39441571Y-57872333D01*
X39536809Y-57824714D01*
X39727286Y-57824714D01*
X39822524Y-57872333D01*
X40298714Y-57824714D02*
X40298714Y-58491381D01*
X40298714Y-57919952D02*
X40346333Y-57872333D01*
X40441571Y-57824714D01*
X40584429Y-57824714D01*
X40679667Y-57872333D01*
X40727286Y-57967571D01*
X40727286Y-58491381D01*
X41632048Y-58491381D02*
X41632048Y-57491381D01*
X41632048Y-58443762D02*
X41536810Y-58491381D01*
X41346333Y-58491381D01*
X41251095Y-58443762D01*
X41203476Y-58396143D01*
X41155857Y-58300905D01*
X41155857Y-58015190D01*
X41203476Y-57919952D01*
X41251095Y-57872333D01*
X41346333Y-57824714D01*
X41536810Y-57824714D01*
X41632048Y-57872333D01*
X82677143Y-39343571D02*
X82343809Y-39343571D01*
X82343809Y-39867381D02*
X82343809Y-38867381D01*
X82820000Y-38867381D01*
X83629524Y-39200714D02*
X83629524Y-39867381D01*
X83200952Y-39200714D02*
X83200952Y-39724524D01*
X83248571Y-39819762D01*
X83343809Y-39867381D01*
X83486667Y-39867381D01*
X83581905Y-39819762D01*
X83629524Y-39772143D01*
X84058095Y-39819762D02*
X84153333Y-39867381D01*
X84343809Y-39867381D01*
X84439048Y-39819762D01*
X84486667Y-39724524D01*
X84486667Y-39676905D01*
X84439048Y-39581667D01*
X84343809Y-39534048D01*
X84200952Y-39534048D01*
X84105714Y-39486429D01*
X84058095Y-39391190D01*
X84058095Y-39343571D01*
X84105714Y-39248333D01*
X84200952Y-39200714D01*
X84343809Y-39200714D01*
X84439048Y-39248333D01*
X85296191Y-39819762D02*
X85200953Y-39867381D01*
X85010476Y-39867381D01*
X84915238Y-39819762D01*
X84867619Y-39724524D01*
X84867619Y-39343571D01*
X84915238Y-39248333D01*
X85010476Y-39200714D01*
X85200953Y-39200714D01*
X85296191Y-39248333D01*
X85343810Y-39343571D01*
X85343810Y-39438810D01*
X84867619Y-39534048D01*
X20233000Y-27773381D02*
X19756809Y-27773381D01*
X19709190Y-28249571D01*
X19756809Y-28201952D01*
X19852047Y-28154333D01*
X20090143Y-28154333D01*
X20185381Y-28201952D01*
X20233000Y-28249571D01*
X20280619Y-28344810D01*
X20280619Y-28582905D01*
X20233000Y-28678143D01*
X20185381Y-28725762D01*
X20090143Y-28773381D01*
X19852047Y-28773381D01*
X19756809Y-28725762D01*
X19709190Y-28678143D01*
X20566333Y-27773381D02*
X20899666Y-28773381D01*
X21233000Y-27773381D01*
X21566333Y-28392429D02*
X22328238Y-28392429D01*
X23137762Y-28249571D02*
X23280619Y-28297190D01*
X23328238Y-28344810D01*
X23375857Y-28440048D01*
X23375857Y-28582905D01*
X23328238Y-28678143D01*
X23280619Y-28725762D01*
X23185381Y-28773381D01*
X22804428Y-28773381D01*
X22804428Y-27773381D01*
X23137762Y-27773381D01*
X23233000Y-27821000D01*
X23280619Y-27868619D01*
X23328238Y-27963857D01*
X23328238Y-28059095D01*
X23280619Y-28154333D01*
X23233000Y-28201952D01*
X23137762Y-28249571D01*
X22804428Y-28249571D01*
X23756809Y-28487667D02*
X24233000Y-28487667D01*
X23661571Y-28773381D02*
X23994904Y-27773381D01*
X24328238Y-28773381D01*
X24518714Y-27773381D02*
X25090143Y-27773381D01*
X24804428Y-28773381D02*
X24804428Y-27773381D01*
X25280619Y-27773381D02*
X25852048Y-27773381D01*
X25566333Y-28773381D02*
X25566333Y-27773381D01*
X69953572Y-27821000D02*
X69858334Y-27773381D01*
X69715477Y-27773381D01*
X69572619Y-27821000D01*
X69477381Y-27916238D01*
X69429762Y-28011476D01*
X69382143Y-28201952D01*
X69382143Y-28344810D01*
X69429762Y-28535286D01*
X69477381Y-28630524D01*
X69572619Y-28725762D01*
X69715477Y-28773381D01*
X69810715Y-28773381D01*
X69953572Y-28725762D01*
X70001191Y-28678143D01*
X70001191Y-28344810D01*
X69810715Y-28344810D01*
X70429762Y-28773381D02*
X70429762Y-27773381D01*
X71001191Y-28773381D01*
X71001191Y-27773381D01*
X71477381Y-28773381D02*
X71477381Y-27773381D01*
X71715476Y-27773381D01*
X71858334Y-27821000D01*
X71953572Y-27916238D01*
X72001191Y-28011476D01*
X72048810Y-28201952D01*
X72048810Y-28344810D01*
X72001191Y-28535286D01*
X71953572Y-28630524D01*
X71858334Y-28725762D01*
X71715476Y-28773381D01*
X71477381Y-28773381D01*
X72477381Y-28392429D02*
X73239286Y-28392429D01*
X74048810Y-28249571D02*
X74191667Y-28297190D01*
X74239286Y-28344810D01*
X74286905Y-28440048D01*
X74286905Y-28582905D01*
X74239286Y-28678143D01*
X74191667Y-28725762D01*
X74096429Y-28773381D01*
X73715476Y-28773381D01*
X73715476Y-27773381D01*
X74048810Y-27773381D01*
X74144048Y-27821000D01*
X74191667Y-27868619D01*
X74239286Y-27963857D01*
X74239286Y-28059095D01*
X74191667Y-28154333D01*
X74144048Y-28201952D01*
X74048810Y-28249571D01*
X73715476Y-28249571D01*
X74667857Y-28487667D02*
X75144048Y-28487667D01*
X74572619Y-28773381D02*
X74905952Y-27773381D01*
X75239286Y-28773381D01*
X75429762Y-27773381D02*
X76001191Y-27773381D01*
X75715476Y-28773381D02*
X75715476Y-27773381D01*
X76191667Y-27773381D02*
X76763096Y-27773381D01*
X76477381Y-28773381D02*
X76477381Y-27773381D01*
X82359667Y-45362762D02*
X82502524Y-45410381D01*
X82740620Y-45410381D01*
X82835858Y-45362762D01*
X82883477Y-45315143D01*
X82931096Y-45219905D01*
X82931096Y-45124667D01*
X82883477Y-45029429D01*
X82835858Y-44981810D01*
X82740620Y-44934190D01*
X82550143Y-44886571D01*
X82454905Y-44838952D01*
X82407286Y-44791333D01*
X82359667Y-44696095D01*
X82359667Y-44600857D01*
X82407286Y-44505619D01*
X82454905Y-44458000D01*
X82550143Y-44410381D01*
X82788239Y-44410381D01*
X82931096Y-44458000D01*
X83264429Y-44410381D02*
X83502524Y-45410381D01*
X83693001Y-44696095D01*
X83883477Y-45410381D01*
X84121572Y-44410381D01*
X85026334Y-45410381D02*
X84454905Y-45410381D01*
X84740619Y-45410381D02*
X84740619Y-44410381D01*
X84645381Y-44553238D01*
X84550143Y-44648476D01*
X84454905Y-44696095D01*
X17978381Y-63428428D02*
X17311714Y-63428428D01*
X16978381Y-63428428D02*
X17026000Y-63476047D01*
X17073619Y-63428428D01*
X17026000Y-63380809D01*
X16978381Y-63428428D01*
X17073619Y-63428428D01*
X17311714Y-62952238D02*
X17978381Y-62952238D01*
X17406952Y-62952238D02*
X17359333Y-62904619D01*
X17311714Y-62809381D01*
X17311714Y-62666523D01*
X17359333Y-62571285D01*
X17454571Y-62523666D01*
X17978381Y-62523666D01*
X17597429Y-62047476D02*
X17597429Y-61285571D01*
X17978381Y-61666523D02*
X17216476Y-61666523D01*
X31948381Y-63428428D02*
X31281714Y-63428428D01*
X30948381Y-63428428D02*
X30996000Y-63476047D01*
X31043619Y-63428428D01*
X30996000Y-63380809D01*
X30948381Y-63428428D01*
X31043619Y-63428428D01*
X31281714Y-62952238D02*
X31948381Y-62952238D01*
X31376952Y-62952238D02*
X31329333Y-62904619D01*
X31281714Y-62809381D01*
X31281714Y-62666523D01*
X31329333Y-62571285D01*
X31424571Y-62523666D01*
X31948381Y-62523666D01*
X31567429Y-62047476D02*
X31567429Y-61285571D01*
X21407381Y-47545429D02*
X20407381Y-47545429D01*
X20788333Y-47545429D02*
X20740714Y-47450191D01*
X20740714Y-47259714D01*
X20788333Y-47164476D01*
X20835952Y-47116857D01*
X20931190Y-47069238D01*
X21216905Y-47069238D01*
X21312143Y-47116857D01*
X21359762Y-47164476D01*
X21407381Y-47259714D01*
X21407381Y-47450191D01*
X21359762Y-47545429D01*
X21407381Y-46212095D02*
X20883571Y-46212095D01*
X20788333Y-46259714D01*
X20740714Y-46354952D01*
X20740714Y-46545429D01*
X20788333Y-46640667D01*
X21359762Y-46212095D02*
X21407381Y-46307333D01*
X21407381Y-46545429D01*
X21359762Y-46640667D01*
X21264524Y-46688286D01*
X21169286Y-46688286D01*
X21074048Y-46640667D01*
X21026429Y-46545429D01*
X21026429Y-46307333D01*
X20978810Y-46212095D01*
X20740714Y-45878762D02*
X20740714Y-45497810D01*
X20407381Y-45735905D02*
X21264524Y-45735905D01*
X21359762Y-45688286D01*
X21407381Y-45593048D01*
X21407381Y-45497810D01*
X21026429Y-45164476D02*
X21026429Y-44402571D01*
X21407381Y-44783523D02*
X20645476Y-44783523D01*
X28392381Y-47545429D02*
X27392381Y-47545429D01*
X27773333Y-47545429D02*
X27725714Y-47450191D01*
X27725714Y-47259714D01*
X27773333Y-47164476D01*
X27820952Y-47116857D01*
X27916190Y-47069238D01*
X28201905Y-47069238D01*
X28297143Y-47116857D01*
X28344762Y-47164476D01*
X28392381Y-47259714D01*
X28392381Y-47450191D01*
X28344762Y-47545429D01*
X28392381Y-46212095D02*
X27868571Y-46212095D01*
X27773333Y-46259714D01*
X27725714Y-46354952D01*
X27725714Y-46545429D01*
X27773333Y-46640667D01*
X28344762Y-46212095D02*
X28392381Y-46307333D01*
X28392381Y-46545429D01*
X28344762Y-46640667D01*
X28249524Y-46688286D01*
X28154286Y-46688286D01*
X28059048Y-46640667D01*
X28011429Y-46545429D01*
X28011429Y-46307333D01*
X27963810Y-46212095D01*
X27725714Y-45878762D02*
X27725714Y-45497810D01*
X27392381Y-45735905D02*
X28249524Y-45735905D01*
X28344762Y-45688286D01*
X28392381Y-45593048D01*
X28392381Y-45497810D01*
X28011429Y-45164476D02*
X28011429Y-44402571D01*
M02*
