G04 #@! TF.FileFunction,Soldermask,Top*
%FSLAX46Y46*%
G04 Gerber Fmt 4.6, Leading zero omitted, Abs format (unit mm)*
G04 Created by KiCad (PCBNEW 4.0.7) date 02/27/21 15:52:34*
%MOMM*%
%LPD*%
G01*
G04 APERTURE LIST*
%ADD10C,0.100000*%
G04 APERTURE END LIST*
D10*
G36*
X36289097Y-62920396D02*
X36693480Y-63003405D01*
X37074035Y-63163375D01*
X37416275Y-63394220D01*
X37707155Y-63687136D01*
X37935603Y-64030979D01*
X38092914Y-64412644D01*
X38172925Y-64816726D01*
X38172925Y-64816758D01*
X38173090Y-64817594D01*
X38166506Y-65289103D01*
X38166316Y-65289938D01*
X38166316Y-65289962D01*
X38075053Y-65691661D01*
X37907148Y-66068781D01*
X37669189Y-66406108D01*
X37370240Y-66690794D01*
X37021691Y-66911990D01*
X36636819Y-67061272D01*
X36230277Y-67132956D01*
X35817551Y-67124311D01*
X35414370Y-67035666D01*
X35036085Y-66870397D01*
X34697103Y-66634798D01*
X34410339Y-66337845D01*
X34186716Y-65990850D01*
X34034747Y-65607023D01*
X33960228Y-65200997D01*
X33965992Y-64788219D01*
X34051819Y-64384433D01*
X34214445Y-64004998D01*
X34447670Y-63664382D01*
X34742612Y-63375552D01*
X35088041Y-63149511D01*
X35470794Y-62994868D01*
X35876295Y-62917515D01*
X36289097Y-62920396D01*
X36289097Y-62920396D01*
G37*
G36*
X66007097Y-62920396D02*
X66411480Y-63003405D01*
X66792035Y-63163375D01*
X67134275Y-63394220D01*
X67425155Y-63687136D01*
X67653603Y-64030979D01*
X67810914Y-64412644D01*
X67890925Y-64816726D01*
X67890925Y-64816758D01*
X67891090Y-64817594D01*
X67884506Y-65289103D01*
X67884316Y-65289938D01*
X67884316Y-65289962D01*
X67793053Y-65691661D01*
X67625148Y-66068781D01*
X67387189Y-66406108D01*
X67088240Y-66690794D01*
X66739691Y-66911990D01*
X66354819Y-67061272D01*
X65948277Y-67132956D01*
X65535551Y-67124311D01*
X65132370Y-67035666D01*
X64754085Y-66870397D01*
X64415103Y-66634798D01*
X64128339Y-66337845D01*
X63904716Y-65990850D01*
X63752747Y-65607023D01*
X63678228Y-65200997D01*
X63683992Y-64788219D01*
X63769819Y-64384433D01*
X63932445Y-64004998D01*
X64165670Y-63664382D01*
X64460612Y-63375552D01*
X64806041Y-63149511D01*
X65188794Y-62994868D01*
X65594295Y-62917515D01*
X66007097Y-62920396D01*
X66007097Y-62920396D01*
G37*
G36*
X61054097Y-62920396D02*
X61458480Y-63003405D01*
X61839035Y-63163375D01*
X62181275Y-63394220D01*
X62472155Y-63687136D01*
X62700603Y-64030979D01*
X62857914Y-64412644D01*
X62937925Y-64816726D01*
X62937925Y-64816758D01*
X62938090Y-64817594D01*
X62931506Y-65289103D01*
X62931316Y-65289938D01*
X62931316Y-65289962D01*
X62840053Y-65691661D01*
X62672148Y-66068781D01*
X62434189Y-66406108D01*
X62135240Y-66690794D01*
X61786691Y-66911990D01*
X61401819Y-67061272D01*
X60995277Y-67132956D01*
X60582551Y-67124311D01*
X60179370Y-67035666D01*
X59801085Y-66870397D01*
X59462103Y-66634798D01*
X59175339Y-66337845D01*
X58951716Y-65990850D01*
X58799747Y-65607023D01*
X58725228Y-65200997D01*
X58730992Y-64788219D01*
X58816819Y-64384433D01*
X58979445Y-64004998D01*
X59212670Y-63664382D01*
X59507612Y-63375552D01*
X59853041Y-63149511D01*
X60235794Y-62994868D01*
X60641295Y-62917515D01*
X61054097Y-62920396D01*
X61054097Y-62920396D01*
G37*
G36*
X46195097Y-62920396D02*
X46599480Y-63003405D01*
X46980035Y-63163375D01*
X47322275Y-63394220D01*
X47613155Y-63687136D01*
X47841603Y-64030979D01*
X47998914Y-64412644D01*
X48078925Y-64816726D01*
X48078925Y-64816758D01*
X48079090Y-64817594D01*
X48072506Y-65289103D01*
X48072316Y-65289938D01*
X48072316Y-65289962D01*
X47981053Y-65691661D01*
X47813148Y-66068781D01*
X47575189Y-66406108D01*
X47276240Y-66690794D01*
X46927691Y-66911990D01*
X46542819Y-67061272D01*
X46136277Y-67132956D01*
X45723551Y-67124311D01*
X45320370Y-67035666D01*
X44942085Y-66870397D01*
X44603103Y-66634798D01*
X44316339Y-66337845D01*
X44092716Y-65990850D01*
X43940747Y-65607023D01*
X43866228Y-65200997D01*
X43871992Y-64788219D01*
X43957819Y-64384433D01*
X44120445Y-64004998D01*
X44353670Y-63664382D01*
X44648612Y-63375552D01*
X44994041Y-63149511D01*
X45376794Y-62994868D01*
X45782295Y-62917515D01*
X46195097Y-62920396D01*
X46195097Y-62920396D01*
G37*
G36*
X51148097Y-62920396D02*
X51552480Y-63003405D01*
X51933035Y-63163375D01*
X52275275Y-63394220D01*
X52566155Y-63687136D01*
X52794603Y-64030979D01*
X52951914Y-64412644D01*
X53031925Y-64816726D01*
X53031925Y-64816758D01*
X53032090Y-64817594D01*
X53025506Y-65289103D01*
X53025316Y-65289938D01*
X53025316Y-65289962D01*
X52934053Y-65691661D01*
X52766148Y-66068781D01*
X52528189Y-66406108D01*
X52229240Y-66690794D01*
X51880691Y-66911990D01*
X51495819Y-67061272D01*
X51089277Y-67132956D01*
X50676551Y-67124311D01*
X50273370Y-67035666D01*
X49895085Y-66870397D01*
X49556103Y-66634798D01*
X49269339Y-66337845D01*
X49045716Y-65990850D01*
X48893747Y-65607023D01*
X48819228Y-65200997D01*
X48824992Y-64788219D01*
X48910819Y-64384433D01*
X49073445Y-64004998D01*
X49306670Y-63664382D01*
X49601612Y-63375552D01*
X49947041Y-63149511D01*
X50329794Y-62994868D01*
X50735295Y-62917515D01*
X51148097Y-62920396D01*
X51148097Y-62920396D01*
G37*
G36*
X41242097Y-62920396D02*
X41646480Y-63003405D01*
X42027035Y-63163375D01*
X42369275Y-63394220D01*
X42660155Y-63687136D01*
X42888603Y-64030979D01*
X43045914Y-64412644D01*
X43125925Y-64816726D01*
X43125925Y-64816758D01*
X43126090Y-64817594D01*
X43119506Y-65289103D01*
X43119316Y-65289938D01*
X43119316Y-65289962D01*
X43028053Y-65691661D01*
X42860148Y-66068781D01*
X42622189Y-66406108D01*
X42323240Y-66690794D01*
X41974691Y-66911990D01*
X41589819Y-67061272D01*
X41183277Y-67132956D01*
X40770551Y-67124311D01*
X40367370Y-67035666D01*
X39989085Y-66870397D01*
X39650103Y-66634798D01*
X39363339Y-66337845D01*
X39139716Y-65990850D01*
X38987747Y-65607023D01*
X38913228Y-65200997D01*
X38918992Y-64788219D01*
X39004819Y-64384433D01*
X39167445Y-64004998D01*
X39400670Y-63664382D01*
X39695612Y-63375552D01*
X40041041Y-63149511D01*
X40423794Y-62994868D01*
X40829295Y-62917515D01*
X41242097Y-62920396D01*
X41242097Y-62920396D01*
G37*
G36*
X17667061Y-63935889D02*
X17925058Y-63988848D01*
X18167857Y-64090912D01*
X18386208Y-64238192D01*
X18571790Y-64425073D01*
X18717542Y-64644447D01*
X18817907Y-64887952D01*
X18868892Y-65145443D01*
X18868892Y-65145476D01*
X18869057Y-65146312D01*
X18864857Y-65447137D01*
X18864666Y-65447976D01*
X18864666Y-65447997D01*
X18806511Y-65703972D01*
X18699387Y-65944576D01*
X18547569Y-66159793D01*
X18356836Y-66341424D01*
X18134464Y-66482546D01*
X17888906Y-66577792D01*
X17629534Y-66623526D01*
X17366211Y-66618010D01*
X17108980Y-66561454D01*
X16867633Y-66456012D01*
X16651356Y-66305696D01*
X16468405Y-66116245D01*
X16325728Y-65894853D01*
X16228773Y-65649973D01*
X16181229Y-65390926D01*
X16184907Y-65127569D01*
X16239665Y-64869953D01*
X16343421Y-64627871D01*
X16492220Y-64410556D01*
X16680396Y-64226281D01*
X16900781Y-64082065D01*
X17144979Y-63983403D01*
X17403692Y-63934051D01*
X17667061Y-63935889D01*
X17667061Y-63935889D01*
G37*
G36*
X31637061Y-63935889D02*
X31895058Y-63988848D01*
X32137857Y-64090912D01*
X32356208Y-64238192D01*
X32541790Y-64425073D01*
X32687542Y-64644447D01*
X32787907Y-64887952D01*
X32838892Y-65145443D01*
X32838892Y-65145476D01*
X32839057Y-65146312D01*
X32834857Y-65447137D01*
X32834666Y-65447976D01*
X32834666Y-65447997D01*
X32776511Y-65703972D01*
X32669387Y-65944576D01*
X32517569Y-66159793D01*
X32326836Y-66341424D01*
X32104464Y-66482546D01*
X31858906Y-66577792D01*
X31599534Y-66623526D01*
X31336211Y-66618010D01*
X31078980Y-66561454D01*
X30837633Y-66456012D01*
X30621356Y-66305696D01*
X30438405Y-66116245D01*
X30295728Y-65894853D01*
X30198773Y-65649973D01*
X30151229Y-65390926D01*
X30154907Y-65127569D01*
X30209665Y-64869953D01*
X30313421Y-64627871D01*
X30462220Y-64410556D01*
X30650396Y-64226281D01*
X30870781Y-64082065D01*
X31114979Y-63983403D01*
X31373692Y-63934051D01*
X31637061Y-63935889D01*
X31637061Y-63935889D01*
G37*
G36*
X76050076Y-56348459D02*
X76472708Y-56435214D01*
X76870438Y-56602404D01*
X77228121Y-56843664D01*
X77532132Y-57149806D01*
X77770889Y-57509163D01*
X77935300Y-57908053D01*
X78018929Y-58330410D01*
X78018929Y-58330443D01*
X78019094Y-58331279D01*
X78012213Y-58824067D01*
X78012023Y-58824902D01*
X78012023Y-58824928D01*
X77916633Y-59244792D01*
X77741150Y-59638933D01*
X77492453Y-59991484D01*
X77180013Y-60289015D01*
X76815729Y-60520198D01*
X76413490Y-60676216D01*
X75988601Y-60751134D01*
X75557248Y-60742100D01*
X75135871Y-60649454D01*
X74740514Y-60476726D01*
X74386230Y-60230493D01*
X74086528Y-59920143D01*
X73852812Y-59557485D01*
X73693985Y-59156336D01*
X73616103Y-58731985D01*
X73622127Y-58300578D01*
X73711827Y-57878568D01*
X73881793Y-57482010D01*
X74125543Y-57126021D01*
X74433797Y-56824157D01*
X74794815Y-56587914D01*
X75194842Y-56426292D01*
X75618644Y-56345448D01*
X76050076Y-56348459D01*
X76050076Y-56348459D01*
G37*
G36*
X36172076Y-56348459D02*
X36594708Y-56435214D01*
X36992438Y-56602404D01*
X37350121Y-56843664D01*
X37654132Y-57149806D01*
X37892889Y-57509163D01*
X38057300Y-57908053D01*
X38140929Y-58330410D01*
X38140929Y-58330443D01*
X38141094Y-58331279D01*
X38134213Y-58824067D01*
X38134023Y-58824902D01*
X38134023Y-58824928D01*
X38038633Y-59244792D01*
X37863150Y-59638933D01*
X37614453Y-59991484D01*
X37302013Y-60289015D01*
X36937729Y-60520198D01*
X36535490Y-60676216D01*
X36110601Y-60751134D01*
X35679248Y-60742100D01*
X35257871Y-60649454D01*
X34862514Y-60476726D01*
X34508230Y-60230493D01*
X34208528Y-59920143D01*
X33974812Y-59557485D01*
X33815985Y-59156336D01*
X33738103Y-58731985D01*
X33744127Y-58300578D01*
X33833827Y-57878568D01*
X34003793Y-57482010D01*
X34247543Y-57126021D01*
X34555797Y-56824157D01*
X34916815Y-56587914D01*
X35316842Y-56426292D01*
X35740644Y-56345448D01*
X36172076Y-56348459D01*
X36172076Y-56348459D01*
G37*
G36*
X85976073Y-46048105D02*
X85976079Y-46048106D01*
X85981148Y-46048141D01*
X86262375Y-46079686D01*
X86532119Y-46165254D01*
X86780105Y-46301585D01*
X86996888Y-46483488D01*
X87174211Y-46704033D01*
X87305320Y-46954820D01*
X87385220Y-47226297D01*
X87385228Y-47226384D01*
X87385234Y-47226405D01*
X87410873Y-47508122D01*
X87381305Y-47789440D01*
X87381297Y-47789465D01*
X87381287Y-47789563D01*
X87297605Y-48059898D01*
X87163007Y-48308830D01*
X86982623Y-48526878D01*
X86763321Y-48705736D01*
X86513455Y-48838592D01*
X86242543Y-48920385D01*
X85960903Y-48948000D01*
X81424939Y-48948000D01*
X81409927Y-48947895D01*
X81409921Y-48947894D01*
X81404852Y-48947859D01*
X81123625Y-48916314D01*
X80853881Y-48830746D01*
X80605895Y-48694415D01*
X80389112Y-48512512D01*
X80211789Y-48291967D01*
X80080680Y-48041180D01*
X80000780Y-47769703D01*
X80000772Y-47769616D01*
X80000766Y-47769595D01*
X79975127Y-47487878D01*
X80004695Y-47206560D01*
X80004703Y-47206535D01*
X80004713Y-47206437D01*
X80088395Y-46936102D01*
X80222993Y-46687170D01*
X80403377Y-46469122D01*
X80622679Y-46290264D01*
X80872545Y-46157408D01*
X81143457Y-46075615D01*
X81425097Y-46048000D01*
X85961061Y-46048000D01*
X85976073Y-46048105D01*
X85976073Y-46048105D01*
G37*
G36*
X28081061Y-41329889D02*
X28339058Y-41382848D01*
X28581857Y-41484912D01*
X28800208Y-41632192D01*
X28985790Y-41819073D01*
X29131542Y-42038447D01*
X29231907Y-42281952D01*
X29282892Y-42539443D01*
X29282892Y-42539476D01*
X29283057Y-42540312D01*
X29278857Y-42841137D01*
X29278666Y-42841976D01*
X29278666Y-42841997D01*
X29220511Y-43097972D01*
X29113387Y-43338576D01*
X28961569Y-43553793D01*
X28770836Y-43735424D01*
X28548464Y-43876546D01*
X28302906Y-43971792D01*
X28043534Y-44017526D01*
X27780211Y-44012010D01*
X27522980Y-43955454D01*
X27281633Y-43850012D01*
X27065356Y-43699696D01*
X26882405Y-43510245D01*
X26739728Y-43288853D01*
X26642773Y-43043973D01*
X26595229Y-42784926D01*
X26598907Y-42521569D01*
X26653665Y-42263953D01*
X26757421Y-42021871D01*
X26906220Y-41804556D01*
X27094396Y-41620281D01*
X27314781Y-41476065D01*
X27558979Y-41377403D01*
X27817692Y-41328051D01*
X28081061Y-41329889D01*
X28081061Y-41329889D01*
G37*
G36*
X21096061Y-41329889D02*
X21354058Y-41382848D01*
X21596857Y-41484912D01*
X21815208Y-41632192D01*
X22000790Y-41819073D01*
X22146542Y-42038447D01*
X22246907Y-42281952D01*
X22297892Y-42539443D01*
X22297892Y-42539476D01*
X22298057Y-42540312D01*
X22293857Y-42841137D01*
X22293666Y-42841976D01*
X22293666Y-42841997D01*
X22235511Y-43097972D01*
X22128387Y-43338576D01*
X21976569Y-43553793D01*
X21785836Y-43735424D01*
X21563464Y-43876546D01*
X21317906Y-43971792D01*
X21058534Y-44017526D01*
X20795211Y-44012010D01*
X20537980Y-43955454D01*
X20296633Y-43850012D01*
X20080356Y-43699696D01*
X19897405Y-43510245D01*
X19754728Y-43288853D01*
X19657773Y-43043973D01*
X19610229Y-42784926D01*
X19613907Y-42521569D01*
X19668665Y-42263953D01*
X19772421Y-42021871D01*
X19921220Y-41804556D01*
X20109396Y-41620281D01*
X20329781Y-41476065D01*
X20573979Y-41377403D01*
X20832692Y-41328051D01*
X21096061Y-41329889D01*
X21096061Y-41329889D01*
G37*
G36*
X85976073Y-40968105D02*
X85976079Y-40968106D01*
X85981148Y-40968141D01*
X86262375Y-40999686D01*
X86532119Y-41085254D01*
X86780105Y-41221585D01*
X86996888Y-41403488D01*
X87174211Y-41624033D01*
X87305320Y-41874820D01*
X87385220Y-42146297D01*
X87385228Y-42146384D01*
X87385234Y-42146405D01*
X87410873Y-42428122D01*
X87381305Y-42709440D01*
X87381297Y-42709465D01*
X87381287Y-42709563D01*
X87297605Y-42979898D01*
X87163007Y-43228830D01*
X86982623Y-43446878D01*
X86763321Y-43625736D01*
X86513455Y-43758592D01*
X86242543Y-43840385D01*
X85960903Y-43868000D01*
X81424939Y-43868000D01*
X81409927Y-43867895D01*
X81409921Y-43867894D01*
X81404852Y-43867859D01*
X81123625Y-43836314D01*
X80853881Y-43750746D01*
X80605895Y-43614415D01*
X80389112Y-43432512D01*
X80211789Y-43211967D01*
X80080680Y-42961180D01*
X80000780Y-42689703D01*
X80000772Y-42689616D01*
X80000766Y-42689595D01*
X79975127Y-42407878D01*
X80004695Y-42126560D01*
X80004703Y-42126535D01*
X80004713Y-42126437D01*
X80088395Y-41856102D01*
X80222993Y-41607170D01*
X80403377Y-41389122D01*
X80622679Y-41210264D01*
X80872545Y-41077408D01*
X81143457Y-40995615D01*
X81425097Y-40968000D01*
X85961061Y-40968000D01*
X85976073Y-40968105D01*
X85976073Y-40968105D01*
G37*
G36*
X76050076Y-38568459D02*
X76472708Y-38655214D01*
X76870438Y-38822404D01*
X77228121Y-39063664D01*
X77532132Y-39369806D01*
X77770889Y-39729163D01*
X77935300Y-40128053D01*
X78018929Y-40550410D01*
X78018929Y-40550443D01*
X78019094Y-40551279D01*
X78012213Y-41044067D01*
X78012023Y-41044902D01*
X78012023Y-41044928D01*
X77916633Y-41464792D01*
X77741150Y-41858933D01*
X77492453Y-42211484D01*
X77180013Y-42509015D01*
X76815729Y-42740198D01*
X76413490Y-42896216D01*
X75988601Y-42971134D01*
X75557248Y-42962100D01*
X75135871Y-42869454D01*
X74740514Y-42696726D01*
X74386230Y-42450493D01*
X74086528Y-42140143D01*
X73852812Y-41777485D01*
X73693985Y-41376336D01*
X73616103Y-40951985D01*
X73622127Y-40520578D01*
X73711827Y-40098568D01*
X73881793Y-39702010D01*
X74125543Y-39346021D01*
X74433797Y-39044157D01*
X74794815Y-38807914D01*
X75194842Y-38646292D01*
X75618644Y-38565448D01*
X76050076Y-38568459D01*
X76050076Y-38568459D01*
G37*
G36*
X36172076Y-38568459D02*
X36594708Y-38655214D01*
X36992438Y-38822404D01*
X37350121Y-39063664D01*
X37654132Y-39369806D01*
X37892889Y-39729163D01*
X38057300Y-40128053D01*
X38140929Y-40550410D01*
X38140929Y-40550443D01*
X38141094Y-40551279D01*
X38134213Y-41044067D01*
X38134023Y-41044902D01*
X38134023Y-41044928D01*
X38038633Y-41464792D01*
X37863150Y-41858933D01*
X37614453Y-42211484D01*
X37302013Y-42509015D01*
X36937729Y-42740198D01*
X36535490Y-42896216D01*
X36110601Y-42971134D01*
X35679248Y-42962100D01*
X35257871Y-42869454D01*
X34862514Y-42696726D01*
X34508230Y-42450493D01*
X34208528Y-42140143D01*
X33974812Y-41777485D01*
X33815985Y-41376336D01*
X33738103Y-40951985D01*
X33744127Y-40520578D01*
X33833827Y-40098568D01*
X34003793Y-39702010D01*
X34247543Y-39346021D01*
X34555797Y-39044157D01*
X34916815Y-38807914D01*
X35316842Y-38646292D01*
X35740644Y-38565448D01*
X36172076Y-38568459D01*
X36172076Y-38568459D01*
G37*
G36*
X85920000Y-38515000D02*
X84620000Y-38515000D01*
X84620000Y-36415000D01*
X85920000Y-36415000D01*
X85920000Y-38515000D01*
X85920000Y-38515000D01*
G37*
G36*
X83020000Y-38515000D02*
X81720000Y-38515000D01*
X81720000Y-36415000D01*
X83020000Y-36415000D01*
X83020000Y-38515000D01*
X83020000Y-38515000D01*
G37*
G36*
X24163000Y-26449000D02*
X18763000Y-26449000D01*
X18763000Y-21049000D01*
X24163000Y-21049000D01*
X24163000Y-26449000D01*
X24163000Y-26449000D01*
G37*
G36*
X77503000Y-26449000D02*
X72103000Y-26449000D01*
X72103000Y-21049000D01*
X77503000Y-21049000D01*
X77503000Y-26449000D01*
X77503000Y-26449000D01*
G37*
M02*
