G04 #@! TF.FileFunction,Copper,L1,Top,Signal*
%FSLAX46Y46*%
G04 Gerber Fmt 4.6, Leading zero omitted, Abs format (unit mm)*
G04 Created by KiCad (PCBNEW 4.0.7) date 02/27/21 15:52:34*
%MOMM*%
%LPD*%
G01*
G04 APERTURE LIST*
%ADD10C,0.100000*%
%ADD11C,4.000000*%
%ADD12R,0.900000X1.700000*%
%ADD13R,5.000000X5.000000*%
%ADD14O,7.000000X2.500000*%
%ADD15C,3.810000*%
%ADD16C,2.286000*%
%ADD17C,1.500000*%
%ADD18C,1.000000*%
%ADD19C,0.250000*%
G04 APERTURE END LIST*
D10*
D11*
X35941000Y-40767000D03*
X35941000Y-58547000D03*
X75819000Y-58547000D03*
X75819000Y-40767000D03*
D12*
X82370000Y-37465000D03*
X85270000Y-37465000D03*
D13*
X21463000Y-23749000D03*
X74803000Y-23749000D03*
D14*
X83693000Y-42418000D03*
X83693000Y-47498000D03*
D15*
X65786000Y-65024000D03*
X60833000Y-65024000D03*
X50927000Y-65024000D03*
X45974000Y-65024000D03*
X41021000Y-65024000D03*
X36068000Y-65024000D03*
D16*
X17526000Y-65278000D03*
X31496000Y-65278000D03*
X20955000Y-42672000D03*
X27940000Y-42672000D03*
D17*
X32258000Y-19050000D03*
D18*
X83693000Y-47498000D02*
X86487000Y-47498000D01*
X86487000Y-47498000D02*
X88519000Y-45466000D01*
X86868000Y-37465000D02*
X85270000Y-37465000D01*
X88519000Y-39116000D02*
X86868000Y-37465000D01*
X88519000Y-45466000D02*
X88519000Y-39116000D01*
X21463000Y-23749000D02*
X66294000Y-23749000D01*
X81608000Y-36703000D02*
X82370000Y-37465000D01*
X79248000Y-36703000D02*
X81608000Y-36703000D01*
X66294000Y-23749000D02*
X79248000Y-36703000D01*
X21463000Y-23749000D02*
X21463000Y-42164000D01*
X21463000Y-42164000D02*
X20955000Y-42672000D01*
D19*
X21463000Y-42164000D02*
X20955000Y-42672000D01*
X86487000Y-47498000D02*
X88265000Y-45720000D01*
X87122000Y-37465000D02*
X82370000Y-37465000D01*
X88265000Y-38608000D02*
X87122000Y-37465000D01*
X88265000Y-45720000D02*
X88265000Y-38608000D01*
D18*
X83693000Y-42418000D02*
X82423000Y-42418000D01*
X82423000Y-42418000D02*
X76327000Y-36322000D01*
X38100000Y-36322000D02*
X35941000Y-38481000D01*
X76327000Y-36322000D02*
X38100000Y-36322000D01*
X35941000Y-38481000D02*
X35941000Y-40767000D01*
D19*
X83693000Y-42418000D02*
X82042000Y-42418000D01*
X82042000Y-42418000D02*
X76073000Y-36449000D01*
X35941000Y-38481000D02*
X35941000Y-40767000D01*
X37973000Y-36449000D02*
X35941000Y-38481000D01*
X76073000Y-36449000D02*
X37973000Y-36449000D01*
X83693000Y-42418000D02*
X81534000Y-42418000D01*
X35941000Y-42037000D02*
X35941000Y-40767000D01*
D18*
X74803000Y-23749000D02*
X74803000Y-20955000D01*
X72898000Y-19050000D02*
X32258000Y-19050000D01*
X74803000Y-20955000D02*
X72898000Y-19050000D01*
X35941000Y-58547000D02*
X33147000Y-58547000D01*
X33147000Y-58547000D02*
X27940000Y-53340000D01*
X27940000Y-53340000D02*
X27940000Y-42672000D01*
X75819000Y-58547000D02*
X75819000Y-63246000D01*
X74041000Y-65024000D02*
X65786000Y-65024000D01*
X75819000Y-63246000D02*
X74041000Y-65024000D01*
D19*
X65786000Y-63246000D02*
X65786000Y-65024000D01*
D18*
X60833000Y-65024000D02*
X60833000Y-63754000D01*
X60833000Y-63754000D02*
X63373000Y-61214000D01*
X75819000Y-50546000D02*
X75819000Y-40767000D01*
X65151000Y-61214000D02*
X75819000Y-50546000D01*
X63373000Y-61214000D02*
X65151000Y-61214000D01*
D19*
X60833000Y-63881000D02*
X60833000Y-65024000D01*
M02*
