G04 #@! TF.FileFunction,Copper,L1,Top,Signal*
%FSLAX46Y46*%
G04 Gerber Fmt 4.6, Leading zero omitted, Abs format (unit mm)*
G04 Created by KiCad (PCBNEW 4.0.7) date 04/08/19 09:55:11*
%MOMM*%
%LPD*%
G01*
G04 APERTURE LIST*
%ADD10C,0.100000*%
%ADD11C,1.500000*%
%ADD12C,2.600000*%
%ADD13C,0.500000*%
G04 APERTURE END LIST*
D10*
D11*
X101346000Y-153797000D03*
X101346000Y-156337000D03*
X101346000Y-158877000D03*
X101346000Y-161417000D03*
X98806000Y-152527000D03*
X98806000Y-155067000D03*
X98806000Y-157607000D03*
X98806000Y-160147000D03*
D12*
X111506000Y-164719000D03*
X111506000Y-148971000D03*
D11*
X95250000Y-153797000D03*
X95250000Y-156337000D03*
X95250000Y-158877000D03*
X95250000Y-161417000D03*
X92710000Y-152527000D03*
X92710000Y-155067000D03*
X92710000Y-157607000D03*
X92710000Y-160147000D03*
D13*
X95250000Y-153797000D02*
X95885000Y-153797000D01*
X95885000Y-153797000D02*
X96088200Y-153593800D01*
X98044000Y-153797000D02*
X101346000Y-153797000D01*
X97840800Y-153593800D02*
X98044000Y-153797000D01*
X96088200Y-153593800D02*
X97840800Y-153593800D01*
X95250000Y-156337000D02*
X95808800Y-156337000D01*
X95808800Y-156337000D02*
X96113600Y-156032200D01*
X97790000Y-156337000D02*
X101346000Y-156337000D01*
X97485200Y-156032200D02*
X97790000Y-156337000D01*
X96113600Y-156032200D02*
X97485200Y-156032200D01*
X95250000Y-158877000D02*
X95758000Y-158877000D01*
X95758000Y-158877000D02*
X96088200Y-159207200D01*
X97739200Y-158877000D02*
X101346000Y-158877000D01*
X97409000Y-159207200D02*
X97739200Y-158877000D01*
X96088200Y-159207200D02*
X97409000Y-159207200D01*
X95250000Y-161417000D02*
X95275400Y-161417000D01*
X95275400Y-161417000D02*
X95732600Y-161874200D01*
X95732600Y-161874200D02*
X100888800Y-161874200D01*
X100888800Y-161874200D02*
X101346000Y-161417000D01*
X92710000Y-152527000D02*
X98806000Y-152527000D01*
X92710000Y-155067000D02*
X98806000Y-155067000D01*
X92710000Y-157607000D02*
X98806000Y-157607000D01*
X92710000Y-160147000D02*
X98806000Y-160147000D01*
M02*
