G04 #@! TF.FileFunction,Copper,L2,Bot,Signal*
%FSLAX46Y46*%
G04 Gerber Fmt 4.6, Leading zero omitted, Abs format (unit mm)*
G04 Created by KiCad (PCBNEW 4.0.7) date 04/08/19 09:55:11*
%MOMM*%
%LPD*%
G01*
G04 APERTURE LIST*
%ADD10C,0.100000*%
%ADD11C,1.500000*%
%ADD12C,2.600000*%
%ADD13C,0.500000*%
G04 APERTURE END LIST*
D10*
D11*
X101346000Y-153797000D03*
X101346000Y-156337000D03*
X101346000Y-158877000D03*
X101346000Y-161417000D03*
X98806000Y-152527000D03*
X98806000Y-155067000D03*
X98806000Y-157607000D03*
X98806000Y-160147000D03*
D12*
X111506000Y-164719000D03*
X111506000Y-148971000D03*
D11*
X95250000Y-153797000D03*
X95250000Y-156337000D03*
X95250000Y-158877000D03*
X95250000Y-161417000D03*
X92710000Y-152527000D03*
X92710000Y-155067000D03*
X92710000Y-157607000D03*
X92710000Y-160147000D03*
D13*
X101346000Y-153797000D02*
X95250000Y-153797000D01*
X95250000Y-156337000D02*
X101346000Y-156337000D01*
X101346000Y-158877000D02*
X95250000Y-158877000D01*
X95250000Y-161417000D02*
X101346000Y-161417000D01*
X98806000Y-152527000D02*
X98806000Y-152501600D01*
X98806000Y-152501600D02*
X98323400Y-152019000D01*
X98323400Y-152019000D02*
X93218000Y-152019000D01*
X93218000Y-152019000D02*
X92710000Y-152527000D01*
X98806000Y-155067000D02*
X98171000Y-155067000D01*
X98171000Y-155067000D02*
X97917000Y-154813000D01*
X96164400Y-155067000D02*
X92710000Y-155067000D01*
X96418400Y-154813000D02*
X96164400Y-155067000D01*
X97917000Y-154813000D02*
X96418400Y-154813000D01*
X98806000Y-157607000D02*
X98425000Y-157607000D01*
X98425000Y-157607000D02*
X98120200Y-157302200D01*
X96037400Y-157607000D02*
X92710000Y-157607000D01*
X96342200Y-157302200D02*
X96037400Y-157607000D01*
X98120200Y-157302200D02*
X96342200Y-157302200D01*
X98806000Y-160147000D02*
X98323400Y-160147000D01*
X98323400Y-160147000D02*
X98069400Y-160401000D01*
X95910400Y-160147000D02*
X92710000Y-160147000D01*
X96164400Y-160401000D02*
X95910400Y-160147000D01*
X98069400Y-160401000D02*
X96164400Y-160401000D01*
M02*
