G04 #@! TF.FileFunction,Legend,Bot*
%FSLAX46Y46*%
G04 Gerber Fmt 4.6, Leading zero omitted, Abs format (unit mm)*
G04 Created by KiCad (PCBNEW 4.0.7) date 04/08/19 09:55:11*
%MOMM*%
%LPD*%
G01*
G04 APERTURE LIST*
%ADD10C,0.100000*%
G04 APERTURE END LIST*
D10*
X107606049Y-148697971D02*
X107301287Y-148697971D01*
X107491763Y-148431305D02*
X107491763Y-149117019D01*
X107453668Y-149193210D01*
X107377477Y-149231305D01*
X107301287Y-149231305D01*
X107034620Y-149231305D02*
X107034620Y-148697971D01*
X107034620Y-148850352D02*
X106996525Y-148774162D01*
X106958429Y-148736067D01*
X106882239Y-148697971D01*
X106806048Y-148697971D01*
X106425096Y-149231305D02*
X106501287Y-149193210D01*
X106539382Y-149155114D01*
X106577477Y-149078924D01*
X106577477Y-148850352D01*
X106539382Y-148774162D01*
X106501287Y-148736067D01*
X106425096Y-148697971D01*
X106310810Y-148697971D01*
X106234620Y-148736067D01*
X106196525Y-148774162D01*
X106158429Y-148850352D01*
X106158429Y-149078924D01*
X106196525Y-149155114D01*
X106234620Y-149193210D01*
X106310810Y-149231305D01*
X106425096Y-149231305D01*
X105815572Y-148697971D02*
X105815572Y-149231305D01*
X105815572Y-148774162D02*
X105777477Y-148736067D01*
X105701286Y-148697971D01*
X105587000Y-148697971D01*
X105510810Y-148736067D01*
X105472715Y-148812257D01*
X105472715Y-149231305D01*
X105091762Y-149231305D02*
X105091762Y-148697971D01*
X105091762Y-148431305D02*
X105129857Y-148469400D01*
X105091762Y-148507495D01*
X105053667Y-148469400D01*
X105091762Y-148431305D01*
X105091762Y-148507495D01*
X104367953Y-149193210D02*
X104444143Y-149231305D01*
X104596524Y-149231305D01*
X104672715Y-149193210D01*
X104710810Y-149155114D01*
X104748905Y-149078924D01*
X104748905Y-148850352D01*
X104710810Y-148774162D01*
X104672715Y-148736067D01*
X104596524Y-148697971D01*
X104444143Y-148697971D01*
X104367953Y-148736067D01*
X104025096Y-149155114D02*
X103987001Y-149193210D01*
X104025096Y-149231305D01*
X104063191Y-149193210D01*
X104025096Y-149155114D01*
X104025096Y-149231305D01*
X103682239Y-149193210D02*
X103606049Y-149231305D01*
X103453668Y-149231305D01*
X103377477Y-149193210D01*
X103339382Y-149117019D01*
X103339382Y-149078924D01*
X103377477Y-149002733D01*
X103453668Y-148964638D01*
X103567953Y-148964638D01*
X103644144Y-148926543D01*
X103682239Y-148850352D01*
X103682239Y-148812257D01*
X103644144Y-148736067D01*
X103567953Y-148697971D01*
X103453668Y-148697971D01*
X103377477Y-148736067D01*
X102996525Y-149231305D02*
X102996525Y-148431305D01*
X102920334Y-148926543D02*
X102691763Y-149231305D01*
X102691763Y-148697971D02*
X102996525Y-149002733D01*
X101777477Y-148393210D02*
X102463192Y-149421781D01*
X101510811Y-148697971D02*
X101510811Y-149497971D01*
X101510811Y-148736067D02*
X101434620Y-148697971D01*
X101282239Y-148697971D01*
X101206049Y-148736067D01*
X101167954Y-148774162D01*
X101129858Y-148850352D01*
X101129858Y-149078924D01*
X101167954Y-149155114D01*
X101206049Y-149193210D01*
X101282239Y-149231305D01*
X101434620Y-149231305D01*
X101510811Y-149193210D01*
X100672715Y-149231305D02*
X100748906Y-149193210D01*
X100787001Y-149155114D01*
X100825096Y-149078924D01*
X100825096Y-148850352D01*
X100787001Y-148774162D01*
X100748906Y-148736067D01*
X100672715Y-148697971D01*
X100558429Y-148697971D01*
X100482239Y-148736067D01*
X100444144Y-148774162D01*
X100406048Y-148850352D01*
X100406048Y-149078924D01*
X100444144Y-149155114D01*
X100482239Y-149193210D01*
X100558429Y-149231305D01*
X100672715Y-149231305D01*
X99758429Y-149193210D02*
X99834619Y-149231305D01*
X99987000Y-149231305D01*
X100063191Y-149193210D01*
X100101286Y-149117019D01*
X100101286Y-148812257D01*
X100063191Y-148736067D01*
X99987000Y-148697971D01*
X99834619Y-148697971D01*
X99758429Y-148736067D01*
X99720334Y-148812257D01*
X99720334Y-148888448D01*
X100101286Y-148964638D01*
X99377477Y-148926543D02*
X98767953Y-148926543D01*
X98044144Y-149193210D02*
X98120334Y-149231305D01*
X98272715Y-149231305D01*
X98348906Y-149193210D01*
X98387001Y-149155114D01*
X98425096Y-149078924D01*
X98425096Y-148850352D01*
X98387001Y-148774162D01*
X98348906Y-148736067D01*
X98272715Y-148697971D01*
X98120334Y-148697971D01*
X98044144Y-148736067D01*
X97358430Y-149231305D02*
X97358430Y-148812257D01*
X97396525Y-148736067D01*
X97472715Y-148697971D01*
X97625096Y-148697971D01*
X97701287Y-148736067D01*
X97358430Y-149193210D02*
X97434620Y-149231305D01*
X97625096Y-149231305D01*
X97701287Y-149193210D01*
X97739382Y-149117019D01*
X97739382Y-149040829D01*
X97701287Y-148964638D01*
X97625096Y-148926543D01*
X97434620Y-148926543D01*
X97358430Y-148888448D01*
X96977477Y-149231305D02*
X96977477Y-148697971D01*
X96977477Y-148774162D02*
X96939382Y-148736067D01*
X96863191Y-148697971D01*
X96748905Y-148697971D01*
X96672715Y-148736067D01*
X96634620Y-148812257D01*
X96634620Y-149231305D01*
X96634620Y-148812257D02*
X96596524Y-148736067D01*
X96520334Y-148697971D01*
X96406048Y-148697971D01*
X96329858Y-148736067D01*
X96291763Y-148812257D01*
X96291763Y-149231305D01*
X95339381Y-148393210D02*
X96025096Y-149421781D01*
X94653667Y-149231305D02*
X95110810Y-149231305D01*
X94882239Y-149231305D02*
X94882239Y-148431305D01*
X94958429Y-148545590D01*
X95034620Y-148621781D01*
X95110810Y-148659876D01*
X94272715Y-149231305D02*
X94120334Y-149231305D01*
X94044143Y-149193210D01*
X94006048Y-149155114D01*
X93929857Y-149040829D01*
X93891762Y-148888448D01*
X93891762Y-148583686D01*
X93929857Y-148507495D01*
X93967953Y-148469400D01*
X94044143Y-148431305D01*
X94196524Y-148431305D01*
X94272715Y-148469400D01*
X94310810Y-148507495D01*
X94348905Y-148583686D01*
X94348905Y-148774162D01*
X94310810Y-148850352D01*
X94272715Y-148888448D01*
X94196524Y-148926543D01*
X94044143Y-148926543D01*
X93967953Y-148888448D01*
X93929857Y-148850352D01*
X93891762Y-148774162D01*
X93396524Y-148431305D02*
X93320333Y-148431305D01*
X93244143Y-148469400D01*
X93206048Y-148507495D01*
X93167952Y-148583686D01*
X93129857Y-148736067D01*
X93129857Y-148926543D01*
X93167952Y-149078924D01*
X93206048Y-149155114D01*
X93244143Y-149193210D01*
X93320333Y-149231305D01*
X93396524Y-149231305D01*
X93472714Y-149193210D01*
X93510810Y-149155114D01*
X93548905Y-149078924D01*
X93587000Y-148926543D01*
X93587000Y-148736067D01*
X93548905Y-148583686D01*
X93510810Y-148507495D01*
X93472714Y-148469400D01*
X93396524Y-148431305D01*
X92444143Y-148697971D02*
X92444143Y-149231305D01*
X92634619Y-148393210D02*
X92825095Y-148964638D01*
X92329857Y-148964638D01*
X91872714Y-148431305D02*
X91796523Y-148431305D01*
X91720333Y-148469400D01*
X91682238Y-148507495D01*
X91644142Y-148583686D01*
X91606047Y-148736067D01*
X91606047Y-148926543D01*
X91644142Y-149078924D01*
X91682238Y-149155114D01*
X91720333Y-149193210D01*
X91796523Y-149231305D01*
X91872714Y-149231305D01*
X91948904Y-149193210D01*
X91987000Y-149155114D01*
X92025095Y-149078924D01*
X92063190Y-148926543D01*
X92063190Y-148736067D01*
X92025095Y-148583686D01*
X91987000Y-148507495D01*
X91948904Y-148469400D01*
X91872714Y-148431305D01*
X91148904Y-148774162D02*
X91225095Y-148736067D01*
X91263190Y-148697971D01*
X91301285Y-148621781D01*
X91301285Y-148583686D01*
X91263190Y-148507495D01*
X91225095Y-148469400D01*
X91148904Y-148431305D01*
X90996523Y-148431305D01*
X90920333Y-148469400D01*
X90882237Y-148507495D01*
X90844142Y-148583686D01*
X90844142Y-148621781D01*
X90882237Y-148697971D01*
X90920333Y-148736067D01*
X90996523Y-148774162D01*
X91148904Y-148774162D01*
X91225095Y-148812257D01*
X91263190Y-148850352D01*
X91301285Y-148926543D01*
X91301285Y-149078924D01*
X91263190Y-149155114D01*
X91225095Y-149193210D01*
X91148904Y-149231305D01*
X90996523Y-149231305D01*
X90920333Y-149193210D01*
X90882237Y-149155114D01*
X90844142Y-149078924D01*
X90844142Y-148926543D01*
X90882237Y-148850352D01*
X90920333Y-148812257D01*
X90996523Y-148774162D01*
M02*
