G04 #@! TF.FileFunction,Copper,L2,Bot,Signal*
%FSLAX46Y46*%
G04 Gerber Fmt 4.6, Leading zero omitted, Abs format (unit mm)*
G04 Created by KiCad (PCBNEW 4.0.7) date 03/25/20 15:59:30*
%MOMM*%
%LPD*%
G01*
G04 APERTURE LIST*
%ADD10C,0.100000*%
%ADD11O,2.200000X4.000000*%
%ADD12C,6.200000*%
%ADD13O,4.500000X6.000000*%
%ADD14C,4.500000*%
%ADD15R,1.700000X1.700000*%
%ADD16O,1.700000X1.700000*%
%ADD17C,5.400000*%
%ADD18C,0.800000*%
%ADD19C,4.400000*%
%ADD20C,0.600000*%
%ADD21C,0.250000*%
%ADD22C,0.254000*%
G04 APERTURE END LIST*
D10*
D11*
X164109400Y-137363200D03*
X166649400Y-137363200D03*
X169189400Y-137363200D03*
D12*
X177622200Y-86512400D03*
X145821400Y-86512400D03*
X145821400Y-127660400D03*
X177622200Y-127660400D03*
D13*
X169341800Y-78917800D03*
X164261800Y-78917800D03*
X159181800Y-78917800D03*
X154101800Y-78917800D03*
D14*
X148564600Y-136245600D03*
X174929800Y-136245600D03*
D11*
X159181800Y-137363200D03*
X156641800Y-137363200D03*
X154101800Y-137363200D03*
D12*
X128816100Y-86550500D03*
X97015300Y-86550500D03*
X128816100Y-127698500D03*
D13*
X120535700Y-78955900D03*
X115455700Y-78955900D03*
X110375700Y-78955900D03*
X105295700Y-78955900D03*
D14*
X99758500Y-136283700D03*
X126123700Y-136283700D03*
D15*
X183642000Y-79375000D03*
D16*
X183642000Y-76835000D03*
X183642000Y-74295000D03*
X183642000Y-71755000D03*
X183642000Y-69215000D03*
X183642000Y-66675000D03*
D17*
X164592000Y-67310000D03*
D18*
X166617000Y-67310000D03*
X166023891Y-68741891D03*
X164592000Y-69335000D03*
X163160109Y-68741891D03*
X162567000Y-67310000D03*
X163160109Y-65878109D03*
X164592000Y-65285000D03*
X166023891Y-65878109D03*
D19*
X173482000Y-67310000D03*
X173482000Y-71120000D03*
X173482000Y-63500000D03*
X98552000Y-71120000D03*
X98552000Y-63500000D03*
X98552000Y-67310000D03*
X109982000Y-67310000D03*
X109982000Y-71120000D03*
X109982000Y-63500000D03*
D20*
X165608000Y-74549000D03*
X163068000Y-74549000D03*
X163068000Y-77089000D03*
X164223700Y-78955900D03*
X165608000Y-77089000D03*
D21*
X182372000Y-71755000D02*
X183642000Y-71755000D01*
X181483000Y-72644000D02*
X182372000Y-71755000D01*
X181483000Y-133604000D02*
X181483000Y-72644000D01*
X175133000Y-139954000D02*
X181483000Y-133604000D01*
X160528000Y-139954000D02*
X175133000Y-139954000D01*
X159143700Y-138569700D02*
X160528000Y-139954000D01*
X159143700Y-137401300D02*
X159143700Y-138569700D01*
X159143700Y-137401300D02*
X159143700Y-137553700D01*
X159143700Y-137401300D02*
X159143700Y-137680700D01*
X185293000Y-70104000D02*
X184404000Y-69215000D01*
X185293000Y-80899000D02*
X185293000Y-70104000D01*
X182118000Y-84074000D02*
X185293000Y-80899000D01*
X182118000Y-133604000D02*
X182118000Y-84074000D01*
X175133000Y-140589000D02*
X182118000Y-133604000D01*
X184404000Y-69215000D02*
X183642000Y-69215000D01*
X157988000Y-140589000D02*
X175133000Y-140589000D01*
X156603700Y-137401300D02*
X156603700Y-139204700D01*
X156603700Y-139204700D02*
X157988000Y-140589000D01*
X156603700Y-137401300D02*
X156603700Y-138188700D01*
X185039000Y-66675000D02*
X183642000Y-66675000D01*
X185928000Y-67564000D02*
X185039000Y-66675000D01*
X185928000Y-81534000D02*
X185928000Y-67564000D01*
X182753000Y-84709000D02*
X185928000Y-81534000D01*
X182753000Y-133604000D02*
X182753000Y-84709000D01*
X175133000Y-141224000D02*
X182753000Y-133604000D01*
X156718000Y-141224000D02*
X175133000Y-141224000D01*
X154063700Y-138569700D02*
X156718000Y-141224000D01*
X154063700Y-137401300D02*
X154063700Y-138569700D01*
X154063700Y-137401300D02*
X154063700Y-138188700D01*
X154063700Y-137401300D02*
X154063700Y-139204700D01*
X163068000Y-77089000D02*
X163068000Y-74549000D01*
X164223700Y-78955900D02*
X165608000Y-77571600D01*
X165608000Y-77571600D02*
X165608000Y-77089000D01*
D22*
G36*
X156083000Y-82550000D02*
X125648197Y-82550000D01*
X125609746Y-82492454D01*
X125379405Y-82338546D01*
X125107700Y-82284500D01*
X118491000Y-82284500D01*
X118491000Y-75946000D01*
X156083000Y-75946000D01*
X156083000Y-82550000D01*
X156083000Y-82550000D01*
G37*
X156083000Y-82550000D02*
X125648197Y-82550000D01*
X125609746Y-82492454D01*
X125379405Y-82338546D01*
X125107700Y-82284500D01*
X118491000Y-82284500D01*
X118491000Y-75946000D01*
X156083000Y-75946000D01*
X156083000Y-82550000D01*
G36*
X112141000Y-70866000D02*
X112151006Y-70915410D01*
X112179447Y-70957035D01*
X112221841Y-70984315D01*
X112268000Y-70993000D01*
X159967394Y-70993000D01*
X161417000Y-72442606D01*
X161417000Y-74369394D01*
X160946197Y-74840197D01*
X160918334Y-74882211D01*
X160909000Y-74930000D01*
X160909000Y-81915000D01*
X157607000Y-81915000D01*
X157607000Y-75438000D01*
X157596994Y-75388590D01*
X157569803Y-75348197D01*
X157061803Y-74840197D01*
X157019789Y-74812334D01*
X156972000Y-74803000D01*
X117348000Y-74803000D01*
X117298590Y-74813006D01*
X117256965Y-74841447D01*
X117229685Y-74883841D01*
X117221000Y-74930000D01*
X117221000Y-81915000D01*
X108839000Y-81915000D01*
X108839000Y-74930000D01*
X108828994Y-74880590D01*
X108801803Y-74840197D01*
X107823000Y-73861394D01*
X107823000Y-63373000D01*
X112141000Y-63373000D01*
X112141000Y-70866000D01*
X112141000Y-70866000D01*
G37*
X112141000Y-70866000D02*
X112151006Y-70915410D01*
X112179447Y-70957035D01*
X112221841Y-70984315D01*
X112268000Y-70993000D01*
X159967394Y-70993000D01*
X161417000Y-72442606D01*
X161417000Y-74369394D01*
X160946197Y-74840197D01*
X160918334Y-74882211D01*
X160909000Y-74930000D01*
X160909000Y-81915000D01*
X157607000Y-81915000D01*
X157607000Y-75438000D01*
X157596994Y-75388590D01*
X157569803Y-75348197D01*
X157061803Y-74840197D01*
X157019789Y-74812334D01*
X156972000Y-74803000D01*
X117348000Y-74803000D01*
X117298590Y-74813006D01*
X117256965Y-74841447D01*
X117229685Y-74883841D01*
X117221000Y-74930000D01*
X117221000Y-81915000D01*
X108839000Y-81915000D01*
X108839000Y-74930000D01*
X108828994Y-74880590D01*
X108801803Y-74840197D01*
X107823000Y-73861394D01*
X107823000Y-63373000D01*
X112141000Y-63373000D01*
X112141000Y-70866000D01*
G36*
X100965000Y-71882000D02*
X100975006Y-71931410D01*
X101002197Y-71971803D01*
X101510197Y-72479803D01*
X101523800Y-72491600D01*
X103555800Y-74015600D01*
X103601332Y-74037241D01*
X103632000Y-74041000D01*
X105611394Y-74041000D01*
X107061000Y-75490606D01*
X107061000Y-81915000D01*
X102662521Y-81915000D01*
X96139000Y-76395097D01*
X96139000Y-63373000D01*
X100965000Y-63373000D01*
X100965000Y-71882000D01*
X100965000Y-71882000D01*
G37*
X100965000Y-71882000D02*
X100975006Y-71931410D01*
X101002197Y-71971803D01*
X101510197Y-72479803D01*
X101523800Y-72491600D01*
X103555800Y-74015600D01*
X103601332Y-74037241D01*
X103632000Y-74041000D01*
X105611394Y-74041000D01*
X107061000Y-75490606D01*
X107061000Y-81915000D01*
X102662521Y-81915000D01*
X96139000Y-76395097D01*
X96139000Y-63373000D01*
X100965000Y-63373000D01*
X100965000Y-71882000D01*
G36*
X167640000Y-67120719D02*
X167631842Y-67020682D01*
X167539180Y-66796977D01*
X167334350Y-66772255D01*
X166796605Y-67310000D01*
X167334350Y-67847745D01*
X167539180Y-67823023D01*
X167640000Y-67509718D01*
X167640000Y-72475425D01*
X166267587Y-74346897D01*
X166246436Y-74392658D01*
X166243000Y-74422000D01*
X166243000Y-80760500D01*
X162179000Y-80760500D01*
X162179000Y-75363606D01*
X162522803Y-75019803D01*
X162550666Y-74977789D01*
X162560000Y-74930000D01*
X162560000Y-72390000D01*
X162549994Y-72340590D01*
X162522803Y-72300197D01*
X161798000Y-71575394D01*
X161798000Y-70052350D01*
X164054255Y-70052350D01*
X164078977Y-70257180D01*
X164470931Y-70383309D01*
X164881318Y-70349842D01*
X165105023Y-70257180D01*
X165129745Y-70052350D01*
X164592000Y-69514605D01*
X164054255Y-70052350D01*
X161798000Y-70052350D01*
X161798000Y-69459241D01*
X162622364Y-69459241D01*
X162647086Y-69664071D01*
X163039040Y-69790200D01*
X163449427Y-69756733D01*
X163605268Y-69692181D01*
X163669820Y-69848023D01*
X163874650Y-69872745D01*
X164412395Y-69335000D01*
X164398253Y-69320858D01*
X164577858Y-69141253D01*
X164592000Y-69155395D01*
X164606143Y-69141253D01*
X164785748Y-69320858D01*
X164771605Y-69335000D01*
X165309350Y-69872745D01*
X165514180Y-69848023D01*
X165567510Y-69682298D01*
X165902822Y-69790200D01*
X166313209Y-69756733D01*
X166536914Y-69664071D01*
X166561636Y-69459241D01*
X166023891Y-68921496D01*
X166009749Y-68935639D01*
X165830144Y-68756034D01*
X165844286Y-68741891D01*
X165306541Y-68204146D01*
X165101711Y-68228868D01*
X165048381Y-68394593D01*
X164713069Y-68286691D01*
X164302682Y-68320158D01*
X164146841Y-68384710D01*
X164082289Y-68228868D01*
X163877459Y-68204146D01*
X163339714Y-68741891D01*
X163353857Y-68756034D01*
X163174252Y-68935639D01*
X163160109Y-68921496D01*
X162622364Y-69459241D01*
X161798000Y-69459241D01*
X161798000Y-67841511D01*
X161849650Y-67847745D01*
X162387395Y-67310000D01*
X161849650Y-66772255D01*
X161798000Y-66778489D01*
X161798000Y-66592650D01*
X162029255Y-66592650D01*
X162567000Y-67130395D01*
X162581143Y-67116253D01*
X162760748Y-67295858D01*
X162746605Y-67310000D01*
X162760748Y-67324143D01*
X162581143Y-67503748D01*
X162567000Y-67489605D01*
X162029255Y-68027350D01*
X162053977Y-68232180D01*
X162219702Y-68285510D01*
X162111800Y-68620822D01*
X162145267Y-69031209D01*
X162237929Y-69254914D01*
X162442759Y-69279636D01*
X162980504Y-68741891D01*
X162966362Y-68727749D01*
X163145967Y-68548144D01*
X163160109Y-68562286D01*
X163697854Y-68024541D01*
X163673132Y-67819711D01*
X163507407Y-67766381D01*
X163615309Y-67431069D01*
X163581842Y-67020682D01*
X163517290Y-66864841D01*
X163673132Y-66800289D01*
X163697854Y-66595459D01*
X165486146Y-66595459D01*
X165510868Y-66800289D01*
X165676593Y-66853619D01*
X165568691Y-67188931D01*
X165602158Y-67599318D01*
X165666710Y-67755159D01*
X165510868Y-67819711D01*
X165486146Y-68024541D01*
X166023891Y-68562286D01*
X166038034Y-68548144D01*
X166217639Y-68727749D01*
X166203496Y-68741891D01*
X166741241Y-69279636D01*
X166946071Y-69254914D01*
X167072200Y-68862960D01*
X167038733Y-68452573D01*
X166974181Y-68296732D01*
X167130023Y-68232180D01*
X167154745Y-68027350D01*
X166617000Y-67489605D01*
X166602858Y-67503748D01*
X166423253Y-67324143D01*
X166437395Y-67310000D01*
X166423253Y-67295858D01*
X166602858Y-67116253D01*
X166617000Y-67130395D01*
X167154745Y-66592650D01*
X167130023Y-66387820D01*
X166964298Y-66334490D01*
X167072200Y-65999178D01*
X167038733Y-65588791D01*
X166946071Y-65365086D01*
X166741241Y-65340364D01*
X166203496Y-65878109D01*
X166217639Y-65892252D01*
X166038034Y-66071857D01*
X166023891Y-66057714D01*
X165486146Y-66595459D01*
X163697854Y-66595459D01*
X163160109Y-66057714D01*
X163145967Y-66071857D01*
X162966362Y-65892252D01*
X162980504Y-65878109D01*
X162442759Y-65340364D01*
X162237929Y-65365086D01*
X162111800Y-65757040D01*
X162145267Y-66167427D01*
X162209819Y-66323268D01*
X162053977Y-66387820D01*
X162029255Y-66592650D01*
X161798000Y-66592650D01*
X161798000Y-65160759D01*
X162622364Y-65160759D01*
X163160109Y-65698504D01*
X163174252Y-65684362D01*
X163353857Y-65863967D01*
X163339714Y-65878109D01*
X163877459Y-66415854D01*
X164082289Y-66391132D01*
X164135619Y-66225407D01*
X164470931Y-66333309D01*
X164881318Y-66299842D01*
X165037159Y-66235290D01*
X165101711Y-66391132D01*
X165306541Y-66415854D01*
X165844286Y-65878109D01*
X165830144Y-65863967D01*
X166009749Y-65684362D01*
X166023891Y-65698504D01*
X166561636Y-65160759D01*
X166536914Y-64955929D01*
X166144960Y-64829800D01*
X165734573Y-64863267D01*
X165578732Y-64927819D01*
X165514180Y-64771977D01*
X165309350Y-64747255D01*
X164771605Y-65285000D01*
X164785748Y-65299143D01*
X164606143Y-65478748D01*
X164592000Y-65464605D01*
X164577858Y-65478748D01*
X164398253Y-65299143D01*
X164412395Y-65285000D01*
X163874650Y-64747255D01*
X163669820Y-64771977D01*
X163616490Y-64937702D01*
X163281178Y-64829800D01*
X162870791Y-64863267D01*
X162647086Y-64955929D01*
X162622364Y-65160759D01*
X161798000Y-65160759D01*
X161798000Y-64567650D01*
X164054255Y-64567650D01*
X164592000Y-65105395D01*
X165129745Y-64567650D01*
X165105023Y-64362820D01*
X164713069Y-64236691D01*
X164302682Y-64270158D01*
X164078977Y-64362820D01*
X164054255Y-64567650D01*
X161798000Y-64567650D01*
X161798000Y-64135000D01*
X167640000Y-64135000D01*
X167640000Y-67120719D01*
X167640000Y-67120719D01*
G37*
X167640000Y-67120719D02*
X167631842Y-67020682D01*
X167539180Y-66796977D01*
X167334350Y-66772255D01*
X166796605Y-67310000D01*
X167334350Y-67847745D01*
X167539180Y-67823023D01*
X167640000Y-67509718D01*
X167640000Y-72475425D01*
X166267587Y-74346897D01*
X166246436Y-74392658D01*
X166243000Y-74422000D01*
X166243000Y-80760500D01*
X162179000Y-80760500D01*
X162179000Y-75363606D01*
X162522803Y-75019803D01*
X162550666Y-74977789D01*
X162560000Y-74930000D01*
X162560000Y-72390000D01*
X162549994Y-72340590D01*
X162522803Y-72300197D01*
X161798000Y-71575394D01*
X161798000Y-70052350D01*
X164054255Y-70052350D01*
X164078977Y-70257180D01*
X164470931Y-70383309D01*
X164881318Y-70349842D01*
X165105023Y-70257180D01*
X165129745Y-70052350D01*
X164592000Y-69514605D01*
X164054255Y-70052350D01*
X161798000Y-70052350D01*
X161798000Y-69459241D01*
X162622364Y-69459241D01*
X162647086Y-69664071D01*
X163039040Y-69790200D01*
X163449427Y-69756733D01*
X163605268Y-69692181D01*
X163669820Y-69848023D01*
X163874650Y-69872745D01*
X164412395Y-69335000D01*
X164398253Y-69320858D01*
X164577858Y-69141253D01*
X164592000Y-69155395D01*
X164606143Y-69141253D01*
X164785748Y-69320858D01*
X164771605Y-69335000D01*
X165309350Y-69872745D01*
X165514180Y-69848023D01*
X165567510Y-69682298D01*
X165902822Y-69790200D01*
X166313209Y-69756733D01*
X166536914Y-69664071D01*
X166561636Y-69459241D01*
X166023891Y-68921496D01*
X166009749Y-68935639D01*
X165830144Y-68756034D01*
X165844286Y-68741891D01*
X165306541Y-68204146D01*
X165101711Y-68228868D01*
X165048381Y-68394593D01*
X164713069Y-68286691D01*
X164302682Y-68320158D01*
X164146841Y-68384710D01*
X164082289Y-68228868D01*
X163877459Y-68204146D01*
X163339714Y-68741891D01*
X163353857Y-68756034D01*
X163174252Y-68935639D01*
X163160109Y-68921496D01*
X162622364Y-69459241D01*
X161798000Y-69459241D01*
X161798000Y-67841511D01*
X161849650Y-67847745D01*
X162387395Y-67310000D01*
X161849650Y-66772255D01*
X161798000Y-66778489D01*
X161798000Y-66592650D01*
X162029255Y-66592650D01*
X162567000Y-67130395D01*
X162581143Y-67116253D01*
X162760748Y-67295858D01*
X162746605Y-67310000D01*
X162760748Y-67324143D01*
X162581143Y-67503748D01*
X162567000Y-67489605D01*
X162029255Y-68027350D01*
X162053977Y-68232180D01*
X162219702Y-68285510D01*
X162111800Y-68620822D01*
X162145267Y-69031209D01*
X162237929Y-69254914D01*
X162442759Y-69279636D01*
X162980504Y-68741891D01*
X162966362Y-68727749D01*
X163145967Y-68548144D01*
X163160109Y-68562286D01*
X163697854Y-68024541D01*
X163673132Y-67819711D01*
X163507407Y-67766381D01*
X163615309Y-67431069D01*
X163581842Y-67020682D01*
X163517290Y-66864841D01*
X163673132Y-66800289D01*
X163697854Y-66595459D01*
X165486146Y-66595459D01*
X165510868Y-66800289D01*
X165676593Y-66853619D01*
X165568691Y-67188931D01*
X165602158Y-67599318D01*
X165666710Y-67755159D01*
X165510868Y-67819711D01*
X165486146Y-68024541D01*
X166023891Y-68562286D01*
X166038034Y-68548144D01*
X166217639Y-68727749D01*
X166203496Y-68741891D01*
X166741241Y-69279636D01*
X166946071Y-69254914D01*
X167072200Y-68862960D01*
X167038733Y-68452573D01*
X166974181Y-68296732D01*
X167130023Y-68232180D01*
X167154745Y-68027350D01*
X166617000Y-67489605D01*
X166602858Y-67503748D01*
X166423253Y-67324143D01*
X166437395Y-67310000D01*
X166423253Y-67295858D01*
X166602858Y-67116253D01*
X166617000Y-67130395D01*
X167154745Y-66592650D01*
X167130023Y-66387820D01*
X166964298Y-66334490D01*
X167072200Y-65999178D01*
X167038733Y-65588791D01*
X166946071Y-65365086D01*
X166741241Y-65340364D01*
X166203496Y-65878109D01*
X166217639Y-65892252D01*
X166038034Y-66071857D01*
X166023891Y-66057714D01*
X165486146Y-66595459D01*
X163697854Y-66595459D01*
X163160109Y-66057714D01*
X163145967Y-66071857D01*
X162966362Y-65892252D01*
X162980504Y-65878109D01*
X162442759Y-65340364D01*
X162237929Y-65365086D01*
X162111800Y-65757040D01*
X162145267Y-66167427D01*
X162209819Y-66323268D01*
X162053977Y-66387820D01*
X162029255Y-66592650D01*
X161798000Y-66592650D01*
X161798000Y-65160759D01*
X162622364Y-65160759D01*
X163160109Y-65698504D01*
X163174252Y-65684362D01*
X163353857Y-65863967D01*
X163339714Y-65878109D01*
X163877459Y-66415854D01*
X164082289Y-66391132D01*
X164135619Y-66225407D01*
X164470931Y-66333309D01*
X164881318Y-66299842D01*
X165037159Y-66235290D01*
X165101711Y-66391132D01*
X165306541Y-66415854D01*
X165844286Y-65878109D01*
X165830144Y-65863967D01*
X166009749Y-65684362D01*
X166023891Y-65698504D01*
X166561636Y-65160759D01*
X166536914Y-64955929D01*
X166144960Y-64829800D01*
X165734573Y-64863267D01*
X165578732Y-64927819D01*
X165514180Y-64771977D01*
X165309350Y-64747255D01*
X164771605Y-65285000D01*
X164785748Y-65299143D01*
X164606143Y-65478748D01*
X164592000Y-65464605D01*
X164577858Y-65478748D01*
X164398253Y-65299143D01*
X164412395Y-65285000D01*
X163874650Y-64747255D01*
X163669820Y-64771977D01*
X163616490Y-64937702D01*
X163281178Y-64829800D01*
X162870791Y-64863267D01*
X162647086Y-64955929D01*
X162622364Y-65160759D01*
X161798000Y-65160759D01*
X161798000Y-64567650D01*
X164054255Y-64567650D01*
X164592000Y-65105395D01*
X165129745Y-64567650D01*
X165105023Y-64362820D01*
X164713069Y-64236691D01*
X164302682Y-64270158D01*
X164078977Y-64362820D01*
X164054255Y-64567650D01*
X161798000Y-64567650D01*
X161798000Y-64135000D01*
X167640000Y-64135000D01*
X167640000Y-67120719D01*
G36*
X175895000Y-74623394D02*
X171741197Y-78777197D01*
X171713334Y-78819211D01*
X171704000Y-78867000D01*
X171704000Y-80760500D01*
X167259000Y-80760500D01*
X167259000Y-75987195D01*
X170917821Y-70940545D01*
X170938722Y-70894669D01*
X170942000Y-70866000D01*
X170942000Y-63627000D01*
X175895000Y-63627000D01*
X175895000Y-74623394D01*
X175895000Y-74623394D01*
G37*
X175895000Y-74623394D02*
X171741197Y-78777197D01*
X171713334Y-78819211D01*
X171704000Y-78867000D01*
X171704000Y-80760500D01*
X167259000Y-80760500D01*
X167259000Y-75987195D01*
X170917821Y-70940545D01*
X170938722Y-70894669D01*
X170942000Y-70866000D01*
X170942000Y-63627000D01*
X175895000Y-63627000D01*
X175895000Y-74623394D01*
M02*
