G04 #@! TF.FileFunction,Legend,Bot*
%FSLAX46Y46*%
G04 Gerber Fmt 4.6, Leading zero omitted, Abs format (unit mm)*
G04 Created by KiCad (PCBNEW 4.0.7) date 03/25/20 15:59:30*
%MOMM*%
%LPD*%
G01*
G04 APERTURE LIST*
%ADD10C,0.100000*%
%ADD11C,0.300000*%
%ADD12C,0.150000*%
G04 APERTURE END LIST*
D10*
D11*
X139886286Y-57598571D02*
X139029143Y-57598571D01*
X139457714Y-59098571D02*
X139457714Y-57598571D01*
X138243429Y-57598571D02*
X137957715Y-57598571D01*
X137814857Y-57670000D01*
X137672000Y-57812857D01*
X137600572Y-58098571D01*
X137600572Y-58598571D01*
X137672000Y-58884286D01*
X137814857Y-59027143D01*
X137957715Y-59098571D01*
X138243429Y-59098571D01*
X138386286Y-59027143D01*
X138529143Y-58884286D01*
X138600572Y-58598571D01*
X138600572Y-58098571D01*
X138529143Y-57812857D01*
X138386286Y-57670000D01*
X138243429Y-57598571D01*
X136957714Y-59098571D02*
X136957714Y-57598571D01*
X136386286Y-57598571D01*
X136243428Y-57670000D01*
X136172000Y-57741429D01*
X136100571Y-57884286D01*
X136100571Y-58098571D01*
X136172000Y-58241429D01*
X136243428Y-58312857D01*
X136386286Y-58384286D01*
X136957714Y-58384286D01*
X174446285Y-59098571D02*
X174946285Y-58384286D01*
X175303428Y-59098571D02*
X175303428Y-57598571D01*
X174732000Y-57598571D01*
X174589142Y-57670000D01*
X174517714Y-57741429D01*
X174446285Y-57884286D01*
X174446285Y-58098571D01*
X174517714Y-58241429D01*
X174589142Y-58312857D01*
X174732000Y-58384286D01*
X175303428Y-58384286D01*
X173803428Y-58312857D02*
X173303428Y-58312857D01*
X173089142Y-59098571D02*
X173803428Y-59098571D01*
X173803428Y-57598571D01*
X173089142Y-57598571D01*
X171660571Y-57670000D02*
X171803428Y-57598571D01*
X172017714Y-57598571D01*
X172231999Y-57670000D01*
X172374857Y-57812857D01*
X172446285Y-57955714D01*
X172517714Y-58241429D01*
X172517714Y-58455714D01*
X172446285Y-58741429D01*
X172374857Y-58884286D01*
X172231999Y-59027143D01*
X172017714Y-59098571D01*
X171874857Y-59098571D01*
X171660571Y-59027143D01*
X171589142Y-58955714D01*
X171589142Y-58455714D01*
X171874857Y-58455714D01*
X168806286Y-57670000D02*
X168949143Y-57598571D01*
X169163429Y-57598571D01*
X169377714Y-57670000D01*
X169520572Y-57812857D01*
X169592000Y-57955714D01*
X169663429Y-58241429D01*
X169663429Y-58455714D01*
X169592000Y-58741429D01*
X169520572Y-58884286D01*
X169377714Y-59027143D01*
X169163429Y-59098571D01*
X169020572Y-59098571D01*
X168806286Y-59027143D01*
X168734857Y-58955714D01*
X168734857Y-58455714D01*
X169020572Y-58455714D01*
X168092000Y-59098571D02*
X168092000Y-57598571D01*
X167234857Y-59098571D01*
X167234857Y-57598571D01*
X166520571Y-59098571D02*
X166520571Y-57598571D01*
X166163428Y-57598571D01*
X165949143Y-57670000D01*
X165806285Y-57812857D01*
X165734857Y-57955714D01*
X165663428Y-58241429D01*
X165663428Y-58455714D01*
X165734857Y-58741429D01*
X165806285Y-58884286D01*
X165949143Y-59027143D01*
X166163428Y-59098571D01*
X166520571Y-59098571D01*
X165020571Y-58527143D02*
X163877714Y-58527143D01*
X162877714Y-57598571D02*
X162592000Y-57598571D01*
X162449142Y-57670000D01*
X162306285Y-57812857D01*
X162234857Y-58098571D01*
X162234857Y-58598571D01*
X162306285Y-58884286D01*
X162449142Y-59027143D01*
X162592000Y-59098571D01*
X162877714Y-59098571D01*
X163020571Y-59027143D01*
X163163428Y-58884286D01*
X163234857Y-58598571D01*
X163234857Y-58098571D01*
X163163428Y-57812857D01*
X163020571Y-57670000D01*
X162877714Y-57598571D01*
X161591999Y-57598571D02*
X161591999Y-58812857D01*
X161520571Y-58955714D01*
X161449142Y-59027143D01*
X161306285Y-59098571D01*
X161020571Y-59098571D01*
X160877713Y-59027143D01*
X160806285Y-58955714D01*
X160734856Y-58812857D01*
X160734856Y-57598571D01*
X160234856Y-57598571D02*
X159377713Y-57598571D01*
X159806284Y-59098571D02*
X159806284Y-57598571D01*
X113196286Y-57670000D02*
X113339143Y-57598571D01*
X113553429Y-57598571D01*
X113767714Y-57670000D01*
X113910572Y-57812857D01*
X113982000Y-57955714D01*
X114053429Y-58241429D01*
X114053429Y-58455714D01*
X113982000Y-58741429D01*
X113910572Y-58884286D01*
X113767714Y-59027143D01*
X113553429Y-59098571D01*
X113410572Y-59098571D01*
X113196286Y-59027143D01*
X113124857Y-58955714D01*
X113124857Y-58455714D01*
X113410572Y-58455714D01*
X112482000Y-59098571D02*
X112482000Y-57598571D01*
X111624857Y-59098571D01*
X111624857Y-57598571D01*
X110910571Y-59098571D02*
X110910571Y-57598571D01*
X110553428Y-57598571D01*
X110339143Y-57670000D01*
X110196285Y-57812857D01*
X110124857Y-57955714D01*
X110053428Y-58241429D01*
X110053428Y-58455714D01*
X110124857Y-58741429D01*
X110196285Y-58884286D01*
X110339143Y-59027143D01*
X110553428Y-59098571D01*
X110910571Y-59098571D01*
X109410571Y-58527143D02*
X108267714Y-58527143D01*
X107553428Y-59098571D02*
X107553428Y-57598571D01*
X106839142Y-59098571D02*
X106839142Y-57598571D01*
X105981999Y-59098571D01*
X105981999Y-57598571D01*
X99480571Y-59098571D02*
X100337714Y-59098571D01*
X99909142Y-59098571D02*
X99909142Y-57598571D01*
X100051999Y-57812857D01*
X100194857Y-57955714D01*
X100337714Y-58027143D01*
X98909143Y-57741429D02*
X98837714Y-57670000D01*
X98694857Y-57598571D01*
X98337714Y-57598571D01*
X98194857Y-57670000D01*
X98123428Y-57741429D01*
X98052000Y-57884286D01*
X98052000Y-58027143D01*
X98123428Y-58241429D01*
X98980571Y-59098571D01*
X98052000Y-59098571D01*
X97623429Y-57598571D02*
X97123429Y-59098571D01*
X96623429Y-57598571D01*
D12*
X137591800Y-107086400D02*
X137591800Y-131216400D01*
X137591800Y-131216400D02*
X185851800Y-131216400D01*
X185851800Y-131216400D02*
X185851800Y-82956400D01*
X185851800Y-82956400D02*
X137591800Y-82956400D01*
X137591800Y-82956400D02*
X137591800Y-107086400D01*
X143179800Y-134518400D02*
X143179800Y-139598400D01*
X180263800Y-74574400D02*
X180263800Y-139598400D01*
X161721800Y-74574400D02*
X180263800Y-74574400D01*
X143179800Y-134518400D02*
X143179800Y-74574400D01*
X143179800Y-74574400D02*
X161721800Y-74574400D01*
X161721800Y-139598400D02*
X143179800Y-139598400D01*
X161721800Y-139598400D02*
X180263800Y-139598400D01*
X88785700Y-107124500D02*
X88785700Y-131254500D01*
X88785700Y-131254500D02*
X137045700Y-131254500D01*
X137045700Y-131254500D02*
X137045700Y-82994500D01*
X137045700Y-82994500D02*
X88785700Y-82994500D01*
X88785700Y-82994500D02*
X88785700Y-107124500D01*
X94373700Y-134556500D02*
X94373700Y-139636500D01*
X131457700Y-74612500D02*
X131457700Y-139636500D01*
X112915700Y-74612500D02*
X131457700Y-74612500D01*
X94373700Y-134556500D02*
X94373700Y-74612500D01*
X94373700Y-74612500D02*
X112915700Y-74612500D01*
X112915700Y-139636500D02*
X94373700Y-139636500D01*
X112915700Y-139636500D02*
X131457700Y-139636500D01*
M02*
