M48
;DRILL file {KiCad 4.0.7} date 03/25/20 15:59:32
;FORMAT={-:-/ absolute / inch / decimal}
FMAT,2
INCH,TZ
T1C0.016
T2C0.020
T3C0.039
T4C0.075
T5C0.087
T6C0.106
T7C0.126
T8C0.150
T9C0.197
%
G90
G05
M72
T1
X6.42Y-2.935
X6.42Y-3.035
X6.4655Y-3.1085
X6.52Y-2.935
X6.52Y-3.035
T2
X6.4003Y-2.65
X6.4236Y-2.5936
X6.4236Y-2.7064
X6.48Y-2.5703
X6.48Y-2.7297
X6.5364Y-2.5936
X6.5364Y-2.7064
X6.5597Y-2.65
T3
X7.23Y-2.625
X7.23Y-2.725
X7.23Y-2.825
X7.23Y-2.925
X7.23Y-3.025
X7.23Y-3.125
T4
X6.067Y-5.408
X6.167Y-5.408
X6.267Y-5.408
X6.461Y-5.408
X6.561Y-5.408
X6.661Y-5.408
T5
X3.88Y-2.5
X3.88Y-2.65
X3.88Y-2.8
X4.33Y-2.5
X4.33Y-2.65
X4.33Y-2.8
X6.83Y-2.5
X6.83Y-2.65
X6.83Y-2.8
T6
X6.48Y-2.65
T7
X4.1455Y-3.1085
X4.3455Y-3.1085
X4.5455Y-3.1085
X4.7455Y-3.1085
X6.067Y-3.107
X6.267Y-3.107
X6.467Y-3.107
X6.667Y-3.107
T8
X3.9275Y-5.3655
X4.9655Y-5.3655
X5.849Y-5.364
X6.887Y-5.364
T9
X3.8195Y-3.4075
X5.0715Y-3.4075
X5.0715Y-5.0275
X5.741Y-3.406
X5.741Y-5.026
X6.993Y-3.406
X6.993Y-5.026
T0
M30
