G04 #@! TF.FileFunction,Soldermask,Top*
%FSLAX46Y46*%
G04 Gerber Fmt 4.6, Leading zero omitted, Abs format (unit mm)*
G04 Created by KiCad (PCBNEW 4.0.7) date 03/25/20 15:59:30*
%MOMM*%
%LPD*%
G01*
G04 APERTURE LIST*
%ADD10C,0.100000*%
%ADD11O,2.600000X4.400000*%
%ADD12C,6.600000*%
%ADD13O,4.900000X6.400000*%
%ADD14C,4.900000*%
%ADD15R,2.100000X2.100000*%
%ADD16O,2.100000X2.100000*%
%ADD17C,5.800000*%
%ADD18C,1.200000*%
%ADD19C,4.800000*%
%ADD20C,0.254000*%
G04 APERTURE END LIST*
D10*
D11*
X164109400Y-137363200D03*
X166649400Y-137363200D03*
X169189400Y-137363200D03*
D12*
X177622200Y-86512400D03*
X145821400Y-86512400D03*
X145821400Y-127660400D03*
X177622200Y-127660400D03*
D13*
X169341800Y-78917800D03*
X164261800Y-78917800D03*
X159181800Y-78917800D03*
X154101800Y-78917800D03*
D14*
X148564600Y-136245600D03*
X174929800Y-136245600D03*
D11*
X159181800Y-137363200D03*
X156641800Y-137363200D03*
X154101800Y-137363200D03*
D12*
X128816100Y-86550500D03*
X97015300Y-86550500D03*
X128816100Y-127698500D03*
D13*
X120535700Y-78955900D03*
X115455700Y-78955900D03*
X110375700Y-78955900D03*
X105295700Y-78955900D03*
D14*
X126123700Y-136283700D03*
D15*
X183642000Y-79375000D03*
D16*
X183642000Y-76835000D03*
X183642000Y-74295000D03*
X183642000Y-71755000D03*
X183642000Y-69215000D03*
X183642000Y-66675000D03*
D17*
X164592000Y-67310000D03*
D18*
X166617000Y-67310000D03*
X166023891Y-68741891D03*
X164592000Y-69335000D03*
X163160109Y-68741891D03*
X162567000Y-67310000D03*
X163160109Y-65878109D03*
X164592000Y-65285000D03*
X166023891Y-65878109D03*
D19*
X173482000Y-67310000D03*
X173482000Y-71120000D03*
X173482000Y-63500000D03*
X98552000Y-71120000D03*
X98552000Y-63500000D03*
X98552000Y-67310000D03*
X109982000Y-67310000D03*
X109982000Y-71120000D03*
X109982000Y-63500000D03*
D20*
G36*
X166749555Y-72218754D02*
X165510436Y-73705697D01*
X165486491Y-73750060D01*
X165481087Y-73791700D01*
X165730209Y-80518000D01*
X162687000Y-80518000D01*
X162687000Y-72517000D01*
X162676994Y-72467590D01*
X162649803Y-72427197D01*
X162179000Y-71956394D01*
X162179000Y-64262000D01*
X166500907Y-64262000D01*
X166749555Y-72218754D01*
X166749555Y-72218754D01*
G37*
X166749555Y-72218754D02*
X165510436Y-73705697D01*
X165486491Y-73750060D01*
X165481087Y-73791700D01*
X165730209Y-80518000D01*
X162687000Y-80518000D01*
X162687000Y-72517000D01*
X162676994Y-72467590D01*
X162649803Y-72427197D01*
X162179000Y-71956394D01*
X162179000Y-64262000D01*
X166500907Y-64262000D01*
X166749555Y-72218754D01*
G36*
X258699000Y-57785000D02*
X225425000Y-57785000D01*
X225425000Y-54737000D01*
X258699000Y-54737000D01*
X258699000Y-57785000D01*
X258699000Y-57785000D01*
G37*
X258699000Y-57785000D02*
X225425000Y-57785000D01*
X225425000Y-54737000D01*
X258699000Y-54737000D01*
X258699000Y-57785000D01*
M02*
