G04 #@! TF.FileFunction,Legend,Top*
%FSLAX46Y46*%
G04 Gerber Fmt 4.6, Leading zero omitted, Abs format (unit mm)*
G04 Created by KiCad (PCBNEW 4.0.7) date 10/27/19 12:55:04*
%MOMM*%
%LPD*%
G01*
G04 APERTURE LIST*
%ADD10C,0.100000*%
%ADD11C,0.200000*%
%ADD12C,0.050000*%
%ADD13C,0.075000*%
%ADD14C,0.250000*%
%ADD15C,0.120000*%
%ADD16C,0.150000*%
G04 APERTURE END LIST*
D10*
D11*
X226607714Y-25936438D02*
X226607714Y-25555486D01*
X227274381Y-25793581D02*
X226417238Y-25793581D01*
X226322000Y-25745962D01*
X226274381Y-25650724D01*
X226274381Y-25555486D01*
X227274381Y-24793580D02*
X226750571Y-24793580D01*
X226655333Y-24841199D01*
X226607714Y-24936437D01*
X226607714Y-25126914D01*
X226655333Y-25222152D01*
X227226762Y-24793580D02*
X227274381Y-24888818D01*
X227274381Y-25126914D01*
X227226762Y-25222152D01*
X227131524Y-25269771D01*
X227036286Y-25269771D01*
X226941048Y-25222152D01*
X226893429Y-25126914D01*
X226893429Y-24888818D01*
X226845810Y-24793580D01*
X226607714Y-24317390D02*
X227274381Y-24317390D01*
X226702952Y-24317390D02*
X226655333Y-24269771D01*
X226607714Y-24174533D01*
X226607714Y-24031675D01*
X226655333Y-23936437D01*
X226750571Y-23888818D01*
X227274381Y-23888818D01*
D10*
X226318771Y-43944990D02*
X226318771Y-44278324D01*
X226842581Y-44278324D02*
X225842581Y-44278324D01*
X225842581Y-43802133D01*
X225842581Y-43230705D02*
X225842581Y-43135466D01*
X225890200Y-43040228D01*
X225937819Y-42992609D01*
X226033057Y-42944990D01*
X226223533Y-42897371D01*
X226461629Y-42897371D01*
X226652105Y-42944990D01*
X226747343Y-42992609D01*
X226794962Y-43040228D01*
X226842581Y-43135466D01*
X226842581Y-43230705D01*
X226794962Y-43325943D01*
X226747343Y-43373562D01*
X226652105Y-43421181D01*
X226461629Y-43468800D01*
X226223533Y-43468800D01*
X226033057Y-43421181D01*
X225937819Y-43373562D01*
X225890200Y-43325943D01*
X225842581Y-43230705D01*
X226747343Y-42468800D02*
X226794962Y-42421181D01*
X226842581Y-42468800D01*
X226794962Y-42516419D01*
X226747343Y-42468800D01*
X226842581Y-42468800D01*
X225842581Y-41516419D02*
X225842581Y-41992610D01*
X226318771Y-42040229D01*
X226271152Y-41992610D01*
X226223533Y-41897372D01*
X226223533Y-41659276D01*
X226271152Y-41564038D01*
X226318771Y-41516419D01*
X226414010Y-41468800D01*
X226652105Y-41468800D01*
X226747343Y-41516419D01*
X226794962Y-41564038D01*
X226842581Y-41659276D01*
X226842581Y-41897372D01*
X226794962Y-41992610D01*
X226747343Y-42040229D01*
X226556867Y-41087848D02*
X226556867Y-40611657D01*
X226842581Y-41183086D02*
X225842581Y-40849753D01*
X226842581Y-40516419D01*
X219689371Y-43843390D02*
X219689371Y-44176724D01*
X220213181Y-44176724D02*
X219213181Y-44176724D01*
X219213181Y-43700533D01*
X219213181Y-43129105D02*
X219213181Y-43033866D01*
X219260800Y-42938628D01*
X219308419Y-42891009D01*
X219403657Y-42843390D01*
X219594133Y-42795771D01*
X219832229Y-42795771D01*
X220022705Y-42843390D01*
X220117943Y-42891009D01*
X220165562Y-42938628D01*
X220213181Y-43033866D01*
X220213181Y-43129105D01*
X220165562Y-43224343D01*
X220117943Y-43271962D01*
X220022705Y-43319581D01*
X219832229Y-43367200D01*
X219594133Y-43367200D01*
X219403657Y-43319581D01*
X219308419Y-43271962D01*
X219260800Y-43224343D01*
X219213181Y-43129105D01*
X220117943Y-42367200D02*
X220165562Y-42319581D01*
X220213181Y-42367200D01*
X220165562Y-42414819D01*
X220117943Y-42367200D01*
X220213181Y-42367200D01*
X219213181Y-41414819D02*
X219213181Y-41891010D01*
X219689371Y-41938629D01*
X219641752Y-41891010D01*
X219594133Y-41795772D01*
X219594133Y-41557676D01*
X219641752Y-41462438D01*
X219689371Y-41414819D01*
X219784610Y-41367200D01*
X220022705Y-41367200D01*
X220117943Y-41414819D01*
X220165562Y-41462438D01*
X220213181Y-41557676D01*
X220213181Y-41795772D01*
X220165562Y-41891010D01*
X220117943Y-41938629D01*
X219927467Y-40986248D02*
X219927467Y-40510057D01*
X220213181Y-41081486D02*
X219213181Y-40748153D01*
X220213181Y-40414819D01*
D11*
X208113381Y-39106314D02*
X209113381Y-38772981D01*
X208113381Y-38439647D01*
X208065762Y-37392028D02*
X209351476Y-38249171D01*
X208827667Y-37106314D02*
X208827667Y-36630123D01*
X209113381Y-37201552D02*
X208113381Y-36868219D01*
X209113381Y-36534885D01*
D12*
X142308049Y-114526190D02*
X142308049Y-114192857D01*
X142308049Y-114240476D02*
X142331858Y-114216667D01*
X142379477Y-114192857D01*
X142450906Y-114192857D01*
X142498525Y-114216667D01*
X142522334Y-114264286D01*
X142522334Y-114526190D01*
X142522334Y-114264286D02*
X142546144Y-114216667D01*
X142593763Y-114192857D01*
X142665191Y-114192857D01*
X142712811Y-114216667D01*
X142736620Y-114264286D01*
X142736620Y-114526190D01*
X142974716Y-114526190D02*
X142974716Y-114192857D01*
X142974716Y-114026190D02*
X142950906Y-114050000D01*
X142974716Y-114073810D01*
X142998525Y-114050000D01*
X142974716Y-114026190D01*
X142974716Y-114073810D01*
X143284239Y-114526190D02*
X143236620Y-114502381D01*
X143212811Y-114454762D01*
X143212811Y-114026190D01*
X143689001Y-114192857D02*
X143689001Y-114526190D01*
X143474716Y-114192857D02*
X143474716Y-114454762D01*
X143498525Y-114502381D01*
X143546144Y-114526190D01*
X143617573Y-114526190D01*
X143665192Y-114502381D01*
X143689001Y-114478571D01*
X143927097Y-114192857D02*
X143927097Y-114621429D01*
X143903287Y-114669048D01*
X143855668Y-114692857D01*
X143831859Y-114692857D01*
X143927097Y-114026190D02*
X143903287Y-114050000D01*
X143927097Y-114073810D01*
X143950906Y-114050000D01*
X143927097Y-114026190D01*
X143927097Y-114073810D01*
X144355668Y-114502381D02*
X144308049Y-114526190D01*
X144212811Y-114526190D01*
X144165192Y-114502381D01*
X144141382Y-114454762D01*
X144141382Y-114264286D01*
X144165192Y-114216667D01*
X144212811Y-114192857D01*
X144308049Y-114192857D01*
X144355668Y-114216667D01*
X144379477Y-114264286D01*
X144379477Y-114311905D01*
X144141382Y-114359524D01*
X144593763Y-114526190D02*
X144593763Y-114192857D01*
X144593763Y-114240476D02*
X144617572Y-114216667D01*
X144665191Y-114192857D01*
X144736620Y-114192857D01*
X144784239Y-114216667D01*
X144808048Y-114264286D01*
X144808048Y-114526190D01*
X144808048Y-114264286D02*
X144831858Y-114216667D01*
X144879477Y-114192857D01*
X144950905Y-114192857D01*
X144998525Y-114216667D01*
X145022334Y-114264286D01*
X145022334Y-114526190D01*
X145569953Y-114026190D02*
X145855667Y-114026190D01*
X145712810Y-114526190D02*
X145712810Y-114026190D01*
X146236619Y-114526190D02*
X146236619Y-114264286D01*
X146212810Y-114216667D01*
X146165191Y-114192857D01*
X146069953Y-114192857D01*
X146022334Y-114216667D01*
X146236619Y-114502381D02*
X146189000Y-114526190D01*
X146069953Y-114526190D01*
X146022334Y-114502381D01*
X145998524Y-114454762D01*
X145998524Y-114407143D01*
X146022334Y-114359524D01*
X146069953Y-114335714D01*
X146189000Y-114335714D01*
X146236619Y-114311905D01*
X146855667Y-114526190D02*
X146855667Y-114026190D01*
X146974714Y-114026190D01*
X147046143Y-114050000D01*
X147093762Y-114097619D01*
X147117571Y-114145238D01*
X147141381Y-114240476D01*
X147141381Y-114311905D01*
X147117571Y-114407143D01*
X147093762Y-114454762D01*
X147046143Y-114502381D01*
X146974714Y-114526190D01*
X146855667Y-114526190D01*
X147427095Y-114526190D02*
X147379476Y-114502381D01*
X147355667Y-114478571D01*
X147331857Y-114430952D01*
X147331857Y-114288095D01*
X147355667Y-114240476D01*
X147379476Y-114216667D01*
X147427095Y-114192857D01*
X147498524Y-114192857D01*
X147546143Y-114216667D01*
X147569952Y-114240476D01*
X147593762Y-114288095D01*
X147593762Y-114430952D01*
X147569952Y-114478571D01*
X147546143Y-114502381D01*
X147498524Y-114526190D01*
X147427095Y-114526190D01*
X147808048Y-114526190D02*
X147808048Y-114192857D01*
X147808048Y-114240476D02*
X147831857Y-114216667D01*
X147879476Y-114192857D01*
X147950905Y-114192857D01*
X147998524Y-114216667D01*
X148022333Y-114264286D01*
X148022333Y-114526190D01*
X148022333Y-114264286D02*
X148046143Y-114216667D01*
X148093762Y-114192857D01*
X148165190Y-114192857D01*
X148212810Y-114216667D01*
X148236619Y-114264286D01*
X148236619Y-114526190D01*
X148474715Y-114526190D02*
X148474715Y-114192857D01*
X148474715Y-114026190D02*
X148450905Y-114050000D01*
X148474715Y-114073810D01*
X148498524Y-114050000D01*
X148474715Y-114026190D01*
X148474715Y-114073810D01*
X148712810Y-114192857D02*
X148712810Y-114526190D01*
X148712810Y-114240476D02*
X148736619Y-114216667D01*
X148784238Y-114192857D01*
X148855667Y-114192857D01*
X148903286Y-114216667D01*
X148927095Y-114264286D01*
X148927095Y-114526190D01*
X149165191Y-114526190D02*
X149165191Y-114192857D01*
X149165191Y-114026190D02*
X149141381Y-114050000D01*
X149165191Y-114073810D01*
X149189000Y-114050000D01*
X149165191Y-114026190D01*
X149165191Y-114073810D01*
X149617571Y-114502381D02*
X149569952Y-114526190D01*
X149474714Y-114526190D01*
X149427095Y-114502381D01*
X149403286Y-114478571D01*
X149379476Y-114430952D01*
X149379476Y-114288095D01*
X149403286Y-114240476D01*
X149427095Y-114216667D01*
X149474714Y-114192857D01*
X149569952Y-114192857D01*
X149617571Y-114216667D01*
X150022333Y-114502381D02*
X149974714Y-114526190D01*
X149879476Y-114526190D01*
X149831857Y-114502381D01*
X149808047Y-114454762D01*
X149808047Y-114264286D01*
X149831857Y-114216667D01*
X149879476Y-114192857D01*
X149974714Y-114192857D01*
X150022333Y-114216667D01*
X150046142Y-114264286D01*
X150046142Y-114311905D01*
X149808047Y-114359524D01*
X150260428Y-114192857D02*
X150260428Y-114526190D01*
X150260428Y-114240476D02*
X150284237Y-114216667D01*
X150331856Y-114192857D01*
X150403285Y-114192857D01*
X150450904Y-114216667D01*
X150474713Y-114264286D01*
X150474713Y-114526190D01*
X150712809Y-114526190D02*
X150712809Y-114026190D01*
X150760428Y-114335714D02*
X150903285Y-114526190D01*
X150903285Y-114192857D02*
X150712809Y-114383333D01*
X151331856Y-114526190D02*
X151331856Y-114264286D01*
X151308047Y-114216667D01*
X151260428Y-114192857D01*
X151165190Y-114192857D01*
X151117571Y-114216667D01*
X151331856Y-114502381D02*
X151284237Y-114526190D01*
X151165190Y-114526190D01*
X151117571Y-114502381D01*
X151093761Y-114454762D01*
X151093761Y-114407143D01*
X151117571Y-114359524D01*
X151165190Y-114335714D01*
X151284237Y-114335714D01*
X151331856Y-114311905D01*
X151569952Y-114478571D02*
X151593761Y-114502381D01*
X151569952Y-114526190D01*
X151546142Y-114502381D01*
X151569952Y-114478571D01*
X151569952Y-114526190D01*
X151569952Y-114335714D02*
X151546142Y-114050000D01*
X151569952Y-114026190D01*
X151593761Y-114050000D01*
X151569952Y-114335714D01*
X151569952Y-114026190D01*
D11*
X156133800Y-31013400D02*
X156108400Y-30988000D01*
X156972000Y-31013400D02*
X156133800Y-31013400D01*
X156972000Y-31826200D02*
X156972000Y-31013400D01*
X156972000Y-31013400D02*
X156972000Y-31826200D01*
X156972000Y-31013400D02*
X156972000Y-31750000D01*
X155727400Y-31013400D02*
X156972000Y-31013400D01*
X156972000Y-31013400D02*
X155727400Y-31013400D01*
D10*
X182768953Y-102941381D02*
X182197524Y-102941381D01*
X182483238Y-102941381D02*
X182483238Y-101941381D01*
X182388000Y-102084238D01*
X182292762Y-102179476D01*
X182197524Y-102227095D01*
X183149905Y-102036619D02*
X183197524Y-101989000D01*
X183292762Y-101941381D01*
X183530858Y-101941381D01*
X183626096Y-101989000D01*
X183673715Y-102036619D01*
X183721334Y-102131857D01*
X183721334Y-102227095D01*
X183673715Y-102369952D01*
X183102286Y-102941381D01*
X183721334Y-102941381D01*
X184007048Y-101941381D02*
X184340381Y-102941381D01*
X184673715Y-101941381D01*
X173807524Y-102274714D02*
X173807524Y-103084238D01*
X173759905Y-103179476D01*
X173712286Y-103227095D01*
X173617047Y-103274714D01*
X173474190Y-103274714D01*
X173378952Y-103227095D01*
X173807524Y-102893762D02*
X173712286Y-102941381D01*
X173521809Y-102941381D01*
X173426571Y-102893762D01*
X173378952Y-102846143D01*
X173331333Y-102750905D01*
X173331333Y-102465190D01*
X173378952Y-102369952D01*
X173426571Y-102322333D01*
X173521809Y-102274714D01*
X173712286Y-102274714D01*
X173807524Y-102322333D01*
X174283714Y-102274714D02*
X174283714Y-102941381D01*
X174283714Y-102369952D02*
X174331333Y-102322333D01*
X174426571Y-102274714D01*
X174569429Y-102274714D01*
X174664667Y-102322333D01*
X174712286Y-102417571D01*
X174712286Y-102941381D01*
X175617048Y-102941381D02*
X175617048Y-101941381D01*
X175617048Y-102893762D02*
X175521810Y-102941381D01*
X175331333Y-102941381D01*
X175236095Y-102893762D01*
X175188476Y-102846143D01*
X175140857Y-102750905D01*
X175140857Y-102465190D01*
X175188476Y-102369952D01*
X175236095Y-102322333D01*
X175331333Y-102274714D01*
X175521810Y-102274714D01*
X175617048Y-102322333D01*
X165013000Y-102274714D02*
X165013000Y-103084238D01*
X164965381Y-103179476D01*
X164917762Y-103227095D01*
X164822523Y-103274714D01*
X164679666Y-103274714D01*
X164584428Y-103227095D01*
X165013000Y-102893762D02*
X164917762Y-102941381D01*
X164727285Y-102941381D01*
X164632047Y-102893762D01*
X164584428Y-102846143D01*
X164536809Y-102750905D01*
X164536809Y-102465190D01*
X164584428Y-102369952D01*
X164632047Y-102322333D01*
X164727285Y-102274714D01*
X164917762Y-102274714D01*
X165013000Y-102322333D01*
X165489190Y-102274714D02*
X165489190Y-102941381D01*
X165489190Y-102369952D02*
X165536809Y-102322333D01*
X165632047Y-102274714D01*
X165774905Y-102274714D01*
X165870143Y-102322333D01*
X165917762Y-102417571D01*
X165917762Y-102941381D01*
X166822524Y-102941381D02*
X166822524Y-101941381D01*
X166822524Y-102893762D02*
X166727286Y-102941381D01*
X166536809Y-102941381D01*
X166441571Y-102893762D01*
X166393952Y-102846143D01*
X166346333Y-102750905D01*
X166346333Y-102465190D01*
X166393952Y-102369952D01*
X166441571Y-102322333D01*
X166536809Y-102274714D01*
X166727286Y-102274714D01*
X166822524Y-102322333D01*
X167298714Y-102560429D02*
X168060619Y-102560429D01*
X168536809Y-102941381D02*
X168536809Y-102274714D01*
X168536809Y-102465190D02*
X168584428Y-102369952D01*
X168632047Y-102322333D01*
X168727285Y-102274714D01*
X168822524Y-102274714D01*
X169536810Y-102893762D02*
X169441572Y-102941381D01*
X169251095Y-102941381D01*
X169155857Y-102893762D01*
X169108238Y-102798524D01*
X169108238Y-102417571D01*
X169155857Y-102322333D01*
X169251095Y-102274714D01*
X169441572Y-102274714D01*
X169536810Y-102322333D01*
X169584429Y-102417571D01*
X169584429Y-102512810D01*
X169108238Y-102608048D01*
X170441572Y-102274714D02*
X170441572Y-103084238D01*
X170393953Y-103179476D01*
X170346334Y-103227095D01*
X170251095Y-103274714D01*
X170108238Y-103274714D01*
X170013000Y-103227095D01*
X170441572Y-102893762D02*
X170346334Y-102941381D01*
X170155857Y-102941381D01*
X170060619Y-102893762D01*
X170013000Y-102846143D01*
X169965381Y-102750905D01*
X169965381Y-102465190D01*
X170013000Y-102369952D01*
X170060619Y-102322333D01*
X170155857Y-102274714D01*
X170346334Y-102274714D01*
X170441572Y-102322333D01*
D11*
X172783500Y-115316000D02*
X172783500Y-116141500D01*
X221045114Y-28579676D02*
X221854638Y-28579676D01*
X221949876Y-28627295D01*
X221997495Y-28674914D01*
X222045114Y-28770153D01*
X222045114Y-28913010D01*
X221997495Y-29008248D01*
X221664162Y-28579676D02*
X221711781Y-28674914D01*
X221711781Y-28865391D01*
X221664162Y-28960629D01*
X221616543Y-29008248D01*
X221521305Y-29055867D01*
X221235590Y-29055867D01*
X221140352Y-29008248D01*
X221092733Y-28960629D01*
X221045114Y-28865391D01*
X221045114Y-28674914D01*
X221092733Y-28579676D01*
X221045114Y-28103486D02*
X221711781Y-28103486D01*
X221140352Y-28103486D02*
X221092733Y-28055867D01*
X221045114Y-27960629D01*
X221045114Y-27817771D01*
X221092733Y-27722533D01*
X221187971Y-27674914D01*
X221711781Y-27674914D01*
X221711781Y-26770152D02*
X220711781Y-26770152D01*
X221664162Y-26770152D02*
X221711781Y-26865390D01*
X221711781Y-27055867D01*
X221664162Y-27151105D01*
X221616543Y-27198724D01*
X221521305Y-27246343D01*
X221235590Y-27246343D01*
X221140352Y-27198724D01*
X221092733Y-27151105D01*
X221045114Y-27055867D01*
X221045114Y-26865390D01*
X221092733Y-26770152D01*
X224378781Y-28508247D02*
X224378781Y-29079676D01*
X224378781Y-28793962D02*
X223378781Y-28793962D01*
X223521638Y-28889200D01*
X223616876Y-28984438D01*
X223664495Y-29079676D01*
X223474019Y-28127295D02*
X223426400Y-28079676D01*
X223378781Y-27984438D01*
X223378781Y-27746342D01*
X223426400Y-27651104D01*
X223474019Y-27603485D01*
X223569257Y-27555866D01*
X223664495Y-27555866D01*
X223807352Y-27603485D01*
X224378781Y-28174914D01*
X224378781Y-27555866D01*
X223378781Y-27270152D02*
X224378781Y-26936819D01*
X223378781Y-26603485D01*
X217749381Y-34528047D02*
X217749381Y-35099476D01*
X217749381Y-34813762D02*
X216749381Y-34813762D01*
X216892238Y-34909000D01*
X216987476Y-35004238D01*
X217035095Y-35099476D01*
X216844619Y-34147095D02*
X216797000Y-34099476D01*
X216749381Y-34004238D01*
X216749381Y-33766142D01*
X216797000Y-33670904D01*
X216844619Y-33623285D01*
X216939857Y-33575666D01*
X217035095Y-33575666D01*
X217177952Y-33623285D01*
X217749381Y-34194714D01*
X217749381Y-33575666D01*
X216749381Y-33289952D02*
X217749381Y-32956619D01*
X216749381Y-32623285D01*
X214955381Y-34575476D02*
X214955381Y-35146905D01*
X214955381Y-34861191D02*
X213955381Y-34861191D01*
X214098238Y-34956429D01*
X214193476Y-35051667D01*
X214241095Y-35146905D01*
X214050619Y-34194524D02*
X214003000Y-34146905D01*
X213955381Y-34051667D01*
X213955381Y-33813571D01*
X214003000Y-33718333D01*
X214050619Y-33670714D01*
X214145857Y-33623095D01*
X214241095Y-33623095D01*
X214383952Y-33670714D01*
X214955381Y-34242143D01*
X214955381Y-33623095D01*
X213955381Y-33337381D02*
X214955381Y-33004048D01*
X213955381Y-32670714D01*
X214955381Y-31575476D02*
X214288714Y-31575476D01*
X214479190Y-31575476D02*
X214383952Y-31527857D01*
X214336333Y-31480238D01*
X214288714Y-31385000D01*
X214288714Y-31289761D01*
X214907762Y-30575475D02*
X214955381Y-30670713D01*
X214955381Y-30861190D01*
X214907762Y-30956428D01*
X214812524Y-31004047D01*
X214431571Y-31004047D01*
X214336333Y-30956428D01*
X214288714Y-30861190D01*
X214288714Y-30670713D01*
X214336333Y-30575475D01*
X214431571Y-30527856D01*
X214526810Y-30527856D01*
X214622048Y-31004047D01*
X214288714Y-29670713D02*
X215098238Y-29670713D01*
X215193476Y-29718332D01*
X215241095Y-29765951D01*
X215288714Y-29861190D01*
X215288714Y-30004047D01*
X215241095Y-30099285D01*
X214907762Y-29670713D02*
X214955381Y-29765951D01*
X214955381Y-29956428D01*
X214907762Y-30051666D01*
X214860143Y-30099285D01*
X214764905Y-30146904D01*
X214479190Y-30146904D01*
X214383952Y-30099285D01*
X214336333Y-30051666D01*
X214288714Y-29956428D01*
X214288714Y-29765951D01*
X214336333Y-29670713D01*
X211494714Y-34853476D02*
X212304238Y-34853476D01*
X212399476Y-34901095D01*
X212447095Y-34948714D01*
X212494714Y-35043953D01*
X212494714Y-35186810D01*
X212447095Y-35282048D01*
X212113762Y-34853476D02*
X212161381Y-34948714D01*
X212161381Y-35139191D01*
X212113762Y-35234429D01*
X212066143Y-35282048D01*
X211970905Y-35329667D01*
X211685190Y-35329667D01*
X211589952Y-35282048D01*
X211542333Y-35234429D01*
X211494714Y-35139191D01*
X211494714Y-34948714D01*
X211542333Y-34853476D01*
X211494714Y-34377286D02*
X212161381Y-34377286D01*
X211589952Y-34377286D02*
X211542333Y-34329667D01*
X211494714Y-34234429D01*
X211494714Y-34091571D01*
X211542333Y-33996333D01*
X211637571Y-33948714D01*
X212161381Y-33948714D01*
X212161381Y-33043952D02*
X211161381Y-33043952D01*
X212113762Y-33043952D02*
X212161381Y-33139190D01*
X212161381Y-33329667D01*
X212113762Y-33424905D01*
X212066143Y-33472524D01*
X211970905Y-33520143D01*
X211685190Y-33520143D01*
X211589952Y-33472524D01*
X211542333Y-33424905D01*
X211494714Y-33329667D01*
X211494714Y-33139190D01*
X211542333Y-33043952D01*
X155519381Y-99856847D02*
X155519381Y-100428276D01*
X155519381Y-100142562D02*
X154519381Y-100142562D01*
X154662238Y-100237800D01*
X154757476Y-100333038D01*
X154805095Y-100428276D01*
X154614619Y-99475895D02*
X154567000Y-99428276D01*
X154519381Y-99333038D01*
X154519381Y-99094942D01*
X154567000Y-98999704D01*
X154614619Y-98952085D01*
X154709857Y-98904466D01*
X154805095Y-98904466D01*
X154947952Y-98952085D01*
X155519381Y-99523514D01*
X155519381Y-98904466D01*
X154519381Y-98618752D02*
X155519381Y-98285419D01*
X154519381Y-97952085D01*
D13*
X141257668Y-24446667D02*
X141257668Y-23980000D01*
X141257668Y-24046667D02*
X141291001Y-24013333D01*
X141357668Y-23980000D01*
X141457668Y-23980000D01*
X141524334Y-24013333D01*
X141557668Y-24080000D01*
X141557668Y-24446667D01*
X141557668Y-24080000D02*
X141591001Y-24013333D01*
X141657668Y-23980000D01*
X141757668Y-23980000D01*
X141824334Y-24013333D01*
X141857668Y-24080000D01*
X141857668Y-24446667D01*
X142291001Y-24446667D02*
X142224334Y-24413333D01*
X142191001Y-24380000D01*
X142157667Y-24313333D01*
X142157667Y-24113333D01*
X142191001Y-24046667D01*
X142224334Y-24013333D01*
X142291001Y-23980000D01*
X142391001Y-23980000D01*
X142457667Y-24013333D01*
X142491001Y-24046667D01*
X142524334Y-24113333D01*
X142524334Y-24313333D01*
X142491001Y-24380000D01*
X142457667Y-24413333D01*
X142391001Y-24446667D01*
X142291001Y-24446667D01*
X142824334Y-23980000D02*
X142824334Y-24580000D01*
X142791000Y-24646667D01*
X142724334Y-24680000D01*
X142691000Y-24680000D01*
X142824334Y-23746667D02*
X142791000Y-23780000D01*
X142824334Y-23813333D01*
X142857667Y-23780000D01*
X142824334Y-23746667D01*
X142824334Y-23813333D01*
X143624333Y-23746667D02*
X144091000Y-23746667D01*
X143624333Y-24446667D01*
X144091000Y-24446667D01*
X144657667Y-24446667D02*
X144657667Y-24080000D01*
X144624333Y-24013333D01*
X144557667Y-23980000D01*
X144424333Y-23980000D01*
X144357667Y-24013333D01*
X144657667Y-24413333D02*
X144591000Y-24446667D01*
X144424333Y-24446667D01*
X144357667Y-24413333D01*
X144324333Y-24346667D01*
X144324333Y-24280000D01*
X144357667Y-24213333D01*
X144424333Y-24180000D01*
X144591000Y-24180000D01*
X144657667Y-24146667D01*
X144991000Y-23980000D02*
X144991000Y-24580000D01*
X144957666Y-24646667D01*
X144891000Y-24680000D01*
X144857666Y-24680000D01*
X144991000Y-23746667D02*
X144957666Y-23780000D01*
X144991000Y-23813333D01*
X145024333Y-23780000D01*
X144991000Y-23746667D01*
X144991000Y-23813333D01*
X145324333Y-24446667D02*
X145324333Y-23746667D01*
X145390999Y-24180000D02*
X145590999Y-24446667D01*
X145590999Y-23980000D02*
X145324333Y-24246667D01*
X145991000Y-24446667D02*
X145924333Y-24413333D01*
X145891000Y-24380000D01*
X145857666Y-24313333D01*
X145857666Y-24113333D01*
X145891000Y-24046667D01*
X145924333Y-24013333D01*
X145991000Y-23980000D01*
X146091000Y-23980000D01*
X146157666Y-24013333D01*
X146191000Y-24046667D01*
X146224333Y-24113333D01*
X146224333Y-24313333D01*
X146191000Y-24380000D01*
X146157666Y-24413333D01*
X146091000Y-24446667D01*
X145991000Y-24446667D01*
X146524333Y-24380000D02*
X146557666Y-24413333D01*
X146524333Y-24446667D01*
X146490999Y-24413333D01*
X146524333Y-24380000D01*
X146524333Y-24446667D01*
X146524333Y-24180000D02*
X146490999Y-23780000D01*
X146524333Y-23746667D01*
X146557666Y-23780000D01*
X146524333Y-24180000D01*
X146524333Y-23746667D01*
D14*
X196670171Y-41584772D02*
X196670171Y-41013343D01*
X196170171Y-41370486D02*
X197455886Y-41370486D01*
X197598743Y-41299058D01*
X197670171Y-41156200D01*
X197670171Y-41013343D01*
X197670171Y-40513343D02*
X196670171Y-40513343D01*
X196955886Y-40513343D02*
X196813029Y-40441915D01*
X196741600Y-40370486D01*
X196670171Y-40227629D01*
X196670171Y-40084772D01*
X197670171Y-39370486D02*
X197598743Y-39513344D01*
X197527314Y-39584772D01*
X197384457Y-39656201D01*
X196955886Y-39656201D01*
X196813029Y-39584772D01*
X196741600Y-39513344D01*
X196670171Y-39370486D01*
X196670171Y-39156201D01*
X196741600Y-39013344D01*
X196813029Y-38941915D01*
X196955886Y-38870486D01*
X197384457Y-38870486D01*
X197527314Y-38941915D01*
X197598743Y-39013344D01*
X197670171Y-39156201D01*
X197670171Y-39370486D01*
X196670171Y-38227629D02*
X197670171Y-38227629D01*
X196813029Y-38227629D02*
X196741600Y-38156201D01*
X196670171Y-38013343D01*
X196670171Y-37799058D01*
X196741600Y-37656201D01*
X196884457Y-37584772D01*
X197670171Y-37584772D01*
X197670171Y-36870486D02*
X196670171Y-36870486D01*
X196170171Y-36870486D02*
X196241600Y-36941915D01*
X196313029Y-36870486D01*
X196241600Y-36799058D01*
X196170171Y-36870486D01*
X196313029Y-36870486D01*
X197598743Y-35513343D02*
X197670171Y-35656200D01*
X197670171Y-35941914D01*
X197598743Y-36084772D01*
X197527314Y-36156200D01*
X197384457Y-36227629D01*
X196955886Y-36227629D01*
X196813029Y-36156200D01*
X196741600Y-36084772D01*
X196670171Y-35941914D01*
X196670171Y-35656200D01*
X196741600Y-35513343D01*
X197527314Y-34870486D02*
X197598743Y-34799058D01*
X197670171Y-34870486D01*
X197598743Y-34941915D01*
X197527314Y-34870486D01*
X197670171Y-34870486D01*
X197598743Y-34227629D02*
X197670171Y-34084772D01*
X197670171Y-33799057D01*
X197598743Y-33656200D01*
X197455886Y-33584772D01*
X197384457Y-33584772D01*
X197241600Y-33656200D01*
X197170171Y-33799057D01*
X197170171Y-34013343D01*
X197098743Y-34156200D01*
X196955886Y-34227629D01*
X196884457Y-34227629D01*
X196741600Y-34156200D01*
X196670171Y-34013343D01*
X196670171Y-33799057D01*
X196741600Y-33656200D01*
X197670171Y-32941914D02*
X196170171Y-32941914D01*
X197098743Y-32799057D02*
X197670171Y-32370486D01*
X196670171Y-32370486D02*
X197241600Y-32941914D01*
X199170171Y-47727628D02*
X200670171Y-47727628D01*
X199241600Y-47727628D02*
X199170171Y-47584771D01*
X199170171Y-47299057D01*
X199241600Y-47156200D01*
X199313029Y-47084771D01*
X199455886Y-47013342D01*
X199884457Y-47013342D01*
X200027314Y-47084771D01*
X200098743Y-47156200D01*
X200170171Y-47299057D01*
X200170171Y-47584771D01*
X200098743Y-47727628D01*
X200170171Y-46156199D02*
X200098743Y-46299057D01*
X200027314Y-46370485D01*
X199884457Y-46441914D01*
X199455886Y-46441914D01*
X199313029Y-46370485D01*
X199241600Y-46299057D01*
X199170171Y-46156199D01*
X199170171Y-45941914D01*
X199241600Y-45799057D01*
X199313029Y-45727628D01*
X199455886Y-45656199D01*
X199884457Y-45656199D01*
X200027314Y-45727628D01*
X200098743Y-45799057D01*
X200170171Y-45941914D01*
X200170171Y-46156199D01*
X199170171Y-45156199D02*
X200170171Y-44870485D01*
X199455886Y-44584771D01*
X200170171Y-44299056D01*
X199170171Y-44013342D01*
X200098743Y-42870485D02*
X200170171Y-43013342D01*
X200170171Y-43299056D01*
X200098743Y-43441913D01*
X199955886Y-43513342D01*
X199384457Y-43513342D01*
X199241600Y-43441913D01*
X199170171Y-43299056D01*
X199170171Y-43013342D01*
X199241600Y-42870485D01*
X199384457Y-42799056D01*
X199527314Y-42799056D01*
X199670171Y-43513342D01*
X200170171Y-42156199D02*
X199170171Y-42156199D01*
X199455886Y-42156199D02*
X199313029Y-42084771D01*
X199241600Y-42013342D01*
X199170171Y-41870485D01*
X199170171Y-41727628D01*
X200098743Y-40156200D02*
X200170171Y-40013343D01*
X200170171Y-39727628D01*
X200098743Y-39584771D01*
X199955886Y-39513343D01*
X199884457Y-39513343D01*
X199741600Y-39584771D01*
X199670171Y-39727628D01*
X199670171Y-39941914D01*
X199598743Y-40084771D01*
X199455886Y-40156200D01*
X199384457Y-40156200D01*
X199241600Y-40084771D01*
X199170171Y-39941914D01*
X199170171Y-39727628D01*
X199241600Y-39584771D01*
X200170171Y-38656199D02*
X200098743Y-38799057D01*
X200027314Y-38870485D01*
X199884457Y-38941914D01*
X199455886Y-38941914D01*
X199313029Y-38870485D01*
X199241600Y-38799057D01*
X199170171Y-38656199D01*
X199170171Y-38441914D01*
X199241600Y-38299057D01*
X199313029Y-38227628D01*
X199455886Y-38156199D01*
X199884457Y-38156199D01*
X200027314Y-38227628D01*
X200098743Y-38299057D01*
X200170171Y-38441914D01*
X200170171Y-38656199D01*
X199170171Y-36870485D02*
X200170171Y-36870485D01*
X199170171Y-37513342D02*
X199955886Y-37513342D01*
X200098743Y-37441914D01*
X200170171Y-37299056D01*
X200170171Y-37084771D01*
X200098743Y-36941914D01*
X200027314Y-36870485D01*
X200170171Y-36156199D02*
X199170171Y-36156199D01*
X199455886Y-36156199D02*
X199313029Y-36084771D01*
X199241600Y-36013342D01*
X199170171Y-35870485D01*
X199170171Y-35727628D01*
X200098743Y-34584771D02*
X200170171Y-34727628D01*
X200170171Y-35013342D01*
X200098743Y-35156200D01*
X200027314Y-35227628D01*
X199884457Y-35299057D01*
X199455886Y-35299057D01*
X199313029Y-35227628D01*
X199241600Y-35156200D01*
X199170171Y-35013342D01*
X199170171Y-34727628D01*
X199241600Y-34584771D01*
X200098743Y-33370486D02*
X200170171Y-33513343D01*
X200170171Y-33799057D01*
X200098743Y-33941914D01*
X199955886Y-34013343D01*
X199384457Y-34013343D01*
X199241600Y-33941914D01*
X199170171Y-33799057D01*
X199170171Y-33513343D01*
X199241600Y-33370486D01*
X199384457Y-33299057D01*
X199527314Y-33299057D01*
X199670171Y-34013343D01*
X200098743Y-31584772D02*
X200170171Y-31441915D01*
X200170171Y-31156200D01*
X200098743Y-31013343D01*
X199955886Y-30941915D01*
X199884457Y-30941915D01*
X199741600Y-31013343D01*
X199670171Y-31156200D01*
X199670171Y-31370486D01*
X199598743Y-31513343D01*
X199455886Y-31584772D01*
X199384457Y-31584772D01*
X199241600Y-31513343D01*
X199170171Y-31370486D01*
X199170171Y-31156200D01*
X199241600Y-31013343D01*
X200170171Y-30299057D02*
X199170171Y-30299057D01*
X199313029Y-30299057D02*
X199241600Y-30227629D01*
X199170171Y-30084771D01*
X199170171Y-29870486D01*
X199241600Y-29727629D01*
X199384457Y-29656200D01*
X200170171Y-29656200D01*
X199384457Y-29656200D02*
X199241600Y-29584771D01*
X199170171Y-29441914D01*
X199170171Y-29227629D01*
X199241600Y-29084771D01*
X199384457Y-29013343D01*
X200170171Y-29013343D01*
X200170171Y-27656200D02*
X199384457Y-27656200D01*
X199241600Y-27727629D01*
X199170171Y-27870486D01*
X199170171Y-28156200D01*
X199241600Y-28299057D01*
X200098743Y-27656200D02*
X200170171Y-27799057D01*
X200170171Y-28156200D01*
X200098743Y-28299057D01*
X199955886Y-28370486D01*
X199813029Y-28370486D01*
X199670171Y-28299057D01*
X199598743Y-28156200D01*
X199598743Y-27799057D01*
X199527314Y-27656200D01*
X200170171Y-26727628D02*
X200098743Y-26870486D01*
X199955886Y-26941914D01*
X198670171Y-26941914D01*
X200170171Y-25941914D02*
X200098743Y-26084772D01*
X199955886Y-26156200D01*
X198670171Y-26156200D01*
X201670171Y-43906198D02*
X202670171Y-43549055D01*
X201670171Y-43191913D01*
X202670171Y-41834770D02*
X202670171Y-42691913D01*
X202670171Y-42263341D02*
X201170171Y-42263341D01*
X201384457Y-42406198D01*
X201527314Y-42549056D01*
X201598743Y-42691913D01*
X202527314Y-41191913D02*
X202598743Y-41120485D01*
X202670171Y-41191913D01*
X202598743Y-41263342D01*
X202527314Y-41191913D01*
X202670171Y-41191913D01*
X201170171Y-39763341D02*
X201170171Y-40477627D01*
X201884457Y-40549056D01*
X201813029Y-40477627D01*
X201741600Y-40334770D01*
X201741600Y-39977627D01*
X201813029Y-39834770D01*
X201884457Y-39763341D01*
X202027314Y-39691913D01*
X202384457Y-39691913D01*
X202527314Y-39763341D01*
X202598743Y-39834770D01*
X202670171Y-39977627D01*
X202670171Y-40334770D01*
X202598743Y-40477627D01*
X202527314Y-40549056D01*
X202670171Y-37120485D02*
X202670171Y-37977628D01*
X202670171Y-37549056D02*
X201170171Y-37549056D01*
X201384457Y-37691913D01*
X201527314Y-37834771D01*
X201598743Y-37977628D01*
X202670171Y-36406200D02*
X202670171Y-36120485D01*
X202598743Y-35977628D01*
X202527314Y-35906200D01*
X202313029Y-35763342D01*
X202027314Y-35691914D01*
X201455886Y-35691914D01*
X201313029Y-35763342D01*
X201241600Y-35834771D01*
X201170171Y-35977628D01*
X201170171Y-36263342D01*
X201241600Y-36406200D01*
X201313029Y-36477628D01*
X201455886Y-36549057D01*
X201813029Y-36549057D01*
X201955886Y-36477628D01*
X202027314Y-36406200D01*
X202098743Y-36263342D01*
X202098743Y-35977628D01*
X202027314Y-35834771D01*
X201955886Y-35763342D01*
X201813029Y-35691914D01*
X202670171Y-34263343D02*
X202670171Y-35120486D01*
X202670171Y-34691914D02*
X201170171Y-34691914D01*
X201384457Y-34834771D01*
X201527314Y-34977629D01*
X201598743Y-35120486D01*
X201170171Y-33334772D02*
X201170171Y-33191915D01*
X201241600Y-33049058D01*
X201313029Y-32977629D01*
X201455886Y-32906200D01*
X201741600Y-32834772D01*
X202098743Y-32834772D01*
X202384457Y-32906200D01*
X202527314Y-32977629D01*
X202598743Y-33049058D01*
X202670171Y-33191915D01*
X202670171Y-33334772D01*
X202598743Y-33477629D01*
X202527314Y-33549058D01*
X202384457Y-33620486D01*
X202098743Y-33691915D01*
X201741600Y-33691915D01*
X201455886Y-33620486D01*
X201313029Y-33549058D01*
X201241600Y-33477629D01*
X201170171Y-33334772D01*
X201313029Y-32263344D02*
X201241600Y-32191915D01*
X201170171Y-32049058D01*
X201170171Y-31691915D01*
X201241600Y-31549058D01*
X201313029Y-31477629D01*
X201455886Y-31406201D01*
X201598743Y-31406201D01*
X201813029Y-31477629D01*
X202670171Y-32334772D01*
X202670171Y-31406201D01*
X201170171Y-30120487D02*
X201170171Y-30406201D01*
X201241600Y-30549058D01*
X201313029Y-30620487D01*
X201527314Y-30763344D01*
X201813029Y-30834773D01*
X202384457Y-30834773D01*
X202527314Y-30763344D01*
X202598743Y-30691916D01*
X202670171Y-30549058D01*
X202670171Y-30263344D01*
X202598743Y-30120487D01*
X202527314Y-30049058D01*
X202384457Y-29977630D01*
X202027314Y-29977630D01*
X201884457Y-30049058D01*
X201813029Y-30120487D01*
X201741600Y-30263344D01*
X201741600Y-30549058D01*
X201813029Y-30691916D01*
X201884457Y-30763344D01*
X202027314Y-30834773D01*
D15*
X216100000Y-43164000D02*
X216100000Y-41164000D01*
X218240000Y-41164000D02*
X218240000Y-43164000D01*
X218550800Y-39074400D02*
X218550800Y-36414400D01*
X213410800Y-39074400D02*
X218550800Y-39074400D01*
X213410800Y-36414400D02*
X218550800Y-36414400D01*
X213410800Y-39074400D02*
X213410800Y-36414400D01*
X212140800Y-39074400D02*
X210810800Y-39074400D01*
X210810800Y-39074400D02*
X210810800Y-37744400D01*
D16*
X160832800Y-115620800D02*
X154482800Y-115620800D01*
X176072800Y-115620800D02*
X161848800Y-115620800D01*
X191312800Y-115620800D02*
X177088800Y-115620800D01*
D15*
X223085000Y-43164000D02*
X223085000Y-41164000D01*
X225225000Y-41164000D02*
X225225000Y-43164000D01*
X220081800Y-23358800D02*
X220081800Y-26018800D01*
X222681800Y-23358800D02*
X220081800Y-23358800D01*
X222681800Y-26018800D02*
X220081800Y-26018800D01*
X222681800Y-23358800D02*
X222681800Y-26018800D01*
X223951800Y-23358800D02*
X225281800Y-23358800D01*
X225281800Y-23358800D02*
X225281800Y-24688800D01*
D16*
X183510324Y-116422514D02*
X183510324Y-117232038D01*
X183462705Y-117327276D01*
X183415086Y-117374895D01*
X183319847Y-117422514D01*
X183176990Y-117422514D01*
X183081752Y-117374895D01*
X183510324Y-117041562D02*
X183415086Y-117089181D01*
X183224609Y-117089181D01*
X183129371Y-117041562D01*
X183081752Y-116993943D01*
X183034133Y-116898705D01*
X183034133Y-116612990D01*
X183081752Y-116517752D01*
X183129371Y-116470133D01*
X183224609Y-116422514D01*
X183415086Y-116422514D01*
X183510324Y-116470133D01*
X183986514Y-116422514D02*
X183986514Y-117089181D01*
X183986514Y-116517752D02*
X184034133Y-116470133D01*
X184129371Y-116422514D01*
X184272229Y-116422514D01*
X184367467Y-116470133D01*
X184415086Y-116565371D01*
X184415086Y-117089181D01*
X185319848Y-117089181D02*
X185319848Y-116089181D01*
X185319848Y-117041562D02*
X185224610Y-117089181D01*
X185034133Y-117089181D01*
X184938895Y-117041562D01*
X184891276Y-116993943D01*
X184843657Y-116898705D01*
X184843657Y-116612990D01*
X184891276Y-116517752D01*
X184938895Y-116470133D01*
X185034133Y-116422514D01*
X185224610Y-116422514D01*
X185319848Y-116470133D01*
X168595753Y-117089181D02*
X168024324Y-117089181D01*
X168310038Y-117089181D02*
X168310038Y-116089181D01*
X168214800Y-116232038D01*
X168119562Y-116327276D01*
X168024324Y-116374895D01*
X168976705Y-116184419D02*
X169024324Y-116136800D01*
X169119562Y-116089181D01*
X169357658Y-116089181D01*
X169452896Y-116136800D01*
X169500515Y-116184419D01*
X169548134Y-116279657D01*
X169548134Y-116374895D01*
X169500515Y-116517752D01*
X168929086Y-117089181D01*
X169548134Y-117089181D01*
X169833848Y-116089181D02*
X170167181Y-117089181D01*
X170500515Y-116089181D01*
X156578419Y-116835181D02*
X156578419Y-116168514D01*
X156578419Y-116358990D02*
X156626038Y-116263752D01*
X156673657Y-116216133D01*
X156768895Y-116168514D01*
X156864134Y-116168514D01*
X157578420Y-116787562D02*
X157483182Y-116835181D01*
X157292705Y-116835181D01*
X157197467Y-116787562D01*
X157149848Y-116692324D01*
X157149848Y-116311371D01*
X157197467Y-116216133D01*
X157292705Y-116168514D01*
X157483182Y-116168514D01*
X157578420Y-116216133D01*
X157626039Y-116311371D01*
X157626039Y-116406610D01*
X157149848Y-116501848D01*
X158483182Y-116168514D02*
X158483182Y-116978038D01*
X158435563Y-117073276D01*
X158387944Y-117120895D01*
X158292705Y-117168514D01*
X158149848Y-117168514D01*
X158054610Y-117120895D01*
X158483182Y-116787562D02*
X158387944Y-116835181D01*
X158197467Y-116835181D01*
X158102229Y-116787562D01*
X158054610Y-116739943D01*
X158006991Y-116644705D01*
X158006991Y-116358990D01*
X158054610Y-116263752D01*
X158102229Y-116216133D01*
X158197467Y-116168514D01*
X158387944Y-116168514D01*
X158483182Y-116216133D01*
M02*
