G04 #@! TF.FileFunction,Legend,Bot*
%FSLAX46Y46*%
G04 Gerber Fmt 4.6, Leading zero omitted, Abs format (unit mm)*
G04 Created by KiCad (PCBNEW 4.0.7) date 10/27/19 12:55:04*
%MOMM*%
%LPD*%
G01*
G04 APERTURE LIST*
%ADD10C,0.100000*%
%ADD11C,0.150000*%
G04 APERTURE END LIST*
D10*
D11*
X201955400Y-102082600D02*
X201955400Y-61239400D01*
X220751400Y-102082600D02*
X220751400Y-61239400D01*
X216890600Y-103149400D02*
X216890600Y-102082600D01*
X205816200Y-103098600D02*
X205816200Y-102082600D01*
X220751400Y-120624600D02*
X201955400Y-120624600D01*
X220751400Y-61239400D02*
X201955400Y-61239400D01*
X219075000Y-120624600D02*
X211353400Y-120624600D01*
X216890600Y-113157000D02*
X205816200Y-113157000D01*
X205816200Y-102082600D02*
X201955400Y-102082600D01*
X216890600Y-113157000D02*
X216890600Y-103149400D01*
X216890600Y-102082600D02*
X220751400Y-102082600D01*
X205816200Y-113157000D02*
X205816200Y-103098600D01*
X160832800Y-106832400D02*
X154482800Y-106832400D01*
X176072800Y-106832400D02*
X161848800Y-106832400D01*
X191312800Y-106832400D02*
X177088800Y-106832400D01*
X159537400Y-32004000D02*
X160299400Y-31178500D01*
X160299400Y-31178500D02*
X179222400Y-31178500D01*
X180873400Y-31940500D02*
X180111400Y-31178500D01*
X180111400Y-31178500D02*
X179031900Y-31178500D01*
X157505400Y-39560500D02*
X157505400Y-42799000D01*
X157505400Y-42799000D02*
X157505400Y-43053000D01*
X157505400Y-43053000D02*
X146075400Y-43053000D01*
X146075400Y-43053000D02*
X146075400Y-77343000D01*
X146075400Y-77343000D02*
X157759400Y-77343000D01*
X157759400Y-77343000D02*
X157759400Y-86677500D01*
X157759400Y-86677500D02*
X165315900Y-86677500D01*
X157505400Y-39560500D02*
X157505400Y-33464500D01*
X157505400Y-33464500D02*
X158076900Y-33464500D01*
X182841900Y-80708500D02*
X182841900Y-77597000D01*
X182841900Y-77597000D02*
X182841900Y-77470000D01*
X182841900Y-77470000D02*
X194335400Y-77470000D01*
X194335400Y-77470000D02*
X194335400Y-43243500D01*
X182841900Y-85280500D02*
X180174900Y-85280500D01*
X182841900Y-80708500D02*
X182841900Y-85280500D01*
X182905400Y-39751000D02*
X182905400Y-42862500D01*
X182905400Y-42862500D02*
X182905400Y-43243500D01*
X182905400Y-43243500D02*
X194335400Y-43243500D01*
X182905400Y-39751000D02*
X182905400Y-33401000D01*
X182905400Y-33401000D02*
X182333900Y-33401000D01*
X159600900Y-31940500D02*
X158076900Y-33464500D01*
X180873400Y-31940500D02*
X182333900Y-33401000D01*
X165315900Y-85280500D02*
X165315900Y-85598000D01*
X165506400Y-85280500D02*
X165315900Y-85280500D01*
X165315900Y-86677500D02*
X160172400Y-86677500D01*
X165442900Y-85280500D02*
X169506900Y-85280500D01*
X169506900Y-85280500D02*
X180174900Y-85280500D01*
X165315900Y-85344000D02*
X165315900Y-86677500D01*
X213091495Y-116927381D02*
X213091495Y-117736905D01*
X213043876Y-117832143D01*
X212996257Y-117879762D01*
X212901019Y-117927381D01*
X212710542Y-117927381D01*
X212615304Y-117879762D01*
X212567685Y-117832143D01*
X212520066Y-117736905D01*
X212520066Y-116927381D01*
X212091495Y-117879762D02*
X211948638Y-117927381D01*
X211710542Y-117927381D01*
X211615304Y-117879762D01*
X211567685Y-117832143D01*
X211520066Y-117736905D01*
X211520066Y-117641667D01*
X211567685Y-117546429D01*
X211615304Y-117498810D01*
X211710542Y-117451190D01*
X211901019Y-117403571D01*
X211996257Y-117355952D01*
X212043876Y-117308333D01*
X212091495Y-117213095D01*
X212091495Y-117117857D01*
X212043876Y-117022619D01*
X211996257Y-116975000D01*
X211901019Y-116927381D01*
X211662923Y-116927381D01*
X211520066Y-116975000D01*
X210758161Y-117403571D02*
X210615304Y-117451190D01*
X210567685Y-117498810D01*
X210520066Y-117594048D01*
X210520066Y-117736905D01*
X210567685Y-117832143D01*
X210615304Y-117879762D01*
X210710542Y-117927381D01*
X211091495Y-117927381D01*
X211091495Y-116927381D01*
X210758161Y-116927381D01*
X210662923Y-116975000D01*
X210615304Y-117022619D01*
X210567685Y-117117857D01*
X210567685Y-117213095D01*
X210615304Y-117308333D01*
X210662923Y-117355952D01*
X210758161Y-117403571D01*
X211091495Y-117403571D01*
X209567685Y-117927381D02*
X210139114Y-117927381D01*
X209853400Y-117927381D02*
X209853400Y-116927381D01*
X209948638Y-117070238D01*
X210043876Y-117165476D01*
X210139114Y-117213095D01*
X213877210Y-114195362D02*
X213877210Y-115814410D01*
X213781971Y-116004886D01*
X213686733Y-116100124D01*
X213496257Y-116195362D01*
X213115305Y-116195362D01*
X212924829Y-116100124D01*
X212829590Y-116004886D01*
X212734352Y-115814410D01*
X212734352Y-114195362D01*
X211877210Y-116100124D02*
X211591495Y-116195362D01*
X211115305Y-116195362D01*
X210924829Y-116100124D01*
X210829591Y-116004886D01*
X210734352Y-115814410D01*
X210734352Y-115623933D01*
X210829591Y-115433457D01*
X210924829Y-115338219D01*
X211115305Y-115242981D01*
X211496257Y-115147743D01*
X211686733Y-115052505D01*
X211781972Y-114957267D01*
X211877210Y-114766790D01*
X211877210Y-114576314D01*
X211781972Y-114385838D01*
X211686733Y-114290600D01*
X211496257Y-114195362D01*
X211020067Y-114195362D01*
X210734352Y-114290600D01*
X209210543Y-115147743D02*
X208924829Y-115242981D01*
X208829590Y-115338219D01*
X208734352Y-115528695D01*
X208734352Y-115814410D01*
X208829590Y-116004886D01*
X208924829Y-116100124D01*
X209115305Y-116195362D01*
X209877210Y-116195362D01*
X209877210Y-114195362D01*
X209210543Y-114195362D01*
X209020067Y-114290600D01*
X208924829Y-114385838D01*
X208829590Y-114576314D01*
X208829590Y-114766790D01*
X208924829Y-114957267D01*
X209020067Y-115052505D01*
X209210543Y-115147743D01*
X209877210Y-115147743D01*
X161586515Y-117540114D02*
X161205563Y-117540114D01*
X161443658Y-118206781D02*
X161443658Y-117349638D01*
X161396039Y-117254400D01*
X161300801Y-117206781D01*
X161205563Y-117206781D01*
X160872229Y-118206781D02*
X160872229Y-117540114D01*
X160872229Y-117730590D02*
X160824610Y-117635352D01*
X160776991Y-117587733D01*
X160681753Y-117540114D01*
X160586514Y-117540114D01*
X160110324Y-118206781D02*
X160205562Y-118159162D01*
X160253181Y-118111543D01*
X160300800Y-118016305D01*
X160300800Y-117730590D01*
X160253181Y-117635352D01*
X160205562Y-117587733D01*
X160110324Y-117540114D01*
X159967466Y-117540114D01*
X159872228Y-117587733D01*
X159824609Y-117635352D01*
X159776990Y-117730590D01*
X159776990Y-118016305D01*
X159824609Y-118111543D01*
X159872228Y-118159162D01*
X159967466Y-118206781D01*
X160110324Y-118206781D01*
X159348419Y-117540114D02*
X159348419Y-118206781D01*
X159348419Y-117635352D02*
X159300800Y-117587733D01*
X159205562Y-117540114D01*
X159062704Y-117540114D01*
X158967466Y-117587733D01*
X158919847Y-117682971D01*
X158919847Y-118206781D01*
X158586514Y-117540114D02*
X158205562Y-117540114D01*
X158443657Y-117206781D02*
X158443657Y-118063924D01*
X158396038Y-118159162D01*
X158300800Y-118206781D01*
X158205562Y-118206781D01*
X157872228Y-117825829D02*
X157110323Y-117825829D01*
X156681752Y-117302019D02*
X156634133Y-117254400D01*
X156538895Y-117206781D01*
X156300799Y-117206781D01*
X156205561Y-117254400D01*
X156157942Y-117302019D01*
X156110323Y-117397257D01*
X156110323Y-117492495D01*
X156157942Y-117635352D01*
X156729371Y-118206781D01*
X156110323Y-118206781D01*
X184891276Y-105602114D02*
X184891276Y-106411638D01*
X184938895Y-106506876D01*
X184986514Y-106554495D01*
X185081753Y-106602114D01*
X185224610Y-106602114D01*
X185319848Y-106554495D01*
X184891276Y-106221162D02*
X184986514Y-106268781D01*
X185176991Y-106268781D01*
X185272229Y-106221162D01*
X185319848Y-106173543D01*
X185367467Y-106078305D01*
X185367467Y-105792590D01*
X185319848Y-105697352D01*
X185272229Y-105649733D01*
X185176991Y-105602114D01*
X184986514Y-105602114D01*
X184891276Y-105649733D01*
X184415086Y-105602114D02*
X184415086Y-106268781D01*
X184415086Y-105697352D02*
X184367467Y-105649733D01*
X184272229Y-105602114D01*
X184129371Y-105602114D01*
X184034133Y-105649733D01*
X183986514Y-105744971D01*
X183986514Y-106268781D01*
X183081752Y-106268781D02*
X183081752Y-105268781D01*
X183081752Y-106221162D02*
X183176990Y-106268781D01*
X183367467Y-106268781D01*
X183462705Y-106221162D01*
X183510324Y-106173543D01*
X183557943Y-106078305D01*
X183557943Y-105792590D01*
X183510324Y-105697352D01*
X183462705Y-105649733D01*
X183367467Y-105602114D01*
X183176990Y-105602114D01*
X183081752Y-105649733D01*
X169833847Y-106268781D02*
X170405276Y-106268781D01*
X170119562Y-106268781D02*
X170119562Y-105268781D01*
X170214800Y-105411638D01*
X170310038Y-105506876D01*
X170405276Y-105554495D01*
X169452895Y-105364019D02*
X169405276Y-105316400D01*
X169310038Y-105268781D01*
X169071942Y-105268781D01*
X168976704Y-105316400D01*
X168929085Y-105364019D01*
X168881466Y-105459257D01*
X168881466Y-105554495D01*
X168929085Y-105697352D01*
X169500514Y-106268781D01*
X168881466Y-106268781D01*
X168595752Y-105268781D02*
X168262419Y-106268781D01*
X167929085Y-105268781D01*
X158483181Y-106522781D02*
X158483181Y-105856114D01*
X158483181Y-106046590D02*
X158435562Y-105951352D01*
X158387943Y-105903733D01*
X158292705Y-105856114D01*
X158197466Y-105856114D01*
X157483180Y-106475162D02*
X157578418Y-106522781D01*
X157768895Y-106522781D01*
X157864133Y-106475162D01*
X157911752Y-106379924D01*
X157911752Y-105998971D01*
X157864133Y-105903733D01*
X157768895Y-105856114D01*
X157578418Y-105856114D01*
X157483180Y-105903733D01*
X157435561Y-105998971D01*
X157435561Y-106094210D01*
X157911752Y-106189448D01*
X156578418Y-105856114D02*
X156578418Y-106665638D01*
X156626037Y-106760876D01*
X156673656Y-106808495D01*
X156768895Y-106856114D01*
X156911752Y-106856114D01*
X157006990Y-106808495D01*
X156578418Y-106475162D02*
X156673656Y-106522781D01*
X156864133Y-106522781D01*
X156959371Y-106475162D01*
X157006990Y-106427543D01*
X157054609Y-106332305D01*
X157054609Y-106046590D01*
X157006990Y-105951352D01*
X156959371Y-105903733D01*
X156864133Y-105856114D01*
X156673656Y-105856114D01*
X156578418Y-105903733D01*
M02*
