M48
;DRILL file {KiCad 4.0.7} date 10/27/19 12:55:06
;FORMAT={-:-/ absolute / inch / decimal}
FMAT,2
INCH,TZ
T1C0.016
T2C0.020
T3C0.039
T4C0.079
T5C0.094
T6C0.098
T7C0.126
T8C0.150
T9C0.197
%
G90
G05
M72
T1
X8.327Y-2.124
T2
X6.4905Y-3.845
X6.5182Y-3.7782
X6.5182Y-3.9118
X6.585Y-3.7505
X6.585Y-3.9395
X6.6518Y-3.7782
X6.6518Y-3.9118
X6.6795Y-3.845
X6.7805Y-3.845
X6.8082Y-3.7782
X6.8082Y-3.9118
X6.875Y-3.7505
X6.875Y-3.9395
X6.9418Y-3.7782
X6.9418Y-3.9118
X6.9695Y-3.845
X7.1105Y-3.845
X7.1382Y-3.7782
X7.1382Y-3.9118
X7.205Y-3.7505
X7.205Y-3.9395
X7.2718Y-3.7782
X7.2718Y-3.9118
X7.2995Y-3.845
T3
X8.352Y-1.486
X8.452Y-1.486
X8.552Y-1.486
X8.717Y-0.972
X8.817Y-0.972
T4
X6.407Y-1.178
X6.507Y-1.178
X6.607Y-1.178
X6.801Y-1.178
X6.901Y-1.178
X7.001Y-1.178
T5
X8.231Y-2.295
X8.411Y-2.295
T7
X6.401Y-3.479
X6.585Y-3.845
X6.601Y-3.479
X6.801Y-3.479
X6.875Y-3.845
X7.001Y-3.479
X7.205Y-3.845
T8
X6.181Y-1.222
X7.219Y-1.222
T9
X6.075Y-1.56
X6.075Y-3.18
X7.327Y-1.56
X7.327Y-3.18
T6
X8.065Y-4.1113G85X8.065Y-4.1507
G05
X8.065Y-4.3293G85X8.065Y-4.3687
G05
X8.577Y-4.1113G85X8.577Y-4.1507
G05
X8.577Y-4.3293G85X8.577Y-4.3687
G05
T0
M30
