G04 #@! TF.FileFunction,Copper,L2,Bot,Signal*
%FSLAX46Y46*%
G04 Gerber Fmt 4.6, Leading zero omitted, Abs format (unit mm)*
G04 Created by KiCad (PCBNEW 4.0.7) date 03/24/20 22:25:04*
%MOMM*%
%LPD*%
G01*
G04 APERTURE LIST*
%ADD10C,0.100000*%
%ADD11R,2.500000X2.500000*%
%ADD12R,2.000000X1.700000*%
%ADD13R,5.000000X5.000000*%
%ADD14C,8.000000*%
%ADD15C,0.250000*%
%ADD16C,5.000000*%
%ADD17C,1.000000*%
G04 APERTURE END LIST*
D10*
D11*
X163703000Y-38989000D03*
X171323000Y-38989000D03*
X148463000Y-31369000D03*
X163703000Y-31369000D03*
X156083000Y-38989000D03*
X148463000Y-38989000D03*
X156083000Y-46609000D03*
D12*
X229648000Y-85979000D03*
X233648000Y-85979000D03*
D11*
X171323000Y-31369000D03*
X156083000Y-31369000D03*
X171323000Y-46609000D03*
X163703000Y-46609000D03*
X148463000Y-46609000D03*
D13*
X181483000Y-36449000D03*
X189103000Y-36449000D03*
X204343000Y-36449000D03*
X227203000Y-36449000D03*
X211963000Y-36449000D03*
X196723000Y-36449000D03*
X233553000Y-114554000D03*
X239903000Y-114554000D03*
X246253000Y-114554000D03*
D14*
X239903000Y-105664000D03*
X145288000Y-65659000D03*
D13*
X138938000Y-74549000D03*
X145288000Y-74549000D03*
X151638000Y-74549000D03*
X233553000Y-74549000D03*
X239903000Y-74549000D03*
X246253000Y-74549000D03*
X164338000Y-74549000D03*
X145288000Y-114554000D03*
X151638000Y-114554000D03*
D14*
X239903000Y-65659000D03*
X145288000Y-105664000D03*
D13*
X138938000Y-114554000D03*
D14*
X164338000Y-65659000D03*
X164338000Y-105664000D03*
X258953000Y-105664000D03*
X258953000Y-65659000D03*
D13*
X164338000Y-114554000D03*
X219583000Y-36449000D03*
X258953000Y-74549000D03*
X258953000Y-114554000D03*
D14*
X239903000Y-37084000D03*
X258953000Y-37084000D03*
D13*
X247523000Y-37084000D03*
D15*
X171323000Y-46609000D02*
X177038000Y-46609000D01*
X233553000Y-51689000D02*
X182118000Y-51689000D01*
X239903000Y-58039000D02*
X239903000Y-65659000D01*
X233553000Y-51689000D02*
X239903000Y-58039000D01*
X177038000Y-46609000D02*
X182118000Y-51689000D01*
D16*
X239903000Y-74549000D02*
X239903000Y-65659000D01*
X233553000Y-74549000D02*
X233553000Y-66929000D01*
X233553000Y-66929000D02*
X234823000Y-65659000D01*
X234823000Y-65659000D02*
X239903000Y-65659000D01*
X246253000Y-74549000D02*
X246253000Y-66929000D01*
X246253000Y-66929000D02*
X244983000Y-65659000D01*
X244983000Y-65659000D02*
X239903000Y-65659000D01*
D17*
X239903000Y-105664000D02*
X239903000Y-89154000D01*
X236728000Y-85979000D02*
X233648000Y-85979000D01*
X239903000Y-89154000D02*
X236728000Y-85979000D01*
X163703000Y-46609000D02*
X163703000Y-48514000D01*
X175768000Y-52324000D02*
X178943000Y-55499000D01*
X178943000Y-55499000D02*
X178943000Y-79629000D01*
X229743000Y-85979000D02*
X185293000Y-85979000D01*
X185293000Y-85979000D02*
X178943000Y-79629000D01*
X175133000Y-51689000D02*
X175768000Y-52324000D01*
X166878000Y-51689000D02*
X175133000Y-51689000D01*
X163703000Y-48514000D02*
X166878000Y-51689000D01*
X239903000Y-105664000D02*
X239903000Y-96869000D01*
X239903000Y-96869000D02*
X239998000Y-96774000D01*
X163703000Y-38989000D02*
X171323000Y-38989000D01*
X156083000Y-38989000D02*
X163703000Y-38989000D01*
X148463000Y-38989000D02*
X156083000Y-38989000D01*
X148463000Y-38989000D02*
X148463000Y-39624000D01*
X163703000Y-46609000D02*
X163703000Y-38989000D01*
D16*
X239903000Y-114554000D02*
X239903000Y-105664000D01*
X233553000Y-114554000D02*
X233553000Y-108204000D01*
X233553000Y-108204000D02*
X236093000Y-105664000D01*
X236093000Y-105664000D02*
X239903000Y-105664000D01*
X246253000Y-114554000D02*
X246253000Y-108204000D01*
X246253000Y-108204000D02*
X243713000Y-105664000D01*
X243713000Y-105664000D02*
X239903000Y-105664000D01*
D15*
X148463000Y-46609000D02*
X148463000Y-49149000D01*
X148463000Y-62484000D02*
X145288000Y-65659000D01*
X148463000Y-49149000D02*
X148463000Y-62484000D01*
X145288000Y-62484000D02*
X145288000Y-65659000D01*
D16*
X151638000Y-74549000D02*
X151638000Y-66294000D01*
X151003000Y-65659000D02*
X145288000Y-65659000D01*
X151638000Y-66294000D02*
X151003000Y-65659000D01*
X145288000Y-74549000D02*
X145288000Y-65659000D01*
X138938000Y-74549000D02*
X138938000Y-67564000D01*
X140843000Y-65659000D02*
X145288000Y-65659000D01*
X138938000Y-67564000D02*
X140843000Y-65659000D01*
D15*
X173228000Y-54864000D02*
X162433000Y-54864000D01*
X173228000Y-54864000D02*
X175133000Y-56769000D01*
X145288000Y-105664000D02*
X145288000Y-97409000D01*
X151003000Y-91694000D02*
X145288000Y-97409000D01*
X167513000Y-91694000D02*
X151003000Y-91694000D01*
X175133000Y-84074000D02*
X167513000Y-91694000D01*
X175133000Y-56769000D02*
X175133000Y-80899000D01*
X175133000Y-84074000D02*
X175133000Y-80899000D01*
X156083000Y-48514000D02*
X156083000Y-46609000D01*
X162433000Y-54864000D02*
X156083000Y-48514000D01*
X145669000Y-105664000D02*
X145288000Y-105664000D01*
D16*
X145288000Y-114554000D02*
X145288000Y-105664000D01*
X138938000Y-114554000D02*
X138938000Y-108839000D01*
X138938000Y-108839000D02*
X142113000Y-105664000D01*
X142113000Y-105664000D02*
X145288000Y-105664000D01*
X151638000Y-114554000D02*
X151638000Y-107569000D01*
X149733000Y-105664000D02*
X145288000Y-105664000D01*
X151638000Y-107569000D02*
X149733000Y-105664000D01*
X164338000Y-74549000D02*
X164338000Y-73914000D01*
X164338000Y-73914000D02*
X161163000Y-70739000D01*
X161163000Y-70739000D02*
X161163000Y-65659000D01*
X161163000Y-65659000D02*
X164338000Y-65659000D01*
X164338000Y-74549000D02*
X164973000Y-74549000D01*
X164973000Y-74549000D02*
X168783000Y-70739000D01*
X168783000Y-65659000D02*
X164338000Y-65659000D01*
X168783000Y-70739000D02*
X168783000Y-65659000D01*
X164338000Y-74549000D02*
X164338000Y-65659000D01*
X168783000Y-104394000D02*
X161163000Y-104394000D01*
X161163000Y-104394000D02*
X159893000Y-105664000D01*
X159893000Y-105664000D02*
X167513000Y-105664000D01*
X167513000Y-105664000D02*
X168783000Y-104394000D01*
X164338000Y-114554000D02*
X164338000Y-112649000D01*
X164338000Y-112649000D02*
X158623000Y-106934000D01*
X159893000Y-105664000D02*
X164338000Y-105664000D01*
X158623000Y-104394000D02*
X159893000Y-105664000D01*
X158623000Y-106934000D02*
X158623000Y-104394000D01*
X164338000Y-114554000D02*
X164338000Y-113919000D01*
X164338000Y-113919000D02*
X168783000Y-109474000D01*
X168783000Y-104394000D02*
X167513000Y-105664000D01*
X168783000Y-109474000D02*
X168783000Y-104394000D01*
X167513000Y-105664000D02*
X164338000Y-105664000D01*
X164338000Y-114554000D02*
X164338000Y-105664000D01*
X258953000Y-74549000D02*
X262763000Y-70739000D01*
X262763000Y-70739000D02*
X262763000Y-65659000D01*
X262763000Y-65659000D02*
X258953000Y-65659000D01*
X258953000Y-74549000D02*
X255143000Y-70739000D01*
X255143000Y-70739000D02*
X255143000Y-65659000D01*
X255143000Y-65659000D02*
X258953000Y-65659000D01*
X258953000Y-74549000D02*
X258953000Y-65659000D01*
X258953000Y-114554000D02*
X257683000Y-114554000D01*
X257683000Y-114554000D02*
X255143000Y-112014000D01*
X255143000Y-104394000D02*
X256413000Y-105664000D01*
X255143000Y-112014000D02*
X255143000Y-104394000D01*
X256413000Y-105664000D02*
X258953000Y-105664000D01*
X258953000Y-114554000D02*
X260223000Y-114554000D01*
X260223000Y-114554000D02*
X262763000Y-112014000D01*
X262763000Y-104394000D02*
X261493000Y-105664000D01*
X262763000Y-112014000D02*
X262763000Y-104394000D01*
X261493000Y-105664000D02*
X258953000Y-105664000D01*
X258953000Y-114554000D02*
X258953000Y-105664000D01*
D17*
X246253000Y-37084000D02*
X238633000Y-37084000D01*
X258953000Y-37084000D02*
X258953000Y-30099000D01*
X256413000Y-27559000D02*
X258953000Y-30099000D01*
X227203000Y-27559000D02*
X224663000Y-30099000D01*
X252603000Y-27559000D02*
X227203000Y-27559000D01*
X252603000Y-27559000D02*
X256413000Y-27559000D01*
X171323000Y-31369000D02*
X163703000Y-31369000D01*
X171323000Y-31369000D02*
X182753000Y-31369000D01*
X182753000Y-31369000D02*
X184023000Y-30099000D01*
D16*
X196723000Y-36449000D02*
X196723000Y-40259000D01*
X211963000Y-40259000D02*
X211963000Y-36449000D01*
X209423000Y-42799000D02*
X211963000Y-40259000D01*
X199263000Y-42799000D02*
X209423000Y-42799000D01*
X196723000Y-40259000D02*
X199263000Y-42799000D01*
X223393000Y-30099000D02*
X184023000Y-30099000D01*
X181483000Y-32639000D02*
X181483000Y-36449000D01*
X184023000Y-30099000D02*
X181483000Y-32639000D01*
X211963000Y-36449000D02*
X204343000Y-36449000D01*
D17*
X258953000Y-30734000D02*
X258953000Y-37084000D01*
X224663000Y-30099000D02*
X223393000Y-28829000D01*
X223393000Y-28829000D02*
X223393000Y-30099000D01*
X256413000Y-37084000D02*
X256413000Y-39624000D01*
D16*
X223393000Y-30099000D02*
X224663000Y-30099000D01*
X227203000Y-32639000D02*
X227203000Y-36449000D01*
X224663000Y-30099000D02*
X227203000Y-32639000D01*
X219583000Y-36449000D02*
X227203000Y-36449000D01*
X211963000Y-36449000D02*
X219583000Y-36449000D01*
X196723000Y-36449000D02*
X204343000Y-36449000D01*
X189103000Y-36449000D02*
X196723000Y-36449000D01*
X181483000Y-36449000D02*
X189103000Y-36449000D01*
D15*
X148463000Y-31369000D02*
X156083000Y-31369000D01*
X156083000Y-31369000D02*
X163703000Y-31369000D01*
M02*
