G04 #@! TF.FileFunction,Soldermask,Bot*
%FSLAX46Y46*%
G04 Gerber Fmt 4.6, Leading zero omitted, Abs format (unit mm)*
G04 Created by KiCad (PCBNEW 4.0.7) date 03/24/20 22:25:04*
%MOMM*%
%LPD*%
G01*
G04 APERTURE LIST*
%ADD10C,0.100000*%
%ADD11R,2.900000X2.900000*%
%ADD12R,2.400000X2.100000*%
%ADD13R,5.400000X5.400000*%
%ADD14C,8.400000*%
G04 APERTURE END LIST*
D10*
D11*
X163703000Y-38989000D03*
X171323000Y-38989000D03*
X148463000Y-31369000D03*
X163703000Y-31369000D03*
X156083000Y-38989000D03*
X148463000Y-38989000D03*
X156083000Y-46609000D03*
D12*
X229648000Y-85979000D03*
X233648000Y-85979000D03*
D11*
X171323000Y-31369000D03*
X156083000Y-31369000D03*
X171323000Y-46609000D03*
X163703000Y-46609000D03*
X148463000Y-46609000D03*
D13*
X181483000Y-36449000D03*
X189103000Y-36449000D03*
X204343000Y-36449000D03*
X227203000Y-36449000D03*
X211963000Y-36449000D03*
X196723000Y-36449000D03*
X233553000Y-114554000D03*
X239903000Y-114554000D03*
X246253000Y-114554000D03*
D14*
X239903000Y-105664000D03*
X145288000Y-65659000D03*
D13*
X138938000Y-74549000D03*
X145288000Y-74549000D03*
X151638000Y-74549000D03*
X233553000Y-74549000D03*
X239903000Y-74549000D03*
X246253000Y-74549000D03*
X164338000Y-74549000D03*
X145288000Y-114554000D03*
X151638000Y-114554000D03*
D14*
X239903000Y-65659000D03*
X145288000Y-105664000D03*
D13*
X138938000Y-114554000D03*
D14*
X164338000Y-65659000D03*
X164338000Y-105664000D03*
X258953000Y-105664000D03*
X258953000Y-65659000D03*
D13*
X164338000Y-114554000D03*
X219583000Y-36449000D03*
X258953000Y-74549000D03*
X258953000Y-114554000D03*
D14*
X239903000Y-37084000D03*
X258953000Y-37084000D03*
D13*
X247523000Y-37084000D03*
M02*
