G04 #@! TF.FileFunction,Copper,L1,Top,Signal*
%FSLAX46Y46*%
G04 Gerber Fmt 4.6, Leading zero omitted, Abs format (unit mm)*
G04 Created by KiCad (PCBNEW 4.0.7) date 03/24/20 22:25:04*
%MOMM*%
%LPD*%
G01*
G04 APERTURE LIST*
%ADD10C,0.100000*%
%ADD11R,0.280000X0.430000*%
%ADD12C,8.000000*%
%ADD13C,1.000000*%
%ADD14C,0.254000*%
G04 APERTURE END LIST*
D10*
D11*
X87243000Y-54229000D03*
X87763000Y-54229000D03*
D12*
X239903000Y-105664000D03*
X145288000Y-65659000D03*
X239903000Y-65659000D03*
X145288000Y-105664000D03*
X164338000Y-65659000D03*
X164338000Y-105664000D03*
X258953000Y-105664000D03*
X258953000Y-65659000D03*
X239903000Y-37084000D03*
X258953000Y-37084000D03*
D13*
X87243000Y-54229000D02*
X87243000Y-50794000D01*
X87243000Y-50794000D02*
X85852000Y-49403000D01*
D14*
G36*
X272403500Y-124042500D02*
X186309000Y-124042500D01*
X186183318Y-124067500D01*
X178624182Y-124067500D01*
X178498500Y-124042500D01*
X91694000Y-124042500D01*
X91568318Y-124067500D01*
X79196000Y-124067500D01*
X79196000Y-92202000D01*
X87237500Y-92202000D01*
X87237500Y-118237000D01*
X87291546Y-118508705D01*
X87445454Y-118739046D01*
X87675795Y-118892954D01*
X87947500Y-118947000D01*
X134175500Y-118947000D01*
X134447205Y-118892954D01*
X134677546Y-118739046D01*
X134831454Y-118508705D01*
X134885500Y-118237000D01*
X134885500Y-106778369D01*
X139660026Y-106778369D01*
X140514880Y-108847275D01*
X142096399Y-110431557D01*
X144163810Y-111290021D01*
X146402369Y-111291974D01*
X148471275Y-110437120D01*
X150055557Y-108855601D01*
X150914021Y-106788190D01*
X150914029Y-106778369D01*
X158710026Y-106778369D01*
X159564880Y-108847275D01*
X161146399Y-110431557D01*
X163213810Y-111290021D01*
X165452369Y-111291974D01*
X167521275Y-110437120D01*
X169105557Y-108855601D01*
X169964021Y-106788190D01*
X169965974Y-104549631D01*
X169111120Y-102480725D01*
X167529601Y-100896443D01*
X165462190Y-100037979D01*
X163223631Y-100036026D01*
X161154725Y-100890880D01*
X159570443Y-102472399D01*
X158711979Y-104539810D01*
X158710026Y-106778369D01*
X150914029Y-106778369D01*
X150915974Y-104549631D01*
X150061120Y-102480725D01*
X148479601Y-100896443D01*
X146412190Y-100037979D01*
X144173631Y-100036026D01*
X142104725Y-100890880D01*
X140520443Y-102472399D01*
X139661979Y-104539810D01*
X139660026Y-106778369D01*
X134885500Y-106778369D01*
X134885500Y-92202000D01*
X181852500Y-92202000D01*
X181852500Y-118237000D01*
X181906546Y-118508705D01*
X182060454Y-118739046D01*
X182290795Y-118892954D01*
X182562500Y-118947000D01*
X228790500Y-118947000D01*
X229062205Y-118892954D01*
X229292546Y-118739046D01*
X229446454Y-118508705D01*
X229500500Y-118237000D01*
X229500500Y-106778369D01*
X234275026Y-106778369D01*
X235129880Y-108847275D01*
X236711399Y-110431557D01*
X238778810Y-111290021D01*
X241017369Y-111291974D01*
X243086275Y-110437120D01*
X244670557Y-108855601D01*
X245529021Y-106788190D01*
X245529029Y-106778369D01*
X253325026Y-106778369D01*
X254179880Y-108847275D01*
X255761399Y-110431557D01*
X257828810Y-111290021D01*
X260067369Y-111291974D01*
X262136275Y-110437120D01*
X263720557Y-108855601D01*
X264579021Y-106788190D01*
X264580974Y-104549631D01*
X263726120Y-102480725D01*
X262144601Y-100896443D01*
X260077190Y-100037979D01*
X257838631Y-100036026D01*
X255769725Y-100890880D01*
X254185443Y-102472399D01*
X253326979Y-104539810D01*
X253325026Y-106778369D01*
X245529029Y-106778369D01*
X245530974Y-104549631D01*
X244676120Y-102480725D01*
X243094601Y-100896443D01*
X241027190Y-100037979D01*
X238788631Y-100036026D01*
X236719725Y-100890880D01*
X235135443Y-102472399D01*
X234276979Y-104539810D01*
X234275026Y-106778369D01*
X229500500Y-106778369D01*
X229500500Y-92202000D01*
X229446454Y-91930295D01*
X229292546Y-91699954D01*
X229062205Y-91546046D01*
X228790500Y-91492000D01*
X182562500Y-91492000D01*
X182290795Y-91546046D01*
X182060454Y-91699954D01*
X181906546Y-91930295D01*
X181852500Y-92202000D01*
X134885500Y-92202000D01*
X134831454Y-91930295D01*
X134677546Y-91699954D01*
X134447205Y-91546046D01*
X134175500Y-91492000D01*
X87947500Y-91492000D01*
X87675795Y-91546046D01*
X87445454Y-91699954D01*
X87291546Y-91930295D01*
X87237500Y-92202000D01*
X79196000Y-92202000D01*
X79196000Y-53887690D01*
X86468000Y-53887690D01*
X86468000Y-53962750D01*
X86626750Y-54121500D01*
X87237500Y-54121500D01*
X87237500Y-54336500D01*
X86626750Y-54336500D01*
X86468000Y-54495250D01*
X86468000Y-54570310D01*
X86564673Y-54803699D01*
X86743302Y-54982327D01*
X86976691Y-55079000D01*
X87014250Y-55079000D01*
X87115998Y-54977252D01*
X87115998Y-55079000D01*
X87237500Y-55079000D01*
X87237500Y-78486000D01*
X87291546Y-78757705D01*
X87445454Y-78988046D01*
X87675795Y-79141954D01*
X87947500Y-79196000D01*
X134175500Y-79196000D01*
X134447205Y-79141954D01*
X134677546Y-78988046D01*
X134831454Y-78757705D01*
X134885500Y-78486000D01*
X134885500Y-66773369D01*
X139660026Y-66773369D01*
X140514880Y-68842275D01*
X142096399Y-70426557D01*
X144163810Y-71285021D01*
X146402369Y-71286974D01*
X148471275Y-70432120D01*
X150055557Y-68850601D01*
X150914021Y-66783190D01*
X150914029Y-66773369D01*
X158710026Y-66773369D01*
X159564880Y-68842275D01*
X161146399Y-70426557D01*
X163213810Y-71285021D01*
X165452369Y-71286974D01*
X167521275Y-70432120D01*
X169105557Y-68850601D01*
X169964021Y-66783190D01*
X169965974Y-64544631D01*
X169111120Y-62475725D01*
X167529601Y-60891443D01*
X165462190Y-60032979D01*
X163223631Y-60031026D01*
X161154725Y-60885880D01*
X159570443Y-62467399D01*
X158711979Y-64534810D01*
X158710026Y-66773369D01*
X150914029Y-66773369D01*
X150915974Y-64544631D01*
X150061120Y-62475725D01*
X148479601Y-60891443D01*
X146412190Y-60032979D01*
X144173631Y-60031026D01*
X142104725Y-60885880D01*
X140520443Y-62467399D01*
X139661979Y-64534810D01*
X139660026Y-66773369D01*
X134885500Y-66773369D01*
X134885500Y-52451000D01*
X181852500Y-52451000D01*
X181852500Y-78486000D01*
X181906546Y-78757705D01*
X182060454Y-78988046D01*
X182290795Y-79141954D01*
X182562500Y-79196000D01*
X228790500Y-79196000D01*
X229062205Y-79141954D01*
X229292546Y-78988046D01*
X229446454Y-78757705D01*
X229500500Y-78486000D01*
X229500500Y-66773369D01*
X234275026Y-66773369D01*
X235129880Y-68842275D01*
X236711399Y-70426557D01*
X238778810Y-71285021D01*
X241017369Y-71286974D01*
X243086275Y-70432120D01*
X244670557Y-68850601D01*
X245529021Y-66783190D01*
X245529029Y-66773369D01*
X253325026Y-66773369D01*
X254179880Y-68842275D01*
X255761399Y-70426557D01*
X257828810Y-71285021D01*
X260067369Y-71286974D01*
X262136275Y-70432120D01*
X263720557Y-68850601D01*
X264579021Y-66783190D01*
X264580974Y-64544631D01*
X263726120Y-62475725D01*
X262144601Y-60891443D01*
X260077190Y-60032979D01*
X257838631Y-60031026D01*
X255769725Y-60885880D01*
X254185443Y-62467399D01*
X253326979Y-64534810D01*
X253325026Y-66773369D01*
X245529029Y-66773369D01*
X245530974Y-64544631D01*
X244676120Y-62475725D01*
X243094601Y-60891443D01*
X241027190Y-60032979D01*
X238788631Y-60031026D01*
X236719725Y-60885880D01*
X235135443Y-62467399D01*
X234276979Y-64534810D01*
X234275026Y-66773369D01*
X229500500Y-66773369D01*
X229500500Y-52451000D01*
X229446454Y-52179295D01*
X229292546Y-51948954D01*
X229062205Y-51795046D01*
X228790500Y-51741000D01*
X182562500Y-51741000D01*
X182290795Y-51795046D01*
X182060454Y-51948954D01*
X181906546Y-52179295D01*
X181852500Y-52451000D01*
X134885500Y-52451000D01*
X134831454Y-52179295D01*
X134677546Y-51948954D01*
X134447205Y-51795046D01*
X134175500Y-51741000D01*
X87947500Y-51741000D01*
X87675795Y-51795046D01*
X87445454Y-51948954D01*
X87291546Y-52179295D01*
X87237500Y-52451000D01*
X87237500Y-53379000D01*
X87115998Y-53379000D01*
X87115998Y-53480748D01*
X87014250Y-53379000D01*
X86976691Y-53379000D01*
X86743302Y-53475673D01*
X86564673Y-53654301D01*
X86468000Y-53887690D01*
X79196000Y-53887690D01*
X79196000Y-37084000D01*
X91365000Y-37084000D01*
X91699397Y-38765128D01*
X92651680Y-40190320D01*
X94076872Y-41142603D01*
X95758000Y-41477000D01*
X97439128Y-41142603D01*
X98864320Y-40190320D01*
X99816603Y-38765128D01*
X100151000Y-37084000D01*
X121718000Y-37084000D01*
X122052397Y-38765128D01*
X123004680Y-40190320D01*
X124429872Y-41142603D01*
X126111000Y-41477000D01*
X127792128Y-41142603D01*
X129217320Y-40190320D01*
X130169603Y-38765128D01*
X130282338Y-38198369D01*
X234275026Y-38198369D01*
X235129880Y-40267275D01*
X236711399Y-41851557D01*
X238778810Y-42710021D01*
X241017369Y-42711974D01*
X243086275Y-41857120D01*
X244670557Y-40275601D01*
X245529021Y-38208190D01*
X245529029Y-38198369D01*
X253325026Y-38198369D01*
X254179880Y-40267275D01*
X255761399Y-41851557D01*
X257828810Y-42710021D01*
X260067369Y-42711974D01*
X262136275Y-41857120D01*
X263720557Y-40275601D01*
X264579021Y-38208190D01*
X264580974Y-35969631D01*
X263726120Y-33900725D01*
X262144601Y-32316443D01*
X260077190Y-31457979D01*
X257838631Y-31456026D01*
X255769725Y-32310880D01*
X254185443Y-33892399D01*
X253326979Y-35959810D01*
X253325026Y-38198369D01*
X245529029Y-38198369D01*
X245530974Y-35969631D01*
X244676120Y-33900725D01*
X243094601Y-32316443D01*
X241027190Y-31457979D01*
X238788631Y-31456026D01*
X236719725Y-32310880D01*
X235135443Y-33892399D01*
X234276979Y-35959810D01*
X234275026Y-38198369D01*
X130282338Y-38198369D01*
X130504000Y-37084000D01*
X130169603Y-35402872D01*
X129217320Y-33977680D01*
X127792128Y-33025397D01*
X126111000Y-32691000D01*
X124429872Y-33025397D01*
X123004680Y-33977680D01*
X122052397Y-35402872D01*
X121718000Y-37084000D01*
X100151000Y-37084000D01*
X99816603Y-35402872D01*
X98864320Y-33977680D01*
X97439128Y-33025397D01*
X95758000Y-32691000D01*
X94076872Y-33025397D01*
X92651680Y-33977680D01*
X91699397Y-35402872D01*
X91365000Y-37084000D01*
X79196000Y-37084000D01*
X79196000Y-25475000D01*
X272403500Y-25475000D01*
X272403500Y-124042500D01*
X272403500Y-124042500D01*
G37*
X272403500Y-124042500D02*
X186309000Y-124042500D01*
X186183318Y-124067500D01*
X178624182Y-124067500D01*
X178498500Y-124042500D01*
X91694000Y-124042500D01*
X91568318Y-124067500D01*
X79196000Y-124067500D01*
X79196000Y-92202000D01*
X87237500Y-92202000D01*
X87237500Y-118237000D01*
X87291546Y-118508705D01*
X87445454Y-118739046D01*
X87675795Y-118892954D01*
X87947500Y-118947000D01*
X134175500Y-118947000D01*
X134447205Y-118892954D01*
X134677546Y-118739046D01*
X134831454Y-118508705D01*
X134885500Y-118237000D01*
X134885500Y-106778369D01*
X139660026Y-106778369D01*
X140514880Y-108847275D01*
X142096399Y-110431557D01*
X144163810Y-111290021D01*
X146402369Y-111291974D01*
X148471275Y-110437120D01*
X150055557Y-108855601D01*
X150914021Y-106788190D01*
X150914029Y-106778369D01*
X158710026Y-106778369D01*
X159564880Y-108847275D01*
X161146399Y-110431557D01*
X163213810Y-111290021D01*
X165452369Y-111291974D01*
X167521275Y-110437120D01*
X169105557Y-108855601D01*
X169964021Y-106788190D01*
X169965974Y-104549631D01*
X169111120Y-102480725D01*
X167529601Y-100896443D01*
X165462190Y-100037979D01*
X163223631Y-100036026D01*
X161154725Y-100890880D01*
X159570443Y-102472399D01*
X158711979Y-104539810D01*
X158710026Y-106778369D01*
X150914029Y-106778369D01*
X150915974Y-104549631D01*
X150061120Y-102480725D01*
X148479601Y-100896443D01*
X146412190Y-100037979D01*
X144173631Y-100036026D01*
X142104725Y-100890880D01*
X140520443Y-102472399D01*
X139661979Y-104539810D01*
X139660026Y-106778369D01*
X134885500Y-106778369D01*
X134885500Y-92202000D01*
X181852500Y-92202000D01*
X181852500Y-118237000D01*
X181906546Y-118508705D01*
X182060454Y-118739046D01*
X182290795Y-118892954D01*
X182562500Y-118947000D01*
X228790500Y-118947000D01*
X229062205Y-118892954D01*
X229292546Y-118739046D01*
X229446454Y-118508705D01*
X229500500Y-118237000D01*
X229500500Y-106778369D01*
X234275026Y-106778369D01*
X235129880Y-108847275D01*
X236711399Y-110431557D01*
X238778810Y-111290021D01*
X241017369Y-111291974D01*
X243086275Y-110437120D01*
X244670557Y-108855601D01*
X245529021Y-106788190D01*
X245529029Y-106778369D01*
X253325026Y-106778369D01*
X254179880Y-108847275D01*
X255761399Y-110431557D01*
X257828810Y-111290021D01*
X260067369Y-111291974D01*
X262136275Y-110437120D01*
X263720557Y-108855601D01*
X264579021Y-106788190D01*
X264580974Y-104549631D01*
X263726120Y-102480725D01*
X262144601Y-100896443D01*
X260077190Y-100037979D01*
X257838631Y-100036026D01*
X255769725Y-100890880D01*
X254185443Y-102472399D01*
X253326979Y-104539810D01*
X253325026Y-106778369D01*
X245529029Y-106778369D01*
X245530974Y-104549631D01*
X244676120Y-102480725D01*
X243094601Y-100896443D01*
X241027190Y-100037979D01*
X238788631Y-100036026D01*
X236719725Y-100890880D01*
X235135443Y-102472399D01*
X234276979Y-104539810D01*
X234275026Y-106778369D01*
X229500500Y-106778369D01*
X229500500Y-92202000D01*
X229446454Y-91930295D01*
X229292546Y-91699954D01*
X229062205Y-91546046D01*
X228790500Y-91492000D01*
X182562500Y-91492000D01*
X182290795Y-91546046D01*
X182060454Y-91699954D01*
X181906546Y-91930295D01*
X181852500Y-92202000D01*
X134885500Y-92202000D01*
X134831454Y-91930295D01*
X134677546Y-91699954D01*
X134447205Y-91546046D01*
X134175500Y-91492000D01*
X87947500Y-91492000D01*
X87675795Y-91546046D01*
X87445454Y-91699954D01*
X87291546Y-91930295D01*
X87237500Y-92202000D01*
X79196000Y-92202000D01*
X79196000Y-53887690D01*
X86468000Y-53887690D01*
X86468000Y-53962750D01*
X86626750Y-54121500D01*
X87237500Y-54121500D01*
X87237500Y-54336500D01*
X86626750Y-54336500D01*
X86468000Y-54495250D01*
X86468000Y-54570310D01*
X86564673Y-54803699D01*
X86743302Y-54982327D01*
X86976691Y-55079000D01*
X87014250Y-55079000D01*
X87115998Y-54977252D01*
X87115998Y-55079000D01*
X87237500Y-55079000D01*
X87237500Y-78486000D01*
X87291546Y-78757705D01*
X87445454Y-78988046D01*
X87675795Y-79141954D01*
X87947500Y-79196000D01*
X134175500Y-79196000D01*
X134447205Y-79141954D01*
X134677546Y-78988046D01*
X134831454Y-78757705D01*
X134885500Y-78486000D01*
X134885500Y-66773369D01*
X139660026Y-66773369D01*
X140514880Y-68842275D01*
X142096399Y-70426557D01*
X144163810Y-71285021D01*
X146402369Y-71286974D01*
X148471275Y-70432120D01*
X150055557Y-68850601D01*
X150914021Y-66783190D01*
X150914029Y-66773369D01*
X158710026Y-66773369D01*
X159564880Y-68842275D01*
X161146399Y-70426557D01*
X163213810Y-71285021D01*
X165452369Y-71286974D01*
X167521275Y-70432120D01*
X169105557Y-68850601D01*
X169964021Y-66783190D01*
X169965974Y-64544631D01*
X169111120Y-62475725D01*
X167529601Y-60891443D01*
X165462190Y-60032979D01*
X163223631Y-60031026D01*
X161154725Y-60885880D01*
X159570443Y-62467399D01*
X158711979Y-64534810D01*
X158710026Y-66773369D01*
X150914029Y-66773369D01*
X150915974Y-64544631D01*
X150061120Y-62475725D01*
X148479601Y-60891443D01*
X146412190Y-60032979D01*
X144173631Y-60031026D01*
X142104725Y-60885880D01*
X140520443Y-62467399D01*
X139661979Y-64534810D01*
X139660026Y-66773369D01*
X134885500Y-66773369D01*
X134885500Y-52451000D01*
X181852500Y-52451000D01*
X181852500Y-78486000D01*
X181906546Y-78757705D01*
X182060454Y-78988046D01*
X182290795Y-79141954D01*
X182562500Y-79196000D01*
X228790500Y-79196000D01*
X229062205Y-79141954D01*
X229292546Y-78988046D01*
X229446454Y-78757705D01*
X229500500Y-78486000D01*
X229500500Y-66773369D01*
X234275026Y-66773369D01*
X235129880Y-68842275D01*
X236711399Y-70426557D01*
X238778810Y-71285021D01*
X241017369Y-71286974D01*
X243086275Y-70432120D01*
X244670557Y-68850601D01*
X245529021Y-66783190D01*
X245529029Y-66773369D01*
X253325026Y-66773369D01*
X254179880Y-68842275D01*
X255761399Y-70426557D01*
X257828810Y-71285021D01*
X260067369Y-71286974D01*
X262136275Y-70432120D01*
X263720557Y-68850601D01*
X264579021Y-66783190D01*
X264580974Y-64544631D01*
X263726120Y-62475725D01*
X262144601Y-60891443D01*
X260077190Y-60032979D01*
X257838631Y-60031026D01*
X255769725Y-60885880D01*
X254185443Y-62467399D01*
X253326979Y-64534810D01*
X253325026Y-66773369D01*
X245529029Y-66773369D01*
X245530974Y-64544631D01*
X244676120Y-62475725D01*
X243094601Y-60891443D01*
X241027190Y-60032979D01*
X238788631Y-60031026D01*
X236719725Y-60885880D01*
X235135443Y-62467399D01*
X234276979Y-64534810D01*
X234275026Y-66773369D01*
X229500500Y-66773369D01*
X229500500Y-52451000D01*
X229446454Y-52179295D01*
X229292546Y-51948954D01*
X229062205Y-51795046D01*
X228790500Y-51741000D01*
X182562500Y-51741000D01*
X182290795Y-51795046D01*
X182060454Y-51948954D01*
X181906546Y-52179295D01*
X181852500Y-52451000D01*
X134885500Y-52451000D01*
X134831454Y-52179295D01*
X134677546Y-51948954D01*
X134447205Y-51795046D01*
X134175500Y-51741000D01*
X87947500Y-51741000D01*
X87675795Y-51795046D01*
X87445454Y-51948954D01*
X87291546Y-52179295D01*
X87237500Y-52451000D01*
X87237500Y-53379000D01*
X87115998Y-53379000D01*
X87115998Y-53480748D01*
X87014250Y-53379000D01*
X86976691Y-53379000D01*
X86743302Y-53475673D01*
X86564673Y-53654301D01*
X86468000Y-53887690D01*
X79196000Y-53887690D01*
X79196000Y-37084000D01*
X91365000Y-37084000D01*
X91699397Y-38765128D01*
X92651680Y-40190320D01*
X94076872Y-41142603D01*
X95758000Y-41477000D01*
X97439128Y-41142603D01*
X98864320Y-40190320D01*
X99816603Y-38765128D01*
X100151000Y-37084000D01*
X121718000Y-37084000D01*
X122052397Y-38765128D01*
X123004680Y-40190320D01*
X124429872Y-41142603D01*
X126111000Y-41477000D01*
X127792128Y-41142603D01*
X129217320Y-40190320D01*
X130169603Y-38765128D01*
X130282338Y-38198369D01*
X234275026Y-38198369D01*
X235129880Y-40267275D01*
X236711399Y-41851557D01*
X238778810Y-42710021D01*
X241017369Y-42711974D01*
X243086275Y-41857120D01*
X244670557Y-40275601D01*
X245529021Y-38208190D01*
X245529029Y-38198369D01*
X253325026Y-38198369D01*
X254179880Y-40267275D01*
X255761399Y-41851557D01*
X257828810Y-42710021D01*
X260067369Y-42711974D01*
X262136275Y-41857120D01*
X263720557Y-40275601D01*
X264579021Y-38208190D01*
X264580974Y-35969631D01*
X263726120Y-33900725D01*
X262144601Y-32316443D01*
X260077190Y-31457979D01*
X257838631Y-31456026D01*
X255769725Y-32310880D01*
X254185443Y-33892399D01*
X253326979Y-35959810D01*
X253325026Y-38198369D01*
X245529029Y-38198369D01*
X245530974Y-35969631D01*
X244676120Y-33900725D01*
X243094601Y-32316443D01*
X241027190Y-31457979D01*
X238788631Y-31456026D01*
X236719725Y-32310880D01*
X235135443Y-33892399D01*
X234276979Y-35959810D01*
X234275026Y-38198369D01*
X130282338Y-38198369D01*
X130504000Y-37084000D01*
X130169603Y-35402872D01*
X129217320Y-33977680D01*
X127792128Y-33025397D01*
X126111000Y-32691000D01*
X124429872Y-33025397D01*
X123004680Y-33977680D01*
X122052397Y-35402872D01*
X121718000Y-37084000D01*
X100151000Y-37084000D01*
X99816603Y-35402872D01*
X98864320Y-33977680D01*
X97439128Y-33025397D01*
X95758000Y-32691000D01*
X94076872Y-33025397D01*
X92651680Y-33977680D01*
X91699397Y-35402872D01*
X91365000Y-37084000D01*
X79196000Y-37084000D01*
X79196000Y-25475000D01*
X272403500Y-25475000D01*
X272403500Y-124042500D01*
M02*
