M48
;DRILL file {KiCad 4.0.7} date 03/01/19 13:16:33
;FORMAT={-:-/ absolute / inch / decimal}
FMAT,2
INCH,TZ
T1C0.016
T2C0.035
T3C0.039
T4C0.051
T5C0.063
%
G90
G05
M72
T1
X5.985Y-4.95
X5.9925Y-3.978
X5.994Y-3.012
X6.032Y-2.422
X6.392Y-3.246
X6.43Y-5.925
X6.432Y-3.248
X6.474Y-3.248
X6.514Y-3.248
X6.532Y-2.862
X6.568Y-2.862
X6.602Y-2.862
X6.636Y-2.862
X6.665Y-3.825
X6.665Y-4.159
X6.672Y-2.862
X6.701Y-3.825
X6.701Y-4.157
X6.706Y-2.862
X6.737Y-3.826
X6.737Y-4.159
X6.74Y-2.862
X6.773Y-3.825
X6.773Y-4.158
X6.778Y-2.862
X6.795Y-4.79
X6.812Y-3.825
X6.812Y-4.157
X6.816Y-2.862
X6.835Y-4.79
X6.835Y-5.13
X6.847Y-3.824
X6.852Y-2.862
X6.86Y-3.244
X6.87Y-4.79
X6.87Y-5.13
X6.881Y-3.825
X6.881Y-4.155
X6.89Y-2.862
X6.905Y-4.79
X6.905Y-5.13
X6.908Y-3.246
X6.915Y-3.825
X6.921Y-4.153
X6.924Y-2.862
X6.96Y-3.248
X7.01Y-3.254
X7.126Y-3.228
X7.172Y-3.288
X7.176Y-3.226
X8.317Y-2.259
X8.41Y-2.259
T2
X8.6825Y-2.4125
X8.6825Y-2.5125
X8.6825Y-2.6125
X8.6825Y-2.7125
X8.6825Y-3.385
X8.6825Y-3.485
X8.6825Y-3.585
X8.6825Y-3.685
X8.6825Y-4.36
X8.6825Y-4.46
X8.6825Y-4.56
X8.6825Y-4.66
X8.6825Y-5.33
X8.6825Y-5.43
X8.6825Y-5.53
X8.6825Y-5.63
X8.7825Y-2.4625
X8.7825Y-2.5625
X8.7825Y-2.6625
X8.7825Y-2.7625
X8.7825Y-3.435
X8.7825Y-3.535
X8.7825Y-3.635
X8.7825Y-3.735
X8.7825Y-4.41
X8.7825Y-4.51
X8.7825Y-4.61
X8.7825Y-4.71
X8.7825Y-5.38
X8.7825Y-5.48
X8.7825Y-5.58
X8.7825Y-5.68
T3
X5.512Y-2.298
X5.512Y-2.398
X5.512Y-2.498
X5.512Y-2.598
X5.512Y-2.698
X5.512Y-3.266
X5.512Y-3.366
X5.512Y-3.466
X5.512Y-3.566
X5.512Y-3.666
X5.512Y-4.238
X5.512Y-4.338
X5.512Y-4.438
X5.512Y-4.538
X5.512Y-4.638
X5.512Y-5.21
X5.512Y-5.31
X5.512Y-5.41
X5.512Y-5.51
X5.512Y-5.61
X5.612Y-2.298
X5.612Y-2.398
X5.612Y-2.498
X5.612Y-2.598
X5.612Y-2.698
X5.612Y-3.266
X5.612Y-3.366
X5.612Y-3.466
X5.612Y-3.566
X5.612Y-3.666
X5.612Y-4.238
X5.612Y-4.338
X5.612Y-4.438
X5.612Y-4.538
X5.612Y-4.638
X5.612Y-5.21
X5.612Y-5.31
X5.612Y-5.41
X5.612Y-5.51
X5.612Y-5.61
X5.8475Y-2.175
X5.8475Y-2.275
X5.9475Y-2.175
X5.9475Y-2.275
X6.0475Y-2.175
X6.0475Y-2.275
X6.1475Y-2.175
X6.1475Y-2.275
X6.2475Y-2.175
X6.2475Y-2.275
X6.3475Y-2.175
X6.3475Y-2.275
X6.4475Y-2.175
X6.4475Y-2.275
X6.5475Y-2.175
X6.5475Y-2.275
X6.6475Y-2.175
X6.6475Y-2.275
X7.0843Y-2.4082
X7.0843Y-2.8807
X7.0843Y-3.3807
X7.0843Y-3.8532
X7.0843Y-5.3257
X7.0843Y-5.7982
X7.0868Y-4.3532
X7.0868Y-4.8257
T4
X7.0075Y-2.6425
X7.0075Y-3.615
X7.0075Y-5.56
X7.01Y-4.5875
X7.5646Y-2.8807
X7.5646Y-3.8532
X7.5646Y-5.7982
X7.5666Y-2.4063
X7.5666Y-3.3788
X7.5666Y-5.3238
X7.5671Y-4.8257
X7.5691Y-4.3513
T5
X9.1825Y-2.2725
X9.1825Y-2.8925
X9.1825Y-3.245
X9.1825Y-3.865
X9.1825Y-4.22
X9.1825Y-4.84
X9.1825Y-5.19
X9.1825Y-5.81
T0
M30
