G04 #@! TF.FileFunction,Copper,L2,Bot,Signal*
%FSLAX46Y46*%
G04 Gerber Fmt 4.6, Leading zero omitted, Abs format (unit mm)*
G04 Created by KiCad (PCBNEW 4.0.7) date 03/01/19 13:16:32*
%MOMM*%
%LPD*%
G01*
G04 APERTURE LIST*
%ADD10C,0.100000*%
%ADD11C,1.500000*%
%ADD12C,2.600000*%
%ADD13C,2.500000*%
%ADD14C,3.000000*%
%ADD15R,1.700000X1.700000*%
%ADD16O,1.700000X1.700000*%
%ADD17C,0.600000*%
%ADD18C,0.250000*%
%ADD19C,1.000000*%
%ADD20C,0.254000*%
G04 APERTURE END LIST*
D10*
D11*
X223075500Y-136652000D03*
X223075500Y-139192000D03*
X223075500Y-141732000D03*
X223075500Y-144272000D03*
X220535500Y-135382000D03*
X220535500Y-137922000D03*
X220535500Y-140462000D03*
X220535500Y-143002000D03*
D12*
X233235500Y-147574000D03*
X233235500Y-131826000D03*
D13*
X179940500Y-73169500D03*
D14*
X192140500Y-73169500D03*
X192190500Y-61119500D03*
D13*
X179940500Y-61169500D03*
D14*
X177990500Y-67119500D03*
D13*
X179940500Y-147274000D03*
D14*
X192140500Y-147274000D03*
X192190500Y-135224000D03*
D13*
X179940500Y-135274000D03*
D14*
X177990500Y-141224000D03*
D13*
X179940500Y-97871000D03*
D14*
X192140500Y-97871000D03*
X192190500Y-85821000D03*
D13*
X179940500Y-85871000D03*
D14*
X177990500Y-91821000D03*
D13*
X180004000Y-122572500D03*
D14*
X192204000Y-122572500D03*
X192254000Y-110522500D03*
D13*
X180004000Y-110572500D03*
D14*
X178054000Y-116522500D03*
D15*
X148526500Y-57785000D03*
D16*
X148526500Y-55245000D03*
X151066500Y-57785000D03*
X151066500Y-55245000D03*
X153606500Y-57785000D03*
X153606500Y-55245000D03*
X156146500Y-57785000D03*
X156146500Y-55245000D03*
X158686500Y-57785000D03*
X158686500Y-55245000D03*
X161226500Y-57785000D03*
X161226500Y-55245000D03*
X163766500Y-57785000D03*
X163766500Y-55245000D03*
X166306500Y-57785000D03*
X166306500Y-55245000D03*
X168846500Y-57785000D03*
X168846500Y-55245000D03*
D15*
X140004800Y-58369200D03*
D16*
X142544800Y-58369200D03*
X140004800Y-60909200D03*
X142544800Y-60909200D03*
X140004800Y-63449200D03*
X142544800Y-63449200D03*
X140004800Y-65989200D03*
X142544800Y-65989200D03*
X140004800Y-68529200D03*
X142544800Y-68529200D03*
D15*
X140004800Y-132334000D03*
D16*
X142544800Y-132334000D03*
X140004800Y-134874000D03*
X142544800Y-134874000D03*
X140004800Y-137414000D03*
X142544800Y-137414000D03*
X140004800Y-139954000D03*
X142544800Y-139954000D03*
X140004800Y-142494000D03*
X142544800Y-142494000D03*
D15*
X140004800Y-107645200D03*
D16*
X142544800Y-107645200D03*
X140004800Y-110185200D03*
X142544800Y-110185200D03*
X140004800Y-112725200D03*
X142544800Y-112725200D03*
X140004800Y-115265200D03*
X142544800Y-115265200D03*
X140004800Y-117805200D03*
X142544800Y-117805200D03*
D15*
X140004800Y-82956400D03*
D16*
X142544800Y-82956400D03*
X140004800Y-85496400D03*
X142544800Y-85496400D03*
X140004800Y-88036400D03*
X142544800Y-88036400D03*
X140004800Y-90576400D03*
X142544800Y-90576400D03*
X140004800Y-93116400D03*
X142544800Y-93116400D03*
D11*
X223075500Y-62547500D03*
X223075500Y-65087500D03*
X223075500Y-67627500D03*
X223075500Y-70167500D03*
X220535500Y-61277500D03*
X220535500Y-63817500D03*
X220535500Y-66357500D03*
X220535500Y-68897500D03*
D12*
X233235500Y-73469500D03*
X233235500Y-57721500D03*
D11*
X223075500Y-87249000D03*
X223075500Y-89789000D03*
X223075500Y-92329000D03*
X223075500Y-94869000D03*
X220535500Y-85979000D03*
X220535500Y-88519000D03*
X220535500Y-91059000D03*
X220535500Y-93599000D03*
D12*
X233235500Y-98171000D03*
X233235500Y-82423000D03*
D11*
X223075500Y-112014000D03*
X223075500Y-114554000D03*
X223075500Y-117094000D03*
X223075500Y-119634000D03*
X220535500Y-110744000D03*
X220535500Y-113284000D03*
X220535500Y-115824000D03*
X220535500Y-118364000D03*
D12*
X233235500Y-122936000D03*
X233235500Y-107188000D03*
D17*
X152247600Y-76504800D03*
X152209500Y-101041200D03*
X152019000Y-125730000D03*
X213614000Y-57378600D03*
X211251800Y-57378600D03*
X174040800Y-72694800D03*
X182168800Y-83515200D03*
X173126400Y-72694800D03*
X182270400Y-81940400D03*
X175869600Y-72694800D03*
X181000400Y-81991200D03*
X175006000Y-72694800D03*
X173913800Y-97129600D03*
X175463200Y-82448400D03*
X170332400Y-72694800D03*
X174244000Y-82397600D03*
X169468800Y-72694800D03*
X173024800Y-97155000D03*
X173024800Y-105587800D03*
X178054000Y-82651600D03*
X172161200Y-72694800D03*
X175793400Y-105486200D03*
X175641000Y-97155000D03*
X174777400Y-105537000D03*
X174777400Y-97155000D03*
X176784000Y-82499200D03*
X171196000Y-72694800D03*
X162356800Y-82448400D03*
X172593000Y-121666000D03*
X169291000Y-97155000D03*
X169291000Y-105638600D03*
X165912800Y-72694800D03*
X153212800Y-61518800D03*
X167690800Y-72694800D03*
X164439600Y-82499200D03*
X174498000Y-130302000D03*
X174498000Y-121666000D03*
X171119800Y-97180400D03*
X171119800Y-105638600D03*
X173609000Y-130302000D03*
X173609000Y-121666000D03*
X170205400Y-97155000D03*
X170205400Y-105587800D03*
X166827200Y-72694800D03*
X163372800Y-82499200D03*
X163322000Y-150495000D03*
X165455600Y-82499200D03*
X175387000Y-130302000D03*
X175387000Y-121666000D03*
X172034200Y-97155000D03*
X172034200Y-105613200D03*
X168554400Y-72694800D03*
D18*
X152247600Y-76504800D02*
X152247600Y-76517500D01*
X152247600Y-76517500D02*
X152247600Y-76504800D01*
X152247600Y-76504800D02*
X152247600Y-76517500D01*
X163322000Y-76454000D02*
X163322000Y-76517500D01*
X163322000Y-76517500D02*
X163322000Y-76454000D01*
X163322000Y-76454000D02*
X163322000Y-76517500D01*
X233235500Y-57721500D02*
X233235500Y-73469500D01*
X223075500Y-65087500D02*
X232219500Y-65087500D01*
X233235500Y-64071500D02*
X233235500Y-57721500D01*
X232219500Y-65087500D02*
X233235500Y-64071500D01*
D19*
X157226000Y-76517500D02*
X152247600Y-76517500D01*
X227012500Y-67056000D02*
X225044000Y-65087500D01*
X223075500Y-65087500D02*
X225044000Y-65087500D01*
X222948500Y-76517500D02*
X163322000Y-76517500D01*
X163322000Y-76517500D02*
X157226000Y-76517500D01*
X227012500Y-72453500D02*
X222948500Y-76517500D01*
X227012500Y-72453500D02*
X227012500Y-67056000D01*
X148526500Y-57785000D02*
X148526500Y-59055000D01*
X144272000Y-63309500D02*
X142557500Y-63309500D01*
X148526500Y-59055000D02*
X144272000Y-63309500D01*
X223075500Y-65087500D02*
X222631000Y-65087500D01*
X222631000Y-65087500D02*
X221678500Y-66040000D01*
X221678500Y-66040000D02*
X220853000Y-66040000D01*
X220853000Y-66040000D02*
X220535500Y-66357500D01*
D18*
X140652500Y-63309500D02*
X140017500Y-63309500D01*
D19*
X140017500Y-65849500D02*
X140017500Y-63309500D01*
X142557500Y-65849500D02*
X140017500Y-65849500D01*
X142557500Y-63309500D02*
X142557500Y-65849500D01*
X140017500Y-63309500D02*
X142557500Y-63309500D01*
D18*
X152171400Y-101079300D02*
X152171400Y-101219000D01*
X152209500Y-101041200D02*
X152171400Y-101079300D01*
X165735000Y-101092000D02*
X165735000Y-101219000D01*
X165735000Y-101219000D02*
X165735000Y-101092000D01*
X165735000Y-101092000D02*
X165735000Y-101219000D01*
D19*
X233235500Y-82423000D02*
X233235500Y-98171000D01*
X223075500Y-89789000D02*
X231648000Y-89789000D01*
X233235500Y-88201500D02*
X233235500Y-82423000D01*
X231648000Y-89789000D02*
X233235500Y-88201500D01*
X157226000Y-101219000D02*
X152171400Y-101219000D01*
X227012500Y-91757500D02*
X225044000Y-89789000D01*
X223075500Y-89789000D02*
X225044000Y-89789000D01*
X222948500Y-101219000D02*
X165735000Y-101219000D01*
X165735000Y-101219000D02*
X157226000Y-101219000D01*
X227012500Y-97155000D02*
X222948500Y-101219000D01*
X227012500Y-97155000D02*
X227012500Y-91757500D01*
X223075500Y-89789000D02*
X222631000Y-89789000D01*
X222631000Y-89789000D02*
X221678500Y-90741500D01*
X221678500Y-90741500D02*
X220853000Y-90741500D01*
X220853000Y-90741500D02*
X220535500Y-91059000D01*
D18*
X140652500Y-88011000D02*
X140017500Y-88011000D01*
D19*
X140017500Y-90551000D02*
X140017500Y-88011000D01*
X142557500Y-88011000D02*
X142557500Y-90551000D01*
X140017500Y-88011000D02*
X142557500Y-88011000D01*
X142557500Y-90551000D02*
X140017500Y-90551000D01*
D18*
X152019000Y-125730000D02*
X152019000Y-125920500D01*
X152019000Y-125920500D02*
X152019000Y-125730000D01*
X152019000Y-125730000D02*
X152019000Y-125920500D01*
D19*
X157289500Y-125920500D02*
X152019000Y-125920500D01*
D18*
X140716000Y-112712500D02*
X140081000Y-112712500D01*
D19*
X140081000Y-115252500D02*
X140081000Y-112712500D01*
X142621000Y-115252500D02*
X140081000Y-115252500D01*
X142621000Y-112712500D02*
X142621000Y-115252500D01*
X140081000Y-112712500D02*
X142621000Y-112712500D01*
D18*
X233235500Y-107188000D02*
X233235500Y-122936000D01*
X223075500Y-114554000D02*
X231394000Y-114554000D01*
X233235500Y-112712500D02*
X233235500Y-107188000D01*
X231394000Y-114554000D02*
X233235500Y-112712500D01*
D19*
X227076000Y-116459000D02*
X225107500Y-114490500D01*
X223139000Y-114490500D02*
X225107500Y-114490500D01*
X223012000Y-125920500D02*
X157289500Y-125920500D01*
X227076000Y-121856500D02*
X223012000Y-125920500D01*
X227076000Y-121856500D02*
X227076000Y-116459000D01*
X223139000Y-114490500D02*
X222694500Y-114490500D01*
X222694500Y-114490500D02*
X221742000Y-115443000D01*
X221742000Y-115443000D02*
X220916500Y-115443000D01*
X220916500Y-115443000D02*
X220599000Y-115760500D01*
D18*
X223075500Y-67627500D02*
X223481900Y-67627500D01*
X223075500Y-70167500D02*
X218935300Y-70167500D01*
X212026500Y-63258700D02*
X212026500Y-56007000D01*
X218935300Y-70167500D02*
X212026500Y-63258700D01*
X167513000Y-56451500D02*
X166306500Y-55245000D01*
X212026500Y-56007000D02*
X210439000Y-54419500D01*
X210439000Y-54419500D02*
X172529500Y-54419500D01*
X172529500Y-54419500D02*
X170497500Y-56451500D01*
X170497500Y-56451500D02*
X167513000Y-56451500D01*
X211099400Y-57226200D02*
X211251800Y-57378600D01*
X213614000Y-57378600D02*
X220052900Y-63817500D01*
X220052900Y-63817500D02*
X220535500Y-63817500D01*
X168846500Y-57785000D02*
X170510200Y-57785000D01*
X211099400Y-57226200D02*
X211150200Y-57226200D01*
X209092800Y-55219600D02*
X211099400Y-57226200D01*
X173075600Y-55219600D02*
X209092800Y-55219600D01*
X170510200Y-57785000D02*
X173075600Y-55219600D01*
X220535500Y-68897500D02*
X219773500Y-68897500D01*
X212598000Y-61722000D02*
X212598000Y-58039000D01*
X219773500Y-68897500D02*
X212598000Y-61722000D01*
X168846500Y-55245000D02*
X169735500Y-55245000D01*
X212598000Y-55626000D02*
X212598000Y-58039000D01*
X210693000Y-53721000D02*
X212598000Y-55626000D01*
X171259500Y-53721000D02*
X210693000Y-53721000D01*
X169735500Y-55245000D02*
X171259500Y-53721000D01*
X165214300Y-61455300D02*
X173774100Y-61455300D01*
X174040800Y-61722000D02*
X174040800Y-72694800D01*
X173774100Y-61455300D02*
X174040800Y-61722000D01*
X165214300Y-61455300D02*
X164147500Y-60388500D01*
X161226500Y-57785000D02*
X161226500Y-59626500D01*
X161988500Y-60388500D02*
X161226500Y-59626500D01*
X164147500Y-60388500D02*
X161988500Y-60388500D01*
X217576400Y-93827600D02*
X204063600Y-93827600D01*
X204063600Y-93827600D02*
X193751200Y-83515200D01*
X223075500Y-94869000D02*
X218617800Y-94869000D01*
X218617800Y-94869000D02*
X217576400Y-93827600D01*
X163893500Y-61277500D02*
X161671000Y-61277500D01*
X161671000Y-61277500D02*
X159956500Y-59563000D01*
X159956500Y-59563000D02*
X159956500Y-56515000D01*
X159956500Y-56515000D02*
X161226500Y-55245000D01*
X164693600Y-62077600D02*
X163893500Y-61277500D01*
X172770800Y-62077600D02*
X173126400Y-62433200D01*
X173126400Y-62433200D02*
X173126400Y-72694800D01*
X164693600Y-62077600D02*
X172770800Y-62077600D01*
X193751200Y-83515200D02*
X182168800Y-83515200D01*
X223075500Y-94869000D02*
X223075500Y-95440500D01*
X220535500Y-88519000D02*
X201041000Y-88519000D01*
X201041000Y-88519000D02*
X194868800Y-82346800D01*
X183108600Y-82016600D02*
X182346600Y-82016600D01*
X182346600Y-82016600D02*
X182270400Y-81940400D01*
X183438800Y-82346800D02*
X185724800Y-82346800D01*
X183108600Y-82016600D02*
X183438800Y-82346800D01*
X175869600Y-61366400D02*
X175869600Y-72694800D01*
X166350950Y-60369450D02*
X174872650Y-60369450D01*
X174872650Y-60369450D02*
X175869600Y-61366400D01*
X194868800Y-82346800D02*
X185724800Y-82346800D01*
X166350950Y-60369450D02*
X163766500Y-57785000D01*
X218217750Y-92805250D02*
X204184250Y-92805250D01*
X204184250Y-92805250D02*
X194335400Y-82956400D01*
X181000400Y-81991200D02*
X181610000Y-82600800D01*
X182422800Y-82600800D02*
X182778400Y-82956400D01*
X181610000Y-82600800D02*
X182422800Y-82600800D01*
X183083200Y-82956400D02*
X182778400Y-82956400D01*
X175006000Y-61366400D02*
X175006000Y-72694800D01*
X182880000Y-82956400D02*
X183083200Y-82956400D01*
X165538150Y-60826650D02*
X165538150Y-60839350D01*
X162560000Y-59182000D02*
X162560000Y-56451500D01*
X162560000Y-56451500D02*
X163766500Y-55245000D01*
X165538150Y-60826650D02*
X164592000Y-59880500D01*
X164592000Y-59880500D02*
X163258500Y-59880500D01*
X163258500Y-59880500D02*
X162560000Y-59182000D01*
X165538150Y-60839350D02*
X165608000Y-60909200D01*
X165608000Y-60909200D02*
X174548800Y-60909200D01*
X174548800Y-60909200D02*
X175006000Y-61366400D01*
X183083200Y-82956400D02*
X183388000Y-82956400D01*
X220535500Y-93599000D02*
X219011500Y-93599000D01*
X219011500Y-93599000D02*
X218217750Y-92805250D01*
X194335400Y-82956400D02*
X183438800Y-82956400D01*
X173913800Y-83997800D02*
X173913800Y-84505800D01*
X175463200Y-82448400D02*
X173913800Y-83997800D01*
X173913800Y-84531200D02*
X173913800Y-97129600D01*
X156146500Y-60515500D02*
X156146500Y-57785000D01*
X157162500Y-61531500D02*
X157187900Y-61531500D01*
X170332400Y-64465200D02*
X170332400Y-72694800D01*
X169926000Y-64058800D02*
X170332400Y-64465200D01*
X159715200Y-64058800D02*
X169926000Y-64058800D01*
X157187900Y-61531500D02*
X159715200Y-64058800D01*
X157162500Y-61531500D02*
X156146500Y-60515500D01*
X217106500Y-118427500D02*
X205168500Y-118427500D01*
X205168500Y-118427500D02*
X194945000Y-108204000D01*
X173024800Y-83616800D02*
X173024800Y-84074000D01*
X174244000Y-82397600D02*
X173024800Y-83616800D01*
X154876500Y-60642500D02*
X158902400Y-64668400D01*
X169468800Y-64922400D02*
X169468800Y-72694800D01*
X169214800Y-64668400D02*
X169468800Y-64922400D01*
X158902400Y-64668400D02*
X169214800Y-64668400D01*
X176479200Y-108178600D02*
X176479200Y-108204000D01*
X194945000Y-108204000D02*
X176479200Y-108204000D01*
X223075500Y-119634000D02*
X218313000Y-119634000D01*
X218313000Y-119634000D02*
X217106500Y-118427500D01*
X173024800Y-84074000D02*
X173024800Y-97155000D01*
X173024800Y-105587800D02*
X175641000Y-108204000D01*
X175641000Y-108204000D02*
X176453800Y-108204000D01*
X176453800Y-108204000D02*
X176479200Y-108178600D01*
X154876500Y-56515000D02*
X156146500Y-55245000D01*
X154876500Y-60642500D02*
X154876500Y-56515000D01*
X155956000Y-61722000D02*
X154876500Y-60642500D01*
X223075500Y-119634000D02*
X223075500Y-119888000D01*
X220535500Y-113284000D02*
X202184000Y-113284000D01*
X202184000Y-113284000D02*
X196037200Y-107137200D01*
X175641000Y-85064600D02*
X175641000Y-89179400D01*
X178054000Y-82651600D02*
X175641000Y-85064600D01*
X172161200Y-63144400D02*
X172161200Y-72694800D01*
X171856400Y-62839600D02*
X172161200Y-63144400D01*
X177444400Y-107137200D02*
X177977800Y-107137200D01*
X175793400Y-105486200D02*
X177444400Y-107137200D01*
X175641000Y-89204800D02*
X175641000Y-97155000D01*
X158692850Y-60458350D02*
X158705550Y-60458350D01*
X158705550Y-60458350D02*
X161086800Y-62839600D01*
X158692850Y-60458350D02*
X158686500Y-60452000D01*
X161086800Y-62839600D02*
X171856400Y-62839600D01*
X177977800Y-107137200D02*
X178612800Y-107137200D01*
X196037200Y-107137200D02*
X178612800Y-107137200D01*
X158686500Y-60452000D02*
X158686500Y-57785000D01*
X217582750Y-117443250D02*
X205309048Y-117443250D01*
X205309048Y-117443250D02*
X195561798Y-107696000D01*
X174777400Y-84988400D02*
X174777400Y-85140800D01*
X174777400Y-105537000D02*
X176936400Y-107696000D01*
X174777400Y-85140800D02*
X174777400Y-97155000D01*
X176936400Y-107696000D02*
X177165000Y-107696000D01*
X174777400Y-84505800D02*
X174777400Y-84988400D01*
X174777400Y-84988400D02*
X174777400Y-85064600D01*
X176784000Y-82499200D02*
X174777400Y-84505800D01*
X171196000Y-63957200D02*
X171196000Y-72694800D01*
X170688000Y-63449200D02*
X171196000Y-63957200D01*
X195561798Y-107696000D02*
X177190400Y-107696000D01*
X157429200Y-60401200D02*
X160477200Y-63449200D01*
X160477200Y-63449200D02*
X170688000Y-63449200D01*
X158369000Y-61341000D02*
X157429200Y-60401200D01*
X157429200Y-60401200D02*
X157416500Y-60388500D01*
X157416500Y-60388500D02*
X157416500Y-56578500D01*
X220535500Y-118364000D02*
X218503500Y-118364000D01*
X217582750Y-117443250D02*
X218503500Y-118364000D01*
X157416500Y-56578500D02*
X158686500Y-55308500D01*
X158686500Y-55308500D02*
X158686500Y-55245000D01*
X158686500Y-55245000D02*
X158623000Y-55245000D01*
X164744400Y-84759800D02*
X165074600Y-84759800D01*
X164668200Y-84759800D02*
X164744400Y-84759800D01*
X164744400Y-84759800D02*
X164769800Y-84759800D01*
X162356800Y-82448400D02*
X164668200Y-84759800D01*
X172593000Y-111353600D02*
X172593000Y-112776000D01*
X172593000Y-112776000D02*
X172593000Y-121666000D01*
X165074600Y-84759800D02*
X169240200Y-84759800D01*
X169240200Y-84759800D02*
X169291000Y-84810600D01*
X169291000Y-84810600D02*
X169291000Y-97155000D01*
X169291000Y-105638600D02*
X169291000Y-108051600D01*
X169291000Y-108051600D02*
X172593000Y-111353600D01*
X164846000Y-84759800D02*
X165074600Y-84759800D01*
X151066500Y-57785000D02*
X151066500Y-61963300D01*
X165912800Y-68376800D02*
X165912800Y-72694800D01*
X165150800Y-67614800D02*
X165912800Y-68376800D01*
X156718000Y-67614800D02*
X165150800Y-67614800D01*
X151066500Y-61963300D02*
X156718000Y-67614800D01*
X217646250Y-142144750D02*
X205771750Y-142144750D01*
X205771750Y-142144750D02*
X195326000Y-131699000D01*
X165608000Y-83667600D02*
X165760400Y-83667600D01*
X153212800Y-61518800D02*
X158089600Y-66395600D01*
X158089600Y-66395600D02*
X167182800Y-66395600D01*
X167182800Y-66395600D02*
X167690800Y-66903600D01*
X167690800Y-66903600D02*
X167690800Y-72694800D01*
X175641000Y-131699000D02*
X195326000Y-131699000D01*
X175260000Y-131699000D02*
X175641000Y-131699000D01*
X174498000Y-130937000D02*
X175260000Y-131699000D01*
X174498000Y-130302000D02*
X174498000Y-130937000D01*
X174498000Y-112268000D02*
X174498000Y-121666000D01*
X165760400Y-83667600D02*
X170840400Y-83667600D01*
X170840400Y-83667600D02*
X171119800Y-83947000D01*
X171119800Y-83947000D02*
X171119800Y-97180400D01*
X171119800Y-105638600D02*
X171119800Y-106934000D01*
X171119800Y-106934000D02*
X174498000Y-110312200D01*
X174498000Y-110312200D02*
X174498000Y-112268000D01*
X164439600Y-82499200D02*
X165608000Y-83667600D01*
X218503500Y-143002000D02*
X217646250Y-142144750D01*
X220535500Y-143002000D02*
X218503500Y-143002000D01*
X217297000Y-143129000D02*
X205232000Y-143129000D01*
X205232000Y-143129000D02*
X194564000Y-132461000D01*
X218871800Y-144272000D02*
X218440000Y-144272000D01*
X218440000Y-144272000D02*
X217297000Y-143129000D01*
X223075500Y-144272000D02*
X218871800Y-144272000D01*
X165100000Y-84226400D02*
X165303200Y-84226400D01*
X151066500Y-55245000D02*
X152336500Y-56515000D01*
X152336500Y-59232800D02*
X152336500Y-56515000D01*
X175006000Y-132461000D02*
X194564000Y-132461000D01*
X174498000Y-132461000D02*
X175006000Y-132461000D01*
X152336500Y-61810900D02*
X157530800Y-67005200D01*
X152336500Y-59232800D02*
X152336500Y-61810900D01*
X173609000Y-131572000D02*
X174498000Y-132461000D01*
X173609000Y-130302000D02*
X173609000Y-131572000D01*
X173609000Y-112522000D02*
X173609000Y-121666000D01*
X165303200Y-84226400D02*
X169799000Y-84226400D01*
X169799000Y-84226400D02*
X170205400Y-84632800D01*
X170205400Y-84632800D02*
X170205400Y-97155000D01*
X170205400Y-105587800D02*
X170205400Y-107594400D01*
X170205400Y-107594400D02*
X173609000Y-110998000D01*
X173609000Y-110998000D02*
X173609000Y-112522000D01*
X157530800Y-67005200D02*
X166624000Y-67005200D01*
X166624000Y-67005200D02*
X166827200Y-67208400D01*
X166827200Y-67208400D02*
X166827200Y-72694800D01*
X163372800Y-82499200D02*
X165100000Y-84226400D01*
X223075500Y-144272000D02*
X223075500Y-144589500D01*
D19*
X227012500Y-141160500D02*
X225044000Y-139192000D01*
X225044000Y-139192000D02*
X223075500Y-139192000D01*
X227012500Y-146558000D02*
X227012500Y-141160500D01*
X220853000Y-140144500D02*
X220535500Y-140462000D01*
X221678500Y-140144500D02*
X220853000Y-140144500D01*
X222631000Y-139192000D02*
X221678500Y-140144500D01*
X223075500Y-139192000D02*
X222631000Y-139192000D01*
D18*
X163322000Y-150495000D02*
X163322000Y-150622000D01*
X163322000Y-150622000D02*
X163322000Y-150495000D01*
X163322000Y-150495000D02*
X163322000Y-150622000D01*
X233235500Y-131826000D02*
X233235500Y-147574000D01*
X223075500Y-139192000D02*
X231775000Y-139192000D01*
X233235500Y-137731500D02*
X233235500Y-131826000D01*
X231775000Y-139192000D02*
X233235500Y-137731500D01*
D19*
X140017500Y-137414000D02*
X142557500Y-137414000D01*
X142557500Y-137414000D02*
X142557500Y-139954000D01*
X142557500Y-139954000D02*
X140017500Y-139954000D01*
X140017500Y-139954000D02*
X140017500Y-137414000D01*
D18*
X140652500Y-137414000D02*
X140017500Y-137414000D01*
D19*
X146558000Y-139954000D02*
X148145500Y-141541500D01*
X142557500Y-139954000D02*
X146558000Y-139954000D01*
X157226000Y-150622000D02*
X148145500Y-141541500D01*
X222948500Y-150622000D02*
X163322000Y-150622000D01*
X163322000Y-150622000D02*
X157226000Y-150622000D01*
X227012500Y-146558000D02*
X222948500Y-150622000D01*
D18*
X220535500Y-137922000D02*
X202819000Y-137922000D01*
X202819000Y-137922000D02*
X195834000Y-130937000D01*
X166014400Y-83032600D02*
X166344600Y-83032600D01*
X165989000Y-83032600D02*
X166014400Y-83032600D01*
X166014400Y-83032600D02*
X166039800Y-83032600D01*
X165455600Y-82499200D02*
X165989000Y-83032600D01*
X175387000Y-108966000D02*
X175387000Y-112141000D01*
X175387000Y-112141000D02*
X175387000Y-121666000D01*
X166344600Y-83032600D02*
X171069000Y-83032600D01*
X171069000Y-83032600D02*
X172034200Y-83997800D01*
X172034200Y-83997800D02*
X172034200Y-97155000D01*
X172034200Y-105613200D02*
X175387000Y-108966000D01*
X175387000Y-130302000D02*
X176022000Y-130937000D01*
X176403000Y-130937000D02*
X195834000Y-130937000D01*
X176022000Y-130937000D02*
X176403000Y-130937000D01*
X166116000Y-83032600D02*
X166344600Y-83032600D01*
X168554400Y-66040000D02*
X168554400Y-72694800D01*
X167995600Y-65481200D02*
X168554400Y-66040000D01*
X158394400Y-65481200D02*
X167995600Y-65481200D01*
X153606500Y-60693300D02*
X158394400Y-65481200D01*
X153606500Y-57785000D02*
X153606500Y-60693300D01*
X219329000Y-137922000D02*
X220535500Y-137922000D01*
D20*
G36*
X234442000Y-152388500D02*
X152949106Y-152388500D01*
X148207911Y-147647305D01*
X178055174Y-147647305D01*
X178341543Y-148340372D01*
X178871339Y-148871093D01*
X179563905Y-149158672D01*
X180313805Y-149159326D01*
X181006872Y-148872957D01*
X181537593Y-148343161D01*
X181805979Y-147696815D01*
X190005130Y-147696815D01*
X190329480Y-148481800D01*
X190929541Y-149082909D01*
X191713959Y-149408628D01*
X192563315Y-149409370D01*
X193348300Y-149085020D01*
X193949409Y-148484959D01*
X194275128Y-147700541D01*
X194275870Y-146851185D01*
X193951520Y-146066200D01*
X193899736Y-146014325D01*
X227548087Y-146014325D01*
X227910416Y-146891229D01*
X228580742Y-147562726D01*
X229457013Y-147926585D01*
X230405825Y-147927413D01*
X231282729Y-147565084D01*
X231954226Y-146894758D01*
X232318085Y-146018487D01*
X232318913Y-145069675D01*
X231956584Y-144192771D01*
X231286258Y-143521274D01*
X230409987Y-143157415D01*
X229461175Y-143156587D01*
X228584271Y-143518916D01*
X227912774Y-144189242D01*
X227548915Y-145065513D01*
X227548087Y-146014325D01*
X193899736Y-146014325D01*
X193351459Y-145465091D01*
X192567041Y-145139372D01*
X191717685Y-145138630D01*
X190932700Y-145462980D01*
X190331591Y-146063041D01*
X190005872Y-146847459D01*
X190005130Y-147696815D01*
X181805979Y-147696815D01*
X181825172Y-147650595D01*
X181825826Y-146900695D01*
X181539457Y-146207628D01*
X181009661Y-145676907D01*
X180317095Y-145389328D01*
X179567195Y-145388674D01*
X178874128Y-145675043D01*
X178343407Y-146204839D01*
X178055828Y-146897405D01*
X178055174Y-147647305D01*
X148207911Y-147647305D01*
X144272000Y-143711394D01*
X144272000Y-142316200D01*
X144261994Y-142266790D01*
X144234803Y-142226397D01*
X143948767Y-141940361D01*
X143945854Y-141925715D01*
X143623947Y-141443946D01*
X143142178Y-141122039D01*
X142573893Y-141009000D01*
X142515707Y-141009000D01*
X141947422Y-141122039D01*
X141946882Y-141122400D01*
X140602718Y-141122400D01*
X140602178Y-141122039D01*
X140033893Y-141009000D01*
X139975707Y-141009000D01*
X139407422Y-141122039D01*
X139406882Y-141122400D01*
X139039600Y-141122400D01*
X139039600Y-136474200D01*
X153566594Y-136474200D01*
X161301797Y-144209403D01*
X161343811Y-144237266D01*
X161391600Y-144246600D01*
X217193594Y-144246600D01*
X218654997Y-145708003D01*
X218697011Y-145735866D01*
X218744800Y-145745200D01*
X223393000Y-145745200D01*
X223442410Y-145735194D01*
X223482803Y-145708003D01*
X223662972Y-145527834D01*
X223859015Y-145446831D01*
X224248961Y-145057564D01*
X224460259Y-144548702D01*
X224460740Y-143997715D01*
X224250331Y-143488485D01*
X224231200Y-143469321D01*
X224231200Y-142535294D01*
X224248961Y-142517564D01*
X224460259Y-142008702D01*
X224460740Y-141457715D01*
X224250331Y-140948485D01*
X223861064Y-140558539D01*
X223352202Y-140347241D01*
X222801215Y-140346760D01*
X222291985Y-140557169D01*
X222256204Y-140592887D01*
X222225990Y-140599006D01*
X222185597Y-140626197D01*
X221460794Y-141351000D01*
X219583000Y-141351000D01*
X219583000Y-139344400D01*
X221208600Y-139344400D01*
X221258010Y-139334394D01*
X221298403Y-139307203D01*
X222531206Y-138074400D01*
X223697800Y-138074400D01*
X223747210Y-138064394D01*
X223787603Y-138037203D01*
X225071206Y-136753600D01*
X230073200Y-136753600D01*
X230122610Y-136743594D01*
X230163003Y-136716403D01*
X231991803Y-134887603D01*
X232019666Y-134845589D01*
X232029000Y-134797800D01*
X232029000Y-134378772D01*
X232068128Y-134284541D01*
X232068870Y-133435185D01*
X232029000Y-133338692D01*
X232029000Y-130606800D01*
X234442000Y-130606800D01*
X234442000Y-152388500D01*
X234442000Y-152388500D01*
G37*
X234442000Y-152388500D02*
X152949106Y-152388500D01*
X148207911Y-147647305D01*
X178055174Y-147647305D01*
X178341543Y-148340372D01*
X178871339Y-148871093D01*
X179563905Y-149158672D01*
X180313805Y-149159326D01*
X181006872Y-148872957D01*
X181537593Y-148343161D01*
X181805979Y-147696815D01*
X190005130Y-147696815D01*
X190329480Y-148481800D01*
X190929541Y-149082909D01*
X191713959Y-149408628D01*
X192563315Y-149409370D01*
X193348300Y-149085020D01*
X193949409Y-148484959D01*
X194275128Y-147700541D01*
X194275870Y-146851185D01*
X193951520Y-146066200D01*
X193899736Y-146014325D01*
X227548087Y-146014325D01*
X227910416Y-146891229D01*
X228580742Y-147562726D01*
X229457013Y-147926585D01*
X230405825Y-147927413D01*
X231282729Y-147565084D01*
X231954226Y-146894758D01*
X232318085Y-146018487D01*
X232318913Y-145069675D01*
X231956584Y-144192771D01*
X231286258Y-143521274D01*
X230409987Y-143157415D01*
X229461175Y-143156587D01*
X228584271Y-143518916D01*
X227912774Y-144189242D01*
X227548915Y-145065513D01*
X227548087Y-146014325D01*
X193899736Y-146014325D01*
X193351459Y-145465091D01*
X192567041Y-145139372D01*
X191717685Y-145138630D01*
X190932700Y-145462980D01*
X190331591Y-146063041D01*
X190005872Y-146847459D01*
X190005130Y-147696815D01*
X181805979Y-147696815D01*
X181825172Y-147650595D01*
X181825826Y-146900695D01*
X181539457Y-146207628D01*
X181009661Y-145676907D01*
X180317095Y-145389328D01*
X179567195Y-145388674D01*
X178874128Y-145675043D01*
X178343407Y-146204839D01*
X178055828Y-146897405D01*
X178055174Y-147647305D01*
X148207911Y-147647305D01*
X144272000Y-143711394D01*
X144272000Y-142316200D01*
X144261994Y-142266790D01*
X144234803Y-142226397D01*
X143948767Y-141940361D01*
X143945854Y-141925715D01*
X143623947Y-141443946D01*
X143142178Y-141122039D01*
X142573893Y-141009000D01*
X142515707Y-141009000D01*
X141947422Y-141122039D01*
X141946882Y-141122400D01*
X140602718Y-141122400D01*
X140602178Y-141122039D01*
X140033893Y-141009000D01*
X139975707Y-141009000D01*
X139407422Y-141122039D01*
X139406882Y-141122400D01*
X139039600Y-141122400D01*
X139039600Y-136474200D01*
X153566594Y-136474200D01*
X161301797Y-144209403D01*
X161343811Y-144237266D01*
X161391600Y-144246600D01*
X217193594Y-144246600D01*
X218654997Y-145708003D01*
X218697011Y-145735866D01*
X218744800Y-145745200D01*
X223393000Y-145745200D01*
X223442410Y-145735194D01*
X223482803Y-145708003D01*
X223662972Y-145527834D01*
X223859015Y-145446831D01*
X224248961Y-145057564D01*
X224460259Y-144548702D01*
X224460740Y-143997715D01*
X224250331Y-143488485D01*
X224231200Y-143469321D01*
X224231200Y-142535294D01*
X224248961Y-142517564D01*
X224460259Y-142008702D01*
X224460740Y-141457715D01*
X224250331Y-140948485D01*
X223861064Y-140558539D01*
X223352202Y-140347241D01*
X222801215Y-140346760D01*
X222291985Y-140557169D01*
X222256204Y-140592887D01*
X222225990Y-140599006D01*
X222185597Y-140626197D01*
X221460794Y-141351000D01*
X219583000Y-141351000D01*
X219583000Y-139344400D01*
X221208600Y-139344400D01*
X221258010Y-139334394D01*
X221298403Y-139307203D01*
X222531206Y-138074400D01*
X223697800Y-138074400D01*
X223747210Y-138064394D01*
X223787603Y-138037203D01*
X225071206Y-136753600D01*
X230073200Y-136753600D01*
X230122610Y-136743594D01*
X230163003Y-136716403D01*
X231991803Y-134887603D01*
X232019666Y-134845589D01*
X232029000Y-134797800D01*
X232029000Y-134378772D01*
X232068128Y-134284541D01*
X232068870Y-133435185D01*
X232029000Y-133338692D01*
X232029000Y-130606800D01*
X234442000Y-130606800D01*
X234442000Y-152388500D01*
G36*
X234442000Y-128219200D02*
X199542400Y-128219200D01*
X199492990Y-128229206D01*
X199452597Y-128256397D01*
X197889594Y-129819400D01*
X176199265Y-129819400D01*
X176180117Y-129773057D01*
X175917327Y-129509808D01*
X175573799Y-129367162D01*
X175201833Y-129366838D01*
X174942286Y-129474080D01*
X174684799Y-129367162D01*
X174312833Y-129366838D01*
X174053286Y-129474080D01*
X173795799Y-129367162D01*
X173423833Y-129366838D01*
X173080057Y-129508883D01*
X172816808Y-129771673D01*
X172796990Y-129819400D01*
X155043406Y-129819400D01*
X148169811Y-122945805D01*
X178118674Y-122945805D01*
X178405043Y-123638872D01*
X178934839Y-124169593D01*
X179627405Y-124457172D01*
X180377305Y-124457826D01*
X181070372Y-124171457D01*
X181601093Y-123641661D01*
X181869479Y-122995315D01*
X190068630Y-122995315D01*
X190392980Y-123780300D01*
X190993041Y-124381409D01*
X191777459Y-124707128D01*
X192626815Y-124707870D01*
X193411800Y-124383520D01*
X194012909Y-123783459D01*
X194338628Y-122999041D01*
X194339370Y-122149685D01*
X194019824Y-121376325D01*
X227548087Y-121376325D01*
X227910416Y-122253229D01*
X228580742Y-122924726D01*
X229457013Y-123288585D01*
X230405825Y-123289413D01*
X231282729Y-122927084D01*
X231954226Y-122256758D01*
X232318085Y-121380487D01*
X232318913Y-120431675D01*
X231956584Y-119554771D01*
X231286258Y-118883274D01*
X230409987Y-118519415D01*
X229461175Y-118518587D01*
X228584271Y-118880916D01*
X227912774Y-119551242D01*
X227548915Y-120427513D01*
X227548087Y-121376325D01*
X194019824Y-121376325D01*
X194015020Y-121364700D01*
X193414959Y-120763591D01*
X192630541Y-120437872D01*
X191781185Y-120437130D01*
X190996200Y-120761480D01*
X190395091Y-121361541D01*
X190069372Y-122145959D01*
X190068630Y-122995315D01*
X181869479Y-122995315D01*
X181888672Y-122949095D01*
X181889326Y-122199195D01*
X181602957Y-121506128D01*
X181073161Y-120975407D01*
X180380595Y-120687828D01*
X179630695Y-120687174D01*
X178937628Y-120973543D01*
X178406907Y-121503339D01*
X178119328Y-122195905D01*
X178118674Y-122945805D01*
X148169811Y-122945805D01*
X144272000Y-119047994D01*
X144272000Y-117652800D01*
X144261994Y-117603390D01*
X144234803Y-117562997D01*
X143955074Y-117283268D01*
X143945854Y-117236915D01*
X143623947Y-116755146D01*
X143142178Y-116433239D01*
X142573893Y-116320200D01*
X142515707Y-116320200D01*
X141947422Y-116433239D01*
X141908868Y-116459000D01*
X140640732Y-116459000D01*
X140602178Y-116433239D01*
X140033893Y-116320200D01*
X139975707Y-116320200D01*
X139407422Y-116433239D01*
X139368868Y-116459000D01*
X139039600Y-116459000D01*
X139039600Y-111810800D01*
X153566594Y-111810800D01*
X161301797Y-119546003D01*
X161343811Y-119573866D01*
X161391600Y-119583200D01*
X171833000Y-119583200D01*
X171833000Y-121103537D01*
X171800808Y-121135673D01*
X171658162Y-121479201D01*
X171657838Y-121851167D01*
X171799883Y-122194943D01*
X172062673Y-122458192D01*
X172406201Y-122600838D01*
X172778167Y-122601162D01*
X173101371Y-122467617D01*
X173422201Y-122600838D01*
X173794167Y-122601162D01*
X174053714Y-122493920D01*
X174311201Y-122600838D01*
X174683167Y-122601162D01*
X174942714Y-122493920D01*
X175200201Y-122600838D01*
X175572167Y-122601162D01*
X175915943Y-122459117D01*
X176179192Y-122196327D01*
X176321838Y-121852799D01*
X176322162Y-121480833D01*
X176180117Y-121137057D01*
X176147000Y-121103882D01*
X176147000Y-119583200D01*
X217187398Y-119583200D01*
X217775599Y-120171401D01*
X217794272Y-120183878D01*
X218654997Y-121044603D01*
X218697011Y-121072466D01*
X218744800Y-121081800D01*
X223393000Y-121081800D01*
X223442410Y-121071794D01*
X223482803Y-121044603D01*
X223619687Y-120907719D01*
X223859015Y-120808831D01*
X224248961Y-120419564D01*
X224460259Y-119910702D01*
X224460740Y-119359715D01*
X224250331Y-118850485D01*
X224231200Y-118831321D01*
X224231200Y-117897294D01*
X224248961Y-117879564D01*
X224460259Y-117370702D01*
X224460740Y-116819715D01*
X224250331Y-116310485D01*
X223861064Y-115920539D01*
X223352202Y-115709241D01*
X222801215Y-115708760D01*
X222291985Y-115919169D01*
X222285543Y-115925600D01*
X222275400Y-115925600D01*
X222225990Y-115935606D01*
X222185597Y-115962797D01*
X221460794Y-116687600D01*
X219583000Y-116687600D01*
X219583000Y-114681000D01*
X221208600Y-114681000D01*
X221258010Y-114670994D01*
X221298403Y-114643803D01*
X222531206Y-113411000D01*
X223697800Y-113411000D01*
X223747210Y-113400994D01*
X223787603Y-113373803D01*
X225071206Y-112090200D01*
X230073200Y-112090200D01*
X230122610Y-112080194D01*
X230163003Y-112053003D01*
X231991803Y-110224203D01*
X232019666Y-110182189D01*
X232029000Y-110134400D01*
X232029000Y-109740772D01*
X232068128Y-109646541D01*
X232068870Y-108797185D01*
X232029000Y-108700692D01*
X232029000Y-105943400D01*
X234442000Y-105943400D01*
X234442000Y-128219200D01*
X234442000Y-128219200D01*
G37*
X234442000Y-128219200D02*
X199542400Y-128219200D01*
X199492990Y-128229206D01*
X199452597Y-128256397D01*
X197889594Y-129819400D01*
X176199265Y-129819400D01*
X176180117Y-129773057D01*
X175917327Y-129509808D01*
X175573799Y-129367162D01*
X175201833Y-129366838D01*
X174942286Y-129474080D01*
X174684799Y-129367162D01*
X174312833Y-129366838D01*
X174053286Y-129474080D01*
X173795799Y-129367162D01*
X173423833Y-129366838D01*
X173080057Y-129508883D01*
X172816808Y-129771673D01*
X172796990Y-129819400D01*
X155043406Y-129819400D01*
X148169811Y-122945805D01*
X178118674Y-122945805D01*
X178405043Y-123638872D01*
X178934839Y-124169593D01*
X179627405Y-124457172D01*
X180377305Y-124457826D01*
X181070372Y-124171457D01*
X181601093Y-123641661D01*
X181869479Y-122995315D01*
X190068630Y-122995315D01*
X190392980Y-123780300D01*
X190993041Y-124381409D01*
X191777459Y-124707128D01*
X192626815Y-124707870D01*
X193411800Y-124383520D01*
X194012909Y-123783459D01*
X194338628Y-122999041D01*
X194339370Y-122149685D01*
X194019824Y-121376325D01*
X227548087Y-121376325D01*
X227910416Y-122253229D01*
X228580742Y-122924726D01*
X229457013Y-123288585D01*
X230405825Y-123289413D01*
X231282729Y-122927084D01*
X231954226Y-122256758D01*
X232318085Y-121380487D01*
X232318913Y-120431675D01*
X231956584Y-119554771D01*
X231286258Y-118883274D01*
X230409987Y-118519415D01*
X229461175Y-118518587D01*
X228584271Y-118880916D01*
X227912774Y-119551242D01*
X227548915Y-120427513D01*
X227548087Y-121376325D01*
X194019824Y-121376325D01*
X194015020Y-121364700D01*
X193414959Y-120763591D01*
X192630541Y-120437872D01*
X191781185Y-120437130D01*
X190996200Y-120761480D01*
X190395091Y-121361541D01*
X190069372Y-122145959D01*
X190068630Y-122995315D01*
X181869479Y-122995315D01*
X181888672Y-122949095D01*
X181889326Y-122199195D01*
X181602957Y-121506128D01*
X181073161Y-120975407D01*
X180380595Y-120687828D01*
X179630695Y-120687174D01*
X178937628Y-120973543D01*
X178406907Y-121503339D01*
X178119328Y-122195905D01*
X178118674Y-122945805D01*
X148169811Y-122945805D01*
X144272000Y-119047994D01*
X144272000Y-117652800D01*
X144261994Y-117603390D01*
X144234803Y-117562997D01*
X143955074Y-117283268D01*
X143945854Y-117236915D01*
X143623947Y-116755146D01*
X143142178Y-116433239D01*
X142573893Y-116320200D01*
X142515707Y-116320200D01*
X141947422Y-116433239D01*
X141908868Y-116459000D01*
X140640732Y-116459000D01*
X140602178Y-116433239D01*
X140033893Y-116320200D01*
X139975707Y-116320200D01*
X139407422Y-116433239D01*
X139368868Y-116459000D01*
X139039600Y-116459000D01*
X139039600Y-111810800D01*
X153566594Y-111810800D01*
X161301797Y-119546003D01*
X161343811Y-119573866D01*
X161391600Y-119583200D01*
X171833000Y-119583200D01*
X171833000Y-121103537D01*
X171800808Y-121135673D01*
X171658162Y-121479201D01*
X171657838Y-121851167D01*
X171799883Y-122194943D01*
X172062673Y-122458192D01*
X172406201Y-122600838D01*
X172778167Y-122601162D01*
X173101371Y-122467617D01*
X173422201Y-122600838D01*
X173794167Y-122601162D01*
X174053714Y-122493920D01*
X174311201Y-122600838D01*
X174683167Y-122601162D01*
X174942714Y-122493920D01*
X175200201Y-122600838D01*
X175572167Y-122601162D01*
X175915943Y-122459117D01*
X176179192Y-122196327D01*
X176321838Y-121852799D01*
X176322162Y-121480833D01*
X176180117Y-121137057D01*
X176147000Y-121103882D01*
X176147000Y-119583200D01*
X217187398Y-119583200D01*
X217775599Y-120171401D01*
X217794272Y-120183878D01*
X218654997Y-121044603D01*
X218697011Y-121072466D01*
X218744800Y-121081800D01*
X223393000Y-121081800D01*
X223442410Y-121071794D01*
X223482803Y-121044603D01*
X223619687Y-120907719D01*
X223859015Y-120808831D01*
X224248961Y-120419564D01*
X224460259Y-119910702D01*
X224460740Y-119359715D01*
X224250331Y-118850485D01*
X224231200Y-118831321D01*
X224231200Y-117897294D01*
X224248961Y-117879564D01*
X224460259Y-117370702D01*
X224460740Y-116819715D01*
X224250331Y-116310485D01*
X223861064Y-115920539D01*
X223352202Y-115709241D01*
X222801215Y-115708760D01*
X222291985Y-115919169D01*
X222285543Y-115925600D01*
X222275400Y-115925600D01*
X222225990Y-115935606D01*
X222185597Y-115962797D01*
X221460794Y-116687600D01*
X219583000Y-116687600D01*
X219583000Y-114681000D01*
X221208600Y-114681000D01*
X221258010Y-114670994D01*
X221298403Y-114643803D01*
X222531206Y-113411000D01*
X223697800Y-113411000D01*
X223747210Y-113400994D01*
X223787603Y-113373803D01*
X225071206Y-112090200D01*
X230073200Y-112090200D01*
X230122610Y-112080194D01*
X230163003Y-112053003D01*
X231991803Y-110224203D01*
X232019666Y-110182189D01*
X232029000Y-110134400D01*
X232029000Y-109740772D01*
X232068128Y-109646541D01*
X232068870Y-108797185D01*
X232029000Y-108700692D01*
X232029000Y-105943400D01*
X234442000Y-105943400D01*
X234442000Y-128219200D01*
G36*
X234442000Y-103454200D02*
X198653400Y-103454200D01*
X198603990Y-103464206D01*
X198563597Y-103491397D01*
X197508594Y-104546400D01*
X154535406Y-104546400D01*
X148233311Y-98244305D01*
X178055174Y-98244305D01*
X178341543Y-98937372D01*
X178871339Y-99468093D01*
X179563905Y-99755672D01*
X180313805Y-99756326D01*
X181006872Y-99469957D01*
X181537593Y-98940161D01*
X181805979Y-98293815D01*
X190005130Y-98293815D01*
X190329480Y-99078800D01*
X190929541Y-99679909D01*
X191713959Y-100005628D01*
X192563315Y-100006370D01*
X193348300Y-99682020D01*
X193949409Y-99081959D01*
X194275128Y-98297541D01*
X194275870Y-97448185D01*
X193951520Y-96663200D01*
X193899736Y-96611325D01*
X227548087Y-96611325D01*
X227910416Y-97488229D01*
X228580742Y-98159726D01*
X229457013Y-98523585D01*
X230405825Y-98524413D01*
X231282729Y-98162084D01*
X231954226Y-97491758D01*
X232318085Y-96615487D01*
X232318913Y-95666675D01*
X231956584Y-94789771D01*
X231286258Y-94118274D01*
X230409987Y-93754415D01*
X229461175Y-93753587D01*
X228584271Y-94115916D01*
X227912774Y-94786242D01*
X227548915Y-95662513D01*
X227548087Y-96611325D01*
X193899736Y-96611325D01*
X193351459Y-96062091D01*
X192567041Y-95736372D01*
X191717685Y-95735630D01*
X190932700Y-96059980D01*
X190331591Y-96660041D01*
X190005872Y-97444459D01*
X190005130Y-98293815D01*
X181805979Y-98293815D01*
X181825172Y-98247595D01*
X181825826Y-97497695D01*
X181539457Y-96804628D01*
X181009661Y-96273907D01*
X180317095Y-95986328D01*
X179567195Y-95985674D01*
X178874128Y-96272043D01*
X178343407Y-96801839D01*
X178055828Y-97494405D01*
X178055174Y-98244305D01*
X148233311Y-98244305D01*
X144272000Y-94282994D01*
X144272000Y-92887800D01*
X144261994Y-92838390D01*
X144234803Y-92797997D01*
X143867187Y-92430381D01*
X143623947Y-92066346D01*
X143259912Y-91823106D01*
X143168003Y-91731197D01*
X143125989Y-91703334D01*
X143078200Y-91694000D01*
X142888604Y-91694000D01*
X142573893Y-91631400D01*
X142515707Y-91631400D01*
X142200996Y-91694000D01*
X140348604Y-91694000D01*
X140033893Y-91631400D01*
X139975707Y-91631400D01*
X139660996Y-91694000D01*
X139039600Y-91694000D01*
X139039600Y-87045800D01*
X153566594Y-87045800D01*
X161301797Y-94781003D01*
X161343811Y-94808866D01*
X161391600Y-94818200D01*
X168531000Y-94818200D01*
X168531000Y-96592537D01*
X168498808Y-96624673D01*
X168356162Y-96968201D01*
X168355838Y-97340167D01*
X168497883Y-97683943D01*
X168760673Y-97947192D01*
X169104201Y-98089838D01*
X169476167Y-98090162D01*
X169748446Y-97977659D01*
X170018601Y-98089838D01*
X170390567Y-98090162D01*
X170632185Y-97990328D01*
X170933001Y-98115238D01*
X171304967Y-98115562D01*
X171607906Y-97990390D01*
X171847401Y-98089838D01*
X172219367Y-98090162D01*
X172529840Y-97961878D01*
X172838001Y-98089838D01*
X173209967Y-98090162D01*
X173500175Y-97970251D01*
X173727001Y-98064438D01*
X174098967Y-98064762D01*
X174315122Y-97975449D01*
X174590601Y-98089838D01*
X174962567Y-98090162D01*
X175209383Y-97988180D01*
X175454201Y-98089838D01*
X175826167Y-98090162D01*
X176169943Y-97948117D01*
X176433192Y-97685327D01*
X176575838Y-97341799D01*
X176576162Y-96969833D01*
X176434117Y-96626057D01*
X176401000Y-96592882D01*
X176401000Y-94818200D01*
X217193594Y-94818200D01*
X218654997Y-96279603D01*
X218697011Y-96307466D01*
X218744800Y-96316800D01*
X223393000Y-96316800D01*
X223442410Y-96306794D01*
X223482803Y-96279603D01*
X223619687Y-96142719D01*
X223859015Y-96043831D01*
X224248961Y-95654564D01*
X224460259Y-95145702D01*
X224460740Y-94594715D01*
X224250331Y-94085485D01*
X224231200Y-94066321D01*
X224231200Y-93132294D01*
X224248961Y-93114564D01*
X224460259Y-92605702D01*
X224460740Y-92054715D01*
X224250331Y-91545485D01*
X223861064Y-91155539D01*
X223352202Y-90944241D01*
X222801215Y-90943760D01*
X222291985Y-91154169D01*
X222285543Y-91160600D01*
X222275400Y-91160600D01*
X222225990Y-91170606D01*
X222185597Y-91197797D01*
X221460794Y-91922600D01*
X219583000Y-91922600D01*
X219583000Y-89916000D01*
X221208600Y-89916000D01*
X221258010Y-89905994D01*
X221298403Y-89878803D01*
X222531206Y-88646000D01*
X223697800Y-88646000D01*
X223747210Y-88635994D01*
X223787603Y-88608803D01*
X225071206Y-87325200D01*
X230073200Y-87325200D01*
X230122610Y-87315194D01*
X230163003Y-87288003D01*
X231991803Y-85459203D01*
X232019666Y-85417189D01*
X232029000Y-85369400D01*
X232029000Y-84975772D01*
X232068128Y-84881541D01*
X232068870Y-84032185D01*
X232029000Y-83935692D01*
X232029000Y-81178400D01*
X234442000Y-81178400D01*
X234442000Y-103454200D01*
X234442000Y-103454200D01*
G37*
X234442000Y-103454200D02*
X198653400Y-103454200D01*
X198603990Y-103464206D01*
X198563597Y-103491397D01*
X197508594Y-104546400D01*
X154535406Y-104546400D01*
X148233311Y-98244305D01*
X178055174Y-98244305D01*
X178341543Y-98937372D01*
X178871339Y-99468093D01*
X179563905Y-99755672D01*
X180313805Y-99756326D01*
X181006872Y-99469957D01*
X181537593Y-98940161D01*
X181805979Y-98293815D01*
X190005130Y-98293815D01*
X190329480Y-99078800D01*
X190929541Y-99679909D01*
X191713959Y-100005628D01*
X192563315Y-100006370D01*
X193348300Y-99682020D01*
X193949409Y-99081959D01*
X194275128Y-98297541D01*
X194275870Y-97448185D01*
X193951520Y-96663200D01*
X193899736Y-96611325D01*
X227548087Y-96611325D01*
X227910416Y-97488229D01*
X228580742Y-98159726D01*
X229457013Y-98523585D01*
X230405825Y-98524413D01*
X231282729Y-98162084D01*
X231954226Y-97491758D01*
X232318085Y-96615487D01*
X232318913Y-95666675D01*
X231956584Y-94789771D01*
X231286258Y-94118274D01*
X230409987Y-93754415D01*
X229461175Y-93753587D01*
X228584271Y-94115916D01*
X227912774Y-94786242D01*
X227548915Y-95662513D01*
X227548087Y-96611325D01*
X193899736Y-96611325D01*
X193351459Y-96062091D01*
X192567041Y-95736372D01*
X191717685Y-95735630D01*
X190932700Y-96059980D01*
X190331591Y-96660041D01*
X190005872Y-97444459D01*
X190005130Y-98293815D01*
X181805979Y-98293815D01*
X181825172Y-98247595D01*
X181825826Y-97497695D01*
X181539457Y-96804628D01*
X181009661Y-96273907D01*
X180317095Y-95986328D01*
X179567195Y-95985674D01*
X178874128Y-96272043D01*
X178343407Y-96801839D01*
X178055828Y-97494405D01*
X178055174Y-98244305D01*
X148233311Y-98244305D01*
X144272000Y-94282994D01*
X144272000Y-92887800D01*
X144261994Y-92838390D01*
X144234803Y-92797997D01*
X143867187Y-92430381D01*
X143623947Y-92066346D01*
X143259912Y-91823106D01*
X143168003Y-91731197D01*
X143125989Y-91703334D01*
X143078200Y-91694000D01*
X142888604Y-91694000D01*
X142573893Y-91631400D01*
X142515707Y-91631400D01*
X142200996Y-91694000D01*
X140348604Y-91694000D01*
X140033893Y-91631400D01*
X139975707Y-91631400D01*
X139660996Y-91694000D01*
X139039600Y-91694000D01*
X139039600Y-87045800D01*
X153566594Y-87045800D01*
X161301797Y-94781003D01*
X161343811Y-94808866D01*
X161391600Y-94818200D01*
X168531000Y-94818200D01*
X168531000Y-96592537D01*
X168498808Y-96624673D01*
X168356162Y-96968201D01*
X168355838Y-97340167D01*
X168497883Y-97683943D01*
X168760673Y-97947192D01*
X169104201Y-98089838D01*
X169476167Y-98090162D01*
X169748446Y-97977659D01*
X170018601Y-98089838D01*
X170390567Y-98090162D01*
X170632185Y-97990328D01*
X170933001Y-98115238D01*
X171304967Y-98115562D01*
X171607906Y-97990390D01*
X171847401Y-98089838D01*
X172219367Y-98090162D01*
X172529840Y-97961878D01*
X172838001Y-98089838D01*
X173209967Y-98090162D01*
X173500175Y-97970251D01*
X173727001Y-98064438D01*
X174098967Y-98064762D01*
X174315122Y-97975449D01*
X174590601Y-98089838D01*
X174962567Y-98090162D01*
X175209383Y-97988180D01*
X175454201Y-98089838D01*
X175826167Y-98090162D01*
X176169943Y-97948117D01*
X176433192Y-97685327D01*
X176575838Y-97341799D01*
X176576162Y-96969833D01*
X176434117Y-96626057D01*
X176401000Y-96592882D01*
X176401000Y-94818200D01*
X217193594Y-94818200D01*
X218654997Y-96279603D01*
X218697011Y-96307466D01*
X218744800Y-96316800D01*
X223393000Y-96316800D01*
X223442410Y-96306794D01*
X223482803Y-96279603D01*
X223619687Y-96142719D01*
X223859015Y-96043831D01*
X224248961Y-95654564D01*
X224460259Y-95145702D01*
X224460740Y-94594715D01*
X224250331Y-94085485D01*
X224231200Y-94066321D01*
X224231200Y-93132294D01*
X224248961Y-93114564D01*
X224460259Y-92605702D01*
X224460740Y-92054715D01*
X224250331Y-91545485D01*
X223861064Y-91155539D01*
X223352202Y-90944241D01*
X222801215Y-90943760D01*
X222291985Y-91154169D01*
X222285543Y-91160600D01*
X222275400Y-91160600D01*
X222225990Y-91170606D01*
X222185597Y-91197797D01*
X221460794Y-91922600D01*
X219583000Y-91922600D01*
X219583000Y-89916000D01*
X221208600Y-89916000D01*
X221258010Y-89905994D01*
X221298403Y-89878803D01*
X222531206Y-88646000D01*
X223697800Y-88646000D01*
X223747210Y-88635994D01*
X223787603Y-88608803D01*
X225071206Y-87325200D01*
X230073200Y-87325200D01*
X230122610Y-87315194D01*
X230163003Y-87288003D01*
X231991803Y-85459203D01*
X232019666Y-85417189D01*
X232029000Y-85369400D01*
X232029000Y-84975772D01*
X232068128Y-84881541D01*
X232068870Y-84032185D01*
X232029000Y-83935692D01*
X232029000Y-81178400D01*
X234442000Y-81178400D01*
X234442000Y-103454200D01*
G36*
X234442000Y-78765400D02*
X198348600Y-78765400D01*
X198299190Y-78775406D01*
X198258797Y-78802597D01*
X195933794Y-81127600D01*
X182751098Y-81127600D01*
X182457199Y-81005562D01*
X182085233Y-81005238D01*
X181789094Y-81127600D01*
X181358758Y-81127600D01*
X181187199Y-81056362D01*
X180815233Y-81056038D01*
X180642039Y-81127600D01*
X155805406Y-81127600D01*
X144272000Y-69594194D01*
X144272000Y-68199000D01*
X144261994Y-68149590D01*
X144234803Y-68109197D01*
X143662599Y-67536993D01*
X143623947Y-67479146D01*
X143566100Y-67440494D01*
X143168003Y-67042397D01*
X143125989Y-67014534D01*
X143078200Y-67005200D01*
X139039600Y-67005200D01*
X139039600Y-62357000D01*
X139788690Y-62357000D01*
X139975707Y-62394200D01*
X140033893Y-62394200D01*
X140220910Y-62357000D01*
X142328690Y-62357000D01*
X142515707Y-62394200D01*
X142573893Y-62394200D01*
X142760910Y-62357000D01*
X144424400Y-62357000D01*
X144473810Y-62346994D01*
X144515435Y-62318553D01*
X144542715Y-62276159D01*
X144551400Y-62230000D01*
X144551400Y-60072806D01*
X147753606Y-56870600D01*
X149453600Y-56870600D01*
X149453600Y-62230000D01*
X149463606Y-62279410D01*
X149492047Y-62321035D01*
X149534441Y-62348315D01*
X149580600Y-62357000D01*
X150433081Y-62357000D01*
X150529099Y-62500701D01*
X156180599Y-68152201D01*
X156427161Y-68316948D01*
X156718000Y-68374800D01*
X159584394Y-68374800D01*
X161301797Y-70092203D01*
X161343811Y-70120066D01*
X161391600Y-70129400D01*
X165152800Y-70129400D01*
X165152800Y-72132337D01*
X165120608Y-72164473D01*
X164977962Y-72508001D01*
X164977638Y-72879967D01*
X165119683Y-73223743D01*
X165382473Y-73486992D01*
X165726001Y-73629638D01*
X166097967Y-73629962D01*
X166370246Y-73517459D01*
X166640401Y-73629638D01*
X167012367Y-73629962D01*
X167259183Y-73527980D01*
X167504001Y-73629638D01*
X167875967Y-73629962D01*
X168122783Y-73527980D01*
X168367601Y-73629638D01*
X168739567Y-73629962D01*
X169011846Y-73517459D01*
X169282001Y-73629638D01*
X169653967Y-73629962D01*
X169900783Y-73527980D01*
X170145601Y-73629638D01*
X170517567Y-73629962D01*
X170764383Y-73527980D01*
X171009201Y-73629638D01*
X171381167Y-73629962D01*
X171678908Y-73506938D01*
X171974401Y-73629638D01*
X172346367Y-73629962D01*
X172644108Y-73506938D01*
X172939601Y-73629638D01*
X173311567Y-73629962D01*
X173583846Y-73517459D01*
X173854001Y-73629638D01*
X174225967Y-73629962D01*
X174523708Y-73506938D01*
X174819201Y-73629638D01*
X175191167Y-73629962D01*
X175437983Y-73527980D01*
X175682801Y-73629638D01*
X176054767Y-73629962D01*
X176265703Y-73542805D01*
X178055174Y-73542805D01*
X178341543Y-74235872D01*
X178871339Y-74766593D01*
X179563905Y-75054172D01*
X180313805Y-75054826D01*
X181006872Y-74768457D01*
X181537593Y-74238661D01*
X181805979Y-73592315D01*
X190005130Y-73592315D01*
X190329480Y-74377300D01*
X190929541Y-74978409D01*
X191713959Y-75304128D01*
X192563315Y-75304870D01*
X193348300Y-74980520D01*
X193949409Y-74380459D01*
X194275128Y-73596041D01*
X194275870Y-72746685D01*
X193951520Y-71961700D01*
X193899736Y-71909825D01*
X227548087Y-71909825D01*
X227910416Y-72786729D01*
X228580742Y-73458226D01*
X229457013Y-73822085D01*
X230405825Y-73822913D01*
X231282729Y-73460584D01*
X231954226Y-72790258D01*
X232318085Y-71913987D01*
X232318913Y-70965175D01*
X231956584Y-70088271D01*
X231286258Y-69416774D01*
X230409987Y-69052915D01*
X229461175Y-69052087D01*
X228584271Y-69414416D01*
X227912774Y-70084742D01*
X227548915Y-70961013D01*
X227548087Y-71909825D01*
X193899736Y-71909825D01*
X193351459Y-71360591D01*
X192567041Y-71034872D01*
X191717685Y-71034130D01*
X190932700Y-71358480D01*
X190331591Y-71958541D01*
X190005872Y-72742959D01*
X190005130Y-73592315D01*
X181805979Y-73592315D01*
X181825172Y-73546095D01*
X181825826Y-72796195D01*
X181539457Y-72103128D01*
X181009661Y-71572407D01*
X180317095Y-71284828D01*
X179567195Y-71284174D01*
X178874128Y-71570543D01*
X178343407Y-72100339D01*
X178055828Y-72792905D01*
X178055174Y-73542805D01*
X176265703Y-73542805D01*
X176398543Y-73487917D01*
X176661792Y-73225127D01*
X176804438Y-72881599D01*
X176804762Y-72509633D01*
X176662717Y-72165857D01*
X176629600Y-72132682D01*
X176629600Y-70129400D01*
X217193594Y-70129400D01*
X218654997Y-71590803D01*
X218697011Y-71618666D01*
X218744800Y-71628000D01*
X223393000Y-71628000D01*
X223442410Y-71617994D01*
X223482803Y-71590803D01*
X223641329Y-71432277D01*
X223859015Y-71342331D01*
X224248961Y-70953064D01*
X224460259Y-70444202D01*
X224460740Y-69893215D01*
X224250331Y-69383985D01*
X224231200Y-69364821D01*
X224231200Y-68430794D01*
X224248961Y-68413064D01*
X224460259Y-67904202D01*
X224460740Y-67353215D01*
X224250331Y-66843985D01*
X223861064Y-66454039D01*
X223352202Y-66242741D01*
X222801215Y-66242260D01*
X222291985Y-66452669D01*
X222272164Y-66472455D01*
X222225990Y-66481806D01*
X222185597Y-66508997D01*
X221460794Y-67233800D01*
X219583000Y-67233800D01*
X219583000Y-65227200D01*
X221208600Y-65227200D01*
X221258010Y-65217194D01*
X221298403Y-65190003D01*
X222531206Y-63957200D01*
X223697800Y-63957200D01*
X223747210Y-63947194D01*
X223787603Y-63920003D01*
X225071206Y-62636400D01*
X230073200Y-62636400D01*
X230122610Y-62626394D01*
X230163003Y-62599203D01*
X231991803Y-60770403D01*
X232019666Y-60728389D01*
X232029000Y-60680600D01*
X232029000Y-60274272D01*
X232068128Y-60180041D01*
X232068870Y-59330685D01*
X232029000Y-59234192D01*
X232029000Y-56489600D01*
X234442000Y-56489600D01*
X234442000Y-78765400D01*
X234442000Y-78765400D01*
G37*
X234442000Y-78765400D02*
X198348600Y-78765400D01*
X198299190Y-78775406D01*
X198258797Y-78802597D01*
X195933794Y-81127600D01*
X182751098Y-81127600D01*
X182457199Y-81005562D01*
X182085233Y-81005238D01*
X181789094Y-81127600D01*
X181358758Y-81127600D01*
X181187199Y-81056362D01*
X180815233Y-81056038D01*
X180642039Y-81127600D01*
X155805406Y-81127600D01*
X144272000Y-69594194D01*
X144272000Y-68199000D01*
X144261994Y-68149590D01*
X144234803Y-68109197D01*
X143662599Y-67536993D01*
X143623947Y-67479146D01*
X143566100Y-67440494D01*
X143168003Y-67042397D01*
X143125989Y-67014534D01*
X143078200Y-67005200D01*
X139039600Y-67005200D01*
X139039600Y-62357000D01*
X139788690Y-62357000D01*
X139975707Y-62394200D01*
X140033893Y-62394200D01*
X140220910Y-62357000D01*
X142328690Y-62357000D01*
X142515707Y-62394200D01*
X142573893Y-62394200D01*
X142760910Y-62357000D01*
X144424400Y-62357000D01*
X144473810Y-62346994D01*
X144515435Y-62318553D01*
X144542715Y-62276159D01*
X144551400Y-62230000D01*
X144551400Y-60072806D01*
X147753606Y-56870600D01*
X149453600Y-56870600D01*
X149453600Y-62230000D01*
X149463606Y-62279410D01*
X149492047Y-62321035D01*
X149534441Y-62348315D01*
X149580600Y-62357000D01*
X150433081Y-62357000D01*
X150529099Y-62500701D01*
X156180599Y-68152201D01*
X156427161Y-68316948D01*
X156718000Y-68374800D01*
X159584394Y-68374800D01*
X161301797Y-70092203D01*
X161343811Y-70120066D01*
X161391600Y-70129400D01*
X165152800Y-70129400D01*
X165152800Y-72132337D01*
X165120608Y-72164473D01*
X164977962Y-72508001D01*
X164977638Y-72879967D01*
X165119683Y-73223743D01*
X165382473Y-73486992D01*
X165726001Y-73629638D01*
X166097967Y-73629962D01*
X166370246Y-73517459D01*
X166640401Y-73629638D01*
X167012367Y-73629962D01*
X167259183Y-73527980D01*
X167504001Y-73629638D01*
X167875967Y-73629962D01*
X168122783Y-73527980D01*
X168367601Y-73629638D01*
X168739567Y-73629962D01*
X169011846Y-73517459D01*
X169282001Y-73629638D01*
X169653967Y-73629962D01*
X169900783Y-73527980D01*
X170145601Y-73629638D01*
X170517567Y-73629962D01*
X170764383Y-73527980D01*
X171009201Y-73629638D01*
X171381167Y-73629962D01*
X171678908Y-73506938D01*
X171974401Y-73629638D01*
X172346367Y-73629962D01*
X172644108Y-73506938D01*
X172939601Y-73629638D01*
X173311567Y-73629962D01*
X173583846Y-73517459D01*
X173854001Y-73629638D01*
X174225967Y-73629962D01*
X174523708Y-73506938D01*
X174819201Y-73629638D01*
X175191167Y-73629962D01*
X175437983Y-73527980D01*
X175682801Y-73629638D01*
X176054767Y-73629962D01*
X176265703Y-73542805D01*
X178055174Y-73542805D01*
X178341543Y-74235872D01*
X178871339Y-74766593D01*
X179563905Y-75054172D01*
X180313805Y-75054826D01*
X181006872Y-74768457D01*
X181537593Y-74238661D01*
X181805979Y-73592315D01*
X190005130Y-73592315D01*
X190329480Y-74377300D01*
X190929541Y-74978409D01*
X191713959Y-75304128D01*
X192563315Y-75304870D01*
X193348300Y-74980520D01*
X193949409Y-74380459D01*
X194275128Y-73596041D01*
X194275870Y-72746685D01*
X193951520Y-71961700D01*
X193899736Y-71909825D01*
X227548087Y-71909825D01*
X227910416Y-72786729D01*
X228580742Y-73458226D01*
X229457013Y-73822085D01*
X230405825Y-73822913D01*
X231282729Y-73460584D01*
X231954226Y-72790258D01*
X232318085Y-71913987D01*
X232318913Y-70965175D01*
X231956584Y-70088271D01*
X231286258Y-69416774D01*
X230409987Y-69052915D01*
X229461175Y-69052087D01*
X228584271Y-69414416D01*
X227912774Y-70084742D01*
X227548915Y-70961013D01*
X227548087Y-71909825D01*
X193899736Y-71909825D01*
X193351459Y-71360591D01*
X192567041Y-71034872D01*
X191717685Y-71034130D01*
X190932700Y-71358480D01*
X190331591Y-71958541D01*
X190005872Y-72742959D01*
X190005130Y-73592315D01*
X181805979Y-73592315D01*
X181825172Y-73546095D01*
X181825826Y-72796195D01*
X181539457Y-72103128D01*
X181009661Y-71572407D01*
X180317095Y-71284828D01*
X179567195Y-71284174D01*
X178874128Y-71570543D01*
X178343407Y-72100339D01*
X178055828Y-72792905D01*
X178055174Y-73542805D01*
X176265703Y-73542805D01*
X176398543Y-73487917D01*
X176661792Y-73225127D01*
X176804438Y-72881599D01*
X176804762Y-72509633D01*
X176662717Y-72165857D01*
X176629600Y-72132682D01*
X176629600Y-70129400D01*
X217193594Y-70129400D01*
X218654997Y-71590803D01*
X218697011Y-71618666D01*
X218744800Y-71628000D01*
X223393000Y-71628000D01*
X223442410Y-71617994D01*
X223482803Y-71590803D01*
X223641329Y-71432277D01*
X223859015Y-71342331D01*
X224248961Y-70953064D01*
X224460259Y-70444202D01*
X224460740Y-69893215D01*
X224250331Y-69383985D01*
X224231200Y-69364821D01*
X224231200Y-68430794D01*
X224248961Y-68413064D01*
X224460259Y-67904202D01*
X224460740Y-67353215D01*
X224250331Y-66843985D01*
X223861064Y-66454039D01*
X223352202Y-66242741D01*
X222801215Y-66242260D01*
X222291985Y-66452669D01*
X222272164Y-66472455D01*
X222225990Y-66481806D01*
X222185597Y-66508997D01*
X221460794Y-67233800D01*
X219583000Y-67233800D01*
X219583000Y-65227200D01*
X221208600Y-65227200D01*
X221258010Y-65217194D01*
X221298403Y-65190003D01*
X222531206Y-63957200D01*
X223697800Y-63957200D01*
X223747210Y-63947194D01*
X223787603Y-63920003D01*
X225071206Y-62636400D01*
X230073200Y-62636400D01*
X230122610Y-62626394D01*
X230163003Y-62599203D01*
X231991803Y-60770403D01*
X232019666Y-60728389D01*
X232029000Y-60680600D01*
X232029000Y-60274272D01*
X232068128Y-60180041D01*
X232068870Y-59330685D01*
X232029000Y-59234192D01*
X232029000Y-56489600D01*
X234442000Y-56489600D01*
X234442000Y-78765400D01*
M02*
