G04 #@! TF.FileFunction,Copper,L1,Top,Signal*
%FSLAX46Y46*%
G04 Gerber Fmt 4.6, Leading zero omitted, Abs format (unit mm)*
G04 Created by KiCad (PCBNEW 4.0.7) date 03/01/19 13:16:32*
%MOMM*%
%LPD*%
G01*
G04 APERTURE LIST*
%ADD10C,0.100000*%
%ADD11C,1.500000*%
%ADD12C,2.600000*%
%ADD13R,3.500000X3.500000*%
%ADD14C,2.500000*%
%ADD15C,3.000000*%
%ADD16R,1.900000X0.800000*%
%ADD17R,2.000000X1.700000*%
%ADD18R,1.700000X1.700000*%
%ADD19O,1.700000X1.700000*%
%ADD20C,0.600000*%
%ADD21C,0.500000*%
%ADD22C,0.250000*%
%ADD23C,1.000000*%
%ADD24C,0.254000*%
G04 APERTURE END LIST*
D10*
D11*
X223075500Y-136652000D03*
X223075500Y-139192000D03*
X223075500Y-141732000D03*
X223075500Y-144272000D03*
X220535500Y-135382000D03*
X220535500Y-137922000D03*
X220535500Y-140462000D03*
X220535500Y-143002000D03*
D12*
X233235500Y-147574000D03*
X233235500Y-131826000D03*
D13*
X207933500Y-72961500D03*
X201133500Y-72961500D03*
X207933500Y-61404500D03*
X201133500Y-61404500D03*
D14*
X179940500Y-73169500D03*
D15*
X192140500Y-73169500D03*
X192190500Y-61119500D03*
D14*
X179940500Y-61169500D03*
D15*
X177990500Y-67119500D03*
D16*
X152322400Y-71948000D03*
X152322400Y-73848000D03*
X155322400Y-72898000D03*
D17*
X149015200Y-72999600D03*
X145015200Y-72999600D03*
X179292000Y-56896000D03*
X175292000Y-56896000D03*
X183420000Y-56896000D03*
X187420000Y-56896000D03*
D13*
X207997000Y-146939000D03*
X201197000Y-146939000D03*
X208060500Y-135572500D03*
X201260500Y-135572500D03*
D14*
X179940500Y-147274000D03*
D15*
X192140500Y-147274000D03*
X192190500Y-135224000D03*
D14*
X179940500Y-135274000D03*
D15*
X177990500Y-141224000D03*
D16*
X163346000Y-145671500D03*
X163346000Y-147571500D03*
X166346000Y-146621500D03*
D17*
X158908500Y-147320000D03*
X154908500Y-147320000D03*
X171672000Y-135255000D03*
X167672000Y-135255000D03*
X171672000Y-132715000D03*
X167672000Y-132715000D03*
D13*
X208060500Y-97536000D03*
X201260500Y-97536000D03*
X208124000Y-86169500D03*
X201324000Y-86169500D03*
X207997000Y-122428000D03*
X201197000Y-122428000D03*
X208187500Y-110744000D03*
X201387500Y-110744000D03*
D14*
X179940500Y-97871000D03*
D15*
X192140500Y-97871000D03*
X192190500Y-85821000D03*
D14*
X179940500Y-85871000D03*
D15*
X177990500Y-91821000D03*
D14*
X180004000Y-122572500D03*
D15*
X192204000Y-122572500D03*
X192254000Y-110522500D03*
D14*
X180004000Y-110572500D03*
D15*
X178054000Y-116522500D03*
D16*
X152119200Y-96319300D03*
X152119200Y-98219300D03*
X155119200Y-97269300D03*
X152043000Y-120970000D03*
X152043000Y-122870000D03*
X155043000Y-121920000D03*
D17*
X148570700Y-97688400D03*
X144570700Y-97688400D03*
X149066000Y-122428000D03*
X145066000Y-122428000D03*
X171672000Y-85852000D03*
X167672000Y-85852000D03*
X171672000Y-110617000D03*
X167672000Y-110617000D03*
X171672000Y-82931000D03*
X167672000Y-82931000D03*
X171672000Y-107696000D03*
X167672000Y-107696000D03*
D18*
X148526500Y-57785000D03*
D19*
X148526500Y-55245000D03*
X151066500Y-57785000D03*
X151066500Y-55245000D03*
X153606500Y-57785000D03*
X153606500Y-55245000D03*
X156146500Y-57785000D03*
X156146500Y-55245000D03*
X158686500Y-57785000D03*
X158686500Y-55245000D03*
X161226500Y-57785000D03*
X161226500Y-55245000D03*
X163766500Y-57785000D03*
X163766500Y-55245000D03*
X166306500Y-57785000D03*
X166306500Y-55245000D03*
X168846500Y-57785000D03*
X168846500Y-55245000D03*
D17*
X162362900Y-97269300D03*
X158362900Y-97269300D03*
X162426400Y-72898000D03*
X158426400Y-72898000D03*
X162147000Y-121920000D03*
X158147000Y-121920000D03*
X173704000Y-147256500D03*
X169704000Y-147256500D03*
D18*
X140004800Y-58369200D03*
D19*
X142544800Y-58369200D03*
X140004800Y-60909200D03*
X142544800Y-60909200D03*
X140004800Y-63449200D03*
X142544800Y-63449200D03*
X140004800Y-65989200D03*
X142544800Y-65989200D03*
X140004800Y-68529200D03*
X142544800Y-68529200D03*
D18*
X140004800Y-132334000D03*
D19*
X142544800Y-132334000D03*
X140004800Y-134874000D03*
X142544800Y-134874000D03*
X140004800Y-137414000D03*
X142544800Y-137414000D03*
X140004800Y-139954000D03*
X142544800Y-139954000D03*
X140004800Y-142494000D03*
X142544800Y-142494000D03*
D18*
X140004800Y-107645200D03*
D19*
X142544800Y-107645200D03*
X140004800Y-110185200D03*
X142544800Y-110185200D03*
X140004800Y-112725200D03*
X142544800Y-112725200D03*
X140004800Y-115265200D03*
X142544800Y-115265200D03*
X140004800Y-117805200D03*
X142544800Y-117805200D03*
D18*
X140004800Y-82956400D03*
D19*
X142544800Y-82956400D03*
X140004800Y-85496400D03*
X142544800Y-85496400D03*
X140004800Y-88036400D03*
X142544800Y-88036400D03*
X140004800Y-90576400D03*
X142544800Y-90576400D03*
X140004800Y-93116400D03*
X142544800Y-93116400D03*
D11*
X223075500Y-62547500D03*
X223075500Y-65087500D03*
X223075500Y-67627500D03*
X223075500Y-70167500D03*
X220535500Y-61277500D03*
X220535500Y-63817500D03*
X220535500Y-66357500D03*
X220535500Y-68897500D03*
D12*
X233235500Y-73469500D03*
X233235500Y-57721500D03*
D11*
X223075500Y-87249000D03*
X223075500Y-89789000D03*
X223075500Y-92329000D03*
X223075500Y-94869000D03*
X220535500Y-85979000D03*
X220535500Y-88519000D03*
X220535500Y-91059000D03*
X220535500Y-93599000D03*
D12*
X233235500Y-98171000D03*
X233235500Y-82423000D03*
D11*
X223075500Y-112014000D03*
X223075500Y-114554000D03*
X223075500Y-117094000D03*
X223075500Y-119634000D03*
X220535500Y-110744000D03*
X220535500Y-113284000D03*
X220535500Y-115824000D03*
X220535500Y-118364000D03*
D12*
X233235500Y-122936000D03*
X233235500Y-107188000D03*
D20*
X152247600Y-76504800D03*
X152209500Y-101041200D03*
X152019000Y-125730000D03*
X213614000Y-57378600D03*
X211251800Y-57378600D03*
X174040800Y-72694800D03*
X182168800Y-83515200D03*
X173126400Y-72694800D03*
X182270400Y-81940400D03*
X175869600Y-72694800D03*
X181000400Y-81991200D03*
X175006000Y-72694800D03*
X173913800Y-97129600D03*
X175463200Y-82448400D03*
X170332400Y-72694800D03*
X174244000Y-82397600D03*
X169468800Y-72694800D03*
X173024800Y-97155000D03*
X173024800Y-105587800D03*
X178054000Y-82651600D03*
X172161200Y-72694800D03*
X175793400Y-105486200D03*
X175641000Y-97155000D03*
X174777400Y-105537000D03*
X174777400Y-97155000D03*
X176784000Y-82499200D03*
X171196000Y-72694800D03*
X162356800Y-82448400D03*
X172593000Y-121666000D03*
X169291000Y-97155000D03*
X169291000Y-105638600D03*
X165912800Y-72694800D03*
X153212800Y-61518800D03*
X167690800Y-72694800D03*
X164439600Y-82499200D03*
X174498000Y-130302000D03*
X174498000Y-121666000D03*
X171119800Y-97180400D03*
X171119800Y-105638600D03*
X173609000Y-130302000D03*
X173609000Y-121666000D03*
X170205400Y-97155000D03*
X170205400Y-105587800D03*
X166827200Y-72694800D03*
X163372800Y-82499200D03*
X163322000Y-150495000D03*
X165455600Y-82499200D03*
X175387000Y-130302000D03*
X175387000Y-121666000D03*
X172034200Y-97155000D03*
X172034200Y-105613200D03*
X168554400Y-72694800D03*
D21*
X162426400Y-72898000D02*
X162941000Y-72898000D01*
X162941000Y-72898000D02*
X164479602Y-71359398D01*
X179084602Y-71359398D02*
X179451000Y-70993000D01*
X164479602Y-71359398D02*
X179084602Y-71359398D01*
X179451000Y-70993000D02*
X181864000Y-70993000D01*
X181864000Y-70993000D02*
X182372000Y-70485000D01*
X182372000Y-70485000D02*
X182372000Y-62992000D01*
X182372000Y-62992000D02*
X180549500Y-61169500D01*
X180549500Y-61169500D02*
X179940500Y-61169500D01*
X179292000Y-56896000D02*
X183420000Y-56896000D01*
X179292000Y-56896000D02*
X179940500Y-57544500D01*
X179940500Y-57544500D02*
X179940500Y-61169500D01*
D22*
X179940500Y-61169500D02*
X179940500Y-57544500D01*
X162426400Y-72898000D02*
X163118800Y-72898000D01*
X163118800Y-72898000D02*
X164490400Y-71526400D01*
X164490400Y-71526400D02*
X178917600Y-71526400D01*
X179292000Y-56896000D02*
X179940500Y-57544500D01*
X182372000Y-67945000D02*
X182372000Y-70485000D01*
X179451000Y-70993000D02*
X179070000Y-71374000D01*
X179070000Y-71374000D02*
X178943000Y-71501000D01*
X181864000Y-70993000D02*
X179451000Y-70993000D01*
X182372000Y-70485000D02*
X181864000Y-70993000D01*
X179921500Y-61150500D02*
X179940500Y-61169500D01*
X179940500Y-61169500D02*
X180486000Y-61169500D01*
X180486000Y-61169500D02*
X182372000Y-63055500D01*
X182372000Y-63055500D02*
X182372000Y-67945000D01*
X179940500Y-73169500D02*
X179940500Y-73158900D01*
X179940500Y-73158900D02*
X178816000Y-72034400D01*
X160934400Y-74422000D02*
X159410400Y-72898000D01*
X163830000Y-74422000D02*
X160934400Y-74422000D01*
X164236400Y-74015600D02*
X163830000Y-74422000D01*
X164236400Y-72796400D02*
X164236400Y-74015600D01*
X164998400Y-72034400D02*
X164236400Y-72796400D01*
X178816000Y-72034400D02*
X164998400Y-72034400D01*
X159410400Y-72898000D02*
X158426400Y-72898000D01*
X158426400Y-72898000D02*
X155322400Y-72898000D01*
D23*
X223075500Y-60642500D02*
X223647000Y-61214000D01*
X223647000Y-61976000D02*
X223075500Y-62547500D01*
X223647000Y-61214000D02*
X223647000Y-61976000D01*
X222440500Y-60007500D02*
X209330500Y-60007500D01*
X223075500Y-60642500D02*
X222440500Y-60007500D01*
X209330500Y-60007500D02*
X207933500Y-61404500D01*
X207933500Y-61404500D02*
X216027000Y-61404500D01*
X216027000Y-61404500D02*
X216598500Y-60833000D01*
X216598500Y-60833000D02*
X219837000Y-60833000D01*
X207933500Y-61404500D02*
X218059000Y-61404500D01*
X207933500Y-72961500D02*
X207933500Y-72297500D01*
X207933500Y-72297500D02*
X207137000Y-71501000D01*
X207137000Y-71501000D02*
X207137000Y-62201000D01*
X207137000Y-62201000D02*
X207933500Y-61404500D01*
X207933500Y-72961500D02*
X207933500Y-72419000D01*
X207933500Y-72419000D02*
X208915000Y-71437500D01*
X208915000Y-71437500D02*
X208915000Y-62386000D01*
X208915000Y-62386000D02*
X207933500Y-61404500D01*
X207933500Y-72961500D02*
X207933500Y-61404500D01*
X218059000Y-61404500D02*
X221678500Y-61404500D01*
X221678500Y-61404500D02*
X221805500Y-61277500D01*
X219710000Y-61404500D02*
X220408500Y-61404500D01*
X220408500Y-61404500D02*
X220535500Y-61277500D01*
X219837000Y-60833000D02*
X221551500Y-60833000D01*
X223075500Y-61658500D02*
X223075500Y-62547500D01*
X222250000Y-60833000D02*
X223075500Y-61658500D01*
X221551500Y-60833000D02*
X222250000Y-60833000D01*
X220535500Y-61277500D02*
X221805500Y-61277500D01*
X221805500Y-61277500D02*
X223075500Y-62547500D01*
X208505000Y-60833000D02*
X216598500Y-60833000D01*
X219837000Y-60833000D02*
X220281500Y-60833000D01*
X208505000Y-60833000D02*
X207933500Y-61404500D01*
X207933500Y-61404500D02*
X214820500Y-61404500D01*
X218059000Y-61404500D02*
X219710000Y-61404500D01*
X219710000Y-61404500D02*
X219837000Y-61404500D01*
X192140500Y-73169500D02*
X192549500Y-73169500D01*
X192549500Y-73169500D02*
X193484500Y-74104500D01*
X193484500Y-74104500D02*
X199990500Y-74104500D01*
X199990500Y-74104500D02*
X201133500Y-72961500D01*
X201133500Y-72961500D02*
X200088500Y-72961500D01*
X200088500Y-72961500D02*
X199136000Y-72009000D01*
X193301000Y-72009000D02*
X192140500Y-73169500D01*
X199136000Y-72009000D02*
X193301000Y-72009000D01*
X192140500Y-73169500D02*
X200925500Y-73169500D01*
X200925500Y-73169500D02*
X201133500Y-72961500D01*
X201133500Y-72961500D02*
X192348500Y-72961500D01*
X192348500Y-72961500D02*
X192140500Y-73169500D01*
X192348500Y-72961500D02*
X192140500Y-73169500D01*
X192190500Y-61119500D02*
X192309000Y-61119500D01*
X192309000Y-61119500D02*
X193167000Y-60261500D01*
X193167000Y-60261500D02*
X199990500Y-60261500D01*
X199990500Y-60261500D02*
X201133500Y-61404500D01*
X192190500Y-61119500D02*
X192190500Y-61888500D01*
X192190500Y-61888500D02*
X192659000Y-62357000D01*
X192659000Y-62357000D02*
X200181000Y-62357000D01*
X200181000Y-62357000D02*
X201133500Y-61404500D01*
X201133500Y-61404500D02*
X192475500Y-61404500D01*
X192475500Y-61404500D02*
X192190500Y-61119500D01*
X192190500Y-61119500D02*
X200848500Y-61119500D01*
X200848500Y-61119500D02*
X201133500Y-61404500D01*
X192475500Y-61404500D02*
X192190500Y-61119500D01*
D21*
X154940000Y-59182000D02*
X155956000Y-60198000D01*
X155956000Y-60198000D02*
X172339000Y-60198000D01*
X172339000Y-60198000D02*
X175292000Y-57245000D01*
X175292000Y-57245000D02*
X175292000Y-56896000D01*
X148526500Y-55245000D02*
X148526500Y-54419500D01*
X148526500Y-54419500D02*
X149225000Y-53721000D01*
X149225000Y-53721000D02*
X154432000Y-53721000D01*
X154432000Y-53721000D02*
X154813000Y-54102000D01*
X140004800Y-58369200D02*
X140004800Y-56464200D01*
X141351000Y-55118000D02*
X148399500Y-55118000D01*
X140004800Y-56464200D02*
X141351000Y-55118000D01*
X148399500Y-55118000D02*
X148526500Y-55245000D01*
X140004800Y-58369200D02*
X140004800Y-56781700D01*
X140004800Y-56781700D02*
X141287500Y-55499000D01*
X141287500Y-55499000D02*
X148272500Y-55499000D01*
X148272500Y-55499000D02*
X148526500Y-55245000D01*
D22*
X175292000Y-56896000D02*
X175292000Y-57245000D01*
X175292000Y-57245000D02*
X172339000Y-60198000D01*
X149225000Y-53721000D02*
X148526500Y-54419500D01*
X139827000Y-56959500D02*
X139827000Y-58039000D01*
X139827000Y-58039000D02*
X140017500Y-58229500D01*
X148526500Y-55245000D02*
X147891500Y-55245000D01*
X147891500Y-55245000D02*
X147637500Y-55499000D01*
X140208000Y-56451500D02*
X140208000Y-58039000D01*
X140462000Y-56197500D02*
X140208000Y-56451500D01*
X140589000Y-56197500D02*
X140462000Y-56197500D01*
X141287500Y-55499000D02*
X140589000Y-56197500D01*
X147637500Y-55499000D02*
X141287500Y-55499000D01*
X140208000Y-58039000D02*
X140017500Y-58229500D01*
X140017500Y-58229500D02*
X140017500Y-57150000D01*
X140017500Y-57150000D02*
X139827000Y-56959500D01*
X139827000Y-56959500D02*
X139827000Y-56324500D01*
X139827000Y-56324500D02*
X141160500Y-54991000D01*
X141160500Y-54991000D02*
X147637500Y-54991000D01*
X147637500Y-54991000D02*
X147891500Y-55245000D01*
X148526500Y-55245000D02*
X141224000Y-55245000D01*
X141224000Y-55245000D02*
X140017500Y-56451500D01*
X140017500Y-56451500D02*
X140017500Y-58229500D01*
X140017500Y-56451500D02*
X140017500Y-58229500D01*
X172339000Y-60198000D02*
X155956000Y-60198000D01*
X154940000Y-59182000D02*
X154813000Y-59055000D01*
X154813000Y-59055000D02*
X154813000Y-54102000D01*
X154813000Y-54102000D02*
X154432000Y-53721000D01*
X154432000Y-53721000D02*
X149225000Y-53721000D01*
D21*
X187420000Y-56896000D02*
X186309000Y-56896000D01*
X186309000Y-56896000D02*
X184404000Y-54991000D01*
X184404000Y-54991000D02*
X178054000Y-54991000D01*
X178054000Y-54991000D02*
X177292000Y-55753000D01*
X177292000Y-55753000D02*
X177292000Y-64008000D01*
X177292000Y-64008000D02*
X177038000Y-64262000D01*
D23*
X177990500Y-67119500D02*
X177673000Y-67119500D01*
X177673000Y-67119500D02*
X176974500Y-67818000D01*
X169608500Y-66294000D02*
X177165000Y-66294000D01*
X177165000Y-66294000D02*
X177990500Y-67119500D01*
X177990500Y-67119500D02*
X151447500Y-67119500D01*
X151447500Y-67119500D02*
X145097500Y-60769500D01*
D22*
X177292000Y-64770000D02*
X177038000Y-65024000D01*
X177292000Y-55753000D02*
X177292000Y-64770000D01*
X178054000Y-54991000D02*
X177292000Y-55753000D01*
X184404000Y-54991000D02*
X178054000Y-54991000D01*
X186309000Y-56896000D02*
X184404000Y-54991000D01*
D23*
X150876000Y-67818000D02*
X144018000Y-60960000D01*
X142557500Y-58229500D02*
X143510000Y-59182000D01*
X143510000Y-59309000D02*
X143891000Y-59690000D01*
X143510000Y-59182000D02*
X143510000Y-59309000D01*
X176974500Y-67818000D02*
X150876000Y-67818000D01*
X144018000Y-59817000D02*
X143891000Y-59690000D01*
X144018000Y-60960000D02*
X144018000Y-59817000D01*
X143891000Y-59690000D02*
X143637000Y-59690000D01*
X143637000Y-59690000D02*
X142557500Y-60769500D01*
X142557500Y-58229500D02*
X143700500Y-58229500D01*
X151765000Y-66294000D02*
X165417500Y-66294000D01*
X165417500Y-66294000D02*
X169608500Y-66294000D01*
X143700500Y-58229500D02*
X151765000Y-66294000D01*
X142557500Y-60769500D02*
X142557500Y-58229500D01*
D22*
X142557500Y-60769500D02*
X140017500Y-60769500D01*
D23*
X145097500Y-60769500D02*
X142557500Y-60769500D01*
X143065500Y-60261500D02*
X142557500Y-60769500D01*
D22*
X152322400Y-73848000D02*
X152322400Y-76430000D01*
X152322400Y-76430000D02*
X152247600Y-76504800D01*
X140004800Y-68529200D02*
X140093700Y-68529200D01*
X140093700Y-68529200D02*
X143827500Y-72263000D01*
X144780000Y-73215500D02*
X143827500Y-72263000D01*
D21*
X171672000Y-82931000D02*
X171672000Y-85852000D01*
X180721000Y-95631000D02*
X164001200Y-95631000D01*
X164001200Y-95631000D02*
X162362900Y-97269300D01*
X179940500Y-85871000D02*
X180486000Y-85871000D01*
X180486000Y-85871000D02*
X182372000Y-87757000D01*
X182372000Y-87757000D02*
X182372000Y-93980000D01*
X182372000Y-93980000D02*
X180721000Y-95631000D01*
X171672000Y-85852000D02*
X179921500Y-85852000D01*
X179921500Y-85852000D02*
X179940500Y-85871000D01*
D22*
X162362900Y-97269300D02*
X162877500Y-97269300D01*
X180721000Y-95631000D02*
X182372000Y-93980000D01*
X182372000Y-92964000D02*
X182372000Y-93980000D01*
X171608500Y-86233000D02*
X171608500Y-83312000D01*
X179940500Y-85871000D02*
X171970500Y-85871000D01*
X171970500Y-85871000D02*
X171608500Y-86233000D01*
X179921500Y-85852000D02*
X179940500Y-85871000D01*
X180486000Y-85871000D02*
X182372000Y-87757000D01*
X182372000Y-87757000D02*
X182372000Y-92964000D01*
X179940500Y-97871000D02*
X179252600Y-97871000D01*
X179252600Y-97871000D02*
X177774600Y-96393000D01*
X177774600Y-96393000D02*
X165823900Y-96393000D01*
X165823900Y-96393000D02*
X163461700Y-98755200D01*
X163461700Y-98755200D02*
X159562800Y-98755200D01*
X159562800Y-98755200D02*
X158362900Y-97555300D01*
X158362900Y-97555300D02*
X158362900Y-97269300D01*
X155119200Y-97269300D02*
X158362900Y-97269300D01*
D21*
X171672000Y-107696000D02*
X171672000Y-110617000D01*
X181356000Y-120142000D02*
X163925000Y-120142000D01*
X163925000Y-120142000D02*
X162147000Y-121920000D01*
X180004000Y-110572500D02*
X180549500Y-110572500D01*
X180549500Y-110572500D02*
X182435500Y-112458500D01*
X182435500Y-112458500D02*
X182435500Y-119062500D01*
X182435500Y-119062500D02*
X181356000Y-120142000D01*
X171672000Y-110617000D02*
X179959500Y-110617000D01*
X179959500Y-110617000D02*
X180004000Y-110572500D01*
D22*
X162147000Y-121920000D02*
X162560000Y-121920000D01*
X181356000Y-120142000D02*
X182435500Y-119062500D01*
X162147000Y-121920000D02*
X163068000Y-121920000D01*
X182435500Y-117856000D02*
X182435500Y-119062500D01*
X171672000Y-110934500D02*
X171672000Y-109125000D01*
X171672000Y-109125000D02*
X171672000Y-108013500D01*
X180004000Y-110572500D02*
X172034000Y-110572500D01*
X172034000Y-110572500D02*
X171672000Y-110934500D01*
X179985000Y-110553500D02*
X180004000Y-110572500D01*
X180549500Y-110572500D02*
X182435500Y-112458500D01*
X182435500Y-112458500D02*
X182435500Y-117856000D01*
X180004000Y-122572500D02*
X179722500Y-122572500D01*
X179722500Y-122572500D02*
X178054000Y-120904000D01*
X162179000Y-123444000D02*
X163576000Y-123444000D01*
X164465000Y-120904000D02*
X178054000Y-120904000D01*
X164084000Y-121285000D02*
X164465000Y-120904000D01*
X164084000Y-122936000D02*
X164084000Y-121285000D01*
X163576000Y-123444000D02*
X164084000Y-122936000D01*
X180004000Y-121817002D02*
X180004000Y-122572500D01*
X158147000Y-123222000D02*
X158147000Y-121920000D01*
X158369000Y-123444000D02*
X158147000Y-123222000D01*
X162179000Y-123444000D02*
X158369000Y-123444000D01*
X155043000Y-121920000D02*
X158147000Y-121920000D01*
D23*
X223075500Y-85344000D02*
X223647000Y-85915500D01*
X223647000Y-86677500D02*
X223075500Y-87249000D01*
X223647000Y-85915500D02*
X223647000Y-86677500D01*
X222440500Y-84709000D02*
X209330500Y-84709000D01*
X223075500Y-85344000D02*
X222440500Y-84709000D01*
X209330500Y-84709000D02*
X207933500Y-86106000D01*
X207933500Y-86106000D02*
X216027000Y-86106000D01*
X216027000Y-86106000D02*
X216598500Y-85534500D01*
X216598500Y-85534500D02*
X219837000Y-85534500D01*
X207933500Y-86106000D02*
X218059000Y-86106000D01*
X207933500Y-97663000D02*
X207933500Y-96999000D01*
X207933500Y-96999000D02*
X207137000Y-96202500D01*
X207137000Y-96202500D02*
X207137000Y-86902500D01*
X207137000Y-86902500D02*
X207933500Y-86106000D01*
X207933500Y-97663000D02*
X207933500Y-97120500D01*
X207933500Y-97120500D02*
X208915000Y-96139000D01*
X208915000Y-96139000D02*
X208915000Y-87087500D01*
X208915000Y-87087500D02*
X207933500Y-86106000D01*
X207933500Y-97663000D02*
X207933500Y-86106000D01*
X218059000Y-86106000D02*
X221678500Y-86106000D01*
X221678500Y-86106000D02*
X221805500Y-85979000D01*
X219710000Y-86106000D02*
X220408500Y-86106000D01*
X220408500Y-86106000D02*
X220535500Y-85979000D01*
X219837000Y-85534500D02*
X221551500Y-85534500D01*
X223075500Y-86360000D02*
X223075500Y-87249000D01*
X222250000Y-85534500D02*
X223075500Y-86360000D01*
X221551500Y-85534500D02*
X222250000Y-85534500D01*
X220535500Y-85979000D02*
X221805500Y-85979000D01*
X221805500Y-85979000D02*
X223075500Y-87249000D01*
X208505000Y-85534500D02*
X216598500Y-85534500D01*
X219837000Y-85534500D02*
X220281500Y-85534500D01*
X208505000Y-85534500D02*
X207933500Y-86106000D01*
X207933500Y-86106000D02*
X214820500Y-86106000D01*
X218059000Y-86106000D02*
X219710000Y-86106000D01*
X219710000Y-86106000D02*
X219837000Y-86106000D01*
X192140500Y-97871000D02*
X192549500Y-97871000D01*
X192549500Y-97871000D02*
X193484500Y-98806000D01*
X193301000Y-96710500D02*
X192140500Y-97871000D01*
X192140500Y-97871000D02*
X200925500Y-97871000D01*
X201133500Y-97663000D02*
X192348500Y-97663000D01*
X192348500Y-97663000D02*
X192140500Y-97871000D01*
X192348500Y-97663000D02*
X192140500Y-97871000D01*
X199136000Y-96710500D02*
X193301000Y-96710500D01*
X193484500Y-98806000D02*
X199990500Y-98806000D01*
X199990500Y-98806000D02*
X201133500Y-97663000D01*
X201133500Y-97663000D02*
X200088500Y-97663000D01*
X200088500Y-97663000D02*
X199136000Y-96710500D01*
X200925500Y-97871000D02*
X201133500Y-97663000D01*
X199990500Y-84963000D02*
X201133500Y-86106000D01*
X200181000Y-87058500D02*
X201133500Y-86106000D01*
X200848500Y-85821000D02*
X201133500Y-86106000D01*
X192190500Y-85821000D02*
X192309000Y-85821000D01*
X192309000Y-85821000D02*
X193167000Y-84963000D01*
X193167000Y-84963000D02*
X199990500Y-84963000D01*
X192190500Y-85821000D02*
X192190500Y-86590000D01*
X192190500Y-86590000D02*
X192659000Y-87058500D01*
X192659000Y-87058500D02*
X200181000Y-87058500D01*
X201133500Y-86106000D02*
X192475500Y-86106000D01*
X192475500Y-86106000D02*
X192190500Y-85821000D01*
X192190500Y-85821000D02*
X200848500Y-85821000D01*
X192475500Y-86106000D02*
X192190500Y-85821000D01*
X222504000Y-109410500D02*
X209394000Y-109410500D01*
X223139000Y-110045500D02*
X222504000Y-109410500D01*
X209394000Y-109410500D02*
X207997000Y-110807500D01*
X207997000Y-110807500D02*
X216090500Y-110807500D01*
X216090500Y-110807500D02*
X216662000Y-110236000D01*
X207997000Y-110807500D02*
X218122500Y-110807500D01*
X207997000Y-122364500D02*
X207997000Y-121700500D01*
X207997000Y-121700500D02*
X207200500Y-120904000D01*
X207200500Y-120904000D02*
X207200500Y-111604000D01*
X207200500Y-111604000D02*
X207997000Y-110807500D01*
X207997000Y-122364500D02*
X207997000Y-121822000D01*
X207997000Y-121822000D02*
X208978500Y-120840500D01*
X208978500Y-120840500D02*
X208978500Y-111789000D01*
X208978500Y-111789000D02*
X207997000Y-110807500D01*
X207997000Y-122364500D02*
X207997000Y-110807500D01*
X218122500Y-110807500D02*
X221742000Y-110807500D01*
X221742000Y-110807500D02*
X221869000Y-110680500D01*
X208568500Y-110236000D02*
X216662000Y-110236000D01*
X208568500Y-110236000D02*
X207997000Y-110807500D01*
X207997000Y-110807500D02*
X214884000Y-110807500D01*
X218122500Y-110807500D02*
X219773500Y-110807500D01*
X223139000Y-110045500D02*
X223710500Y-110617000D01*
X223710500Y-111379000D02*
X223139000Y-111950500D01*
X223710500Y-110617000D02*
X223710500Y-111379000D01*
X216662000Y-110236000D02*
X219900500Y-110236000D01*
X219773500Y-110807500D02*
X220472000Y-110807500D01*
X220472000Y-110807500D02*
X220599000Y-110680500D01*
X219900500Y-110236000D02*
X221615000Y-110236000D01*
X223139000Y-111061500D02*
X223139000Y-111950500D01*
X222313500Y-110236000D02*
X223139000Y-111061500D01*
X221615000Y-110236000D02*
X222313500Y-110236000D01*
X220599000Y-110680500D02*
X221869000Y-110680500D01*
X221869000Y-110680500D02*
X223139000Y-111950500D01*
X219900500Y-110236000D02*
X220345000Y-110236000D01*
X219773500Y-110807500D02*
X219900500Y-110807500D01*
X192204000Y-122572500D02*
X192613000Y-122572500D01*
X192613000Y-122572500D02*
X193548000Y-123507500D01*
X193548000Y-123507500D02*
X200054000Y-123507500D01*
X200054000Y-123507500D02*
X201197000Y-122364500D01*
X201197000Y-122364500D02*
X200152000Y-122364500D01*
X200152000Y-122364500D02*
X199199500Y-121412000D01*
X193364500Y-121412000D02*
X192204000Y-122572500D01*
X199199500Y-121412000D02*
X193364500Y-121412000D01*
X192204000Y-122572500D02*
X200989000Y-122572500D01*
X200989000Y-122572500D02*
X201197000Y-122364500D01*
X201197000Y-122364500D02*
X192412000Y-122364500D01*
X192412000Y-122364500D02*
X192204000Y-122572500D01*
X192412000Y-122364500D02*
X192204000Y-122572500D01*
X192254000Y-110522500D02*
X192372500Y-110522500D01*
X192372500Y-110522500D02*
X193230500Y-109664500D01*
X193230500Y-109664500D02*
X200054000Y-109664500D01*
X200054000Y-109664500D02*
X201197000Y-110807500D01*
X192254000Y-110522500D02*
X192254000Y-111291500D01*
X192254000Y-111291500D02*
X192722500Y-111760000D01*
X192722500Y-111760000D02*
X200244500Y-111760000D01*
X200244500Y-111760000D02*
X201197000Y-110807500D01*
X201197000Y-110807500D02*
X192539000Y-110807500D01*
X192539000Y-110807500D02*
X192254000Y-110522500D01*
X192254000Y-110522500D02*
X200912000Y-110522500D01*
X200912000Y-110522500D02*
X201197000Y-110807500D01*
X192539000Y-110807500D02*
X192254000Y-110522500D01*
D21*
X140004800Y-82956400D02*
X140004800Y-81991200D01*
X140004800Y-81991200D02*
X140970000Y-81026000D01*
X159156400Y-81026000D02*
X163982400Y-85852000D01*
X140970000Y-81026000D02*
X159156400Y-81026000D01*
X163982400Y-85852000D02*
X167672000Y-85852000D01*
D22*
X167672000Y-85852000D02*
X163982400Y-85852000D01*
X159283400Y-81153000D02*
X140843000Y-81153000D01*
X140843000Y-81153000D02*
X140004800Y-81991200D01*
X163982400Y-85852000D02*
X159283400Y-81153000D01*
X167608500Y-86233000D02*
X167005000Y-86233000D01*
X167608500Y-85852000D02*
X168592500Y-85852000D01*
D21*
X167672000Y-82931000D02*
X169037000Y-82931000D01*
X169608500Y-83502500D02*
X169608500Y-90995500D01*
X169037000Y-82931000D02*
X169608500Y-83502500D01*
D23*
X177990500Y-91821000D02*
X177673000Y-91821000D01*
X177673000Y-91821000D02*
X176974500Y-92519500D01*
X169418000Y-90995500D02*
X169608500Y-90995500D01*
X169608500Y-90995500D02*
X177165000Y-90995500D01*
X177165000Y-90995500D02*
X177990500Y-91821000D01*
X177990500Y-91821000D02*
X151447500Y-91821000D01*
X151447500Y-91821000D02*
X145097500Y-85471000D01*
X151765000Y-90995500D02*
X165417500Y-90995500D01*
X165417500Y-90995500D02*
X169418000Y-90995500D01*
D22*
X169291000Y-83312000D02*
X169418000Y-83439000D01*
D23*
X150876000Y-92519500D02*
X144018000Y-85661500D01*
X142557500Y-82931000D02*
X143510000Y-83883500D01*
X143510000Y-84010500D02*
X143891000Y-84391500D01*
X143510000Y-83883500D02*
X143510000Y-84010500D01*
X176974500Y-92519500D02*
X150876000Y-92519500D01*
X144018000Y-84518500D02*
X143891000Y-84391500D01*
X144018000Y-85661500D02*
X144018000Y-84518500D01*
X143891000Y-84391500D02*
X143637000Y-84391500D01*
X142557500Y-82931000D02*
X143700500Y-82931000D01*
X143700500Y-82931000D02*
X151765000Y-90995500D01*
X142557500Y-85471000D02*
X142557500Y-82931000D01*
X143637000Y-84391500D02*
X142557500Y-85471000D01*
X142557500Y-85471000D02*
X140017500Y-85471000D01*
X145097500Y-85471000D02*
X142557500Y-85471000D01*
X143065500Y-84963000D02*
X142557500Y-85471000D01*
D22*
X152119200Y-98219300D02*
X152119200Y-100950900D01*
X152119200Y-100950900D02*
X152209500Y-101041200D01*
X140004800Y-93116400D02*
X140004800Y-93624400D01*
X140004800Y-93624400D02*
X144297400Y-97917000D01*
D21*
X140004800Y-107645200D02*
X140004800Y-106375200D01*
X140004800Y-106375200D02*
X140589000Y-105791000D01*
X159258000Y-105791000D02*
X164084000Y-110617000D01*
X140589000Y-105791000D02*
X159258000Y-105791000D01*
X164084000Y-110617000D02*
X167672000Y-110617000D01*
D22*
X167672000Y-110617000D02*
X164084000Y-110617000D01*
X159385000Y-105918000D02*
X159258000Y-105918000D01*
X140462000Y-105918000D02*
X140004800Y-106375200D01*
X159258000Y-105918000D02*
X140462000Y-105918000D01*
X164084000Y-110617000D02*
X159385000Y-105918000D01*
X167672000Y-110934500D02*
X167195500Y-110934500D01*
D21*
X169418000Y-116459000D02*
X169418000Y-108331000D01*
X168910000Y-107823000D02*
X168656000Y-107823000D01*
X169418000Y-108331000D02*
X168910000Y-107823000D01*
X168656000Y-107823000D02*
X167672000Y-107696000D01*
D22*
X169418000Y-108966000D02*
X169418000Y-116459000D01*
X169418000Y-116459000D02*
X169418000Y-116522500D01*
D23*
X169672000Y-115697000D02*
X177228500Y-115697000D01*
X178054000Y-116522500D02*
X177736500Y-116522500D01*
X177736500Y-116522500D02*
X177038000Y-117221000D01*
X177228500Y-115697000D02*
X178054000Y-116522500D01*
X178054000Y-116522500D02*
X169418000Y-116522500D01*
X169418000Y-116522500D02*
X151511000Y-116522500D01*
X151511000Y-116522500D02*
X145161000Y-110172500D01*
X165481000Y-115697000D02*
X169672000Y-115697000D01*
X151828500Y-115697000D02*
X165481000Y-115697000D01*
X143764000Y-107632500D02*
X151828500Y-115697000D01*
D22*
X167672000Y-108013500D02*
X168465500Y-108013500D01*
D23*
X142621000Y-107632500D02*
X143764000Y-107632500D01*
X150939500Y-117221000D02*
X144081500Y-110363000D01*
X142621000Y-107632500D02*
X143573500Y-108585000D01*
X143573500Y-108712000D02*
X143954500Y-109093000D01*
X143573500Y-108585000D02*
X143573500Y-108712000D01*
X177038000Y-117221000D02*
X150939500Y-117221000D01*
X144081500Y-109220000D02*
X143954500Y-109093000D01*
X144081500Y-110363000D02*
X144081500Y-109220000D01*
X143954500Y-109093000D02*
X143700500Y-109093000D01*
X143700500Y-109093000D02*
X142621000Y-110172500D01*
X142621000Y-110172500D02*
X142621000Y-107632500D01*
X142621000Y-110172500D02*
X140081000Y-110172500D01*
X145161000Y-110172500D02*
X142621000Y-110172500D01*
X143129000Y-109664500D02*
X142621000Y-110172500D01*
D22*
X152043000Y-122870000D02*
X152043000Y-125706000D01*
X152043000Y-125706000D02*
X152019000Y-125730000D01*
X140004800Y-117805200D02*
X140004800Y-117906800D01*
X140004800Y-117906800D02*
X144716500Y-122618500D01*
X166306500Y-57785000D02*
X166446200Y-57785000D01*
X166446200Y-57785000D02*
X167716200Y-56515000D01*
X167716200Y-56515000D02*
X170992800Y-56515000D01*
X170992800Y-56515000D02*
X173710600Y-53797200D01*
X173710600Y-53797200D02*
X190804800Y-53797200D01*
X190804800Y-53797200D02*
X193573400Y-56565800D01*
X193573400Y-56565800D02*
X225221800Y-56565800D01*
X225221800Y-56565800D02*
X226618800Y-57962800D01*
X226618800Y-57962800D02*
X226618800Y-66446400D01*
X226618800Y-66446400D02*
X225437700Y-67627500D01*
X225437700Y-67627500D02*
X223075500Y-67627500D01*
X211251800Y-57378600D02*
X213614000Y-57378600D01*
X168846500Y-57785000D02*
X169037000Y-57785000D01*
X226364800Y-89408000D02*
X226364800Y-91135200D01*
X225171000Y-92329000D02*
X223075500Y-92329000D01*
X226364800Y-91135200D02*
X225171000Y-92329000D01*
X181711600Y-82651600D02*
X180644800Y-82651600D01*
X174040800Y-76047600D02*
X174040800Y-72694800D01*
X180644800Y-82651600D02*
X174040800Y-76047600D01*
X187502800Y-82651600D02*
X188925200Y-81229200D01*
X181711600Y-82651600D02*
X187502800Y-82651600D01*
X188925200Y-81229200D02*
X189738000Y-81229200D01*
X224790000Y-81229200D02*
X189738000Y-81229200D01*
X226364800Y-82804000D02*
X224790000Y-81229200D01*
X226364800Y-89408000D02*
X226364800Y-82804000D01*
X173126400Y-72694800D02*
X173126400Y-75946000D01*
X173126400Y-75946000D02*
X180695600Y-83515200D01*
X180695600Y-83515200D02*
X182168800Y-83515200D01*
X175869600Y-75539600D02*
X175869600Y-72694800D01*
X182270400Y-81940400D02*
X175869600Y-75539600D01*
X175006000Y-75996800D02*
X175006000Y-72694800D01*
X181000400Y-81991200D02*
X175006000Y-75996800D01*
X175006000Y-72694800D02*
X175006000Y-74879200D01*
X175006000Y-74879200D02*
X175006000Y-75082400D01*
X173761400Y-105816400D02*
X174167800Y-106222800D01*
X224536000Y-106222800D02*
X226123500Y-107810300D01*
X189433200Y-106222800D02*
X224536000Y-106222800D01*
X226123500Y-109855000D02*
X226123500Y-107810300D01*
X224980500Y-117094000D02*
X226123500Y-115951000D01*
X226123500Y-115951000D02*
X226123500Y-109855000D01*
X223075500Y-117094000D02*
X224980500Y-117094000D01*
X189433200Y-106222800D02*
X174167800Y-106222800D01*
X173913800Y-97129600D02*
X173761400Y-97282000D01*
X173761400Y-97282000D02*
X173761400Y-105816400D01*
X173736000Y-80721200D02*
X175463200Y-82448400D01*
X170332400Y-77317600D02*
X173736000Y-80721200D01*
X170332400Y-72694800D02*
X170332400Y-77317600D01*
X172720000Y-80873600D02*
X174244000Y-82397600D01*
X169468800Y-77622400D02*
X172720000Y-80873600D01*
X169468800Y-72694800D02*
X169468800Y-77622400D01*
X173024800Y-97155000D02*
X173024800Y-105613200D01*
X173024800Y-105613200D02*
X173024800Y-105587800D01*
X175666400Y-80264000D02*
X178054000Y-82651600D01*
X172161200Y-76758800D02*
X175666400Y-80264000D01*
X172161200Y-72694800D02*
X172161200Y-76758800D01*
X175666400Y-105003600D02*
X175666400Y-105359200D01*
X175666400Y-105359200D02*
X175793400Y-105486200D01*
X175641000Y-104470200D02*
X175641000Y-104978200D01*
X175641000Y-97155000D02*
X175641000Y-104470200D01*
X175641000Y-104978200D02*
X175666400Y-105003600D01*
X174777400Y-97155000D02*
X174777400Y-105537000D01*
X174447200Y-80162400D02*
X176784000Y-82499200D01*
X171196000Y-76911200D02*
X174447200Y-80162400D01*
X171196000Y-72694800D02*
X171196000Y-76911200D01*
D21*
X171672000Y-132715000D02*
X171672000Y-135255000D01*
X179940500Y-135274000D02*
X180486000Y-135274000D01*
X180486000Y-135274000D02*
X182372000Y-137160000D01*
X182372000Y-137160000D02*
X182372000Y-142621000D01*
X182372000Y-142621000D02*
X180086000Y-144907000D01*
X180086000Y-144907000D02*
X176053500Y-144907000D01*
X176053500Y-144907000D02*
X173704000Y-147256500D01*
X171672000Y-135255000D02*
X179921500Y-135255000D01*
X179921500Y-135255000D02*
X179940500Y-135274000D01*
D22*
X179940500Y-135274000D02*
X171691000Y-135274000D01*
X171691000Y-135274000D02*
X171672000Y-135255000D01*
X182372000Y-137160000D02*
X182372000Y-142557500D01*
X182372000Y-142557500D02*
X180022500Y-144907000D01*
X180486000Y-135274000D02*
X182372000Y-137160000D01*
X179921500Y-135255000D02*
X179940500Y-135274000D01*
D21*
X169704000Y-147256500D02*
X169704000Y-147352000D01*
X169704000Y-147352000D02*
X171323000Y-148971000D01*
X171323000Y-148971000D02*
X178243500Y-148971000D01*
X178243500Y-148971000D02*
X179940500Y-147274000D01*
D22*
X169704000Y-147352000D02*
X171323000Y-148971000D01*
X171323000Y-148971000D02*
X172085000Y-148971000D01*
X166981000Y-147256500D02*
X166346000Y-146621500D01*
X170204000Y-147256500D02*
X166981000Y-147256500D01*
X172085000Y-148971000D02*
X178243500Y-148971000D01*
X178243500Y-148971000D02*
X179940500Y-147274000D01*
D23*
X219710000Y-135509000D02*
X219837000Y-135509000D01*
X218059000Y-135509000D02*
X219710000Y-135509000D01*
X207933500Y-135509000D02*
X214820500Y-135509000D01*
X208505000Y-134937500D02*
X207933500Y-135509000D01*
X219837000Y-134937500D02*
X220281500Y-134937500D01*
X208505000Y-134937500D02*
X216598500Y-134937500D01*
X221805500Y-135382000D02*
X223075500Y-136652000D01*
X220535500Y-135382000D02*
X221805500Y-135382000D01*
X221551500Y-134937500D02*
X222250000Y-134937500D01*
X222250000Y-134937500D02*
X223075500Y-135763000D01*
X223075500Y-135763000D02*
X223075500Y-136652000D01*
X219837000Y-134937500D02*
X221551500Y-134937500D01*
X220408500Y-135509000D02*
X220535500Y-135382000D01*
X219710000Y-135509000D02*
X220408500Y-135509000D01*
X221678500Y-135509000D02*
X221805500Y-135382000D01*
X218059000Y-135509000D02*
X221678500Y-135509000D01*
X207933500Y-147066000D02*
X207933500Y-135509000D01*
X208915000Y-136490500D02*
X207933500Y-135509000D01*
X208915000Y-145542000D02*
X208915000Y-136490500D01*
X207933500Y-146523500D02*
X208915000Y-145542000D01*
X207933500Y-147066000D02*
X207933500Y-146523500D01*
X207137000Y-136305500D02*
X207933500Y-135509000D01*
X207137000Y-145605500D02*
X207137000Y-136305500D01*
X207933500Y-146402000D02*
X207137000Y-145605500D01*
X207933500Y-147066000D02*
X207933500Y-146402000D01*
X207933500Y-135509000D02*
X218059000Y-135509000D01*
X216598500Y-134937500D02*
X219837000Y-134937500D01*
X216027000Y-135509000D02*
X216598500Y-134937500D01*
X207933500Y-135509000D02*
X216027000Y-135509000D01*
X209330500Y-134112000D02*
X207933500Y-135509000D01*
X223075500Y-134747000D02*
X222440500Y-134112000D01*
X222440500Y-134112000D02*
X209330500Y-134112000D01*
X223647000Y-135318500D02*
X223647000Y-136080500D01*
X223647000Y-136080500D02*
X223075500Y-136652000D01*
X223075500Y-134747000D02*
X223647000Y-135318500D01*
X192348500Y-147066000D02*
X192140500Y-147274000D01*
X192348500Y-147066000D02*
X192140500Y-147274000D01*
X201133500Y-147066000D02*
X192348500Y-147066000D01*
X200925500Y-147274000D02*
X201133500Y-147066000D01*
X192140500Y-147274000D02*
X200925500Y-147274000D01*
X199136000Y-146113500D02*
X193301000Y-146113500D01*
X193301000Y-146113500D02*
X192140500Y-147274000D01*
X200088500Y-147066000D02*
X199136000Y-146113500D01*
X201133500Y-147066000D02*
X200088500Y-147066000D01*
X199990500Y-148209000D02*
X201133500Y-147066000D01*
X193484500Y-148209000D02*
X199990500Y-148209000D01*
X192549500Y-147274000D02*
X193484500Y-148209000D01*
X192140500Y-147274000D02*
X192549500Y-147274000D01*
X192475500Y-135509000D02*
X192190500Y-135224000D01*
X200848500Y-135224000D02*
X201133500Y-135509000D01*
X192190500Y-135224000D02*
X200848500Y-135224000D01*
X192475500Y-135509000D02*
X192190500Y-135224000D01*
X201133500Y-135509000D02*
X192475500Y-135509000D01*
X200181000Y-136461500D02*
X201133500Y-135509000D01*
X192659000Y-136461500D02*
X200181000Y-136461500D01*
X192190500Y-135993000D02*
X192659000Y-136461500D01*
X192190500Y-135224000D02*
X192190500Y-135993000D01*
X199990500Y-134366000D02*
X201133500Y-135509000D01*
X193167000Y-134366000D02*
X199990500Y-134366000D01*
X192309000Y-135224000D02*
X193167000Y-134366000D01*
X192190500Y-135224000D02*
X192309000Y-135224000D01*
D22*
X162356800Y-81076800D02*
X162356800Y-82448400D01*
X172593000Y-121666000D02*
X172593000Y-130302000D01*
X172593000Y-130556000D02*
X173228000Y-131191000D01*
X189738000Y-130556000D02*
X225298000Y-130556000D01*
X189103000Y-131191000D02*
X189738000Y-130556000D01*
X173228000Y-131191000D02*
X189103000Y-131191000D01*
X172593000Y-130302000D02*
X172593000Y-130556000D01*
X169291000Y-97155000D02*
X169291000Y-105638600D01*
X165912800Y-77520800D02*
X162356800Y-81076800D01*
X165912800Y-72694800D02*
X165912800Y-77520800D01*
X225298000Y-130556000D02*
X226123500Y-131381500D01*
X223075500Y-141732000D02*
X225171000Y-141732000D01*
X226123500Y-140779500D02*
X226123500Y-134366000D01*
X225171000Y-141732000D02*
X226123500Y-140779500D01*
X226123500Y-134366000D02*
X226123500Y-131381500D01*
X152336500Y-60642500D02*
X153212800Y-61518800D01*
X167690800Y-72694800D02*
X167690800Y-77724000D01*
X167690800Y-77724000D02*
X164439600Y-80975200D01*
X164439600Y-80975200D02*
X164439600Y-82499200D01*
X174498000Y-121666000D02*
X174498000Y-130302000D01*
X171119800Y-97180400D02*
X171119800Y-105638600D01*
X152336500Y-59994800D02*
X152336500Y-60642500D01*
X152336500Y-60642500D02*
X152336500Y-59994800D01*
X152336500Y-59994800D02*
X152336500Y-56515000D01*
X152336500Y-56515000D02*
X153606500Y-55245000D01*
X173609000Y-121666000D02*
X173609000Y-130302000D01*
X170205400Y-97155000D02*
X170205400Y-105587800D01*
X166827200Y-72694800D02*
X166827200Y-76301600D01*
X166827200Y-76301600D02*
X166827200Y-77673200D01*
X166827200Y-77673200D02*
X163372800Y-81127600D01*
X163372800Y-81127600D02*
X163372800Y-82499200D01*
D21*
X140004800Y-132334000D02*
X140004800Y-131140200D01*
X140004800Y-131140200D02*
X140843000Y-130302000D01*
X159385000Y-130302000D02*
X164338000Y-135255000D01*
X140843000Y-130302000D02*
X159385000Y-130302000D01*
X164338000Y-135255000D02*
X167672000Y-135255000D01*
D22*
X167672000Y-135255000D02*
X164338000Y-135255000D01*
X159512000Y-130429000D02*
X158623000Y-130429000D01*
X164338000Y-135255000D02*
X159512000Y-130429000D01*
X140716000Y-130429000D02*
X140004800Y-131140200D01*
X158623000Y-130429000D02*
X140716000Y-130429000D01*
D21*
X169608500Y-141224000D02*
X169608500Y-133032500D01*
X169608500Y-133032500D02*
X169291000Y-132715000D01*
X169291000Y-132715000D02*
X167672000Y-132715000D01*
D23*
X151447500Y-141224000D02*
X145097500Y-134874000D01*
X177990500Y-141224000D02*
X169608500Y-141224000D01*
X169608500Y-141224000D02*
X151447500Y-141224000D01*
X177165000Y-140398500D02*
X177990500Y-141224000D01*
X169608500Y-140398500D02*
X177165000Y-140398500D01*
X177673000Y-141224000D02*
X176974500Y-141922500D01*
X177990500Y-141224000D02*
X177673000Y-141224000D01*
X165417500Y-140398500D02*
X169608500Y-140398500D01*
X151765000Y-140398500D02*
X165417500Y-140398500D01*
D22*
X167672000Y-132715000D02*
X169291000Y-132715000D01*
X169291000Y-132715000D02*
X169608500Y-133032500D01*
D23*
X143065500Y-134366000D02*
X142557500Y-134874000D01*
X145097500Y-134874000D02*
X142557500Y-134874000D01*
X142557500Y-134874000D02*
X140017500Y-134874000D01*
X142557500Y-134874000D02*
X142557500Y-132334000D01*
X143700500Y-132334000D02*
X151765000Y-140398500D01*
X142557500Y-132334000D02*
X143700500Y-132334000D01*
X143637000Y-133794500D02*
X142557500Y-134874000D01*
X143891000Y-133794500D02*
X143637000Y-133794500D01*
X144018000Y-135064500D02*
X144018000Y-133921500D01*
X144018000Y-133921500D02*
X143891000Y-133794500D01*
X176974500Y-141922500D02*
X150876000Y-141922500D01*
X143510000Y-133286500D02*
X143510000Y-133413500D01*
X143510000Y-133413500D02*
X143891000Y-133794500D01*
X142557500Y-132334000D02*
X143510000Y-133286500D01*
X150876000Y-141922500D02*
X144018000Y-135064500D01*
D22*
X163346000Y-147571500D02*
X163346000Y-150471000D01*
X163346000Y-150471000D02*
X163322000Y-150495000D01*
X140004800Y-142494000D02*
X140004800Y-143306800D01*
X140004800Y-143306800D02*
X144018000Y-147320000D01*
X144018000Y-147320000D02*
X154908500Y-147320000D01*
X165455600Y-81026000D02*
X165455600Y-82499200D01*
X175387000Y-128778000D02*
X175387000Y-130302000D01*
X175387000Y-121666000D02*
X175387000Y-128778000D01*
X172034200Y-97155000D02*
X172034200Y-105613200D01*
X168554400Y-77927200D02*
X165455600Y-81026000D01*
X168554400Y-72694800D02*
X168554400Y-77927200D01*
X152322400Y-71948000D02*
X150066800Y-71948000D01*
X150066800Y-71948000D02*
X149015200Y-72999600D01*
X152119200Y-96319300D02*
X149939800Y-96319300D01*
X149939800Y-96319300D02*
X148570700Y-97688400D01*
X152043000Y-120970000D02*
X150524000Y-120970000D01*
X150524000Y-120970000D02*
X149066000Y-122428000D01*
X149254000Y-122870000D02*
X149066000Y-122682000D01*
X163343500Y-145669000D02*
X163346000Y-145671500D01*
X163346000Y-145671500D02*
X160557000Y-145671500D01*
X160557000Y-145671500D02*
X158908500Y-147320000D01*
X159160000Y-147571500D02*
X158908500Y-147320000D01*
D24*
G36*
X210721473Y-58170792D02*
X211065001Y-58313438D01*
X211436967Y-58313762D01*
X211780743Y-58171717D01*
X211786470Y-58166000D01*
X213078889Y-58166000D01*
X213083673Y-58170792D01*
X213427201Y-58313438D01*
X213799167Y-58313762D01*
X214142943Y-58171717D01*
X214148670Y-58166000D01*
X225044000Y-58166000D01*
X225044000Y-63627000D01*
X221996000Y-63627000D01*
X221996000Y-62865000D01*
X221985994Y-62815590D01*
X221957553Y-62773965D01*
X221915159Y-62746685D01*
X221869000Y-62738000D01*
X221414861Y-62738000D01*
X221321064Y-62644039D01*
X220812202Y-62432741D01*
X220261215Y-62432260D01*
X219751985Y-62642669D01*
X219656488Y-62738000D01*
X216281000Y-62738000D01*
X216231590Y-62748006D01*
X216189965Y-62776447D01*
X216162685Y-62818841D01*
X216154000Y-62865000D01*
X216154000Y-74676000D01*
X206248000Y-74676000D01*
X206248000Y-58166000D01*
X210716689Y-58166000D01*
X210721473Y-58170792D01*
X210721473Y-58170792D01*
G37*
X210721473Y-58170792D02*
X211065001Y-58313438D01*
X211436967Y-58313762D01*
X211780743Y-58171717D01*
X211786470Y-58166000D01*
X213078889Y-58166000D01*
X213083673Y-58170792D01*
X213427201Y-58313438D01*
X213799167Y-58313762D01*
X214142943Y-58171717D01*
X214148670Y-58166000D01*
X225044000Y-58166000D01*
X225044000Y-63627000D01*
X221996000Y-63627000D01*
X221996000Y-62865000D01*
X221985994Y-62815590D01*
X221957553Y-62773965D01*
X221915159Y-62746685D01*
X221869000Y-62738000D01*
X221414861Y-62738000D01*
X221321064Y-62644039D01*
X220812202Y-62432741D01*
X220261215Y-62432260D01*
X219751985Y-62642669D01*
X219656488Y-62738000D01*
X216281000Y-62738000D01*
X216231590Y-62748006D01*
X216189965Y-62776447D01*
X216162685Y-62818841D01*
X216154000Y-62865000D01*
X216154000Y-74676000D01*
X206248000Y-74676000D01*
X206248000Y-58166000D01*
X210716689Y-58166000D01*
X210721473Y-58170792D01*
G36*
X225044000Y-88392000D02*
X221996000Y-88392000D01*
X221996000Y-87630000D01*
X221985994Y-87580590D01*
X221957553Y-87538965D01*
X221915159Y-87511685D01*
X221869000Y-87503000D01*
X221478251Y-87503000D01*
X221321064Y-87345539D01*
X220812202Y-87134241D01*
X220261215Y-87133760D01*
X219751985Y-87344169D01*
X219592877Y-87503000D01*
X216281000Y-87503000D01*
X216231590Y-87513006D01*
X216189965Y-87541447D01*
X216162685Y-87583841D01*
X216154000Y-87630000D01*
X216154000Y-99441000D01*
X206248000Y-99441000D01*
X206248000Y-82931000D01*
X225044000Y-82931000D01*
X225044000Y-88392000D01*
X225044000Y-88392000D01*
G37*
X225044000Y-88392000D02*
X221996000Y-88392000D01*
X221996000Y-87630000D01*
X221985994Y-87580590D01*
X221957553Y-87538965D01*
X221915159Y-87511685D01*
X221869000Y-87503000D01*
X221478251Y-87503000D01*
X221321064Y-87345539D01*
X220812202Y-87134241D01*
X220261215Y-87133760D01*
X219751985Y-87344169D01*
X219592877Y-87503000D01*
X216281000Y-87503000D01*
X216231590Y-87513006D01*
X216189965Y-87541447D01*
X216162685Y-87583841D01*
X216154000Y-87630000D01*
X216154000Y-99441000D01*
X206248000Y-99441000D01*
X206248000Y-82931000D01*
X225044000Y-82931000D01*
X225044000Y-88392000D01*
G36*
X225044000Y-113284000D02*
X223628572Y-113284000D01*
X223352202Y-113169241D01*
X222801215Y-113168760D01*
X222522312Y-113284000D01*
X221996000Y-113284000D01*
X221996000Y-112522000D01*
X221985994Y-112472590D01*
X221957553Y-112430965D01*
X221915159Y-112403685D01*
X221869000Y-112395000D01*
X221605030Y-112395000D01*
X221321064Y-112110539D01*
X220812202Y-111899241D01*
X220261215Y-111898760D01*
X219751985Y-112109169D01*
X219465655Y-112395000D01*
X216281000Y-112395000D01*
X216231590Y-112405006D01*
X216189965Y-112433447D01*
X216162685Y-112475841D01*
X216154000Y-112522000D01*
X216154000Y-124333000D01*
X206248000Y-124333000D01*
X206248000Y-107823000D01*
X225044000Y-107823000D01*
X225044000Y-113284000D01*
X225044000Y-113284000D01*
G37*
X225044000Y-113284000D02*
X223628572Y-113284000D01*
X223352202Y-113169241D01*
X222801215Y-113168760D01*
X222522312Y-113284000D01*
X221996000Y-113284000D01*
X221996000Y-112522000D01*
X221985994Y-112472590D01*
X221957553Y-112430965D01*
X221915159Y-112403685D01*
X221869000Y-112395000D01*
X221605030Y-112395000D01*
X221321064Y-112110539D01*
X220812202Y-111899241D01*
X220261215Y-111898760D01*
X219751985Y-112109169D01*
X219465655Y-112395000D01*
X216281000Y-112395000D01*
X216231590Y-112405006D01*
X216189965Y-112433447D01*
X216162685Y-112475841D01*
X216154000Y-112522000D01*
X216154000Y-124333000D01*
X206248000Y-124333000D01*
X206248000Y-107823000D01*
X225044000Y-107823000D01*
X225044000Y-113284000D01*
G36*
X225044000Y-137795000D02*
X221996000Y-137795000D01*
X221996000Y-137033000D01*
X221985994Y-136983590D01*
X221957553Y-136941965D01*
X221915159Y-136914685D01*
X221869000Y-136906000D01*
X221478251Y-136906000D01*
X221321064Y-136748539D01*
X220812202Y-136537241D01*
X220261215Y-136536760D01*
X219751985Y-136747169D01*
X219592877Y-136906000D01*
X216281000Y-136906000D01*
X216231590Y-136916006D01*
X216189965Y-136944447D01*
X216162685Y-136986841D01*
X216154000Y-137033000D01*
X216154000Y-148844000D01*
X206248000Y-148844000D01*
X206248000Y-132334000D01*
X225044000Y-132334000D01*
X225044000Y-137795000D01*
X225044000Y-137795000D01*
G37*
X225044000Y-137795000D02*
X221996000Y-137795000D01*
X221996000Y-137033000D01*
X221985994Y-136983590D01*
X221957553Y-136941965D01*
X221915159Y-136914685D01*
X221869000Y-136906000D01*
X221478251Y-136906000D01*
X221321064Y-136748539D01*
X220812202Y-136537241D01*
X220261215Y-136536760D01*
X219751985Y-136747169D01*
X219592877Y-136906000D01*
X216281000Y-136906000D01*
X216231590Y-136916006D01*
X216189965Y-136944447D01*
X216162685Y-136986841D01*
X216154000Y-137033000D01*
X216154000Y-148844000D01*
X206248000Y-148844000D01*
X206248000Y-132334000D01*
X225044000Y-132334000D01*
X225044000Y-137795000D01*
G36*
X202946000Y-150876000D02*
X189865000Y-150876000D01*
X189865000Y-143002000D01*
X202946000Y-143002000D01*
X202946000Y-150876000D01*
X202946000Y-150876000D01*
G37*
X202946000Y-150876000D02*
X189865000Y-150876000D01*
X189865000Y-143002000D01*
X202946000Y-143002000D01*
X202946000Y-150876000D01*
G36*
X202946000Y-139319000D02*
X189865000Y-139319000D01*
X189865000Y-131503802D01*
X189923802Y-131445000D01*
X202946000Y-131445000D01*
X202946000Y-139319000D01*
X202946000Y-139319000D01*
G37*
X202946000Y-139319000D02*
X189865000Y-139319000D01*
X189865000Y-131503802D01*
X189923802Y-131445000D01*
X202946000Y-131445000D01*
X202946000Y-139319000D01*
G36*
X202946000Y-126238000D02*
X189865000Y-126238000D01*
X189865000Y-118364000D01*
X202946000Y-118364000D01*
X202946000Y-126238000D01*
X202946000Y-126238000D01*
G37*
X202946000Y-126238000D02*
X189865000Y-126238000D01*
X189865000Y-118364000D01*
X202946000Y-118364000D01*
X202946000Y-126238000D01*
G36*
X202946000Y-114681000D02*
X189865000Y-114681000D01*
X189865000Y-106982800D01*
X202946000Y-106982800D01*
X202946000Y-114681000D01*
X202946000Y-114681000D01*
G37*
X202946000Y-114681000D02*
X189865000Y-114681000D01*
X189865000Y-106982800D01*
X202946000Y-106982800D01*
X202946000Y-114681000D01*
G36*
X202946000Y-101473000D02*
X189865000Y-101473000D01*
X189865000Y-93599000D01*
X202946000Y-93599000D01*
X202946000Y-101473000D01*
X202946000Y-101473000D01*
G37*
X202946000Y-101473000D02*
X189865000Y-101473000D01*
X189865000Y-93599000D01*
X202946000Y-93599000D01*
X202946000Y-101473000D01*
G36*
X202946000Y-89916000D02*
X189865000Y-89916000D01*
X189865000Y-82042000D01*
X202946000Y-82042000D01*
X202946000Y-89916000D01*
X202946000Y-89916000D01*
G37*
X202946000Y-89916000D02*
X189865000Y-89916000D01*
X189865000Y-82042000D01*
X202946000Y-82042000D01*
X202946000Y-89916000D01*
G36*
X202946000Y-76835000D02*
X189865000Y-76835000D01*
X189865000Y-68961000D01*
X202946000Y-68961000D01*
X202946000Y-76835000D01*
X202946000Y-76835000D01*
G37*
X202946000Y-76835000D02*
X189865000Y-76835000D01*
X189865000Y-68961000D01*
X202946000Y-68961000D01*
X202946000Y-76835000D01*
G36*
X202946000Y-65278000D02*
X189865000Y-65278000D01*
X189865000Y-57404000D01*
X202946000Y-57404000D01*
X202946000Y-65278000D01*
X202946000Y-65278000D01*
G37*
X202946000Y-65278000D02*
X189865000Y-65278000D01*
X189865000Y-57404000D01*
X202946000Y-57404000D01*
X202946000Y-65278000D01*
G36*
X164248197Y-136741803D02*
X164290211Y-136769666D01*
X164338000Y-136779000D01*
X178255394Y-136779000D01*
X181229000Y-139752606D01*
X181229000Y-142512421D01*
X179719420Y-144022000D01*
X176053505Y-144022000D01*
X176053500Y-144021999D01*
X175771016Y-144078190D01*
X175714825Y-144089367D01*
X175441494Y-144272000D01*
X150801606Y-144272000D01*
X144145000Y-137615394D01*
X144145000Y-136779000D01*
X144134994Y-136729590D01*
X144107803Y-136689197D01*
X143345803Y-135927197D01*
X143303789Y-135899334D01*
X143256000Y-135890000D01*
X138938000Y-135890000D01*
X138938000Y-133787537D01*
X139154800Y-133831440D01*
X140854800Y-133831440D01*
X141090117Y-133787162D01*
X141177395Y-133731000D01*
X141351000Y-133731000D01*
X141400410Y-133720994D01*
X141442035Y-133692553D01*
X141469315Y-133650159D01*
X141478000Y-133604000D01*
X141478000Y-133303701D01*
X141502240Y-133184000D01*
X141502240Y-131484000D01*
X141478000Y-131355176D01*
X141478000Y-131191000D01*
X158697394Y-131191000D01*
X164248197Y-136741803D01*
X164248197Y-136741803D01*
G37*
X164248197Y-136741803D02*
X164290211Y-136769666D01*
X164338000Y-136779000D01*
X178255394Y-136779000D01*
X181229000Y-139752606D01*
X181229000Y-142512421D01*
X179719420Y-144022000D01*
X176053505Y-144022000D01*
X176053500Y-144021999D01*
X175771016Y-144078190D01*
X175714825Y-144089367D01*
X175441494Y-144272000D01*
X150801606Y-144272000D01*
X144145000Y-137615394D01*
X144145000Y-136779000D01*
X144134994Y-136729590D01*
X144107803Y-136689197D01*
X143345803Y-135927197D01*
X143303789Y-135899334D01*
X143256000Y-135890000D01*
X138938000Y-135890000D01*
X138938000Y-133787537D01*
X139154800Y-133831440D01*
X140854800Y-133831440D01*
X141090117Y-133787162D01*
X141177395Y-133731000D01*
X141351000Y-133731000D01*
X141400410Y-133720994D01*
X141442035Y-133692553D01*
X141469315Y-133650159D01*
X141478000Y-133604000D01*
X141478000Y-133303701D01*
X141502240Y-133184000D01*
X141502240Y-131484000D01*
X141478000Y-131355176D01*
X141478000Y-131191000D01*
X158697394Y-131191000D01*
X164248197Y-136741803D01*
G36*
X164248197Y-112103803D02*
X164290211Y-112131666D01*
X164338000Y-112141000D01*
X178255394Y-112141000D01*
X181229000Y-115114606D01*
X181229000Y-117930394D01*
X179902394Y-119257000D01*
X163925005Y-119257000D01*
X163925000Y-119256999D01*
X163642516Y-119313190D01*
X163586325Y-119324367D01*
X163299210Y-119516210D01*
X163299208Y-119516213D01*
X163181421Y-119634000D01*
X150801606Y-119634000D01*
X144145000Y-112977394D01*
X144145000Y-112141000D01*
X144134994Y-112091590D01*
X144107803Y-112051197D01*
X143345803Y-111289197D01*
X143303789Y-111261334D01*
X143256000Y-111252000D01*
X142633216Y-111252000D01*
X142573893Y-111240200D01*
X142515707Y-111240200D01*
X142456384Y-111252000D01*
X140093216Y-111252000D01*
X140033893Y-111240200D01*
X139975707Y-111240200D01*
X139916384Y-111252000D01*
X138938000Y-111252000D01*
X138938000Y-109098737D01*
X139154800Y-109142640D01*
X140854800Y-109142640D01*
X141090117Y-109098362D01*
X141098450Y-109093000D01*
X141351000Y-109093000D01*
X141400410Y-109082994D01*
X141442035Y-109054553D01*
X141469315Y-109012159D01*
X141478000Y-108966000D01*
X141478000Y-108614901D01*
X141502240Y-108495200D01*
X141502240Y-106795200D01*
X141480187Y-106678000D01*
X158822394Y-106678000D01*
X164248197Y-112103803D01*
X164248197Y-112103803D01*
G37*
X164248197Y-112103803D02*
X164290211Y-112131666D01*
X164338000Y-112141000D01*
X178255394Y-112141000D01*
X181229000Y-115114606D01*
X181229000Y-117930394D01*
X179902394Y-119257000D01*
X163925005Y-119257000D01*
X163925000Y-119256999D01*
X163642516Y-119313190D01*
X163586325Y-119324367D01*
X163299210Y-119516210D01*
X163299208Y-119516213D01*
X163181421Y-119634000D01*
X150801606Y-119634000D01*
X144145000Y-112977394D01*
X144145000Y-112141000D01*
X144134994Y-112091590D01*
X144107803Y-112051197D01*
X143345803Y-111289197D01*
X143303789Y-111261334D01*
X143256000Y-111252000D01*
X142633216Y-111252000D01*
X142573893Y-111240200D01*
X142515707Y-111240200D01*
X142456384Y-111252000D01*
X140093216Y-111252000D01*
X140033893Y-111240200D01*
X139975707Y-111240200D01*
X139916384Y-111252000D01*
X138938000Y-111252000D01*
X138938000Y-109098737D01*
X139154800Y-109142640D01*
X140854800Y-109142640D01*
X141090117Y-109098362D01*
X141098450Y-109093000D01*
X141351000Y-109093000D01*
X141400410Y-109082994D01*
X141442035Y-109054553D01*
X141469315Y-109012159D01*
X141478000Y-108966000D01*
X141478000Y-108614901D01*
X141502240Y-108495200D01*
X141502240Y-106795200D01*
X141480187Y-106678000D01*
X158822394Y-106678000D01*
X164248197Y-112103803D01*
G36*
X163356608Y-86477787D02*
X163356610Y-86477790D01*
X163448749Y-86539355D01*
X164248197Y-87338803D01*
X164290211Y-87366666D01*
X164338000Y-87376000D01*
X178255394Y-87376000D01*
X181229000Y-90349606D01*
X181229000Y-93165394D01*
X179648394Y-94746000D01*
X164001205Y-94746000D01*
X164001200Y-94745999D01*
X163662525Y-94813367D01*
X163579264Y-94869000D01*
X150801606Y-94869000D01*
X144145000Y-88212394D01*
X144145000Y-87376000D01*
X144134994Y-87326590D01*
X144107803Y-87286197D01*
X143345803Y-86524197D01*
X143303789Y-86496334D01*
X143256000Y-86487000D01*
X138938000Y-86487000D01*
X138938000Y-84409937D01*
X139154800Y-84453840D01*
X140854800Y-84453840D01*
X141090117Y-84409562D01*
X141216868Y-84328000D01*
X141351000Y-84328000D01*
X141400410Y-84317994D01*
X141442035Y-84289553D01*
X141469315Y-84247159D01*
X141478000Y-84201000D01*
X141478000Y-83926101D01*
X141502240Y-83806400D01*
X141502240Y-82106400D01*
X141478000Y-81977576D01*
X141478000Y-81913000D01*
X158791820Y-81913000D01*
X163356608Y-86477787D01*
X163356608Y-86477787D01*
G37*
X163356608Y-86477787D02*
X163356610Y-86477790D01*
X163448749Y-86539355D01*
X164248197Y-87338803D01*
X164290211Y-87366666D01*
X164338000Y-87376000D01*
X178255394Y-87376000D01*
X181229000Y-90349606D01*
X181229000Y-93165394D01*
X179648394Y-94746000D01*
X164001205Y-94746000D01*
X164001200Y-94745999D01*
X163662525Y-94813367D01*
X163579264Y-94869000D01*
X150801606Y-94869000D01*
X144145000Y-88212394D01*
X144145000Y-87376000D01*
X144134994Y-87326590D01*
X144107803Y-87286197D01*
X143345803Y-86524197D01*
X143303789Y-86496334D01*
X143256000Y-86487000D01*
X138938000Y-86487000D01*
X138938000Y-84409937D01*
X139154800Y-84453840D01*
X140854800Y-84453840D01*
X141090117Y-84409562D01*
X141216868Y-84328000D01*
X141351000Y-84328000D01*
X141400410Y-84317994D01*
X141442035Y-84289553D01*
X141469315Y-84247159D01*
X141478000Y-84201000D01*
X141478000Y-83926101D01*
X141502240Y-83806400D01*
X141502240Y-82106400D01*
X141478000Y-81977576D01*
X141478000Y-81913000D01*
X158791820Y-81913000D01*
X163356608Y-86477787D01*
G36*
X146558000Y-58801000D02*
X146568006Y-58850410D01*
X146595197Y-58890803D01*
X147357197Y-59652803D01*
X147399211Y-59680666D01*
X147447000Y-59690000D01*
X148918394Y-59690000D01*
X151548197Y-62319803D01*
X151590211Y-62347666D01*
X151638000Y-62357000D01*
X152793272Y-62357000D01*
X153026001Y-62453638D01*
X153397967Y-62453962D01*
X153632634Y-62357000D01*
X177620394Y-62357000D01*
X180848000Y-65584606D01*
X180848000Y-68527394D01*
X179221804Y-70153590D01*
X179168516Y-70164190D01*
X179112325Y-70175367D01*
X178825210Y-70367210D01*
X178825208Y-70367213D01*
X178718023Y-70474398D01*
X164479607Y-70474398D01*
X164479602Y-70474397D01*
X164197118Y-70530588D01*
X164140927Y-70541765D01*
X163853812Y-70733608D01*
X163853810Y-70733611D01*
X163721421Y-70866000D01*
X151055606Y-70866000D01*
X144399000Y-64209394D01*
X144399000Y-62865000D01*
X144388994Y-62815590D01*
X144361803Y-62775197D01*
X143891000Y-62304394D01*
X143891000Y-61976000D01*
X143880994Y-61926590D01*
X143852553Y-61884965D01*
X143810159Y-61857685D01*
X143764000Y-61849000D01*
X138938000Y-61849000D01*
X138938000Y-59822737D01*
X139154800Y-59866640D01*
X140854800Y-59866640D01*
X141090117Y-59822362D01*
X141098450Y-59817000D01*
X141351000Y-59817000D01*
X141400410Y-59806994D01*
X141442035Y-59778553D01*
X141469315Y-59736159D01*
X141478000Y-59690000D01*
X141478000Y-59338901D01*
X141502240Y-59219200D01*
X141502240Y-57519200D01*
X141478000Y-57390376D01*
X141478000Y-57277000D01*
X146558000Y-57277000D01*
X146558000Y-58801000D01*
X146558000Y-58801000D01*
G37*
X146558000Y-58801000D02*
X146568006Y-58850410D01*
X146595197Y-58890803D01*
X147357197Y-59652803D01*
X147399211Y-59680666D01*
X147447000Y-59690000D01*
X148918394Y-59690000D01*
X151548197Y-62319803D01*
X151590211Y-62347666D01*
X151638000Y-62357000D01*
X152793272Y-62357000D01*
X153026001Y-62453638D01*
X153397967Y-62453962D01*
X153632634Y-62357000D01*
X177620394Y-62357000D01*
X180848000Y-65584606D01*
X180848000Y-68527394D01*
X179221804Y-70153590D01*
X179168516Y-70164190D01*
X179112325Y-70175367D01*
X178825210Y-70367210D01*
X178825208Y-70367213D01*
X178718023Y-70474398D01*
X164479607Y-70474398D01*
X164479602Y-70474397D01*
X164197118Y-70530588D01*
X164140927Y-70541765D01*
X163853812Y-70733608D01*
X163853810Y-70733611D01*
X163721421Y-70866000D01*
X151055606Y-70866000D01*
X144399000Y-64209394D01*
X144399000Y-62865000D01*
X144388994Y-62815590D01*
X144361803Y-62775197D01*
X143891000Y-62304394D01*
X143891000Y-61976000D01*
X143880994Y-61926590D01*
X143852553Y-61884965D01*
X143810159Y-61857685D01*
X143764000Y-61849000D01*
X138938000Y-61849000D01*
X138938000Y-59822737D01*
X139154800Y-59866640D01*
X140854800Y-59866640D01*
X141090117Y-59822362D01*
X141098450Y-59817000D01*
X141351000Y-59817000D01*
X141400410Y-59806994D01*
X141442035Y-59778553D01*
X141469315Y-59736159D01*
X141478000Y-59690000D01*
X141478000Y-59338901D01*
X141502240Y-59219200D01*
X141502240Y-57519200D01*
X141478000Y-57390376D01*
X141478000Y-57277000D01*
X146558000Y-57277000D01*
X146558000Y-58801000D01*
M02*
