G04 #@! TF.FileFunction,Soldermask,Bot*
%FSLAX46Y46*%
G04 Gerber Fmt 4.6, Leading zero omitted, Abs format (unit mm)*
G04 Created by KiCad (PCBNEW 4.0.7) date 03/01/19 13:16:32*
%MOMM*%
%LPD*%
G01*
G04 APERTURE LIST*
%ADD10C,0.100000*%
%ADD11C,1.900000*%
%ADD12C,3.000000*%
%ADD13C,2.900000*%
%ADD14C,3.400000*%
%ADD15R,2.100000X2.100000*%
%ADD16O,2.100000X2.100000*%
%ADD17C,0.254000*%
G04 APERTURE END LIST*
D10*
D11*
X223075500Y-136652000D03*
X223075500Y-139192000D03*
X223075500Y-141732000D03*
X223075500Y-144272000D03*
X220535500Y-135382000D03*
X220535500Y-137922000D03*
X220535500Y-140462000D03*
X220535500Y-143002000D03*
D12*
X233235500Y-147574000D03*
X233235500Y-131826000D03*
D13*
X179940500Y-73169500D03*
D14*
X192140500Y-73169500D03*
X192190500Y-61119500D03*
D13*
X179940500Y-61169500D03*
D14*
X177990500Y-67119500D03*
D13*
X179940500Y-147274000D03*
D14*
X192140500Y-147274000D03*
X192190500Y-135224000D03*
D13*
X179940500Y-135274000D03*
D14*
X177990500Y-141224000D03*
D13*
X179940500Y-97871000D03*
D14*
X192140500Y-97871000D03*
X192190500Y-85821000D03*
D13*
X179940500Y-85871000D03*
D14*
X177990500Y-91821000D03*
D13*
X180004000Y-122572500D03*
D14*
X192204000Y-122572500D03*
X192254000Y-110522500D03*
D13*
X180004000Y-110572500D03*
D14*
X178054000Y-116522500D03*
D15*
X148526500Y-57785000D03*
D16*
X148526500Y-55245000D03*
X151066500Y-57785000D03*
X151066500Y-55245000D03*
X153606500Y-57785000D03*
X153606500Y-55245000D03*
X156146500Y-57785000D03*
X156146500Y-55245000D03*
X158686500Y-57785000D03*
X158686500Y-55245000D03*
X161226500Y-57785000D03*
X161226500Y-55245000D03*
X163766500Y-57785000D03*
X163766500Y-55245000D03*
X166306500Y-57785000D03*
X166306500Y-55245000D03*
X168846500Y-57785000D03*
X168846500Y-55245000D03*
D15*
X140004800Y-58369200D03*
D16*
X142544800Y-58369200D03*
X140004800Y-60909200D03*
X142544800Y-60909200D03*
X140004800Y-63449200D03*
X142544800Y-63449200D03*
X140004800Y-65989200D03*
X142544800Y-65989200D03*
X140004800Y-68529200D03*
X142544800Y-68529200D03*
D15*
X140004800Y-132334000D03*
D16*
X142544800Y-132334000D03*
X140004800Y-134874000D03*
X142544800Y-134874000D03*
X140004800Y-137414000D03*
X142544800Y-137414000D03*
X140004800Y-139954000D03*
X142544800Y-139954000D03*
X140004800Y-142494000D03*
X142544800Y-142494000D03*
D15*
X140004800Y-107645200D03*
D16*
X142544800Y-107645200D03*
X140004800Y-110185200D03*
X142544800Y-110185200D03*
X140004800Y-112725200D03*
X142544800Y-112725200D03*
X140004800Y-115265200D03*
X142544800Y-115265200D03*
X140004800Y-117805200D03*
X142544800Y-117805200D03*
D15*
X140004800Y-82956400D03*
D16*
X142544800Y-82956400D03*
X140004800Y-85496400D03*
X142544800Y-85496400D03*
X140004800Y-88036400D03*
X142544800Y-88036400D03*
X140004800Y-90576400D03*
X142544800Y-90576400D03*
X140004800Y-93116400D03*
X142544800Y-93116400D03*
D11*
X223075500Y-62547500D03*
X223075500Y-65087500D03*
X223075500Y-67627500D03*
X223075500Y-70167500D03*
X220535500Y-61277500D03*
X220535500Y-63817500D03*
X220535500Y-66357500D03*
X220535500Y-68897500D03*
D12*
X233235500Y-73469500D03*
X233235500Y-57721500D03*
D11*
X223075500Y-87249000D03*
X223075500Y-89789000D03*
X223075500Y-92329000D03*
X223075500Y-94869000D03*
X220535500Y-85979000D03*
X220535500Y-88519000D03*
X220535500Y-91059000D03*
X220535500Y-93599000D03*
D12*
X233235500Y-98171000D03*
X233235500Y-82423000D03*
D11*
X223075500Y-112014000D03*
X223075500Y-114554000D03*
X223075500Y-117094000D03*
X223075500Y-119634000D03*
X220535500Y-110744000D03*
X220535500Y-113284000D03*
X220535500Y-115824000D03*
X220535500Y-118364000D03*
D12*
X233235500Y-122936000D03*
X233235500Y-107188000D03*
D17*
G36*
X224637600Y-140589000D02*
X222275400Y-140589000D01*
X222225990Y-140599006D01*
X222185597Y-140626197D01*
X221460794Y-141351000D01*
X219583000Y-141351000D01*
X219583000Y-139344400D01*
X221208600Y-139344400D01*
X221258010Y-139334394D01*
X221298403Y-139307203D01*
X222531206Y-138074400D01*
X224637600Y-138074400D01*
X224637600Y-140589000D01*
X224637600Y-140589000D01*
G37*
X224637600Y-140589000D02*
X222275400Y-140589000D01*
X222225990Y-140599006D01*
X222185597Y-140626197D01*
X221460794Y-141351000D01*
X219583000Y-141351000D01*
X219583000Y-139344400D01*
X221208600Y-139344400D01*
X221258010Y-139334394D01*
X221298403Y-139307203D01*
X222531206Y-138074400D01*
X224637600Y-138074400D01*
X224637600Y-140589000D01*
G36*
X224637600Y-66471800D02*
X222275400Y-66471800D01*
X222225990Y-66481806D01*
X222185597Y-66508997D01*
X221460794Y-67233800D01*
X219583000Y-67233800D01*
X219583000Y-65227200D01*
X221208600Y-65227200D01*
X221258010Y-65217194D01*
X221298403Y-65190003D01*
X222531206Y-63957200D01*
X224637600Y-63957200D01*
X224637600Y-66471800D01*
X224637600Y-66471800D01*
G37*
X224637600Y-66471800D02*
X222275400Y-66471800D01*
X222225990Y-66481806D01*
X222185597Y-66508997D01*
X221460794Y-67233800D01*
X219583000Y-67233800D01*
X219583000Y-65227200D01*
X221208600Y-65227200D01*
X221258010Y-65217194D01*
X221298403Y-65190003D01*
X222531206Y-63957200D01*
X224637600Y-63957200D01*
X224637600Y-66471800D01*
G36*
X224637600Y-115925600D02*
X222275400Y-115925600D01*
X222225990Y-115935606D01*
X222185597Y-115962797D01*
X221460794Y-116687600D01*
X219583000Y-116687600D01*
X219583000Y-114681000D01*
X221208600Y-114681000D01*
X221258010Y-114670994D01*
X221298403Y-114643803D01*
X222531206Y-113411000D01*
X224637600Y-113411000D01*
X224637600Y-115925600D01*
X224637600Y-115925600D01*
G37*
X224637600Y-115925600D02*
X222275400Y-115925600D01*
X222225990Y-115935606D01*
X222185597Y-115962797D01*
X221460794Y-116687600D01*
X219583000Y-116687600D01*
X219583000Y-114681000D01*
X221208600Y-114681000D01*
X221258010Y-114670994D01*
X221298403Y-114643803D01*
X222531206Y-113411000D01*
X224637600Y-113411000D01*
X224637600Y-115925600D01*
G36*
X224637600Y-91160600D02*
X222275400Y-91160600D01*
X222225990Y-91170606D01*
X222185597Y-91197797D01*
X221460794Y-91922600D01*
X219583000Y-91922600D01*
X219583000Y-89916000D01*
X221208600Y-89916000D01*
X221258010Y-89905994D01*
X221298403Y-89878803D01*
X222531206Y-88646000D01*
X224637600Y-88646000D01*
X224637600Y-91160600D01*
X224637600Y-91160600D01*
G37*
X224637600Y-91160600D02*
X222275400Y-91160600D01*
X222225990Y-91170606D01*
X222185597Y-91197797D01*
X221460794Y-91922600D01*
X219583000Y-91922600D01*
X219583000Y-89916000D01*
X221208600Y-89916000D01*
X221258010Y-89905994D01*
X221298403Y-89878803D01*
X222531206Y-88646000D01*
X224637600Y-88646000D01*
X224637600Y-91160600D01*
M02*
