G04 #@! TF.FileFunction,Legend,Bot*
%FSLAX46Y46*%
G04 Gerber Fmt 4.6, Leading zero omitted, Abs format (unit mm)*
G04 Created by KiCad (PCBNEW 4.0.7) date 03/01/19 13:16:32*
%MOMM*%
%LPD*%
G01*
G04 APERTURE LIST*
%ADD10C,0.100000*%
%ADD11C,0.060000*%
G04 APERTURE END LIST*
D10*
D11*
X236869240Y-152199952D02*
X236869240Y-151933286D01*
X236869240Y-151971381D02*
X236850192Y-151952333D01*
X236812097Y-151933286D01*
X236754954Y-151933286D01*
X236716859Y-151952333D01*
X236697811Y-151990429D01*
X236697811Y-152199952D01*
X236697811Y-151990429D02*
X236678764Y-151952333D01*
X236640668Y-151933286D01*
X236583526Y-151933286D01*
X236545430Y-151952333D01*
X236526383Y-151990429D01*
X236526383Y-152199952D01*
X236278764Y-152199952D02*
X236316859Y-152180905D01*
X236335907Y-152161857D01*
X236354955Y-152123762D01*
X236354955Y-152009476D01*
X236335907Y-151971381D01*
X236316859Y-151952333D01*
X236278764Y-151933286D01*
X236221621Y-151933286D01*
X236183526Y-151952333D01*
X236164478Y-151971381D01*
X236145431Y-152009476D01*
X236145431Y-152123762D01*
X236164478Y-152161857D01*
X236183526Y-152180905D01*
X236221621Y-152199952D01*
X236278764Y-152199952D01*
X235974002Y-151933286D02*
X235974002Y-152276143D01*
X235993050Y-152314238D01*
X236031145Y-152333286D01*
X236050192Y-152333286D01*
X235974002Y-151799952D02*
X235993050Y-151819000D01*
X235974002Y-151838048D01*
X235954954Y-151819000D01*
X235974002Y-151799952D01*
X235974002Y-151838048D01*
X235631145Y-152180905D02*
X235669240Y-152199952D01*
X235745431Y-152199952D01*
X235783526Y-152180905D01*
X235802574Y-152142810D01*
X235802574Y-151990429D01*
X235783526Y-151952333D01*
X235745431Y-151933286D01*
X235669240Y-151933286D01*
X235631145Y-151952333D01*
X235612097Y-151990429D01*
X235612097Y-152028524D01*
X235802574Y-152066619D01*
X235135907Y-151933286D02*
X235135907Y-152199952D01*
X235135907Y-151971381D02*
X235116859Y-151952333D01*
X235078764Y-151933286D01*
X235021621Y-151933286D01*
X234983526Y-151952333D01*
X234964478Y-151990429D01*
X234964478Y-152199952D01*
X234602573Y-151933286D02*
X234602573Y-152199952D01*
X234774002Y-151933286D02*
X234774002Y-152142810D01*
X234754954Y-152180905D01*
X234716859Y-152199952D01*
X234659716Y-152199952D01*
X234621621Y-152180905D01*
X234602573Y-152161857D01*
X234469240Y-151933286D02*
X234316859Y-151933286D01*
X234412097Y-152199952D02*
X234412097Y-151857095D01*
X234393049Y-151819000D01*
X234354954Y-151799952D01*
X234316859Y-151799952D01*
X234183526Y-152199952D02*
X234183526Y-151799952D01*
X234145431Y-152047571D02*
X234031145Y-152199952D01*
X234031145Y-151933286D02*
X234183526Y-152085667D01*
X233688287Y-152199952D02*
X233688287Y-151990429D01*
X233707335Y-151952333D01*
X233745430Y-151933286D01*
X233821621Y-151933286D01*
X233859716Y-151952333D01*
X233688287Y-152180905D02*
X233726383Y-152199952D01*
X233821621Y-152199952D01*
X233859716Y-152180905D01*
X233878764Y-152142810D01*
X233878764Y-152104714D01*
X233859716Y-152066619D01*
X233821621Y-152047571D01*
X233726383Y-152047571D01*
X233688287Y-152028524D01*
X233554954Y-151933286D02*
X233402573Y-151933286D01*
X233497811Y-151799952D02*
X233497811Y-152142810D01*
X233478763Y-152180905D01*
X233440668Y-152199952D01*
X233402573Y-152199952D01*
X233116859Y-152180905D02*
X233154954Y-152199952D01*
X233231145Y-152199952D01*
X233269240Y-152180905D01*
X233288288Y-152142810D01*
X233288288Y-151990429D01*
X233269240Y-151952333D01*
X233231145Y-151933286D01*
X233154954Y-151933286D01*
X233116859Y-151952333D01*
X233097811Y-151990429D01*
X233097811Y-152028524D01*
X233288288Y-152066619D01*
X232450192Y-152180905D02*
X232488288Y-152199952D01*
X232564478Y-152199952D01*
X232602573Y-152180905D01*
X232621621Y-152161857D01*
X232640669Y-152123762D01*
X232640669Y-152009476D01*
X232621621Y-151971381D01*
X232602573Y-151952333D01*
X232564478Y-151933286D01*
X232488288Y-151933286D01*
X232450192Y-151952333D01*
X232278764Y-152199952D02*
X232278764Y-151799952D01*
X232107335Y-152199952D02*
X232107335Y-151990429D01*
X232126383Y-151952333D01*
X232164478Y-151933286D01*
X232221621Y-151933286D01*
X232259716Y-151952333D01*
X232278764Y-151971381D01*
X231954954Y-151933286D02*
X231859716Y-152199952D01*
X231764478Y-151933286D02*
X231859716Y-152199952D01*
X231897811Y-152295190D01*
X231916859Y-152314238D01*
X231954954Y-152333286D01*
X231612097Y-152199952D02*
X231612097Y-151799952D01*
X231612097Y-151952333D02*
X231574002Y-151933286D01*
X231497811Y-151933286D01*
X231459716Y-151952333D01*
X231440668Y-151971381D01*
X231421621Y-152009476D01*
X231421621Y-152123762D01*
X231440668Y-152161857D01*
X231459716Y-152180905D01*
X231497811Y-152199952D01*
X231574002Y-152199952D01*
X231612097Y-152180905D01*
X231078763Y-152199952D02*
X231078763Y-151990429D01*
X231097811Y-151952333D01*
X231135906Y-151933286D01*
X231212097Y-151933286D01*
X231250192Y-151952333D01*
X231078763Y-152180905D02*
X231116859Y-152199952D01*
X231212097Y-152199952D01*
X231250192Y-152180905D01*
X231269240Y-152142810D01*
X231269240Y-152104714D01*
X231250192Y-152066619D01*
X231212097Y-152047571D01*
X231116859Y-152047571D01*
X231078763Y-152028524D01*
X230907335Y-152180905D02*
X230869239Y-152199952D01*
X230793049Y-152199952D01*
X230754954Y-152180905D01*
X230735906Y-152142810D01*
X230735906Y-152123762D01*
X230754954Y-152085667D01*
X230793049Y-152066619D01*
X230850192Y-152066619D01*
X230888287Y-152047571D01*
X230907335Y-152009476D01*
X230907335Y-151990429D01*
X230888287Y-151952333D01*
X230850192Y-151933286D01*
X230793049Y-151933286D01*
X230754954Y-151952333D01*
X230259715Y-152199952D02*
X230259715Y-151933286D01*
X230259715Y-151971381D02*
X230240667Y-151952333D01*
X230202572Y-151933286D01*
X230145429Y-151933286D01*
X230107334Y-151952333D01*
X230088286Y-151990429D01*
X230088286Y-152199952D01*
X230088286Y-151990429D02*
X230069239Y-151952333D01*
X230031143Y-151933286D01*
X229974001Y-151933286D01*
X229935905Y-151952333D01*
X229916858Y-151990429D01*
X229916858Y-152199952D01*
X229726382Y-152199952D02*
X229726382Y-151933286D01*
X229726382Y-151799952D02*
X229745430Y-151819000D01*
X229726382Y-151838048D01*
X229707334Y-151819000D01*
X229726382Y-151799952D01*
X229726382Y-151838048D01*
X229535906Y-152199952D02*
X229535906Y-151933286D01*
X229535906Y-151799952D02*
X229554954Y-151819000D01*
X229535906Y-151838048D01*
X229516858Y-151819000D01*
X229535906Y-151799952D01*
X229535906Y-151838048D01*
X229345430Y-152199952D02*
X229345430Y-151933286D01*
X229345430Y-151799952D02*
X229364478Y-151819000D01*
X229345430Y-151838048D01*
X229326382Y-151819000D01*
X229345430Y-151799952D01*
X229345430Y-151838048D01*
X229154954Y-152199952D02*
X229154954Y-151933286D01*
X229154954Y-151799952D02*
X229174002Y-151819000D01*
X229154954Y-151838048D01*
X229135906Y-151819000D01*
X229154954Y-151799952D01*
X229154954Y-151838048D01*
X228945430Y-152180905D02*
X228945430Y-152199952D01*
X228964478Y-152238048D01*
X228983526Y-152257095D01*
X228488288Y-152180905D02*
X228450192Y-152199952D01*
X228374002Y-152199952D01*
X228335907Y-152180905D01*
X228316859Y-152142810D01*
X228316859Y-152123762D01*
X228335907Y-152085667D01*
X228374002Y-152066619D01*
X228431145Y-152066619D01*
X228469240Y-152047571D01*
X228488288Y-152009476D01*
X228488288Y-151990429D01*
X228469240Y-151952333D01*
X228431145Y-151933286D01*
X228374002Y-151933286D01*
X228335907Y-151952333D01*
X228088287Y-152199952D02*
X228126382Y-152180905D01*
X228145430Y-152161857D01*
X228164478Y-152123762D01*
X228164478Y-152009476D01*
X228145430Y-151971381D01*
X228126382Y-151952333D01*
X228088287Y-151933286D01*
X228031144Y-151933286D01*
X227993049Y-151952333D01*
X227974001Y-151971381D01*
X227954954Y-152009476D01*
X227954954Y-152123762D01*
X227974001Y-152161857D01*
X227993049Y-152180905D01*
X228031144Y-152199952D01*
X228088287Y-152199952D01*
X227783525Y-152199952D02*
X227783525Y-151933286D01*
X227783525Y-151971381D02*
X227764477Y-151952333D01*
X227726382Y-151933286D01*
X227669239Y-151933286D01*
X227631144Y-151952333D01*
X227612096Y-151990429D01*
X227612096Y-152199952D01*
X227612096Y-151990429D02*
X227593049Y-151952333D01*
X227554953Y-151933286D01*
X227497811Y-151933286D01*
X227459715Y-151952333D01*
X227440668Y-151990429D01*
X227440668Y-152199952D01*
X226983525Y-151933286D02*
X226888287Y-152199952D01*
X226793049Y-151933286D01*
X226335906Y-151933286D02*
X226335906Y-152333286D01*
X226335906Y-151952333D02*
X226297811Y-151933286D01*
X226221620Y-151933286D01*
X226183525Y-151952333D01*
X226164477Y-151971381D01*
X226145430Y-152009476D01*
X226145430Y-152123762D01*
X226164477Y-152161857D01*
X226183525Y-152180905D01*
X226221620Y-152199952D01*
X226297811Y-152199952D01*
X226335906Y-152180905D01*
X225974001Y-152199952D02*
X225974001Y-151933286D01*
X225974001Y-152009476D02*
X225954953Y-151971381D01*
X225935906Y-151952333D01*
X225897810Y-151933286D01*
X225859715Y-151933286D01*
X225554953Y-152199952D02*
X225554953Y-151990429D01*
X225574001Y-151952333D01*
X225612096Y-151933286D01*
X225688287Y-151933286D01*
X225726382Y-151952333D01*
X225554953Y-152180905D02*
X225593049Y-152199952D01*
X225688287Y-152199952D01*
X225726382Y-152180905D01*
X225745430Y-152142810D01*
X225745430Y-152104714D01*
X225726382Y-152066619D01*
X225688287Y-152047571D01*
X225593049Y-152047571D01*
X225554953Y-152028524D01*
X225193048Y-152180905D02*
X225231144Y-152199952D01*
X225307334Y-152199952D01*
X225345429Y-152180905D01*
X225364477Y-152161857D01*
X225383525Y-152123762D01*
X225383525Y-152009476D01*
X225364477Y-151971381D01*
X225345429Y-151952333D01*
X225307334Y-151933286D01*
X225231144Y-151933286D01*
X225193048Y-151952333D01*
X225021620Y-152199952D02*
X225021620Y-151933286D01*
X225021620Y-151799952D02*
X225040668Y-151819000D01*
X225021620Y-151838048D01*
X225002572Y-151819000D01*
X225021620Y-151799952D01*
X225021620Y-151838048D01*
X224354953Y-152199952D02*
X224354953Y-151990429D01*
X224374001Y-151952333D01*
X224412096Y-151933286D01*
X224488287Y-151933286D01*
X224526382Y-151952333D01*
X224354953Y-152180905D02*
X224393049Y-152199952D01*
X224488287Y-152199952D01*
X224526382Y-152180905D01*
X224545430Y-152142810D01*
X224545430Y-152104714D01*
X224526382Y-152066619D01*
X224488287Y-152047571D01*
X224393049Y-152047571D01*
X224354953Y-152028524D01*
X223916858Y-151933286D02*
X223764477Y-151933286D01*
X223859715Y-151799952D02*
X223859715Y-152142810D01*
X223840667Y-152180905D01*
X223802572Y-152199952D01*
X223764477Y-152199952D01*
X223669239Y-151933286D02*
X223574001Y-152199952D01*
X223478763Y-151933286D02*
X223574001Y-152199952D01*
X223612096Y-152295190D01*
X223631144Y-152314238D01*
X223669239Y-152333286D01*
X223040668Y-152180905D02*
X223002572Y-152199952D01*
X222926382Y-152199952D01*
X222888287Y-152180905D01*
X222869239Y-152142810D01*
X222869239Y-152123762D01*
X222888287Y-152085667D01*
X222926382Y-152066619D01*
X222983525Y-152066619D01*
X223021620Y-152047571D01*
X223040668Y-152009476D01*
X223040668Y-151990429D01*
X223021620Y-151952333D01*
X222983525Y-151933286D01*
X222926382Y-151933286D01*
X222888287Y-151952333D01*
X222697810Y-152199952D02*
X222697810Y-151933286D01*
X222697810Y-151799952D02*
X222716858Y-151819000D01*
X222697810Y-151838048D01*
X222678762Y-151819000D01*
X222697810Y-151799952D01*
X222697810Y-151838048D01*
X222240667Y-151933286D02*
X222031143Y-151933286D01*
X222240667Y-152199952D01*
X222031143Y-152199952D01*
X221402571Y-152199952D02*
X221402571Y-151799952D01*
X221402571Y-152180905D02*
X221440667Y-152199952D01*
X221516857Y-152199952D01*
X221554952Y-152180905D01*
X221574000Y-152161857D01*
X221593048Y-152123762D01*
X221593048Y-152009476D01*
X221574000Y-151971381D01*
X221554952Y-151952333D01*
X221516857Y-151933286D01*
X221440667Y-151933286D01*
X221402571Y-151952333D01*
X221154952Y-152199952D02*
X221193047Y-152180905D01*
X221212095Y-152161857D01*
X221231143Y-152123762D01*
X221231143Y-152009476D01*
X221212095Y-151971381D01*
X221193047Y-151952333D01*
X221154952Y-151933286D01*
X221097809Y-151933286D01*
X221059714Y-151952333D01*
X221040666Y-151971381D01*
X221021619Y-152009476D01*
X221021619Y-152123762D01*
X221040666Y-152161857D01*
X221059714Y-152180905D01*
X221097809Y-152199952D01*
X221154952Y-152199952D01*
X220850190Y-152199952D02*
X220850190Y-151933286D01*
X220850190Y-151971381D02*
X220831142Y-151952333D01*
X220793047Y-151933286D01*
X220735904Y-151933286D01*
X220697809Y-151952333D01*
X220678761Y-151990429D01*
X220678761Y-152199952D01*
X220678761Y-151990429D02*
X220659714Y-151952333D01*
X220621618Y-151933286D01*
X220564476Y-151933286D01*
X220526380Y-151952333D01*
X220507333Y-151990429D01*
X220507333Y-152199952D01*
X220145428Y-151933286D02*
X220145428Y-152199952D01*
X220316857Y-151933286D02*
X220316857Y-152142810D01*
X220297809Y-152180905D01*
X220259714Y-152199952D01*
X220202571Y-152199952D01*
X220164476Y-152180905D01*
X220145428Y-152161857D01*
X219478761Y-152199952D02*
X219478761Y-151990429D01*
X219497809Y-151952333D01*
X219535904Y-151933286D01*
X219612095Y-151933286D01*
X219650190Y-151952333D01*
X219478761Y-152180905D02*
X219516857Y-152199952D01*
X219612095Y-152199952D01*
X219650190Y-152180905D01*
X219669238Y-152142810D01*
X219669238Y-152104714D01*
X219650190Y-152066619D01*
X219612095Y-152047571D01*
X219516857Y-152047571D01*
X219478761Y-152028524D01*
X219040666Y-151933286D02*
X218888285Y-151933286D01*
X218983523Y-151799952D02*
X218983523Y-152142810D01*
X218964475Y-152180905D01*
X218926380Y-152199952D01*
X218888285Y-152199952D01*
X218602571Y-152180905D02*
X218640666Y-152199952D01*
X218716857Y-152199952D01*
X218754952Y-152180905D01*
X218774000Y-152142810D01*
X218774000Y-151990429D01*
X218754952Y-151952333D01*
X218716857Y-151933286D01*
X218640666Y-151933286D01*
X218602571Y-151952333D01*
X218583523Y-151990429D01*
X218583523Y-152028524D01*
X218774000Y-152066619D01*
X218431143Y-152180905D02*
X218393047Y-152199952D01*
X218316857Y-152199952D01*
X218278762Y-152180905D01*
X218259714Y-152142810D01*
X218259714Y-152123762D01*
X218278762Y-152085667D01*
X218316857Y-152066619D01*
X218374000Y-152066619D01*
X218412095Y-152047571D01*
X218431143Y-152009476D01*
X218431143Y-151990429D01*
X218412095Y-151952333D01*
X218374000Y-151933286D01*
X218316857Y-151933286D01*
X218278762Y-151952333D01*
X218088285Y-152199952D02*
X218088285Y-151933286D01*
X218088285Y-151799952D02*
X218107333Y-151819000D01*
X218088285Y-151838048D01*
X218069237Y-151819000D01*
X218088285Y-151799952D01*
X218088285Y-151838048D01*
X217897809Y-152199952D02*
X217897809Y-151933286D01*
X217897809Y-151971381D02*
X217878761Y-151952333D01*
X217840666Y-151933286D01*
X217783523Y-151933286D01*
X217745428Y-151952333D01*
X217726380Y-151990429D01*
X217726380Y-152199952D01*
X217726380Y-151990429D02*
X217707333Y-151952333D01*
X217669237Y-151933286D01*
X217612095Y-151933286D01*
X217573999Y-151952333D01*
X217554952Y-151990429D01*
X217554952Y-152199952D01*
X217078762Y-152180905D02*
X217040666Y-152199952D01*
X216964476Y-152199952D01*
X216926381Y-152180905D01*
X216907333Y-152142810D01*
X216907333Y-152123762D01*
X216926381Y-152085667D01*
X216964476Y-152066619D01*
X217021619Y-152066619D01*
X217059714Y-152047571D01*
X217078762Y-152009476D01*
X217078762Y-151990429D01*
X217059714Y-151952333D01*
X217021619Y-151933286D01*
X216964476Y-151933286D01*
X216926381Y-151952333D01*
X216564475Y-152199952D02*
X216564475Y-151990429D01*
X216583523Y-151952333D01*
X216621618Y-151933286D01*
X216697809Y-151933286D01*
X216735904Y-151952333D01*
X216564475Y-152180905D02*
X216602571Y-152199952D01*
X216697809Y-152199952D01*
X216735904Y-152180905D01*
X216754952Y-152142810D01*
X216754952Y-152104714D01*
X216735904Y-152066619D01*
X216697809Y-152047571D01*
X216602571Y-152047571D01*
X216564475Y-152028524D01*
X216069237Y-151933286D02*
X216069237Y-152199952D01*
X216069237Y-151971381D02*
X216050189Y-151952333D01*
X216012094Y-151933286D01*
X215954951Y-151933286D01*
X215916856Y-151952333D01*
X215897808Y-151990429D01*
X215897808Y-152199952D01*
X215535903Y-152199952D02*
X215535903Y-151990429D01*
X215554951Y-151952333D01*
X215593046Y-151933286D01*
X215669237Y-151933286D01*
X215707332Y-151952333D01*
X215535903Y-152180905D02*
X215573999Y-152199952D01*
X215669237Y-152199952D01*
X215707332Y-152180905D01*
X215726380Y-152142810D01*
X215726380Y-152104714D01*
X215707332Y-152066619D01*
X215669237Y-152047571D01*
X215573999Y-152047571D01*
X215535903Y-152028524D01*
X215097808Y-151799952D02*
X214869236Y-151799952D01*
X214983522Y-152199952D02*
X214983522Y-151799952D01*
X214583522Y-152180905D02*
X214621617Y-152199952D01*
X214697808Y-152199952D01*
X214735903Y-152180905D01*
X214754951Y-152142810D01*
X214754951Y-151990429D01*
X214735903Y-151952333D01*
X214697808Y-151933286D01*
X214621617Y-151933286D01*
X214583522Y-151952333D01*
X214564474Y-151990429D01*
X214564474Y-152028524D01*
X214754951Y-152066619D01*
X214393046Y-152199952D02*
X214393046Y-151799952D01*
X214393046Y-151952333D02*
X214354951Y-151933286D01*
X214278760Y-151933286D01*
X214240665Y-151952333D01*
X214221617Y-151971381D01*
X214202570Y-152009476D01*
X214202570Y-152123762D01*
X214221617Y-152161857D01*
X214240665Y-152180905D01*
X214278760Y-152199952D01*
X214354951Y-152199952D01*
X214393046Y-152180905D01*
X213859712Y-152199952D02*
X213859712Y-151990429D01*
X213878760Y-151952333D01*
X213916855Y-151933286D01*
X213993046Y-151933286D01*
X214031141Y-151952333D01*
X213859712Y-152180905D02*
X213897808Y-152199952D01*
X213993046Y-152199952D01*
X214031141Y-152180905D01*
X214050189Y-152142810D01*
X214050189Y-152104714D01*
X214031141Y-152066619D01*
X213993046Y-152047571D01*
X213897808Y-152047571D01*
X213859712Y-152028524D01*
X213402569Y-151933286D02*
X213307331Y-152199952D01*
X213212093Y-151933286D01*
X212907331Y-152180905D02*
X212945426Y-152199952D01*
X213021617Y-152199952D01*
X213059712Y-152180905D01*
X213078760Y-152142810D01*
X213078760Y-151990429D01*
X213059712Y-151952333D01*
X213021617Y-151933286D01*
X212945426Y-151933286D01*
X212907331Y-151952333D01*
X212888283Y-151990429D01*
X212888283Y-152028524D01*
X213078760Y-152066619D01*
X212545426Y-152180905D02*
X212583522Y-152199952D01*
X212659712Y-152199952D01*
X212697807Y-152180905D01*
X212716855Y-152161857D01*
X212735903Y-152123762D01*
X212735903Y-152009476D01*
X212716855Y-151971381D01*
X212697807Y-151952333D01*
X212659712Y-151933286D01*
X212583522Y-151933286D01*
X212545426Y-151952333D01*
X212221617Y-152180905D02*
X212259712Y-152199952D01*
X212335903Y-152199952D01*
X212373998Y-152180905D01*
X212393046Y-152142810D01*
X212393046Y-151990429D01*
X212373998Y-151952333D01*
X212335903Y-151933286D01*
X212259712Y-151933286D01*
X212221617Y-151952333D01*
X212202569Y-151990429D01*
X212202569Y-152028524D01*
X212393046Y-152066619D01*
X212031141Y-152199952D02*
X212031141Y-151933286D01*
X212031141Y-152009476D02*
X212012093Y-151971381D01*
X211993046Y-151952333D01*
X211954950Y-151933286D01*
X211916855Y-151933286D01*
X211478760Y-152161857D02*
X211459712Y-152180905D01*
X211478760Y-152199952D01*
X211497808Y-152180905D01*
X211478760Y-152161857D01*
X211478760Y-152199952D01*
X211478760Y-151952333D02*
X211459712Y-151971381D01*
X211478760Y-151990429D01*
X211497808Y-151971381D01*
X211478760Y-151952333D01*
X211478760Y-151990429D01*
X211288284Y-152047571D02*
X210983522Y-152047571D01*
X210735903Y-151799952D02*
X210735903Y-151895190D01*
X210831141Y-151857095D02*
X210735903Y-151895190D01*
X210640665Y-151857095D01*
X210793046Y-151971381D02*
X210735903Y-151895190D01*
X210678760Y-151971381D01*
M02*
