G04 #@! TF.FileFunction,Legend,Top*
%FSLAX46Y46*%
G04 Gerber Fmt 4.6, Leading zero omitted, Abs format (unit mm)*
G04 Created by KiCad (PCBNEW 4.0.7) date 03/01/19 13:16:32*
%MOMM*%
%LPD*%
G01*
G04 APERTURE LIST*
%ADD10C,0.100000*%
%ADD11C,0.150000*%
%ADD12C,0.200000*%
%ADD13C,0.120000*%
%ADD14C,0.180000*%
G04 APERTURE END LIST*
D10*
D11*
X150272714Y-138927857D02*
X150272714Y-138127857D01*
X150272714Y-137727857D02*
X150215571Y-137785000D01*
X150272714Y-137842143D01*
X150329857Y-137785000D01*
X150272714Y-137727857D01*
X150272714Y-137842143D01*
X150672715Y-138127857D02*
X151129858Y-138127857D01*
X150844143Y-138927857D02*
X150844143Y-137899286D01*
X150901286Y-137785000D01*
X151015572Y-137727857D01*
X151129858Y-137727857D01*
X151872714Y-139385000D02*
X151815572Y-139327857D01*
X151701286Y-139156429D01*
X151644143Y-139042143D01*
X151587000Y-138870714D01*
X151529857Y-138585000D01*
X151529857Y-138356429D01*
X151587000Y-138070714D01*
X151644143Y-137899286D01*
X151701286Y-137785000D01*
X151815572Y-137613571D01*
X151872714Y-137556429D01*
X152158429Y-138127857D02*
X152615572Y-138127857D01*
X152329857Y-137727857D02*
X152329857Y-138756429D01*
X152387000Y-138870714D01*
X152501286Y-138927857D01*
X152615572Y-138927857D01*
X153015571Y-138927857D02*
X153015571Y-137727857D01*
X153529857Y-138927857D02*
X153529857Y-138299286D01*
X153472714Y-138185000D01*
X153358428Y-138127857D01*
X153187000Y-138127857D01*
X153072714Y-138185000D01*
X153015571Y-138242143D01*
X154101285Y-138927857D02*
X154101285Y-138127857D01*
X154101285Y-137727857D02*
X154044142Y-137785000D01*
X154101285Y-137842143D01*
X154158428Y-137785000D01*
X154101285Y-137727857D01*
X154101285Y-137842143D01*
X154615571Y-138870714D02*
X154729857Y-138927857D01*
X154958429Y-138927857D01*
X155072714Y-138870714D01*
X155129857Y-138756429D01*
X155129857Y-138699286D01*
X155072714Y-138585000D01*
X154958429Y-138527857D01*
X154787000Y-138527857D01*
X154672714Y-138470714D01*
X154615571Y-138356429D01*
X154615571Y-138299286D01*
X154672714Y-138185000D01*
X154787000Y-138127857D01*
X154958429Y-138127857D01*
X155072714Y-138185000D01*
X155644143Y-138813571D02*
X155701286Y-138870714D01*
X155644143Y-138927857D01*
X155587000Y-138870714D01*
X155644143Y-138813571D01*
X155644143Y-138927857D01*
X156215572Y-138927857D02*
X156215572Y-138127857D01*
X156215572Y-137727857D02*
X156158429Y-137785000D01*
X156215572Y-137842143D01*
X156272715Y-137785000D01*
X156215572Y-137727857D01*
X156215572Y-137842143D01*
X156729858Y-138870714D02*
X156844144Y-138927857D01*
X157072716Y-138927857D01*
X157187001Y-138870714D01*
X157244144Y-138756429D01*
X157244144Y-138699286D01*
X157187001Y-138585000D01*
X157072716Y-138527857D01*
X156901287Y-138527857D01*
X156787001Y-138470714D01*
X156729858Y-138356429D01*
X156729858Y-138299286D01*
X156787001Y-138185000D01*
X156901287Y-138127857D01*
X157072716Y-138127857D01*
X157187001Y-138185000D01*
X157587002Y-137727857D02*
X158272716Y-137727857D01*
X157929859Y-138927857D02*
X157929859Y-137727857D01*
X158844145Y-138927857D02*
X158729859Y-138870714D01*
X158672716Y-138813571D01*
X158615573Y-138699286D01*
X158615573Y-138356429D01*
X158672716Y-138242143D01*
X158729859Y-138185000D01*
X158844145Y-138127857D01*
X159015573Y-138127857D01*
X159129859Y-138185000D01*
X159187002Y-138242143D01*
X159244145Y-138356429D01*
X159244145Y-138699286D01*
X159187002Y-138813571D01*
X159129859Y-138870714D01*
X159015573Y-138927857D01*
X158844145Y-138927857D01*
X159758430Y-138127857D02*
X159758430Y-139327857D01*
X159758430Y-138185000D02*
X159872716Y-138127857D01*
X160101287Y-138127857D01*
X160215573Y-138185000D01*
X160272716Y-138242143D01*
X160329859Y-138356429D01*
X160329859Y-138699286D01*
X160272716Y-138813571D01*
X160215573Y-138870714D01*
X160101287Y-138927857D01*
X159872716Y-138927857D01*
X159758430Y-138870714D01*
X160844144Y-138927857D02*
X160844144Y-137727857D01*
X161301287Y-137727857D01*
X161415573Y-137785000D01*
X161472716Y-137842143D01*
X161529859Y-137956429D01*
X161529859Y-138127857D01*
X161472716Y-138242143D01*
X161415573Y-138299286D01*
X161301287Y-138356429D01*
X160844144Y-138356429D01*
X162729859Y-138813571D02*
X162672716Y-138870714D01*
X162501287Y-138927857D01*
X162387001Y-138927857D01*
X162215573Y-138870714D01*
X162101287Y-138756429D01*
X162044144Y-138642143D01*
X161987001Y-138413571D01*
X161987001Y-138242143D01*
X162044144Y-138013571D01*
X162101287Y-137899286D01*
X162215573Y-137785000D01*
X162387001Y-137727857D01*
X162501287Y-137727857D01*
X162672716Y-137785000D01*
X162729859Y-137842143D01*
X163644144Y-138299286D02*
X163815573Y-138356429D01*
X163872716Y-138413571D01*
X163929859Y-138527857D01*
X163929859Y-138699286D01*
X163872716Y-138813571D01*
X163815573Y-138870714D01*
X163701287Y-138927857D01*
X163244144Y-138927857D01*
X163244144Y-137727857D01*
X163644144Y-137727857D01*
X163758430Y-137785000D01*
X163815573Y-137842143D01*
X163872716Y-137956429D01*
X163872716Y-138070714D01*
X163815573Y-138185000D01*
X163758430Y-138242143D01*
X163644144Y-138299286D01*
X163244144Y-138299286D01*
X164787001Y-139385000D02*
X164729859Y-139327857D01*
X164615573Y-139156429D01*
X164558430Y-139042143D01*
X164501287Y-138870714D01*
X164444144Y-138585000D01*
X164444144Y-138356429D01*
X164501287Y-138070714D01*
X164558430Y-137899286D01*
X164615573Y-137785000D01*
X164729859Y-137613571D01*
X164787001Y-137556429D01*
X165129859Y-139385000D02*
X165187001Y-139327857D01*
X165301287Y-139156429D01*
X165358430Y-139042143D01*
X165415573Y-138870714D01*
X165472716Y-138585000D01*
X165472716Y-138356429D01*
X165415573Y-138070714D01*
X165358430Y-137899286D01*
X165301287Y-137785000D01*
X165187001Y-137613571D01*
X165129859Y-137556429D01*
X166958430Y-138299286D02*
X167872716Y-138299286D01*
X167872716Y-138642143D02*
X166958430Y-138642143D01*
X168444144Y-138299286D02*
X169358430Y-138299286D01*
X169358430Y-138642143D02*
X168444144Y-138642143D01*
X170672716Y-138127857D02*
X171129859Y-138127857D01*
X170844144Y-137727857D02*
X170844144Y-138756429D01*
X170901287Y-138870714D01*
X171015573Y-138927857D01*
X171129859Y-138927857D01*
X171529858Y-138927857D02*
X171529858Y-138127857D01*
X171529858Y-138356429D02*
X171587001Y-138242143D01*
X171644144Y-138185000D01*
X171758430Y-138127857D01*
X171872715Y-138127857D01*
X172787001Y-138127857D02*
X172787001Y-138927857D01*
X172272715Y-138127857D02*
X172272715Y-138756429D01*
X172329858Y-138870714D01*
X172444144Y-138927857D01*
X172615572Y-138927857D01*
X172729858Y-138870714D01*
X172787001Y-138813571D01*
X173815572Y-138870714D02*
X173701286Y-138927857D01*
X173472715Y-138927857D01*
X173358429Y-138870714D01*
X173301286Y-138756429D01*
X173301286Y-138299286D01*
X173358429Y-138185000D01*
X173472715Y-138127857D01*
X173701286Y-138127857D01*
X173815572Y-138185000D01*
X173872715Y-138299286D01*
X173872715Y-138413571D01*
X173301286Y-138527857D01*
X174272715Y-139385000D02*
X174329857Y-139327857D01*
X174444143Y-139156429D01*
X174501286Y-139042143D01*
X174558429Y-138870714D01*
X174615572Y-138585000D01*
X174615572Y-138356429D01*
X174558429Y-138070714D01*
X174501286Y-137899286D01*
X174444143Y-137785000D01*
X174329857Y-137613571D01*
X174272715Y-137556429D01*
X175529857Y-139385000D02*
X175472715Y-139385000D01*
X175358429Y-139327857D01*
X175301286Y-139213571D01*
X175301286Y-138642143D01*
X175244143Y-138527857D01*
X175129857Y-138470714D01*
X175244143Y-138413571D01*
X175301286Y-138299286D01*
X175301286Y-137727857D01*
X175358429Y-137613571D01*
X175472715Y-137556429D01*
X175529857Y-137556429D01*
X151929858Y-140077857D02*
X152387001Y-140077857D01*
X152101286Y-139677857D02*
X152101286Y-140706429D01*
X152158429Y-140820714D01*
X152272715Y-140877857D01*
X152387001Y-140877857D01*
X152787000Y-140877857D02*
X152787000Y-139677857D01*
X153301286Y-140877857D02*
X153301286Y-140249286D01*
X153244143Y-140135000D01*
X153129857Y-140077857D01*
X152958429Y-140077857D01*
X152844143Y-140135000D01*
X152787000Y-140192143D01*
X153872714Y-140877857D02*
X153872714Y-140077857D01*
X153872714Y-139677857D02*
X153815571Y-139735000D01*
X153872714Y-139792143D01*
X153929857Y-139735000D01*
X153872714Y-139677857D01*
X153872714Y-139792143D01*
X154387000Y-140820714D02*
X154501286Y-140877857D01*
X154729858Y-140877857D01*
X154844143Y-140820714D01*
X154901286Y-140706429D01*
X154901286Y-140649286D01*
X154844143Y-140535000D01*
X154729858Y-140477857D01*
X154558429Y-140477857D01*
X154444143Y-140420714D01*
X154387000Y-140306429D01*
X154387000Y-140249286D01*
X154444143Y-140135000D01*
X154558429Y-140077857D01*
X154729858Y-140077857D01*
X154844143Y-140135000D01*
X155415572Y-140763571D02*
X155472715Y-140820714D01*
X155415572Y-140877857D01*
X155358429Y-140820714D01*
X155415572Y-140763571D01*
X155415572Y-140877857D01*
X155929858Y-140820714D02*
X156044144Y-140877857D01*
X156272716Y-140877857D01*
X156387001Y-140820714D01*
X156444144Y-140706429D01*
X156444144Y-140649286D01*
X156387001Y-140535000D01*
X156272716Y-140477857D01*
X156101287Y-140477857D01*
X155987001Y-140420714D01*
X155929858Y-140306429D01*
X155929858Y-140249286D01*
X155987001Y-140135000D01*
X156101287Y-140077857D01*
X156272716Y-140077857D01*
X156387001Y-140135000D01*
X157415573Y-140820714D02*
X157301287Y-140877857D01*
X157072716Y-140877857D01*
X156958430Y-140820714D01*
X156901287Y-140706429D01*
X156901287Y-140249286D01*
X156958430Y-140135000D01*
X157072716Y-140077857D01*
X157301287Y-140077857D01*
X157415573Y-140135000D01*
X157472716Y-140249286D01*
X157472716Y-140363571D01*
X156901287Y-140477857D01*
X157815573Y-140077857D02*
X158272716Y-140077857D01*
X157987001Y-139677857D02*
X157987001Y-140706429D01*
X158044144Y-140820714D01*
X158158430Y-140877857D01*
X158272716Y-140877857D01*
X158672715Y-140877857D02*
X158672715Y-139677857D01*
X159358430Y-140877857D01*
X159358430Y-139677857D01*
X160387001Y-140820714D02*
X160272715Y-140877857D01*
X160044144Y-140877857D01*
X159929858Y-140820714D01*
X159872715Y-140706429D01*
X159872715Y-140249286D01*
X159929858Y-140135000D01*
X160044144Y-140077857D01*
X160272715Y-140077857D01*
X160387001Y-140135000D01*
X160444144Y-140249286D01*
X160444144Y-140363571D01*
X159872715Y-140477857D01*
X160787001Y-140077857D02*
X161244144Y-140077857D01*
X160958429Y-139677857D02*
X160958429Y-140706429D01*
X161015572Y-140820714D01*
X161129858Y-140877857D01*
X161244144Y-140877857D01*
X161529858Y-140077857D02*
X161758429Y-140877857D01*
X161987000Y-140306429D01*
X162215572Y-140877857D01*
X162444143Y-140077857D01*
X163072715Y-140877857D02*
X162958429Y-140820714D01*
X162901286Y-140763571D01*
X162844143Y-140649286D01*
X162844143Y-140306429D01*
X162901286Y-140192143D01*
X162958429Y-140135000D01*
X163072715Y-140077857D01*
X163244143Y-140077857D01*
X163358429Y-140135000D01*
X163415572Y-140192143D01*
X163472715Y-140306429D01*
X163472715Y-140649286D01*
X163415572Y-140763571D01*
X163358429Y-140820714D01*
X163244143Y-140877857D01*
X163072715Y-140877857D01*
X163987000Y-140877857D02*
X163987000Y-140077857D01*
X163987000Y-140306429D02*
X164044143Y-140192143D01*
X164101286Y-140135000D01*
X164215572Y-140077857D01*
X164329857Y-140077857D01*
X164729857Y-140877857D02*
X164729857Y-139677857D01*
X164844143Y-140420714D02*
X165187000Y-140877857D01*
X165187000Y-140077857D02*
X164729857Y-140535000D01*
X166044143Y-141335000D02*
X165987001Y-141277857D01*
X165872715Y-141106429D01*
X165815572Y-140992143D01*
X165758429Y-140820714D01*
X165701286Y-140535000D01*
X165701286Y-140306429D01*
X165758429Y-140020714D01*
X165815572Y-139849286D01*
X165872715Y-139735000D01*
X165987001Y-139563571D01*
X166044143Y-139506429D01*
X166329858Y-140077857D02*
X166787001Y-140077857D01*
X166501286Y-140877857D02*
X166501286Y-139849286D01*
X166558429Y-139735000D01*
X166672715Y-139677857D01*
X166787001Y-139677857D01*
X167701286Y-140877857D02*
X167701286Y-140249286D01*
X167644143Y-140135000D01*
X167529857Y-140077857D01*
X167301286Y-140077857D01*
X167187000Y-140135000D01*
X167701286Y-140820714D02*
X167587000Y-140877857D01*
X167301286Y-140877857D01*
X167187000Y-140820714D01*
X167129857Y-140706429D01*
X167129857Y-140592143D01*
X167187000Y-140477857D01*
X167301286Y-140420714D01*
X167587000Y-140420714D01*
X167701286Y-140363571D01*
X168444143Y-140877857D02*
X168329857Y-140820714D01*
X168272714Y-140706429D01*
X168272714Y-139677857D01*
X168844142Y-140820714D02*
X168958428Y-140877857D01*
X169187000Y-140877857D01*
X169301285Y-140820714D01*
X169358428Y-140706429D01*
X169358428Y-140649286D01*
X169301285Y-140535000D01*
X169187000Y-140477857D01*
X169015571Y-140477857D01*
X168901285Y-140420714D01*
X168844142Y-140306429D01*
X168844142Y-140249286D01*
X168901285Y-140135000D01*
X169015571Y-140077857D01*
X169187000Y-140077857D01*
X169301285Y-140135000D01*
X170329857Y-140820714D02*
X170215571Y-140877857D01*
X169987000Y-140877857D01*
X169872714Y-140820714D01*
X169815571Y-140706429D01*
X169815571Y-140249286D01*
X169872714Y-140135000D01*
X169987000Y-140077857D01*
X170215571Y-140077857D01*
X170329857Y-140135000D01*
X170387000Y-140249286D01*
X170387000Y-140363571D01*
X169815571Y-140477857D01*
X170787000Y-141335000D02*
X170844142Y-141277857D01*
X170958428Y-141106429D01*
X171015571Y-140992143D01*
X171072714Y-140820714D01*
X171129857Y-140535000D01*
X171129857Y-140306429D01*
X171072714Y-140020714D01*
X171015571Y-139849286D01*
X170958428Y-139735000D01*
X170844142Y-139563571D01*
X170787000Y-139506429D01*
X171758428Y-140820714D02*
X171758428Y-140877857D01*
X171701285Y-140992143D01*
X171644142Y-141049286D01*
X171701285Y-140135000D02*
X171758428Y-140192143D01*
X171701285Y-140249286D01*
X171644142Y-140192143D01*
X171701285Y-140135000D01*
X171701285Y-140249286D01*
X150158429Y-143285000D02*
X150215571Y-143285000D01*
X150329857Y-143227857D01*
X150387000Y-143113571D01*
X150387000Y-142542143D01*
X150444143Y-142427857D01*
X150558429Y-142370714D01*
X150444143Y-142313571D01*
X150387000Y-142199286D01*
X150387000Y-141627857D01*
X150329857Y-141513571D01*
X150215571Y-141456429D01*
X150158429Y-141456429D01*
X154186523Y-60332952D02*
X154091285Y-60285333D01*
X154043666Y-60237714D01*
X153996047Y-60142476D01*
X153996047Y-60094857D01*
X154043666Y-59999619D01*
X154091285Y-59952000D01*
X154186523Y-59904381D01*
X154377000Y-59904381D01*
X154472238Y-59952000D01*
X154519857Y-59999619D01*
X154567476Y-60094857D01*
X154567476Y-60142476D01*
X154519857Y-60237714D01*
X154472238Y-60285333D01*
X154377000Y-60332952D01*
X154186523Y-60332952D01*
X154091285Y-60380571D01*
X154043666Y-60428190D01*
X153996047Y-60523429D01*
X153996047Y-60713905D01*
X154043666Y-60809143D01*
X154091285Y-60856762D01*
X154186523Y-60904381D01*
X154377000Y-60904381D01*
X154472238Y-60856762D01*
X154519857Y-60809143D01*
X154567476Y-60713905D01*
X154567476Y-60523429D01*
X154519857Y-60428190D01*
X154472238Y-60380571D01*
X154377000Y-60332952D01*
X155757952Y-60237714D02*
X155757952Y-61237714D01*
X155757952Y-60285333D02*
X155853190Y-60237714D01*
X156043667Y-60237714D01*
X156138905Y-60285333D01*
X156186524Y-60332952D01*
X156234143Y-60428190D01*
X156234143Y-60713905D01*
X156186524Y-60809143D01*
X156138905Y-60856762D01*
X156043667Y-60904381D01*
X155853190Y-60904381D01*
X155757952Y-60856762D01*
X156805571Y-60904381D02*
X156710333Y-60856762D01*
X156662714Y-60809143D01*
X156615095Y-60713905D01*
X156615095Y-60428190D01*
X156662714Y-60332952D01*
X156710333Y-60285333D01*
X156805571Y-60237714D01*
X156948429Y-60237714D01*
X157043667Y-60285333D01*
X157091286Y-60332952D01*
X157138905Y-60428190D01*
X157138905Y-60713905D01*
X157091286Y-60809143D01*
X157043667Y-60856762D01*
X156948429Y-60904381D01*
X156805571Y-60904381D01*
X157567476Y-60904381D02*
X157567476Y-60237714D01*
X157567476Y-60428190D02*
X157615095Y-60332952D01*
X157662714Y-60285333D01*
X157757952Y-60237714D01*
X157853191Y-60237714D01*
X158043667Y-60237714D02*
X158424619Y-60237714D01*
X158186524Y-59904381D02*
X158186524Y-60761524D01*
X158234143Y-60856762D01*
X158329381Y-60904381D01*
X158424619Y-60904381D01*
X159472239Y-60856762D02*
X159567477Y-60904381D01*
X159757953Y-60904381D01*
X159853192Y-60856762D01*
X159900811Y-60761524D01*
X159900811Y-60713905D01*
X159853192Y-60618667D01*
X159757953Y-60571048D01*
X159615096Y-60571048D01*
X159519858Y-60523429D01*
X159472239Y-60428190D01*
X159472239Y-60380571D01*
X159519858Y-60285333D01*
X159615096Y-60237714D01*
X159757953Y-60237714D01*
X159853192Y-60285333D01*
X160234144Y-60237714D02*
X160424620Y-60904381D01*
X160615097Y-60428190D01*
X160805573Y-60904381D01*
X160996049Y-60237714D01*
X161377001Y-60904381D02*
X161377001Y-60237714D01*
X161377001Y-59904381D02*
X161329382Y-59952000D01*
X161377001Y-59999619D01*
X161424620Y-59952000D01*
X161377001Y-59904381D01*
X161377001Y-59999619D01*
X161710334Y-60237714D02*
X162091286Y-60237714D01*
X161853191Y-59904381D02*
X161853191Y-60761524D01*
X161900810Y-60856762D01*
X161996048Y-60904381D01*
X162091286Y-60904381D01*
X162853192Y-60856762D02*
X162757954Y-60904381D01*
X162567477Y-60904381D01*
X162472239Y-60856762D01*
X162424620Y-60809143D01*
X162377001Y-60713905D01*
X162377001Y-60428190D01*
X162424620Y-60332952D01*
X162472239Y-60285333D01*
X162567477Y-60237714D01*
X162757954Y-60237714D01*
X162853192Y-60285333D01*
X163281763Y-60904381D02*
X163281763Y-59904381D01*
X163710335Y-60904381D02*
X163710335Y-60380571D01*
X163662716Y-60285333D01*
X163567478Y-60237714D01*
X163424620Y-60237714D01*
X163329382Y-60285333D01*
X163281763Y-60332952D01*
X146399334Y-75636381D02*
X146066000Y-75160190D01*
X145827905Y-75636381D02*
X145827905Y-74636381D01*
X146208858Y-74636381D01*
X146304096Y-74684000D01*
X146351715Y-74731619D01*
X146399334Y-74826857D01*
X146399334Y-74969714D01*
X146351715Y-75064952D01*
X146304096Y-75112571D01*
X146208858Y-75160190D01*
X145827905Y-75160190D01*
X147351715Y-75636381D02*
X146780286Y-75636381D01*
X147066000Y-75636381D02*
X147066000Y-74636381D01*
X146970762Y-74779238D01*
X146875524Y-74874476D01*
X146780286Y-74922095D01*
X147780286Y-75636381D02*
X147780286Y-74636381D01*
X148351715Y-75636381D02*
X147923143Y-75064952D01*
X148351715Y-74636381D02*
X147780286Y-75207810D01*
X146018334Y-100147381D02*
X145685000Y-99671190D01*
X145446905Y-100147381D02*
X145446905Y-99147381D01*
X145827858Y-99147381D01*
X145923096Y-99195000D01*
X145970715Y-99242619D01*
X146018334Y-99337857D01*
X146018334Y-99480714D01*
X145970715Y-99575952D01*
X145923096Y-99623571D01*
X145827858Y-99671190D01*
X145446905Y-99671190D01*
X146970715Y-100147381D02*
X146399286Y-100147381D01*
X146685000Y-100147381D02*
X146685000Y-99147381D01*
X146589762Y-99290238D01*
X146494524Y-99385476D01*
X146399286Y-99433095D01*
X147399286Y-100147381D02*
X147399286Y-99147381D01*
X147970715Y-100147381D02*
X147542143Y-99575952D01*
X147970715Y-99147381D02*
X147399286Y-99718810D01*
X146399334Y-125039381D02*
X146066000Y-124563190D01*
X145827905Y-125039381D02*
X145827905Y-124039381D01*
X146208858Y-124039381D01*
X146304096Y-124087000D01*
X146351715Y-124134619D01*
X146399334Y-124229857D01*
X146399334Y-124372714D01*
X146351715Y-124467952D01*
X146304096Y-124515571D01*
X146208858Y-124563190D01*
X145827905Y-124563190D01*
X147351715Y-125039381D02*
X146780286Y-125039381D01*
X147066000Y-125039381D02*
X147066000Y-124039381D01*
X146970762Y-124182238D01*
X146875524Y-124277476D01*
X146780286Y-124325095D01*
X147780286Y-125039381D02*
X147780286Y-124039381D01*
X148351715Y-125039381D02*
X147923143Y-124467952D01*
X148351715Y-124039381D02*
X147780286Y-124610810D01*
X156178334Y-149931381D02*
X155845000Y-149455190D01*
X155606905Y-149931381D02*
X155606905Y-148931381D01*
X155987858Y-148931381D01*
X156083096Y-148979000D01*
X156130715Y-149026619D01*
X156178334Y-149121857D01*
X156178334Y-149264714D01*
X156130715Y-149359952D01*
X156083096Y-149407571D01*
X155987858Y-149455190D01*
X155606905Y-149455190D01*
X157130715Y-149931381D02*
X156559286Y-149931381D01*
X156845000Y-149931381D02*
X156845000Y-148931381D01*
X156749762Y-149074238D01*
X156654524Y-149169476D01*
X156559286Y-149217095D01*
X157559286Y-149931381D02*
X157559286Y-148931381D01*
X158130715Y-149931381D02*
X157702143Y-149359952D01*
X158130715Y-148931381D02*
X157559286Y-149502810D01*
X164909524Y-134834381D02*
X164433333Y-134834381D01*
X164385714Y-135310571D01*
X164433333Y-135262952D01*
X164528571Y-135215333D01*
X164766667Y-135215333D01*
X164861905Y-135262952D01*
X164909524Y-135310571D01*
X164957143Y-135405810D01*
X164957143Y-135643905D01*
X164909524Y-135739143D01*
X164861905Y-135786762D01*
X164766667Y-135834381D01*
X164528571Y-135834381D01*
X164433333Y-135786762D01*
X164385714Y-135739143D01*
X165242857Y-134834381D02*
X165576190Y-135834381D01*
X165909524Y-134834381D01*
X164909524Y-110196381D02*
X164433333Y-110196381D01*
X164385714Y-110672571D01*
X164433333Y-110624952D01*
X164528571Y-110577333D01*
X164766667Y-110577333D01*
X164861905Y-110624952D01*
X164909524Y-110672571D01*
X164957143Y-110767810D01*
X164957143Y-111005905D01*
X164909524Y-111101143D01*
X164861905Y-111148762D01*
X164766667Y-111196381D01*
X164528571Y-111196381D01*
X164433333Y-111148762D01*
X164385714Y-111101143D01*
X165242857Y-110196381D02*
X165576190Y-111196381D01*
X165909524Y-110196381D01*
X164099953Y-133294381D02*
X163528524Y-133294381D01*
X163814238Y-133294381D02*
X163814238Y-132294381D01*
X163719000Y-132437238D01*
X163623762Y-132532476D01*
X163528524Y-132580095D01*
X164480905Y-132389619D02*
X164528524Y-132342000D01*
X164623762Y-132294381D01*
X164861858Y-132294381D01*
X164957096Y-132342000D01*
X165004715Y-132389619D01*
X165052334Y-132484857D01*
X165052334Y-132580095D01*
X165004715Y-132722952D01*
X164433286Y-133294381D01*
X165052334Y-133294381D01*
X165338048Y-132294381D02*
X165671381Y-133294381D01*
X166004715Y-132294381D01*
X163972953Y-108402381D02*
X163401524Y-108402381D01*
X163687238Y-108402381D02*
X163687238Y-107402381D01*
X163592000Y-107545238D01*
X163496762Y-107640476D01*
X163401524Y-107688095D01*
X164353905Y-107497619D02*
X164401524Y-107450000D01*
X164496762Y-107402381D01*
X164734858Y-107402381D01*
X164830096Y-107450000D01*
X164877715Y-107497619D01*
X164925334Y-107592857D01*
X164925334Y-107688095D01*
X164877715Y-107830952D01*
X164306286Y-108402381D01*
X164925334Y-108402381D01*
X165211048Y-107402381D02*
X165544381Y-108402381D01*
X165877715Y-107402381D01*
X164099953Y-83510381D02*
X163528524Y-83510381D01*
X163814238Y-83510381D02*
X163814238Y-82510381D01*
X163719000Y-82653238D01*
X163623762Y-82748476D01*
X163528524Y-82796095D01*
X164480905Y-82605619D02*
X164528524Y-82558000D01*
X164623762Y-82510381D01*
X164861858Y-82510381D01*
X164957096Y-82558000D01*
X165004715Y-82605619D01*
X165052334Y-82700857D01*
X165052334Y-82796095D01*
X165004715Y-82938952D01*
X164433286Y-83510381D01*
X165052334Y-83510381D01*
X165338048Y-82510381D02*
X165671381Y-83510381D01*
X166004715Y-82510381D01*
X184927953Y-55443381D02*
X184356524Y-55443381D01*
X184642238Y-55443381D02*
X184642238Y-54443381D01*
X184547000Y-54586238D01*
X184451762Y-54681476D01*
X184356524Y-54729095D01*
X185308905Y-54538619D02*
X185356524Y-54491000D01*
X185451762Y-54443381D01*
X185689858Y-54443381D01*
X185785096Y-54491000D01*
X185832715Y-54538619D01*
X185880334Y-54633857D01*
X185880334Y-54729095D01*
X185832715Y-54871952D01*
X185261286Y-55443381D01*
X185880334Y-55443381D01*
X186166048Y-54443381D02*
X186499381Y-55443381D01*
X186832715Y-54443381D01*
X177101524Y-54443381D02*
X176625333Y-54443381D01*
X176577714Y-54919571D01*
X176625333Y-54871952D01*
X176720571Y-54824333D01*
X176958667Y-54824333D01*
X177053905Y-54871952D01*
X177101524Y-54919571D01*
X177149143Y-55014810D01*
X177149143Y-55252905D01*
X177101524Y-55348143D01*
X177053905Y-55395762D01*
X176958667Y-55443381D01*
X176720571Y-55443381D01*
X176625333Y-55395762D01*
X176577714Y-55348143D01*
X177434857Y-54443381D02*
X177768190Y-55443381D01*
X178101524Y-54443381D01*
X164528524Y-85304381D02*
X164052333Y-85304381D01*
X164004714Y-85780571D01*
X164052333Y-85732952D01*
X164147571Y-85685333D01*
X164385667Y-85685333D01*
X164480905Y-85732952D01*
X164528524Y-85780571D01*
X164576143Y-85875810D01*
X164576143Y-86113905D01*
X164528524Y-86209143D01*
X164480905Y-86256762D01*
X164385667Y-86304381D01*
X164147571Y-86304381D01*
X164052333Y-86256762D01*
X164004714Y-86209143D01*
X164861857Y-85304381D02*
X165195190Y-86304381D01*
X165528524Y-85304381D01*
D12*
X194023716Y-54733857D02*
X194480859Y-54733857D01*
X194195144Y-54333857D02*
X194195144Y-55362429D01*
X194252287Y-55476714D01*
X194366573Y-55533857D01*
X194480859Y-55533857D01*
X194880858Y-55533857D02*
X194880858Y-54733857D01*
X194880858Y-54962429D02*
X194938001Y-54848143D01*
X194995144Y-54791000D01*
X195109430Y-54733857D01*
X195223715Y-54733857D01*
X195795144Y-55533857D02*
X195680858Y-55476714D01*
X195623715Y-55419571D01*
X195566572Y-55305286D01*
X195566572Y-54962429D01*
X195623715Y-54848143D01*
X195680858Y-54791000D01*
X195795144Y-54733857D01*
X195966572Y-54733857D01*
X196080858Y-54791000D01*
X196138001Y-54848143D01*
X196195144Y-54962429D01*
X196195144Y-55305286D01*
X196138001Y-55419571D01*
X196080858Y-55476714D01*
X195966572Y-55533857D01*
X195795144Y-55533857D01*
X196709429Y-54733857D02*
X196709429Y-55533857D01*
X196709429Y-54848143D02*
X196766572Y-54791000D01*
X196880858Y-54733857D01*
X197052286Y-54733857D01*
X197166572Y-54791000D01*
X197223715Y-54905286D01*
X197223715Y-55533857D01*
X197795143Y-55533857D02*
X197795143Y-54733857D01*
X197795143Y-54333857D02*
X197738000Y-54391000D01*
X197795143Y-54448143D01*
X197852286Y-54391000D01*
X197795143Y-54333857D01*
X197795143Y-54448143D01*
X198880858Y-55476714D02*
X198766572Y-55533857D01*
X198538001Y-55533857D01*
X198423715Y-55476714D01*
X198366572Y-55419571D01*
X198309429Y-55305286D01*
X198309429Y-54962429D01*
X198366572Y-54848143D01*
X198423715Y-54791000D01*
X198538001Y-54733857D01*
X198766572Y-54733857D01*
X198880858Y-54791000D01*
X199395143Y-55419571D02*
X199452286Y-55476714D01*
X199395143Y-55533857D01*
X199338000Y-55476714D01*
X199395143Y-55419571D01*
X199395143Y-55533857D01*
X199909429Y-55476714D02*
X200023715Y-55533857D01*
X200252287Y-55533857D01*
X200366572Y-55476714D01*
X200423715Y-55362429D01*
X200423715Y-55305286D01*
X200366572Y-55191000D01*
X200252287Y-55133857D01*
X200080858Y-55133857D01*
X199966572Y-55076714D01*
X199909429Y-54962429D01*
X199909429Y-54905286D01*
X199966572Y-54791000D01*
X200080858Y-54733857D01*
X200252287Y-54733857D01*
X200366572Y-54791000D01*
X200938001Y-55533857D02*
X200938001Y-54333857D01*
X201052287Y-55076714D02*
X201395144Y-55533857D01*
X201395144Y-54733857D02*
X200938001Y-55191000D01*
X203680859Y-54276714D02*
X202652288Y-55819571D01*
X204938002Y-55476714D02*
X205052288Y-55533857D01*
X205280860Y-55533857D01*
X205395145Y-55476714D01*
X205452288Y-55362429D01*
X205452288Y-55305286D01*
X205395145Y-55191000D01*
X205280860Y-55133857D01*
X205109431Y-55133857D01*
X204995145Y-55076714D01*
X204938002Y-54962429D01*
X204938002Y-54905286D01*
X204995145Y-54791000D01*
X205109431Y-54733857D01*
X205280860Y-54733857D01*
X205395145Y-54791000D01*
X205966574Y-55533857D02*
X205966574Y-54733857D01*
X205966574Y-54848143D02*
X206023717Y-54791000D01*
X206138003Y-54733857D01*
X206309431Y-54733857D01*
X206423717Y-54791000D01*
X206480860Y-54905286D01*
X206480860Y-55533857D01*
X206480860Y-54905286D02*
X206538003Y-54791000D01*
X206652289Y-54733857D01*
X206823717Y-54733857D01*
X206938003Y-54791000D01*
X206995146Y-54905286D01*
X206995146Y-55533857D01*
X208080860Y-55533857D02*
X208080860Y-54905286D01*
X208023717Y-54791000D01*
X207909431Y-54733857D01*
X207680860Y-54733857D01*
X207566574Y-54791000D01*
X208080860Y-55476714D02*
X207966574Y-55533857D01*
X207680860Y-55533857D01*
X207566574Y-55476714D01*
X207509431Y-55362429D01*
X207509431Y-55248143D01*
X207566574Y-55133857D01*
X207680860Y-55076714D01*
X207966574Y-55076714D01*
X208080860Y-55019571D01*
X208652288Y-55533857D02*
X208652288Y-54733857D01*
X208652288Y-54962429D02*
X208709431Y-54848143D01*
X208766574Y-54791000D01*
X208880860Y-54733857D01*
X208995145Y-54733857D01*
X209223717Y-54733857D02*
X209680860Y-54733857D01*
X209395145Y-54333857D02*
X209395145Y-55362429D01*
X209452288Y-55476714D01*
X209566574Y-55533857D01*
X209680860Y-55533857D01*
X211509431Y-55476714D02*
X211395145Y-55533857D01*
X211166574Y-55533857D01*
X211052288Y-55476714D01*
X210995145Y-55419571D01*
X210938002Y-55305286D01*
X210938002Y-54962429D01*
X210995145Y-54848143D01*
X211052288Y-54791000D01*
X211166574Y-54733857D01*
X211395145Y-54733857D01*
X211509431Y-54791000D01*
X212538002Y-54733857D02*
X212538002Y-55533857D01*
X212023716Y-54733857D02*
X212023716Y-55362429D01*
X212080859Y-55476714D01*
X212195145Y-55533857D01*
X212366573Y-55533857D01*
X212480859Y-55476714D01*
X212538002Y-55419571D01*
X213109430Y-55533857D02*
X213109430Y-54333857D01*
X213109430Y-54791000D02*
X213223716Y-54733857D01*
X213452287Y-54733857D01*
X213566573Y-54791000D01*
X213623716Y-54848143D01*
X213680859Y-54962429D01*
X213680859Y-55305286D01*
X213623716Y-55419571D01*
X213566573Y-55476714D01*
X213452287Y-55533857D01*
X213223716Y-55533857D01*
X213109430Y-55476714D01*
X214652287Y-55476714D02*
X214538001Y-55533857D01*
X214309430Y-55533857D01*
X214195144Y-55476714D01*
X214138001Y-55362429D01*
X214138001Y-54905286D01*
X214195144Y-54791000D01*
X214309430Y-54733857D01*
X214538001Y-54733857D01*
X214652287Y-54791000D01*
X214709430Y-54905286D01*
X214709430Y-55019571D01*
X214138001Y-55133857D01*
X216995144Y-54276714D02*
X215966573Y-55819571D01*
X218309430Y-54733857D02*
X218309430Y-55933857D01*
X218309430Y-54791000D02*
X218423716Y-54733857D01*
X218652287Y-54733857D01*
X218766573Y-54791000D01*
X218823716Y-54848143D01*
X218880859Y-54962429D01*
X218880859Y-55305286D01*
X218823716Y-55419571D01*
X218766573Y-55476714D01*
X218652287Y-55533857D01*
X218423716Y-55533857D01*
X218309430Y-55476714D01*
X219566573Y-55533857D02*
X219452287Y-55476714D01*
X219395144Y-55419571D01*
X219338001Y-55305286D01*
X219338001Y-54962429D01*
X219395144Y-54848143D01*
X219452287Y-54791000D01*
X219566573Y-54733857D01*
X219738001Y-54733857D01*
X219852287Y-54791000D01*
X219909430Y-54848143D01*
X219966573Y-54962429D01*
X219966573Y-55305286D01*
X219909430Y-55419571D01*
X219852287Y-55476714D01*
X219738001Y-55533857D01*
X219566573Y-55533857D01*
X220938001Y-55476714D02*
X220823715Y-55533857D01*
X220595144Y-55533857D01*
X220480858Y-55476714D01*
X220423715Y-55362429D01*
X220423715Y-54905286D01*
X220480858Y-54791000D01*
X220595144Y-54733857D01*
X220823715Y-54733857D01*
X220938001Y-54791000D01*
X220995144Y-54905286D01*
X220995144Y-55019571D01*
X220423715Y-55133857D01*
X221509429Y-55076714D02*
X222423715Y-55076714D01*
X223509429Y-55476714D02*
X223395143Y-55533857D01*
X223166572Y-55533857D01*
X223052286Y-55476714D01*
X222995143Y-55419571D01*
X222938000Y-55305286D01*
X222938000Y-54962429D01*
X222995143Y-54848143D01*
X223052286Y-54791000D01*
X223166572Y-54733857D01*
X223395143Y-54733857D01*
X223509429Y-54791000D01*
X224538000Y-55533857D02*
X224538000Y-54905286D01*
X224480857Y-54791000D01*
X224366571Y-54733857D01*
X224138000Y-54733857D01*
X224023714Y-54791000D01*
X224538000Y-55476714D02*
X224423714Y-55533857D01*
X224138000Y-55533857D01*
X224023714Y-55476714D01*
X223966571Y-55362429D01*
X223966571Y-55248143D01*
X224023714Y-55133857D01*
X224138000Y-55076714D01*
X224423714Y-55076714D01*
X224538000Y-55019571D01*
X225109428Y-55533857D02*
X225109428Y-54733857D01*
X225109428Y-54848143D02*
X225166571Y-54791000D01*
X225280857Y-54733857D01*
X225452285Y-54733857D01*
X225566571Y-54791000D01*
X225623714Y-54905286D01*
X225623714Y-55533857D01*
X225623714Y-54905286D02*
X225680857Y-54791000D01*
X225795143Y-54733857D01*
X225966571Y-54733857D01*
X226080857Y-54791000D01*
X226138000Y-54905286D01*
X226138000Y-55533857D01*
X228480857Y-54276714D02*
X227452286Y-55819571D01*
X230423715Y-55533857D02*
X229738000Y-55533857D01*
X230080858Y-55533857D02*
X230080858Y-54333857D01*
X229966572Y-54505286D01*
X229852286Y-54619571D01*
X229738000Y-54676714D01*
X230995143Y-55533857D02*
X231223715Y-55533857D01*
X231338000Y-55476714D01*
X231395143Y-55419571D01*
X231509429Y-55248143D01*
X231566572Y-55019571D01*
X231566572Y-54562429D01*
X231509429Y-54448143D01*
X231452286Y-54391000D01*
X231338000Y-54333857D01*
X231109429Y-54333857D01*
X230995143Y-54391000D01*
X230938000Y-54448143D01*
X230880857Y-54562429D01*
X230880857Y-54848143D01*
X230938000Y-54962429D01*
X230995143Y-55019571D01*
X231109429Y-55076714D01*
X231338000Y-55076714D01*
X231452286Y-55019571D01*
X231509429Y-54962429D01*
X231566572Y-54848143D01*
X232309429Y-54333857D02*
X232423714Y-54333857D01*
X232538000Y-54391000D01*
X232595143Y-54448143D01*
X232652286Y-54562429D01*
X232709429Y-54791000D01*
X232709429Y-55076714D01*
X232652286Y-55305286D01*
X232595143Y-55419571D01*
X232538000Y-55476714D01*
X232423714Y-55533857D01*
X232309429Y-55533857D01*
X232195143Y-55476714D01*
X232138000Y-55419571D01*
X232080857Y-55305286D01*
X232023714Y-55076714D01*
X232023714Y-54791000D01*
X232080857Y-54562429D01*
X232138000Y-54448143D01*
X232195143Y-54391000D01*
X232309429Y-54333857D01*
X233109429Y-54333857D02*
X233852286Y-54333857D01*
X233452286Y-54791000D01*
X233623714Y-54791000D01*
X233738000Y-54848143D01*
X233795143Y-54905286D01*
X233852286Y-55019571D01*
X233852286Y-55305286D01*
X233795143Y-55419571D01*
X233738000Y-55476714D01*
X233623714Y-55533857D01*
X233280857Y-55533857D01*
X233166571Y-55476714D01*
X233109429Y-55419571D01*
X234595143Y-54333857D02*
X234709428Y-54333857D01*
X234823714Y-54391000D01*
X234880857Y-54448143D01*
X234938000Y-54562429D01*
X234995143Y-54791000D01*
X234995143Y-55076714D01*
X234938000Y-55305286D01*
X234880857Y-55419571D01*
X234823714Y-55476714D01*
X234709428Y-55533857D01*
X234595143Y-55533857D01*
X234480857Y-55476714D01*
X234423714Y-55419571D01*
X234366571Y-55305286D01*
X234309428Y-55076714D01*
X234309428Y-54791000D01*
X234366571Y-54562429D01*
X234423714Y-54448143D01*
X234480857Y-54391000D01*
X234595143Y-54333857D01*
X236138000Y-55533857D02*
X235452285Y-55533857D01*
X235795143Y-55533857D02*
X235795143Y-54333857D01*
X235680857Y-54505286D01*
X235566571Y-54619571D01*
X235452285Y-54676714D01*
D11*
X219011500Y-147574000D02*
X235013500Y-147574000D01*
X235013500Y-131826000D02*
X219900500Y-131826000D01*
X219011500Y-147574000D02*
X219011500Y-146812000D01*
X220535500Y-131826000D02*
X219011500Y-131826000D01*
X219011500Y-131826000D02*
X219011500Y-147066000D01*
X235013500Y-147574000D02*
X235013500Y-131826000D01*
D13*
X206263500Y-71081500D02*
X202803500Y-71081500D01*
X206263500Y-74841500D02*
X202803500Y-74841500D01*
X206263500Y-59524500D02*
X202803500Y-59524500D01*
X206263500Y-63284500D02*
X202803500Y-63284500D01*
X176590500Y-68319500D02*
X176590500Y-74919500D01*
X176590500Y-59319500D02*
X176590500Y-65919500D01*
X176590500Y-59319500D02*
X196390500Y-59319500D01*
X196390500Y-59319500D02*
X196390500Y-74919500D01*
X196390500Y-74919500D02*
X176590500Y-74919500D01*
X192140500Y-71319500D02*
X192140500Y-68869500D01*
X192140500Y-62919500D02*
X192140500Y-65419500D01*
X181540500Y-73169500D02*
X184040500Y-73169500D01*
X180640500Y-67169500D02*
X179840500Y-67169500D01*
X184040500Y-61169500D02*
X181540500Y-61169500D01*
X187440500Y-67169500D02*
X188940500Y-67169500D01*
X188940500Y-67169500D02*
X193540500Y-64669500D01*
X187440500Y-70769500D02*
X180640500Y-70769500D01*
X187440500Y-67169500D02*
X187440500Y-70769500D01*
X180640500Y-67169500D02*
X180640500Y-70769500D01*
X184040500Y-61169500D02*
X184040500Y-65369500D01*
X184040500Y-68969500D02*
X184040500Y-73169500D01*
X186040500Y-68969500D02*
X182040500Y-65369500D01*
X182040500Y-68969500D02*
X182040500Y-65369500D01*
X182040500Y-65369500D02*
X186040500Y-65369500D01*
X186040500Y-65369500D02*
X186040500Y-68969500D01*
X186040500Y-68969500D02*
X182040500Y-68969500D01*
X154582400Y-74478000D02*
X154582400Y-73548000D01*
X154582400Y-71318000D02*
X154582400Y-72248000D01*
X154582400Y-71318000D02*
X151422400Y-71318000D01*
X154582400Y-74478000D02*
X153122400Y-74478000D01*
X146015200Y-71929600D02*
X148015200Y-71929600D01*
X148015200Y-74069600D02*
X146015200Y-74069600D01*
X176292000Y-55826000D02*
X178292000Y-55826000D01*
X178292000Y-57966000D02*
X176292000Y-57966000D01*
X186420000Y-57966000D02*
X184420000Y-57966000D01*
X184420000Y-55826000D02*
X186420000Y-55826000D01*
X206327000Y-145059000D02*
X202867000Y-145059000D01*
X206327000Y-148819000D02*
X202867000Y-148819000D01*
X206390500Y-133692500D02*
X202930500Y-133692500D01*
X206390500Y-137452500D02*
X202930500Y-137452500D01*
X176590500Y-142424000D02*
X176590500Y-149024000D01*
X176590500Y-133424000D02*
X176590500Y-140024000D01*
X176590500Y-133424000D02*
X196390500Y-133424000D01*
X196390500Y-133424000D02*
X196390500Y-149024000D01*
X196390500Y-149024000D02*
X176590500Y-149024000D01*
X192140500Y-145424000D02*
X192140500Y-142974000D01*
X192140500Y-137024000D02*
X192140500Y-139524000D01*
X181540500Y-147274000D02*
X184040500Y-147274000D01*
X180640500Y-141274000D02*
X179840500Y-141274000D01*
X184040500Y-135274000D02*
X181540500Y-135274000D01*
X187440500Y-141274000D02*
X188940500Y-141274000D01*
X188940500Y-141274000D02*
X193540500Y-138774000D01*
X187440500Y-144874000D02*
X180640500Y-144874000D01*
X187440500Y-141274000D02*
X187440500Y-144874000D01*
X180640500Y-141274000D02*
X180640500Y-144874000D01*
X184040500Y-135274000D02*
X184040500Y-139474000D01*
X184040500Y-143074000D02*
X184040500Y-147274000D01*
X186040500Y-143074000D02*
X182040500Y-139474000D01*
X182040500Y-143074000D02*
X182040500Y-139474000D01*
X182040500Y-139474000D02*
X186040500Y-139474000D01*
X186040500Y-139474000D02*
X186040500Y-143074000D01*
X186040500Y-143074000D02*
X182040500Y-143074000D01*
X165606000Y-148201500D02*
X165606000Y-147271500D01*
X165606000Y-145041500D02*
X165606000Y-145971500D01*
X165606000Y-145041500D02*
X162446000Y-145041500D01*
X165606000Y-148201500D02*
X164146000Y-148201500D01*
X155908500Y-146250000D02*
X157908500Y-146250000D01*
X157908500Y-148390000D02*
X155908500Y-148390000D01*
X168672000Y-134185000D02*
X170672000Y-134185000D01*
X170672000Y-136325000D02*
X168672000Y-136325000D01*
X168672000Y-131645000D02*
X170672000Y-131645000D01*
X170672000Y-133785000D02*
X168672000Y-133785000D01*
X206390500Y-95656000D02*
X202930500Y-95656000D01*
X206390500Y-99416000D02*
X202930500Y-99416000D01*
X206454000Y-84289500D02*
X202994000Y-84289500D01*
X206454000Y-88049500D02*
X202994000Y-88049500D01*
X206327000Y-120548000D02*
X202867000Y-120548000D01*
X206327000Y-124308000D02*
X202867000Y-124308000D01*
X206517500Y-108864000D02*
X203057500Y-108864000D01*
X206517500Y-112624000D02*
X203057500Y-112624000D01*
X176590500Y-93021000D02*
X176590500Y-99621000D01*
X176590500Y-84021000D02*
X176590500Y-90621000D01*
X176590500Y-84021000D02*
X196390500Y-84021000D01*
X196390500Y-84021000D02*
X196390500Y-99621000D01*
X196390500Y-99621000D02*
X176590500Y-99621000D01*
X192140500Y-96021000D02*
X192140500Y-93571000D01*
X192140500Y-87621000D02*
X192140500Y-90121000D01*
X181540500Y-97871000D02*
X184040500Y-97871000D01*
X180640500Y-91871000D02*
X179840500Y-91871000D01*
X184040500Y-85871000D02*
X181540500Y-85871000D01*
X187440500Y-91871000D02*
X188940500Y-91871000D01*
X188940500Y-91871000D02*
X193540500Y-89371000D01*
X187440500Y-95471000D02*
X180640500Y-95471000D01*
X187440500Y-91871000D02*
X187440500Y-95471000D01*
X180640500Y-91871000D02*
X180640500Y-95471000D01*
X184040500Y-85871000D02*
X184040500Y-90071000D01*
X184040500Y-93671000D02*
X184040500Y-97871000D01*
X186040500Y-93671000D02*
X182040500Y-90071000D01*
X182040500Y-93671000D02*
X182040500Y-90071000D01*
X182040500Y-90071000D02*
X186040500Y-90071000D01*
X186040500Y-90071000D02*
X186040500Y-93671000D01*
X186040500Y-93671000D02*
X182040500Y-93671000D01*
X176654000Y-117722500D02*
X176654000Y-124322500D01*
X176654000Y-108722500D02*
X176654000Y-115322500D01*
X176654000Y-108722500D02*
X196454000Y-108722500D01*
X196454000Y-108722500D02*
X196454000Y-124322500D01*
X196454000Y-124322500D02*
X176654000Y-124322500D01*
X192204000Y-120722500D02*
X192204000Y-118272500D01*
X192204000Y-112322500D02*
X192204000Y-114822500D01*
X181604000Y-122572500D02*
X184104000Y-122572500D01*
X180704000Y-116572500D02*
X179904000Y-116572500D01*
X184104000Y-110572500D02*
X181604000Y-110572500D01*
X187504000Y-116572500D02*
X189004000Y-116572500D01*
X189004000Y-116572500D02*
X193604000Y-114072500D01*
X187504000Y-120172500D02*
X180704000Y-120172500D01*
X187504000Y-116572500D02*
X187504000Y-120172500D01*
X180704000Y-116572500D02*
X180704000Y-120172500D01*
X184104000Y-110572500D02*
X184104000Y-114772500D01*
X184104000Y-118372500D02*
X184104000Y-122572500D01*
X186104000Y-118372500D02*
X182104000Y-114772500D01*
X182104000Y-118372500D02*
X182104000Y-114772500D01*
X182104000Y-114772500D02*
X186104000Y-114772500D01*
X186104000Y-114772500D02*
X186104000Y-118372500D01*
X186104000Y-118372500D02*
X182104000Y-118372500D01*
X154379200Y-98849300D02*
X154379200Y-97919300D01*
X154379200Y-95689300D02*
X154379200Y-96619300D01*
X154379200Y-95689300D02*
X151219200Y-95689300D01*
X154379200Y-98849300D02*
X152919200Y-98849300D01*
X154303000Y-123500000D02*
X154303000Y-122570000D01*
X154303000Y-120340000D02*
X154303000Y-121270000D01*
X154303000Y-120340000D02*
X151143000Y-120340000D01*
X154303000Y-123500000D02*
X152843000Y-123500000D01*
X145570700Y-96618400D02*
X147570700Y-96618400D01*
X147570700Y-98758400D02*
X145570700Y-98758400D01*
X146066000Y-121358000D02*
X148066000Y-121358000D01*
X148066000Y-123498000D02*
X146066000Y-123498000D01*
X168672000Y-84782000D02*
X170672000Y-84782000D01*
X170672000Y-86922000D02*
X168672000Y-86922000D01*
X168672000Y-109547000D02*
X170672000Y-109547000D01*
X170672000Y-111687000D02*
X168672000Y-111687000D01*
X168672000Y-81861000D02*
X170672000Y-81861000D01*
X170672000Y-84001000D02*
X168672000Y-84001000D01*
X168672000Y-106626000D02*
X170672000Y-106626000D01*
X170672000Y-108766000D02*
X168672000Y-108766000D01*
X170176500Y-59115000D02*
X170176500Y-53915000D01*
X149796500Y-59115000D02*
X170176500Y-59115000D01*
X147196500Y-53915000D02*
X170176500Y-53915000D01*
X149796500Y-59115000D02*
X149796500Y-56515000D01*
X149796500Y-56515000D02*
X147196500Y-56515000D01*
X147196500Y-56515000D02*
X147196500Y-53915000D01*
X148526500Y-59115000D02*
X147196500Y-59115000D01*
X147196500Y-59115000D02*
X147196500Y-57785000D01*
X159362900Y-96199300D02*
X161362900Y-96199300D01*
X161362900Y-98339300D02*
X159362900Y-98339300D01*
X159426400Y-71828000D02*
X161426400Y-71828000D01*
X161426400Y-73968000D02*
X159426400Y-73968000D01*
X159147000Y-120850000D02*
X161147000Y-120850000D01*
X161147000Y-122990000D02*
X159147000Y-122990000D01*
X170704000Y-146186500D02*
X172704000Y-146186500D01*
X172704000Y-148326500D02*
X170704000Y-148326500D01*
X138674800Y-69859200D02*
X143874800Y-69859200D01*
X138674800Y-59639200D02*
X138674800Y-69859200D01*
X143874800Y-57039200D02*
X143874800Y-69859200D01*
X138674800Y-59639200D02*
X141274800Y-59639200D01*
X141274800Y-59639200D02*
X141274800Y-57039200D01*
X141274800Y-57039200D02*
X143874800Y-57039200D01*
X138674800Y-58369200D02*
X138674800Y-57039200D01*
X138674800Y-57039200D02*
X140004800Y-57039200D01*
X138674800Y-143824000D02*
X143874800Y-143824000D01*
X138674800Y-133604000D02*
X138674800Y-143824000D01*
X143874800Y-131004000D02*
X143874800Y-143824000D01*
X138674800Y-133604000D02*
X141274800Y-133604000D01*
X141274800Y-133604000D02*
X141274800Y-131004000D01*
X141274800Y-131004000D02*
X143874800Y-131004000D01*
X138674800Y-132334000D02*
X138674800Y-131004000D01*
X138674800Y-131004000D02*
X140004800Y-131004000D01*
X138674800Y-119135200D02*
X143874800Y-119135200D01*
X138674800Y-108915200D02*
X138674800Y-119135200D01*
X143874800Y-106315200D02*
X143874800Y-119135200D01*
X138674800Y-108915200D02*
X141274800Y-108915200D01*
X141274800Y-108915200D02*
X141274800Y-106315200D01*
X141274800Y-106315200D02*
X143874800Y-106315200D01*
X138674800Y-107645200D02*
X138674800Y-106315200D01*
X138674800Y-106315200D02*
X140004800Y-106315200D01*
X138674800Y-94446400D02*
X143874800Y-94446400D01*
X138674800Y-84226400D02*
X138674800Y-94446400D01*
X143874800Y-81626400D02*
X143874800Y-94446400D01*
X138674800Y-84226400D02*
X141274800Y-84226400D01*
X141274800Y-84226400D02*
X141274800Y-81626400D01*
X141274800Y-81626400D02*
X143874800Y-81626400D01*
X138674800Y-82956400D02*
X138674800Y-81626400D01*
X138674800Y-81626400D02*
X140004800Y-81626400D01*
D11*
X219011500Y-73469500D02*
X235013500Y-73469500D01*
X235013500Y-57721500D02*
X219900500Y-57721500D01*
X219011500Y-73469500D02*
X219011500Y-72707500D01*
X220535500Y-57721500D02*
X219011500Y-57721500D01*
X219011500Y-57721500D02*
X219011500Y-72961500D01*
X235013500Y-73469500D02*
X235013500Y-57721500D01*
X219011500Y-98171000D02*
X235013500Y-98171000D01*
X235013500Y-82423000D02*
X219900500Y-82423000D01*
X219011500Y-98171000D02*
X219011500Y-97409000D01*
X220535500Y-82423000D02*
X219011500Y-82423000D01*
X219011500Y-82423000D02*
X219011500Y-97663000D01*
X235013500Y-98171000D02*
X235013500Y-82423000D01*
X219011500Y-122936000D02*
X235013500Y-122936000D01*
X235013500Y-107188000D02*
X219900500Y-107188000D01*
X219011500Y-122936000D02*
X219011500Y-122174000D01*
X220535500Y-107188000D02*
X219011500Y-107188000D01*
X219011500Y-107188000D02*
X219011500Y-122428000D01*
X235013500Y-122936000D02*
X235013500Y-107188000D01*
D14*
X228377881Y-137398190D02*
X229092167Y-137398190D01*
X229235024Y-137445810D01*
X229330262Y-137541048D01*
X229377881Y-137683905D01*
X229377881Y-137779143D01*
X229377881Y-136398190D02*
X229377881Y-136969619D01*
X229377881Y-136683905D02*
X228377881Y-136683905D01*
X228520738Y-136779143D01*
X228615976Y-136874381D01*
X228663595Y-136969619D01*
X228377881Y-135541047D02*
X228377881Y-135731524D01*
X228425500Y-135826762D01*
X228473119Y-135874381D01*
X228615976Y-135969619D01*
X228806452Y-136017238D01*
X229187405Y-136017238D01*
X229282643Y-135969619D01*
X229330262Y-135922000D01*
X229377881Y-135826762D01*
X229377881Y-135636285D01*
X229330262Y-135541047D01*
X229282643Y-135493428D01*
X229187405Y-135445809D01*
X228949310Y-135445809D01*
X228854071Y-135493428D01*
X228806452Y-135541047D01*
X228758833Y-135636285D01*
X228758833Y-135826762D01*
X228806452Y-135922000D01*
X228854071Y-135969619D01*
X228949310Y-136017238D01*
D11*
X203581119Y-75583881D02*
X203771596Y-75583881D01*
X203866834Y-75631500D01*
X203962072Y-75726738D01*
X204009691Y-75917214D01*
X204009691Y-76250548D01*
X203962072Y-76441024D01*
X203866834Y-76536262D01*
X203771596Y-76583881D01*
X203581119Y-76583881D01*
X203485881Y-76536262D01*
X203390643Y-76441024D01*
X203343024Y-76250548D01*
X203343024Y-75917214D01*
X203390643Y-75726738D01*
X203485881Y-75631500D01*
X203581119Y-75583881D01*
X204771596Y-76060071D02*
X204438262Y-76060071D01*
X204438262Y-76583881D02*
X204438262Y-75583881D01*
X204914453Y-75583881D01*
X205628739Y-76060071D02*
X205295405Y-76060071D01*
X205295405Y-76583881D02*
X205295405Y-75583881D01*
X205771596Y-75583881D01*
X203914452Y-64026881D02*
X204104929Y-64026881D01*
X204200167Y-64074500D01*
X204295405Y-64169738D01*
X204343024Y-64360214D01*
X204343024Y-64693548D01*
X204295405Y-64884024D01*
X204200167Y-64979262D01*
X204104929Y-65026881D01*
X203914452Y-65026881D01*
X203819214Y-64979262D01*
X203723976Y-64884024D01*
X203676357Y-64693548D01*
X203676357Y-64360214D01*
X203723976Y-64169738D01*
X203819214Y-64074500D01*
X203914452Y-64026881D01*
X204771595Y-65026881D02*
X204771595Y-64026881D01*
X205343024Y-65026881D01*
X205343024Y-64026881D01*
X185352405Y-76771881D02*
X185352405Y-75771881D01*
X185923834Y-76771881D02*
X185495262Y-76200452D01*
X185923834Y-75771881D02*
X185352405Y-76343310D01*
X186780977Y-75771881D02*
X186590500Y-75771881D01*
X186495262Y-75819500D01*
X186447643Y-75867119D01*
X186352405Y-76009976D01*
X186304786Y-76200452D01*
X186304786Y-76581405D01*
X186352405Y-76676643D01*
X186400024Y-76724262D01*
X186495262Y-76771881D01*
X186685739Y-76771881D01*
X186780977Y-76724262D01*
X186828596Y-76676643D01*
X186876215Y-76581405D01*
X186876215Y-76343310D01*
X186828596Y-76248071D01*
X186780977Y-76200452D01*
X186685739Y-76152833D01*
X186495262Y-76152833D01*
X186400024Y-76200452D01*
X186352405Y-76248071D01*
X186304786Y-76343310D01*
X153676362Y-76290419D02*
X153581124Y-76242800D01*
X153485886Y-76147562D01*
X153343029Y-76004705D01*
X153247790Y-75957086D01*
X153152552Y-75957086D01*
X153200171Y-76195181D02*
X153104933Y-76147562D01*
X153009695Y-76052324D01*
X152962076Y-75861848D01*
X152962076Y-75528514D01*
X153009695Y-75338038D01*
X153104933Y-75242800D01*
X153200171Y-75195181D01*
X153390648Y-75195181D01*
X153485886Y-75242800D01*
X153581124Y-75338038D01*
X153628743Y-75528514D01*
X153628743Y-75861848D01*
X153581124Y-76052324D01*
X153485886Y-76147562D01*
X153390648Y-76195181D01*
X153200171Y-76195181D01*
X154485886Y-75195181D02*
X154295409Y-75195181D01*
X154200171Y-75242800D01*
X154152552Y-75290419D01*
X154057314Y-75433276D01*
X154009695Y-75623752D01*
X154009695Y-76004705D01*
X154057314Y-76099943D01*
X154104933Y-76147562D01*
X154200171Y-76195181D01*
X154390648Y-76195181D01*
X154485886Y-76147562D01*
X154533505Y-76099943D01*
X154581124Y-76004705D01*
X154581124Y-75766610D01*
X154533505Y-75671371D01*
X154485886Y-75623752D01*
X154390648Y-75576133D01*
X154200171Y-75576133D01*
X154104933Y-75623752D01*
X154057314Y-75671371D01*
X154009695Y-75766610D01*
X203644619Y-149561381D02*
X203835096Y-149561381D01*
X203930334Y-149609000D01*
X204025572Y-149704238D01*
X204073191Y-149894714D01*
X204073191Y-150228048D01*
X204025572Y-150418524D01*
X203930334Y-150513762D01*
X203835096Y-150561381D01*
X203644619Y-150561381D01*
X203549381Y-150513762D01*
X203454143Y-150418524D01*
X203406524Y-150228048D01*
X203406524Y-149894714D01*
X203454143Y-149704238D01*
X203549381Y-149609000D01*
X203644619Y-149561381D01*
X204835096Y-150037571D02*
X204501762Y-150037571D01*
X204501762Y-150561381D02*
X204501762Y-149561381D01*
X204977953Y-149561381D01*
X205692239Y-150037571D02*
X205358905Y-150037571D01*
X205358905Y-150561381D02*
X205358905Y-149561381D01*
X205835096Y-149561381D01*
X204041452Y-138194881D02*
X204231929Y-138194881D01*
X204327167Y-138242500D01*
X204422405Y-138337738D01*
X204470024Y-138528214D01*
X204470024Y-138861548D01*
X204422405Y-139052024D01*
X204327167Y-139147262D01*
X204231929Y-139194881D01*
X204041452Y-139194881D01*
X203946214Y-139147262D01*
X203850976Y-139052024D01*
X203803357Y-138861548D01*
X203803357Y-138528214D01*
X203850976Y-138337738D01*
X203946214Y-138242500D01*
X204041452Y-138194881D01*
X204898595Y-139194881D02*
X204898595Y-138194881D01*
X205470024Y-139194881D01*
X205470024Y-138194881D01*
X185352405Y-150876381D02*
X185352405Y-149876381D01*
X185923834Y-150876381D02*
X185495262Y-150304952D01*
X185923834Y-149876381D02*
X185352405Y-150447810D01*
X186495262Y-150304952D02*
X186400024Y-150257333D01*
X186352405Y-150209714D01*
X186304786Y-150114476D01*
X186304786Y-150066857D01*
X186352405Y-149971619D01*
X186400024Y-149924000D01*
X186495262Y-149876381D01*
X186685739Y-149876381D01*
X186780977Y-149924000D01*
X186828596Y-149971619D01*
X186876215Y-150066857D01*
X186876215Y-150114476D01*
X186828596Y-150209714D01*
X186780977Y-150257333D01*
X186685739Y-150304952D01*
X186495262Y-150304952D01*
X186400024Y-150352571D01*
X186352405Y-150400190D01*
X186304786Y-150495429D01*
X186304786Y-150685905D01*
X186352405Y-150781143D01*
X186400024Y-150828762D01*
X186495262Y-150876381D01*
X186685739Y-150876381D01*
X186780977Y-150828762D01*
X186828596Y-150781143D01*
X186876215Y-150685905D01*
X186876215Y-150495429D01*
X186828596Y-150400190D01*
X186780977Y-150352571D01*
X186685739Y-150304952D01*
X164547562Y-149798019D02*
X164452324Y-149750400D01*
X164357086Y-149655162D01*
X164214229Y-149512305D01*
X164118990Y-149464686D01*
X164023752Y-149464686D01*
X164071371Y-149702781D02*
X163976133Y-149655162D01*
X163880895Y-149559924D01*
X163833276Y-149369448D01*
X163833276Y-149036114D01*
X163880895Y-148845638D01*
X163976133Y-148750400D01*
X164071371Y-148702781D01*
X164261848Y-148702781D01*
X164357086Y-148750400D01*
X164452324Y-148845638D01*
X164499943Y-149036114D01*
X164499943Y-149369448D01*
X164452324Y-149559924D01*
X164357086Y-149655162D01*
X164261848Y-149702781D01*
X164071371Y-149702781D01*
X165071371Y-149131352D02*
X164976133Y-149083733D01*
X164928514Y-149036114D01*
X164880895Y-148940876D01*
X164880895Y-148893257D01*
X164928514Y-148798019D01*
X164976133Y-148750400D01*
X165071371Y-148702781D01*
X165261848Y-148702781D01*
X165357086Y-148750400D01*
X165404705Y-148798019D01*
X165452324Y-148893257D01*
X165452324Y-148940876D01*
X165404705Y-149036114D01*
X165357086Y-149083733D01*
X165261848Y-149131352D01*
X165071371Y-149131352D01*
X164976133Y-149178971D01*
X164928514Y-149226590D01*
X164880895Y-149321829D01*
X164880895Y-149512305D01*
X164928514Y-149607543D01*
X164976133Y-149655162D01*
X165071371Y-149702781D01*
X165261848Y-149702781D01*
X165357086Y-149655162D01*
X165404705Y-149607543D01*
X165452324Y-149512305D01*
X165452324Y-149321829D01*
X165404705Y-149226590D01*
X165357086Y-149178971D01*
X165261848Y-149131352D01*
X203708119Y-100158381D02*
X203898596Y-100158381D01*
X203993834Y-100206000D01*
X204089072Y-100301238D01*
X204136691Y-100491714D01*
X204136691Y-100825048D01*
X204089072Y-101015524D01*
X203993834Y-101110762D01*
X203898596Y-101158381D01*
X203708119Y-101158381D01*
X203612881Y-101110762D01*
X203517643Y-101015524D01*
X203470024Y-100825048D01*
X203470024Y-100491714D01*
X203517643Y-100301238D01*
X203612881Y-100206000D01*
X203708119Y-100158381D01*
X204898596Y-100634571D02*
X204565262Y-100634571D01*
X204565262Y-101158381D02*
X204565262Y-100158381D01*
X205041453Y-100158381D01*
X205755739Y-100634571D02*
X205422405Y-100634571D01*
X205422405Y-101158381D02*
X205422405Y-100158381D01*
X205898596Y-100158381D01*
X204104952Y-88791881D02*
X204295429Y-88791881D01*
X204390667Y-88839500D01*
X204485905Y-88934738D01*
X204533524Y-89125214D01*
X204533524Y-89458548D01*
X204485905Y-89649024D01*
X204390667Y-89744262D01*
X204295429Y-89791881D01*
X204104952Y-89791881D01*
X204009714Y-89744262D01*
X203914476Y-89649024D01*
X203866857Y-89458548D01*
X203866857Y-89125214D01*
X203914476Y-88934738D01*
X204009714Y-88839500D01*
X204104952Y-88791881D01*
X204962095Y-89791881D02*
X204962095Y-88791881D01*
X205533524Y-89791881D01*
X205533524Y-88791881D01*
X203644619Y-125050381D02*
X203835096Y-125050381D01*
X203930334Y-125098000D01*
X204025572Y-125193238D01*
X204073191Y-125383714D01*
X204073191Y-125717048D01*
X204025572Y-125907524D01*
X203930334Y-126002762D01*
X203835096Y-126050381D01*
X203644619Y-126050381D01*
X203549381Y-126002762D01*
X203454143Y-125907524D01*
X203406524Y-125717048D01*
X203406524Y-125383714D01*
X203454143Y-125193238D01*
X203549381Y-125098000D01*
X203644619Y-125050381D01*
X204835096Y-125526571D02*
X204501762Y-125526571D01*
X204501762Y-126050381D02*
X204501762Y-125050381D01*
X204977953Y-125050381D01*
X205692239Y-125526571D02*
X205358905Y-125526571D01*
X205358905Y-126050381D02*
X205358905Y-125050381D01*
X205835096Y-125050381D01*
X204168452Y-113366381D02*
X204358929Y-113366381D01*
X204454167Y-113414000D01*
X204549405Y-113509238D01*
X204597024Y-113699714D01*
X204597024Y-114033048D01*
X204549405Y-114223524D01*
X204454167Y-114318762D01*
X204358929Y-114366381D01*
X204168452Y-114366381D01*
X204073214Y-114318762D01*
X203977976Y-114223524D01*
X203930357Y-114033048D01*
X203930357Y-113699714D01*
X203977976Y-113509238D01*
X204073214Y-113414000D01*
X204168452Y-113366381D01*
X205025595Y-114366381D02*
X205025595Y-113366381D01*
X205597024Y-114366381D01*
X205597024Y-113366381D01*
X185352405Y-101473381D02*
X185352405Y-100473381D01*
X185923834Y-101473381D02*
X185495262Y-100901952D01*
X185923834Y-100473381D02*
X185352405Y-101044810D01*
X186304786Y-100568619D02*
X186352405Y-100521000D01*
X186447643Y-100473381D01*
X186685739Y-100473381D01*
X186780977Y-100521000D01*
X186828596Y-100568619D01*
X186876215Y-100663857D01*
X186876215Y-100759095D01*
X186828596Y-100901952D01*
X186257167Y-101473381D01*
X186876215Y-101473381D01*
X185415905Y-126174881D02*
X185415905Y-125174881D01*
X185987334Y-126174881D02*
X185558762Y-125603452D01*
X185987334Y-125174881D02*
X185415905Y-125746310D01*
X186320667Y-125174881D02*
X186987334Y-125174881D01*
X186558762Y-126174881D01*
X153168362Y-100471219D02*
X153073124Y-100423600D01*
X152977886Y-100328362D01*
X152835029Y-100185505D01*
X152739790Y-100137886D01*
X152644552Y-100137886D01*
X152692171Y-100375981D02*
X152596933Y-100328362D01*
X152501695Y-100233124D01*
X152454076Y-100042648D01*
X152454076Y-99709314D01*
X152501695Y-99518838D01*
X152596933Y-99423600D01*
X152692171Y-99375981D01*
X152882648Y-99375981D01*
X152977886Y-99423600D01*
X153073124Y-99518838D01*
X153120743Y-99709314D01*
X153120743Y-100042648D01*
X153073124Y-100233124D01*
X152977886Y-100328362D01*
X152882648Y-100375981D01*
X152692171Y-100375981D01*
X153501695Y-99471219D02*
X153549314Y-99423600D01*
X153644552Y-99375981D01*
X153882648Y-99375981D01*
X153977886Y-99423600D01*
X154025505Y-99471219D01*
X154073124Y-99566457D01*
X154073124Y-99661695D01*
X154025505Y-99804552D01*
X153454076Y-100375981D01*
X154073124Y-100375981D01*
X153168362Y-125007619D02*
X153073124Y-124960000D01*
X152977886Y-124864762D01*
X152835029Y-124721905D01*
X152739790Y-124674286D01*
X152644552Y-124674286D01*
X152692171Y-124912381D02*
X152596933Y-124864762D01*
X152501695Y-124769524D01*
X152454076Y-124579048D01*
X152454076Y-124245714D01*
X152501695Y-124055238D01*
X152596933Y-123960000D01*
X152692171Y-123912381D01*
X152882648Y-123912381D01*
X152977886Y-123960000D01*
X153073124Y-124055238D01*
X153120743Y-124245714D01*
X153120743Y-124579048D01*
X153073124Y-124769524D01*
X152977886Y-124864762D01*
X152882648Y-124912381D01*
X152692171Y-124912381D01*
X153454076Y-123912381D02*
X154120743Y-123912381D01*
X153692171Y-124912381D01*
X159624805Y-99571681D02*
X159624805Y-98571681D01*
X159862900Y-98571681D01*
X160005758Y-98619300D01*
X160100996Y-98714538D01*
X160148615Y-98809776D01*
X160196234Y-99000252D01*
X160196234Y-99143110D01*
X160148615Y-99333586D01*
X160100996Y-99428824D01*
X160005758Y-99524062D01*
X159862900Y-99571681D01*
X159624805Y-99571681D01*
X161148615Y-99571681D02*
X160577186Y-99571681D01*
X160862900Y-99571681D02*
X160862900Y-98571681D01*
X160767662Y-98714538D01*
X160672424Y-98809776D01*
X160577186Y-98857395D01*
X159688305Y-75200381D02*
X159688305Y-74200381D01*
X159926400Y-74200381D01*
X160069258Y-74248000D01*
X160164496Y-74343238D01*
X160212115Y-74438476D01*
X160259734Y-74628952D01*
X160259734Y-74771810D01*
X160212115Y-74962286D01*
X160164496Y-75057524D01*
X160069258Y-75152762D01*
X159926400Y-75200381D01*
X159688305Y-75200381D01*
X161164496Y-74200381D02*
X160688305Y-74200381D01*
X160640686Y-74676571D01*
X160688305Y-74628952D01*
X160783543Y-74581333D01*
X161021639Y-74581333D01*
X161116877Y-74628952D01*
X161164496Y-74676571D01*
X161212115Y-74771810D01*
X161212115Y-75009905D01*
X161164496Y-75105143D01*
X161116877Y-75152762D01*
X161021639Y-75200381D01*
X160783543Y-75200381D01*
X160688305Y-75152762D01*
X160640686Y-75105143D01*
X159408905Y-124222381D02*
X159408905Y-123222381D01*
X159647000Y-123222381D01*
X159789858Y-123270000D01*
X159885096Y-123365238D01*
X159932715Y-123460476D01*
X159980334Y-123650952D01*
X159980334Y-123793810D01*
X159932715Y-123984286D01*
X159885096Y-124079524D01*
X159789858Y-124174762D01*
X159647000Y-124222381D01*
X159408905Y-124222381D01*
X160837477Y-123222381D02*
X160647000Y-123222381D01*
X160551762Y-123270000D01*
X160504143Y-123317619D01*
X160408905Y-123460476D01*
X160361286Y-123650952D01*
X160361286Y-124031905D01*
X160408905Y-124127143D01*
X160456524Y-124174762D01*
X160551762Y-124222381D01*
X160742239Y-124222381D01*
X160837477Y-124174762D01*
X160885096Y-124127143D01*
X160932715Y-124031905D01*
X160932715Y-123793810D01*
X160885096Y-123698571D01*
X160837477Y-123650952D01*
X160742239Y-123603333D01*
X160551762Y-123603333D01*
X160456524Y-123650952D01*
X160408905Y-123698571D01*
X160361286Y-123793810D01*
X170965905Y-149558881D02*
X170965905Y-148558881D01*
X171204000Y-148558881D01*
X171346858Y-148606500D01*
X171442096Y-148701738D01*
X171489715Y-148796976D01*
X171537334Y-148987452D01*
X171537334Y-149130310D01*
X171489715Y-149320786D01*
X171442096Y-149416024D01*
X171346858Y-149511262D01*
X171204000Y-149558881D01*
X170965905Y-149558881D01*
X171870667Y-148558881D02*
X172537334Y-148558881D01*
X172108762Y-149558881D01*
X140465277Y-55491581D02*
X140465277Y-56205867D01*
X140417657Y-56348724D01*
X140322419Y-56443962D01*
X140179562Y-56491581D01*
X140084324Y-56491581D01*
X140893848Y-55586819D02*
X140941467Y-55539200D01*
X141036705Y-55491581D01*
X141274801Y-55491581D01*
X141370039Y-55539200D01*
X141417658Y-55586819D01*
X141465277Y-55682057D01*
X141465277Y-55777295D01*
X141417658Y-55920152D01*
X140846229Y-56491581D01*
X141465277Y-56491581D01*
X142084324Y-55491581D02*
X142179563Y-55491581D01*
X142274801Y-55539200D01*
X142322420Y-55586819D01*
X142370039Y-55682057D01*
X142417658Y-55872533D01*
X142417658Y-56110629D01*
X142370039Y-56301105D01*
X142322420Y-56396343D01*
X142274801Y-56443962D01*
X142179563Y-56491581D01*
X142084324Y-56491581D01*
X141989086Y-56443962D01*
X141941467Y-56396343D01*
X141893848Y-56301105D01*
X141846229Y-56110629D01*
X141846229Y-55872533D01*
X141893848Y-55682057D01*
X141941467Y-55586819D01*
X141989086Y-55539200D01*
X142084324Y-55491581D01*
X140465277Y-129456381D02*
X140465277Y-130170667D01*
X140417657Y-130313524D01*
X140322419Y-130408762D01*
X140179562Y-130456381D01*
X140084324Y-130456381D01*
X140893848Y-129551619D02*
X140941467Y-129504000D01*
X141036705Y-129456381D01*
X141274801Y-129456381D01*
X141370039Y-129504000D01*
X141417658Y-129551619D01*
X141465277Y-129646857D01*
X141465277Y-129742095D01*
X141417658Y-129884952D01*
X140846229Y-130456381D01*
X141465277Y-130456381D01*
X142417658Y-130456381D02*
X141846229Y-130456381D01*
X142131943Y-130456381D02*
X142131943Y-129456381D01*
X142036705Y-129599238D01*
X141941467Y-129694476D01*
X141846229Y-129742095D01*
X140465277Y-104767581D02*
X140465277Y-105481867D01*
X140417657Y-105624724D01*
X140322419Y-105719962D01*
X140179562Y-105767581D01*
X140084324Y-105767581D01*
X140893848Y-104862819D02*
X140941467Y-104815200D01*
X141036705Y-104767581D01*
X141274801Y-104767581D01*
X141370039Y-104815200D01*
X141417658Y-104862819D01*
X141465277Y-104958057D01*
X141465277Y-105053295D01*
X141417658Y-105196152D01*
X140846229Y-105767581D01*
X141465277Y-105767581D01*
X141846229Y-104862819D02*
X141893848Y-104815200D01*
X141989086Y-104767581D01*
X142227182Y-104767581D01*
X142322420Y-104815200D01*
X142370039Y-104862819D01*
X142417658Y-104958057D01*
X142417658Y-105053295D01*
X142370039Y-105196152D01*
X141798610Y-105767581D01*
X142417658Y-105767581D01*
X140941467Y-80078781D02*
X140941467Y-80793067D01*
X140893847Y-80935924D01*
X140798609Y-81031162D01*
X140655752Y-81078781D01*
X140560514Y-81078781D01*
X141941467Y-81078781D02*
X141370038Y-81078781D01*
X141655752Y-81078781D02*
X141655752Y-80078781D01*
X141560514Y-80221638D01*
X141465276Y-80316876D01*
X141370038Y-80364495D01*
D14*
X228377881Y-63293690D02*
X229092167Y-63293690D01*
X229235024Y-63341310D01*
X229330262Y-63436548D01*
X229377881Y-63579405D01*
X229377881Y-63674643D01*
X229377881Y-62293690D02*
X229377881Y-62865119D01*
X229377881Y-62579405D02*
X228377881Y-62579405D01*
X228520738Y-62674643D01*
X228615976Y-62769881D01*
X228663595Y-62865119D01*
X229377881Y-61341309D02*
X229377881Y-61912738D01*
X229377881Y-61627024D02*
X228377881Y-61627024D01*
X228520738Y-61722262D01*
X228615976Y-61817500D01*
X228663595Y-61912738D01*
X228377881Y-87995190D02*
X229092167Y-87995190D01*
X229235024Y-88042810D01*
X229330262Y-88138048D01*
X229377881Y-88280905D01*
X229377881Y-88376143D01*
X229377881Y-86995190D02*
X229377881Y-87566619D01*
X229377881Y-87280905D02*
X228377881Y-87280905D01*
X228520738Y-87376143D01*
X228615976Y-87471381D01*
X228663595Y-87566619D01*
X228473119Y-86614238D02*
X228425500Y-86566619D01*
X228377881Y-86471381D01*
X228377881Y-86233285D01*
X228425500Y-86138047D01*
X228473119Y-86090428D01*
X228568357Y-86042809D01*
X228663595Y-86042809D01*
X228806452Y-86090428D01*
X229377881Y-86661857D01*
X229377881Y-86042809D01*
X228377881Y-112760190D02*
X229092167Y-112760190D01*
X229235024Y-112807810D01*
X229330262Y-112903048D01*
X229377881Y-113045905D01*
X229377881Y-113141143D01*
X229377881Y-111760190D02*
X229377881Y-112331619D01*
X229377881Y-112045905D02*
X228377881Y-112045905D01*
X228520738Y-112141143D01*
X228615976Y-112236381D01*
X228663595Y-112331619D01*
X228377881Y-111426857D02*
X228377881Y-110807809D01*
X228758833Y-111141143D01*
X228758833Y-110998285D01*
X228806452Y-110903047D01*
X228854071Y-110855428D01*
X228949310Y-110807809D01*
X229187405Y-110807809D01*
X229282643Y-110855428D01*
X229330262Y-110903047D01*
X229377881Y-110998285D01*
X229377881Y-111284000D01*
X229330262Y-111379238D01*
X229282643Y-111426857D01*
M02*
