G04 #@! TF.GenerationSoftware,KiCad,Pcbnew,(6.0.0-rc1-dev-637-g704615721)*
G04 #@! TF.CreationDate,2018-10-01T23:53:43+02:00*
G04 #@! TF.ProjectId,fan-v1.0,66616E2D76312E302E6B696361645F70,rev?*
G04 #@! TF.SameCoordinates,Original*
G04 #@! TF.FileFunction,Legend,Bot*
G04 #@! TF.FilePolarity,Positive*
%FSLAX46Y46*%
G04 Gerber Fmt 4.6, Leading zero omitted, Abs format (unit mm)*
G04 Created by KiCad (PCBNEW (6.0.0-rc1-dev-637-g704615721)) date 10/01/18 23:53:43*
%MOMM*%
%LPD*%
G01*
G04 APERTURE LIST*
%ADD10C,0.125000*%
%ADD11C,0.120000*%
%ADD12C,0.150000*%
G04 APERTURE END LIST*
D10*
X65399076Y-128775590D02*
X65399076Y-128275590D01*
X64708600Y-128775590D02*
X64756219Y-128751780D01*
X64780028Y-128704161D01*
X64780028Y-128275590D01*
X64446695Y-128775590D02*
X64494314Y-128751780D01*
X64518123Y-128727971D01*
X64541933Y-128680352D01*
X64541933Y-128537495D01*
X64518123Y-128489876D01*
X64494314Y-128466066D01*
X64446695Y-128442257D01*
X64375266Y-128442257D01*
X64327647Y-128466066D01*
X64303838Y-128489876D01*
X64280028Y-128537495D01*
X64280028Y-128680352D01*
X64303838Y-128727971D01*
X64327647Y-128751780D01*
X64375266Y-128775590D01*
X64446695Y-128775590D01*
X64113361Y-128442257D02*
X63994314Y-128775590D01*
X63875266Y-128442257D01*
X63494314Y-128751780D02*
X63541933Y-128775590D01*
X63637171Y-128775590D01*
X63684790Y-128751780D01*
X63708600Y-128704161D01*
X63708600Y-128513685D01*
X63684790Y-128466066D01*
X63637171Y-128442257D01*
X63541933Y-128442257D01*
X63494314Y-128466066D01*
X63470504Y-128513685D01*
X63470504Y-128561304D01*
X63708600Y-128608923D01*
X62946695Y-128275590D02*
X62780028Y-128775590D01*
X62613361Y-128275590D01*
X62256219Y-128751780D02*
X62303838Y-128775590D01*
X62399076Y-128775590D01*
X62446695Y-128751780D01*
X62470504Y-128704161D01*
X62470504Y-128513685D01*
X62446695Y-128466066D01*
X62399076Y-128442257D01*
X62303838Y-128442257D01*
X62256219Y-128466066D01*
X62232409Y-128513685D01*
X62232409Y-128561304D01*
X62470504Y-128608923D01*
X62018123Y-128775590D02*
X62018123Y-128442257D01*
X62018123Y-128537495D02*
X61994314Y-128489876D01*
X61970504Y-128466066D01*
X61922885Y-128442257D01*
X61875266Y-128442257D01*
X61637171Y-128775590D02*
X61684790Y-128751780D01*
X61708600Y-128727971D01*
X61732409Y-128680352D01*
X61732409Y-128537495D01*
X61708600Y-128489876D01*
X61684790Y-128466066D01*
X61637171Y-128442257D01*
X61565742Y-128442257D01*
X61518123Y-128466066D01*
X61494314Y-128489876D01*
X61470504Y-128537495D01*
X61470504Y-128680352D01*
X61494314Y-128727971D01*
X61518123Y-128751780D01*
X61565742Y-128775590D01*
X61637171Y-128775590D01*
X61256219Y-128442257D02*
X61256219Y-128775590D01*
X61256219Y-128489876D02*
X61232409Y-128466066D01*
X61184790Y-128442257D01*
X61113361Y-128442257D01*
X61065742Y-128466066D01*
X61041933Y-128513685D01*
X61041933Y-128775590D01*
X60803838Y-128775590D02*
X60803838Y-128442257D01*
X60803838Y-128275590D02*
X60827647Y-128299400D01*
X60803838Y-128323209D01*
X60780028Y-128299400D01*
X60803838Y-128275590D01*
X60803838Y-128323209D01*
X60351457Y-128751780D02*
X60399076Y-128775590D01*
X60494314Y-128775590D01*
X60541933Y-128751780D01*
X60565742Y-128727971D01*
X60589552Y-128680352D01*
X60589552Y-128537495D01*
X60565742Y-128489876D01*
X60541933Y-128466066D01*
X60494314Y-128442257D01*
X60399076Y-128442257D01*
X60351457Y-128466066D01*
X60137171Y-128775590D02*
X60137171Y-128275590D01*
X60089552Y-128585114D02*
X59946695Y-128775590D01*
X59946695Y-128442257D02*
X60137171Y-128632733D01*
X59518123Y-128775590D02*
X59518123Y-128513685D01*
X59541933Y-128466066D01*
X59589552Y-128442257D01*
X59684790Y-128442257D01*
X59732409Y-128466066D01*
X59518123Y-128751780D02*
X59565742Y-128775590D01*
X59684790Y-128775590D01*
X59732409Y-128751780D01*
X59756219Y-128704161D01*
X59756219Y-128656542D01*
X59732409Y-128608923D01*
X59684790Y-128585114D01*
X59565742Y-128585114D01*
X59518123Y-128561304D01*
D11*
G04 #@! TO.C,C1*
X114551400Y-51167400D02*
X113551400Y-51167400D01*
X113551400Y-49467400D02*
X114551400Y-49467400D01*
G04 #@! TO.C,C2*
X114540600Y-48513100D02*
X113540600Y-48513100D01*
X113540600Y-46813100D02*
X114540600Y-46813100D01*
G04 #@! TO.C,R4*
X115073600Y-41322600D02*
X113073600Y-41322600D01*
X113073600Y-43462600D02*
X115073600Y-43462600D01*
G04 #@! TO.C,R5*
X113084100Y-46320100D02*
X115084100Y-46320100D01*
X115084100Y-44180100D02*
X113084100Y-44180100D01*
G04 #@! TO.C,R1*
X134735400Y-59058200D02*
X136735400Y-59058200D01*
X136735400Y-56918200D02*
X134735400Y-56918200D01*
G04 #@! TO.C,D1*
X144035000Y-56051000D02*
X140835000Y-56051000D01*
X140835000Y-53931000D02*
X144035000Y-53931000D01*
X144035000Y-53931000D02*
X144035000Y-56051000D01*
D12*
G04 #@! TO.C,J1*
X124053600Y-48996600D02*
X120243600Y-48996600D01*
X124053600Y-43916600D02*
X120243600Y-43916600D01*
X124053600Y-43916600D02*
X124053600Y-48996600D01*
X120243600Y-43916600D02*
X120243600Y-48996600D01*
X123545600Y-43916600D02*
X123545600Y-48996600D01*
X123037600Y-44551600D02*
G75*
G03X123037600Y-44551600I-127000J0D01*
G01*
D11*
G04 #@! TO.C,Q1*
X134132200Y-53723000D02*
X134132200Y-55183000D01*
X137292200Y-53723000D02*
X137292200Y-55883000D01*
X137292200Y-53723000D02*
X136362200Y-53723000D01*
X134132200Y-53723000D02*
X135062200Y-53723000D01*
G04 #@! TO.C,C4*
X91996200Y-49541800D02*
X90996200Y-49541800D01*
X90996200Y-47841800D02*
X91996200Y-47841800D01*
G04 #@! TO.C,D2*
X97767800Y-51945800D02*
X97767800Y-49945800D01*
X95627800Y-49945800D02*
X95627800Y-51945800D01*
G04 #@! TO.C,J13*
X88820600Y-50508200D02*
X88820600Y-51708200D01*
X92820600Y-50508200D02*
X88820600Y-50508200D01*
X88820600Y-55308200D02*
X91520600Y-55308200D01*
X88820600Y-54108200D02*
X88820600Y-55308200D01*
G04 #@! TO.C,L1*
X95697800Y-40941800D02*
X93797800Y-40941800D01*
X93797800Y-46281800D02*
X95697800Y-46281800D01*
G04 #@! TO.C,sw-charge-usb*
D12*
X75837323Y-76122161D02*
X75742085Y-76169780D01*
X75551609Y-76169780D01*
X75456371Y-76122161D01*
X75408752Y-76026923D01*
X75408752Y-75979304D01*
X75456371Y-75884066D01*
X75551609Y-75836447D01*
X75694466Y-75836447D01*
X75789704Y-75788828D01*
X75837323Y-75693590D01*
X75837323Y-75645971D01*
X75789704Y-75550733D01*
X75694466Y-75503114D01*
X75551609Y-75503114D01*
X75456371Y-75550733D01*
X75075419Y-75503114D02*
X74884942Y-76169780D01*
X74694466Y-75693590D01*
X74503990Y-76169780D01*
X74313514Y-75503114D01*
X73932561Y-75788828D02*
X73170657Y-75788828D01*
X72265895Y-76122161D02*
X72361133Y-76169780D01*
X72551609Y-76169780D01*
X72646847Y-76122161D01*
X72694466Y-76074542D01*
X72742085Y-75979304D01*
X72742085Y-75693590D01*
X72694466Y-75598352D01*
X72646847Y-75550733D01*
X72551609Y-75503114D01*
X72361133Y-75503114D01*
X72265895Y-75550733D01*
X71837323Y-76169780D02*
X71837323Y-75169780D01*
X71408752Y-76169780D02*
X71408752Y-75645971D01*
X71456371Y-75550733D01*
X71551609Y-75503114D01*
X71694466Y-75503114D01*
X71789704Y-75550733D01*
X71837323Y-75598352D01*
X70503990Y-76169780D02*
X70503990Y-75645971D01*
X70551609Y-75550733D01*
X70646847Y-75503114D01*
X70837323Y-75503114D01*
X70932561Y-75550733D01*
X70503990Y-76122161D02*
X70599228Y-76169780D01*
X70837323Y-76169780D01*
X70932561Y-76122161D01*
X70980180Y-76026923D01*
X70980180Y-75931685D01*
X70932561Y-75836447D01*
X70837323Y-75788828D01*
X70599228Y-75788828D01*
X70503990Y-75741209D01*
X70027800Y-76169780D02*
X70027800Y-75503114D01*
X70027800Y-75693590D02*
X69980180Y-75598352D01*
X69932561Y-75550733D01*
X69837323Y-75503114D01*
X69742085Y-75503114D01*
X68980180Y-75503114D02*
X68980180Y-76312638D01*
X69027800Y-76407876D01*
X69075419Y-76455495D01*
X69170657Y-76503114D01*
X69313514Y-76503114D01*
X69408752Y-76455495D01*
X68980180Y-76122161D02*
X69075419Y-76169780D01*
X69265895Y-76169780D01*
X69361133Y-76122161D01*
X69408752Y-76074542D01*
X69456371Y-75979304D01*
X69456371Y-75693590D01*
X69408752Y-75598352D01*
X69361133Y-75550733D01*
X69265895Y-75503114D01*
X69075419Y-75503114D01*
X68980180Y-75550733D01*
X68123038Y-76122161D02*
X68218276Y-76169780D01*
X68408752Y-76169780D01*
X68503990Y-76122161D01*
X68551609Y-76026923D01*
X68551609Y-75645971D01*
X68503990Y-75550733D01*
X68408752Y-75503114D01*
X68218276Y-75503114D01*
X68123038Y-75550733D01*
X68075419Y-75645971D01*
X68075419Y-75741209D01*
X68551609Y-75836447D01*
X67646847Y-75788828D02*
X66884942Y-75788828D01*
X65980180Y-75503114D02*
X65980180Y-76169780D01*
X66408752Y-75503114D02*
X66408752Y-76026923D01*
X66361133Y-76122161D01*
X66265895Y-76169780D01*
X66123038Y-76169780D01*
X66027800Y-76122161D01*
X65980180Y-76074542D01*
X65551609Y-76122161D02*
X65456371Y-76169780D01*
X65265895Y-76169780D01*
X65170657Y-76122161D01*
X65123038Y-76026923D01*
X65123038Y-75979304D01*
X65170657Y-75884066D01*
X65265895Y-75836447D01*
X65408752Y-75836447D01*
X65503990Y-75788828D01*
X65551609Y-75693590D01*
X65551609Y-75645971D01*
X65503990Y-75550733D01*
X65408752Y-75503114D01*
X65265895Y-75503114D01*
X65170657Y-75550733D01*
X64694466Y-76169780D02*
X64694466Y-75169780D01*
X64694466Y-75550733D02*
X64599228Y-75503114D01*
X64408752Y-75503114D01*
X64313514Y-75550733D01*
X64265895Y-75598352D01*
X64218276Y-75693590D01*
X64218276Y-75979304D01*
X64265895Y-76074542D01*
X64313514Y-76122161D01*
X64408752Y-76169780D01*
X64599228Y-76169780D01*
X64694466Y-76122161D01*
G04 #@! TO.C,C1*
X110580466Y-50674542D02*
X110628085Y-50722161D01*
X110770942Y-50769780D01*
X110866180Y-50769780D01*
X111009038Y-50722161D01*
X111104276Y-50626923D01*
X111151895Y-50531685D01*
X111199514Y-50341209D01*
X111199514Y-50198352D01*
X111151895Y-50007876D01*
X111104276Y-49912638D01*
X111009038Y-49817400D01*
X110866180Y-49769780D01*
X110770942Y-49769780D01*
X110628085Y-49817400D01*
X110580466Y-49865019D01*
X109628085Y-50769780D02*
X110199514Y-50769780D01*
X109913800Y-50769780D02*
X109913800Y-49769780D01*
X110009038Y-49912638D01*
X110104276Y-50007876D01*
X110199514Y-50055495D01*
G04 #@! TO.C,C2*
X110732866Y-48032942D02*
X110780485Y-48080561D01*
X110923342Y-48128180D01*
X111018580Y-48128180D01*
X111161438Y-48080561D01*
X111256676Y-47985323D01*
X111304295Y-47890085D01*
X111351914Y-47699609D01*
X111351914Y-47556752D01*
X111304295Y-47366276D01*
X111256676Y-47271038D01*
X111161438Y-47175800D01*
X111018580Y-47128180D01*
X110923342Y-47128180D01*
X110780485Y-47175800D01*
X110732866Y-47223419D01*
X110351914Y-47223419D02*
X110304295Y-47175800D01*
X110209057Y-47128180D01*
X109970961Y-47128180D01*
X109875723Y-47175800D01*
X109828104Y-47223419D01*
X109780485Y-47318657D01*
X109780485Y-47413895D01*
X109828104Y-47556752D01*
X110399533Y-48128180D01*
X109780485Y-48128180D01*
G04 #@! TO.C,R4*
X110631266Y-42844980D02*
X110964600Y-42368790D01*
X111202695Y-42844980D02*
X111202695Y-41844980D01*
X110821742Y-41844980D01*
X110726504Y-41892600D01*
X110678885Y-41940219D01*
X110631266Y-42035457D01*
X110631266Y-42178314D01*
X110678885Y-42273552D01*
X110726504Y-42321171D01*
X110821742Y-42368790D01*
X111202695Y-42368790D01*
X109774123Y-42178314D02*
X109774123Y-42844980D01*
X110012219Y-41797361D02*
X110250314Y-42511647D01*
X109631266Y-42511647D01*
G04 #@! TO.C,R5*
X110580466Y-45689780D02*
X110913800Y-45213590D01*
X111151895Y-45689780D02*
X111151895Y-44689780D01*
X110770942Y-44689780D01*
X110675704Y-44737400D01*
X110628085Y-44785019D01*
X110580466Y-44880257D01*
X110580466Y-45023114D01*
X110628085Y-45118352D01*
X110675704Y-45165971D01*
X110770942Y-45213590D01*
X111151895Y-45213590D01*
X109675704Y-44689780D02*
X110151895Y-44689780D01*
X110199514Y-45165971D01*
X110151895Y-45118352D01*
X110056657Y-45070733D01*
X109818561Y-45070733D01*
X109723323Y-45118352D01*
X109675704Y-45165971D01*
X109628085Y-45261209D01*
X109628085Y-45499304D01*
X109675704Y-45594542D01*
X109723323Y-45642161D01*
X109818561Y-45689780D01*
X110056657Y-45689780D01*
X110151895Y-45642161D01*
X110199514Y-45594542D01*
G04 #@! TO.C,R1*
X132678466Y-58338980D02*
X133011800Y-57862790D01*
X133249895Y-58338980D02*
X133249895Y-57338980D01*
X132868942Y-57338980D01*
X132773704Y-57386600D01*
X132726085Y-57434219D01*
X132678466Y-57529457D01*
X132678466Y-57672314D01*
X132726085Y-57767552D01*
X132773704Y-57815171D01*
X132868942Y-57862790D01*
X133249895Y-57862790D01*
X131726085Y-58338980D02*
X132297514Y-58338980D01*
X132011800Y-58338980D02*
X132011800Y-57338980D01*
X132107038Y-57481838D01*
X132202276Y-57577076D01*
X132297514Y-57624695D01*
G04 #@! TO.C,D1*
X142573095Y-53643380D02*
X142573095Y-52643380D01*
X142335000Y-52643380D01*
X142192142Y-52691000D01*
X142096904Y-52786238D01*
X142049285Y-52881476D01*
X142001666Y-53071952D01*
X142001666Y-53214809D01*
X142049285Y-53405285D01*
X142096904Y-53500523D01*
X142192142Y-53595761D01*
X142335000Y-53643380D01*
X142573095Y-53643380D01*
X141049285Y-53643380D02*
X141620714Y-53643380D01*
X141335000Y-53643380D02*
X141335000Y-52643380D01*
X141430238Y-52786238D01*
X141525476Y-52881476D01*
X141620714Y-52929095D01*
G04 #@! TO.C,J1*
X121600980Y-46123266D02*
X122315266Y-46123266D01*
X122458123Y-46075647D01*
X122553361Y-45980409D01*
X122600980Y-45837552D01*
X122600980Y-45742314D01*
X122600980Y-47123266D02*
X122600980Y-46551838D01*
X122600980Y-46837552D02*
X121600980Y-46837552D01*
X121743838Y-46742314D01*
X121839076Y-46647076D01*
X121886695Y-46551838D01*
G04 #@! TO.C,Q1*
X132810238Y-55183019D02*
X132905476Y-55135400D01*
X133000714Y-55040161D01*
X133143571Y-54897304D01*
X133238809Y-54849685D01*
X133334047Y-54849685D01*
X133286428Y-55087780D02*
X133381666Y-55040161D01*
X133476904Y-54944923D01*
X133524523Y-54754447D01*
X133524523Y-54421114D01*
X133476904Y-54230638D01*
X133381666Y-54135400D01*
X133286428Y-54087780D01*
X133095952Y-54087780D01*
X133000714Y-54135400D01*
X132905476Y-54230638D01*
X132857857Y-54421114D01*
X132857857Y-54754447D01*
X132905476Y-54944923D01*
X133000714Y-55040161D01*
X133095952Y-55087780D01*
X133286428Y-55087780D01*
X131905476Y-55087780D02*
X132476904Y-55087780D01*
X132191190Y-55087780D02*
X132191190Y-54087780D01*
X132286428Y-54230638D01*
X132381666Y-54325876D01*
X132476904Y-54373495D01*
G04 #@! TO.C,sw-charge-zdroj*
X75978542Y-82370561D02*
X75883304Y-82418180D01*
X75692828Y-82418180D01*
X75597590Y-82370561D01*
X75549971Y-82275323D01*
X75549971Y-82227704D01*
X75597590Y-82132466D01*
X75692828Y-82084847D01*
X75835685Y-82084847D01*
X75930923Y-82037228D01*
X75978542Y-81941990D01*
X75978542Y-81894371D01*
X75930923Y-81799133D01*
X75835685Y-81751514D01*
X75692828Y-81751514D01*
X75597590Y-81799133D01*
X75216638Y-81751514D02*
X75026161Y-82418180D01*
X74835685Y-81941990D01*
X74645209Y-82418180D01*
X74454733Y-81751514D01*
X74073780Y-82037228D02*
X73311876Y-82037228D01*
X72407114Y-82370561D02*
X72502352Y-82418180D01*
X72692828Y-82418180D01*
X72788066Y-82370561D01*
X72835685Y-82322942D01*
X72883304Y-82227704D01*
X72883304Y-81941990D01*
X72835685Y-81846752D01*
X72788066Y-81799133D01*
X72692828Y-81751514D01*
X72502352Y-81751514D01*
X72407114Y-81799133D01*
X71978542Y-82418180D02*
X71978542Y-81418180D01*
X71549971Y-82418180D02*
X71549971Y-81894371D01*
X71597590Y-81799133D01*
X71692828Y-81751514D01*
X71835685Y-81751514D01*
X71930923Y-81799133D01*
X71978542Y-81846752D01*
X70645209Y-82418180D02*
X70645209Y-81894371D01*
X70692828Y-81799133D01*
X70788066Y-81751514D01*
X70978542Y-81751514D01*
X71073780Y-81799133D01*
X70645209Y-82370561D02*
X70740447Y-82418180D01*
X70978542Y-82418180D01*
X71073780Y-82370561D01*
X71121400Y-82275323D01*
X71121400Y-82180085D01*
X71073780Y-82084847D01*
X70978542Y-82037228D01*
X70740447Y-82037228D01*
X70645209Y-81989609D01*
X70169019Y-82418180D02*
X70169019Y-81751514D01*
X70169019Y-81941990D02*
X70121400Y-81846752D01*
X70073780Y-81799133D01*
X69978542Y-81751514D01*
X69883304Y-81751514D01*
X69121400Y-81751514D02*
X69121400Y-82561038D01*
X69169019Y-82656276D01*
X69216638Y-82703895D01*
X69311876Y-82751514D01*
X69454733Y-82751514D01*
X69549971Y-82703895D01*
X69121400Y-82370561D02*
X69216638Y-82418180D01*
X69407114Y-82418180D01*
X69502352Y-82370561D01*
X69549971Y-82322942D01*
X69597590Y-82227704D01*
X69597590Y-81941990D01*
X69549971Y-81846752D01*
X69502352Y-81799133D01*
X69407114Y-81751514D01*
X69216638Y-81751514D01*
X69121400Y-81799133D01*
X68264257Y-82370561D02*
X68359495Y-82418180D01*
X68549971Y-82418180D01*
X68645209Y-82370561D01*
X68692828Y-82275323D01*
X68692828Y-81894371D01*
X68645209Y-81799133D01*
X68549971Y-81751514D01*
X68359495Y-81751514D01*
X68264257Y-81799133D01*
X68216638Y-81894371D01*
X68216638Y-81989609D01*
X68692828Y-82084847D01*
X67788066Y-82037228D02*
X67026161Y-82037228D01*
X66645209Y-81751514D02*
X66121400Y-81751514D01*
X66645209Y-82418180D01*
X66121400Y-82418180D01*
X65311876Y-82418180D02*
X65311876Y-81418180D01*
X65311876Y-82370561D02*
X65407114Y-82418180D01*
X65597590Y-82418180D01*
X65692828Y-82370561D01*
X65740447Y-82322942D01*
X65788066Y-82227704D01*
X65788066Y-81941990D01*
X65740447Y-81846752D01*
X65692828Y-81799133D01*
X65597590Y-81751514D01*
X65407114Y-81751514D01*
X65311876Y-81799133D01*
X64835685Y-82418180D02*
X64835685Y-81751514D01*
X64835685Y-81941990D02*
X64788066Y-81846752D01*
X64740447Y-81799133D01*
X64645209Y-81751514D01*
X64549971Y-81751514D01*
X64073780Y-82418180D02*
X64169019Y-82370561D01*
X64216638Y-82322942D01*
X64264257Y-82227704D01*
X64264257Y-81941990D01*
X64216638Y-81846752D01*
X64169019Y-81799133D01*
X64073780Y-81751514D01*
X63930923Y-81751514D01*
X63835685Y-81799133D01*
X63788066Y-81846752D01*
X63740447Y-81941990D01*
X63740447Y-82227704D01*
X63788066Y-82322942D01*
X63835685Y-82370561D01*
X63930923Y-82418180D01*
X64073780Y-82418180D01*
X63311876Y-81751514D02*
X63311876Y-82608657D01*
X63359495Y-82703895D01*
X63454733Y-82751514D01*
X63502352Y-82751514D01*
X63311876Y-81418180D02*
X63359495Y-81465800D01*
X63311876Y-81513419D01*
X63264257Y-81465800D01*
X63311876Y-81418180D01*
X63311876Y-81513419D01*
G04 #@! TO.C,sw-batt-reg*
X74264257Y-88517361D02*
X74169019Y-88564980D01*
X73978542Y-88564980D01*
X73883304Y-88517361D01*
X73835685Y-88422123D01*
X73835685Y-88374504D01*
X73883304Y-88279266D01*
X73978542Y-88231647D01*
X74121400Y-88231647D01*
X74216638Y-88184028D01*
X74264257Y-88088790D01*
X74264257Y-88041171D01*
X74216638Y-87945933D01*
X74121400Y-87898314D01*
X73978542Y-87898314D01*
X73883304Y-87945933D01*
X73502352Y-87898314D02*
X73311876Y-88564980D01*
X73121400Y-88088790D01*
X72930923Y-88564980D01*
X72740447Y-87898314D01*
X72359495Y-88184028D02*
X71597590Y-88184028D01*
X71121400Y-88564980D02*
X71121400Y-87564980D01*
X71121400Y-87945933D02*
X71026161Y-87898314D01*
X70835685Y-87898314D01*
X70740447Y-87945933D01*
X70692828Y-87993552D01*
X70645209Y-88088790D01*
X70645209Y-88374504D01*
X70692828Y-88469742D01*
X70740447Y-88517361D01*
X70835685Y-88564980D01*
X71026161Y-88564980D01*
X71121400Y-88517361D01*
X69788066Y-88564980D02*
X69788066Y-88041171D01*
X69835685Y-87945933D01*
X69930923Y-87898314D01*
X70121400Y-87898314D01*
X70216638Y-87945933D01*
X69788066Y-88517361D02*
X69883304Y-88564980D01*
X70121400Y-88564980D01*
X70216638Y-88517361D01*
X70264257Y-88422123D01*
X70264257Y-88326885D01*
X70216638Y-88231647D01*
X70121400Y-88184028D01*
X69883304Y-88184028D01*
X69788066Y-88136409D01*
X69454733Y-87898314D02*
X69073780Y-87898314D01*
X69311876Y-87564980D02*
X69311876Y-88422123D01*
X69264257Y-88517361D01*
X69169019Y-88564980D01*
X69073780Y-88564980D01*
X68883304Y-87898314D02*
X68502352Y-87898314D01*
X68740447Y-87564980D02*
X68740447Y-88422123D01*
X68692828Y-88517361D01*
X68597590Y-88564980D01*
X68502352Y-88564980D01*
X68169019Y-88184028D02*
X67407114Y-88184028D01*
X66930923Y-88564980D02*
X66930923Y-87898314D01*
X66930923Y-88088790D02*
X66883304Y-87993552D01*
X66835685Y-87945933D01*
X66740447Y-87898314D01*
X66645209Y-87898314D01*
X65930923Y-88517361D02*
X66026161Y-88564980D01*
X66216638Y-88564980D01*
X66311876Y-88517361D01*
X66359495Y-88422123D01*
X66359495Y-88041171D01*
X66311876Y-87945933D01*
X66216638Y-87898314D01*
X66026161Y-87898314D01*
X65930923Y-87945933D01*
X65883304Y-88041171D01*
X65883304Y-88136409D01*
X66359495Y-88231647D01*
X65026161Y-87898314D02*
X65026161Y-88707838D01*
X65073780Y-88803076D01*
X65121400Y-88850695D01*
X65216638Y-88898314D01*
X65359495Y-88898314D01*
X65454733Y-88850695D01*
X65026161Y-88517361D02*
X65121400Y-88564980D01*
X65311876Y-88564980D01*
X65407114Y-88517361D01*
X65454733Y-88469742D01*
X65502352Y-88374504D01*
X65502352Y-88088790D01*
X65454733Y-87993552D01*
X65407114Y-87945933D01*
X65311876Y-87898314D01*
X65121400Y-87898314D01*
X65026161Y-87945933D01*
G04 #@! TO.C,sw-batt-norm*
X74954733Y-94689561D02*
X74859495Y-94737180D01*
X74669019Y-94737180D01*
X74573780Y-94689561D01*
X74526161Y-94594323D01*
X74526161Y-94546704D01*
X74573780Y-94451466D01*
X74669019Y-94403847D01*
X74811876Y-94403847D01*
X74907114Y-94356228D01*
X74954733Y-94260990D01*
X74954733Y-94213371D01*
X74907114Y-94118133D01*
X74811876Y-94070514D01*
X74669019Y-94070514D01*
X74573780Y-94118133D01*
X74192828Y-94070514D02*
X74002352Y-94737180D01*
X73811876Y-94260990D01*
X73621400Y-94737180D01*
X73430923Y-94070514D01*
X73049971Y-94356228D02*
X72288066Y-94356228D01*
X71811876Y-94737180D02*
X71811876Y-93737180D01*
X71811876Y-94118133D02*
X71716638Y-94070514D01*
X71526161Y-94070514D01*
X71430923Y-94118133D01*
X71383304Y-94165752D01*
X71335685Y-94260990D01*
X71335685Y-94546704D01*
X71383304Y-94641942D01*
X71430923Y-94689561D01*
X71526161Y-94737180D01*
X71716638Y-94737180D01*
X71811876Y-94689561D01*
X70478542Y-94737180D02*
X70478542Y-94213371D01*
X70526161Y-94118133D01*
X70621400Y-94070514D01*
X70811876Y-94070514D01*
X70907114Y-94118133D01*
X70478542Y-94689561D02*
X70573780Y-94737180D01*
X70811876Y-94737180D01*
X70907114Y-94689561D01*
X70954733Y-94594323D01*
X70954733Y-94499085D01*
X70907114Y-94403847D01*
X70811876Y-94356228D01*
X70573780Y-94356228D01*
X70478542Y-94308609D01*
X70145209Y-94070514D02*
X69764257Y-94070514D01*
X70002352Y-93737180D02*
X70002352Y-94594323D01*
X69954733Y-94689561D01*
X69859495Y-94737180D01*
X69764257Y-94737180D01*
X69573780Y-94070514D02*
X69192828Y-94070514D01*
X69430923Y-93737180D02*
X69430923Y-94594323D01*
X69383304Y-94689561D01*
X69288066Y-94737180D01*
X69192828Y-94737180D01*
X68859495Y-94356228D02*
X68097590Y-94356228D01*
X67621400Y-94070514D02*
X67621400Y-94737180D01*
X67621400Y-94165752D02*
X67573780Y-94118133D01*
X67478542Y-94070514D01*
X67335685Y-94070514D01*
X67240447Y-94118133D01*
X67192828Y-94213371D01*
X67192828Y-94737180D01*
X66573780Y-94737180D02*
X66669019Y-94689561D01*
X66716638Y-94641942D01*
X66764257Y-94546704D01*
X66764257Y-94260990D01*
X66716638Y-94165752D01*
X66669019Y-94118133D01*
X66573780Y-94070514D01*
X66430923Y-94070514D01*
X66335685Y-94118133D01*
X66288066Y-94165752D01*
X66240447Y-94260990D01*
X66240447Y-94546704D01*
X66288066Y-94641942D01*
X66335685Y-94689561D01*
X66430923Y-94737180D01*
X66573780Y-94737180D01*
X65811876Y-94737180D02*
X65811876Y-94070514D01*
X65811876Y-94260990D02*
X65764257Y-94165752D01*
X65716638Y-94118133D01*
X65621400Y-94070514D01*
X65526161Y-94070514D01*
X65192828Y-94737180D02*
X65192828Y-94070514D01*
X65192828Y-94165752D02*
X65145209Y-94118133D01*
X65049971Y-94070514D01*
X64907114Y-94070514D01*
X64811876Y-94118133D01*
X64764257Y-94213371D01*
X64764257Y-94737180D01*
X64764257Y-94213371D02*
X64716638Y-94118133D01*
X64621400Y-94070514D01*
X64478542Y-94070514D01*
X64383304Y-94118133D01*
X64335685Y-94213371D01*
X64335685Y-94737180D01*
G04 #@! TO.C,sw-zdroj*
X72835685Y-100836361D02*
X72740447Y-100883980D01*
X72549971Y-100883980D01*
X72454733Y-100836361D01*
X72407114Y-100741123D01*
X72407114Y-100693504D01*
X72454733Y-100598266D01*
X72549971Y-100550647D01*
X72692828Y-100550647D01*
X72788066Y-100503028D01*
X72835685Y-100407790D01*
X72835685Y-100360171D01*
X72788066Y-100264933D01*
X72692828Y-100217314D01*
X72549971Y-100217314D01*
X72454733Y-100264933D01*
X72073780Y-100217314D02*
X71883304Y-100883980D01*
X71692828Y-100407790D01*
X71502352Y-100883980D01*
X71311876Y-100217314D01*
X70930923Y-100503028D02*
X70169019Y-100503028D01*
X69788066Y-100217314D02*
X69264257Y-100217314D01*
X69788066Y-100883980D01*
X69264257Y-100883980D01*
X68454733Y-100883980D02*
X68454733Y-99883980D01*
X68454733Y-100836361D02*
X68549971Y-100883980D01*
X68740447Y-100883980D01*
X68835685Y-100836361D01*
X68883304Y-100788742D01*
X68930923Y-100693504D01*
X68930923Y-100407790D01*
X68883304Y-100312552D01*
X68835685Y-100264933D01*
X68740447Y-100217314D01*
X68549971Y-100217314D01*
X68454733Y-100264933D01*
X67978542Y-100883980D02*
X67978542Y-100217314D01*
X67978542Y-100407790D02*
X67930923Y-100312552D01*
X67883304Y-100264933D01*
X67788066Y-100217314D01*
X67692828Y-100217314D01*
X67216638Y-100883980D02*
X67311876Y-100836361D01*
X67359495Y-100788742D01*
X67407114Y-100693504D01*
X67407114Y-100407790D01*
X67359495Y-100312552D01*
X67311876Y-100264933D01*
X67216638Y-100217314D01*
X67073780Y-100217314D01*
X66978542Y-100264933D01*
X66930923Y-100312552D01*
X66883304Y-100407790D01*
X66883304Y-100693504D01*
X66930923Y-100788742D01*
X66978542Y-100836361D01*
X67073780Y-100883980D01*
X67216638Y-100883980D01*
X66454733Y-100217314D02*
X66454733Y-101074457D01*
X66502352Y-101169695D01*
X66597590Y-101217314D01*
X66645209Y-101217314D01*
X66454733Y-99883980D02*
X66502352Y-99931600D01*
X66454733Y-99979219D01*
X66407114Y-99931600D01*
X66454733Y-99883980D01*
X66454733Y-99979219D01*
G04 #@! TO.C,sw-usb*
X72288066Y-106957761D02*
X72192828Y-107005380D01*
X72002352Y-107005380D01*
X71907114Y-106957761D01*
X71859495Y-106862523D01*
X71859495Y-106814904D01*
X71907114Y-106719666D01*
X72002352Y-106672047D01*
X72145209Y-106672047D01*
X72240447Y-106624428D01*
X72288066Y-106529190D01*
X72288066Y-106481571D01*
X72240447Y-106386333D01*
X72145209Y-106338714D01*
X72002352Y-106338714D01*
X71907114Y-106386333D01*
X71526161Y-106338714D02*
X71335685Y-107005380D01*
X71145209Y-106529190D01*
X70954733Y-107005380D01*
X70764257Y-106338714D01*
X70383304Y-106624428D02*
X69621400Y-106624428D01*
X68716638Y-106338714D02*
X68716638Y-107005380D01*
X69145209Y-106338714D02*
X69145209Y-106862523D01*
X69097590Y-106957761D01*
X69002352Y-107005380D01*
X68859495Y-107005380D01*
X68764257Y-106957761D01*
X68716638Y-106910142D01*
X68288066Y-106957761D02*
X68192828Y-107005380D01*
X68002352Y-107005380D01*
X67907114Y-106957761D01*
X67859495Y-106862523D01*
X67859495Y-106814904D01*
X67907114Y-106719666D01*
X68002352Y-106672047D01*
X68145209Y-106672047D01*
X68240447Y-106624428D01*
X68288066Y-106529190D01*
X68288066Y-106481571D01*
X68240447Y-106386333D01*
X68145209Y-106338714D01*
X68002352Y-106338714D01*
X67907114Y-106386333D01*
X67430923Y-107005380D02*
X67430923Y-106005380D01*
X67430923Y-106386333D02*
X67335685Y-106338714D01*
X67145209Y-106338714D01*
X67049971Y-106386333D01*
X67002352Y-106433952D01*
X66954733Y-106529190D01*
X66954733Y-106814904D01*
X67002352Y-106910142D01*
X67049971Y-106957761D01*
X67145209Y-107005380D01*
X67335685Y-107005380D01*
X67430923Y-106957761D01*
G04 #@! TO.C,C4*
X91662866Y-47298942D02*
X91710485Y-47346561D01*
X91853342Y-47394180D01*
X91948580Y-47394180D01*
X92091438Y-47346561D01*
X92186676Y-47251323D01*
X92234295Y-47156085D01*
X92281914Y-46965609D01*
X92281914Y-46822752D01*
X92234295Y-46632276D01*
X92186676Y-46537038D01*
X92091438Y-46441800D01*
X91948580Y-46394180D01*
X91853342Y-46394180D01*
X91710485Y-46441800D01*
X91662866Y-46489419D01*
X90805723Y-46727514D02*
X90805723Y-47394180D01*
X91043819Y-46346561D02*
X91281914Y-47060847D01*
X90662866Y-47060847D01*
G04 #@! TO.C,D2*
X97385095Y-55798980D02*
X97385095Y-54798980D01*
X97147000Y-54798980D01*
X97004142Y-54846600D01*
X96908904Y-54941838D01*
X96861285Y-55037076D01*
X96813666Y-55227552D01*
X96813666Y-55370409D01*
X96861285Y-55560885D01*
X96908904Y-55656123D01*
X97004142Y-55751361D01*
X97147000Y-55798980D01*
X97385095Y-55798980D01*
X96432714Y-54894219D02*
X96385095Y-54846600D01*
X96289857Y-54798980D01*
X96051761Y-54798980D01*
X95956523Y-54846600D01*
X95908904Y-54894219D01*
X95861285Y-54989457D01*
X95861285Y-55084695D01*
X95908904Y-55227552D01*
X96480333Y-55798980D01*
X95861285Y-55798980D01*
G04 #@! TO.C,J13*
X91004923Y-55916580D02*
X91004923Y-56630866D01*
X91052542Y-56773723D01*
X91147780Y-56868961D01*
X91290638Y-56916580D01*
X91385876Y-56916580D01*
X90004923Y-56916580D02*
X90576352Y-56916580D01*
X90290638Y-56916580D02*
X90290638Y-55916580D01*
X90385876Y-56059438D01*
X90481114Y-56154676D01*
X90576352Y-56202295D01*
X89671590Y-55916580D02*
X89052542Y-55916580D01*
X89385876Y-56297533D01*
X89243019Y-56297533D01*
X89147780Y-56345152D01*
X89100161Y-56392771D01*
X89052542Y-56488009D01*
X89052542Y-56726104D01*
X89100161Y-56821342D01*
X89147780Y-56868961D01*
X89243019Y-56916580D01*
X89528733Y-56916580D01*
X89623971Y-56868961D01*
X89671590Y-56821342D01*
G04 #@! TO.C,L1*
X94914466Y-40564180D02*
X95390657Y-40564180D01*
X95390657Y-39564180D01*
X94057323Y-40564180D02*
X94628752Y-40564180D01*
X94343038Y-40564180D02*
X94343038Y-39564180D01*
X94438276Y-39707038D01*
X94533514Y-39802276D01*
X94628752Y-39849895D01*
G04 #@! TD*
M02*
