M48
;DRILL file {KiCad (6.0.0-rc1-dev-637-g704615721)} date 10/01/18 23:53:47
;FORMAT={-:-/ absolute / inch / decimal}
FMAT,2
INCH
T1C0.0138
T2C0.0276
T3C0.0300
T4C0.0315
T5C0.0394
T6C0.0512
T7C0.0787
T8C0.1063
%
G90
G05
M72
T2
X5.2215Y-1.604
X5.3215Y-1.704
X5.4215Y-1.604
T3
X3.554Y-4.37
X3.554Y-4.535
X3.554Y-4.77
X4.614Y-4.415
X4.614Y-4.605
X4.614Y-4.755
X4.614Y-4.955
X2.4725Y-1.9175
X2.4725Y-2.635
X3.0175Y-1.9175
X3.0175Y-2.635
T4
X3.179Y-1.5406
X3.179Y-1.639
T5
X5.479Y-2.785
X5.579Y-2.785
X5.679Y-2.785
X5.3428Y-2.0038
X5.8153Y-2.0038
X5.634Y-4.214
X5.634Y-4.314
X5.479Y-3.0515
X5.579Y-3.0515
X5.679Y-3.0515
X2.821Y-4.575
X2.921Y-4.575
X3.021Y-4.575
X3.121Y-4.575
X3.221Y-4.575
X2.853Y-1.533
X2.953Y-1.533
X5.414Y-3.6015
X5.514Y-3.6015
X5.479Y-3.309
X5.579Y-3.309
X5.679Y-3.309
T6
X5.3428Y-2.4841
X5.581Y-1.927
X5.8172Y-2.4861
T7
X5.893Y-3.697
X5.893Y-3.897
X4.9835Y-4.7385
X5.341Y-4.7385
X5.891Y-4.157
X5.891Y-4.357
T8
X4.906Y-4.8935
X5.416Y-4.8935
T1
G00X2.6094Y-3.405
M15
G01X2.6626Y-3.405
M16
G05
G00X2.6094Y-4.131
M15
G01X2.6626Y-4.131
M16
G05
G00X2.7164Y-4.131
M15
G01X2.7696Y-4.131
M16
G05
G00X2.8234Y-4.131
M15
G01X2.8766Y-4.131
M16
G05
G00X2.6094Y-3.163
M15
G01X2.6626Y-3.163
M16
G05
G00X2.7164Y-3.163
M15
G01X2.7696Y-3.163
M16
G05
G00X2.8234Y-3.163
M15
G01X2.8766Y-3.163
M16
G05
G00X2.6094Y-3.889
M15
G01X2.6626Y-3.889
M16
G05
G00X2.7164Y-3.889
M15
G01X2.7696Y-3.889
M16
G05
G00X2.8234Y-3.889
M15
G01X2.8766Y-3.889
M16
G05
G00X2.6094Y-2.921
M15
G01X2.6626Y-2.921
M16
G05
G00X2.7164Y-2.921
M15
G01X2.7696Y-2.921
M16
G05
G00X2.8234Y-2.921
M15
G01X2.8766Y-2.921
M16
G05
G00X2.6094Y-3.647
M15
G01X2.6626Y-3.647
M16
G05
G00X2.7164Y-3.647
M15
G01X2.7696Y-3.647
M16
G05
G00X2.8234Y-3.647
M15
G01X2.8766Y-3.647
M16
G05
G00X2.7164Y-3.405
M15
G01X2.7696Y-3.405
M16
G05
G00X2.8234Y-3.405
M15
G01X2.8766Y-3.405
M16
G05
T0
M30
