G04 #@! TF.FileFunction,Legend,Top*
%FSLAX46Y46*%
G04 Gerber Fmt 4.6, Leading zero omitted, Abs format (unit mm)*
G04 Created by KiCad (PCBNEW 4.0.7) date 11/11/19 23:51:16*
%MOMM*%
%LPD*%
G01*
G04 APERTURE LIST*
%ADD10C,0.100000*%
%ADD11C,0.200000*%
%ADD12C,0.400000*%
%ADD13C,0.750000*%
%ADD14C,0.300000*%
%ADD15C,0.150000*%
G04 APERTURE END LIST*
D10*
D11*
X176371286Y-44918381D02*
X176942715Y-44918381D01*
X176657000Y-45918381D02*
X176657000Y-44918381D01*
X178955700Y-43980100D02*
G75*
G03X178955700Y-43980100I-2286000J0D01*
G01*
X180225700Y-46189900D02*
G75*
G03X180225700Y-46189900I-2286000J0D01*
G01*
X177685700Y-46189900D02*
G75*
G03X177685700Y-46189900I-2286000J0D01*
G01*
D12*
X183484666Y-44243762D02*
X184627523Y-44243762D01*
X184056095Y-46243762D02*
X184056095Y-44243762D01*
X186437048Y-46243762D02*
X185770381Y-45291381D01*
X185294190Y-46243762D02*
X185294190Y-44243762D01*
X186056095Y-44243762D01*
X186246571Y-44339000D01*
X186341810Y-44434238D01*
X186437048Y-44624714D01*
X186437048Y-44910429D01*
X186341810Y-45100905D01*
X186246571Y-45196143D01*
X186056095Y-45291381D01*
X185294190Y-45291381D01*
X187675143Y-44243762D02*
X188056095Y-44243762D01*
X188246571Y-44339000D01*
X188437048Y-44529476D01*
X188532286Y-44910429D01*
X188532286Y-45577095D01*
X188437048Y-45958048D01*
X188246571Y-46148524D01*
X188056095Y-46243762D01*
X187675143Y-46243762D01*
X187484667Y-46148524D01*
X187294190Y-45958048D01*
X187198952Y-45577095D01*
X187198952Y-44910429D01*
X187294190Y-44529476D01*
X187484667Y-44339000D01*
X187675143Y-44243762D01*
X189389428Y-46243762D02*
X189389428Y-44243762D01*
X190532286Y-46243762D01*
X190532286Y-44243762D01*
X191484666Y-46243762D02*
X191484666Y-44243762D01*
X193579905Y-46053286D02*
X193484667Y-46148524D01*
X193198952Y-46243762D01*
X193008476Y-46243762D01*
X192722762Y-46148524D01*
X192532286Y-45958048D01*
X192437047Y-45767571D01*
X192341809Y-45386619D01*
X192341809Y-45100905D01*
X192437047Y-44719952D01*
X192532286Y-44529476D01*
X192722762Y-44339000D01*
X193008476Y-44243762D01*
X193198952Y-44243762D01*
X193484667Y-44339000D01*
X193579905Y-44434238D01*
X194437047Y-46053286D02*
X194532286Y-46148524D01*
X194437047Y-46243762D01*
X194341809Y-46148524D01*
X194437047Y-46053286D01*
X194437047Y-46243762D01*
X195294190Y-46148524D02*
X195579905Y-46243762D01*
X196056095Y-46243762D01*
X196246571Y-46148524D01*
X196341809Y-46053286D01*
X196437048Y-45862810D01*
X196437048Y-45672333D01*
X196341809Y-45481857D01*
X196246571Y-45386619D01*
X196056095Y-45291381D01*
X195675143Y-45196143D01*
X195484667Y-45100905D01*
X195389428Y-45005667D01*
X195294190Y-44815190D01*
X195294190Y-44624714D01*
X195389428Y-44434238D01*
X195484667Y-44339000D01*
X195675143Y-44243762D01*
X196151333Y-44243762D01*
X196437048Y-44339000D01*
X197294190Y-46243762D02*
X197294190Y-44243762D01*
X198437048Y-46243762D02*
X197579905Y-45100905D01*
X198437048Y-44243762D02*
X197294190Y-45386619D01*
X200818000Y-46243762D02*
X200818000Y-44243762D01*
X201579905Y-44243762D01*
X201770381Y-44339000D01*
X201865620Y-44434238D01*
X201960858Y-44624714D01*
X201960858Y-44910429D01*
X201865620Y-45100905D01*
X201770381Y-45196143D01*
X201579905Y-45291381D01*
X200818000Y-45291381D01*
X202722762Y-46148524D02*
X203008477Y-46243762D01*
X203484667Y-46243762D01*
X203675143Y-46148524D01*
X203770381Y-46053286D01*
X203865620Y-45862810D01*
X203865620Y-45672333D01*
X203770381Y-45481857D01*
X203675143Y-45386619D01*
X203484667Y-45291381D01*
X203103715Y-45196143D01*
X202913239Y-45100905D01*
X202818000Y-45005667D01*
X202722762Y-44815190D01*
X202722762Y-44624714D01*
X202818000Y-44434238D01*
X202913239Y-44339000D01*
X203103715Y-44243762D01*
X203579905Y-44243762D01*
X203865620Y-44339000D01*
X204722762Y-44243762D02*
X204722762Y-45862810D01*
X204818001Y-46053286D01*
X204913239Y-46148524D01*
X205103715Y-46243762D01*
X205484667Y-46243762D01*
X205675143Y-46148524D01*
X205770382Y-46053286D01*
X205865620Y-45862810D01*
X205865620Y-44243762D01*
D13*
X245364143Y-69632486D02*
X247649857Y-69632486D01*
X226568143Y-69835686D02*
X228853857Y-69835686D01*
X227711000Y-70978543D02*
X227711000Y-68692829D01*
D14*
X226877515Y-38294571D02*
X226877515Y-39508857D01*
X226948943Y-39651714D01*
X227020372Y-39723143D01*
X227163229Y-39794571D01*
X227448943Y-39794571D01*
X227591801Y-39723143D01*
X227663229Y-39651714D01*
X227734658Y-39508857D01*
X227734658Y-38294571D01*
X228377515Y-39723143D02*
X228591801Y-39794571D01*
X228948944Y-39794571D01*
X229091801Y-39723143D01*
X229163230Y-39651714D01*
X229234658Y-39508857D01*
X229234658Y-39366000D01*
X229163230Y-39223143D01*
X229091801Y-39151714D01*
X228948944Y-39080286D01*
X228663230Y-39008857D01*
X228520372Y-38937429D01*
X228448944Y-38866000D01*
X228377515Y-38723143D01*
X228377515Y-38580286D01*
X228448944Y-38437429D01*
X228520372Y-38366000D01*
X228663230Y-38294571D01*
X229020372Y-38294571D01*
X229234658Y-38366000D01*
X230377515Y-39008857D02*
X230591801Y-39080286D01*
X230663229Y-39151714D01*
X230734658Y-39294571D01*
X230734658Y-39508857D01*
X230663229Y-39651714D01*
X230591801Y-39723143D01*
X230448943Y-39794571D01*
X229877515Y-39794571D01*
X229877515Y-38294571D01*
X230377515Y-38294571D01*
X230520372Y-38366000D01*
X230591801Y-38437429D01*
X230663229Y-38580286D01*
X230663229Y-38723143D01*
X230591801Y-38866000D01*
X230520372Y-38937429D01*
X230377515Y-39008857D01*
X229877515Y-39008857D01*
X233234658Y-38294571D02*
X232520372Y-38294571D01*
X232448943Y-39008857D01*
X232520372Y-38937429D01*
X232663229Y-38866000D01*
X233020372Y-38866000D01*
X233163229Y-38937429D01*
X233234658Y-39008857D01*
X233306086Y-39151714D01*
X233306086Y-39508857D01*
X233234658Y-39651714D01*
X233163229Y-39723143D01*
X233020372Y-39794571D01*
X232663229Y-39794571D01*
X232520372Y-39723143D01*
X232448943Y-39651714D01*
X233734657Y-38294571D02*
X234234657Y-39794571D01*
X234734657Y-38294571D01*
X236306085Y-38223143D02*
X235020371Y-40151714D01*
X236663229Y-38294571D02*
X237591800Y-38294571D01*
X237091800Y-38866000D01*
X237306086Y-38866000D01*
X237448943Y-38937429D01*
X237520372Y-39008857D01*
X237591800Y-39151714D01*
X237591800Y-39508857D01*
X237520372Y-39651714D01*
X237448943Y-39723143D01*
X237306086Y-39794571D01*
X236877514Y-39794571D01*
X236734657Y-39723143D01*
X236663229Y-39651714D01*
X238163228Y-39366000D02*
X238877514Y-39366000D01*
X238020371Y-39794571D02*
X238520371Y-38294571D01*
X239020371Y-39794571D01*
D11*
X251587000Y-123672600D02*
X251587000Y-124028200D01*
X251587000Y-123672600D02*
X251942600Y-123672600D01*
X162991800Y-123672600D02*
X162788600Y-123672600D01*
X162991800Y-123774200D02*
X162991800Y-123672600D01*
X163398200Y-35077400D02*
X163398200Y-34620200D01*
X162991800Y-35077400D02*
X163398200Y-35077400D01*
X251637800Y-35128200D02*
X251637800Y-34417000D01*
X251637800Y-35128200D02*
X251079000Y-35128200D01*
D15*
X227457666Y-96948762D02*
X228124333Y-98948762D01*
X228791000Y-96948762D01*
X229743381Y-98948762D02*
X229552905Y-98853524D01*
X229457666Y-98758286D01*
X229362428Y-98567810D01*
X229362428Y-97996381D01*
X229457666Y-97805905D01*
X229552905Y-97710667D01*
X229743381Y-97615429D01*
X230029095Y-97615429D01*
X230219571Y-97710667D01*
X230314809Y-97805905D01*
X230410047Y-97996381D01*
X230410047Y-98567810D01*
X230314809Y-98758286D01*
X230219571Y-98853524D01*
X230029095Y-98948762D01*
X229743381Y-98948762D01*
X231552905Y-98948762D02*
X231362429Y-98853524D01*
X231267190Y-98663048D01*
X231267190Y-96948762D01*
X232029095Y-97615429D02*
X232791000Y-97615429D01*
X232314809Y-96948762D02*
X232314809Y-98663048D01*
X232410048Y-98853524D01*
X232600524Y-98948762D01*
X232791000Y-98948762D01*
X234314809Y-98948762D02*
X234314809Y-97901143D01*
X234219571Y-97710667D01*
X234029095Y-97615429D01*
X233648143Y-97615429D01*
X233457666Y-97710667D01*
X234314809Y-98853524D02*
X234124333Y-98948762D01*
X233648143Y-98948762D01*
X233457666Y-98853524D01*
X233362428Y-98663048D01*
X233362428Y-98472571D01*
X233457666Y-98282095D01*
X233648143Y-98186857D01*
X234124333Y-98186857D01*
X234314809Y-98091619D01*
X236124333Y-97615429D02*
X236124333Y-99234476D01*
X236029095Y-99424952D01*
X235933857Y-99520190D01*
X235743381Y-99615429D01*
X235457667Y-99615429D01*
X235267190Y-99520190D01*
X236124333Y-98853524D02*
X235933857Y-98948762D01*
X235552905Y-98948762D01*
X235362429Y-98853524D01*
X235267190Y-98758286D01*
X235171952Y-98567810D01*
X235171952Y-97996381D01*
X235267190Y-97805905D01*
X235362429Y-97710667D01*
X235552905Y-97615429D01*
X235933857Y-97615429D01*
X236124333Y-97710667D01*
X237838619Y-98853524D02*
X237648143Y-98948762D01*
X237267191Y-98948762D01*
X237076714Y-98853524D01*
X236981476Y-98663048D01*
X236981476Y-97901143D01*
X237076714Y-97710667D01*
X237267191Y-97615429D01*
X237648143Y-97615429D01*
X237838619Y-97710667D01*
X237933857Y-97901143D01*
X237933857Y-98091619D01*
X236981476Y-98282095D01*
X177879858Y-98758286D02*
X177784620Y-98853524D01*
X177498905Y-98948762D01*
X177308429Y-98948762D01*
X177022715Y-98853524D01*
X176832239Y-98663048D01*
X176737000Y-98472571D01*
X176641762Y-98091619D01*
X176641762Y-97805905D01*
X176737000Y-97424952D01*
X176832239Y-97234476D01*
X177022715Y-97044000D01*
X177308429Y-96948762D01*
X177498905Y-96948762D01*
X177784620Y-97044000D01*
X177879858Y-97139238D01*
X179594143Y-97615429D02*
X179594143Y-98948762D01*
X178737000Y-97615429D02*
X178737000Y-98663048D01*
X178832239Y-98853524D01*
X179022715Y-98948762D01*
X179308429Y-98948762D01*
X179498905Y-98853524D01*
X179594143Y-98758286D01*
X180546524Y-98948762D02*
X180546524Y-97615429D01*
X180546524Y-97996381D02*
X180641763Y-97805905D01*
X180737001Y-97710667D01*
X180927477Y-97615429D01*
X181117953Y-97615429D01*
X181784619Y-98948762D02*
X181784619Y-97615429D01*
X181784619Y-97996381D02*
X181879858Y-97805905D01*
X181975096Y-97710667D01*
X182165572Y-97615429D01*
X182356048Y-97615429D01*
X183784619Y-98853524D02*
X183594143Y-98948762D01*
X183213191Y-98948762D01*
X183022714Y-98853524D01*
X182927476Y-98663048D01*
X182927476Y-97901143D01*
X183022714Y-97710667D01*
X183213191Y-97615429D01*
X183594143Y-97615429D01*
X183784619Y-97710667D01*
X183879857Y-97901143D01*
X183879857Y-98091619D01*
X182927476Y-98282095D01*
X184737000Y-97615429D02*
X184737000Y-98948762D01*
X184737000Y-97805905D02*
X184832239Y-97710667D01*
X185022715Y-97615429D01*
X185308429Y-97615429D01*
X185498905Y-97710667D01*
X185594143Y-97901143D01*
X185594143Y-98948762D01*
X186260810Y-97615429D02*
X187022715Y-97615429D01*
X186546524Y-96948762D02*
X186546524Y-98663048D01*
X186641763Y-98853524D01*
X186832239Y-98948762D01*
X187022715Y-98948762D01*
X162436277Y-35334581D02*
X162436277Y-36048867D01*
X162388657Y-36191724D01*
X162293419Y-36286962D01*
X162150562Y-36334581D01*
X162055324Y-36334581D01*
X163436277Y-36334581D02*
X162864848Y-36334581D01*
X163150562Y-36334581D02*
X163150562Y-35334581D01*
X163055324Y-35477438D01*
X162960086Y-35572676D01*
X162864848Y-35620295D01*
X163817229Y-35429819D02*
X163864848Y-35382200D01*
X163960086Y-35334581D01*
X164198182Y-35334581D01*
X164293420Y-35382200D01*
X164341039Y-35429819D01*
X164388658Y-35525057D01*
X164388658Y-35620295D01*
X164341039Y-35763152D01*
X163769610Y-36334581D01*
X164388658Y-36334581D01*
X250523477Y-123421781D02*
X250523477Y-124136067D01*
X250475857Y-124278924D01*
X250380619Y-124374162D01*
X250237762Y-124421781D01*
X250142524Y-124421781D01*
X251523477Y-124421781D02*
X250952048Y-124421781D01*
X251237762Y-124421781D02*
X251237762Y-123421781D01*
X251142524Y-123564638D01*
X251047286Y-123659876D01*
X250952048Y-123707495D01*
X251856810Y-123421781D02*
X252475858Y-123421781D01*
X252142524Y-123802733D01*
X252285382Y-123802733D01*
X252380620Y-123850352D01*
X252428239Y-123897971D01*
X252475858Y-123993210D01*
X252475858Y-124231305D01*
X252428239Y-124326543D01*
X252380620Y-124374162D01*
X252285382Y-124421781D01*
X251999667Y-124421781D01*
X251904429Y-124374162D01*
X251856810Y-124326543D01*
X250523477Y-35334581D02*
X250523477Y-36048867D01*
X250475857Y-36191724D01*
X250380619Y-36286962D01*
X250237762Y-36334581D01*
X250142524Y-36334581D01*
X251523477Y-36334581D02*
X250952048Y-36334581D01*
X251237762Y-36334581D02*
X251237762Y-35334581D01*
X251142524Y-35477438D01*
X251047286Y-35572676D01*
X250952048Y-35620295D01*
X252380620Y-35667914D02*
X252380620Y-36334581D01*
X252142524Y-35286962D02*
X251904429Y-36001248D01*
X252523477Y-36001248D01*
X162436277Y-123421781D02*
X162436277Y-124136067D01*
X162388657Y-124278924D01*
X162293419Y-124374162D01*
X162150562Y-124421781D01*
X162055324Y-124421781D01*
X163436277Y-124421781D02*
X162864848Y-124421781D01*
X163150562Y-124421781D02*
X163150562Y-123421781D01*
X163055324Y-123564638D01*
X162960086Y-123659876D01*
X162864848Y-123707495D01*
X164341039Y-123421781D02*
X163864848Y-123421781D01*
X163817229Y-123897971D01*
X163864848Y-123850352D01*
X163960086Y-123802733D01*
X164198182Y-123802733D01*
X164293420Y-123850352D01*
X164341039Y-123897971D01*
X164388658Y-123993210D01*
X164388658Y-124231305D01*
X164341039Y-124326543D01*
X164293420Y-124374162D01*
X164198182Y-124421781D01*
X163960086Y-124421781D01*
X163864848Y-124374162D01*
X163817229Y-124326543D01*
M02*
