G04 #@! TF.FileFunction,Copper,L2,Bot,Signal*
%FSLAX46Y46*%
G04 Gerber Fmt 4.6, Leading zero omitted, Abs format (unit mm)*
G04 Created by KiCad (PCBNEW 4.0.7) date 11/11/19 23:51:16*
%MOMM*%
%LPD*%
G01*
G04 APERTURE LIST*
%ADD10C,0.100000*%
%ADD11R,5.000000X5.000000*%
%ADD12C,8.000000*%
%ADD13R,4.000000X4.000000*%
%ADD14C,2.200000*%
%ADD15C,6.096000*%
%ADD16R,0.900000X1.700000*%
%ADD17R,1.000000X3.150000*%
%ADD18C,0.250000*%
%ADD19C,1.000000*%
%ADD20C,0.254000*%
G04 APERTURE END LIST*
D10*
D11*
X246507000Y-83896200D03*
D12*
X246507000Y-78816200D03*
X227711000Y-78816200D03*
X181711600Y-111023400D03*
D13*
X177297000Y-110959900D03*
X186118500Y-110959900D03*
D14*
X179197000Y-103530400D03*
X181697000Y-103530400D03*
X184197000Y-103530400D03*
X235251000Y-103530400D03*
X232751000Y-103530400D03*
X230251000Y-103530400D03*
D13*
X237172500Y-110959900D03*
X228351000Y-110959900D03*
D12*
X232765600Y-111023400D03*
D15*
X163245800Y-35382200D03*
X251333000Y-123469400D03*
X251333000Y-35382200D03*
X163245800Y-123469400D03*
D16*
X180287000Y-99695000D03*
X183187000Y-99695000D03*
X234241000Y-98933000D03*
X231341000Y-98933000D03*
D17*
X176123600Y-37022800D03*
X176123600Y-42072800D03*
X178663600Y-37022800D03*
X178663600Y-42072800D03*
X181203600Y-37022800D03*
X181203600Y-42072800D03*
X183743600Y-37022800D03*
X183743600Y-42072800D03*
X186283600Y-37022800D03*
X186283600Y-42072800D03*
X188823600Y-37022800D03*
X188823600Y-42072800D03*
X191363600Y-37022800D03*
X191363600Y-42072800D03*
X193903600Y-37022800D03*
X193903600Y-42072800D03*
X196443600Y-37022800D03*
X196443600Y-42072800D03*
X198983600Y-37022800D03*
X198983600Y-42072800D03*
D11*
X251333000Y-118999000D03*
D18*
X235251000Y-103530400D02*
X235864400Y-103530400D01*
X235864400Y-103530400D02*
X238633000Y-106299000D01*
X176123600Y-58318400D02*
X176123600Y-42072800D01*
X175133000Y-59309000D02*
X176123600Y-58318400D01*
X164973000Y-59309000D02*
X175133000Y-59309000D01*
X162433000Y-61849000D02*
X164973000Y-59309000D01*
X162433000Y-93599000D02*
X162433000Y-61849000D01*
X163703000Y-94869000D02*
X162433000Y-93599000D01*
X210693000Y-94869000D02*
X163703000Y-94869000D01*
X223393000Y-107569000D02*
X210693000Y-94869000D01*
X223393000Y-116459000D02*
X223393000Y-107569000D01*
X224663000Y-117729000D02*
X223393000Y-116459000D01*
X238633000Y-117729000D02*
X224663000Y-117729000D01*
X241173000Y-115189000D02*
X238633000Y-117729000D01*
X241173000Y-107569000D02*
X241173000Y-115189000D01*
X239903000Y-106299000D02*
X241173000Y-107569000D01*
X238633000Y-106299000D02*
X239903000Y-106299000D01*
X235251000Y-103530400D02*
X235251000Y-99943000D01*
X235251000Y-99943000D02*
X234241000Y-98933000D01*
X232751000Y-103530400D02*
X232751000Y-104561000D01*
X232751000Y-104561000D02*
X231013000Y-106299000D01*
X231013000Y-106299000D02*
X224663000Y-106299000D01*
X224663000Y-106299000D02*
X211963000Y-93599000D01*
X211963000Y-93599000D02*
X164973000Y-93599000D01*
X164973000Y-93599000D02*
X163703000Y-92329000D01*
X163703000Y-92329000D02*
X163703000Y-63119000D01*
X163703000Y-63119000D02*
X166243000Y-60579000D01*
X166243000Y-60579000D02*
X177673000Y-60579000D01*
X177673000Y-60579000D02*
X178663600Y-59588400D01*
X178663600Y-59588400D02*
X178663600Y-42072800D01*
X230251000Y-103530400D02*
X230251000Y-100023000D01*
X230251000Y-100023000D02*
X231341000Y-98933000D01*
X230251000Y-103530400D02*
X224434400Y-103530400D01*
X181203600Y-59588400D02*
X181203600Y-42072800D01*
X178943000Y-61849000D02*
X181203600Y-59588400D01*
X166243000Y-61849000D02*
X178943000Y-61849000D01*
X164973000Y-63119000D02*
X166243000Y-61849000D01*
X164973000Y-91059000D02*
X164973000Y-63119000D01*
X166243000Y-92329000D02*
X164973000Y-91059000D01*
X213233000Y-92329000D02*
X166243000Y-92329000D01*
X224434400Y-103530400D02*
X213233000Y-92329000D01*
X246507000Y-78816200D02*
X246507000Y-83896200D01*
D19*
X191363600Y-42072800D02*
X191363600Y-47345600D01*
X227711000Y-65913000D02*
X227711000Y-78816200D01*
X212217000Y-50419000D02*
X227711000Y-65913000D01*
X194437000Y-50419000D02*
X212217000Y-50419000D01*
X191363600Y-47345600D02*
X194437000Y-50419000D01*
D18*
X179197000Y-103530400D02*
X179197000Y-100785000D01*
X179197000Y-100785000D02*
X180287000Y-99695000D01*
X179197000Y-103530400D02*
X159664400Y-103530400D01*
X181203600Y-32359600D02*
X181203600Y-37022800D01*
X180213000Y-31369000D02*
X181203600Y-32359600D01*
X171323000Y-31369000D02*
X180213000Y-31369000D01*
X170053000Y-32639000D02*
X171323000Y-31369000D01*
X170053000Y-37719000D02*
X170053000Y-32639000D01*
X166243000Y-41529000D02*
X170053000Y-37719000D01*
X161163000Y-41529000D02*
X166243000Y-41529000D01*
X158623000Y-44069000D02*
X161163000Y-41529000D01*
X158623000Y-102489000D02*
X158623000Y-44069000D01*
X159664400Y-103530400D02*
X158623000Y-102489000D01*
X183187000Y-99695000D02*
X183187000Y-97589000D01*
X174305200Y-37022800D02*
X176123600Y-37022800D01*
X167767000Y-43561000D02*
X174305200Y-37022800D01*
X162941000Y-43561000D02*
X167767000Y-43561000D01*
X161163000Y-45339000D02*
X162941000Y-43561000D01*
X161163000Y-95631000D02*
X161163000Y-45339000D01*
X162687000Y-97155000D02*
X161163000Y-95631000D01*
X182753000Y-97155000D02*
X162687000Y-97155000D01*
X183187000Y-97589000D02*
X182753000Y-97155000D01*
X184197000Y-103530400D02*
X184197000Y-100705000D01*
X184197000Y-100705000D02*
X183187000Y-99695000D01*
X181697000Y-103530400D02*
X181697000Y-98385000D01*
X178663600Y-32867600D02*
X178663600Y-37022800D01*
X177927000Y-32131000D02*
X178663600Y-32867600D01*
X171577000Y-32131000D02*
X177927000Y-32131000D01*
X170815000Y-32893000D02*
X171577000Y-32131000D01*
X170815000Y-38481000D02*
X170815000Y-32893000D01*
X167005000Y-42291000D02*
X170815000Y-38481000D01*
X161925000Y-42291000D02*
X167005000Y-42291000D01*
X159639000Y-44577000D02*
X161925000Y-42291000D01*
X159639000Y-102235000D02*
X159639000Y-44577000D01*
X160147000Y-102743000D02*
X159639000Y-102235000D01*
X174117000Y-102743000D02*
X160147000Y-102743000D01*
X178689000Y-98171000D02*
X174117000Y-102743000D01*
X181483000Y-98171000D02*
X178689000Y-98171000D01*
X181697000Y-98385000D02*
X181483000Y-98171000D01*
D20*
G36*
X245364000Y-66363689D02*
X236770974Y-73945771D01*
X236740545Y-73985964D01*
X236728000Y-74041000D01*
X236728000Y-89154000D01*
X215392000Y-89154000D01*
X215392000Y-62357000D01*
X215381994Y-62307590D01*
X215353553Y-62265965D01*
X215311159Y-62238685D01*
X215265000Y-62230000D01*
X206756000Y-62230000D01*
X206756000Y-54737000D01*
X206745994Y-54687590D01*
X206717553Y-54645965D01*
X206675159Y-54618685D01*
X206629000Y-54610000D01*
X183134000Y-54610000D01*
X183134000Y-44282800D01*
X183457850Y-44282800D01*
X183616600Y-44124050D01*
X183616600Y-42199800D01*
X183870600Y-42199800D01*
X183870600Y-44124050D01*
X184029350Y-44282800D01*
X184369910Y-44282800D01*
X184603299Y-44186127D01*
X184781927Y-44007498D01*
X184878600Y-43774109D01*
X184878600Y-42358550D01*
X185148600Y-42358550D01*
X185148600Y-43774109D01*
X185245273Y-44007498D01*
X185423901Y-44186127D01*
X185657290Y-44282800D01*
X185997850Y-44282800D01*
X186156600Y-44124050D01*
X186156600Y-42199800D01*
X186410600Y-42199800D01*
X186410600Y-44124050D01*
X186569350Y-44282800D01*
X186909910Y-44282800D01*
X187143299Y-44186127D01*
X187321927Y-44007498D01*
X187418600Y-43774109D01*
X187418600Y-42358550D01*
X187688600Y-42358550D01*
X187688600Y-43774109D01*
X187785273Y-44007498D01*
X187963901Y-44186127D01*
X188197290Y-44282800D01*
X188537850Y-44282800D01*
X188696600Y-44124050D01*
X188696600Y-42199800D01*
X188950600Y-42199800D01*
X188950600Y-44124050D01*
X189109350Y-44282800D01*
X189449910Y-44282800D01*
X189683299Y-44186127D01*
X189861927Y-44007498D01*
X189958600Y-43774109D01*
X189958600Y-42358550D01*
X190228600Y-42358550D01*
X190228600Y-43774109D01*
X190325273Y-44007498D01*
X190503901Y-44186127D01*
X190737290Y-44282800D01*
X191077850Y-44282800D01*
X191236600Y-44124050D01*
X191236600Y-42199800D01*
X191490600Y-42199800D01*
X191490600Y-44124050D01*
X191649350Y-44282800D01*
X191989910Y-44282800D01*
X192223299Y-44186127D01*
X192401927Y-44007498D01*
X192498600Y-43774109D01*
X192498600Y-42358550D01*
X192768600Y-42358550D01*
X192768600Y-43774109D01*
X192865273Y-44007498D01*
X193043901Y-44186127D01*
X193277290Y-44282800D01*
X193617850Y-44282800D01*
X193776600Y-44124050D01*
X193776600Y-42199800D01*
X194030600Y-42199800D01*
X194030600Y-44124050D01*
X194189350Y-44282800D01*
X194529910Y-44282800D01*
X194763299Y-44186127D01*
X194941927Y-44007498D01*
X195038600Y-43774109D01*
X195038600Y-42358550D01*
X194879850Y-42199800D01*
X194030600Y-42199800D01*
X193776600Y-42199800D01*
X192927350Y-42199800D01*
X192768600Y-42358550D01*
X192498600Y-42358550D01*
X192339850Y-42199800D01*
X191490600Y-42199800D01*
X191236600Y-42199800D01*
X190387350Y-42199800D01*
X190228600Y-42358550D01*
X189958600Y-42358550D01*
X189799850Y-42199800D01*
X188950600Y-42199800D01*
X188696600Y-42199800D01*
X187847350Y-42199800D01*
X187688600Y-42358550D01*
X187418600Y-42358550D01*
X187259850Y-42199800D01*
X186410600Y-42199800D01*
X186156600Y-42199800D01*
X185307350Y-42199800D01*
X185148600Y-42358550D01*
X184878600Y-42358550D01*
X184719850Y-42199800D01*
X183870600Y-42199800D01*
X183616600Y-42199800D01*
X183596600Y-42199800D01*
X183596600Y-41945800D01*
X183616600Y-41945800D01*
X183616600Y-40021550D01*
X183870600Y-40021550D01*
X183870600Y-41945800D01*
X184719850Y-41945800D01*
X184878600Y-41787050D01*
X184878600Y-40371491D01*
X185148600Y-40371491D01*
X185148600Y-41787050D01*
X185307350Y-41945800D01*
X186156600Y-41945800D01*
X186156600Y-40021550D01*
X186410600Y-40021550D01*
X186410600Y-41945800D01*
X187259850Y-41945800D01*
X187418600Y-41787050D01*
X187418600Y-40371491D01*
X187688600Y-40371491D01*
X187688600Y-41787050D01*
X187847350Y-41945800D01*
X188696600Y-41945800D01*
X188696600Y-40021550D01*
X188950600Y-40021550D01*
X188950600Y-41945800D01*
X189799850Y-41945800D01*
X189958600Y-41787050D01*
X189958600Y-40371491D01*
X190228600Y-40371491D01*
X190228600Y-41787050D01*
X190387350Y-41945800D01*
X191236600Y-41945800D01*
X191236600Y-40021550D01*
X191490600Y-40021550D01*
X191490600Y-41945800D01*
X192339850Y-41945800D01*
X192498600Y-41787050D01*
X192498600Y-40371491D01*
X192768600Y-40371491D01*
X192768600Y-41787050D01*
X192927350Y-41945800D01*
X193776600Y-41945800D01*
X193776600Y-40021550D01*
X194030600Y-40021550D01*
X194030600Y-41945800D01*
X194879850Y-41945800D01*
X195038600Y-41787050D01*
X195038600Y-40497800D01*
X195296160Y-40497800D01*
X195296160Y-43647800D01*
X195340438Y-43883117D01*
X195479510Y-44099241D01*
X195691710Y-44244231D01*
X195943600Y-44295240D01*
X196943600Y-44295240D01*
X197178917Y-44250962D01*
X197395041Y-44111890D01*
X197540031Y-43899690D01*
X197591040Y-43647800D01*
X197591040Y-40497800D01*
X197836160Y-40497800D01*
X197836160Y-43647800D01*
X197880438Y-43883117D01*
X198019510Y-44099241D01*
X198231710Y-44244231D01*
X198483600Y-44295240D01*
X199483600Y-44295240D01*
X199718917Y-44250962D01*
X199935041Y-44111890D01*
X200080031Y-43899690D01*
X200131040Y-43647800D01*
X200131040Y-41732200D01*
X224461000Y-41732200D01*
X224461000Y-58242200D01*
X224515046Y-58513905D01*
X224668954Y-58744246D01*
X224899295Y-58898154D01*
X225171000Y-58952200D01*
X240665000Y-58952200D01*
X240936705Y-58898154D01*
X241167046Y-58744246D01*
X241320954Y-58513905D01*
X241375000Y-58242200D01*
X241372474Y-58229500D01*
X241375000Y-58216800D01*
X241375000Y-41732200D01*
X241320954Y-41460495D01*
X241167046Y-41230154D01*
X240936705Y-41076246D01*
X240665000Y-41022200D01*
X225171000Y-41022200D01*
X224899295Y-41076246D01*
X224668954Y-41230154D01*
X224515046Y-41460495D01*
X224461000Y-41732200D01*
X200131040Y-41732200D01*
X200131040Y-40497800D01*
X200086762Y-40262483D01*
X199947690Y-40046359D01*
X199735490Y-39901369D01*
X199483600Y-39850360D01*
X198483600Y-39850360D01*
X198248283Y-39894638D01*
X198032159Y-40033710D01*
X197887169Y-40245910D01*
X197836160Y-40497800D01*
X197591040Y-40497800D01*
X197546762Y-40262483D01*
X197407690Y-40046359D01*
X197195490Y-39901369D01*
X196943600Y-39850360D01*
X195943600Y-39850360D01*
X195708283Y-39894638D01*
X195492159Y-40033710D01*
X195347169Y-40245910D01*
X195296160Y-40497800D01*
X195038600Y-40497800D01*
X195038600Y-40371491D01*
X194941927Y-40138102D01*
X194763299Y-39959473D01*
X194529910Y-39862800D01*
X194189350Y-39862800D01*
X194030600Y-40021550D01*
X193776600Y-40021550D01*
X193617850Y-39862800D01*
X193277290Y-39862800D01*
X193043901Y-39959473D01*
X192865273Y-40138102D01*
X192768600Y-40371491D01*
X192498600Y-40371491D01*
X192401927Y-40138102D01*
X192223299Y-39959473D01*
X191989910Y-39862800D01*
X191649350Y-39862800D01*
X191490600Y-40021550D01*
X191236600Y-40021550D01*
X191077850Y-39862800D01*
X190737290Y-39862800D01*
X190503901Y-39959473D01*
X190325273Y-40138102D01*
X190228600Y-40371491D01*
X189958600Y-40371491D01*
X189861927Y-40138102D01*
X189683299Y-39959473D01*
X189449910Y-39862800D01*
X189109350Y-39862800D01*
X188950600Y-40021550D01*
X188696600Y-40021550D01*
X188537850Y-39862800D01*
X188197290Y-39862800D01*
X187963901Y-39959473D01*
X187785273Y-40138102D01*
X187688600Y-40371491D01*
X187418600Y-40371491D01*
X187321927Y-40138102D01*
X187143299Y-39959473D01*
X186909910Y-39862800D01*
X186569350Y-39862800D01*
X186410600Y-40021550D01*
X186156600Y-40021550D01*
X185997850Y-39862800D01*
X185657290Y-39862800D01*
X185423901Y-39959473D01*
X185245273Y-40138102D01*
X185148600Y-40371491D01*
X184878600Y-40371491D01*
X184781927Y-40138102D01*
X184603299Y-39959473D01*
X184369910Y-39862800D01*
X184029350Y-39862800D01*
X183870600Y-40021550D01*
X183616600Y-40021550D01*
X183457850Y-39862800D01*
X183134000Y-39862800D01*
X183134000Y-39232800D01*
X183457850Y-39232800D01*
X183616600Y-39074050D01*
X183616600Y-37149800D01*
X183870600Y-37149800D01*
X183870600Y-39074050D01*
X184029350Y-39232800D01*
X184369910Y-39232800D01*
X184603299Y-39136127D01*
X184781927Y-38957498D01*
X184878600Y-38724109D01*
X184878600Y-37308550D01*
X185148600Y-37308550D01*
X185148600Y-38724109D01*
X185245273Y-38957498D01*
X185423901Y-39136127D01*
X185657290Y-39232800D01*
X185997850Y-39232800D01*
X186156600Y-39074050D01*
X186156600Y-37149800D01*
X186410600Y-37149800D01*
X186410600Y-39074050D01*
X186569350Y-39232800D01*
X186909910Y-39232800D01*
X187143299Y-39136127D01*
X187321927Y-38957498D01*
X187418600Y-38724109D01*
X187418600Y-37308550D01*
X187688600Y-37308550D01*
X187688600Y-38724109D01*
X187785273Y-38957498D01*
X187963901Y-39136127D01*
X188197290Y-39232800D01*
X188537850Y-39232800D01*
X188696600Y-39074050D01*
X188696600Y-37149800D01*
X188950600Y-37149800D01*
X188950600Y-39074050D01*
X189109350Y-39232800D01*
X189449910Y-39232800D01*
X189683299Y-39136127D01*
X189861927Y-38957498D01*
X189958600Y-38724109D01*
X189958600Y-37308550D01*
X190228600Y-37308550D01*
X190228600Y-38724109D01*
X190325273Y-38957498D01*
X190503901Y-39136127D01*
X190737290Y-39232800D01*
X191077850Y-39232800D01*
X191236600Y-39074050D01*
X191236600Y-37149800D01*
X191490600Y-37149800D01*
X191490600Y-39074050D01*
X191649350Y-39232800D01*
X191989910Y-39232800D01*
X192223299Y-39136127D01*
X192401927Y-38957498D01*
X192498600Y-38724109D01*
X192498600Y-37308550D01*
X192768600Y-37308550D01*
X192768600Y-38724109D01*
X192865273Y-38957498D01*
X193043901Y-39136127D01*
X193277290Y-39232800D01*
X193617850Y-39232800D01*
X193776600Y-39074050D01*
X193776600Y-37149800D01*
X194030600Y-37149800D01*
X194030600Y-39074050D01*
X194189350Y-39232800D01*
X194529910Y-39232800D01*
X194763299Y-39136127D01*
X194941927Y-38957498D01*
X195038600Y-38724109D01*
X195038600Y-37308550D01*
X194879850Y-37149800D01*
X194030600Y-37149800D01*
X193776600Y-37149800D01*
X192927350Y-37149800D01*
X192768600Y-37308550D01*
X192498600Y-37308550D01*
X192339850Y-37149800D01*
X191490600Y-37149800D01*
X191236600Y-37149800D01*
X190387350Y-37149800D01*
X190228600Y-37308550D01*
X189958600Y-37308550D01*
X189799850Y-37149800D01*
X188950600Y-37149800D01*
X188696600Y-37149800D01*
X187847350Y-37149800D01*
X187688600Y-37308550D01*
X187418600Y-37308550D01*
X187259850Y-37149800D01*
X186410600Y-37149800D01*
X186156600Y-37149800D01*
X185307350Y-37149800D01*
X185148600Y-37308550D01*
X184878600Y-37308550D01*
X184719850Y-37149800D01*
X183870600Y-37149800D01*
X183616600Y-37149800D01*
X183596600Y-37149800D01*
X183596600Y-36895800D01*
X183616600Y-36895800D01*
X183616600Y-34971550D01*
X183870600Y-34971550D01*
X183870600Y-36895800D01*
X184719850Y-36895800D01*
X184878600Y-36737050D01*
X184878600Y-35321491D01*
X185148600Y-35321491D01*
X185148600Y-36737050D01*
X185307350Y-36895800D01*
X186156600Y-36895800D01*
X186156600Y-34971550D01*
X186410600Y-34971550D01*
X186410600Y-36895800D01*
X187259850Y-36895800D01*
X187418600Y-36737050D01*
X187418600Y-35321491D01*
X187688600Y-35321491D01*
X187688600Y-36737050D01*
X187847350Y-36895800D01*
X188696600Y-36895800D01*
X188696600Y-34971550D01*
X188950600Y-34971550D01*
X188950600Y-36895800D01*
X189799850Y-36895800D01*
X189958600Y-36737050D01*
X189958600Y-35321491D01*
X190228600Y-35321491D01*
X190228600Y-36737050D01*
X190387350Y-36895800D01*
X191236600Y-36895800D01*
X191236600Y-34971550D01*
X191490600Y-34971550D01*
X191490600Y-36895800D01*
X192339850Y-36895800D01*
X192498600Y-36737050D01*
X192498600Y-35321491D01*
X192768600Y-35321491D01*
X192768600Y-36737050D01*
X192927350Y-36895800D01*
X193776600Y-36895800D01*
X193776600Y-34971550D01*
X194030600Y-34971550D01*
X194030600Y-36895800D01*
X194879850Y-36895800D01*
X195038600Y-36737050D01*
X195038600Y-35447800D01*
X195296160Y-35447800D01*
X195296160Y-38597800D01*
X195340438Y-38833117D01*
X195479510Y-39049241D01*
X195691710Y-39194231D01*
X195943600Y-39245240D01*
X196943600Y-39245240D01*
X197178917Y-39200962D01*
X197395041Y-39061890D01*
X197540031Y-38849690D01*
X197591040Y-38597800D01*
X197591040Y-35447800D01*
X197836160Y-35447800D01*
X197836160Y-38597800D01*
X197880438Y-38833117D01*
X198019510Y-39049241D01*
X198231710Y-39194231D01*
X198483600Y-39245240D01*
X199483600Y-39245240D01*
X199718917Y-39200962D01*
X199935041Y-39061890D01*
X200080031Y-38849690D01*
X200131040Y-38597800D01*
X200131040Y-35447800D01*
X200086762Y-35212483D01*
X199947690Y-34996359D01*
X199735490Y-34851369D01*
X199483600Y-34800360D01*
X198483600Y-34800360D01*
X198248283Y-34844638D01*
X198032159Y-34983710D01*
X197887169Y-35195910D01*
X197836160Y-35447800D01*
X197591040Y-35447800D01*
X197546762Y-35212483D01*
X197407690Y-34996359D01*
X197195490Y-34851369D01*
X196943600Y-34800360D01*
X195943600Y-34800360D01*
X195708283Y-34844638D01*
X195492159Y-34983710D01*
X195347169Y-35195910D01*
X195296160Y-35447800D01*
X195038600Y-35447800D01*
X195038600Y-35321491D01*
X194941927Y-35088102D01*
X194763299Y-34909473D01*
X194529910Y-34812800D01*
X194189350Y-34812800D01*
X194030600Y-34971550D01*
X193776600Y-34971550D01*
X193617850Y-34812800D01*
X193277290Y-34812800D01*
X193043901Y-34909473D01*
X192865273Y-35088102D01*
X192768600Y-35321491D01*
X192498600Y-35321491D01*
X192401927Y-35088102D01*
X192223299Y-34909473D01*
X191989910Y-34812800D01*
X191649350Y-34812800D01*
X191490600Y-34971550D01*
X191236600Y-34971550D01*
X191077850Y-34812800D01*
X190737290Y-34812800D01*
X190503901Y-34909473D01*
X190325273Y-35088102D01*
X190228600Y-35321491D01*
X189958600Y-35321491D01*
X189861927Y-35088102D01*
X189683299Y-34909473D01*
X189449910Y-34812800D01*
X189109350Y-34812800D01*
X188950600Y-34971550D01*
X188696600Y-34971550D01*
X188537850Y-34812800D01*
X188197290Y-34812800D01*
X187963901Y-34909473D01*
X187785273Y-35088102D01*
X187688600Y-35321491D01*
X187418600Y-35321491D01*
X187321927Y-35088102D01*
X187143299Y-34909473D01*
X186909910Y-34812800D01*
X186569350Y-34812800D01*
X186410600Y-34971550D01*
X186156600Y-34971550D01*
X185997850Y-34812800D01*
X185657290Y-34812800D01*
X185423901Y-34909473D01*
X185245273Y-35088102D01*
X185148600Y-35321491D01*
X184878600Y-35321491D01*
X184781927Y-35088102D01*
X184603299Y-34909473D01*
X184369910Y-34812800D01*
X184029350Y-34812800D01*
X183870600Y-34971550D01*
X183616600Y-34971550D01*
X183457850Y-34812800D01*
X183134000Y-34812800D01*
X183134000Y-31750000D01*
X245364000Y-31750000D01*
X245364000Y-66363689D01*
X245364000Y-66363689D01*
G37*
X245364000Y-66363689D02*
X236770974Y-73945771D01*
X236740545Y-73985964D01*
X236728000Y-74041000D01*
X236728000Y-89154000D01*
X215392000Y-89154000D01*
X215392000Y-62357000D01*
X215381994Y-62307590D01*
X215353553Y-62265965D01*
X215311159Y-62238685D01*
X215265000Y-62230000D01*
X206756000Y-62230000D01*
X206756000Y-54737000D01*
X206745994Y-54687590D01*
X206717553Y-54645965D01*
X206675159Y-54618685D01*
X206629000Y-54610000D01*
X183134000Y-54610000D01*
X183134000Y-44282800D01*
X183457850Y-44282800D01*
X183616600Y-44124050D01*
X183616600Y-42199800D01*
X183870600Y-42199800D01*
X183870600Y-44124050D01*
X184029350Y-44282800D01*
X184369910Y-44282800D01*
X184603299Y-44186127D01*
X184781927Y-44007498D01*
X184878600Y-43774109D01*
X184878600Y-42358550D01*
X185148600Y-42358550D01*
X185148600Y-43774109D01*
X185245273Y-44007498D01*
X185423901Y-44186127D01*
X185657290Y-44282800D01*
X185997850Y-44282800D01*
X186156600Y-44124050D01*
X186156600Y-42199800D01*
X186410600Y-42199800D01*
X186410600Y-44124050D01*
X186569350Y-44282800D01*
X186909910Y-44282800D01*
X187143299Y-44186127D01*
X187321927Y-44007498D01*
X187418600Y-43774109D01*
X187418600Y-42358550D01*
X187688600Y-42358550D01*
X187688600Y-43774109D01*
X187785273Y-44007498D01*
X187963901Y-44186127D01*
X188197290Y-44282800D01*
X188537850Y-44282800D01*
X188696600Y-44124050D01*
X188696600Y-42199800D01*
X188950600Y-42199800D01*
X188950600Y-44124050D01*
X189109350Y-44282800D01*
X189449910Y-44282800D01*
X189683299Y-44186127D01*
X189861927Y-44007498D01*
X189958600Y-43774109D01*
X189958600Y-42358550D01*
X190228600Y-42358550D01*
X190228600Y-43774109D01*
X190325273Y-44007498D01*
X190503901Y-44186127D01*
X190737290Y-44282800D01*
X191077850Y-44282800D01*
X191236600Y-44124050D01*
X191236600Y-42199800D01*
X191490600Y-42199800D01*
X191490600Y-44124050D01*
X191649350Y-44282800D01*
X191989910Y-44282800D01*
X192223299Y-44186127D01*
X192401927Y-44007498D01*
X192498600Y-43774109D01*
X192498600Y-42358550D01*
X192768600Y-42358550D01*
X192768600Y-43774109D01*
X192865273Y-44007498D01*
X193043901Y-44186127D01*
X193277290Y-44282800D01*
X193617850Y-44282800D01*
X193776600Y-44124050D01*
X193776600Y-42199800D01*
X194030600Y-42199800D01*
X194030600Y-44124050D01*
X194189350Y-44282800D01*
X194529910Y-44282800D01*
X194763299Y-44186127D01*
X194941927Y-44007498D01*
X195038600Y-43774109D01*
X195038600Y-42358550D01*
X194879850Y-42199800D01*
X194030600Y-42199800D01*
X193776600Y-42199800D01*
X192927350Y-42199800D01*
X192768600Y-42358550D01*
X192498600Y-42358550D01*
X192339850Y-42199800D01*
X191490600Y-42199800D01*
X191236600Y-42199800D01*
X190387350Y-42199800D01*
X190228600Y-42358550D01*
X189958600Y-42358550D01*
X189799850Y-42199800D01*
X188950600Y-42199800D01*
X188696600Y-42199800D01*
X187847350Y-42199800D01*
X187688600Y-42358550D01*
X187418600Y-42358550D01*
X187259850Y-42199800D01*
X186410600Y-42199800D01*
X186156600Y-42199800D01*
X185307350Y-42199800D01*
X185148600Y-42358550D01*
X184878600Y-42358550D01*
X184719850Y-42199800D01*
X183870600Y-42199800D01*
X183616600Y-42199800D01*
X183596600Y-42199800D01*
X183596600Y-41945800D01*
X183616600Y-41945800D01*
X183616600Y-40021550D01*
X183870600Y-40021550D01*
X183870600Y-41945800D01*
X184719850Y-41945800D01*
X184878600Y-41787050D01*
X184878600Y-40371491D01*
X185148600Y-40371491D01*
X185148600Y-41787050D01*
X185307350Y-41945800D01*
X186156600Y-41945800D01*
X186156600Y-40021550D01*
X186410600Y-40021550D01*
X186410600Y-41945800D01*
X187259850Y-41945800D01*
X187418600Y-41787050D01*
X187418600Y-40371491D01*
X187688600Y-40371491D01*
X187688600Y-41787050D01*
X187847350Y-41945800D01*
X188696600Y-41945800D01*
X188696600Y-40021550D01*
X188950600Y-40021550D01*
X188950600Y-41945800D01*
X189799850Y-41945800D01*
X189958600Y-41787050D01*
X189958600Y-40371491D01*
X190228600Y-40371491D01*
X190228600Y-41787050D01*
X190387350Y-41945800D01*
X191236600Y-41945800D01*
X191236600Y-40021550D01*
X191490600Y-40021550D01*
X191490600Y-41945800D01*
X192339850Y-41945800D01*
X192498600Y-41787050D01*
X192498600Y-40371491D01*
X192768600Y-40371491D01*
X192768600Y-41787050D01*
X192927350Y-41945800D01*
X193776600Y-41945800D01*
X193776600Y-40021550D01*
X194030600Y-40021550D01*
X194030600Y-41945800D01*
X194879850Y-41945800D01*
X195038600Y-41787050D01*
X195038600Y-40497800D01*
X195296160Y-40497800D01*
X195296160Y-43647800D01*
X195340438Y-43883117D01*
X195479510Y-44099241D01*
X195691710Y-44244231D01*
X195943600Y-44295240D01*
X196943600Y-44295240D01*
X197178917Y-44250962D01*
X197395041Y-44111890D01*
X197540031Y-43899690D01*
X197591040Y-43647800D01*
X197591040Y-40497800D01*
X197836160Y-40497800D01*
X197836160Y-43647800D01*
X197880438Y-43883117D01*
X198019510Y-44099241D01*
X198231710Y-44244231D01*
X198483600Y-44295240D01*
X199483600Y-44295240D01*
X199718917Y-44250962D01*
X199935041Y-44111890D01*
X200080031Y-43899690D01*
X200131040Y-43647800D01*
X200131040Y-41732200D01*
X224461000Y-41732200D01*
X224461000Y-58242200D01*
X224515046Y-58513905D01*
X224668954Y-58744246D01*
X224899295Y-58898154D01*
X225171000Y-58952200D01*
X240665000Y-58952200D01*
X240936705Y-58898154D01*
X241167046Y-58744246D01*
X241320954Y-58513905D01*
X241375000Y-58242200D01*
X241372474Y-58229500D01*
X241375000Y-58216800D01*
X241375000Y-41732200D01*
X241320954Y-41460495D01*
X241167046Y-41230154D01*
X240936705Y-41076246D01*
X240665000Y-41022200D01*
X225171000Y-41022200D01*
X224899295Y-41076246D01*
X224668954Y-41230154D01*
X224515046Y-41460495D01*
X224461000Y-41732200D01*
X200131040Y-41732200D01*
X200131040Y-40497800D01*
X200086762Y-40262483D01*
X199947690Y-40046359D01*
X199735490Y-39901369D01*
X199483600Y-39850360D01*
X198483600Y-39850360D01*
X198248283Y-39894638D01*
X198032159Y-40033710D01*
X197887169Y-40245910D01*
X197836160Y-40497800D01*
X197591040Y-40497800D01*
X197546762Y-40262483D01*
X197407690Y-40046359D01*
X197195490Y-39901369D01*
X196943600Y-39850360D01*
X195943600Y-39850360D01*
X195708283Y-39894638D01*
X195492159Y-40033710D01*
X195347169Y-40245910D01*
X195296160Y-40497800D01*
X195038600Y-40497800D01*
X195038600Y-40371491D01*
X194941927Y-40138102D01*
X194763299Y-39959473D01*
X194529910Y-39862800D01*
X194189350Y-39862800D01*
X194030600Y-40021550D01*
X193776600Y-40021550D01*
X193617850Y-39862800D01*
X193277290Y-39862800D01*
X193043901Y-39959473D01*
X192865273Y-40138102D01*
X192768600Y-40371491D01*
X192498600Y-40371491D01*
X192401927Y-40138102D01*
X192223299Y-39959473D01*
X191989910Y-39862800D01*
X191649350Y-39862800D01*
X191490600Y-40021550D01*
X191236600Y-40021550D01*
X191077850Y-39862800D01*
X190737290Y-39862800D01*
X190503901Y-39959473D01*
X190325273Y-40138102D01*
X190228600Y-40371491D01*
X189958600Y-40371491D01*
X189861927Y-40138102D01*
X189683299Y-39959473D01*
X189449910Y-39862800D01*
X189109350Y-39862800D01*
X188950600Y-40021550D01*
X188696600Y-40021550D01*
X188537850Y-39862800D01*
X188197290Y-39862800D01*
X187963901Y-39959473D01*
X187785273Y-40138102D01*
X187688600Y-40371491D01*
X187418600Y-40371491D01*
X187321927Y-40138102D01*
X187143299Y-39959473D01*
X186909910Y-39862800D01*
X186569350Y-39862800D01*
X186410600Y-40021550D01*
X186156600Y-40021550D01*
X185997850Y-39862800D01*
X185657290Y-39862800D01*
X185423901Y-39959473D01*
X185245273Y-40138102D01*
X185148600Y-40371491D01*
X184878600Y-40371491D01*
X184781927Y-40138102D01*
X184603299Y-39959473D01*
X184369910Y-39862800D01*
X184029350Y-39862800D01*
X183870600Y-40021550D01*
X183616600Y-40021550D01*
X183457850Y-39862800D01*
X183134000Y-39862800D01*
X183134000Y-39232800D01*
X183457850Y-39232800D01*
X183616600Y-39074050D01*
X183616600Y-37149800D01*
X183870600Y-37149800D01*
X183870600Y-39074050D01*
X184029350Y-39232800D01*
X184369910Y-39232800D01*
X184603299Y-39136127D01*
X184781927Y-38957498D01*
X184878600Y-38724109D01*
X184878600Y-37308550D01*
X185148600Y-37308550D01*
X185148600Y-38724109D01*
X185245273Y-38957498D01*
X185423901Y-39136127D01*
X185657290Y-39232800D01*
X185997850Y-39232800D01*
X186156600Y-39074050D01*
X186156600Y-37149800D01*
X186410600Y-37149800D01*
X186410600Y-39074050D01*
X186569350Y-39232800D01*
X186909910Y-39232800D01*
X187143299Y-39136127D01*
X187321927Y-38957498D01*
X187418600Y-38724109D01*
X187418600Y-37308550D01*
X187688600Y-37308550D01*
X187688600Y-38724109D01*
X187785273Y-38957498D01*
X187963901Y-39136127D01*
X188197290Y-39232800D01*
X188537850Y-39232800D01*
X188696600Y-39074050D01*
X188696600Y-37149800D01*
X188950600Y-37149800D01*
X188950600Y-39074050D01*
X189109350Y-39232800D01*
X189449910Y-39232800D01*
X189683299Y-39136127D01*
X189861927Y-38957498D01*
X189958600Y-38724109D01*
X189958600Y-37308550D01*
X190228600Y-37308550D01*
X190228600Y-38724109D01*
X190325273Y-38957498D01*
X190503901Y-39136127D01*
X190737290Y-39232800D01*
X191077850Y-39232800D01*
X191236600Y-39074050D01*
X191236600Y-37149800D01*
X191490600Y-37149800D01*
X191490600Y-39074050D01*
X191649350Y-39232800D01*
X191989910Y-39232800D01*
X192223299Y-39136127D01*
X192401927Y-38957498D01*
X192498600Y-38724109D01*
X192498600Y-37308550D01*
X192768600Y-37308550D01*
X192768600Y-38724109D01*
X192865273Y-38957498D01*
X193043901Y-39136127D01*
X193277290Y-39232800D01*
X193617850Y-39232800D01*
X193776600Y-39074050D01*
X193776600Y-37149800D01*
X194030600Y-37149800D01*
X194030600Y-39074050D01*
X194189350Y-39232800D01*
X194529910Y-39232800D01*
X194763299Y-39136127D01*
X194941927Y-38957498D01*
X195038600Y-38724109D01*
X195038600Y-37308550D01*
X194879850Y-37149800D01*
X194030600Y-37149800D01*
X193776600Y-37149800D01*
X192927350Y-37149800D01*
X192768600Y-37308550D01*
X192498600Y-37308550D01*
X192339850Y-37149800D01*
X191490600Y-37149800D01*
X191236600Y-37149800D01*
X190387350Y-37149800D01*
X190228600Y-37308550D01*
X189958600Y-37308550D01*
X189799850Y-37149800D01*
X188950600Y-37149800D01*
X188696600Y-37149800D01*
X187847350Y-37149800D01*
X187688600Y-37308550D01*
X187418600Y-37308550D01*
X187259850Y-37149800D01*
X186410600Y-37149800D01*
X186156600Y-37149800D01*
X185307350Y-37149800D01*
X185148600Y-37308550D01*
X184878600Y-37308550D01*
X184719850Y-37149800D01*
X183870600Y-37149800D01*
X183616600Y-37149800D01*
X183596600Y-37149800D01*
X183596600Y-36895800D01*
X183616600Y-36895800D01*
X183616600Y-34971550D01*
X183870600Y-34971550D01*
X183870600Y-36895800D01*
X184719850Y-36895800D01*
X184878600Y-36737050D01*
X184878600Y-35321491D01*
X185148600Y-35321491D01*
X185148600Y-36737050D01*
X185307350Y-36895800D01*
X186156600Y-36895800D01*
X186156600Y-34971550D01*
X186410600Y-34971550D01*
X186410600Y-36895800D01*
X187259850Y-36895800D01*
X187418600Y-36737050D01*
X187418600Y-35321491D01*
X187688600Y-35321491D01*
X187688600Y-36737050D01*
X187847350Y-36895800D01*
X188696600Y-36895800D01*
X188696600Y-34971550D01*
X188950600Y-34971550D01*
X188950600Y-36895800D01*
X189799850Y-36895800D01*
X189958600Y-36737050D01*
X189958600Y-35321491D01*
X190228600Y-35321491D01*
X190228600Y-36737050D01*
X190387350Y-36895800D01*
X191236600Y-36895800D01*
X191236600Y-34971550D01*
X191490600Y-34971550D01*
X191490600Y-36895800D01*
X192339850Y-36895800D01*
X192498600Y-36737050D01*
X192498600Y-35321491D01*
X192768600Y-35321491D01*
X192768600Y-36737050D01*
X192927350Y-36895800D01*
X193776600Y-36895800D01*
X193776600Y-34971550D01*
X194030600Y-34971550D01*
X194030600Y-36895800D01*
X194879850Y-36895800D01*
X195038600Y-36737050D01*
X195038600Y-35447800D01*
X195296160Y-35447800D01*
X195296160Y-38597800D01*
X195340438Y-38833117D01*
X195479510Y-39049241D01*
X195691710Y-39194231D01*
X195943600Y-39245240D01*
X196943600Y-39245240D01*
X197178917Y-39200962D01*
X197395041Y-39061890D01*
X197540031Y-38849690D01*
X197591040Y-38597800D01*
X197591040Y-35447800D01*
X197836160Y-35447800D01*
X197836160Y-38597800D01*
X197880438Y-38833117D01*
X198019510Y-39049241D01*
X198231710Y-39194231D01*
X198483600Y-39245240D01*
X199483600Y-39245240D01*
X199718917Y-39200962D01*
X199935041Y-39061890D01*
X200080031Y-38849690D01*
X200131040Y-38597800D01*
X200131040Y-35447800D01*
X200086762Y-35212483D01*
X199947690Y-34996359D01*
X199735490Y-34851369D01*
X199483600Y-34800360D01*
X198483600Y-34800360D01*
X198248283Y-34844638D01*
X198032159Y-34983710D01*
X197887169Y-35195910D01*
X197836160Y-35447800D01*
X197591040Y-35447800D01*
X197546762Y-35212483D01*
X197407690Y-34996359D01*
X197195490Y-34851369D01*
X196943600Y-34800360D01*
X195943600Y-34800360D01*
X195708283Y-34844638D01*
X195492159Y-34983710D01*
X195347169Y-35195910D01*
X195296160Y-35447800D01*
X195038600Y-35447800D01*
X195038600Y-35321491D01*
X194941927Y-35088102D01*
X194763299Y-34909473D01*
X194529910Y-34812800D01*
X194189350Y-34812800D01*
X194030600Y-34971550D01*
X193776600Y-34971550D01*
X193617850Y-34812800D01*
X193277290Y-34812800D01*
X193043901Y-34909473D01*
X192865273Y-35088102D01*
X192768600Y-35321491D01*
X192498600Y-35321491D01*
X192401927Y-35088102D01*
X192223299Y-34909473D01*
X191989910Y-34812800D01*
X191649350Y-34812800D01*
X191490600Y-34971550D01*
X191236600Y-34971550D01*
X191077850Y-34812800D01*
X190737290Y-34812800D01*
X190503901Y-34909473D01*
X190325273Y-35088102D01*
X190228600Y-35321491D01*
X189958600Y-35321491D01*
X189861927Y-35088102D01*
X189683299Y-34909473D01*
X189449910Y-34812800D01*
X189109350Y-34812800D01*
X188950600Y-34971550D01*
X188696600Y-34971550D01*
X188537850Y-34812800D01*
X188197290Y-34812800D01*
X187963901Y-34909473D01*
X187785273Y-35088102D01*
X187688600Y-35321491D01*
X187418600Y-35321491D01*
X187321927Y-35088102D01*
X187143299Y-34909473D01*
X186909910Y-34812800D01*
X186569350Y-34812800D01*
X186410600Y-34971550D01*
X186156600Y-34971550D01*
X185997850Y-34812800D01*
X185657290Y-34812800D01*
X185423901Y-34909473D01*
X185245273Y-35088102D01*
X185148600Y-35321491D01*
X184878600Y-35321491D01*
X184781927Y-35088102D01*
X184603299Y-34909473D01*
X184369910Y-34812800D01*
X184029350Y-34812800D01*
X183870600Y-34971550D01*
X183616600Y-34971550D01*
X183457850Y-34812800D01*
X183134000Y-34812800D01*
X183134000Y-31750000D01*
X245364000Y-31750000D01*
X245364000Y-66363689D01*
M02*
