G04 #@! TF.FileFunction,Soldermask,Bot*
%FSLAX46Y46*%
G04 Gerber Fmt 4.6, Leading zero omitted, Abs format (unit mm)*
G04 Created by KiCad (PCBNEW 4.0.7) date 11/11/19 23:51:16*
%MOMM*%
%LPD*%
G01*
G04 APERTURE LIST*
%ADD10C,0.100000*%
G04 APERTURE END LIST*
D10*
G36*
X163586952Y-120223557D02*
X164210908Y-120351637D01*
X164798105Y-120598473D01*
X165326177Y-120954661D01*
X165775002Y-121406631D01*
X166127496Y-121937176D01*
X166370225Y-122526082D01*
X166493774Y-123150048D01*
X166493774Y-123150077D01*
X166493940Y-123150917D01*
X166483781Y-123878452D01*
X166483590Y-123879291D01*
X166483590Y-123879312D01*
X166342666Y-124499594D01*
X166083589Y-125081489D01*
X165716422Y-125601982D01*
X165255146Y-126041248D01*
X164717338Y-126382553D01*
X164123482Y-126612894D01*
X163496191Y-126723502D01*
X162859360Y-126710163D01*
X162237254Y-126573384D01*
X161653563Y-126318375D01*
X161130515Y-125954847D01*
X160688045Y-125496657D01*
X160342991Y-124961238D01*
X160108509Y-124369003D01*
X159993525Y-123742504D01*
X160002419Y-123105593D01*
X160134850Y-122482551D01*
X160385779Y-121897089D01*
X160745643Y-121371520D01*
X161200739Y-120925858D01*
X161733731Y-120577079D01*
X162324316Y-120338467D01*
X162950001Y-120219111D01*
X163586952Y-120223557D01*
X163586952Y-120223557D01*
G37*
G36*
X254033000Y-121625962D02*
X254037949Y-121660786D01*
X254053885Y-121695136D01*
X254214696Y-121937176D01*
X254457425Y-122526082D01*
X254580974Y-123150048D01*
X254580974Y-123150077D01*
X254581140Y-123150917D01*
X254570981Y-123878452D01*
X254570790Y-123879291D01*
X254570790Y-123879312D01*
X254429866Y-124499594D01*
X254170789Y-125081489D01*
X253803622Y-125601982D01*
X253342346Y-126041248D01*
X252804538Y-126382553D01*
X252210682Y-126612894D01*
X251583391Y-126723502D01*
X250946560Y-126710163D01*
X250324454Y-126573384D01*
X249740763Y-126318375D01*
X249217715Y-125954847D01*
X248775245Y-125496657D01*
X248430191Y-124961238D01*
X248195709Y-124369003D01*
X248080725Y-123742504D01*
X248089619Y-123105593D01*
X248222050Y-122482551D01*
X248472979Y-121897089D01*
X248611139Y-121695312D01*
X248626730Y-121663782D01*
X248633000Y-121624691D01*
X248633000Y-116299000D01*
X254033000Y-116299000D01*
X254033000Y-121625962D01*
X254033000Y-121625962D01*
G37*
G36*
X182152744Y-106826191D02*
X182959584Y-106991812D01*
X183718890Y-107310996D01*
X184401740Y-107771584D01*
X184982119Y-108356028D01*
X185213360Y-108704074D01*
X185236753Y-108730341D01*
X185266538Y-108749051D01*
X185317475Y-108759900D01*
X188318500Y-108759900D01*
X188318500Y-113159900D01*
X185409333Y-113159900D01*
X185374509Y-113164849D01*
X185342442Y-113179304D01*
X185307190Y-113212846D01*
X184906365Y-113781051D01*
X184309895Y-114349062D01*
X183614450Y-114790406D01*
X182846532Y-115088261D01*
X182035381Y-115231288D01*
X181211894Y-115214040D01*
X180407447Y-115037170D01*
X179652674Y-114707418D01*
X178976319Y-114237339D01*
X178404159Y-113644851D01*
X178128548Y-113217186D01*
X178105523Y-113190595D01*
X178076002Y-113171471D01*
X178042322Y-113161329D01*
X178023477Y-113159900D01*
X175097000Y-113159900D01*
X175097000Y-108759900D01*
X178105112Y-108759900D01*
X178139936Y-108754951D01*
X178172003Y-108740496D01*
X178208251Y-108705521D01*
X178478641Y-108310626D01*
X179067126Y-107734339D01*
X179756339Y-107283331D01*
X180520027Y-106974781D01*
X181329101Y-106820442D01*
X182152744Y-106826191D01*
X182152744Y-106826191D01*
G37*
G36*
X233206744Y-106826191D02*
X234013584Y-106991812D01*
X234772890Y-107310996D01*
X235455740Y-107771584D01*
X236036119Y-108356028D01*
X236267360Y-108704074D01*
X236290753Y-108730341D01*
X236320538Y-108749051D01*
X236371475Y-108759900D01*
X239372500Y-108759900D01*
X239372500Y-113159900D01*
X236463333Y-113159900D01*
X236428509Y-113164849D01*
X236396442Y-113179304D01*
X236361190Y-113212846D01*
X235960365Y-113781051D01*
X235363895Y-114349062D01*
X234668450Y-114790406D01*
X233900532Y-115088261D01*
X233089381Y-115231288D01*
X232265894Y-115214040D01*
X231461447Y-115037170D01*
X230706674Y-114707418D01*
X230030319Y-114237339D01*
X229458159Y-113644851D01*
X229182548Y-113217186D01*
X229159523Y-113190595D01*
X229130002Y-113171471D01*
X229096322Y-113161329D01*
X229077477Y-113159900D01*
X226151000Y-113159900D01*
X226151000Y-108759900D01*
X229159112Y-108759900D01*
X229193936Y-108754951D01*
X229226003Y-108740496D01*
X229262251Y-108705521D01*
X229532641Y-108310626D01*
X230121126Y-107734339D01*
X230810339Y-107283331D01*
X231574027Y-106974781D01*
X232383101Y-106820442D01*
X233206744Y-106826191D01*
X233206744Y-106826191D01*
G37*
G36*
X184333545Y-102231260D02*
X184583283Y-102282525D01*
X184818305Y-102381319D01*
X185029667Y-102523884D01*
X185209306Y-102704781D01*
X185350391Y-102917132D01*
X185447543Y-103152841D01*
X185496890Y-103402060D01*
X185496890Y-103402088D01*
X185497056Y-103402928D01*
X185492990Y-103694122D01*
X185492799Y-103694961D01*
X185492799Y-103694982D01*
X185436512Y-103942733D01*
X185332817Y-104175634D01*
X185185859Y-104383960D01*
X185001235Y-104559776D01*
X184785978Y-104696382D01*
X184548291Y-104788575D01*
X184297220Y-104832845D01*
X184042327Y-104827506D01*
X183793329Y-104772760D01*
X183559714Y-104670696D01*
X183350364Y-104525194D01*
X183173264Y-104341801D01*
X183053398Y-104155806D01*
X183030373Y-104129214D01*
X183000853Y-104110090D01*
X182967173Y-104099948D01*
X182932000Y-104099590D01*
X182898121Y-104109045D01*
X182868217Y-104127564D01*
X182844656Y-104153681D01*
X182834135Y-104172675D01*
X182832818Y-104175633D01*
X182685859Y-104383960D01*
X182501235Y-104559776D01*
X182285978Y-104696382D01*
X182048291Y-104788575D01*
X181797220Y-104832845D01*
X181542327Y-104827506D01*
X181293329Y-104772760D01*
X181059714Y-104670696D01*
X180850364Y-104525194D01*
X180673264Y-104341801D01*
X180553398Y-104155806D01*
X180530373Y-104129214D01*
X180500853Y-104110090D01*
X180467173Y-104099948D01*
X180432000Y-104099590D01*
X180398121Y-104109045D01*
X180368217Y-104127564D01*
X180344656Y-104153681D01*
X180334135Y-104172675D01*
X180332818Y-104175633D01*
X180185859Y-104383960D01*
X180001235Y-104559776D01*
X179785978Y-104696382D01*
X179548291Y-104788575D01*
X179297220Y-104832845D01*
X179042327Y-104827506D01*
X178793329Y-104772760D01*
X178559714Y-104670696D01*
X178350364Y-104525194D01*
X178173265Y-104341803D01*
X178035159Y-104127503D01*
X177941307Y-103890462D01*
X177895286Y-103639711D01*
X177898846Y-103384785D01*
X177951850Y-103135418D01*
X178052285Y-102901086D01*
X178196319Y-102690730D01*
X178378469Y-102512355D01*
X178591799Y-102372757D01*
X178828179Y-102277252D01*
X179078608Y-102229481D01*
X179333545Y-102231260D01*
X179583283Y-102282525D01*
X179818305Y-102381319D01*
X180029667Y-102523884D01*
X180209306Y-102704781D01*
X180341853Y-102904281D01*
X180365246Y-102930548D01*
X180395031Y-102949258D01*
X180428850Y-102958929D01*
X180464023Y-102958796D01*
X180497768Y-102948869D01*
X180527410Y-102929934D01*
X180549107Y-102905728D01*
X180696319Y-102690730D01*
X180878469Y-102512355D01*
X181091799Y-102372757D01*
X181328179Y-102277252D01*
X181578608Y-102229481D01*
X181833545Y-102231260D01*
X182083283Y-102282525D01*
X182318305Y-102381319D01*
X182529667Y-102523884D01*
X182709306Y-102704781D01*
X182841853Y-102904281D01*
X182865246Y-102930548D01*
X182895031Y-102949258D01*
X182928850Y-102958929D01*
X182964023Y-102958796D01*
X182997768Y-102948869D01*
X183027410Y-102929934D01*
X183049107Y-102905728D01*
X183196319Y-102690730D01*
X183378469Y-102512355D01*
X183591799Y-102372757D01*
X183828179Y-102277252D01*
X184078608Y-102229481D01*
X184333545Y-102231260D01*
X184333545Y-102231260D01*
G37*
G36*
X235387545Y-102231260D02*
X235637283Y-102282525D01*
X235872305Y-102381319D01*
X236083667Y-102523884D01*
X236263306Y-102704781D01*
X236404391Y-102917132D01*
X236501543Y-103152841D01*
X236550890Y-103402060D01*
X236550890Y-103402088D01*
X236551056Y-103402928D01*
X236546990Y-103694122D01*
X236546799Y-103694961D01*
X236546799Y-103694982D01*
X236490512Y-103942733D01*
X236386817Y-104175634D01*
X236239859Y-104383960D01*
X236055235Y-104559776D01*
X235839978Y-104696382D01*
X235602291Y-104788575D01*
X235351220Y-104832845D01*
X235096327Y-104827506D01*
X234847329Y-104772760D01*
X234613714Y-104670696D01*
X234404364Y-104525194D01*
X234227264Y-104341801D01*
X234107398Y-104155806D01*
X234084373Y-104129214D01*
X234054853Y-104110090D01*
X234021173Y-104099948D01*
X233986000Y-104099590D01*
X233952121Y-104109045D01*
X233922217Y-104127564D01*
X233898656Y-104153681D01*
X233888135Y-104172675D01*
X233886818Y-104175633D01*
X233739859Y-104383960D01*
X233555235Y-104559776D01*
X233339978Y-104696382D01*
X233102291Y-104788575D01*
X232851220Y-104832845D01*
X232596327Y-104827506D01*
X232347329Y-104772760D01*
X232113714Y-104670696D01*
X231904364Y-104525194D01*
X231727264Y-104341801D01*
X231607398Y-104155806D01*
X231584373Y-104129214D01*
X231554853Y-104110090D01*
X231521173Y-104099948D01*
X231486000Y-104099590D01*
X231452121Y-104109045D01*
X231422217Y-104127564D01*
X231398656Y-104153681D01*
X231388135Y-104172675D01*
X231386818Y-104175633D01*
X231239859Y-104383960D01*
X231055235Y-104559776D01*
X230839978Y-104696382D01*
X230602291Y-104788575D01*
X230351220Y-104832845D01*
X230096327Y-104827506D01*
X229847329Y-104772760D01*
X229613714Y-104670696D01*
X229404364Y-104525194D01*
X229227265Y-104341803D01*
X229089159Y-104127503D01*
X228995307Y-103890462D01*
X228949286Y-103639711D01*
X228952846Y-103384785D01*
X229005850Y-103135418D01*
X229106285Y-102901086D01*
X229250319Y-102690730D01*
X229432469Y-102512355D01*
X229645799Y-102372757D01*
X229882179Y-102277252D01*
X230132608Y-102229481D01*
X230387545Y-102231260D01*
X230637283Y-102282525D01*
X230872305Y-102381319D01*
X231083667Y-102523884D01*
X231263306Y-102704781D01*
X231395853Y-102904281D01*
X231419246Y-102930548D01*
X231449031Y-102949258D01*
X231482850Y-102958929D01*
X231518023Y-102958796D01*
X231551768Y-102948869D01*
X231581410Y-102929934D01*
X231603107Y-102905728D01*
X231750319Y-102690730D01*
X231932469Y-102512355D01*
X232145799Y-102372757D01*
X232382179Y-102277252D01*
X232632608Y-102229481D01*
X232887545Y-102231260D01*
X233137283Y-102282525D01*
X233372305Y-102381319D01*
X233583667Y-102523884D01*
X233763306Y-102704781D01*
X233895853Y-102904281D01*
X233919246Y-102930548D01*
X233949031Y-102949258D01*
X233982850Y-102958929D01*
X234018023Y-102958796D01*
X234051768Y-102948869D01*
X234081410Y-102929934D01*
X234103107Y-102905728D01*
X234250319Y-102690730D01*
X234432469Y-102512355D01*
X234645799Y-102372757D01*
X234882179Y-102277252D01*
X235132608Y-102229481D01*
X235387545Y-102231260D01*
X235387545Y-102231260D01*
G37*
G36*
X183837000Y-100745000D02*
X182537000Y-100745000D01*
X182537000Y-98645000D01*
X183837000Y-98645000D01*
X183837000Y-100745000D01*
X183837000Y-100745000D01*
G37*
G36*
X180937000Y-100745000D02*
X179637000Y-100745000D01*
X179637000Y-98645000D01*
X180937000Y-98645000D01*
X180937000Y-100745000D01*
X180937000Y-100745000D01*
G37*
G36*
X231991000Y-99983000D02*
X230691000Y-99983000D01*
X230691000Y-97883000D01*
X231991000Y-97883000D01*
X231991000Y-99983000D01*
X231991000Y-99983000D01*
G37*
G36*
X234891000Y-99983000D02*
X233591000Y-99983000D01*
X233591000Y-97883000D01*
X234891000Y-97883000D01*
X234891000Y-99983000D01*
X234891000Y-99983000D01*
G37*
G36*
X246948144Y-74618991D02*
X247754984Y-74784612D01*
X248514290Y-75103796D01*
X249197140Y-75564384D01*
X249777519Y-76148828D01*
X250233329Y-76834877D01*
X250547203Y-77596393D01*
X250707015Y-78403500D01*
X250707015Y-78403533D01*
X250707180Y-78404369D01*
X250694044Y-79345147D01*
X250693853Y-79345986D01*
X250693853Y-79346006D01*
X250511567Y-80148346D01*
X250176553Y-80900796D01*
X249701765Y-81573851D01*
X249245798Y-82008063D01*
X249223992Y-82035662D01*
X249210738Y-82068243D01*
X249207000Y-82098584D01*
X249207000Y-86596200D01*
X243807000Y-86596200D01*
X243807000Y-82117176D01*
X243802051Y-82082352D01*
X243787596Y-82050285D01*
X243771917Y-82030344D01*
X243199557Y-81437649D01*
X242753372Y-80745304D01*
X242450160Y-79979478D01*
X242301474Y-79169351D01*
X242312974Y-78345761D01*
X242484222Y-77540103D01*
X242808699Y-76783041D01*
X243274041Y-76103426D01*
X243862526Y-75527139D01*
X244551739Y-75076131D01*
X245315427Y-74767581D01*
X246124501Y-74613242D01*
X246948144Y-74618991D01*
X246948144Y-74618991D01*
G37*
G36*
X228152144Y-74618991D02*
X228958984Y-74784612D01*
X229718290Y-75103796D01*
X230401140Y-75564384D01*
X230981519Y-76148828D01*
X231437329Y-76834877D01*
X231751203Y-77596393D01*
X231911015Y-78403500D01*
X231911015Y-78403533D01*
X231911180Y-78404369D01*
X231898044Y-79345147D01*
X231897853Y-79345986D01*
X231897853Y-79346006D01*
X231715567Y-80148346D01*
X231380553Y-80900796D01*
X230905765Y-81573851D01*
X230309295Y-82141862D01*
X229613850Y-82583206D01*
X228845932Y-82881061D01*
X228034781Y-83024088D01*
X227211294Y-83006840D01*
X226406847Y-82829970D01*
X225652074Y-82500218D01*
X224975719Y-82030139D01*
X224403557Y-81437649D01*
X223957372Y-80745304D01*
X223654160Y-79979478D01*
X223505474Y-79169351D01*
X223516974Y-78345761D01*
X223688222Y-77540103D01*
X224012699Y-76783041D01*
X224478041Y-76103426D01*
X225066526Y-75527139D01*
X225755739Y-75076131D01*
X226519427Y-74767581D01*
X227328501Y-74613242D01*
X228152144Y-74618991D01*
X228152144Y-74618991D01*
G37*
G36*
X176823600Y-43847800D02*
X175423600Y-43847800D01*
X175423600Y-40297800D01*
X176823600Y-40297800D01*
X176823600Y-43847800D01*
X176823600Y-43847800D01*
G37*
G36*
X199683600Y-43847800D02*
X198283600Y-43847800D01*
X198283600Y-40297800D01*
X199683600Y-40297800D01*
X199683600Y-43847800D01*
X199683600Y-43847800D01*
G37*
G36*
X197143600Y-43847800D02*
X195743600Y-43847800D01*
X195743600Y-40297800D01*
X197143600Y-40297800D01*
X197143600Y-43847800D01*
X197143600Y-43847800D01*
G37*
G36*
X194603600Y-43847800D02*
X193203600Y-43847800D01*
X193203600Y-40297800D01*
X194603600Y-40297800D01*
X194603600Y-43847800D01*
X194603600Y-43847800D01*
G37*
G36*
X192063600Y-43847800D02*
X190663600Y-43847800D01*
X190663600Y-40297800D01*
X192063600Y-40297800D01*
X192063600Y-43847800D01*
X192063600Y-43847800D01*
G37*
G36*
X179363600Y-43847800D02*
X177963600Y-43847800D01*
X177963600Y-40297800D01*
X179363600Y-40297800D01*
X179363600Y-43847800D01*
X179363600Y-43847800D01*
G37*
G36*
X184443600Y-43847800D02*
X183043600Y-43847800D01*
X183043600Y-40297800D01*
X184443600Y-40297800D01*
X184443600Y-43847800D01*
X184443600Y-43847800D01*
G37*
G36*
X181903600Y-43847800D02*
X180503600Y-43847800D01*
X180503600Y-40297800D01*
X181903600Y-40297800D01*
X181903600Y-43847800D01*
X181903600Y-43847800D01*
G37*
G36*
X186983600Y-43847800D02*
X185583600Y-43847800D01*
X185583600Y-40297800D01*
X186983600Y-40297800D01*
X186983600Y-43847800D01*
X186983600Y-43847800D01*
G37*
G36*
X189523600Y-43847800D02*
X188123600Y-43847800D01*
X188123600Y-40297800D01*
X189523600Y-40297800D01*
X189523600Y-43847800D01*
X189523600Y-43847800D01*
G37*
G36*
X181903600Y-38797800D02*
X180503600Y-38797800D01*
X180503600Y-35247800D01*
X181903600Y-35247800D01*
X181903600Y-38797800D01*
X181903600Y-38797800D01*
G37*
G36*
X176823600Y-38797800D02*
X175423600Y-38797800D01*
X175423600Y-35247800D01*
X176823600Y-35247800D01*
X176823600Y-38797800D01*
X176823600Y-38797800D01*
G37*
G36*
X189523600Y-38797800D02*
X188123600Y-38797800D01*
X188123600Y-35247800D01*
X189523600Y-35247800D01*
X189523600Y-38797800D01*
X189523600Y-38797800D01*
G37*
G36*
X186983600Y-38797800D02*
X185583600Y-38797800D01*
X185583600Y-35247800D01*
X186983600Y-35247800D01*
X186983600Y-38797800D01*
X186983600Y-38797800D01*
G37*
G36*
X192063600Y-38797800D02*
X190663600Y-38797800D01*
X190663600Y-35247800D01*
X192063600Y-35247800D01*
X192063600Y-38797800D01*
X192063600Y-38797800D01*
G37*
G36*
X184443600Y-38797800D02*
X183043600Y-38797800D01*
X183043600Y-35247800D01*
X184443600Y-35247800D01*
X184443600Y-38797800D01*
X184443600Y-38797800D01*
G37*
G36*
X194603600Y-38797800D02*
X193203600Y-38797800D01*
X193203600Y-35247800D01*
X194603600Y-35247800D01*
X194603600Y-38797800D01*
X194603600Y-38797800D01*
G37*
G36*
X179363600Y-38797800D02*
X177963600Y-38797800D01*
X177963600Y-35247800D01*
X179363600Y-35247800D01*
X179363600Y-38797800D01*
X179363600Y-38797800D01*
G37*
G36*
X199683600Y-38797800D02*
X198283600Y-38797800D01*
X198283600Y-35247800D01*
X199683600Y-35247800D01*
X199683600Y-38797800D01*
X199683600Y-38797800D01*
G37*
G36*
X197143600Y-38797800D02*
X195743600Y-38797800D01*
X195743600Y-35247800D01*
X197143600Y-35247800D01*
X197143600Y-38797800D01*
X197143600Y-38797800D01*
G37*
G36*
X251674152Y-32136357D02*
X252298108Y-32264437D01*
X252885305Y-32511273D01*
X253413377Y-32867461D01*
X253862202Y-33319431D01*
X254214696Y-33849976D01*
X254457425Y-34438882D01*
X254580974Y-35062848D01*
X254580974Y-35062877D01*
X254581140Y-35063717D01*
X254570981Y-35791252D01*
X254570790Y-35792091D01*
X254570790Y-35792112D01*
X254429866Y-36412394D01*
X254170789Y-36994289D01*
X253803622Y-37514782D01*
X253342346Y-37954048D01*
X252804538Y-38295353D01*
X252210682Y-38525694D01*
X251583391Y-38636302D01*
X250946560Y-38622963D01*
X250324454Y-38486184D01*
X249740763Y-38231175D01*
X249217715Y-37867647D01*
X248775245Y-37409457D01*
X248430191Y-36874038D01*
X248195709Y-36281803D01*
X248080725Y-35655304D01*
X248089619Y-35018393D01*
X248222050Y-34395351D01*
X248472979Y-33809889D01*
X248832843Y-33284320D01*
X249287939Y-32838658D01*
X249820931Y-32489879D01*
X250411516Y-32251267D01*
X251037201Y-32131911D01*
X251674152Y-32136357D01*
X251674152Y-32136357D01*
G37*
G36*
X163586952Y-32136357D02*
X164210908Y-32264437D01*
X164798105Y-32511273D01*
X165326177Y-32867461D01*
X165775002Y-33319431D01*
X166127496Y-33849976D01*
X166370225Y-34438882D01*
X166493774Y-35062848D01*
X166493774Y-35062877D01*
X166493940Y-35063717D01*
X166483781Y-35791252D01*
X166483590Y-35792091D01*
X166483590Y-35792112D01*
X166342666Y-36412394D01*
X166083589Y-36994289D01*
X165716422Y-37514782D01*
X165255146Y-37954048D01*
X164717338Y-38295353D01*
X164123482Y-38525694D01*
X163496191Y-38636302D01*
X162859360Y-38622963D01*
X162237254Y-38486184D01*
X161653563Y-38231175D01*
X161130515Y-37867647D01*
X160688045Y-37409457D01*
X160342991Y-36874038D01*
X160108509Y-36281803D01*
X159993525Y-35655304D01*
X160002419Y-35018393D01*
X160134850Y-34395351D01*
X160385779Y-33809889D01*
X160745643Y-33284320D01*
X161200739Y-32838658D01*
X161733731Y-32489879D01*
X162324316Y-32251267D01*
X162950001Y-32131911D01*
X163586952Y-32136357D01*
X163586952Y-32136357D01*
G37*
M02*
