G04 #@! TF.FileFunction,Copper,L1,Top,Signal*
%FSLAX46Y46*%
G04 Gerber Fmt 4.6, Leading zero omitted, Abs format (unit mm)*
G04 Created by KiCad (PCBNEW 4.0.7) date 11/11/19 23:51:16*
%MOMM*%
%LPD*%
G01*
G04 APERTURE LIST*
%ADD10C,0.100000*%
%ADD11C,8.000000*%
%ADD12R,4.000000X4.000000*%
%ADD13C,2.200000*%
%ADD14C,6.096000*%
%ADD15C,0.254000*%
G04 APERTURE END LIST*
D10*
D11*
X246507000Y-78816200D03*
X227711000Y-78816200D03*
X181711600Y-111023400D03*
D12*
X177297000Y-110959900D03*
X186118500Y-110959900D03*
D13*
X179197000Y-103530400D03*
X181697000Y-103530400D03*
X184197000Y-103530400D03*
X235251000Y-103530400D03*
X232751000Y-103530400D03*
X230251000Y-103530400D03*
D12*
X237172500Y-110959900D03*
X228351000Y-110959900D03*
D11*
X232765600Y-111023400D03*
D14*
X163245800Y-35382200D03*
X251333000Y-123469400D03*
X251333000Y-35382200D03*
X163245800Y-123469400D03*
D15*
G36*
X253890520Y-30594025D02*
X255250799Y-31528379D01*
X256149974Y-32912166D01*
X256465000Y-34609337D01*
X256465000Y-124321971D01*
X256108475Y-126001518D01*
X255174123Y-127361798D01*
X253790332Y-128260974D01*
X252093163Y-128576000D01*
X162380529Y-128576000D01*
X160700982Y-128219475D01*
X159340702Y-127285123D01*
X158441526Y-125901332D01*
X158126500Y-124204163D01*
X158126500Y-108959900D01*
X174649560Y-108959900D01*
X174649560Y-112959900D01*
X174693838Y-113195217D01*
X174832910Y-113411341D01*
X175045110Y-113556331D01*
X175297000Y-113607340D01*
X177764185Y-113607340D01*
X177779947Y-113645487D01*
X179082655Y-114950471D01*
X180785597Y-115657594D01*
X182629514Y-115659203D01*
X184333687Y-114955053D01*
X185638671Y-113652345D01*
X185657359Y-113607340D01*
X188118500Y-113607340D01*
X188353817Y-113563062D01*
X188569941Y-113423990D01*
X188714931Y-113211790D01*
X188765940Y-112959900D01*
X188765940Y-108959900D01*
X225703560Y-108959900D01*
X225703560Y-112959900D01*
X225747838Y-113195217D01*
X225886910Y-113411341D01*
X226099110Y-113556331D01*
X226351000Y-113607340D01*
X228818185Y-113607340D01*
X228833947Y-113645487D01*
X230136655Y-114950471D01*
X231839597Y-115657594D01*
X233683514Y-115659203D01*
X235387687Y-114955053D01*
X236692671Y-113652345D01*
X236711359Y-113607340D01*
X239172500Y-113607340D01*
X239407817Y-113563062D01*
X239623941Y-113423990D01*
X239768931Y-113211790D01*
X239819940Y-112959900D01*
X239819940Y-108959900D01*
X239775662Y-108724583D01*
X239636590Y-108508459D01*
X239424390Y-108363469D01*
X239172500Y-108312460D01*
X236608555Y-108312460D01*
X235394545Y-107096329D01*
X233691603Y-106389206D01*
X231847686Y-106387597D01*
X230143513Y-107091747D01*
X228920667Y-108312460D01*
X226351000Y-108312460D01*
X226115683Y-108356738D01*
X225899559Y-108495810D01*
X225754569Y-108708010D01*
X225703560Y-108959900D01*
X188765940Y-108959900D01*
X188721662Y-108724583D01*
X188582590Y-108508459D01*
X188370390Y-108363469D01*
X188118500Y-108312460D01*
X185554555Y-108312460D01*
X184340545Y-107096329D01*
X182637603Y-106389206D01*
X180793686Y-106387597D01*
X179089513Y-107091747D01*
X177866667Y-108312460D01*
X175297000Y-108312460D01*
X175061683Y-108356738D01*
X174845559Y-108495810D01*
X174700569Y-108708010D01*
X174649560Y-108959900D01*
X158126500Y-108959900D01*
X158126500Y-103873999D01*
X177461699Y-103873999D01*
X177725281Y-104511915D01*
X178212918Y-105000404D01*
X178850373Y-105265099D01*
X179540599Y-105265701D01*
X180178515Y-105002119D01*
X180447040Y-104734062D01*
X180712918Y-105000404D01*
X181350373Y-105265099D01*
X182040599Y-105265701D01*
X182678515Y-105002119D01*
X182947040Y-104734062D01*
X183212918Y-105000404D01*
X183850373Y-105265099D01*
X184540599Y-105265701D01*
X185178515Y-105002119D01*
X185667004Y-104514482D01*
X185931699Y-103877027D01*
X185931701Y-103873999D01*
X228515699Y-103873999D01*
X228779281Y-104511915D01*
X229266918Y-105000404D01*
X229904373Y-105265099D01*
X230594599Y-105265701D01*
X231232515Y-105002119D01*
X231501040Y-104734062D01*
X231766918Y-105000404D01*
X232404373Y-105265099D01*
X233094599Y-105265701D01*
X233732515Y-105002119D01*
X234001040Y-104734062D01*
X234266918Y-105000404D01*
X234904373Y-105265099D01*
X235594599Y-105265701D01*
X236232515Y-105002119D01*
X236721004Y-104514482D01*
X236985699Y-103877027D01*
X236986301Y-103186801D01*
X236722719Y-102548885D01*
X236235082Y-102060396D01*
X235597627Y-101795701D01*
X234907401Y-101795099D01*
X234269485Y-102058681D01*
X234000960Y-102326738D01*
X233735082Y-102060396D01*
X233097627Y-101795701D01*
X232407401Y-101795099D01*
X231769485Y-102058681D01*
X231500960Y-102326738D01*
X231235082Y-102060396D01*
X230597627Y-101795701D01*
X229907401Y-101795099D01*
X229269485Y-102058681D01*
X228780996Y-102546318D01*
X228516301Y-103183773D01*
X228515699Y-103873999D01*
X185931701Y-103873999D01*
X185932301Y-103186801D01*
X185668719Y-102548885D01*
X185181082Y-102060396D01*
X184543627Y-101795701D01*
X183853401Y-101795099D01*
X183215485Y-102058681D01*
X182946960Y-102326738D01*
X182681082Y-102060396D01*
X182043627Y-101795701D01*
X181353401Y-101795099D01*
X180715485Y-102058681D01*
X180446960Y-102326738D01*
X180181082Y-102060396D01*
X179543627Y-101795701D01*
X178853401Y-101795099D01*
X178215485Y-102058681D01*
X177726996Y-102546318D01*
X177462301Y-103183773D01*
X177461699Y-103873999D01*
X158126500Y-103873999D01*
X158126500Y-63957200D01*
X166676000Y-63957200D01*
X166676000Y-89992200D01*
X166730046Y-90263905D01*
X166883954Y-90494246D01*
X167114295Y-90648154D01*
X167386000Y-90702200D01*
X213106000Y-90702200D01*
X213377705Y-90648154D01*
X213608046Y-90494246D01*
X213761954Y-90263905D01*
X213816000Y-89992200D01*
X213816000Y-80029589D01*
X221582939Y-80029589D01*
X222513753Y-82282333D01*
X224235802Y-84007389D01*
X226486918Y-84942134D01*
X228924389Y-84944261D01*
X231177133Y-84013447D01*
X232902189Y-82291398D01*
X233836934Y-80040282D01*
X233836943Y-80029589D01*
X240378939Y-80029589D01*
X241309753Y-82282333D01*
X243031802Y-84007389D01*
X245282918Y-84942134D01*
X247720389Y-84944261D01*
X249973133Y-84013447D01*
X251698189Y-82291398D01*
X252632934Y-80040282D01*
X252635061Y-77602811D01*
X251704247Y-75350067D01*
X249982198Y-73625011D01*
X247731082Y-72690266D01*
X245293611Y-72688139D01*
X243040867Y-73618953D01*
X241315811Y-75341002D01*
X240381066Y-77592118D01*
X240378939Y-80029589D01*
X233836943Y-80029589D01*
X233839061Y-77602811D01*
X232908247Y-75350067D01*
X231186198Y-73625011D01*
X228935082Y-72690266D01*
X226497611Y-72688139D01*
X224244867Y-73618953D01*
X222519811Y-75341002D01*
X221585066Y-77592118D01*
X221582939Y-80029589D01*
X213816000Y-80029589D01*
X213816000Y-63957200D01*
X213761954Y-63685495D01*
X213608046Y-63455154D01*
X213377705Y-63301246D01*
X213106000Y-63247200D01*
X167386000Y-63247200D01*
X167114295Y-63301246D01*
X166883954Y-63455154D01*
X166730046Y-63685495D01*
X166676000Y-63957200D01*
X158126500Y-63957200D01*
X158126500Y-41732200D01*
X224461000Y-41732200D01*
X224461000Y-58242200D01*
X224515046Y-58513905D01*
X224668954Y-58744246D01*
X224899295Y-58898154D01*
X225171000Y-58952200D01*
X240665000Y-58952200D01*
X240936705Y-58898154D01*
X241167046Y-58744246D01*
X241320954Y-58513905D01*
X241375000Y-58242200D01*
X241372474Y-58229500D01*
X241375000Y-58216800D01*
X241375000Y-41732200D01*
X241320954Y-41460495D01*
X241167046Y-41230154D01*
X240936705Y-41076246D01*
X240665000Y-41022200D01*
X225171000Y-41022200D01*
X224899295Y-41076246D01*
X224668954Y-41230154D01*
X224515046Y-41460495D01*
X224461000Y-41732200D01*
X158126500Y-41732200D01*
X158126500Y-34491529D01*
X158483025Y-32811980D01*
X159417379Y-31451701D01*
X160801166Y-30552526D01*
X162498337Y-30237500D01*
X252210971Y-30237500D01*
X253890520Y-30594025D01*
X253890520Y-30594025D01*
G37*
X253890520Y-30594025D02*
X255250799Y-31528379D01*
X256149974Y-32912166D01*
X256465000Y-34609337D01*
X256465000Y-124321971D01*
X256108475Y-126001518D01*
X255174123Y-127361798D01*
X253790332Y-128260974D01*
X252093163Y-128576000D01*
X162380529Y-128576000D01*
X160700982Y-128219475D01*
X159340702Y-127285123D01*
X158441526Y-125901332D01*
X158126500Y-124204163D01*
X158126500Y-108959900D01*
X174649560Y-108959900D01*
X174649560Y-112959900D01*
X174693838Y-113195217D01*
X174832910Y-113411341D01*
X175045110Y-113556331D01*
X175297000Y-113607340D01*
X177764185Y-113607340D01*
X177779947Y-113645487D01*
X179082655Y-114950471D01*
X180785597Y-115657594D01*
X182629514Y-115659203D01*
X184333687Y-114955053D01*
X185638671Y-113652345D01*
X185657359Y-113607340D01*
X188118500Y-113607340D01*
X188353817Y-113563062D01*
X188569941Y-113423990D01*
X188714931Y-113211790D01*
X188765940Y-112959900D01*
X188765940Y-108959900D01*
X225703560Y-108959900D01*
X225703560Y-112959900D01*
X225747838Y-113195217D01*
X225886910Y-113411341D01*
X226099110Y-113556331D01*
X226351000Y-113607340D01*
X228818185Y-113607340D01*
X228833947Y-113645487D01*
X230136655Y-114950471D01*
X231839597Y-115657594D01*
X233683514Y-115659203D01*
X235387687Y-114955053D01*
X236692671Y-113652345D01*
X236711359Y-113607340D01*
X239172500Y-113607340D01*
X239407817Y-113563062D01*
X239623941Y-113423990D01*
X239768931Y-113211790D01*
X239819940Y-112959900D01*
X239819940Y-108959900D01*
X239775662Y-108724583D01*
X239636590Y-108508459D01*
X239424390Y-108363469D01*
X239172500Y-108312460D01*
X236608555Y-108312460D01*
X235394545Y-107096329D01*
X233691603Y-106389206D01*
X231847686Y-106387597D01*
X230143513Y-107091747D01*
X228920667Y-108312460D01*
X226351000Y-108312460D01*
X226115683Y-108356738D01*
X225899559Y-108495810D01*
X225754569Y-108708010D01*
X225703560Y-108959900D01*
X188765940Y-108959900D01*
X188721662Y-108724583D01*
X188582590Y-108508459D01*
X188370390Y-108363469D01*
X188118500Y-108312460D01*
X185554555Y-108312460D01*
X184340545Y-107096329D01*
X182637603Y-106389206D01*
X180793686Y-106387597D01*
X179089513Y-107091747D01*
X177866667Y-108312460D01*
X175297000Y-108312460D01*
X175061683Y-108356738D01*
X174845559Y-108495810D01*
X174700569Y-108708010D01*
X174649560Y-108959900D01*
X158126500Y-108959900D01*
X158126500Y-103873999D01*
X177461699Y-103873999D01*
X177725281Y-104511915D01*
X178212918Y-105000404D01*
X178850373Y-105265099D01*
X179540599Y-105265701D01*
X180178515Y-105002119D01*
X180447040Y-104734062D01*
X180712918Y-105000404D01*
X181350373Y-105265099D01*
X182040599Y-105265701D01*
X182678515Y-105002119D01*
X182947040Y-104734062D01*
X183212918Y-105000404D01*
X183850373Y-105265099D01*
X184540599Y-105265701D01*
X185178515Y-105002119D01*
X185667004Y-104514482D01*
X185931699Y-103877027D01*
X185931701Y-103873999D01*
X228515699Y-103873999D01*
X228779281Y-104511915D01*
X229266918Y-105000404D01*
X229904373Y-105265099D01*
X230594599Y-105265701D01*
X231232515Y-105002119D01*
X231501040Y-104734062D01*
X231766918Y-105000404D01*
X232404373Y-105265099D01*
X233094599Y-105265701D01*
X233732515Y-105002119D01*
X234001040Y-104734062D01*
X234266918Y-105000404D01*
X234904373Y-105265099D01*
X235594599Y-105265701D01*
X236232515Y-105002119D01*
X236721004Y-104514482D01*
X236985699Y-103877027D01*
X236986301Y-103186801D01*
X236722719Y-102548885D01*
X236235082Y-102060396D01*
X235597627Y-101795701D01*
X234907401Y-101795099D01*
X234269485Y-102058681D01*
X234000960Y-102326738D01*
X233735082Y-102060396D01*
X233097627Y-101795701D01*
X232407401Y-101795099D01*
X231769485Y-102058681D01*
X231500960Y-102326738D01*
X231235082Y-102060396D01*
X230597627Y-101795701D01*
X229907401Y-101795099D01*
X229269485Y-102058681D01*
X228780996Y-102546318D01*
X228516301Y-103183773D01*
X228515699Y-103873999D01*
X185931701Y-103873999D01*
X185932301Y-103186801D01*
X185668719Y-102548885D01*
X185181082Y-102060396D01*
X184543627Y-101795701D01*
X183853401Y-101795099D01*
X183215485Y-102058681D01*
X182946960Y-102326738D01*
X182681082Y-102060396D01*
X182043627Y-101795701D01*
X181353401Y-101795099D01*
X180715485Y-102058681D01*
X180446960Y-102326738D01*
X180181082Y-102060396D01*
X179543627Y-101795701D01*
X178853401Y-101795099D01*
X178215485Y-102058681D01*
X177726996Y-102546318D01*
X177462301Y-103183773D01*
X177461699Y-103873999D01*
X158126500Y-103873999D01*
X158126500Y-63957200D01*
X166676000Y-63957200D01*
X166676000Y-89992200D01*
X166730046Y-90263905D01*
X166883954Y-90494246D01*
X167114295Y-90648154D01*
X167386000Y-90702200D01*
X213106000Y-90702200D01*
X213377705Y-90648154D01*
X213608046Y-90494246D01*
X213761954Y-90263905D01*
X213816000Y-89992200D01*
X213816000Y-80029589D01*
X221582939Y-80029589D01*
X222513753Y-82282333D01*
X224235802Y-84007389D01*
X226486918Y-84942134D01*
X228924389Y-84944261D01*
X231177133Y-84013447D01*
X232902189Y-82291398D01*
X233836934Y-80040282D01*
X233836943Y-80029589D01*
X240378939Y-80029589D01*
X241309753Y-82282333D01*
X243031802Y-84007389D01*
X245282918Y-84942134D01*
X247720389Y-84944261D01*
X249973133Y-84013447D01*
X251698189Y-82291398D01*
X252632934Y-80040282D01*
X252635061Y-77602811D01*
X251704247Y-75350067D01*
X249982198Y-73625011D01*
X247731082Y-72690266D01*
X245293611Y-72688139D01*
X243040867Y-73618953D01*
X241315811Y-75341002D01*
X240381066Y-77592118D01*
X240378939Y-80029589D01*
X233836943Y-80029589D01*
X233839061Y-77602811D01*
X232908247Y-75350067D01*
X231186198Y-73625011D01*
X228935082Y-72690266D01*
X226497611Y-72688139D01*
X224244867Y-73618953D01*
X222519811Y-75341002D01*
X221585066Y-77592118D01*
X221582939Y-80029589D01*
X213816000Y-80029589D01*
X213816000Y-63957200D01*
X213761954Y-63685495D01*
X213608046Y-63455154D01*
X213377705Y-63301246D01*
X213106000Y-63247200D01*
X167386000Y-63247200D01*
X167114295Y-63301246D01*
X166883954Y-63455154D01*
X166730046Y-63685495D01*
X166676000Y-63957200D01*
X158126500Y-63957200D01*
X158126500Y-41732200D01*
X224461000Y-41732200D01*
X224461000Y-58242200D01*
X224515046Y-58513905D01*
X224668954Y-58744246D01*
X224899295Y-58898154D01*
X225171000Y-58952200D01*
X240665000Y-58952200D01*
X240936705Y-58898154D01*
X241167046Y-58744246D01*
X241320954Y-58513905D01*
X241375000Y-58242200D01*
X241372474Y-58229500D01*
X241375000Y-58216800D01*
X241375000Y-41732200D01*
X241320954Y-41460495D01*
X241167046Y-41230154D01*
X240936705Y-41076246D01*
X240665000Y-41022200D01*
X225171000Y-41022200D01*
X224899295Y-41076246D01*
X224668954Y-41230154D01*
X224515046Y-41460495D01*
X224461000Y-41732200D01*
X158126500Y-41732200D01*
X158126500Y-34491529D01*
X158483025Y-32811980D01*
X159417379Y-31451701D01*
X160801166Y-30552526D01*
X162498337Y-30237500D01*
X252210971Y-30237500D01*
X253890520Y-30594025D01*
M02*
