G04 #@! TF.FileFunction,Soldermask,Bot*
%FSLAX46Y46*%
G04 Gerber Fmt 4.6, Leading zero omitted, Abs format (unit mm)*
G04 Created by KiCad (PCBNEW 4.0.7) date 10/13/19 14:19:05*
%MOMM*%
%LPD*%
G01*
G04 APERTURE LIST*
%ADD10C,0.100000*%
%ADD11C,1.900000*%
%ADD12C,3.000000*%
%ADD13C,6.400000*%
%ADD14C,2.400000*%
%ADD15O,3.448000X2.432000*%
%ADD16C,4.400000*%
%ADD17O,2.600000X2.400000*%
%ADD18O,1.924000X4.464000*%
G04 APERTURE END LIST*
D10*
D11*
X67640200Y-109550200D03*
X67640200Y-107010200D03*
X67640200Y-104470200D03*
X67640200Y-101930200D03*
X70180200Y-110820200D03*
X70180200Y-108280200D03*
X70180200Y-105740200D03*
X70180200Y-103200200D03*
D12*
X57480200Y-98628200D03*
X57480200Y-114376200D03*
D11*
X67640200Y-93294200D03*
X67640200Y-90754200D03*
X67640200Y-88214200D03*
X67640200Y-85674200D03*
X70180200Y-94564200D03*
X70180200Y-92024200D03*
X70180200Y-89484200D03*
X70180200Y-86944200D03*
D12*
X57480200Y-82372200D03*
X57480200Y-98120200D03*
D13*
X117068600Y-52806600D03*
D14*
X74904600Y-115544600D03*
X92684600Y-115544600D03*
X92684600Y-75666600D03*
X74904600Y-75666600D03*
D13*
X82778600Y-127736600D03*
D15*
X90144600Y-126974600D03*
X109194600Y-126974600D03*
D16*
X86080600Y-67792600D03*
X81000600Y-67792600D03*
D13*
X117068600Y-127736600D03*
X82778600Y-52806600D03*
D16*
X109956600Y-67792600D03*
X104876600Y-67792600D03*
D11*
X67589400Y-125806200D03*
X67589400Y-123266200D03*
X67589400Y-120726200D03*
X67589400Y-118186200D03*
X70129400Y-127076200D03*
X70129400Y-124536200D03*
X70129400Y-121996200D03*
X70129400Y-119456200D03*
D12*
X57429400Y-114884200D03*
X57429400Y-130632200D03*
D11*
X67640200Y-60782200D03*
X67640200Y-58242200D03*
X67640200Y-55702200D03*
X67640200Y-53162200D03*
X70180200Y-62052200D03*
X70180200Y-59512200D03*
X70180200Y-56972200D03*
X70180200Y-54432200D03*
D12*
X57480200Y-49860200D03*
X57480200Y-65608200D03*
D14*
X98780600Y-115290600D03*
X116560600Y-115290600D03*
X116560600Y-75412600D03*
X98780600Y-75412600D03*
D17*
X133781800Y-69697600D03*
X133781800Y-67157600D03*
X133781800Y-64617600D03*
X133781800Y-62077600D03*
X131241800Y-70967600D03*
X131241800Y-68427600D03*
X131241800Y-65887600D03*
X131241800Y-63347600D03*
X133781800Y-111607600D03*
X133781800Y-109067600D03*
X133781800Y-106527600D03*
X133781800Y-103987600D03*
X131241800Y-112877600D03*
X131241800Y-110337600D03*
X131241800Y-107797600D03*
X131241800Y-105257600D03*
X133781800Y-125577600D03*
X133781800Y-123037600D03*
X133781800Y-120497600D03*
X133781800Y-117957600D03*
X131241800Y-126847600D03*
X131241800Y-124307600D03*
X131241800Y-121767600D03*
X131241800Y-119227600D03*
X133781800Y-97637600D03*
X133781800Y-95097600D03*
X133781800Y-92557600D03*
X133781800Y-90017600D03*
X131241800Y-98907600D03*
X131241800Y-96367600D03*
X131241800Y-93827600D03*
X131241800Y-91287600D03*
X133781800Y-83667600D03*
X133781800Y-81127600D03*
X133781800Y-78587600D03*
X133781800Y-76047600D03*
X131241800Y-84937600D03*
X131241800Y-82397600D03*
X131241800Y-79857600D03*
X131241800Y-77317600D03*
D11*
X67640200Y-77038200D03*
X67640200Y-74498200D03*
X67640200Y-71958200D03*
X67640200Y-69418200D03*
X70180200Y-78308200D03*
X70180200Y-75768200D03*
X70180200Y-73228200D03*
X70180200Y-70688200D03*
D12*
X57480200Y-66116200D03*
X57480200Y-81864200D03*
D18*
X92684600Y-56616600D03*
X96240600Y-56616600D03*
M02*
