M48
;DRILL file {KiCad 4.0.7} date 10/13/19 14:19:06
;FORMAT={-:-/ absolute / inch / decimal}
FMAT,2
INCH,TZ
T1C0.016
T2C0.030
T3C0.035
T4C0.039
T5C0.040
T6C0.047
T7C0.051
T8C0.063
T9C0.079
T10C0.118
%
G90
G05
M72
T1
X2.879Y-4.639
X2.879Y-4.699
X2.879Y-4.899
X3.059Y-4.449
X3.079Y-3.299
X3.079Y-3.349
X3.079Y-3.429
X3.079Y-3.619
X3.079Y-3.949
X3.079Y-4.019
X3.079Y-4.069
X3.079Y-4.259
X4.109Y-4.589
X4.199Y-3.299
X4.199Y-3.349
X4.199Y-3.429
X4.199Y-3.619
X4.409Y-3.949
X4.409Y-4.019
X4.409Y-4.069
X4.409Y-4.259
X4.409Y-4.449
X4.419Y-4.639
X4.419Y-4.699
X4.419Y-4.809
X4.989Y-3.359
T3
X2.661Y-4.653
X2.661Y-4.753
X2.661Y-4.853
X2.661Y-4.953
X2.663Y-2.093
X2.663Y-2.193
X2.663Y-2.293
X2.663Y-2.393
X2.663Y-2.733
X2.663Y-2.833
X2.663Y-2.933
X2.663Y-3.033
X2.663Y-3.373
X2.663Y-3.473
X2.663Y-3.573
X2.663Y-3.673
X2.663Y-4.013
X2.663Y-4.113
X2.663Y-4.213
X2.663Y-4.313
X2.761Y-4.703
X2.761Y-4.803
X2.761Y-4.903
X2.761Y-5.003
X2.763Y-2.143
X2.763Y-2.243
X2.763Y-2.343
X2.763Y-2.443
X2.763Y-2.783
X2.763Y-2.883
X2.763Y-2.983
X2.763Y-3.083
X2.763Y-3.423
X2.763Y-3.523
X2.763Y-3.623
X2.763Y-3.723
X2.763Y-4.063
X2.763Y-4.163
X2.763Y-4.263
X2.763Y-4.363
T4
X2.949Y-2.979
X2.949Y-4.549
X3.649Y-2.979
X3.649Y-4.549
X3.889Y-2.969
X3.889Y-4.539
X4.589Y-2.969
X4.589Y-4.539
T6
X5.167Y-2.494
X5.167Y-2.594
X5.167Y-2.694
X5.167Y-2.794
X5.167Y-3.044
X5.167Y-3.144
X5.167Y-3.244
X5.167Y-3.344
X5.167Y-3.594
X5.167Y-3.694
X5.167Y-3.794
X5.167Y-3.894
X5.167Y-4.144
X5.167Y-4.244
X5.167Y-4.344
X5.167Y-4.444
X5.167Y-4.694
X5.167Y-4.794
X5.167Y-4.894
X5.167Y-4.994
X5.267Y-2.544
X5.267Y-2.644
X5.267Y-2.744
X5.267Y-3.094
X5.267Y-3.194
X5.267Y-3.294
X5.267Y-3.644
X5.267Y-3.744
X5.267Y-3.844
X5.267Y-4.194
X5.267Y-4.294
X5.267Y-4.394
X5.267Y-4.744
X5.267Y-4.844
X5.267Y-4.944
T7
X5.267Y-2.444
X5.267Y-2.994
X5.267Y-3.544
X5.267Y-4.094
X5.267Y-4.644
T8
X2.261Y-4.523
X2.261Y-5.143
X2.263Y-1.963
X2.263Y-2.583
X2.263Y-2.603
X2.263Y-3.223
X2.263Y-3.243
X2.263Y-3.863
X2.263Y-3.883
X2.263Y-4.503
T9
X3.189Y-2.669
X3.389Y-2.669
X4.129Y-2.669
X4.329Y-2.669
T10
X3.259Y-2.079
X3.259Y-5.029
X4.609Y-2.079
X4.609Y-5.029
T2
X3.649Y-2.199G85X3.649Y-2.259
G05
X3.789Y-2.199G85X3.789Y-2.259
G05
T5
X3.529Y-4.999G85X3.569Y-4.999
G05
X4.279Y-4.999G85X4.319Y-4.999
G05
T0
M30
