G04 #@! TF.FileFunction,Copper,L2,Bot,Signal*
%FSLAX46Y46*%
G04 Gerber Fmt 4.6, Leading zero omitted, Abs format (unit mm)*
G04 Created by KiCad (PCBNEW 4.0.7) date 10/13/19 14:19:05*
%MOMM*%
%LPD*%
G01*
G04 APERTURE LIST*
%ADD10C,0.100000*%
%ADD11C,1.500000*%
%ADD12C,2.600000*%
%ADD13C,6.000000*%
%ADD14C,2.000000*%
%ADD15O,3.048000X2.032000*%
%ADD16C,4.000000*%
%ADD17O,2.200000X2.000000*%
%ADD18O,1.524000X4.064000*%
%ADD19C,0.600000*%
%ADD20C,0.250000*%
%ADD21C,1.000000*%
%ADD22C,0.254000*%
G04 APERTURE END LIST*
D10*
D11*
X67640200Y-109550200D03*
X67640200Y-107010200D03*
X67640200Y-104470200D03*
X67640200Y-101930200D03*
X70180200Y-110820200D03*
X70180200Y-108280200D03*
X70180200Y-105740200D03*
X70180200Y-103200200D03*
D12*
X57480200Y-98628200D03*
X57480200Y-114376200D03*
D11*
X67640200Y-93294200D03*
X67640200Y-90754200D03*
X67640200Y-88214200D03*
X67640200Y-85674200D03*
X70180200Y-94564200D03*
X70180200Y-92024200D03*
X70180200Y-89484200D03*
X70180200Y-86944200D03*
D12*
X57480200Y-82372200D03*
X57480200Y-98120200D03*
D13*
X117068600Y-52806600D03*
D14*
X74904600Y-115544600D03*
X92684600Y-115544600D03*
X92684600Y-75666600D03*
X74904600Y-75666600D03*
D13*
X82778600Y-127736600D03*
D15*
X90144600Y-126974600D03*
X109194600Y-126974600D03*
D16*
X86080600Y-67792600D03*
X81000600Y-67792600D03*
D13*
X117068600Y-127736600D03*
X82778600Y-52806600D03*
D16*
X109956600Y-67792600D03*
X104876600Y-67792600D03*
D11*
X67589400Y-125806200D03*
X67589400Y-123266200D03*
X67589400Y-120726200D03*
X67589400Y-118186200D03*
X70129400Y-127076200D03*
X70129400Y-124536200D03*
X70129400Y-121996200D03*
X70129400Y-119456200D03*
D12*
X57429400Y-114884200D03*
X57429400Y-130632200D03*
D11*
X67640200Y-60782200D03*
X67640200Y-58242200D03*
X67640200Y-55702200D03*
X67640200Y-53162200D03*
X70180200Y-62052200D03*
X70180200Y-59512200D03*
X70180200Y-56972200D03*
X70180200Y-54432200D03*
D12*
X57480200Y-49860200D03*
X57480200Y-65608200D03*
D14*
X98780600Y-115290600D03*
X116560600Y-115290600D03*
X116560600Y-75412600D03*
X98780600Y-75412600D03*
D17*
X133781800Y-69697600D03*
X133781800Y-67157600D03*
X133781800Y-64617600D03*
X133781800Y-62077600D03*
X131241800Y-70967600D03*
X131241800Y-68427600D03*
X131241800Y-65887600D03*
X131241800Y-63347600D03*
X133781800Y-111607600D03*
X133781800Y-109067600D03*
X133781800Y-106527600D03*
X133781800Y-103987600D03*
X131241800Y-112877600D03*
X131241800Y-110337600D03*
X131241800Y-107797600D03*
X131241800Y-105257600D03*
X133781800Y-125577600D03*
X133781800Y-123037600D03*
X133781800Y-120497600D03*
X133781800Y-117957600D03*
X131241800Y-126847600D03*
X131241800Y-124307600D03*
X131241800Y-121767600D03*
X131241800Y-119227600D03*
X133781800Y-97637600D03*
X133781800Y-95097600D03*
X133781800Y-92557600D03*
X133781800Y-90017600D03*
X131241800Y-98907600D03*
X131241800Y-96367600D03*
X131241800Y-93827600D03*
X131241800Y-91287600D03*
X133781800Y-83667600D03*
X133781800Y-81127600D03*
X133781800Y-78587600D03*
X133781800Y-76047600D03*
X131241800Y-84937600D03*
X131241800Y-82397600D03*
X131241800Y-79857600D03*
X131241800Y-77317600D03*
D11*
X67640200Y-77038200D03*
X67640200Y-74498200D03*
X67640200Y-71958200D03*
X67640200Y-69418200D03*
X70180200Y-78308200D03*
X70180200Y-75768200D03*
X70180200Y-73228200D03*
X70180200Y-70688200D03*
D12*
X57480200Y-66116200D03*
X57480200Y-81864200D03*
D18*
X92684600Y-56616600D03*
X96240600Y-56616600D03*
D19*
X78206600Y-100304600D03*
X111988600Y-100304600D03*
X111988600Y-102082600D03*
X78206600Y-102082600D03*
X111988600Y-103352600D03*
X78206600Y-103352600D03*
X106654600Y-83794600D03*
X126720600Y-85318600D03*
X78206600Y-83794600D03*
X78206600Y-85064600D03*
X106654600Y-85064600D03*
X106654600Y-91922600D03*
X78206600Y-91922600D03*
X106654600Y-87096600D03*
X78206600Y-87096600D03*
X112242600Y-122148600D03*
X73126600Y-124434600D03*
X112242600Y-119354600D03*
X73126600Y-119354600D03*
X77698600Y-113004600D03*
X111988600Y-113004600D03*
X112242600Y-117830600D03*
X73126600Y-117830600D03*
X111988600Y-108178600D03*
X78206600Y-108178600D03*
X104368600Y-116560600D03*
D20*
X111988600Y-100304600D02*
X111988600Y-100558600D01*
X79476600Y-101574600D02*
X78206600Y-100304600D01*
X110972600Y-101574600D02*
X79476600Y-101574600D01*
X111988600Y-100558600D02*
X110972600Y-101574600D01*
X78206600Y-102082600D02*
X111988600Y-102082600D01*
X78206600Y-103352600D02*
X78968600Y-102590600D01*
X111226600Y-102590600D02*
X111988600Y-103352600D01*
X78968600Y-102590600D02*
X111226600Y-102590600D01*
X78206600Y-83794600D02*
X78968600Y-84556600D01*
X105892600Y-84556600D02*
X106654600Y-83794600D01*
X78968600Y-84556600D02*
X105892600Y-84556600D01*
X131038600Y-86842600D02*
X128244600Y-86842600D01*
X133578600Y-86842600D02*
X131038600Y-86842600D01*
X135864600Y-89128600D02*
X133578600Y-86842600D01*
X135864600Y-91414600D02*
X135864600Y-89128600D01*
X134721600Y-92557600D02*
X135864600Y-91414600D01*
X128244600Y-86842600D02*
X126720600Y-85318600D01*
X133781800Y-92557600D02*
X134721600Y-92557600D01*
X78206600Y-85064600D02*
X106654600Y-85064600D01*
X67627500Y-85661500D02*
X67627500Y-85331300D01*
X78206600Y-91922600D02*
X106654600Y-91922600D01*
X78206600Y-87096600D02*
X106654600Y-87096600D01*
X70167500Y-86931500D02*
X70167500Y-86855300D01*
X70104000Y-86868000D02*
X70485000Y-86868000D01*
X67640200Y-71958200D02*
X72771000Y-71958200D01*
X78460600Y-63474600D02*
X119100600Y-63474600D01*
X76428600Y-65506600D02*
X78460600Y-63474600D01*
X76428600Y-68300600D02*
X76428600Y-65506600D01*
X72771000Y-71958200D02*
X76428600Y-68300600D01*
X133781800Y-78587600D02*
X133959600Y-78587600D01*
X133959600Y-78587600D02*
X135356600Y-77190600D01*
X135356600Y-74904600D02*
X135102600Y-74650600D01*
X135356600Y-77190600D02*
X135356600Y-74904600D01*
X133781800Y-78587600D02*
X134467600Y-78587600D01*
X130022600Y-74396600D02*
X128498600Y-72872600D01*
X134848600Y-74396600D02*
X130022600Y-74396600D01*
X135102600Y-74650600D02*
X134848600Y-74396600D01*
X119100600Y-63474600D02*
X128498600Y-72872600D01*
X128498600Y-72872600D02*
X128752600Y-73126600D01*
X129006600Y-81762600D02*
X129006600Y-74396600D01*
X129006600Y-74396600D02*
X128498600Y-73888600D01*
X70180200Y-75768200D02*
X70231000Y-75768200D01*
X70231000Y-75768200D02*
X77444600Y-68554600D01*
X77444600Y-68554600D02*
X77444600Y-65506600D01*
X77444600Y-65506600D02*
X78714600Y-64236600D01*
X78714600Y-64236600D02*
X118846600Y-64236600D01*
X118846600Y-64236600D02*
X128498600Y-73888600D01*
X70231000Y-75768200D02*
X73126600Y-72872600D01*
X129006600Y-81762600D02*
X129641600Y-82397600D01*
X129641600Y-82397600D02*
X131241800Y-82397600D01*
X66014600Y-52298600D02*
X66014600Y-52044600D01*
X80492600Y-48996600D02*
X80746600Y-48996600D01*
X78968600Y-50520600D02*
X80492600Y-48996600D01*
X78968600Y-55092600D02*
X78968600Y-50520600D01*
X77952600Y-56108600D02*
X78968600Y-55092600D01*
X73380600Y-56108600D02*
X77952600Y-56108600D01*
X72618600Y-55346600D02*
X73380600Y-56108600D01*
X72618600Y-53822600D02*
X72618600Y-55346600D01*
X71856600Y-53060600D02*
X72618600Y-53822600D01*
X70586600Y-53060600D02*
X71856600Y-53060600D01*
X70078600Y-53060600D02*
X70586600Y-53060600D01*
X68554600Y-51536600D02*
X70078600Y-53060600D01*
X66522600Y-51536600D02*
X68554600Y-51536600D01*
X66014600Y-52044600D02*
X66522600Y-51536600D01*
X135356600Y-61696600D02*
X135356600Y-61188600D01*
X118592600Y-48996600D02*
X80746600Y-48996600D01*
X135356600Y-63220600D02*
X135356600Y-61696600D01*
X135356600Y-61188600D02*
X134594600Y-60426600D01*
X134594600Y-60426600D02*
X127736600Y-60426600D01*
X127736600Y-60426600D02*
X123164600Y-55854600D01*
X123164600Y-55854600D02*
X121894600Y-55854600D01*
X121894600Y-55854600D02*
X120878600Y-54838600D01*
X120878600Y-54838600D02*
X120878600Y-50774600D01*
X120878600Y-50774600D02*
X119100600Y-48996600D01*
X119100600Y-48996600D02*
X118592600Y-48996600D01*
X133781800Y-64617600D02*
X133959600Y-64617600D01*
X133959600Y-64617600D02*
X135356600Y-63220600D01*
X66014600Y-52298600D02*
X66014600Y-55092600D01*
X66014600Y-55092600D02*
X66624200Y-55702200D01*
X66624200Y-55702200D02*
X67640200Y-55702200D01*
X133959600Y-64617600D02*
X135356600Y-63220600D01*
X70180200Y-59512200D02*
X70231000Y-59512200D01*
X70231000Y-59512200D02*
X71856600Y-57886600D01*
X129895600Y-68427600D02*
X131241800Y-68427600D01*
X129006600Y-67538600D02*
X129895600Y-68427600D01*
X129006600Y-62458600D02*
X129006600Y-67538600D01*
X123164600Y-56616600D02*
X129006600Y-62458600D01*
X115036600Y-56616600D02*
X123164600Y-56616600D01*
X113004600Y-54584600D02*
X115036600Y-56616600D01*
X113004600Y-50774600D02*
X113004600Y-54584600D01*
X111988600Y-49758600D02*
X113004600Y-50774600D01*
X88112600Y-49758600D02*
X111988600Y-49758600D01*
X87350600Y-50520600D02*
X88112600Y-49758600D01*
X87350600Y-54838600D02*
X87350600Y-50520600D01*
X85318600Y-56870600D02*
X87350600Y-54838600D01*
X72618600Y-56870600D02*
X85318600Y-56870600D01*
X71856600Y-57632600D02*
X72618600Y-56870600D01*
X71856600Y-57886600D02*
X71856600Y-57632600D01*
X75412600Y-122148600D02*
X112242600Y-122148600D01*
X73126600Y-124434600D02*
X75412600Y-122148600D01*
X70167500Y-124523500D02*
X70700900Y-124523500D01*
X73126600Y-119354600D02*
X112242600Y-119354600D01*
X77698600Y-113004600D02*
X111988600Y-113004600D01*
X67627500Y-120713500D02*
X67017900Y-120713500D01*
X112242600Y-117830600D02*
X111480600Y-118592600D01*
X73888600Y-118592600D02*
X73126600Y-117830600D01*
X111480600Y-118592600D02*
X73888600Y-118592600D01*
X78206600Y-108178600D02*
X111988600Y-108178600D01*
X105638600Y-115290600D02*
X116560600Y-115290600D01*
X104368600Y-116560600D02*
X105638600Y-115290600D01*
D21*
X70180200Y-62052200D02*
X70180200Y-62560200D01*
X70180200Y-62560200D02*
X70586600Y-62966600D01*
X92684600Y-58648600D02*
X92684600Y-56616600D01*
X91160600Y-60172600D02*
X92684600Y-58648600D01*
X76682600Y-60172600D02*
X91160600Y-60172600D01*
X73888600Y-62966600D02*
X76682600Y-60172600D01*
X70586600Y-62966600D02*
X73888600Y-62966600D01*
X70180200Y-62052200D02*
X68910200Y-62052200D01*
X68910200Y-62052200D02*
X67640200Y-60782200D01*
X92684600Y-56616600D02*
X92684600Y-57378600D01*
X92684600Y-57378600D02*
X90652600Y-59410600D01*
X90652600Y-59410600D02*
X76174600Y-59410600D01*
X76174600Y-59410600D02*
X73533000Y-62052200D01*
X73533000Y-62052200D02*
X70180200Y-62052200D01*
D22*
G36*
X78431199Y-49983199D02*
X78266452Y-50229761D01*
X78208600Y-50520600D01*
X78208600Y-54777798D01*
X77637798Y-55348600D01*
X73695402Y-55348600D01*
X73378600Y-55031798D01*
X73378600Y-53822600D01*
X73320748Y-53531761D01*
X73156001Y-53285199D01*
X72394001Y-52523199D01*
X72147439Y-52358452D01*
X71856600Y-52300600D01*
X70393402Y-52300600D01*
X69092001Y-50999199D01*
X68845439Y-50834452D01*
X68554600Y-50776600D01*
X66522600Y-50776600D01*
X66231761Y-50834452D01*
X65985199Y-50999199D01*
X65477199Y-51507199D01*
X65312452Y-51753761D01*
X65254600Y-52044600D01*
X65254600Y-55092600D01*
X65312452Y-55383439D01*
X65477199Y-55630001D01*
X66086799Y-56239601D01*
X66333361Y-56404348D01*
X66440560Y-56425671D01*
X66465369Y-56485715D01*
X66854636Y-56875661D01*
X67087070Y-56972176D01*
X66856685Y-57067369D01*
X66466739Y-57456636D01*
X66255441Y-57965498D01*
X66254960Y-58516485D01*
X66465369Y-59025715D01*
X66854636Y-59415661D01*
X67087070Y-59512176D01*
X66856685Y-59607369D01*
X66466739Y-59996636D01*
X66255441Y-60505498D01*
X66254960Y-61056485D01*
X66465369Y-61565715D01*
X66854636Y-61955661D01*
X67363498Y-62166959D01*
X67419876Y-62167008D01*
X68107634Y-62854766D01*
X68475854Y-63100803D01*
X68910200Y-63187200D01*
X69260324Y-63187200D01*
X69286939Y-63227031D01*
X69377634Y-63362766D01*
X69784034Y-63769166D01*
X70152254Y-64015203D01*
X70586600Y-64101600D01*
X73888600Y-64101600D01*
X74322946Y-64015203D01*
X74691166Y-63769166D01*
X77152732Y-61307600D01*
X91160600Y-61307600D01*
X91594946Y-61221203D01*
X91963166Y-60975166D01*
X93487166Y-59451167D01*
X93733203Y-59082946D01*
X93756817Y-58964230D01*
X93803224Y-58730929D01*
X93975260Y-58473459D01*
X94081600Y-57938850D01*
X94081600Y-56743600D01*
X94843600Y-56743600D01*
X94843600Y-58013600D01*
X94998541Y-58538541D01*
X95342574Y-58964230D01*
X95823323Y-59225860D01*
X95897530Y-59240820D01*
X96113600Y-59118320D01*
X96113600Y-56743600D01*
X96367600Y-56743600D01*
X96367600Y-59118320D01*
X96583670Y-59240820D01*
X96657877Y-59225860D01*
X97138626Y-58964230D01*
X97482659Y-58538541D01*
X97637600Y-58013600D01*
X97637600Y-56743600D01*
X96367600Y-56743600D01*
X96113600Y-56743600D01*
X94843600Y-56743600D01*
X94081600Y-56743600D01*
X94081600Y-55294350D01*
X94066732Y-55219600D01*
X94843600Y-55219600D01*
X94843600Y-56489600D01*
X96113600Y-56489600D01*
X96113600Y-54114880D01*
X96367600Y-54114880D01*
X96367600Y-56489600D01*
X97637600Y-56489600D01*
X97637600Y-55219600D01*
X97482659Y-54694659D01*
X97138626Y-54268970D01*
X96657877Y-54007340D01*
X96583670Y-53992380D01*
X96367600Y-54114880D01*
X96113600Y-54114880D01*
X95897530Y-53992380D01*
X95823323Y-54007340D01*
X95342574Y-54268970D01*
X94998541Y-54694659D01*
X94843600Y-55219600D01*
X94066732Y-55219600D01*
X93975260Y-54759741D01*
X93672428Y-54306522D01*
X93219209Y-54003690D01*
X92684600Y-53897350D01*
X92149991Y-54003690D01*
X91696772Y-54306522D01*
X91393940Y-54759741D01*
X91287600Y-55294350D01*
X91287600Y-57170468D01*
X90182468Y-58275600D01*
X76174600Y-58275600D01*
X75740255Y-58361996D01*
X75372034Y-58608033D01*
X73062868Y-60917200D01*
X71004158Y-60917200D01*
X70965764Y-60878739D01*
X70733330Y-60782224D01*
X70963715Y-60687031D01*
X71353661Y-60297764D01*
X71564959Y-59788902D01*
X71565427Y-59252575D01*
X72394001Y-58424001D01*
X72558748Y-58177439D01*
X72601503Y-57962499D01*
X72933402Y-57630600D01*
X85318600Y-57630600D01*
X85609439Y-57572748D01*
X85856001Y-57408001D01*
X87888001Y-55376001D01*
X88052748Y-55129439D01*
X88110600Y-54838600D01*
X88110600Y-50835402D01*
X88427402Y-50518600D01*
X111673798Y-50518600D01*
X112244600Y-51089402D01*
X112244600Y-54584600D01*
X112302452Y-54875439D01*
X112467199Y-55122001D01*
X114499199Y-57154001D01*
X114745761Y-57318748D01*
X115036600Y-57376600D01*
X122849798Y-57376600D01*
X128246600Y-62773402D01*
X128246600Y-67538600D01*
X128304452Y-67829439D01*
X128469199Y-68076001D01*
X129358199Y-68965001D01*
X129604761Y-69129748D01*
X129655038Y-69139749D01*
X129951689Y-69583720D01*
X130122123Y-69697600D01*
X129951689Y-69811480D01*
X129597266Y-70341913D01*
X129472809Y-70967600D01*
X129597266Y-71593287D01*
X129951689Y-72123720D01*
X130482122Y-72478143D01*
X131107809Y-72602600D01*
X131375791Y-72602600D01*
X132001478Y-72478143D01*
X132531911Y-72123720D01*
X132886334Y-71593287D01*
X132969887Y-71173240D01*
X133022122Y-71208143D01*
X133647809Y-71332600D01*
X133915791Y-71332600D01*
X134541478Y-71208143D01*
X135071911Y-70853720D01*
X135426334Y-70323287D01*
X135550791Y-69697600D01*
X135426334Y-69071913D01*
X135071911Y-68541480D01*
X134901477Y-68427600D01*
X135071911Y-68313720D01*
X135426334Y-67783287D01*
X135550791Y-67157600D01*
X135426334Y-66531913D01*
X135071911Y-66001480D01*
X134901477Y-65887600D01*
X135071911Y-65773720D01*
X135426334Y-65243287D01*
X135550791Y-64617600D01*
X135465116Y-64186886D01*
X135894001Y-63758001D01*
X136058748Y-63511440D01*
X136116600Y-63220600D01*
X136116600Y-61188600D01*
X136058748Y-60897761D01*
X135894001Y-60651199D01*
X135132001Y-59889199D01*
X134885439Y-59724452D01*
X134594600Y-59666600D01*
X128051402Y-59666600D01*
X123702001Y-55317199D01*
X123455439Y-55152452D01*
X123164600Y-55094600D01*
X122209402Y-55094600D01*
X121638600Y-54523798D01*
X121638600Y-50774600D01*
X121580748Y-50483761D01*
X121416001Y-50237199D01*
X119945602Y-48766800D01*
X135743696Y-48766800D01*
X135957327Y-48809294D01*
X136052089Y-48872611D01*
X136115406Y-48967373D01*
X136145200Y-49117156D01*
X136145200Y-88334398D01*
X134116001Y-86305199D01*
X133869439Y-86140452D01*
X133578600Y-86082600D01*
X132539341Y-86082600D01*
X132886334Y-85563287D01*
X132969887Y-85143240D01*
X133022122Y-85178143D01*
X133647809Y-85302600D01*
X133915791Y-85302600D01*
X134541478Y-85178143D01*
X135071911Y-84823720D01*
X135426334Y-84293287D01*
X135550791Y-83667600D01*
X135426334Y-83041913D01*
X135071911Y-82511480D01*
X134901477Y-82397600D01*
X135071911Y-82283720D01*
X135426334Y-81753287D01*
X135550791Y-81127600D01*
X135426334Y-80501913D01*
X135071911Y-79971480D01*
X134901477Y-79857600D01*
X135071911Y-79743720D01*
X135426334Y-79213287D01*
X135550791Y-78587600D01*
X135465116Y-78156886D01*
X135894001Y-77728001D01*
X136058748Y-77481440D01*
X136116600Y-77190600D01*
X136116600Y-74904600D01*
X136090801Y-74774902D01*
X136058748Y-74613760D01*
X135894001Y-74367199D01*
X135386001Y-73859199D01*
X135139439Y-73694452D01*
X134848600Y-73636600D01*
X130337402Y-73636600D01*
X119638001Y-62937199D01*
X119391439Y-62772452D01*
X119100600Y-62714600D01*
X78460600Y-62714600D01*
X78169761Y-62772452D01*
X77923199Y-62937199D01*
X75891199Y-64969199D01*
X75726452Y-65215761D01*
X75668600Y-65506600D01*
X75668600Y-67985798D01*
X72456198Y-71198200D01*
X71468085Y-71198200D01*
X71564959Y-70964902D01*
X71565440Y-70413915D01*
X71355031Y-69904685D01*
X70965764Y-69514739D01*
X70456902Y-69303441D01*
X69905915Y-69302960D01*
X69396685Y-69513369D01*
X69006739Y-69902636D01*
X68795441Y-70411498D01*
X68794960Y-70962485D01*
X68892355Y-71198200D01*
X68824747Y-71198200D01*
X68815031Y-71174685D01*
X68425764Y-70784739D01*
X68193330Y-70688224D01*
X68423715Y-70593031D01*
X68813661Y-70203764D01*
X69024959Y-69694902D01*
X69025440Y-69143915D01*
X68815031Y-68634685D01*
X68425764Y-68244739D01*
X67916902Y-68033441D01*
X67365915Y-68032960D01*
X66856685Y-68243369D01*
X66466739Y-68632636D01*
X66255441Y-69141498D01*
X66254960Y-69692485D01*
X66465369Y-70201715D01*
X66854636Y-70591661D01*
X67087070Y-70688176D01*
X66856685Y-70783369D01*
X66466739Y-71172636D01*
X66255441Y-71681498D01*
X66254960Y-72232485D01*
X66465369Y-72741715D01*
X66854636Y-73131661D01*
X67087070Y-73228176D01*
X66856685Y-73323369D01*
X66466739Y-73712636D01*
X66255441Y-74221498D01*
X66254960Y-74772485D01*
X66465369Y-75281715D01*
X66854636Y-75671661D01*
X67071179Y-75761577D01*
X66916277Y-75825740D01*
X66848288Y-76066683D01*
X67640200Y-76858595D01*
X68432112Y-76066683D01*
X68364123Y-75825740D01*
X68197579Y-75766468D01*
X68423715Y-75673031D01*
X68813661Y-75283764D01*
X69024959Y-74774902D01*
X69025440Y-74223915D01*
X68815031Y-73714685D01*
X68425764Y-73324739D01*
X68193330Y-73228224D01*
X68423715Y-73133031D01*
X68813661Y-72743764D01*
X68824276Y-72718200D01*
X68892315Y-72718200D01*
X68795441Y-72951498D01*
X68794960Y-73502485D01*
X69005369Y-74011715D01*
X69394636Y-74401661D01*
X69627070Y-74498176D01*
X69396685Y-74593369D01*
X69006739Y-74982636D01*
X68795441Y-75491498D01*
X68794960Y-76042485D01*
X69005369Y-76551715D01*
X69394636Y-76941661D01*
X69611179Y-77031577D01*
X69456277Y-77095740D01*
X69388288Y-77336683D01*
X70180200Y-78128595D01*
X70972112Y-77336683D01*
X70904123Y-77095740D01*
X70737579Y-77036468D01*
X70963715Y-76943031D01*
X71353661Y-76553764D01*
X71564959Y-76044902D01*
X71565006Y-75990395D01*
X73269316Y-75990395D01*
X73517706Y-76591543D01*
X73977237Y-77051878D01*
X74577952Y-77301316D01*
X75228395Y-77301884D01*
X75829543Y-77053494D01*
X76289878Y-76593963D01*
X76539316Y-75993248D01*
X76539318Y-75990395D01*
X91049316Y-75990395D01*
X91297706Y-76591543D01*
X91757237Y-77051878D01*
X92357952Y-77301316D01*
X93008395Y-77301884D01*
X93609543Y-77053494D01*
X94069878Y-76593963D01*
X94319316Y-75993248D01*
X94319540Y-75736395D01*
X97145316Y-75736395D01*
X97393706Y-76337543D01*
X97853237Y-76797878D01*
X98453952Y-77047316D01*
X99104395Y-77047884D01*
X99705543Y-76799494D01*
X100165878Y-76339963D01*
X100415316Y-75739248D01*
X100415318Y-75736395D01*
X114925316Y-75736395D01*
X115173706Y-76337543D01*
X115633237Y-76797878D01*
X116233952Y-77047316D01*
X116884395Y-77047884D01*
X117485543Y-76799494D01*
X117945878Y-76339963D01*
X118195316Y-75739248D01*
X118195884Y-75088805D01*
X117947494Y-74487657D01*
X117487963Y-74027322D01*
X116887248Y-73777884D01*
X116236805Y-73777316D01*
X115635657Y-74025706D01*
X115175322Y-74485237D01*
X114925884Y-75085952D01*
X114925316Y-75736395D01*
X100415318Y-75736395D01*
X100415884Y-75088805D01*
X100167494Y-74487657D01*
X99707963Y-74027322D01*
X99107248Y-73777884D01*
X98456805Y-73777316D01*
X97855657Y-74025706D01*
X97395322Y-74485237D01*
X97145884Y-75085952D01*
X97145316Y-75736395D01*
X94319540Y-75736395D01*
X94319884Y-75342805D01*
X94071494Y-74741657D01*
X93611963Y-74281322D01*
X93011248Y-74031884D01*
X92360805Y-74031316D01*
X91759657Y-74279706D01*
X91299322Y-74739237D01*
X91049884Y-75339952D01*
X91049316Y-75990395D01*
X76539318Y-75990395D01*
X76539884Y-75342805D01*
X76291494Y-74741657D01*
X75831963Y-74281322D01*
X75231248Y-74031884D01*
X74580805Y-74031316D01*
X73979657Y-74279706D01*
X73519322Y-74739237D01*
X73269884Y-75339952D01*
X73269316Y-75990395D01*
X71565006Y-75990395D01*
X71565427Y-75508575D01*
X77982001Y-69092001D01*
X78146748Y-68845439D01*
X78204600Y-68554600D01*
X78204600Y-68314434D01*
X78365143Y-68314434D01*
X78765453Y-69283258D01*
X79506043Y-70025142D01*
X80474167Y-70427142D01*
X81522434Y-70428057D01*
X82491258Y-70027747D01*
X83233142Y-69287157D01*
X83540861Y-68546088D01*
X83845453Y-69283258D01*
X84586043Y-70025142D01*
X85554167Y-70427142D01*
X86602434Y-70428057D01*
X87571258Y-70027747D01*
X88313142Y-69287157D01*
X88715142Y-68319033D01*
X88715146Y-68314434D01*
X102241143Y-68314434D01*
X102641453Y-69283258D01*
X103382043Y-70025142D01*
X104350167Y-70427142D01*
X105398434Y-70428057D01*
X106367258Y-70027747D01*
X107109142Y-69287157D01*
X107416861Y-68546088D01*
X107721453Y-69283258D01*
X108462043Y-70025142D01*
X109430167Y-70427142D01*
X110478434Y-70428057D01*
X111447258Y-70027747D01*
X112189142Y-69287157D01*
X112591142Y-68319033D01*
X112592057Y-67270766D01*
X112191747Y-66301942D01*
X111451157Y-65560058D01*
X110483033Y-65158058D01*
X109434766Y-65157143D01*
X108465942Y-65557453D01*
X107724058Y-66298043D01*
X107416339Y-67039112D01*
X107111747Y-66301942D01*
X106371157Y-65560058D01*
X105403033Y-65158058D01*
X104354766Y-65157143D01*
X103385942Y-65557453D01*
X102644058Y-66298043D01*
X102242058Y-67266167D01*
X102241143Y-68314434D01*
X88715146Y-68314434D01*
X88716057Y-67270766D01*
X88315747Y-66301942D01*
X87575157Y-65560058D01*
X86607033Y-65158058D01*
X85558766Y-65157143D01*
X84589942Y-65557453D01*
X83848058Y-66298043D01*
X83540339Y-67039112D01*
X83235747Y-66301942D01*
X82495157Y-65560058D01*
X81527033Y-65158058D01*
X80478766Y-65157143D01*
X79509942Y-65557453D01*
X78768058Y-66298043D01*
X78366058Y-67266167D01*
X78365143Y-68314434D01*
X78204600Y-68314434D01*
X78204600Y-65821402D01*
X79029402Y-64996600D01*
X118531798Y-64996600D01*
X128246600Y-74711402D01*
X128246600Y-81762600D01*
X128304452Y-82053439D01*
X128469199Y-82300001D01*
X129104199Y-82935001D01*
X129350761Y-83099748D01*
X129641600Y-83157600D01*
X129687011Y-83157600D01*
X129951689Y-83553720D01*
X130122123Y-83667600D01*
X129951689Y-83781480D01*
X129597266Y-84311913D01*
X129472809Y-84937600D01*
X129597266Y-85563287D01*
X129944259Y-86082600D01*
X128559402Y-86082600D01*
X127655722Y-85178920D01*
X127655762Y-85133433D01*
X127513717Y-84789657D01*
X127250927Y-84526408D01*
X126907399Y-84383762D01*
X126535433Y-84383438D01*
X126191657Y-84525483D01*
X125928408Y-84788273D01*
X125785762Y-85131801D01*
X125785438Y-85503767D01*
X125927483Y-85847543D01*
X126190273Y-86110792D01*
X126533801Y-86253438D01*
X126580677Y-86253479D01*
X127707199Y-87380001D01*
X127953760Y-87544748D01*
X128002014Y-87554346D01*
X128244600Y-87602600D01*
X133263798Y-87602600D01*
X134075583Y-88414385D01*
X133915791Y-88382600D01*
X133647809Y-88382600D01*
X133022122Y-88507057D01*
X132491689Y-88861480D01*
X132137266Y-89391913D01*
X132053713Y-89811960D01*
X132001478Y-89777057D01*
X131375791Y-89652600D01*
X131107809Y-89652600D01*
X130482122Y-89777057D01*
X129951689Y-90131480D01*
X129597266Y-90661913D01*
X129472809Y-91287600D01*
X129597266Y-91913287D01*
X129951689Y-92443720D01*
X130122123Y-92557600D01*
X129951689Y-92671480D01*
X129597266Y-93201913D01*
X129472809Y-93827600D01*
X129597266Y-94453287D01*
X129951689Y-94983720D01*
X130122123Y-95097600D01*
X129951689Y-95211480D01*
X129597266Y-95741913D01*
X129472809Y-96367600D01*
X129597266Y-96993287D01*
X129951689Y-97523720D01*
X130122123Y-97637600D01*
X129951689Y-97751480D01*
X129597266Y-98281913D01*
X129472809Y-98907600D01*
X129597266Y-99533287D01*
X129951689Y-100063720D01*
X130482122Y-100418143D01*
X131107809Y-100542600D01*
X131375791Y-100542600D01*
X132001478Y-100418143D01*
X132531911Y-100063720D01*
X132886334Y-99533287D01*
X132969887Y-99113240D01*
X133022122Y-99148143D01*
X133647809Y-99272600D01*
X133915791Y-99272600D01*
X134541478Y-99148143D01*
X135071911Y-98793720D01*
X135426334Y-98263287D01*
X135550791Y-97637600D01*
X135426334Y-97011913D01*
X135071911Y-96481480D01*
X134901477Y-96367600D01*
X135071911Y-96253720D01*
X135426334Y-95723287D01*
X135550791Y-95097600D01*
X135426334Y-94471913D01*
X135071911Y-93941480D01*
X134901477Y-93827600D01*
X135071911Y-93713720D01*
X135426334Y-93183287D01*
X135489805Y-92864197D01*
X136145200Y-92208802D01*
X136145200Y-131476844D01*
X136115406Y-131626627D01*
X136052089Y-131721389D01*
X135957327Y-131784706D01*
X135743696Y-131827200D01*
X58971208Y-131827200D01*
X59068857Y-131729721D01*
X59364063Y-131018784D01*
X59364735Y-130248993D01*
X59070770Y-129537542D01*
X58526921Y-128992743D01*
X57815984Y-128697537D01*
X57046193Y-128696865D01*
X56463000Y-128937835D01*
X56463000Y-126177920D01*
X65712075Y-126177920D01*
X65997229Y-126868046D01*
X66524776Y-127396516D01*
X67214404Y-127682874D01*
X67961120Y-127683525D01*
X68292798Y-127546478D01*
X68537229Y-128138046D01*
X69064776Y-128666516D01*
X69754404Y-128952874D01*
X70501120Y-128953525D01*
X71191246Y-128668371D01*
X71403513Y-128456474D01*
X79142970Y-128456474D01*
X79695200Y-129792972D01*
X80716849Y-130816406D01*
X82052382Y-131370968D01*
X83498474Y-131372230D01*
X84834972Y-130820000D01*
X85858406Y-129798351D01*
X86412968Y-128462818D01*
X86414230Y-127016726D01*
X86396824Y-126974600D01*
X106993303Y-126974600D01*
X107118978Y-127606410D01*
X107476870Y-128142033D01*
X108012493Y-128499925D01*
X108644303Y-128625600D01*
X109744897Y-128625600D01*
X110376707Y-128499925D01*
X110441735Y-128456474D01*
X113432970Y-128456474D01*
X113985200Y-129792972D01*
X115006849Y-130816406D01*
X116342382Y-131370968D01*
X117788474Y-131372230D01*
X119124972Y-130820000D01*
X120148406Y-129798351D01*
X120702968Y-128462818D01*
X120704230Y-127016726D01*
X120152000Y-125680228D01*
X119130351Y-124656794D01*
X117794818Y-124102232D01*
X116348726Y-124100970D01*
X115012228Y-124653200D01*
X113988794Y-125674849D01*
X113434232Y-127010382D01*
X113432970Y-128456474D01*
X110441735Y-128456474D01*
X110912330Y-128142033D01*
X111270222Y-127606410D01*
X111395897Y-126974600D01*
X111270222Y-126342790D01*
X110912330Y-125807167D01*
X110376707Y-125449275D01*
X109744897Y-125323600D01*
X108644303Y-125323600D01*
X108012493Y-125449275D01*
X107476870Y-125807167D01*
X107118978Y-126342790D01*
X106993303Y-126974600D01*
X86396824Y-126974600D01*
X85862000Y-125680228D01*
X84840351Y-124656794D01*
X83504818Y-124102232D01*
X82058726Y-124100970D01*
X80722228Y-124653200D01*
X79698794Y-125674849D01*
X79144232Y-127010382D01*
X79142970Y-128456474D01*
X71403513Y-128456474D01*
X71719716Y-128140824D01*
X72006074Y-127451196D01*
X72006725Y-126704480D01*
X71721571Y-126014354D01*
X71194024Y-125485884D01*
X71154779Y-125469588D01*
X71302861Y-125321764D01*
X71514159Y-124812902D01*
X71514327Y-124619767D01*
X72191438Y-124619767D01*
X72333483Y-124963543D01*
X72596273Y-125226792D01*
X72939801Y-125369438D01*
X73311767Y-125369762D01*
X73655543Y-125227717D01*
X73918792Y-124964927D01*
X74061438Y-124621399D01*
X74061479Y-124574523D01*
X75727402Y-122908600D01*
X111680137Y-122908600D01*
X111712273Y-122940792D01*
X112055801Y-123083438D01*
X112427767Y-123083762D01*
X112771543Y-122941717D01*
X113034792Y-122678927D01*
X113177438Y-122335399D01*
X113177762Y-121963433D01*
X113035717Y-121619657D01*
X112772927Y-121356408D01*
X112429399Y-121213762D01*
X112057433Y-121213438D01*
X111713657Y-121355483D01*
X111680482Y-121388600D01*
X75412600Y-121388600D01*
X75121760Y-121446452D01*
X74875199Y-121611199D01*
X72986920Y-123499478D01*
X72941433Y-123499438D01*
X72597657Y-123641483D01*
X72334408Y-123904273D01*
X72191762Y-124247801D01*
X72191438Y-124619767D01*
X71514327Y-124619767D01*
X71514640Y-124261915D01*
X71304231Y-123752685D01*
X70914964Y-123362739D01*
X70682530Y-123266224D01*
X70912915Y-123171031D01*
X71302861Y-122781764D01*
X71514159Y-122272902D01*
X71514640Y-121721915D01*
X71304231Y-121212685D01*
X70914964Y-120822739D01*
X70682530Y-120726224D01*
X70912915Y-120631031D01*
X71302861Y-120241764D01*
X71514159Y-119732902D01*
X71514640Y-119181915D01*
X71304231Y-118672685D01*
X70914964Y-118282739D01*
X70406102Y-118071441D01*
X69855115Y-118070960D01*
X69345885Y-118281369D01*
X68955939Y-118670636D01*
X68744641Y-119179498D01*
X68744160Y-119730485D01*
X68954569Y-120239715D01*
X69343836Y-120629661D01*
X69576270Y-120726176D01*
X69345885Y-120821369D01*
X68955939Y-121210636D01*
X68744641Y-121719498D01*
X68744160Y-122270485D01*
X68954569Y-122779715D01*
X69343836Y-123169661D01*
X69576270Y-123266176D01*
X69345885Y-123361369D01*
X68955939Y-123750636D01*
X68744641Y-124259498D01*
X68744600Y-124306618D01*
X68654024Y-124215884D01*
X68614779Y-124199588D01*
X68762861Y-124051764D01*
X68974159Y-123542902D01*
X68974640Y-122991915D01*
X68764231Y-122482685D01*
X68374964Y-122092739D01*
X68142530Y-121996224D01*
X68372915Y-121901031D01*
X68762861Y-121511764D01*
X68974159Y-121002902D01*
X68974640Y-120451915D01*
X68764231Y-119942685D01*
X68374964Y-119552739D01*
X68142530Y-119456224D01*
X68372915Y-119361031D01*
X68762861Y-118971764D01*
X68974159Y-118462902D01*
X68974549Y-118015767D01*
X72191438Y-118015767D01*
X72333483Y-118359543D01*
X72566309Y-118592776D01*
X72334408Y-118824273D01*
X72191762Y-119167801D01*
X72191438Y-119539767D01*
X72333483Y-119883543D01*
X72596273Y-120146792D01*
X72939801Y-120289438D01*
X73311767Y-120289762D01*
X73655543Y-120147717D01*
X73688718Y-120114600D01*
X111680137Y-120114600D01*
X111712273Y-120146792D01*
X112055801Y-120289438D01*
X112427767Y-120289762D01*
X112771543Y-120147717D01*
X113034792Y-119884927D01*
X113177438Y-119541399D01*
X113177711Y-119227600D01*
X129472809Y-119227600D01*
X129597266Y-119853287D01*
X129951689Y-120383720D01*
X130122123Y-120497600D01*
X129951689Y-120611480D01*
X129597266Y-121141913D01*
X129472809Y-121767600D01*
X129597266Y-122393287D01*
X129951689Y-122923720D01*
X130122123Y-123037600D01*
X129951689Y-123151480D01*
X129597266Y-123681913D01*
X129472809Y-124307600D01*
X129597266Y-124933287D01*
X129951689Y-125463720D01*
X130122123Y-125577600D01*
X129951689Y-125691480D01*
X129597266Y-126221913D01*
X129472809Y-126847600D01*
X129597266Y-127473287D01*
X129951689Y-128003720D01*
X130482122Y-128358143D01*
X131107809Y-128482600D01*
X131375791Y-128482600D01*
X132001478Y-128358143D01*
X132531911Y-128003720D01*
X132886334Y-127473287D01*
X132969887Y-127053240D01*
X133022122Y-127088143D01*
X133647809Y-127212600D01*
X133915791Y-127212600D01*
X134541478Y-127088143D01*
X135071911Y-126733720D01*
X135426334Y-126203287D01*
X135550791Y-125577600D01*
X135426334Y-124951913D01*
X135071911Y-124421480D01*
X134901477Y-124307600D01*
X135071911Y-124193720D01*
X135426334Y-123663287D01*
X135550791Y-123037600D01*
X135426334Y-122411913D01*
X135071911Y-121881480D01*
X134901477Y-121767600D01*
X135071911Y-121653720D01*
X135426334Y-121123287D01*
X135550791Y-120497600D01*
X135426334Y-119871913D01*
X135071911Y-119341480D01*
X134901477Y-119227600D01*
X135071911Y-119113720D01*
X135426334Y-118583287D01*
X135550791Y-117957600D01*
X135426334Y-117331913D01*
X135071911Y-116801480D01*
X134541478Y-116447057D01*
X133915791Y-116322600D01*
X133647809Y-116322600D01*
X133022122Y-116447057D01*
X132491689Y-116801480D01*
X132137266Y-117331913D01*
X132053713Y-117751960D01*
X132001478Y-117717057D01*
X131375791Y-117592600D01*
X131107809Y-117592600D01*
X130482122Y-117717057D01*
X129951689Y-118071480D01*
X129597266Y-118601913D01*
X129472809Y-119227600D01*
X113177711Y-119227600D01*
X113177762Y-119169433D01*
X113035717Y-118825657D01*
X112802891Y-118592424D01*
X113034792Y-118360927D01*
X113177438Y-118017399D01*
X113177762Y-117645433D01*
X113035717Y-117301657D01*
X112772927Y-117038408D01*
X112429399Y-116895762D01*
X112057433Y-116895438D01*
X111713657Y-117037483D01*
X111450408Y-117300273D01*
X111307762Y-117643801D01*
X111307721Y-117690677D01*
X111165798Y-117832600D01*
X74203402Y-117832600D01*
X74061722Y-117690920D01*
X74061762Y-117645433D01*
X73988080Y-117467109D01*
X74479657Y-117671230D01*
X75325830Y-117671968D01*
X76107874Y-117348834D01*
X76706731Y-116751022D01*
X77031230Y-115969543D01*
X77031318Y-115868395D01*
X91049316Y-115868395D01*
X91297706Y-116469543D01*
X91757237Y-116929878D01*
X92357952Y-117179316D01*
X93008395Y-117179884D01*
X93609543Y-116931494D01*
X94069878Y-116471963D01*
X94081849Y-116443132D01*
X97807673Y-116443132D01*
X97906336Y-116709987D01*
X98516061Y-116936508D01*
X99166060Y-116912456D01*
X99568483Y-116745767D01*
X103433438Y-116745767D01*
X103575483Y-117089543D01*
X103838273Y-117352792D01*
X104181801Y-117495438D01*
X104553767Y-117495762D01*
X104897543Y-117353717D01*
X105160792Y-117090927D01*
X105303438Y-116747399D01*
X105303479Y-116700523D01*
X105953402Y-116050600D01*
X115105553Y-116050600D01*
X115173706Y-116215543D01*
X115633237Y-116675878D01*
X116233952Y-116925316D01*
X116884395Y-116925884D01*
X117485543Y-116677494D01*
X117945878Y-116217963D01*
X118195316Y-115617248D01*
X118195884Y-114966805D01*
X117947494Y-114365657D01*
X117487963Y-113905322D01*
X116887248Y-113655884D01*
X116236805Y-113655316D01*
X115635657Y-113903706D01*
X115175322Y-114363237D01*
X115105827Y-114530600D01*
X105638600Y-114530600D01*
X105347760Y-114588452D01*
X105101199Y-114753199D01*
X104228920Y-115625478D01*
X104183433Y-115625438D01*
X103839657Y-115767483D01*
X103576408Y-116030273D01*
X103433762Y-116373801D01*
X103433438Y-116745767D01*
X99568483Y-116745767D01*
X99654864Y-116709987D01*
X99753527Y-116443132D01*
X98780600Y-115470205D01*
X97807673Y-116443132D01*
X94081849Y-116443132D01*
X94319316Y-115871248D01*
X94319884Y-115220805D01*
X94239418Y-115026061D01*
X97134692Y-115026061D01*
X97158744Y-115676060D01*
X97361213Y-116164864D01*
X97628068Y-116263527D01*
X98600995Y-115290600D01*
X98960205Y-115290600D01*
X99933132Y-116263527D01*
X100199987Y-116164864D01*
X100426508Y-115555139D01*
X100402456Y-114905140D01*
X100199987Y-114416336D01*
X99933132Y-114317673D01*
X98960205Y-115290600D01*
X98600995Y-115290600D01*
X97628068Y-114317673D01*
X97361213Y-114416336D01*
X97134692Y-115026061D01*
X94239418Y-115026061D01*
X94071494Y-114619657D01*
X93611963Y-114159322D01*
X93011248Y-113909884D01*
X92360805Y-113909316D01*
X91759657Y-114157706D01*
X91299322Y-114617237D01*
X91049884Y-115217952D01*
X91049316Y-115868395D01*
X77031318Y-115868395D01*
X77031968Y-115123370D01*
X76708834Y-114341326D01*
X76111022Y-113742469D01*
X75329543Y-113417970D01*
X74483370Y-113417232D01*
X73701326Y-113740366D01*
X73102469Y-114338178D01*
X72777970Y-115119657D01*
X72777232Y-115965830D01*
X73100366Y-116747874D01*
X73247939Y-116895705D01*
X72941433Y-116895438D01*
X72597657Y-117037483D01*
X72334408Y-117300273D01*
X72191762Y-117643801D01*
X72191438Y-118015767D01*
X68974549Y-118015767D01*
X68974640Y-117911915D01*
X68764231Y-117402685D01*
X68374964Y-117012739D01*
X67866102Y-116801441D01*
X67315115Y-116800960D01*
X66805885Y-117011369D01*
X66415939Y-117400636D01*
X66204641Y-117909498D01*
X66204160Y-118460485D01*
X66414569Y-118969715D01*
X66803836Y-119359661D01*
X67036270Y-119456176D01*
X66805885Y-119551369D01*
X66415939Y-119940636D01*
X66204641Y-120449498D01*
X66204160Y-121000485D01*
X66414569Y-121509715D01*
X66803836Y-121899661D01*
X67036270Y-121996176D01*
X66805885Y-122091369D01*
X66415939Y-122480636D01*
X66204641Y-122989498D01*
X66204160Y-123540485D01*
X66414569Y-124049715D01*
X66563691Y-124199097D01*
X66527554Y-124214029D01*
X65999084Y-124741576D01*
X65712726Y-125431204D01*
X65712075Y-126177920D01*
X56463000Y-126177920D01*
X56463000Y-116578103D01*
X57042816Y-116818863D01*
X57812607Y-116819535D01*
X58524058Y-116525570D01*
X59068857Y-115981721D01*
X59364063Y-115270784D01*
X59364400Y-114884312D01*
X59414863Y-114762784D01*
X59415535Y-113992993D01*
X59121570Y-113281542D01*
X59029956Y-113189767D01*
X76763438Y-113189767D01*
X76905483Y-113533543D01*
X77168273Y-113796792D01*
X77511801Y-113939438D01*
X77883767Y-113939762D01*
X78227543Y-113797717D01*
X78260718Y-113764600D01*
X98163723Y-113764600D01*
X97906336Y-113871213D01*
X97807673Y-114138068D01*
X98780600Y-115110995D01*
X99753527Y-114138068D01*
X99654864Y-113871213D01*
X99367895Y-113764600D01*
X111426137Y-113764600D01*
X111458273Y-113796792D01*
X111801801Y-113939438D01*
X112173767Y-113939762D01*
X112517543Y-113797717D01*
X112780792Y-113534927D01*
X112923438Y-113191399D01*
X112923762Y-112819433D01*
X112781717Y-112475657D01*
X112518927Y-112212408D01*
X112175399Y-112069762D01*
X111803433Y-112069438D01*
X111459657Y-112211483D01*
X111426482Y-112244600D01*
X78261063Y-112244600D01*
X78228927Y-112212408D01*
X77885399Y-112069762D01*
X77513433Y-112069438D01*
X77169657Y-112211483D01*
X76906408Y-112474273D01*
X76763762Y-112817801D01*
X76763438Y-113189767D01*
X59029956Y-113189767D01*
X58577721Y-112736743D01*
X57866784Y-112441537D01*
X57096993Y-112440865D01*
X56463000Y-112702825D01*
X56463000Y-111791717D01*
X69388288Y-111791717D01*
X69456277Y-112032660D01*
X69975371Y-112217401D01*
X70525648Y-112189430D01*
X70904123Y-112032660D01*
X70972112Y-111791717D01*
X70180200Y-110999805D01*
X69388288Y-111791717D01*
X56463000Y-111791717D01*
X56463000Y-110521717D01*
X66848288Y-110521717D01*
X66916277Y-110762660D01*
X67435371Y-110947401D01*
X67985648Y-110919430D01*
X68364123Y-110762660D01*
X68405684Y-110615371D01*
X68782999Y-110615371D01*
X68810970Y-111165648D01*
X68967740Y-111544123D01*
X69208683Y-111612112D01*
X70000595Y-110820200D01*
X70359805Y-110820200D01*
X71151717Y-111612112D01*
X71392660Y-111544123D01*
X71577401Y-111025029D01*
X71549430Y-110474752D01*
X71392660Y-110096277D01*
X71151717Y-110028288D01*
X70359805Y-110820200D01*
X70000595Y-110820200D01*
X69208683Y-110028288D01*
X68967740Y-110096277D01*
X68782999Y-110615371D01*
X68405684Y-110615371D01*
X68432112Y-110521717D01*
X67640200Y-109729805D01*
X66848288Y-110521717D01*
X56463000Y-110521717D01*
X56463000Y-109345371D01*
X66242999Y-109345371D01*
X66270970Y-109895648D01*
X66427740Y-110274123D01*
X66668683Y-110342112D01*
X67460595Y-109550200D01*
X67819805Y-109550200D01*
X68611717Y-110342112D01*
X68852660Y-110274123D01*
X69037401Y-109755029D01*
X69009430Y-109204752D01*
X68852660Y-108826277D01*
X68611717Y-108758288D01*
X67819805Y-109550200D01*
X67460595Y-109550200D01*
X66668683Y-108758288D01*
X66427740Y-108826277D01*
X66242999Y-109345371D01*
X56463000Y-109345371D01*
X56463000Y-102204485D01*
X66254960Y-102204485D01*
X66465369Y-102713715D01*
X66854636Y-103103661D01*
X67087070Y-103200176D01*
X66856685Y-103295369D01*
X66466739Y-103684636D01*
X66255441Y-104193498D01*
X66254960Y-104744485D01*
X66465369Y-105253715D01*
X66854636Y-105643661D01*
X67087070Y-105740176D01*
X66856685Y-105835369D01*
X66466739Y-106224636D01*
X66255441Y-106733498D01*
X66254960Y-107284485D01*
X66465369Y-107793715D01*
X66854636Y-108183661D01*
X67071179Y-108273577D01*
X66916277Y-108337740D01*
X66848288Y-108578683D01*
X67640200Y-109370595D01*
X68432112Y-108578683D01*
X68364123Y-108337740D01*
X68197579Y-108278468D01*
X68423715Y-108185031D01*
X68813661Y-107795764D01*
X69024959Y-107286902D01*
X69025440Y-106735915D01*
X68815031Y-106226685D01*
X68425764Y-105836739D01*
X68193330Y-105740224D01*
X68423715Y-105645031D01*
X68813661Y-105255764D01*
X69024959Y-104746902D01*
X69025440Y-104195915D01*
X68815031Y-103686685D01*
X68603201Y-103474485D01*
X68794960Y-103474485D01*
X69005369Y-103983715D01*
X69394636Y-104373661D01*
X69627070Y-104470176D01*
X69396685Y-104565369D01*
X69006739Y-104954636D01*
X68795441Y-105463498D01*
X68794960Y-106014485D01*
X69005369Y-106523715D01*
X69394636Y-106913661D01*
X69627070Y-107010176D01*
X69396685Y-107105369D01*
X69006739Y-107494636D01*
X68795441Y-108003498D01*
X68794960Y-108554485D01*
X69005369Y-109063715D01*
X69394636Y-109453661D01*
X69611179Y-109543577D01*
X69456277Y-109607740D01*
X69388288Y-109848683D01*
X70180200Y-110640595D01*
X70972112Y-109848683D01*
X70904123Y-109607740D01*
X70737579Y-109548468D01*
X70963715Y-109455031D01*
X71353661Y-109065764D01*
X71564959Y-108556902D01*
X71565127Y-108363767D01*
X77271438Y-108363767D01*
X77413483Y-108707543D01*
X77676273Y-108970792D01*
X78019801Y-109113438D01*
X78391767Y-109113762D01*
X78735543Y-108971717D01*
X78768718Y-108938600D01*
X111426137Y-108938600D01*
X111458273Y-108970792D01*
X111801801Y-109113438D01*
X112173767Y-109113762D01*
X112517543Y-108971717D01*
X112780792Y-108708927D01*
X112923438Y-108365399D01*
X112923762Y-107993433D01*
X112781717Y-107649657D01*
X112518927Y-107386408D01*
X112175399Y-107243762D01*
X111803433Y-107243438D01*
X111459657Y-107385483D01*
X111426482Y-107418600D01*
X78769063Y-107418600D01*
X78736927Y-107386408D01*
X78393399Y-107243762D01*
X78021433Y-107243438D01*
X77677657Y-107385483D01*
X77414408Y-107648273D01*
X77271762Y-107991801D01*
X77271438Y-108363767D01*
X71565127Y-108363767D01*
X71565440Y-108005915D01*
X71355031Y-107496685D01*
X70965764Y-107106739D01*
X70733330Y-107010224D01*
X70963715Y-106915031D01*
X71353661Y-106525764D01*
X71564959Y-106016902D01*
X71565440Y-105465915D01*
X71479367Y-105257600D01*
X129472809Y-105257600D01*
X129597266Y-105883287D01*
X129951689Y-106413720D01*
X130122123Y-106527600D01*
X129951689Y-106641480D01*
X129597266Y-107171913D01*
X129472809Y-107797600D01*
X129597266Y-108423287D01*
X129951689Y-108953720D01*
X130122123Y-109067600D01*
X129951689Y-109181480D01*
X129597266Y-109711913D01*
X129472809Y-110337600D01*
X129597266Y-110963287D01*
X129951689Y-111493720D01*
X130122123Y-111607600D01*
X129951689Y-111721480D01*
X129597266Y-112251913D01*
X129472809Y-112877600D01*
X129597266Y-113503287D01*
X129951689Y-114033720D01*
X130482122Y-114388143D01*
X131107809Y-114512600D01*
X131375791Y-114512600D01*
X132001478Y-114388143D01*
X132531911Y-114033720D01*
X132886334Y-113503287D01*
X132969887Y-113083240D01*
X133022122Y-113118143D01*
X133647809Y-113242600D01*
X133915791Y-113242600D01*
X134541478Y-113118143D01*
X135071911Y-112763720D01*
X135426334Y-112233287D01*
X135550791Y-111607600D01*
X135426334Y-110981913D01*
X135071911Y-110451480D01*
X134901477Y-110337600D01*
X135071911Y-110223720D01*
X135426334Y-109693287D01*
X135550791Y-109067600D01*
X135426334Y-108441913D01*
X135071911Y-107911480D01*
X134901477Y-107797600D01*
X135071911Y-107683720D01*
X135426334Y-107153287D01*
X135550791Y-106527600D01*
X135426334Y-105901913D01*
X135071911Y-105371480D01*
X134901477Y-105257600D01*
X135071911Y-105143720D01*
X135426334Y-104613287D01*
X135550791Y-103987600D01*
X135426334Y-103361913D01*
X135071911Y-102831480D01*
X134541478Y-102477057D01*
X133915791Y-102352600D01*
X133647809Y-102352600D01*
X133022122Y-102477057D01*
X132491689Y-102831480D01*
X132137266Y-103361913D01*
X132053713Y-103781960D01*
X132001478Y-103747057D01*
X131375791Y-103622600D01*
X131107809Y-103622600D01*
X130482122Y-103747057D01*
X129951689Y-104101480D01*
X129597266Y-104631913D01*
X129472809Y-105257600D01*
X71479367Y-105257600D01*
X71355031Y-104956685D01*
X70965764Y-104566739D01*
X70733330Y-104470224D01*
X70963715Y-104375031D01*
X71353661Y-103985764D01*
X71564959Y-103476902D01*
X71565440Y-102925915D01*
X71355031Y-102416685D01*
X70965764Y-102026739D01*
X70456902Y-101815441D01*
X69905915Y-101814960D01*
X69396685Y-102025369D01*
X69006739Y-102414636D01*
X68795441Y-102923498D01*
X68794960Y-103474485D01*
X68603201Y-103474485D01*
X68425764Y-103296739D01*
X68193330Y-103200224D01*
X68423715Y-103105031D01*
X68813661Y-102715764D01*
X69024959Y-102206902D01*
X69025440Y-101655915D01*
X68815031Y-101146685D01*
X68425764Y-100756739D01*
X67916902Y-100545441D01*
X67365915Y-100544960D01*
X66856685Y-100755369D01*
X66466739Y-101144636D01*
X66255441Y-101653498D01*
X66254960Y-102204485D01*
X56463000Y-102204485D01*
X56463000Y-100301009D01*
X57093616Y-100562863D01*
X57863407Y-100563535D01*
X58041939Y-100489767D01*
X77271438Y-100489767D01*
X77413483Y-100833543D01*
X77676273Y-101096792D01*
X77909561Y-101193662D01*
X77677657Y-101289483D01*
X77414408Y-101552273D01*
X77271762Y-101895801D01*
X77271438Y-102267767D01*
X77413483Y-102611543D01*
X77519310Y-102717554D01*
X77414408Y-102822273D01*
X77271762Y-103165801D01*
X77271438Y-103537767D01*
X77413483Y-103881543D01*
X77676273Y-104144792D01*
X78019801Y-104287438D01*
X78391767Y-104287762D01*
X78735543Y-104145717D01*
X78998792Y-103882927D01*
X79141438Y-103539399D01*
X79141479Y-103492523D01*
X79283402Y-103350600D01*
X110911798Y-103350600D01*
X111053478Y-103492280D01*
X111053438Y-103537767D01*
X111195483Y-103881543D01*
X111458273Y-104144792D01*
X111801801Y-104287438D01*
X112173767Y-104287762D01*
X112517543Y-104145717D01*
X112780792Y-103882927D01*
X112923438Y-103539399D01*
X112923762Y-103167433D01*
X112781717Y-102823657D01*
X112675890Y-102717646D01*
X112780792Y-102612927D01*
X112923438Y-102269399D01*
X112923762Y-101897433D01*
X112781717Y-101553657D01*
X112518927Y-101290408D01*
X112386558Y-101235444D01*
X112526001Y-101096001D01*
X112539500Y-101075798D01*
X112780792Y-100834927D01*
X112923438Y-100491399D01*
X112923762Y-100119433D01*
X112781717Y-99775657D01*
X112518927Y-99512408D01*
X112175399Y-99369762D01*
X111803433Y-99369438D01*
X111459657Y-99511483D01*
X111196408Y-99774273D01*
X111053762Y-100117801D01*
X111053500Y-100418898D01*
X110657798Y-100814600D01*
X79791402Y-100814600D01*
X79141722Y-100164920D01*
X79141762Y-100119433D01*
X78999717Y-99775657D01*
X78736927Y-99512408D01*
X78393399Y-99369762D01*
X78021433Y-99369438D01*
X77677657Y-99511483D01*
X77414408Y-99774273D01*
X77271762Y-100117801D01*
X77271438Y-100489767D01*
X58041939Y-100489767D01*
X58574858Y-100269570D01*
X59119657Y-99725721D01*
X59414863Y-99014784D01*
X59415535Y-98244993D01*
X59415092Y-98243922D01*
X59415535Y-97736993D01*
X59121570Y-97025542D01*
X58577721Y-96480743D01*
X57866784Y-96185537D01*
X57096993Y-96184865D01*
X56463000Y-96446825D01*
X56463000Y-95535717D01*
X69388288Y-95535717D01*
X69456277Y-95776660D01*
X69975371Y-95961401D01*
X70525648Y-95933430D01*
X70904123Y-95776660D01*
X70972112Y-95535717D01*
X70180200Y-94743805D01*
X69388288Y-95535717D01*
X56463000Y-95535717D01*
X56463000Y-94265717D01*
X66848288Y-94265717D01*
X66916277Y-94506660D01*
X67435371Y-94691401D01*
X67985648Y-94663430D01*
X68364123Y-94506660D01*
X68405684Y-94359371D01*
X68782999Y-94359371D01*
X68810970Y-94909648D01*
X68967740Y-95288123D01*
X69208683Y-95356112D01*
X70000595Y-94564200D01*
X70359805Y-94564200D01*
X71151717Y-95356112D01*
X71392660Y-95288123D01*
X71577401Y-94769029D01*
X71549430Y-94218752D01*
X71392660Y-93840277D01*
X71151717Y-93772288D01*
X70359805Y-94564200D01*
X70000595Y-94564200D01*
X69208683Y-93772288D01*
X68967740Y-93840277D01*
X68782999Y-94359371D01*
X68405684Y-94359371D01*
X68432112Y-94265717D01*
X67640200Y-93473805D01*
X66848288Y-94265717D01*
X56463000Y-94265717D01*
X56463000Y-93089371D01*
X66242999Y-93089371D01*
X66270970Y-93639648D01*
X66427740Y-94018123D01*
X66668683Y-94086112D01*
X67460595Y-93294200D01*
X67819805Y-93294200D01*
X68611717Y-94086112D01*
X68852660Y-94018123D01*
X69037401Y-93499029D01*
X69009430Y-92948752D01*
X68852660Y-92570277D01*
X68611717Y-92502288D01*
X67819805Y-93294200D01*
X67460595Y-93294200D01*
X66668683Y-92502288D01*
X66427740Y-92570277D01*
X66242999Y-93089371D01*
X56463000Y-93089371D01*
X56463000Y-85948485D01*
X66254960Y-85948485D01*
X66465369Y-86457715D01*
X66854636Y-86847661D01*
X67087070Y-86944176D01*
X66856685Y-87039369D01*
X66466739Y-87428636D01*
X66255441Y-87937498D01*
X66254960Y-88488485D01*
X66465369Y-88997715D01*
X66854636Y-89387661D01*
X67087070Y-89484176D01*
X66856685Y-89579369D01*
X66466739Y-89968636D01*
X66255441Y-90477498D01*
X66254960Y-91028485D01*
X66465369Y-91537715D01*
X66854636Y-91927661D01*
X67071179Y-92017577D01*
X66916277Y-92081740D01*
X66848288Y-92322683D01*
X67640200Y-93114595D01*
X68432112Y-92322683D01*
X68364123Y-92081740D01*
X68197579Y-92022468D01*
X68423715Y-91929031D01*
X68813661Y-91539764D01*
X69024959Y-91030902D01*
X69025440Y-90479915D01*
X68815031Y-89970685D01*
X68425764Y-89580739D01*
X68193330Y-89484224D01*
X68423715Y-89389031D01*
X68813661Y-88999764D01*
X69024959Y-88490902D01*
X69025440Y-87939915D01*
X68815031Y-87430685D01*
X68603201Y-87218485D01*
X68794960Y-87218485D01*
X69005369Y-87727715D01*
X69394636Y-88117661D01*
X69627070Y-88214176D01*
X69396685Y-88309369D01*
X69006739Y-88698636D01*
X68795441Y-89207498D01*
X68794960Y-89758485D01*
X69005369Y-90267715D01*
X69394636Y-90657661D01*
X69627070Y-90754176D01*
X69396685Y-90849369D01*
X69006739Y-91238636D01*
X68795441Y-91747498D01*
X68794960Y-92298485D01*
X69005369Y-92807715D01*
X69394636Y-93197661D01*
X69611179Y-93287577D01*
X69456277Y-93351740D01*
X69388288Y-93592683D01*
X70180200Y-94384595D01*
X70972112Y-93592683D01*
X70904123Y-93351740D01*
X70737579Y-93292468D01*
X70963715Y-93199031D01*
X71353661Y-92809764D01*
X71564959Y-92300902D01*
X71565127Y-92107767D01*
X77271438Y-92107767D01*
X77413483Y-92451543D01*
X77676273Y-92714792D01*
X78019801Y-92857438D01*
X78391767Y-92857762D01*
X78735543Y-92715717D01*
X78768718Y-92682600D01*
X106092137Y-92682600D01*
X106124273Y-92714792D01*
X106467801Y-92857438D01*
X106839767Y-92857762D01*
X107183543Y-92715717D01*
X107446792Y-92452927D01*
X107589438Y-92109399D01*
X107589762Y-91737433D01*
X107447717Y-91393657D01*
X107184927Y-91130408D01*
X106841399Y-90987762D01*
X106469433Y-90987438D01*
X106125657Y-91129483D01*
X106092482Y-91162600D01*
X78769063Y-91162600D01*
X78736927Y-91130408D01*
X78393399Y-90987762D01*
X78021433Y-90987438D01*
X77677657Y-91129483D01*
X77414408Y-91392273D01*
X77271762Y-91735801D01*
X77271438Y-92107767D01*
X71565127Y-92107767D01*
X71565440Y-91749915D01*
X71355031Y-91240685D01*
X70965764Y-90850739D01*
X70733330Y-90754224D01*
X70963715Y-90659031D01*
X71353661Y-90269764D01*
X71564959Y-89760902D01*
X71565440Y-89209915D01*
X71355031Y-88700685D01*
X70965764Y-88310739D01*
X70733330Y-88214224D01*
X70963715Y-88119031D01*
X71353661Y-87729764D01*
X71539685Y-87281767D01*
X77271438Y-87281767D01*
X77413483Y-87625543D01*
X77676273Y-87888792D01*
X78019801Y-88031438D01*
X78391767Y-88031762D01*
X78735543Y-87889717D01*
X78768718Y-87856600D01*
X106092137Y-87856600D01*
X106124273Y-87888792D01*
X106467801Y-88031438D01*
X106839767Y-88031762D01*
X107183543Y-87889717D01*
X107446792Y-87626927D01*
X107589438Y-87283399D01*
X107589762Y-86911433D01*
X107447717Y-86567657D01*
X107184927Y-86304408D01*
X106841399Y-86161762D01*
X106469433Y-86161438D01*
X106125657Y-86303483D01*
X106092482Y-86336600D01*
X78769063Y-86336600D01*
X78736927Y-86304408D01*
X78393399Y-86161762D01*
X78021433Y-86161438D01*
X77677657Y-86303483D01*
X77414408Y-86566273D01*
X77271762Y-86909801D01*
X77271438Y-87281767D01*
X71539685Y-87281767D01*
X71564959Y-87220902D01*
X71565440Y-86669915D01*
X71355031Y-86160685D01*
X70965764Y-85770739D01*
X70456902Y-85559441D01*
X69905915Y-85558960D01*
X69396685Y-85769369D01*
X69006739Y-86158636D01*
X68795441Y-86667498D01*
X68794960Y-87218485D01*
X68603201Y-87218485D01*
X68425764Y-87040739D01*
X68193330Y-86944224D01*
X68423715Y-86849031D01*
X68813661Y-86459764D01*
X69024959Y-85950902D01*
X69025440Y-85399915D01*
X68815031Y-84890685D01*
X68425764Y-84500739D01*
X67916902Y-84289441D01*
X67365915Y-84288960D01*
X66856685Y-84499369D01*
X66466739Y-84888636D01*
X66255441Y-85397498D01*
X66254960Y-85948485D01*
X56463000Y-85948485D01*
X56463000Y-84045009D01*
X57093616Y-84306863D01*
X57863407Y-84307535D01*
X58574858Y-84013570D01*
X58608720Y-83979767D01*
X77271438Y-83979767D01*
X77413483Y-84323543D01*
X77519310Y-84429554D01*
X77414408Y-84534273D01*
X77271762Y-84877801D01*
X77271438Y-85249767D01*
X77413483Y-85593543D01*
X77676273Y-85856792D01*
X78019801Y-85999438D01*
X78391767Y-85999762D01*
X78735543Y-85857717D01*
X78768718Y-85824600D01*
X106092137Y-85824600D01*
X106124273Y-85856792D01*
X106467801Y-85999438D01*
X106839767Y-85999762D01*
X107183543Y-85857717D01*
X107446792Y-85594927D01*
X107589438Y-85251399D01*
X107589762Y-84879433D01*
X107447717Y-84535657D01*
X107341890Y-84429646D01*
X107446792Y-84324927D01*
X107589438Y-83981399D01*
X107589762Y-83609433D01*
X107447717Y-83265657D01*
X107184927Y-83002408D01*
X106841399Y-82859762D01*
X106469433Y-82859438D01*
X106125657Y-83001483D01*
X105862408Y-83264273D01*
X105719762Y-83607801D01*
X105719721Y-83654677D01*
X105577798Y-83796600D01*
X79283402Y-83796600D01*
X79141722Y-83654920D01*
X79141762Y-83609433D01*
X78999717Y-83265657D01*
X78736927Y-83002408D01*
X78393399Y-82859762D01*
X78021433Y-82859438D01*
X77677657Y-83001483D01*
X77414408Y-83264273D01*
X77271762Y-83607801D01*
X77271438Y-83979767D01*
X58608720Y-83979767D01*
X59119657Y-83469721D01*
X59414863Y-82758784D01*
X59415535Y-81988993D01*
X59415092Y-81987922D01*
X59415535Y-81480993D01*
X59121570Y-80769542D01*
X58577721Y-80224743D01*
X57866784Y-79929537D01*
X57096993Y-79928865D01*
X56463000Y-80190825D01*
X56463000Y-79279717D01*
X69388288Y-79279717D01*
X69456277Y-79520660D01*
X69975371Y-79705401D01*
X70525648Y-79677430D01*
X70904123Y-79520660D01*
X70972112Y-79279717D01*
X70180200Y-78487805D01*
X69388288Y-79279717D01*
X56463000Y-79279717D01*
X56463000Y-78009717D01*
X66848288Y-78009717D01*
X66916277Y-78250660D01*
X67435371Y-78435401D01*
X67985648Y-78407430D01*
X68364123Y-78250660D01*
X68405684Y-78103371D01*
X68782999Y-78103371D01*
X68810970Y-78653648D01*
X68967740Y-79032123D01*
X69208683Y-79100112D01*
X70000595Y-78308200D01*
X70359805Y-78308200D01*
X71151717Y-79100112D01*
X71392660Y-79032123D01*
X71577401Y-78513029D01*
X71549430Y-77962752D01*
X71392660Y-77584277D01*
X71151717Y-77516288D01*
X70359805Y-78308200D01*
X70000595Y-78308200D01*
X69208683Y-77516288D01*
X68967740Y-77584277D01*
X68782999Y-78103371D01*
X68405684Y-78103371D01*
X68432112Y-78009717D01*
X67640200Y-77217805D01*
X66848288Y-78009717D01*
X56463000Y-78009717D01*
X56463000Y-76833371D01*
X66242999Y-76833371D01*
X66270970Y-77383648D01*
X66427740Y-77762123D01*
X66668683Y-77830112D01*
X67460595Y-77038200D01*
X67819805Y-77038200D01*
X68611717Y-77830112D01*
X68852660Y-77762123D01*
X69037401Y-77243029D01*
X69009430Y-76692752D01*
X68852660Y-76314277D01*
X68611717Y-76246288D01*
X67819805Y-77038200D01*
X67460595Y-77038200D01*
X66668683Y-76246288D01*
X66427740Y-76314277D01*
X66242999Y-76833371D01*
X56463000Y-76833371D01*
X56463000Y-67789009D01*
X57093616Y-68050863D01*
X57863407Y-68051535D01*
X58574858Y-67757570D01*
X59119657Y-67213721D01*
X59414863Y-66502784D01*
X59415535Y-65732993D01*
X59415092Y-65731922D01*
X59415535Y-65224993D01*
X59121570Y-64513542D01*
X58577721Y-63968743D01*
X57866784Y-63673537D01*
X57096993Y-63672865D01*
X56463000Y-63934825D01*
X56463000Y-51533009D01*
X57093616Y-51794863D01*
X57863407Y-51795535D01*
X58574858Y-51501570D01*
X59119657Y-50957721D01*
X59414863Y-50246784D01*
X59415535Y-49476993D01*
X59122090Y-48766800D01*
X79647598Y-48766800D01*
X78431199Y-49983199D01*
X78431199Y-49983199D01*
G37*
X78431199Y-49983199D02*
X78266452Y-50229761D01*
X78208600Y-50520600D01*
X78208600Y-54777798D01*
X77637798Y-55348600D01*
X73695402Y-55348600D01*
X73378600Y-55031798D01*
X73378600Y-53822600D01*
X73320748Y-53531761D01*
X73156001Y-53285199D01*
X72394001Y-52523199D01*
X72147439Y-52358452D01*
X71856600Y-52300600D01*
X70393402Y-52300600D01*
X69092001Y-50999199D01*
X68845439Y-50834452D01*
X68554600Y-50776600D01*
X66522600Y-50776600D01*
X66231761Y-50834452D01*
X65985199Y-50999199D01*
X65477199Y-51507199D01*
X65312452Y-51753761D01*
X65254600Y-52044600D01*
X65254600Y-55092600D01*
X65312452Y-55383439D01*
X65477199Y-55630001D01*
X66086799Y-56239601D01*
X66333361Y-56404348D01*
X66440560Y-56425671D01*
X66465369Y-56485715D01*
X66854636Y-56875661D01*
X67087070Y-56972176D01*
X66856685Y-57067369D01*
X66466739Y-57456636D01*
X66255441Y-57965498D01*
X66254960Y-58516485D01*
X66465369Y-59025715D01*
X66854636Y-59415661D01*
X67087070Y-59512176D01*
X66856685Y-59607369D01*
X66466739Y-59996636D01*
X66255441Y-60505498D01*
X66254960Y-61056485D01*
X66465369Y-61565715D01*
X66854636Y-61955661D01*
X67363498Y-62166959D01*
X67419876Y-62167008D01*
X68107634Y-62854766D01*
X68475854Y-63100803D01*
X68910200Y-63187200D01*
X69260324Y-63187200D01*
X69286939Y-63227031D01*
X69377634Y-63362766D01*
X69784034Y-63769166D01*
X70152254Y-64015203D01*
X70586600Y-64101600D01*
X73888600Y-64101600D01*
X74322946Y-64015203D01*
X74691166Y-63769166D01*
X77152732Y-61307600D01*
X91160600Y-61307600D01*
X91594946Y-61221203D01*
X91963166Y-60975166D01*
X93487166Y-59451167D01*
X93733203Y-59082946D01*
X93756817Y-58964230D01*
X93803224Y-58730929D01*
X93975260Y-58473459D01*
X94081600Y-57938850D01*
X94081600Y-56743600D01*
X94843600Y-56743600D01*
X94843600Y-58013600D01*
X94998541Y-58538541D01*
X95342574Y-58964230D01*
X95823323Y-59225860D01*
X95897530Y-59240820D01*
X96113600Y-59118320D01*
X96113600Y-56743600D01*
X96367600Y-56743600D01*
X96367600Y-59118320D01*
X96583670Y-59240820D01*
X96657877Y-59225860D01*
X97138626Y-58964230D01*
X97482659Y-58538541D01*
X97637600Y-58013600D01*
X97637600Y-56743600D01*
X96367600Y-56743600D01*
X96113600Y-56743600D01*
X94843600Y-56743600D01*
X94081600Y-56743600D01*
X94081600Y-55294350D01*
X94066732Y-55219600D01*
X94843600Y-55219600D01*
X94843600Y-56489600D01*
X96113600Y-56489600D01*
X96113600Y-54114880D01*
X96367600Y-54114880D01*
X96367600Y-56489600D01*
X97637600Y-56489600D01*
X97637600Y-55219600D01*
X97482659Y-54694659D01*
X97138626Y-54268970D01*
X96657877Y-54007340D01*
X96583670Y-53992380D01*
X96367600Y-54114880D01*
X96113600Y-54114880D01*
X95897530Y-53992380D01*
X95823323Y-54007340D01*
X95342574Y-54268970D01*
X94998541Y-54694659D01*
X94843600Y-55219600D01*
X94066732Y-55219600D01*
X93975260Y-54759741D01*
X93672428Y-54306522D01*
X93219209Y-54003690D01*
X92684600Y-53897350D01*
X92149991Y-54003690D01*
X91696772Y-54306522D01*
X91393940Y-54759741D01*
X91287600Y-55294350D01*
X91287600Y-57170468D01*
X90182468Y-58275600D01*
X76174600Y-58275600D01*
X75740255Y-58361996D01*
X75372034Y-58608033D01*
X73062868Y-60917200D01*
X71004158Y-60917200D01*
X70965764Y-60878739D01*
X70733330Y-60782224D01*
X70963715Y-60687031D01*
X71353661Y-60297764D01*
X71564959Y-59788902D01*
X71565427Y-59252575D01*
X72394001Y-58424001D01*
X72558748Y-58177439D01*
X72601503Y-57962499D01*
X72933402Y-57630600D01*
X85318600Y-57630600D01*
X85609439Y-57572748D01*
X85856001Y-57408001D01*
X87888001Y-55376001D01*
X88052748Y-55129439D01*
X88110600Y-54838600D01*
X88110600Y-50835402D01*
X88427402Y-50518600D01*
X111673798Y-50518600D01*
X112244600Y-51089402D01*
X112244600Y-54584600D01*
X112302452Y-54875439D01*
X112467199Y-55122001D01*
X114499199Y-57154001D01*
X114745761Y-57318748D01*
X115036600Y-57376600D01*
X122849798Y-57376600D01*
X128246600Y-62773402D01*
X128246600Y-67538600D01*
X128304452Y-67829439D01*
X128469199Y-68076001D01*
X129358199Y-68965001D01*
X129604761Y-69129748D01*
X129655038Y-69139749D01*
X129951689Y-69583720D01*
X130122123Y-69697600D01*
X129951689Y-69811480D01*
X129597266Y-70341913D01*
X129472809Y-70967600D01*
X129597266Y-71593287D01*
X129951689Y-72123720D01*
X130482122Y-72478143D01*
X131107809Y-72602600D01*
X131375791Y-72602600D01*
X132001478Y-72478143D01*
X132531911Y-72123720D01*
X132886334Y-71593287D01*
X132969887Y-71173240D01*
X133022122Y-71208143D01*
X133647809Y-71332600D01*
X133915791Y-71332600D01*
X134541478Y-71208143D01*
X135071911Y-70853720D01*
X135426334Y-70323287D01*
X135550791Y-69697600D01*
X135426334Y-69071913D01*
X135071911Y-68541480D01*
X134901477Y-68427600D01*
X135071911Y-68313720D01*
X135426334Y-67783287D01*
X135550791Y-67157600D01*
X135426334Y-66531913D01*
X135071911Y-66001480D01*
X134901477Y-65887600D01*
X135071911Y-65773720D01*
X135426334Y-65243287D01*
X135550791Y-64617600D01*
X135465116Y-64186886D01*
X135894001Y-63758001D01*
X136058748Y-63511440D01*
X136116600Y-63220600D01*
X136116600Y-61188600D01*
X136058748Y-60897761D01*
X135894001Y-60651199D01*
X135132001Y-59889199D01*
X134885439Y-59724452D01*
X134594600Y-59666600D01*
X128051402Y-59666600D01*
X123702001Y-55317199D01*
X123455439Y-55152452D01*
X123164600Y-55094600D01*
X122209402Y-55094600D01*
X121638600Y-54523798D01*
X121638600Y-50774600D01*
X121580748Y-50483761D01*
X121416001Y-50237199D01*
X119945602Y-48766800D01*
X135743696Y-48766800D01*
X135957327Y-48809294D01*
X136052089Y-48872611D01*
X136115406Y-48967373D01*
X136145200Y-49117156D01*
X136145200Y-88334398D01*
X134116001Y-86305199D01*
X133869439Y-86140452D01*
X133578600Y-86082600D01*
X132539341Y-86082600D01*
X132886334Y-85563287D01*
X132969887Y-85143240D01*
X133022122Y-85178143D01*
X133647809Y-85302600D01*
X133915791Y-85302600D01*
X134541478Y-85178143D01*
X135071911Y-84823720D01*
X135426334Y-84293287D01*
X135550791Y-83667600D01*
X135426334Y-83041913D01*
X135071911Y-82511480D01*
X134901477Y-82397600D01*
X135071911Y-82283720D01*
X135426334Y-81753287D01*
X135550791Y-81127600D01*
X135426334Y-80501913D01*
X135071911Y-79971480D01*
X134901477Y-79857600D01*
X135071911Y-79743720D01*
X135426334Y-79213287D01*
X135550791Y-78587600D01*
X135465116Y-78156886D01*
X135894001Y-77728001D01*
X136058748Y-77481440D01*
X136116600Y-77190600D01*
X136116600Y-74904600D01*
X136090801Y-74774902D01*
X136058748Y-74613760D01*
X135894001Y-74367199D01*
X135386001Y-73859199D01*
X135139439Y-73694452D01*
X134848600Y-73636600D01*
X130337402Y-73636600D01*
X119638001Y-62937199D01*
X119391439Y-62772452D01*
X119100600Y-62714600D01*
X78460600Y-62714600D01*
X78169761Y-62772452D01*
X77923199Y-62937199D01*
X75891199Y-64969199D01*
X75726452Y-65215761D01*
X75668600Y-65506600D01*
X75668600Y-67985798D01*
X72456198Y-71198200D01*
X71468085Y-71198200D01*
X71564959Y-70964902D01*
X71565440Y-70413915D01*
X71355031Y-69904685D01*
X70965764Y-69514739D01*
X70456902Y-69303441D01*
X69905915Y-69302960D01*
X69396685Y-69513369D01*
X69006739Y-69902636D01*
X68795441Y-70411498D01*
X68794960Y-70962485D01*
X68892355Y-71198200D01*
X68824747Y-71198200D01*
X68815031Y-71174685D01*
X68425764Y-70784739D01*
X68193330Y-70688224D01*
X68423715Y-70593031D01*
X68813661Y-70203764D01*
X69024959Y-69694902D01*
X69025440Y-69143915D01*
X68815031Y-68634685D01*
X68425764Y-68244739D01*
X67916902Y-68033441D01*
X67365915Y-68032960D01*
X66856685Y-68243369D01*
X66466739Y-68632636D01*
X66255441Y-69141498D01*
X66254960Y-69692485D01*
X66465369Y-70201715D01*
X66854636Y-70591661D01*
X67087070Y-70688176D01*
X66856685Y-70783369D01*
X66466739Y-71172636D01*
X66255441Y-71681498D01*
X66254960Y-72232485D01*
X66465369Y-72741715D01*
X66854636Y-73131661D01*
X67087070Y-73228176D01*
X66856685Y-73323369D01*
X66466739Y-73712636D01*
X66255441Y-74221498D01*
X66254960Y-74772485D01*
X66465369Y-75281715D01*
X66854636Y-75671661D01*
X67071179Y-75761577D01*
X66916277Y-75825740D01*
X66848288Y-76066683D01*
X67640200Y-76858595D01*
X68432112Y-76066683D01*
X68364123Y-75825740D01*
X68197579Y-75766468D01*
X68423715Y-75673031D01*
X68813661Y-75283764D01*
X69024959Y-74774902D01*
X69025440Y-74223915D01*
X68815031Y-73714685D01*
X68425764Y-73324739D01*
X68193330Y-73228224D01*
X68423715Y-73133031D01*
X68813661Y-72743764D01*
X68824276Y-72718200D01*
X68892315Y-72718200D01*
X68795441Y-72951498D01*
X68794960Y-73502485D01*
X69005369Y-74011715D01*
X69394636Y-74401661D01*
X69627070Y-74498176D01*
X69396685Y-74593369D01*
X69006739Y-74982636D01*
X68795441Y-75491498D01*
X68794960Y-76042485D01*
X69005369Y-76551715D01*
X69394636Y-76941661D01*
X69611179Y-77031577D01*
X69456277Y-77095740D01*
X69388288Y-77336683D01*
X70180200Y-78128595D01*
X70972112Y-77336683D01*
X70904123Y-77095740D01*
X70737579Y-77036468D01*
X70963715Y-76943031D01*
X71353661Y-76553764D01*
X71564959Y-76044902D01*
X71565006Y-75990395D01*
X73269316Y-75990395D01*
X73517706Y-76591543D01*
X73977237Y-77051878D01*
X74577952Y-77301316D01*
X75228395Y-77301884D01*
X75829543Y-77053494D01*
X76289878Y-76593963D01*
X76539316Y-75993248D01*
X76539318Y-75990395D01*
X91049316Y-75990395D01*
X91297706Y-76591543D01*
X91757237Y-77051878D01*
X92357952Y-77301316D01*
X93008395Y-77301884D01*
X93609543Y-77053494D01*
X94069878Y-76593963D01*
X94319316Y-75993248D01*
X94319540Y-75736395D01*
X97145316Y-75736395D01*
X97393706Y-76337543D01*
X97853237Y-76797878D01*
X98453952Y-77047316D01*
X99104395Y-77047884D01*
X99705543Y-76799494D01*
X100165878Y-76339963D01*
X100415316Y-75739248D01*
X100415318Y-75736395D01*
X114925316Y-75736395D01*
X115173706Y-76337543D01*
X115633237Y-76797878D01*
X116233952Y-77047316D01*
X116884395Y-77047884D01*
X117485543Y-76799494D01*
X117945878Y-76339963D01*
X118195316Y-75739248D01*
X118195884Y-75088805D01*
X117947494Y-74487657D01*
X117487963Y-74027322D01*
X116887248Y-73777884D01*
X116236805Y-73777316D01*
X115635657Y-74025706D01*
X115175322Y-74485237D01*
X114925884Y-75085952D01*
X114925316Y-75736395D01*
X100415318Y-75736395D01*
X100415884Y-75088805D01*
X100167494Y-74487657D01*
X99707963Y-74027322D01*
X99107248Y-73777884D01*
X98456805Y-73777316D01*
X97855657Y-74025706D01*
X97395322Y-74485237D01*
X97145884Y-75085952D01*
X97145316Y-75736395D01*
X94319540Y-75736395D01*
X94319884Y-75342805D01*
X94071494Y-74741657D01*
X93611963Y-74281322D01*
X93011248Y-74031884D01*
X92360805Y-74031316D01*
X91759657Y-74279706D01*
X91299322Y-74739237D01*
X91049884Y-75339952D01*
X91049316Y-75990395D01*
X76539318Y-75990395D01*
X76539884Y-75342805D01*
X76291494Y-74741657D01*
X75831963Y-74281322D01*
X75231248Y-74031884D01*
X74580805Y-74031316D01*
X73979657Y-74279706D01*
X73519322Y-74739237D01*
X73269884Y-75339952D01*
X73269316Y-75990395D01*
X71565006Y-75990395D01*
X71565427Y-75508575D01*
X77982001Y-69092001D01*
X78146748Y-68845439D01*
X78204600Y-68554600D01*
X78204600Y-68314434D01*
X78365143Y-68314434D01*
X78765453Y-69283258D01*
X79506043Y-70025142D01*
X80474167Y-70427142D01*
X81522434Y-70428057D01*
X82491258Y-70027747D01*
X83233142Y-69287157D01*
X83540861Y-68546088D01*
X83845453Y-69283258D01*
X84586043Y-70025142D01*
X85554167Y-70427142D01*
X86602434Y-70428057D01*
X87571258Y-70027747D01*
X88313142Y-69287157D01*
X88715142Y-68319033D01*
X88715146Y-68314434D01*
X102241143Y-68314434D01*
X102641453Y-69283258D01*
X103382043Y-70025142D01*
X104350167Y-70427142D01*
X105398434Y-70428057D01*
X106367258Y-70027747D01*
X107109142Y-69287157D01*
X107416861Y-68546088D01*
X107721453Y-69283258D01*
X108462043Y-70025142D01*
X109430167Y-70427142D01*
X110478434Y-70428057D01*
X111447258Y-70027747D01*
X112189142Y-69287157D01*
X112591142Y-68319033D01*
X112592057Y-67270766D01*
X112191747Y-66301942D01*
X111451157Y-65560058D01*
X110483033Y-65158058D01*
X109434766Y-65157143D01*
X108465942Y-65557453D01*
X107724058Y-66298043D01*
X107416339Y-67039112D01*
X107111747Y-66301942D01*
X106371157Y-65560058D01*
X105403033Y-65158058D01*
X104354766Y-65157143D01*
X103385942Y-65557453D01*
X102644058Y-66298043D01*
X102242058Y-67266167D01*
X102241143Y-68314434D01*
X88715146Y-68314434D01*
X88716057Y-67270766D01*
X88315747Y-66301942D01*
X87575157Y-65560058D01*
X86607033Y-65158058D01*
X85558766Y-65157143D01*
X84589942Y-65557453D01*
X83848058Y-66298043D01*
X83540339Y-67039112D01*
X83235747Y-66301942D01*
X82495157Y-65560058D01*
X81527033Y-65158058D01*
X80478766Y-65157143D01*
X79509942Y-65557453D01*
X78768058Y-66298043D01*
X78366058Y-67266167D01*
X78365143Y-68314434D01*
X78204600Y-68314434D01*
X78204600Y-65821402D01*
X79029402Y-64996600D01*
X118531798Y-64996600D01*
X128246600Y-74711402D01*
X128246600Y-81762600D01*
X128304452Y-82053439D01*
X128469199Y-82300001D01*
X129104199Y-82935001D01*
X129350761Y-83099748D01*
X129641600Y-83157600D01*
X129687011Y-83157600D01*
X129951689Y-83553720D01*
X130122123Y-83667600D01*
X129951689Y-83781480D01*
X129597266Y-84311913D01*
X129472809Y-84937600D01*
X129597266Y-85563287D01*
X129944259Y-86082600D01*
X128559402Y-86082600D01*
X127655722Y-85178920D01*
X127655762Y-85133433D01*
X127513717Y-84789657D01*
X127250927Y-84526408D01*
X126907399Y-84383762D01*
X126535433Y-84383438D01*
X126191657Y-84525483D01*
X125928408Y-84788273D01*
X125785762Y-85131801D01*
X125785438Y-85503767D01*
X125927483Y-85847543D01*
X126190273Y-86110792D01*
X126533801Y-86253438D01*
X126580677Y-86253479D01*
X127707199Y-87380001D01*
X127953760Y-87544748D01*
X128002014Y-87554346D01*
X128244600Y-87602600D01*
X133263798Y-87602600D01*
X134075583Y-88414385D01*
X133915791Y-88382600D01*
X133647809Y-88382600D01*
X133022122Y-88507057D01*
X132491689Y-88861480D01*
X132137266Y-89391913D01*
X132053713Y-89811960D01*
X132001478Y-89777057D01*
X131375791Y-89652600D01*
X131107809Y-89652600D01*
X130482122Y-89777057D01*
X129951689Y-90131480D01*
X129597266Y-90661913D01*
X129472809Y-91287600D01*
X129597266Y-91913287D01*
X129951689Y-92443720D01*
X130122123Y-92557600D01*
X129951689Y-92671480D01*
X129597266Y-93201913D01*
X129472809Y-93827600D01*
X129597266Y-94453287D01*
X129951689Y-94983720D01*
X130122123Y-95097600D01*
X129951689Y-95211480D01*
X129597266Y-95741913D01*
X129472809Y-96367600D01*
X129597266Y-96993287D01*
X129951689Y-97523720D01*
X130122123Y-97637600D01*
X129951689Y-97751480D01*
X129597266Y-98281913D01*
X129472809Y-98907600D01*
X129597266Y-99533287D01*
X129951689Y-100063720D01*
X130482122Y-100418143D01*
X131107809Y-100542600D01*
X131375791Y-100542600D01*
X132001478Y-100418143D01*
X132531911Y-100063720D01*
X132886334Y-99533287D01*
X132969887Y-99113240D01*
X133022122Y-99148143D01*
X133647809Y-99272600D01*
X133915791Y-99272600D01*
X134541478Y-99148143D01*
X135071911Y-98793720D01*
X135426334Y-98263287D01*
X135550791Y-97637600D01*
X135426334Y-97011913D01*
X135071911Y-96481480D01*
X134901477Y-96367600D01*
X135071911Y-96253720D01*
X135426334Y-95723287D01*
X135550791Y-95097600D01*
X135426334Y-94471913D01*
X135071911Y-93941480D01*
X134901477Y-93827600D01*
X135071911Y-93713720D01*
X135426334Y-93183287D01*
X135489805Y-92864197D01*
X136145200Y-92208802D01*
X136145200Y-131476844D01*
X136115406Y-131626627D01*
X136052089Y-131721389D01*
X135957327Y-131784706D01*
X135743696Y-131827200D01*
X58971208Y-131827200D01*
X59068857Y-131729721D01*
X59364063Y-131018784D01*
X59364735Y-130248993D01*
X59070770Y-129537542D01*
X58526921Y-128992743D01*
X57815984Y-128697537D01*
X57046193Y-128696865D01*
X56463000Y-128937835D01*
X56463000Y-126177920D01*
X65712075Y-126177920D01*
X65997229Y-126868046D01*
X66524776Y-127396516D01*
X67214404Y-127682874D01*
X67961120Y-127683525D01*
X68292798Y-127546478D01*
X68537229Y-128138046D01*
X69064776Y-128666516D01*
X69754404Y-128952874D01*
X70501120Y-128953525D01*
X71191246Y-128668371D01*
X71403513Y-128456474D01*
X79142970Y-128456474D01*
X79695200Y-129792972D01*
X80716849Y-130816406D01*
X82052382Y-131370968D01*
X83498474Y-131372230D01*
X84834972Y-130820000D01*
X85858406Y-129798351D01*
X86412968Y-128462818D01*
X86414230Y-127016726D01*
X86396824Y-126974600D01*
X106993303Y-126974600D01*
X107118978Y-127606410D01*
X107476870Y-128142033D01*
X108012493Y-128499925D01*
X108644303Y-128625600D01*
X109744897Y-128625600D01*
X110376707Y-128499925D01*
X110441735Y-128456474D01*
X113432970Y-128456474D01*
X113985200Y-129792972D01*
X115006849Y-130816406D01*
X116342382Y-131370968D01*
X117788474Y-131372230D01*
X119124972Y-130820000D01*
X120148406Y-129798351D01*
X120702968Y-128462818D01*
X120704230Y-127016726D01*
X120152000Y-125680228D01*
X119130351Y-124656794D01*
X117794818Y-124102232D01*
X116348726Y-124100970D01*
X115012228Y-124653200D01*
X113988794Y-125674849D01*
X113434232Y-127010382D01*
X113432970Y-128456474D01*
X110441735Y-128456474D01*
X110912330Y-128142033D01*
X111270222Y-127606410D01*
X111395897Y-126974600D01*
X111270222Y-126342790D01*
X110912330Y-125807167D01*
X110376707Y-125449275D01*
X109744897Y-125323600D01*
X108644303Y-125323600D01*
X108012493Y-125449275D01*
X107476870Y-125807167D01*
X107118978Y-126342790D01*
X106993303Y-126974600D01*
X86396824Y-126974600D01*
X85862000Y-125680228D01*
X84840351Y-124656794D01*
X83504818Y-124102232D01*
X82058726Y-124100970D01*
X80722228Y-124653200D01*
X79698794Y-125674849D01*
X79144232Y-127010382D01*
X79142970Y-128456474D01*
X71403513Y-128456474D01*
X71719716Y-128140824D01*
X72006074Y-127451196D01*
X72006725Y-126704480D01*
X71721571Y-126014354D01*
X71194024Y-125485884D01*
X71154779Y-125469588D01*
X71302861Y-125321764D01*
X71514159Y-124812902D01*
X71514327Y-124619767D01*
X72191438Y-124619767D01*
X72333483Y-124963543D01*
X72596273Y-125226792D01*
X72939801Y-125369438D01*
X73311767Y-125369762D01*
X73655543Y-125227717D01*
X73918792Y-124964927D01*
X74061438Y-124621399D01*
X74061479Y-124574523D01*
X75727402Y-122908600D01*
X111680137Y-122908600D01*
X111712273Y-122940792D01*
X112055801Y-123083438D01*
X112427767Y-123083762D01*
X112771543Y-122941717D01*
X113034792Y-122678927D01*
X113177438Y-122335399D01*
X113177762Y-121963433D01*
X113035717Y-121619657D01*
X112772927Y-121356408D01*
X112429399Y-121213762D01*
X112057433Y-121213438D01*
X111713657Y-121355483D01*
X111680482Y-121388600D01*
X75412600Y-121388600D01*
X75121760Y-121446452D01*
X74875199Y-121611199D01*
X72986920Y-123499478D01*
X72941433Y-123499438D01*
X72597657Y-123641483D01*
X72334408Y-123904273D01*
X72191762Y-124247801D01*
X72191438Y-124619767D01*
X71514327Y-124619767D01*
X71514640Y-124261915D01*
X71304231Y-123752685D01*
X70914964Y-123362739D01*
X70682530Y-123266224D01*
X70912915Y-123171031D01*
X71302861Y-122781764D01*
X71514159Y-122272902D01*
X71514640Y-121721915D01*
X71304231Y-121212685D01*
X70914964Y-120822739D01*
X70682530Y-120726224D01*
X70912915Y-120631031D01*
X71302861Y-120241764D01*
X71514159Y-119732902D01*
X71514640Y-119181915D01*
X71304231Y-118672685D01*
X70914964Y-118282739D01*
X70406102Y-118071441D01*
X69855115Y-118070960D01*
X69345885Y-118281369D01*
X68955939Y-118670636D01*
X68744641Y-119179498D01*
X68744160Y-119730485D01*
X68954569Y-120239715D01*
X69343836Y-120629661D01*
X69576270Y-120726176D01*
X69345885Y-120821369D01*
X68955939Y-121210636D01*
X68744641Y-121719498D01*
X68744160Y-122270485D01*
X68954569Y-122779715D01*
X69343836Y-123169661D01*
X69576270Y-123266176D01*
X69345885Y-123361369D01*
X68955939Y-123750636D01*
X68744641Y-124259498D01*
X68744600Y-124306618D01*
X68654024Y-124215884D01*
X68614779Y-124199588D01*
X68762861Y-124051764D01*
X68974159Y-123542902D01*
X68974640Y-122991915D01*
X68764231Y-122482685D01*
X68374964Y-122092739D01*
X68142530Y-121996224D01*
X68372915Y-121901031D01*
X68762861Y-121511764D01*
X68974159Y-121002902D01*
X68974640Y-120451915D01*
X68764231Y-119942685D01*
X68374964Y-119552739D01*
X68142530Y-119456224D01*
X68372915Y-119361031D01*
X68762861Y-118971764D01*
X68974159Y-118462902D01*
X68974549Y-118015767D01*
X72191438Y-118015767D01*
X72333483Y-118359543D01*
X72566309Y-118592776D01*
X72334408Y-118824273D01*
X72191762Y-119167801D01*
X72191438Y-119539767D01*
X72333483Y-119883543D01*
X72596273Y-120146792D01*
X72939801Y-120289438D01*
X73311767Y-120289762D01*
X73655543Y-120147717D01*
X73688718Y-120114600D01*
X111680137Y-120114600D01*
X111712273Y-120146792D01*
X112055801Y-120289438D01*
X112427767Y-120289762D01*
X112771543Y-120147717D01*
X113034792Y-119884927D01*
X113177438Y-119541399D01*
X113177711Y-119227600D01*
X129472809Y-119227600D01*
X129597266Y-119853287D01*
X129951689Y-120383720D01*
X130122123Y-120497600D01*
X129951689Y-120611480D01*
X129597266Y-121141913D01*
X129472809Y-121767600D01*
X129597266Y-122393287D01*
X129951689Y-122923720D01*
X130122123Y-123037600D01*
X129951689Y-123151480D01*
X129597266Y-123681913D01*
X129472809Y-124307600D01*
X129597266Y-124933287D01*
X129951689Y-125463720D01*
X130122123Y-125577600D01*
X129951689Y-125691480D01*
X129597266Y-126221913D01*
X129472809Y-126847600D01*
X129597266Y-127473287D01*
X129951689Y-128003720D01*
X130482122Y-128358143D01*
X131107809Y-128482600D01*
X131375791Y-128482600D01*
X132001478Y-128358143D01*
X132531911Y-128003720D01*
X132886334Y-127473287D01*
X132969887Y-127053240D01*
X133022122Y-127088143D01*
X133647809Y-127212600D01*
X133915791Y-127212600D01*
X134541478Y-127088143D01*
X135071911Y-126733720D01*
X135426334Y-126203287D01*
X135550791Y-125577600D01*
X135426334Y-124951913D01*
X135071911Y-124421480D01*
X134901477Y-124307600D01*
X135071911Y-124193720D01*
X135426334Y-123663287D01*
X135550791Y-123037600D01*
X135426334Y-122411913D01*
X135071911Y-121881480D01*
X134901477Y-121767600D01*
X135071911Y-121653720D01*
X135426334Y-121123287D01*
X135550791Y-120497600D01*
X135426334Y-119871913D01*
X135071911Y-119341480D01*
X134901477Y-119227600D01*
X135071911Y-119113720D01*
X135426334Y-118583287D01*
X135550791Y-117957600D01*
X135426334Y-117331913D01*
X135071911Y-116801480D01*
X134541478Y-116447057D01*
X133915791Y-116322600D01*
X133647809Y-116322600D01*
X133022122Y-116447057D01*
X132491689Y-116801480D01*
X132137266Y-117331913D01*
X132053713Y-117751960D01*
X132001478Y-117717057D01*
X131375791Y-117592600D01*
X131107809Y-117592600D01*
X130482122Y-117717057D01*
X129951689Y-118071480D01*
X129597266Y-118601913D01*
X129472809Y-119227600D01*
X113177711Y-119227600D01*
X113177762Y-119169433D01*
X113035717Y-118825657D01*
X112802891Y-118592424D01*
X113034792Y-118360927D01*
X113177438Y-118017399D01*
X113177762Y-117645433D01*
X113035717Y-117301657D01*
X112772927Y-117038408D01*
X112429399Y-116895762D01*
X112057433Y-116895438D01*
X111713657Y-117037483D01*
X111450408Y-117300273D01*
X111307762Y-117643801D01*
X111307721Y-117690677D01*
X111165798Y-117832600D01*
X74203402Y-117832600D01*
X74061722Y-117690920D01*
X74061762Y-117645433D01*
X73988080Y-117467109D01*
X74479657Y-117671230D01*
X75325830Y-117671968D01*
X76107874Y-117348834D01*
X76706731Y-116751022D01*
X77031230Y-115969543D01*
X77031318Y-115868395D01*
X91049316Y-115868395D01*
X91297706Y-116469543D01*
X91757237Y-116929878D01*
X92357952Y-117179316D01*
X93008395Y-117179884D01*
X93609543Y-116931494D01*
X94069878Y-116471963D01*
X94081849Y-116443132D01*
X97807673Y-116443132D01*
X97906336Y-116709987D01*
X98516061Y-116936508D01*
X99166060Y-116912456D01*
X99568483Y-116745767D01*
X103433438Y-116745767D01*
X103575483Y-117089543D01*
X103838273Y-117352792D01*
X104181801Y-117495438D01*
X104553767Y-117495762D01*
X104897543Y-117353717D01*
X105160792Y-117090927D01*
X105303438Y-116747399D01*
X105303479Y-116700523D01*
X105953402Y-116050600D01*
X115105553Y-116050600D01*
X115173706Y-116215543D01*
X115633237Y-116675878D01*
X116233952Y-116925316D01*
X116884395Y-116925884D01*
X117485543Y-116677494D01*
X117945878Y-116217963D01*
X118195316Y-115617248D01*
X118195884Y-114966805D01*
X117947494Y-114365657D01*
X117487963Y-113905322D01*
X116887248Y-113655884D01*
X116236805Y-113655316D01*
X115635657Y-113903706D01*
X115175322Y-114363237D01*
X115105827Y-114530600D01*
X105638600Y-114530600D01*
X105347760Y-114588452D01*
X105101199Y-114753199D01*
X104228920Y-115625478D01*
X104183433Y-115625438D01*
X103839657Y-115767483D01*
X103576408Y-116030273D01*
X103433762Y-116373801D01*
X103433438Y-116745767D01*
X99568483Y-116745767D01*
X99654864Y-116709987D01*
X99753527Y-116443132D01*
X98780600Y-115470205D01*
X97807673Y-116443132D01*
X94081849Y-116443132D01*
X94319316Y-115871248D01*
X94319884Y-115220805D01*
X94239418Y-115026061D01*
X97134692Y-115026061D01*
X97158744Y-115676060D01*
X97361213Y-116164864D01*
X97628068Y-116263527D01*
X98600995Y-115290600D01*
X98960205Y-115290600D01*
X99933132Y-116263527D01*
X100199987Y-116164864D01*
X100426508Y-115555139D01*
X100402456Y-114905140D01*
X100199987Y-114416336D01*
X99933132Y-114317673D01*
X98960205Y-115290600D01*
X98600995Y-115290600D01*
X97628068Y-114317673D01*
X97361213Y-114416336D01*
X97134692Y-115026061D01*
X94239418Y-115026061D01*
X94071494Y-114619657D01*
X93611963Y-114159322D01*
X93011248Y-113909884D01*
X92360805Y-113909316D01*
X91759657Y-114157706D01*
X91299322Y-114617237D01*
X91049884Y-115217952D01*
X91049316Y-115868395D01*
X77031318Y-115868395D01*
X77031968Y-115123370D01*
X76708834Y-114341326D01*
X76111022Y-113742469D01*
X75329543Y-113417970D01*
X74483370Y-113417232D01*
X73701326Y-113740366D01*
X73102469Y-114338178D01*
X72777970Y-115119657D01*
X72777232Y-115965830D01*
X73100366Y-116747874D01*
X73247939Y-116895705D01*
X72941433Y-116895438D01*
X72597657Y-117037483D01*
X72334408Y-117300273D01*
X72191762Y-117643801D01*
X72191438Y-118015767D01*
X68974549Y-118015767D01*
X68974640Y-117911915D01*
X68764231Y-117402685D01*
X68374964Y-117012739D01*
X67866102Y-116801441D01*
X67315115Y-116800960D01*
X66805885Y-117011369D01*
X66415939Y-117400636D01*
X66204641Y-117909498D01*
X66204160Y-118460485D01*
X66414569Y-118969715D01*
X66803836Y-119359661D01*
X67036270Y-119456176D01*
X66805885Y-119551369D01*
X66415939Y-119940636D01*
X66204641Y-120449498D01*
X66204160Y-121000485D01*
X66414569Y-121509715D01*
X66803836Y-121899661D01*
X67036270Y-121996176D01*
X66805885Y-122091369D01*
X66415939Y-122480636D01*
X66204641Y-122989498D01*
X66204160Y-123540485D01*
X66414569Y-124049715D01*
X66563691Y-124199097D01*
X66527554Y-124214029D01*
X65999084Y-124741576D01*
X65712726Y-125431204D01*
X65712075Y-126177920D01*
X56463000Y-126177920D01*
X56463000Y-116578103D01*
X57042816Y-116818863D01*
X57812607Y-116819535D01*
X58524058Y-116525570D01*
X59068857Y-115981721D01*
X59364063Y-115270784D01*
X59364400Y-114884312D01*
X59414863Y-114762784D01*
X59415535Y-113992993D01*
X59121570Y-113281542D01*
X59029956Y-113189767D01*
X76763438Y-113189767D01*
X76905483Y-113533543D01*
X77168273Y-113796792D01*
X77511801Y-113939438D01*
X77883767Y-113939762D01*
X78227543Y-113797717D01*
X78260718Y-113764600D01*
X98163723Y-113764600D01*
X97906336Y-113871213D01*
X97807673Y-114138068D01*
X98780600Y-115110995D01*
X99753527Y-114138068D01*
X99654864Y-113871213D01*
X99367895Y-113764600D01*
X111426137Y-113764600D01*
X111458273Y-113796792D01*
X111801801Y-113939438D01*
X112173767Y-113939762D01*
X112517543Y-113797717D01*
X112780792Y-113534927D01*
X112923438Y-113191399D01*
X112923762Y-112819433D01*
X112781717Y-112475657D01*
X112518927Y-112212408D01*
X112175399Y-112069762D01*
X111803433Y-112069438D01*
X111459657Y-112211483D01*
X111426482Y-112244600D01*
X78261063Y-112244600D01*
X78228927Y-112212408D01*
X77885399Y-112069762D01*
X77513433Y-112069438D01*
X77169657Y-112211483D01*
X76906408Y-112474273D01*
X76763762Y-112817801D01*
X76763438Y-113189767D01*
X59029956Y-113189767D01*
X58577721Y-112736743D01*
X57866784Y-112441537D01*
X57096993Y-112440865D01*
X56463000Y-112702825D01*
X56463000Y-111791717D01*
X69388288Y-111791717D01*
X69456277Y-112032660D01*
X69975371Y-112217401D01*
X70525648Y-112189430D01*
X70904123Y-112032660D01*
X70972112Y-111791717D01*
X70180200Y-110999805D01*
X69388288Y-111791717D01*
X56463000Y-111791717D01*
X56463000Y-110521717D01*
X66848288Y-110521717D01*
X66916277Y-110762660D01*
X67435371Y-110947401D01*
X67985648Y-110919430D01*
X68364123Y-110762660D01*
X68405684Y-110615371D01*
X68782999Y-110615371D01*
X68810970Y-111165648D01*
X68967740Y-111544123D01*
X69208683Y-111612112D01*
X70000595Y-110820200D01*
X70359805Y-110820200D01*
X71151717Y-111612112D01*
X71392660Y-111544123D01*
X71577401Y-111025029D01*
X71549430Y-110474752D01*
X71392660Y-110096277D01*
X71151717Y-110028288D01*
X70359805Y-110820200D01*
X70000595Y-110820200D01*
X69208683Y-110028288D01*
X68967740Y-110096277D01*
X68782999Y-110615371D01*
X68405684Y-110615371D01*
X68432112Y-110521717D01*
X67640200Y-109729805D01*
X66848288Y-110521717D01*
X56463000Y-110521717D01*
X56463000Y-109345371D01*
X66242999Y-109345371D01*
X66270970Y-109895648D01*
X66427740Y-110274123D01*
X66668683Y-110342112D01*
X67460595Y-109550200D01*
X67819805Y-109550200D01*
X68611717Y-110342112D01*
X68852660Y-110274123D01*
X69037401Y-109755029D01*
X69009430Y-109204752D01*
X68852660Y-108826277D01*
X68611717Y-108758288D01*
X67819805Y-109550200D01*
X67460595Y-109550200D01*
X66668683Y-108758288D01*
X66427740Y-108826277D01*
X66242999Y-109345371D01*
X56463000Y-109345371D01*
X56463000Y-102204485D01*
X66254960Y-102204485D01*
X66465369Y-102713715D01*
X66854636Y-103103661D01*
X67087070Y-103200176D01*
X66856685Y-103295369D01*
X66466739Y-103684636D01*
X66255441Y-104193498D01*
X66254960Y-104744485D01*
X66465369Y-105253715D01*
X66854636Y-105643661D01*
X67087070Y-105740176D01*
X66856685Y-105835369D01*
X66466739Y-106224636D01*
X66255441Y-106733498D01*
X66254960Y-107284485D01*
X66465369Y-107793715D01*
X66854636Y-108183661D01*
X67071179Y-108273577D01*
X66916277Y-108337740D01*
X66848288Y-108578683D01*
X67640200Y-109370595D01*
X68432112Y-108578683D01*
X68364123Y-108337740D01*
X68197579Y-108278468D01*
X68423715Y-108185031D01*
X68813661Y-107795764D01*
X69024959Y-107286902D01*
X69025440Y-106735915D01*
X68815031Y-106226685D01*
X68425764Y-105836739D01*
X68193330Y-105740224D01*
X68423715Y-105645031D01*
X68813661Y-105255764D01*
X69024959Y-104746902D01*
X69025440Y-104195915D01*
X68815031Y-103686685D01*
X68603201Y-103474485D01*
X68794960Y-103474485D01*
X69005369Y-103983715D01*
X69394636Y-104373661D01*
X69627070Y-104470176D01*
X69396685Y-104565369D01*
X69006739Y-104954636D01*
X68795441Y-105463498D01*
X68794960Y-106014485D01*
X69005369Y-106523715D01*
X69394636Y-106913661D01*
X69627070Y-107010176D01*
X69396685Y-107105369D01*
X69006739Y-107494636D01*
X68795441Y-108003498D01*
X68794960Y-108554485D01*
X69005369Y-109063715D01*
X69394636Y-109453661D01*
X69611179Y-109543577D01*
X69456277Y-109607740D01*
X69388288Y-109848683D01*
X70180200Y-110640595D01*
X70972112Y-109848683D01*
X70904123Y-109607740D01*
X70737579Y-109548468D01*
X70963715Y-109455031D01*
X71353661Y-109065764D01*
X71564959Y-108556902D01*
X71565127Y-108363767D01*
X77271438Y-108363767D01*
X77413483Y-108707543D01*
X77676273Y-108970792D01*
X78019801Y-109113438D01*
X78391767Y-109113762D01*
X78735543Y-108971717D01*
X78768718Y-108938600D01*
X111426137Y-108938600D01*
X111458273Y-108970792D01*
X111801801Y-109113438D01*
X112173767Y-109113762D01*
X112517543Y-108971717D01*
X112780792Y-108708927D01*
X112923438Y-108365399D01*
X112923762Y-107993433D01*
X112781717Y-107649657D01*
X112518927Y-107386408D01*
X112175399Y-107243762D01*
X111803433Y-107243438D01*
X111459657Y-107385483D01*
X111426482Y-107418600D01*
X78769063Y-107418600D01*
X78736927Y-107386408D01*
X78393399Y-107243762D01*
X78021433Y-107243438D01*
X77677657Y-107385483D01*
X77414408Y-107648273D01*
X77271762Y-107991801D01*
X77271438Y-108363767D01*
X71565127Y-108363767D01*
X71565440Y-108005915D01*
X71355031Y-107496685D01*
X70965764Y-107106739D01*
X70733330Y-107010224D01*
X70963715Y-106915031D01*
X71353661Y-106525764D01*
X71564959Y-106016902D01*
X71565440Y-105465915D01*
X71479367Y-105257600D01*
X129472809Y-105257600D01*
X129597266Y-105883287D01*
X129951689Y-106413720D01*
X130122123Y-106527600D01*
X129951689Y-106641480D01*
X129597266Y-107171913D01*
X129472809Y-107797600D01*
X129597266Y-108423287D01*
X129951689Y-108953720D01*
X130122123Y-109067600D01*
X129951689Y-109181480D01*
X129597266Y-109711913D01*
X129472809Y-110337600D01*
X129597266Y-110963287D01*
X129951689Y-111493720D01*
X130122123Y-111607600D01*
X129951689Y-111721480D01*
X129597266Y-112251913D01*
X129472809Y-112877600D01*
X129597266Y-113503287D01*
X129951689Y-114033720D01*
X130482122Y-114388143D01*
X131107809Y-114512600D01*
X131375791Y-114512600D01*
X132001478Y-114388143D01*
X132531911Y-114033720D01*
X132886334Y-113503287D01*
X132969887Y-113083240D01*
X133022122Y-113118143D01*
X133647809Y-113242600D01*
X133915791Y-113242600D01*
X134541478Y-113118143D01*
X135071911Y-112763720D01*
X135426334Y-112233287D01*
X135550791Y-111607600D01*
X135426334Y-110981913D01*
X135071911Y-110451480D01*
X134901477Y-110337600D01*
X135071911Y-110223720D01*
X135426334Y-109693287D01*
X135550791Y-109067600D01*
X135426334Y-108441913D01*
X135071911Y-107911480D01*
X134901477Y-107797600D01*
X135071911Y-107683720D01*
X135426334Y-107153287D01*
X135550791Y-106527600D01*
X135426334Y-105901913D01*
X135071911Y-105371480D01*
X134901477Y-105257600D01*
X135071911Y-105143720D01*
X135426334Y-104613287D01*
X135550791Y-103987600D01*
X135426334Y-103361913D01*
X135071911Y-102831480D01*
X134541478Y-102477057D01*
X133915791Y-102352600D01*
X133647809Y-102352600D01*
X133022122Y-102477057D01*
X132491689Y-102831480D01*
X132137266Y-103361913D01*
X132053713Y-103781960D01*
X132001478Y-103747057D01*
X131375791Y-103622600D01*
X131107809Y-103622600D01*
X130482122Y-103747057D01*
X129951689Y-104101480D01*
X129597266Y-104631913D01*
X129472809Y-105257600D01*
X71479367Y-105257600D01*
X71355031Y-104956685D01*
X70965764Y-104566739D01*
X70733330Y-104470224D01*
X70963715Y-104375031D01*
X71353661Y-103985764D01*
X71564959Y-103476902D01*
X71565440Y-102925915D01*
X71355031Y-102416685D01*
X70965764Y-102026739D01*
X70456902Y-101815441D01*
X69905915Y-101814960D01*
X69396685Y-102025369D01*
X69006739Y-102414636D01*
X68795441Y-102923498D01*
X68794960Y-103474485D01*
X68603201Y-103474485D01*
X68425764Y-103296739D01*
X68193330Y-103200224D01*
X68423715Y-103105031D01*
X68813661Y-102715764D01*
X69024959Y-102206902D01*
X69025440Y-101655915D01*
X68815031Y-101146685D01*
X68425764Y-100756739D01*
X67916902Y-100545441D01*
X67365915Y-100544960D01*
X66856685Y-100755369D01*
X66466739Y-101144636D01*
X66255441Y-101653498D01*
X66254960Y-102204485D01*
X56463000Y-102204485D01*
X56463000Y-100301009D01*
X57093616Y-100562863D01*
X57863407Y-100563535D01*
X58041939Y-100489767D01*
X77271438Y-100489767D01*
X77413483Y-100833543D01*
X77676273Y-101096792D01*
X77909561Y-101193662D01*
X77677657Y-101289483D01*
X77414408Y-101552273D01*
X77271762Y-101895801D01*
X77271438Y-102267767D01*
X77413483Y-102611543D01*
X77519310Y-102717554D01*
X77414408Y-102822273D01*
X77271762Y-103165801D01*
X77271438Y-103537767D01*
X77413483Y-103881543D01*
X77676273Y-104144792D01*
X78019801Y-104287438D01*
X78391767Y-104287762D01*
X78735543Y-104145717D01*
X78998792Y-103882927D01*
X79141438Y-103539399D01*
X79141479Y-103492523D01*
X79283402Y-103350600D01*
X110911798Y-103350600D01*
X111053478Y-103492280D01*
X111053438Y-103537767D01*
X111195483Y-103881543D01*
X111458273Y-104144792D01*
X111801801Y-104287438D01*
X112173767Y-104287762D01*
X112517543Y-104145717D01*
X112780792Y-103882927D01*
X112923438Y-103539399D01*
X112923762Y-103167433D01*
X112781717Y-102823657D01*
X112675890Y-102717646D01*
X112780792Y-102612927D01*
X112923438Y-102269399D01*
X112923762Y-101897433D01*
X112781717Y-101553657D01*
X112518927Y-101290408D01*
X112386558Y-101235444D01*
X112526001Y-101096001D01*
X112539500Y-101075798D01*
X112780792Y-100834927D01*
X112923438Y-100491399D01*
X112923762Y-100119433D01*
X112781717Y-99775657D01*
X112518927Y-99512408D01*
X112175399Y-99369762D01*
X111803433Y-99369438D01*
X111459657Y-99511483D01*
X111196408Y-99774273D01*
X111053762Y-100117801D01*
X111053500Y-100418898D01*
X110657798Y-100814600D01*
X79791402Y-100814600D01*
X79141722Y-100164920D01*
X79141762Y-100119433D01*
X78999717Y-99775657D01*
X78736927Y-99512408D01*
X78393399Y-99369762D01*
X78021433Y-99369438D01*
X77677657Y-99511483D01*
X77414408Y-99774273D01*
X77271762Y-100117801D01*
X77271438Y-100489767D01*
X58041939Y-100489767D01*
X58574858Y-100269570D01*
X59119657Y-99725721D01*
X59414863Y-99014784D01*
X59415535Y-98244993D01*
X59415092Y-98243922D01*
X59415535Y-97736993D01*
X59121570Y-97025542D01*
X58577721Y-96480743D01*
X57866784Y-96185537D01*
X57096993Y-96184865D01*
X56463000Y-96446825D01*
X56463000Y-95535717D01*
X69388288Y-95535717D01*
X69456277Y-95776660D01*
X69975371Y-95961401D01*
X70525648Y-95933430D01*
X70904123Y-95776660D01*
X70972112Y-95535717D01*
X70180200Y-94743805D01*
X69388288Y-95535717D01*
X56463000Y-95535717D01*
X56463000Y-94265717D01*
X66848288Y-94265717D01*
X66916277Y-94506660D01*
X67435371Y-94691401D01*
X67985648Y-94663430D01*
X68364123Y-94506660D01*
X68405684Y-94359371D01*
X68782999Y-94359371D01*
X68810970Y-94909648D01*
X68967740Y-95288123D01*
X69208683Y-95356112D01*
X70000595Y-94564200D01*
X70359805Y-94564200D01*
X71151717Y-95356112D01*
X71392660Y-95288123D01*
X71577401Y-94769029D01*
X71549430Y-94218752D01*
X71392660Y-93840277D01*
X71151717Y-93772288D01*
X70359805Y-94564200D01*
X70000595Y-94564200D01*
X69208683Y-93772288D01*
X68967740Y-93840277D01*
X68782999Y-94359371D01*
X68405684Y-94359371D01*
X68432112Y-94265717D01*
X67640200Y-93473805D01*
X66848288Y-94265717D01*
X56463000Y-94265717D01*
X56463000Y-93089371D01*
X66242999Y-93089371D01*
X66270970Y-93639648D01*
X66427740Y-94018123D01*
X66668683Y-94086112D01*
X67460595Y-93294200D01*
X67819805Y-93294200D01*
X68611717Y-94086112D01*
X68852660Y-94018123D01*
X69037401Y-93499029D01*
X69009430Y-92948752D01*
X68852660Y-92570277D01*
X68611717Y-92502288D01*
X67819805Y-93294200D01*
X67460595Y-93294200D01*
X66668683Y-92502288D01*
X66427740Y-92570277D01*
X66242999Y-93089371D01*
X56463000Y-93089371D01*
X56463000Y-85948485D01*
X66254960Y-85948485D01*
X66465369Y-86457715D01*
X66854636Y-86847661D01*
X67087070Y-86944176D01*
X66856685Y-87039369D01*
X66466739Y-87428636D01*
X66255441Y-87937498D01*
X66254960Y-88488485D01*
X66465369Y-88997715D01*
X66854636Y-89387661D01*
X67087070Y-89484176D01*
X66856685Y-89579369D01*
X66466739Y-89968636D01*
X66255441Y-90477498D01*
X66254960Y-91028485D01*
X66465369Y-91537715D01*
X66854636Y-91927661D01*
X67071179Y-92017577D01*
X66916277Y-92081740D01*
X66848288Y-92322683D01*
X67640200Y-93114595D01*
X68432112Y-92322683D01*
X68364123Y-92081740D01*
X68197579Y-92022468D01*
X68423715Y-91929031D01*
X68813661Y-91539764D01*
X69024959Y-91030902D01*
X69025440Y-90479915D01*
X68815031Y-89970685D01*
X68425764Y-89580739D01*
X68193330Y-89484224D01*
X68423715Y-89389031D01*
X68813661Y-88999764D01*
X69024959Y-88490902D01*
X69025440Y-87939915D01*
X68815031Y-87430685D01*
X68603201Y-87218485D01*
X68794960Y-87218485D01*
X69005369Y-87727715D01*
X69394636Y-88117661D01*
X69627070Y-88214176D01*
X69396685Y-88309369D01*
X69006739Y-88698636D01*
X68795441Y-89207498D01*
X68794960Y-89758485D01*
X69005369Y-90267715D01*
X69394636Y-90657661D01*
X69627070Y-90754176D01*
X69396685Y-90849369D01*
X69006739Y-91238636D01*
X68795441Y-91747498D01*
X68794960Y-92298485D01*
X69005369Y-92807715D01*
X69394636Y-93197661D01*
X69611179Y-93287577D01*
X69456277Y-93351740D01*
X69388288Y-93592683D01*
X70180200Y-94384595D01*
X70972112Y-93592683D01*
X70904123Y-93351740D01*
X70737579Y-93292468D01*
X70963715Y-93199031D01*
X71353661Y-92809764D01*
X71564959Y-92300902D01*
X71565127Y-92107767D01*
X77271438Y-92107767D01*
X77413483Y-92451543D01*
X77676273Y-92714792D01*
X78019801Y-92857438D01*
X78391767Y-92857762D01*
X78735543Y-92715717D01*
X78768718Y-92682600D01*
X106092137Y-92682600D01*
X106124273Y-92714792D01*
X106467801Y-92857438D01*
X106839767Y-92857762D01*
X107183543Y-92715717D01*
X107446792Y-92452927D01*
X107589438Y-92109399D01*
X107589762Y-91737433D01*
X107447717Y-91393657D01*
X107184927Y-91130408D01*
X106841399Y-90987762D01*
X106469433Y-90987438D01*
X106125657Y-91129483D01*
X106092482Y-91162600D01*
X78769063Y-91162600D01*
X78736927Y-91130408D01*
X78393399Y-90987762D01*
X78021433Y-90987438D01*
X77677657Y-91129483D01*
X77414408Y-91392273D01*
X77271762Y-91735801D01*
X77271438Y-92107767D01*
X71565127Y-92107767D01*
X71565440Y-91749915D01*
X71355031Y-91240685D01*
X70965764Y-90850739D01*
X70733330Y-90754224D01*
X70963715Y-90659031D01*
X71353661Y-90269764D01*
X71564959Y-89760902D01*
X71565440Y-89209915D01*
X71355031Y-88700685D01*
X70965764Y-88310739D01*
X70733330Y-88214224D01*
X70963715Y-88119031D01*
X71353661Y-87729764D01*
X71539685Y-87281767D01*
X77271438Y-87281767D01*
X77413483Y-87625543D01*
X77676273Y-87888792D01*
X78019801Y-88031438D01*
X78391767Y-88031762D01*
X78735543Y-87889717D01*
X78768718Y-87856600D01*
X106092137Y-87856600D01*
X106124273Y-87888792D01*
X106467801Y-88031438D01*
X106839767Y-88031762D01*
X107183543Y-87889717D01*
X107446792Y-87626927D01*
X107589438Y-87283399D01*
X107589762Y-86911433D01*
X107447717Y-86567657D01*
X107184927Y-86304408D01*
X106841399Y-86161762D01*
X106469433Y-86161438D01*
X106125657Y-86303483D01*
X106092482Y-86336600D01*
X78769063Y-86336600D01*
X78736927Y-86304408D01*
X78393399Y-86161762D01*
X78021433Y-86161438D01*
X77677657Y-86303483D01*
X77414408Y-86566273D01*
X77271762Y-86909801D01*
X77271438Y-87281767D01*
X71539685Y-87281767D01*
X71564959Y-87220902D01*
X71565440Y-86669915D01*
X71355031Y-86160685D01*
X70965764Y-85770739D01*
X70456902Y-85559441D01*
X69905915Y-85558960D01*
X69396685Y-85769369D01*
X69006739Y-86158636D01*
X68795441Y-86667498D01*
X68794960Y-87218485D01*
X68603201Y-87218485D01*
X68425764Y-87040739D01*
X68193330Y-86944224D01*
X68423715Y-86849031D01*
X68813661Y-86459764D01*
X69024959Y-85950902D01*
X69025440Y-85399915D01*
X68815031Y-84890685D01*
X68425764Y-84500739D01*
X67916902Y-84289441D01*
X67365915Y-84288960D01*
X66856685Y-84499369D01*
X66466739Y-84888636D01*
X66255441Y-85397498D01*
X66254960Y-85948485D01*
X56463000Y-85948485D01*
X56463000Y-84045009D01*
X57093616Y-84306863D01*
X57863407Y-84307535D01*
X58574858Y-84013570D01*
X58608720Y-83979767D01*
X77271438Y-83979767D01*
X77413483Y-84323543D01*
X77519310Y-84429554D01*
X77414408Y-84534273D01*
X77271762Y-84877801D01*
X77271438Y-85249767D01*
X77413483Y-85593543D01*
X77676273Y-85856792D01*
X78019801Y-85999438D01*
X78391767Y-85999762D01*
X78735543Y-85857717D01*
X78768718Y-85824600D01*
X106092137Y-85824600D01*
X106124273Y-85856792D01*
X106467801Y-85999438D01*
X106839767Y-85999762D01*
X107183543Y-85857717D01*
X107446792Y-85594927D01*
X107589438Y-85251399D01*
X107589762Y-84879433D01*
X107447717Y-84535657D01*
X107341890Y-84429646D01*
X107446792Y-84324927D01*
X107589438Y-83981399D01*
X107589762Y-83609433D01*
X107447717Y-83265657D01*
X107184927Y-83002408D01*
X106841399Y-82859762D01*
X106469433Y-82859438D01*
X106125657Y-83001483D01*
X105862408Y-83264273D01*
X105719762Y-83607801D01*
X105719721Y-83654677D01*
X105577798Y-83796600D01*
X79283402Y-83796600D01*
X79141722Y-83654920D01*
X79141762Y-83609433D01*
X78999717Y-83265657D01*
X78736927Y-83002408D01*
X78393399Y-82859762D01*
X78021433Y-82859438D01*
X77677657Y-83001483D01*
X77414408Y-83264273D01*
X77271762Y-83607801D01*
X77271438Y-83979767D01*
X58608720Y-83979767D01*
X59119657Y-83469721D01*
X59414863Y-82758784D01*
X59415535Y-81988993D01*
X59415092Y-81987922D01*
X59415535Y-81480993D01*
X59121570Y-80769542D01*
X58577721Y-80224743D01*
X57866784Y-79929537D01*
X57096993Y-79928865D01*
X56463000Y-80190825D01*
X56463000Y-79279717D01*
X69388288Y-79279717D01*
X69456277Y-79520660D01*
X69975371Y-79705401D01*
X70525648Y-79677430D01*
X70904123Y-79520660D01*
X70972112Y-79279717D01*
X70180200Y-78487805D01*
X69388288Y-79279717D01*
X56463000Y-79279717D01*
X56463000Y-78009717D01*
X66848288Y-78009717D01*
X66916277Y-78250660D01*
X67435371Y-78435401D01*
X67985648Y-78407430D01*
X68364123Y-78250660D01*
X68405684Y-78103371D01*
X68782999Y-78103371D01*
X68810970Y-78653648D01*
X68967740Y-79032123D01*
X69208683Y-79100112D01*
X70000595Y-78308200D01*
X70359805Y-78308200D01*
X71151717Y-79100112D01*
X71392660Y-79032123D01*
X71577401Y-78513029D01*
X71549430Y-77962752D01*
X71392660Y-77584277D01*
X71151717Y-77516288D01*
X70359805Y-78308200D01*
X70000595Y-78308200D01*
X69208683Y-77516288D01*
X68967740Y-77584277D01*
X68782999Y-78103371D01*
X68405684Y-78103371D01*
X68432112Y-78009717D01*
X67640200Y-77217805D01*
X66848288Y-78009717D01*
X56463000Y-78009717D01*
X56463000Y-76833371D01*
X66242999Y-76833371D01*
X66270970Y-77383648D01*
X66427740Y-77762123D01*
X66668683Y-77830112D01*
X67460595Y-77038200D01*
X67819805Y-77038200D01*
X68611717Y-77830112D01*
X68852660Y-77762123D01*
X69037401Y-77243029D01*
X69009430Y-76692752D01*
X68852660Y-76314277D01*
X68611717Y-76246288D01*
X67819805Y-77038200D01*
X67460595Y-77038200D01*
X66668683Y-76246288D01*
X66427740Y-76314277D01*
X66242999Y-76833371D01*
X56463000Y-76833371D01*
X56463000Y-67789009D01*
X57093616Y-68050863D01*
X57863407Y-68051535D01*
X58574858Y-67757570D01*
X59119657Y-67213721D01*
X59414863Y-66502784D01*
X59415535Y-65732993D01*
X59415092Y-65731922D01*
X59415535Y-65224993D01*
X59121570Y-64513542D01*
X58577721Y-63968743D01*
X57866784Y-63673537D01*
X57096993Y-63672865D01*
X56463000Y-63934825D01*
X56463000Y-51533009D01*
X57093616Y-51794863D01*
X57863407Y-51795535D01*
X58574858Y-51501570D01*
X59119657Y-50957721D01*
X59414863Y-50246784D01*
X59415535Y-49476993D01*
X59122090Y-48766800D01*
X79647598Y-48766800D01*
X78431199Y-49983199D01*
M02*
