G04 #@! TF.FileFunction,Legend,Top*
%FSLAX46Y46*%
G04 Gerber Fmt 4.6, Leading zero omitted, Abs format (unit mm)*
G04 Created by KiCad (PCBNEW 4.0.7) date 10/13/19 14:19:05*
%MOMM*%
%LPD*%
G01*
G04 APERTURE LIST*
%ADD10C,0.100000*%
%ADD11C,0.200000*%
%ADD12C,0.300000*%
%ADD13C,0.150000*%
G04 APERTURE END LIST*
D10*
D11*
X90764218Y-50972981D02*
X90764218Y-49972981D01*
X90764218Y-50353933D02*
X90859456Y-50306314D01*
X91049933Y-50306314D01*
X91145171Y-50353933D01*
X91192790Y-50401552D01*
X91240409Y-50496790D01*
X91240409Y-50782505D01*
X91192790Y-50877743D01*
X91145171Y-50925362D01*
X91049933Y-50972981D01*
X90859456Y-50972981D01*
X90764218Y-50925362D01*
X91573742Y-50306314D02*
X91811837Y-50972981D01*
X92049933Y-50306314D02*
X91811837Y-50972981D01*
X91716599Y-51211076D01*
X91668980Y-51258695D01*
X91573742Y-51306314D01*
X92430885Y-50306314D02*
X92430885Y-51306314D01*
X92430885Y-50353933D02*
X92526123Y-50306314D01*
X92716600Y-50306314D01*
X92811838Y-50353933D01*
X92859457Y-50401552D01*
X92907076Y-50496790D01*
X92907076Y-50782505D01*
X92859457Y-50877743D01*
X92811838Y-50925362D01*
X92716600Y-50972981D01*
X92526123Y-50972981D01*
X92430885Y-50925362D01*
X93764219Y-50972981D02*
X93764219Y-50449171D01*
X93716600Y-50353933D01*
X93621362Y-50306314D01*
X93430885Y-50306314D01*
X93335647Y-50353933D01*
X93764219Y-50925362D02*
X93668981Y-50972981D01*
X93430885Y-50972981D01*
X93335647Y-50925362D01*
X93288028Y-50830124D01*
X93288028Y-50734886D01*
X93335647Y-50639648D01*
X93430885Y-50592029D01*
X93668981Y-50592029D01*
X93764219Y-50544410D01*
X94192790Y-50925362D02*
X94288028Y-50972981D01*
X94478504Y-50972981D01*
X94573743Y-50925362D01*
X94621362Y-50830124D01*
X94621362Y-50782505D01*
X94573743Y-50687267D01*
X94478504Y-50639648D01*
X94335647Y-50639648D01*
X94240409Y-50592029D01*
X94192790Y-50496790D01*
X94192790Y-50449171D01*
X94240409Y-50353933D01*
X94335647Y-50306314D01*
X94478504Y-50306314D01*
X94573743Y-50353933D01*
X95002314Y-50925362D02*
X95097552Y-50972981D01*
X95288028Y-50972981D01*
X95383267Y-50925362D01*
X95430886Y-50830124D01*
X95430886Y-50782505D01*
X95383267Y-50687267D01*
X95288028Y-50639648D01*
X95145171Y-50639648D01*
X95049933Y-50592029D01*
X95002314Y-50496790D01*
X95002314Y-50449171D01*
X95049933Y-50353933D01*
X95145171Y-50306314D01*
X95288028Y-50306314D01*
X95383267Y-50353933D01*
X95859457Y-50592029D02*
X96621362Y-50592029D01*
X97240409Y-50972981D02*
X97145171Y-50925362D01*
X97097552Y-50877743D01*
X97049933Y-50782505D01*
X97049933Y-50496790D01*
X97097552Y-50401552D01*
X97145171Y-50353933D01*
X97240409Y-50306314D01*
X97383267Y-50306314D01*
X97478505Y-50353933D01*
X97526124Y-50401552D01*
X97573743Y-50496790D01*
X97573743Y-50782505D01*
X97526124Y-50877743D01*
X97478505Y-50925362D01*
X97383267Y-50972981D01*
X97240409Y-50972981D01*
X97859457Y-50306314D02*
X98240409Y-50306314D01*
X98002314Y-50972981D02*
X98002314Y-50115838D01*
X98049933Y-50020600D01*
X98145171Y-49972981D01*
X98240409Y-49972981D01*
X98430886Y-50306314D02*
X98811838Y-50306314D01*
X98573743Y-50972981D02*
X98573743Y-50115838D01*
X98621362Y-50020600D01*
X98716600Y-49972981D01*
X98811838Y-49972981D01*
X63164981Y-60196124D02*
X62164981Y-60196124D01*
X62545933Y-60196124D02*
X62498314Y-60100886D01*
X62498314Y-59910409D01*
X62545933Y-59815171D01*
X62593552Y-59767552D01*
X62688790Y-59719933D01*
X62974505Y-59719933D01*
X63069743Y-59767552D01*
X63117362Y-59815171D01*
X63164981Y-59910409D01*
X63164981Y-60100886D01*
X63117362Y-60196124D01*
X62498314Y-59386600D02*
X63164981Y-59148505D01*
X62498314Y-58910409D02*
X63164981Y-59148505D01*
X63403076Y-59243743D01*
X63450695Y-59291362D01*
X63498314Y-59386600D01*
X62498314Y-58529457D02*
X63498314Y-58529457D01*
X62545933Y-58529457D02*
X62498314Y-58434219D01*
X62498314Y-58243742D01*
X62545933Y-58148504D01*
X62593552Y-58100885D01*
X62688790Y-58053266D01*
X62974505Y-58053266D01*
X63069743Y-58100885D01*
X63117362Y-58148504D01*
X63164981Y-58243742D01*
X63164981Y-58434219D01*
X63117362Y-58529457D01*
X63164981Y-57196123D02*
X62641171Y-57196123D01*
X62545933Y-57243742D01*
X62498314Y-57338980D01*
X62498314Y-57529457D01*
X62545933Y-57624695D01*
X63117362Y-57196123D02*
X63164981Y-57291361D01*
X63164981Y-57529457D01*
X63117362Y-57624695D01*
X63022124Y-57672314D01*
X62926886Y-57672314D01*
X62831648Y-57624695D01*
X62784029Y-57529457D01*
X62784029Y-57291361D01*
X62736410Y-57196123D01*
X63117362Y-56767552D02*
X63164981Y-56672314D01*
X63164981Y-56481838D01*
X63117362Y-56386599D01*
X63022124Y-56338980D01*
X62974505Y-56338980D01*
X62879267Y-56386599D01*
X62831648Y-56481838D01*
X62831648Y-56624695D01*
X62784029Y-56719933D01*
X62688790Y-56767552D01*
X62641171Y-56767552D01*
X62545933Y-56719933D01*
X62498314Y-56624695D01*
X62498314Y-56481838D01*
X62545933Y-56386599D01*
X63117362Y-55958028D02*
X63164981Y-55862790D01*
X63164981Y-55672314D01*
X63117362Y-55577075D01*
X63022124Y-55529456D01*
X62974505Y-55529456D01*
X62879267Y-55577075D01*
X62831648Y-55672314D01*
X62831648Y-55815171D01*
X62784029Y-55910409D01*
X62688790Y-55958028D01*
X62641171Y-55958028D01*
X62545933Y-55910409D01*
X62498314Y-55815171D01*
X62498314Y-55672314D01*
X62545933Y-55577075D01*
D12*
X110528028Y-64343743D02*
X109385171Y-64343743D01*
X105448028Y-64343743D02*
X104305171Y-64343743D01*
X104876600Y-64915171D02*
X104876600Y-63772314D01*
X86906028Y-64343743D02*
X85763171Y-64343743D01*
X81572028Y-64343743D02*
X80429171Y-64343743D01*
X81000600Y-64915171D02*
X81000600Y-63772314D01*
D11*
X105273743Y-62736362D02*
X105368981Y-62783981D01*
X105559457Y-62783981D01*
X105654696Y-62736362D01*
X105702315Y-62641124D01*
X105702315Y-62593505D01*
X105654696Y-62498267D01*
X105559457Y-62450648D01*
X105416600Y-62450648D01*
X105321362Y-62403029D01*
X105273743Y-62307790D01*
X105273743Y-62260171D01*
X105321362Y-62164933D01*
X105416600Y-62117314D01*
X105559457Y-62117314D01*
X105654696Y-62164933D01*
X106035648Y-62117314D02*
X106226124Y-62783981D01*
X106416601Y-62307790D01*
X106607077Y-62783981D01*
X106797553Y-62117314D01*
X107178505Y-62783981D02*
X107178505Y-62117314D01*
X107178505Y-61783981D02*
X107130886Y-61831600D01*
X107178505Y-61879219D01*
X107226124Y-61831600D01*
X107178505Y-61783981D01*
X107178505Y-61879219D01*
X107511838Y-62117314D02*
X107892790Y-62117314D01*
X107654695Y-61783981D02*
X107654695Y-62641124D01*
X107702314Y-62736362D01*
X107797552Y-62783981D01*
X107892790Y-62783981D01*
X108654696Y-62736362D02*
X108559458Y-62783981D01*
X108368981Y-62783981D01*
X108273743Y-62736362D01*
X108226124Y-62688743D01*
X108178505Y-62593505D01*
X108178505Y-62307790D01*
X108226124Y-62212552D01*
X108273743Y-62164933D01*
X108368981Y-62117314D01*
X108559458Y-62117314D01*
X108654696Y-62164933D01*
X109083267Y-62783981D02*
X109083267Y-61783981D01*
X109511839Y-62783981D02*
X109511839Y-62260171D01*
X109464220Y-62164933D01*
X109368982Y-62117314D01*
X109226124Y-62117314D01*
X109130886Y-62164933D01*
X109083267Y-62212552D01*
X80659648Y-62656981D02*
X80088219Y-62656981D01*
X80373933Y-62656981D02*
X80373933Y-61656981D01*
X80278695Y-61799838D01*
X80183457Y-61895076D01*
X80088219Y-61942695D01*
X81040600Y-61752219D02*
X81088219Y-61704600D01*
X81183457Y-61656981D01*
X81421553Y-61656981D01*
X81516791Y-61704600D01*
X81564410Y-61752219D01*
X81612029Y-61847457D01*
X81612029Y-61942695D01*
X81564410Y-62085552D01*
X80992981Y-62656981D01*
X81612029Y-62656981D01*
X81897743Y-61656981D02*
X82231076Y-62656981D01*
X82564410Y-61656981D01*
X83659648Y-62656981D02*
X83659648Y-61990314D01*
X83659648Y-61656981D02*
X83612029Y-61704600D01*
X83659648Y-61752219D01*
X83707267Y-61704600D01*
X83659648Y-61656981D01*
X83659648Y-61752219D01*
X84135838Y-61990314D02*
X84135838Y-62656981D01*
X84135838Y-62085552D02*
X84183457Y-62037933D01*
X84278695Y-61990314D01*
X84421553Y-61990314D01*
X84516791Y-62037933D01*
X84564410Y-62133171D01*
X84564410Y-62656981D01*
X85040600Y-61990314D02*
X85040600Y-62990314D01*
X85040600Y-62037933D02*
X85135838Y-61990314D01*
X85326315Y-61990314D01*
X85421553Y-62037933D01*
X85469172Y-62085552D01*
X85516791Y-62180790D01*
X85516791Y-62466505D01*
X85469172Y-62561743D01*
X85421553Y-62609362D01*
X85326315Y-62656981D01*
X85135838Y-62656981D01*
X85040600Y-62609362D01*
X86373934Y-61990314D02*
X86373934Y-62656981D01*
X85945362Y-61990314D02*
X85945362Y-62514124D01*
X85992981Y-62609362D01*
X86088219Y-62656981D01*
X86231077Y-62656981D01*
X86326315Y-62609362D01*
X86373934Y-62561743D01*
X86707267Y-61990314D02*
X87088219Y-61990314D01*
X86850124Y-61656981D02*
X86850124Y-62514124D01*
X86897743Y-62609362D01*
X86992981Y-62656981D01*
X87088219Y-62656981D01*
D12*
X102749887Y-96284171D02*
X101892744Y-96284171D01*
X102321316Y-96284171D02*
X102321316Y-94784171D01*
X102178459Y-94998457D01*
X102035601Y-95141314D01*
X101892744Y-95212743D01*
X103321315Y-94927029D02*
X103392744Y-94855600D01*
X103535601Y-94784171D01*
X103892744Y-94784171D01*
X104035601Y-94855600D01*
X104107030Y-94927029D01*
X104178458Y-95069886D01*
X104178458Y-95212743D01*
X104107030Y-95427029D01*
X103249887Y-96284171D01*
X104178458Y-96284171D01*
X104607029Y-94784171D02*
X105107029Y-96284171D01*
X105607029Y-94784171D01*
X106107029Y-95712743D02*
X107249886Y-95712743D01*
X107821315Y-94784171D02*
X108749886Y-94784171D01*
X108249886Y-95355600D01*
X108464172Y-95355600D01*
X108607029Y-95427029D01*
X108678458Y-95498457D01*
X108749886Y-95641314D01*
X108749886Y-95998457D01*
X108678458Y-96141314D01*
X108607029Y-96212743D01*
X108464172Y-96284171D01*
X108035600Y-96284171D01*
X107892743Y-96212743D01*
X107821315Y-96141314D01*
X109392743Y-96141314D02*
X109464171Y-96212743D01*
X109392743Y-96284171D01*
X109321314Y-96212743D01*
X109392743Y-96141314D01*
X109392743Y-96284171D01*
X109964172Y-94784171D02*
X110892743Y-94784171D01*
X110392743Y-95355600D01*
X110607029Y-95355600D01*
X110749886Y-95427029D01*
X110821315Y-95498457D01*
X110892743Y-95641314D01*
X110892743Y-95998457D01*
X110821315Y-96141314D01*
X110749886Y-96212743D01*
X110607029Y-96284171D01*
X110178457Y-96284171D01*
X110035600Y-96212743D01*
X109964172Y-96141314D01*
X111321314Y-94784171D02*
X111821314Y-96284171D01*
X112321314Y-94784171D01*
X79064459Y-94784171D02*
X79993030Y-94784171D01*
X79493030Y-95355600D01*
X79707316Y-95355600D01*
X79850173Y-95427029D01*
X79921602Y-95498457D01*
X79993030Y-95641314D01*
X79993030Y-95998457D01*
X79921602Y-96141314D01*
X79850173Y-96212743D01*
X79707316Y-96284171D01*
X79278744Y-96284171D01*
X79135887Y-96212743D01*
X79064459Y-96141314D01*
X81278744Y-94784171D02*
X80993030Y-94784171D01*
X80850173Y-94855600D01*
X80778744Y-94927029D01*
X80635887Y-95141314D01*
X80564458Y-95427029D01*
X80564458Y-95998457D01*
X80635887Y-96141314D01*
X80707315Y-96212743D01*
X80850173Y-96284171D01*
X81135887Y-96284171D01*
X81278744Y-96212743D01*
X81350173Y-96141314D01*
X81421601Y-95998457D01*
X81421601Y-95641314D01*
X81350173Y-95498457D01*
X81278744Y-95427029D01*
X81135887Y-95355600D01*
X80850173Y-95355600D01*
X80707315Y-95427029D01*
X80635887Y-95498457D01*
X80564458Y-95641314D01*
X81850172Y-94784171D02*
X82350172Y-96284171D01*
X82850172Y-94784171D01*
X83350172Y-95712743D02*
X84493029Y-95712743D01*
X85993029Y-96284171D02*
X85135886Y-96284171D01*
X85564458Y-96284171D02*
X85564458Y-94784171D01*
X85421601Y-94998457D01*
X85278743Y-95141314D01*
X85135886Y-95212743D01*
X86564457Y-94927029D02*
X86635886Y-94855600D01*
X86778743Y-94784171D01*
X87135886Y-94784171D01*
X87278743Y-94855600D01*
X87350172Y-94927029D01*
X87421600Y-95069886D01*
X87421600Y-95212743D01*
X87350172Y-95427029D01*
X86493029Y-96284171D01*
X87421600Y-96284171D01*
X87850171Y-94784171D02*
X88350171Y-96284171D01*
X88850171Y-94784171D01*
D11*
X97161695Y-126633314D02*
X97542647Y-126633314D01*
X97304552Y-127299981D02*
X97304552Y-126442838D01*
X97352171Y-126347600D01*
X97447409Y-126299981D01*
X97542647Y-126299981D01*
X98304553Y-126633314D02*
X98304553Y-127299981D01*
X97875981Y-126633314D02*
X97875981Y-127157124D01*
X97923600Y-127252362D01*
X98018838Y-127299981D01*
X98161696Y-127299981D01*
X98256934Y-127252362D01*
X98304553Y-127204743D01*
X98733124Y-127252362D02*
X98828362Y-127299981D01*
X99018838Y-127299981D01*
X99114077Y-127252362D01*
X99161696Y-127157124D01*
X99161696Y-127109505D01*
X99114077Y-127014267D01*
X99018838Y-126966648D01*
X98875981Y-126966648D01*
X98780743Y-126919029D01*
X98733124Y-126823790D01*
X98733124Y-126776171D01*
X98780743Y-126680933D01*
X98875981Y-126633314D01*
X99018838Y-126633314D01*
X99114077Y-126680933D01*
X99971220Y-127252362D02*
X99875982Y-127299981D01*
X99685505Y-127299981D01*
X99590267Y-127252362D01*
X99542648Y-127157124D01*
X99542648Y-126776171D01*
X99590267Y-126680933D01*
X99685505Y-126633314D01*
X99875982Y-126633314D01*
X99971220Y-126680933D01*
X100018839Y-126776171D01*
X100018839Y-126871410D01*
X99542648Y-126966648D01*
X101114077Y-126299981D02*
X101733125Y-126299981D01*
X101399791Y-126680933D01*
X101542649Y-126680933D01*
X101637887Y-126728552D01*
X101685506Y-126776171D01*
X101733125Y-126871410D01*
X101733125Y-127109505D01*
X101685506Y-127204743D01*
X101637887Y-127252362D01*
X101542649Y-127299981D01*
X101256934Y-127299981D01*
X101161696Y-127252362D01*
X101114077Y-127204743D01*
X102114077Y-127014267D02*
X102590268Y-127014267D01*
X102018839Y-127299981D02*
X102352172Y-126299981D01*
X102685506Y-127299981D01*
D10*
X59597530Y-131629957D02*
X59859434Y-131629957D01*
X59597530Y-131963290D01*
X59859434Y-131963290D01*
X60264196Y-131963290D02*
X60264196Y-131701386D01*
X60240387Y-131653767D01*
X60192768Y-131629957D01*
X60097530Y-131629957D01*
X60049911Y-131653767D01*
X60264196Y-131939481D02*
X60216577Y-131963290D01*
X60097530Y-131963290D01*
X60049911Y-131939481D01*
X60026101Y-131891862D01*
X60026101Y-131844243D01*
X60049911Y-131796624D01*
X60097530Y-131772814D01*
X60216577Y-131772814D01*
X60264196Y-131749005D01*
X60502292Y-131629957D02*
X60502292Y-132058529D01*
X60478482Y-132106148D01*
X60430863Y-132129957D01*
X60407054Y-132129957D01*
X60502292Y-131463290D02*
X60478482Y-131487100D01*
X60502292Y-131510910D01*
X60526101Y-131487100D01*
X60502292Y-131463290D01*
X60502292Y-131510910D01*
X60740387Y-131963290D02*
X60740387Y-131463290D01*
X60788006Y-131772814D02*
X60930863Y-131963290D01*
X60930863Y-131629957D02*
X60740387Y-131820433D01*
X61216577Y-131963290D02*
X61168958Y-131939481D01*
X61145149Y-131915671D01*
X61121339Y-131868052D01*
X61121339Y-131725195D01*
X61145149Y-131677576D01*
X61168958Y-131653767D01*
X61216577Y-131629957D01*
X61288006Y-131629957D01*
X61335625Y-131653767D01*
X61359434Y-131677576D01*
X61383244Y-131725195D01*
X61383244Y-131868052D01*
X61359434Y-131915671D01*
X61335625Y-131939481D01*
X61288006Y-131963290D01*
X61216577Y-131963290D01*
X61978482Y-131963290D02*
X61978482Y-131629957D01*
X61978482Y-131677576D02*
X62002291Y-131653767D01*
X62049910Y-131629957D01*
X62121339Y-131629957D01*
X62168958Y-131653767D01*
X62192767Y-131701386D01*
X62192767Y-131963290D01*
X62192767Y-131701386D02*
X62216577Y-131653767D01*
X62264196Y-131629957D01*
X62335624Y-131629957D01*
X62383244Y-131653767D01*
X62407053Y-131701386D01*
X62407053Y-131963290D01*
X62645149Y-131963290D02*
X62645149Y-131629957D01*
X62645149Y-131463290D02*
X62621339Y-131487100D01*
X62645149Y-131510910D01*
X62668958Y-131487100D01*
X62645149Y-131463290D01*
X62645149Y-131510910D01*
X62954672Y-131963290D02*
X62907053Y-131939481D01*
X62883244Y-131891862D01*
X62883244Y-131463290D01*
X63359434Y-131629957D02*
X63359434Y-131963290D01*
X63145149Y-131629957D02*
X63145149Y-131891862D01*
X63168958Y-131939481D01*
X63216577Y-131963290D01*
X63288006Y-131963290D01*
X63335625Y-131939481D01*
X63359434Y-131915671D01*
X63597530Y-131629957D02*
X63597530Y-132058529D01*
X63573720Y-132106148D01*
X63526101Y-132129957D01*
X63502292Y-132129957D01*
X63597530Y-131463290D02*
X63573720Y-131487100D01*
X63597530Y-131510910D01*
X63621339Y-131487100D01*
X63597530Y-131463290D01*
X63597530Y-131510910D01*
X64026101Y-131939481D02*
X63978482Y-131963290D01*
X63883244Y-131963290D01*
X63835625Y-131939481D01*
X63811815Y-131891862D01*
X63811815Y-131701386D01*
X63835625Y-131653767D01*
X63883244Y-131629957D01*
X63978482Y-131629957D01*
X64026101Y-131653767D01*
X64049910Y-131701386D01*
X64049910Y-131749005D01*
X63811815Y-131796624D01*
X64264196Y-131963290D02*
X64264196Y-131629957D01*
X64264196Y-131677576D02*
X64288005Y-131653767D01*
X64335624Y-131629957D01*
X64407053Y-131629957D01*
X64454672Y-131653767D01*
X64478481Y-131701386D01*
X64478481Y-131963290D01*
X64478481Y-131701386D02*
X64502291Y-131653767D01*
X64549910Y-131629957D01*
X64621338Y-131629957D01*
X64668958Y-131653767D01*
X64692767Y-131701386D01*
X64692767Y-131963290D01*
X65240386Y-131463290D02*
X65526100Y-131463290D01*
X65383243Y-131963290D02*
X65383243Y-131463290D01*
X65907052Y-131963290D02*
X65907052Y-131701386D01*
X65883243Y-131653767D01*
X65835624Y-131629957D01*
X65740386Y-131629957D01*
X65692767Y-131653767D01*
X65907052Y-131939481D02*
X65859433Y-131963290D01*
X65740386Y-131963290D01*
X65692767Y-131939481D01*
X65668957Y-131891862D01*
X65668957Y-131844243D01*
X65692767Y-131796624D01*
X65740386Y-131772814D01*
X65859433Y-131772814D01*
X65907052Y-131749005D01*
D11*
X124113171Y-116359456D02*
X124113171Y-115788027D01*
X123613171Y-116145170D02*
X124898886Y-116145170D01*
X125041743Y-116073742D01*
X125113171Y-115930884D01*
X125113171Y-115788027D01*
X125113171Y-115288027D02*
X124113171Y-115288027D01*
X124398886Y-115288027D02*
X124256029Y-115216599D01*
X124184600Y-115145170D01*
X124113171Y-115002313D01*
X124113171Y-114859456D01*
X125113171Y-114145170D02*
X125041743Y-114288028D01*
X124970314Y-114359456D01*
X124827457Y-114430885D01*
X124398886Y-114430885D01*
X124256029Y-114359456D01*
X124184600Y-114288028D01*
X124113171Y-114145170D01*
X124113171Y-113930885D01*
X124184600Y-113788028D01*
X124256029Y-113716599D01*
X124398886Y-113645170D01*
X124827457Y-113645170D01*
X124970314Y-113716599D01*
X125041743Y-113788028D01*
X125113171Y-113930885D01*
X125113171Y-114145170D01*
X124113171Y-113002313D02*
X125113171Y-113002313D01*
X124256029Y-113002313D02*
X124184600Y-112930885D01*
X124113171Y-112788027D01*
X124113171Y-112573742D01*
X124184600Y-112430885D01*
X124327457Y-112359456D01*
X125113171Y-112359456D01*
X125113171Y-111645170D02*
X124113171Y-111645170D01*
X123613171Y-111645170D02*
X123684600Y-111716599D01*
X123756029Y-111645170D01*
X123684600Y-111573742D01*
X123613171Y-111645170D01*
X123756029Y-111645170D01*
X125041743Y-110288027D02*
X125113171Y-110430884D01*
X125113171Y-110716598D01*
X125041743Y-110859456D01*
X124970314Y-110930884D01*
X124827457Y-111002313D01*
X124398886Y-111002313D01*
X124256029Y-110930884D01*
X124184600Y-110859456D01*
X124113171Y-110716598D01*
X124113171Y-110430884D01*
X124184600Y-110288027D01*
X124970314Y-109645170D02*
X125041743Y-109573742D01*
X125113171Y-109645170D01*
X125041743Y-109716599D01*
X124970314Y-109645170D01*
X125113171Y-109645170D01*
X125041743Y-109002313D02*
X125113171Y-108859456D01*
X125113171Y-108573741D01*
X125041743Y-108430884D01*
X124898886Y-108359456D01*
X124827457Y-108359456D01*
X124684600Y-108430884D01*
X124613171Y-108573741D01*
X124613171Y-108788027D01*
X124541743Y-108930884D01*
X124398886Y-109002313D01*
X124327457Y-109002313D01*
X124184600Y-108930884D01*
X124113171Y-108788027D01*
X124113171Y-108573741D01*
X124184600Y-108430884D01*
X125113171Y-107716598D02*
X123613171Y-107716598D01*
X124541743Y-107573741D02*
X125113171Y-107145170D01*
X124113171Y-107145170D02*
X124684600Y-107716598D01*
X123541743Y-104288027D02*
X125470314Y-105573741D01*
X124113171Y-102645169D02*
X125613171Y-102645169D01*
X124184600Y-102645169D02*
X124113171Y-102502312D01*
X124113171Y-102216598D01*
X124184600Y-102073741D01*
X124256029Y-102002312D01*
X124398886Y-101930883D01*
X124827457Y-101930883D01*
X124970314Y-102002312D01*
X125041743Y-102073741D01*
X125113171Y-102216598D01*
X125113171Y-102502312D01*
X125041743Y-102645169D01*
X125113171Y-101073740D02*
X125041743Y-101216598D01*
X124970314Y-101288026D01*
X124827457Y-101359455D01*
X124398886Y-101359455D01*
X124256029Y-101288026D01*
X124184600Y-101216598D01*
X124113171Y-101073740D01*
X124113171Y-100859455D01*
X124184600Y-100716598D01*
X124256029Y-100645169D01*
X124398886Y-100573740D01*
X124827457Y-100573740D01*
X124970314Y-100645169D01*
X125041743Y-100716598D01*
X125113171Y-100859455D01*
X125113171Y-101073740D01*
X125041743Y-99359455D02*
X125113171Y-99502312D01*
X125113171Y-99788026D01*
X125041743Y-99930883D01*
X124898886Y-100002312D01*
X124327457Y-100002312D01*
X124184600Y-99930883D01*
X124113171Y-99788026D01*
X124113171Y-99502312D01*
X124184600Y-99359455D01*
X124327457Y-99288026D01*
X124470314Y-99288026D01*
X124613171Y-100002312D01*
X124541743Y-98645169D02*
X124541743Y-97502312D01*
X123613171Y-96073740D02*
X123613171Y-96788026D01*
X124327457Y-96859455D01*
X124256029Y-96788026D01*
X124184600Y-96645169D01*
X124184600Y-96288026D01*
X124256029Y-96145169D01*
X124327457Y-96073740D01*
X124470314Y-96002312D01*
X124827457Y-96002312D01*
X124970314Y-96073740D01*
X125041743Y-96145169D01*
X125113171Y-96288026D01*
X125113171Y-96645169D01*
X125041743Y-96788026D01*
X124970314Y-96859455D01*
X124113171Y-95359455D02*
X125613171Y-95359455D01*
X124184600Y-95359455D02*
X124113171Y-95216598D01*
X124113171Y-94930884D01*
X124184600Y-94788027D01*
X124256029Y-94716598D01*
X124398886Y-94645169D01*
X124827457Y-94645169D01*
X124970314Y-94716598D01*
X125041743Y-94788027D01*
X125113171Y-94930884D01*
X125113171Y-95216598D01*
X125041743Y-95359455D01*
X125113171Y-93788026D02*
X125041743Y-93930884D01*
X124970314Y-94002312D01*
X124827457Y-94073741D01*
X124398886Y-94073741D01*
X124256029Y-94002312D01*
X124184600Y-93930884D01*
X124113171Y-93788026D01*
X124113171Y-93573741D01*
X124184600Y-93430884D01*
X124256029Y-93359455D01*
X124398886Y-93288026D01*
X124827457Y-93288026D01*
X124970314Y-93359455D01*
X125041743Y-93430884D01*
X125113171Y-93573741D01*
X125113171Y-93788026D01*
X125113171Y-92645169D02*
X124113171Y-92645169D01*
X124398886Y-92645169D02*
X124256029Y-92573741D01*
X124184600Y-92502312D01*
X124113171Y-92359455D01*
X124113171Y-92216598D01*
X124113171Y-91930884D02*
X124113171Y-91359455D01*
X123613171Y-91716598D02*
X124898886Y-91716598D01*
X125041743Y-91645170D01*
X125113171Y-91502312D01*
X125113171Y-91359455D01*
X123541743Y-88645170D02*
X125470314Y-89930884D01*
X124113171Y-87145169D02*
X125113171Y-86788026D01*
X124113171Y-86430884D01*
X125113171Y-85073741D02*
X125113171Y-85930884D01*
X125113171Y-85502312D02*
X123613171Y-85502312D01*
X123827457Y-85645169D01*
X123970314Y-85788027D01*
X124041743Y-85930884D01*
X124970314Y-84430884D02*
X125041743Y-84359456D01*
X125113171Y-84430884D01*
X125041743Y-84502313D01*
X124970314Y-84430884D01*
X125113171Y-84430884D01*
X123613171Y-83430884D02*
X123613171Y-83288027D01*
X123684600Y-83145170D01*
X123756029Y-83073741D01*
X123898886Y-83002312D01*
X124184600Y-82930884D01*
X124541743Y-82930884D01*
X124827457Y-83002312D01*
X124970314Y-83073741D01*
X125041743Y-83145170D01*
X125113171Y-83288027D01*
X125113171Y-83430884D01*
X125041743Y-83573741D01*
X124970314Y-83645170D01*
X124827457Y-83716598D01*
X124541743Y-83788027D01*
X124184600Y-83788027D01*
X123898886Y-83716598D01*
X123756029Y-83645170D01*
X123684600Y-83573741D01*
X123613171Y-83430884D01*
X125113171Y-80359456D02*
X125113171Y-81216599D01*
X125113171Y-80788027D02*
X123613171Y-80788027D01*
X123827457Y-80930884D01*
X123970314Y-81073742D01*
X124041743Y-81216599D01*
X125113171Y-79645171D02*
X125113171Y-79359456D01*
X125041743Y-79216599D01*
X124970314Y-79145171D01*
X124756029Y-79002313D01*
X124470314Y-78930885D01*
X123898886Y-78930885D01*
X123756029Y-79002313D01*
X123684600Y-79073742D01*
X123613171Y-79216599D01*
X123613171Y-79502313D01*
X123684600Y-79645171D01*
X123756029Y-79716599D01*
X123898886Y-79788028D01*
X124256029Y-79788028D01*
X124398886Y-79716599D01*
X124470314Y-79645171D01*
X124541743Y-79502313D01*
X124541743Y-79216599D01*
X124470314Y-79073742D01*
X124398886Y-79002313D01*
X124256029Y-78930885D01*
X125113171Y-77502314D02*
X125113171Y-78359457D01*
X125113171Y-77930885D02*
X123613171Y-77930885D01*
X123827457Y-78073742D01*
X123970314Y-78216600D01*
X124041743Y-78359457D01*
X123613171Y-76573743D02*
X123613171Y-76430886D01*
X123684600Y-76288029D01*
X123756029Y-76216600D01*
X123898886Y-76145171D01*
X124184600Y-76073743D01*
X124541743Y-76073743D01*
X124827457Y-76145171D01*
X124970314Y-76216600D01*
X125041743Y-76288029D01*
X125113171Y-76430886D01*
X125113171Y-76573743D01*
X125041743Y-76716600D01*
X124970314Y-76788029D01*
X124827457Y-76859457D01*
X124541743Y-76930886D01*
X124184600Y-76930886D01*
X123898886Y-76859457D01*
X123756029Y-76788029D01*
X123684600Y-76716600D01*
X123613171Y-76573743D01*
X125113171Y-74645172D02*
X125113171Y-75502315D01*
X125113171Y-75073743D02*
X123613171Y-75073743D01*
X123827457Y-75216600D01*
X123970314Y-75359458D01*
X124041743Y-75502315D01*
X123756029Y-74073744D02*
X123684600Y-74002315D01*
X123613171Y-73859458D01*
X123613171Y-73502315D01*
X123684600Y-73359458D01*
X123756029Y-73288029D01*
X123898886Y-73216601D01*
X124041743Y-73216601D01*
X124256029Y-73288029D01*
X125113171Y-74145172D01*
X125113171Y-73216601D01*
D13*
X71704200Y-98628200D02*
X55702200Y-98628200D01*
X55702200Y-114376200D02*
X70815200Y-114376200D01*
X71704200Y-98628200D02*
X71704200Y-99390200D01*
X70180200Y-114376200D02*
X71704200Y-114376200D01*
X71704200Y-114376200D02*
X71704200Y-99136200D01*
X55702200Y-98628200D02*
X55702200Y-114376200D01*
X71704200Y-82372200D02*
X55702200Y-82372200D01*
X55702200Y-98120200D02*
X70815200Y-98120200D01*
X71704200Y-82372200D02*
X71704200Y-83134200D01*
X70180200Y-98120200D02*
X71704200Y-98120200D01*
X71704200Y-98120200D02*
X71704200Y-82880200D01*
X55702200Y-82372200D02*
X55702200Y-98120200D01*
X84048600Y-117322600D02*
X73126600Y-117322600D01*
X73126600Y-117322600D02*
X73126600Y-73634600D01*
X73126600Y-73634600D02*
X94970600Y-73634600D01*
X94970600Y-73634600D02*
X94970600Y-117322600D01*
X94970600Y-117322600D02*
X83540600Y-117322600D01*
X83540600Y-75158600D02*
X83286600Y-75158600D01*
X98526600Y-124434600D02*
X88620600Y-124434600D01*
X88620600Y-124434600D02*
X88620600Y-129514600D01*
X88620600Y-129514600D02*
X110718600Y-129514600D01*
X110718600Y-129514600D02*
X110718600Y-124688600D01*
X110718600Y-124688600D02*
X110718600Y-124434600D01*
X110718600Y-124434600D02*
X98526600Y-124434600D01*
X78460600Y-63474600D02*
X88620600Y-63474600D01*
X88620600Y-63474600D02*
X88620600Y-71094600D01*
X88620600Y-71094600D02*
X78460600Y-71094600D01*
X78460600Y-71094600D02*
X78460600Y-63474600D01*
X102336600Y-63474600D02*
X112496600Y-63474600D01*
X112496600Y-63474600D02*
X112496600Y-71094600D01*
X112496600Y-71094600D02*
X102336600Y-71094600D01*
X102336600Y-71094600D02*
X102336600Y-63474600D01*
X71653400Y-114884200D02*
X55651400Y-114884200D01*
X55651400Y-130632200D02*
X70764400Y-130632200D01*
X71653400Y-114884200D02*
X71653400Y-115646200D01*
X70129400Y-130632200D02*
X71653400Y-130632200D01*
X71653400Y-130632200D02*
X71653400Y-115392200D01*
X55651400Y-114884200D02*
X55651400Y-130632200D01*
X71704200Y-49860200D02*
X55702200Y-49860200D01*
X55702200Y-65608200D02*
X70815200Y-65608200D01*
X71704200Y-49860200D02*
X71704200Y-50622200D01*
X70180200Y-65608200D02*
X71704200Y-65608200D01*
X71704200Y-65608200D02*
X71704200Y-50368200D01*
X55702200Y-49860200D02*
X55702200Y-65608200D01*
X107924600Y-117068600D02*
X97002600Y-117068600D01*
X97002600Y-117068600D02*
X97002600Y-73380600D01*
X97002600Y-73380600D02*
X118846600Y-73380600D01*
X118846600Y-73380600D02*
X118846600Y-117068600D01*
X118846600Y-117068600D02*
X107416600Y-117068600D01*
X107416600Y-74904600D02*
X107162600Y-74904600D01*
X71704200Y-66116200D02*
X55702200Y-66116200D01*
X55702200Y-81864200D02*
X70815200Y-81864200D01*
X71704200Y-66116200D02*
X71704200Y-66878200D01*
X70180200Y-81864200D02*
X71704200Y-81864200D01*
X71704200Y-81864200D02*
X71704200Y-66624200D01*
X55702200Y-66116200D02*
X55702200Y-81864200D01*
X99542600Y-56616600D02*
G75*
G03X99542600Y-56616600I-5080000J0D01*
G01*
X116513077Y-52004981D02*
X116513077Y-52719267D01*
X116465457Y-52862124D01*
X116370219Y-52957362D01*
X116227362Y-53004981D01*
X116132124Y-53004981D01*
X117513077Y-53004981D02*
X116941648Y-53004981D01*
X117227362Y-53004981D02*
X117227362Y-52004981D01*
X117132124Y-52147838D01*
X117036886Y-52243076D01*
X116941648Y-52290695D01*
X117989267Y-53004981D02*
X118179743Y-53004981D01*
X118274982Y-52957362D01*
X118322601Y-52909743D01*
X118417839Y-52766886D01*
X118465458Y-52576410D01*
X118465458Y-52195457D01*
X118417839Y-52100219D01*
X118370220Y-52052600D01*
X118274982Y-52004981D01*
X118084505Y-52004981D01*
X117989267Y-52052600D01*
X117941648Y-52100219D01*
X117894029Y-52195457D01*
X117894029Y-52433552D01*
X117941648Y-52528790D01*
X117989267Y-52576410D01*
X118084505Y-52624029D01*
X118274982Y-52624029D01*
X118370220Y-52576410D01*
X118417839Y-52528790D01*
X118465458Y-52433552D01*
X75102981Y-80143172D02*
X75055362Y-80238410D01*
X75007743Y-80286029D01*
X74912505Y-80333648D01*
X74626790Y-80333648D01*
X74531552Y-80286029D01*
X74483933Y-80238410D01*
X74436314Y-80143172D01*
X74436314Y-80000314D01*
X74483933Y-79905076D01*
X74531552Y-79857457D01*
X74626790Y-79809838D01*
X74912505Y-79809838D01*
X75007743Y-79857457D01*
X75055362Y-79905076D01*
X75102981Y-80000314D01*
X75102981Y-80143172D01*
X74436314Y-78952695D02*
X75102981Y-78952695D01*
X74436314Y-79381267D02*
X74960124Y-79381267D01*
X75055362Y-79333648D01*
X75102981Y-79238410D01*
X75102981Y-79095552D01*
X75055362Y-79000314D01*
X75007743Y-78952695D01*
X74436314Y-78619362D02*
X74436314Y-78238410D01*
X74102981Y-78476505D02*
X74960124Y-78476505D01*
X75055362Y-78428886D01*
X75102981Y-78333648D01*
X75102981Y-78238410D01*
X74722029Y-77905076D02*
X74722029Y-77143171D01*
X75102981Y-77524123D02*
X74341076Y-77524123D01*
X75102981Y-113822028D02*
X74436314Y-113822028D01*
X74102981Y-113822028D02*
X74150600Y-113869647D01*
X74198219Y-113822028D01*
X74150600Y-113774409D01*
X74102981Y-113822028D01*
X74198219Y-113822028D01*
X74436314Y-113345838D02*
X75102981Y-113345838D01*
X74531552Y-113345838D02*
X74483933Y-113298219D01*
X74436314Y-113202981D01*
X74436314Y-113060123D01*
X74483933Y-112964885D01*
X74579171Y-112917266D01*
X75102981Y-112917266D01*
X74722029Y-112441076D02*
X74722029Y-111679171D01*
X75102981Y-112060123D02*
X74341076Y-112060123D01*
X92470314Y-79151076D02*
X93279838Y-79151076D01*
X93375076Y-79198695D01*
X93422695Y-79246314D01*
X93470314Y-79341553D01*
X93470314Y-79484410D01*
X93422695Y-79579648D01*
X93089362Y-79151076D02*
X93136981Y-79246314D01*
X93136981Y-79436791D01*
X93089362Y-79532029D01*
X93041743Y-79579648D01*
X92946505Y-79627267D01*
X92660790Y-79627267D01*
X92565552Y-79579648D01*
X92517933Y-79532029D01*
X92470314Y-79436791D01*
X92470314Y-79246314D01*
X92517933Y-79151076D01*
X92470314Y-78674886D02*
X93136981Y-78674886D01*
X92565552Y-78674886D02*
X92517933Y-78627267D01*
X92470314Y-78532029D01*
X92470314Y-78389171D01*
X92517933Y-78293933D01*
X92613171Y-78246314D01*
X93136981Y-78246314D01*
X93136981Y-77341552D02*
X92136981Y-77341552D01*
X93089362Y-77341552D02*
X93136981Y-77436790D01*
X93136981Y-77627267D01*
X93089362Y-77722505D01*
X93041743Y-77770124D01*
X92946505Y-77817743D01*
X92660790Y-77817743D01*
X92565552Y-77770124D01*
X92517933Y-77722505D01*
X92470314Y-77627267D01*
X92470314Y-77436790D01*
X92517933Y-77341552D01*
X92216314Y-113441076D02*
X93025838Y-113441076D01*
X93121076Y-113488695D01*
X93168695Y-113536314D01*
X93216314Y-113631553D01*
X93216314Y-113774410D01*
X93168695Y-113869648D01*
X92835362Y-113441076D02*
X92882981Y-113536314D01*
X92882981Y-113726791D01*
X92835362Y-113822029D01*
X92787743Y-113869648D01*
X92692505Y-113917267D01*
X92406790Y-113917267D01*
X92311552Y-113869648D01*
X92263933Y-113822029D01*
X92216314Y-113726791D01*
X92216314Y-113536314D01*
X92263933Y-113441076D01*
X92216314Y-112964886D02*
X92882981Y-112964886D01*
X92311552Y-112964886D02*
X92263933Y-112917267D01*
X92216314Y-112822029D01*
X92216314Y-112679171D01*
X92263933Y-112583933D01*
X92359171Y-112536314D01*
X92882981Y-112536314D01*
X92882981Y-111631552D02*
X91882981Y-111631552D01*
X92835362Y-111631552D02*
X92882981Y-111726790D01*
X92882981Y-111917267D01*
X92835362Y-112012505D01*
X92787743Y-112060124D01*
X92692505Y-112107743D01*
X92406790Y-112107743D01*
X92311552Y-112060124D01*
X92263933Y-112012505D01*
X92216314Y-111917267D01*
X92216314Y-111726790D01*
X92263933Y-111631552D01*
X116513077Y-126934981D02*
X116513077Y-127649267D01*
X116465457Y-127792124D01*
X116370219Y-127887362D01*
X116227362Y-127934981D01*
X116132124Y-127934981D01*
X117513077Y-127934981D02*
X116941648Y-127934981D01*
X117227362Y-127934981D02*
X117227362Y-126934981D01*
X117132124Y-127077838D01*
X117036886Y-127173076D01*
X116941648Y-127220695D01*
X117989267Y-127934981D02*
X118179743Y-127934981D01*
X118274982Y-127887362D01*
X118322601Y-127839743D01*
X118417839Y-127696886D01*
X118465458Y-127506410D01*
X118465458Y-127125457D01*
X118417839Y-127030219D01*
X118370220Y-126982600D01*
X118274982Y-126934981D01*
X118084505Y-126934981D01*
X117989267Y-126982600D01*
X117941648Y-127030219D01*
X117894029Y-127125457D01*
X117894029Y-127363552D01*
X117941648Y-127458790D01*
X117989267Y-127506410D01*
X118084505Y-127554029D01*
X118274982Y-127554029D01*
X118370220Y-127506410D01*
X118417839Y-127458790D01*
X118465458Y-127363552D01*
X81969077Y-52004981D02*
X81969077Y-52719267D01*
X81921457Y-52862124D01*
X81826219Y-52957362D01*
X81683362Y-53004981D01*
X81588124Y-53004981D01*
X82397648Y-52100219D02*
X82445267Y-52052600D01*
X82540505Y-52004981D01*
X82778601Y-52004981D01*
X82873839Y-52052600D01*
X82921458Y-52100219D01*
X82969077Y-52195457D01*
X82969077Y-52290695D01*
X82921458Y-52433552D01*
X82350029Y-53004981D01*
X82969077Y-53004981D01*
X83921458Y-53004981D02*
X83350029Y-53004981D01*
X83635743Y-53004981D02*
X83635743Y-52004981D01*
X83540505Y-52147838D01*
X83445267Y-52243076D01*
X83350029Y-52290695D01*
X98978981Y-79889172D02*
X98931362Y-79984410D01*
X98883743Y-80032029D01*
X98788505Y-80079648D01*
X98502790Y-80079648D01*
X98407552Y-80032029D01*
X98359933Y-79984410D01*
X98312314Y-79889172D01*
X98312314Y-79746314D01*
X98359933Y-79651076D01*
X98407552Y-79603457D01*
X98502790Y-79555838D01*
X98788505Y-79555838D01*
X98883743Y-79603457D01*
X98931362Y-79651076D01*
X98978981Y-79746314D01*
X98978981Y-79889172D01*
X98312314Y-78698695D02*
X98978981Y-78698695D01*
X98312314Y-79127267D02*
X98836124Y-79127267D01*
X98931362Y-79079648D01*
X98978981Y-78984410D01*
X98978981Y-78841552D01*
X98931362Y-78746314D01*
X98883743Y-78698695D01*
X98312314Y-78365362D02*
X98312314Y-77984410D01*
X97978981Y-78222505D02*
X98836124Y-78222505D01*
X98931362Y-78174886D01*
X98978981Y-78079648D01*
X98978981Y-77984410D01*
X98598029Y-77651076D02*
X98598029Y-76889171D01*
X98978981Y-77270123D02*
X98217076Y-77270123D01*
X98978981Y-113568028D02*
X98312314Y-113568028D01*
X97978981Y-113568028D02*
X98026600Y-113615647D01*
X98074219Y-113568028D01*
X98026600Y-113520409D01*
X97978981Y-113568028D01*
X98074219Y-113568028D01*
X98312314Y-113091838D02*
X98978981Y-113091838D01*
X98407552Y-113091838D02*
X98359933Y-113044219D01*
X98312314Y-112948981D01*
X98312314Y-112806123D01*
X98359933Y-112710885D01*
X98455171Y-112663266D01*
X98978981Y-112663266D01*
X98598029Y-112187076D02*
X98598029Y-111425171D01*
X98978981Y-111806123D02*
X98217076Y-111806123D01*
X116346314Y-78897076D02*
X117155838Y-78897076D01*
X117251076Y-78944695D01*
X117298695Y-78992314D01*
X117346314Y-79087553D01*
X117346314Y-79230410D01*
X117298695Y-79325648D01*
X116965362Y-78897076D02*
X117012981Y-78992314D01*
X117012981Y-79182791D01*
X116965362Y-79278029D01*
X116917743Y-79325648D01*
X116822505Y-79373267D01*
X116536790Y-79373267D01*
X116441552Y-79325648D01*
X116393933Y-79278029D01*
X116346314Y-79182791D01*
X116346314Y-78992314D01*
X116393933Y-78897076D01*
X116346314Y-78420886D02*
X117012981Y-78420886D01*
X116441552Y-78420886D02*
X116393933Y-78373267D01*
X116346314Y-78278029D01*
X116346314Y-78135171D01*
X116393933Y-78039933D01*
X116489171Y-77992314D01*
X117012981Y-77992314D01*
X117012981Y-77087552D02*
X116012981Y-77087552D01*
X116965362Y-77087552D02*
X117012981Y-77182790D01*
X117012981Y-77373267D01*
X116965362Y-77468505D01*
X116917743Y-77516124D01*
X116822505Y-77563743D01*
X116536790Y-77563743D01*
X116441552Y-77516124D01*
X116393933Y-77468505D01*
X116346314Y-77373267D01*
X116346314Y-77182790D01*
X116393933Y-77087552D01*
X116092314Y-113187076D02*
X116901838Y-113187076D01*
X116997076Y-113234695D01*
X117044695Y-113282314D01*
X117092314Y-113377553D01*
X117092314Y-113520410D01*
X117044695Y-113615648D01*
X116711362Y-113187076D02*
X116758981Y-113282314D01*
X116758981Y-113472791D01*
X116711362Y-113568029D01*
X116663743Y-113615648D01*
X116568505Y-113663267D01*
X116282790Y-113663267D01*
X116187552Y-113615648D01*
X116139933Y-113568029D01*
X116092314Y-113472791D01*
X116092314Y-113282314D01*
X116139933Y-113187076D01*
X116092314Y-112710886D02*
X116758981Y-112710886D01*
X116187552Y-112710886D02*
X116139933Y-112663267D01*
X116092314Y-112568029D01*
X116092314Y-112425171D01*
X116139933Y-112329933D01*
X116235171Y-112282314D01*
X116758981Y-112282314D01*
X116758981Y-111377552D02*
X115758981Y-111377552D01*
X116711362Y-111377552D02*
X116758981Y-111472790D01*
X116758981Y-111663267D01*
X116711362Y-111758505D01*
X116663743Y-111806124D01*
X116568505Y-111853743D01*
X116282790Y-111853743D01*
X116187552Y-111806124D01*
X116139933Y-111758505D01*
X116092314Y-111663267D01*
X116092314Y-111472790D01*
X116139933Y-111377552D01*
M02*
