G04 #@! TF.FileFunction,Copper,L1,Top,Signal*
%FSLAX46Y46*%
G04 Gerber Fmt 4.6, Leading zero omitted, Abs format (unit mm)*
G04 Created by KiCad (PCBNEW 4.0.7) date 04/08/19 10:03:47*
%MOMM*%
%LPD*%
G01*
G04 APERTURE LIST*
%ADD10C,0.100000*%
%ADD11O,13.000000X6.000000*%
%ADD12O,7.000000X4.000000*%
%ADD13C,6.000000*%
%ADD14C,0.250000*%
%ADD15C,0.254000*%
G04 APERTURE END LIST*
D10*
D11*
X201904600Y-74091800D03*
X203174600Y-61442600D03*
D12*
X214350600Y-80645000D03*
X214350600Y-88569800D03*
X206019400Y-82169000D03*
X206019400Y-87045800D03*
D13*
X220141800Y-80645000D03*
X220141800Y-88569800D03*
D14*
X201904600Y-74091800D02*
X201904600Y-78054200D01*
X201904600Y-78054200D02*
X206019400Y-82169000D01*
X206019400Y-87045800D02*
X192760600Y-87045800D01*
X193878200Y-61442600D02*
X203174600Y-61442600D01*
X191693800Y-63627000D02*
X193878200Y-61442600D01*
X191693800Y-85979000D02*
X191693800Y-63627000D01*
X192760600Y-87045800D02*
X191693800Y-85979000D01*
X214350600Y-80645000D02*
X220141800Y-80645000D01*
X214350600Y-88569800D02*
X220141800Y-88569800D01*
D15*
G36*
X223191000Y-83541800D02*
X217424000Y-83541800D01*
X217424000Y-82931000D01*
X217413994Y-82881590D01*
X217385553Y-82839965D01*
X217343159Y-82812685D01*
X217297000Y-82804000D01*
X211426412Y-82804000D01*
X211552721Y-82169000D01*
X211253796Y-80666202D01*
X210820000Y-80016981D01*
X210820000Y-78486000D01*
X217297000Y-78486000D01*
X217346410Y-78475994D01*
X217388035Y-78447553D01*
X217415315Y-78405159D01*
X217424000Y-78359000D01*
X217424000Y-77646600D01*
X223191000Y-77646600D01*
X223191000Y-83541800D01*
X223191000Y-83541800D01*
G37*
X223191000Y-83541800D02*
X217424000Y-83541800D01*
X217424000Y-82931000D01*
X217413994Y-82881590D01*
X217385553Y-82839965D01*
X217343159Y-82812685D01*
X217297000Y-82804000D01*
X211426412Y-82804000D01*
X211552721Y-82169000D01*
X211253796Y-80666202D01*
X210820000Y-80016981D01*
X210820000Y-78486000D01*
X217297000Y-78486000D01*
X217346410Y-78475994D01*
X217388035Y-78447553D01*
X217415315Y-78405159D01*
X217424000Y-78359000D01*
X217424000Y-77646600D01*
X223191000Y-77646600D01*
X223191000Y-83541800D01*
G36*
X223191000Y-91694000D02*
X217424000Y-91694000D01*
X217424000Y-90805000D01*
X217413994Y-90755590D01*
X217385553Y-90713965D01*
X217343159Y-90686685D01*
X217297000Y-90678000D01*
X210820000Y-90678000D01*
X210820000Y-89197819D01*
X211253796Y-88548598D01*
X211552721Y-87045800D01*
X211466831Y-86614000D01*
X217297000Y-86614000D01*
X217346410Y-86603994D01*
X217388035Y-86575553D01*
X217415315Y-86533159D01*
X217424000Y-86487000D01*
X217424000Y-85825400D01*
X223191000Y-85825400D01*
X223191000Y-91694000D01*
X223191000Y-91694000D01*
G37*
X223191000Y-91694000D02*
X217424000Y-91694000D01*
X217424000Y-90805000D01*
X217413994Y-90755590D01*
X217385553Y-90713965D01*
X217343159Y-90686685D01*
X217297000Y-90678000D01*
X210820000Y-90678000D01*
X210820000Y-89197819D01*
X211253796Y-88548598D01*
X211552721Y-87045800D01*
X211466831Y-86614000D01*
X217297000Y-86614000D01*
X217346410Y-86603994D01*
X217388035Y-86575553D01*
X217415315Y-86533159D01*
X217424000Y-86487000D01*
X217424000Y-85825400D01*
X223191000Y-85825400D01*
X223191000Y-91694000D01*
G36*
X208788000Y-79629000D02*
X208798006Y-79678410D01*
X208826447Y-79720035D01*
X208868841Y-79747315D01*
X208915000Y-79756000D01*
X208994112Y-79756000D01*
X208817279Y-80645000D01*
X209116204Y-82147798D01*
X209296000Y-82416881D01*
X209296000Y-83529632D01*
X209128519Y-83417725D01*
X207625721Y-83118800D01*
X204413079Y-83118800D01*
X202910281Y-83417725D01*
X202724590Y-83541800D01*
X202438000Y-83541800D01*
X202438000Y-81661000D01*
X202427994Y-81611590D01*
X202397861Y-81568349D01*
X198333861Y-77758349D01*
X198290971Y-77731855D01*
X198247000Y-77724000D01*
X195147000Y-77724000D01*
X195147000Y-70829892D01*
X195364892Y-70612000D01*
X208788000Y-70612000D01*
X208788000Y-79629000D01*
X208788000Y-79629000D01*
G37*
X208788000Y-79629000D02*
X208798006Y-79678410D01*
X208826447Y-79720035D01*
X208868841Y-79747315D01*
X208915000Y-79756000D01*
X208994112Y-79756000D01*
X208817279Y-80645000D01*
X209116204Y-82147798D01*
X209296000Y-82416881D01*
X209296000Y-83529632D01*
X209128519Y-83417725D01*
X207625721Y-83118800D01*
X204413079Y-83118800D01*
X202910281Y-83417725D01*
X202724590Y-83541800D01*
X202438000Y-83541800D01*
X202438000Y-81661000D01*
X202427994Y-81611590D01*
X202397861Y-81568349D01*
X198333861Y-77758349D01*
X198290971Y-77731855D01*
X198247000Y-77724000D01*
X195147000Y-77724000D01*
X195147000Y-70829892D01*
X195364892Y-70612000D01*
X208788000Y-70612000D01*
X208788000Y-79629000D01*
G36*
X209804000Y-58814492D02*
X209804000Y-65278000D01*
X196723000Y-65278000D01*
X196673590Y-65288006D01*
X196633197Y-65315197D01*
X194312899Y-67635495D01*
X194266895Y-67644646D01*
X194036554Y-67798554D01*
X192360154Y-69474954D01*
X192206246Y-69705295D01*
X192152200Y-69977000D01*
X192152200Y-78867000D01*
X192206246Y-79138705D01*
X192360154Y-79369046D01*
X192532000Y-79540892D01*
X192532000Y-79629000D01*
X192542006Y-79678410D01*
X192573183Y-79722619D01*
X194259711Y-81268603D01*
X195509754Y-82518646D01*
X195740095Y-82672554D01*
X195805483Y-82685561D01*
X198669183Y-85310619D01*
X198712367Y-85336630D01*
X198755000Y-85344000D01*
X199360472Y-85344000D01*
X199369046Y-85387105D01*
X199522954Y-85617446D01*
X199753295Y-85771354D01*
X200025000Y-85825400D01*
X203052680Y-85825400D01*
X204413079Y-86096000D01*
X207625721Y-86096000D01*
X208986120Y-85825400D01*
X209296000Y-85825400D01*
X209296000Y-86797919D01*
X209116204Y-87067002D01*
X208817279Y-88569800D01*
X208882960Y-88900000D01*
X193216401Y-88900000D01*
X187198000Y-83383132D01*
X187198000Y-63684628D01*
X193012889Y-58596600D01*
X209586108Y-58596600D01*
X209804000Y-58814492D01*
X209804000Y-58814492D01*
G37*
X209804000Y-58814492D02*
X209804000Y-65278000D01*
X196723000Y-65278000D01*
X196673590Y-65288006D01*
X196633197Y-65315197D01*
X194312899Y-67635495D01*
X194266895Y-67644646D01*
X194036554Y-67798554D01*
X192360154Y-69474954D01*
X192206246Y-69705295D01*
X192152200Y-69977000D01*
X192152200Y-78867000D01*
X192206246Y-79138705D01*
X192360154Y-79369046D01*
X192532000Y-79540892D01*
X192532000Y-79629000D01*
X192542006Y-79678410D01*
X192573183Y-79722619D01*
X194259711Y-81268603D01*
X195509754Y-82518646D01*
X195740095Y-82672554D01*
X195805483Y-82685561D01*
X198669183Y-85310619D01*
X198712367Y-85336630D01*
X198755000Y-85344000D01*
X199360472Y-85344000D01*
X199369046Y-85387105D01*
X199522954Y-85617446D01*
X199753295Y-85771354D01*
X200025000Y-85825400D01*
X203052680Y-85825400D01*
X204413079Y-86096000D01*
X207625721Y-86096000D01*
X208986120Y-85825400D01*
X209296000Y-85825400D01*
X209296000Y-86797919D01*
X209116204Y-87067002D01*
X208817279Y-88569800D01*
X208882960Y-88900000D01*
X193216401Y-88900000D01*
X187198000Y-83383132D01*
X187198000Y-63684628D01*
X193012889Y-58596600D01*
X209586108Y-58596600D01*
X209804000Y-58814492D01*
M02*
