G04 #@! TF.FileFunction,Soldermask,Bot*
%FSLAX46Y46*%
G04 Gerber Fmt 4.6, Leading zero omitted, Abs format (unit mm)*
G04 Created by KiCad (PCBNEW 4.0.7) date 05/06/18 13:24:53*
%MOMM*%
%LPD*%
G01*
G04 APERTURE LIST*
%ADD10C,0.100000*%
%ADD11C,1.900000*%
%ADD12R,3.400000X3.400000*%
%ADD13C,3.400000*%
%ADD14R,2.100000X2.100000*%
%ADD15O,2.100000X2.100000*%
%ADD16C,3.000000*%
%ADD17R,2.400000X3.400000*%
%ADD18O,2.400000X3.400000*%
%ADD19R,3.400000X2.400000*%
%ADD20O,3.400000X2.400000*%
%ADD21C,1.924000*%
%ADD22C,4.900880*%
%ADD23C,0.254000*%
G04 APERTURE END LIST*
D10*
D11*
X84963000Y-133540500D03*
X84963000Y-131000500D03*
X84963000Y-128460500D03*
X84963000Y-125920500D03*
X87503000Y-134810500D03*
X87503000Y-132270500D03*
X87503000Y-129730500D03*
X87503000Y-127190500D03*
D12*
X48768000Y-144780000D03*
D13*
X48768000Y-139700000D03*
D12*
X48768000Y-160020000D03*
D13*
X48768000Y-154940000D03*
D14*
X125730000Y-109347000D03*
D15*
X125730000Y-106807000D03*
X125730000Y-104267000D03*
D14*
X134366000Y-76962000D03*
D15*
X134366000Y-79502000D03*
X134366000Y-82042000D03*
X134366000Y-84582000D03*
X134366000Y-87122000D03*
X134366000Y-89662000D03*
X134366000Y-92202000D03*
X134366000Y-94742000D03*
X134366000Y-97282000D03*
X134366000Y-99822000D03*
X134366000Y-102362000D03*
X134366000Y-104902000D03*
X134366000Y-107442000D03*
X134366000Y-109982000D03*
X134366000Y-112522000D03*
D12*
X103124000Y-93281500D03*
D13*
X103124000Y-88201500D03*
D11*
X77216000Y-113792000D03*
X79756000Y-113792000D03*
X82296000Y-113792000D03*
X84836000Y-113792000D03*
X75946000Y-116332000D03*
X78486000Y-116332000D03*
X81026000Y-116332000D03*
X83566000Y-116332000D03*
D16*
X88138000Y-103632000D03*
X72390000Y-103632000D03*
D12*
X68580000Y-75184000D03*
D13*
X63500000Y-75184000D03*
X58420000Y-75184000D03*
D12*
X48768000Y-160020000D03*
D13*
X48768000Y-154940000D03*
D11*
X125222000Y-155892500D03*
X127762000Y-155892500D03*
X130302000Y-155892500D03*
X132842000Y-155892500D03*
X123952000Y-158432500D03*
X126492000Y-158432500D03*
X129032000Y-158432500D03*
X131572000Y-158432500D03*
D16*
X136144000Y-145732500D03*
X120396000Y-145732500D03*
D17*
X46736000Y-106299000D03*
D18*
X54356000Y-106299000D03*
X64516000Y-106299000D03*
X67056000Y-106299000D03*
D17*
X46736000Y-113538000D03*
D18*
X54356000Y-113538000D03*
X64516000Y-113538000D03*
X67056000Y-113538000D03*
D19*
X93472000Y-93980000D03*
D20*
X93472000Y-86360000D03*
X93472000Y-76200000D03*
X93472000Y-73660000D03*
D21*
X120078500Y-111188500D03*
X93154500Y-114236500D03*
X93154500Y-109410500D03*
X93154500Y-100520500D03*
X93154500Y-105600500D03*
X120078500Y-115379500D03*
X120078500Y-105219500D03*
D22*
X69088000Y-144399000D03*
X116840000Y-84455000D03*
X73660000Y-144399000D03*
X107442000Y-104775000D03*
X121412000Y-84455000D03*
X63500000Y-144399000D03*
X58928000Y-144399000D03*
X69088000Y-130683000D03*
X73660000Y-130683000D03*
X63500000Y-130683000D03*
X58928000Y-130683000D03*
X73660000Y-82804000D03*
X63500000Y-82804000D03*
X112014000Y-104775000D03*
X69088000Y-82804000D03*
X58928000Y-82804000D03*
X63500000Y-96520000D03*
X58928000Y-96520000D03*
X49784000Y-75438000D03*
X49784000Y-99060000D03*
X69088000Y-144399000D03*
X73660000Y-144399000D03*
X63500000Y-144399000D03*
X58928000Y-144399000D03*
X69088000Y-130683000D03*
X73660000Y-130683000D03*
X63500000Y-130683000D03*
X58928000Y-130683000D03*
X58928000Y-82804000D03*
X58928000Y-82804000D03*
D14*
X44831000Y-73025000D03*
X88011000Y-73025000D03*
X52895500Y-93281500D03*
D22*
X58928000Y-82804000D03*
D11*
X96393000Y-128270000D03*
X96393000Y-130810000D03*
X96393000Y-133350000D03*
X96393000Y-135890000D03*
X93853000Y-127000000D03*
X93853000Y-129540000D03*
X93853000Y-132080000D03*
X93853000Y-134620000D03*
D16*
X106553000Y-139192000D03*
X106553000Y-123444000D03*
D14*
X100901500Y-141414500D03*
X136017000Y-121158000D03*
X92837000Y-121158000D03*
D11*
X125222000Y-161925000D03*
X127762000Y-161925000D03*
X130302000Y-161925000D03*
X132842000Y-161925000D03*
X123952000Y-164465000D03*
X126492000Y-164465000D03*
X129032000Y-164465000D03*
X131572000Y-164465000D03*
X101346000Y-153797000D03*
X101346000Y-156337000D03*
X101346000Y-158877000D03*
X101346000Y-161417000D03*
X98806000Y-152527000D03*
X98806000Y-155067000D03*
X98806000Y-157607000D03*
X98806000Y-160147000D03*
D16*
X111506000Y-164719000D03*
X111506000Y-148971000D03*
D11*
X95250000Y-153797000D03*
X95250000Y-156337000D03*
X95250000Y-158877000D03*
X95250000Y-161417000D03*
X92710000Y-152527000D03*
X92710000Y-155067000D03*
X92710000Y-157607000D03*
X92710000Y-160147000D03*
D21*
X75692000Y-161480500D03*
X73152000Y-161480500D03*
X68072000Y-161480500D03*
X62992000Y-161480500D03*
X57912000Y-161480500D03*
X75692000Y-153860500D03*
X73152000Y-153860500D03*
X68072000Y-153860500D03*
X62992000Y-153860500D03*
X57912000Y-153860500D03*
D23*
G36*
X64389000Y-131572000D02*
X57277000Y-131572000D01*
X57227590Y-131582006D01*
X57187197Y-131609197D01*
X55282197Y-133514197D01*
X55254334Y-133556211D01*
X55245000Y-133604000D01*
X55245000Y-149987000D01*
X55255006Y-150036410D01*
X55282197Y-150076803D01*
X58928000Y-153722606D01*
X58928000Y-162433000D01*
X57023000Y-162433000D01*
X57023000Y-154432000D01*
X57012994Y-154382590D01*
X56985803Y-154342197D01*
X53467000Y-150823394D01*
X53467000Y-132767606D01*
X56440606Y-129794000D01*
X64389000Y-129794000D01*
X64389000Y-131572000D01*
X64389000Y-131572000D01*
G37*
X64389000Y-131572000D02*
X57277000Y-131572000D01*
X57227590Y-131582006D01*
X57187197Y-131609197D01*
X55282197Y-133514197D01*
X55254334Y-133556211D01*
X55245000Y-133604000D01*
X55245000Y-149987000D01*
X55255006Y-150036410D01*
X55282197Y-150076803D01*
X58928000Y-153722606D01*
X58928000Y-162433000D01*
X57023000Y-162433000D01*
X57023000Y-154432000D01*
X57012994Y-154382590D01*
X56985803Y-154342197D01*
X53467000Y-150823394D01*
X53467000Y-132767606D01*
X56440606Y-129794000D01*
X64389000Y-129794000D01*
X64389000Y-131572000D01*
G36*
X80137000Y-132767606D02*
X80137000Y-147773870D01*
X77037906Y-150749000D01*
X64897000Y-150749000D01*
X64847590Y-150759006D01*
X64807197Y-150786197D01*
X63918197Y-151675197D01*
X63890334Y-151717211D01*
X63881000Y-151765000D01*
X63881000Y-162433000D01*
X62103000Y-162433000D01*
X62103000Y-151055606D01*
X64187606Y-148971000D01*
X76327000Y-148971000D01*
X76376410Y-148960994D01*
X76416803Y-148933803D01*
X78321803Y-147028803D01*
X78349666Y-146986789D01*
X78359000Y-146939000D01*
X78359000Y-133604000D01*
X78348994Y-133554590D01*
X78321803Y-133514197D01*
X76416803Y-131609197D01*
X76374789Y-131581334D01*
X76327000Y-131572000D01*
X68199000Y-131572000D01*
X68199000Y-129667000D01*
X77036394Y-129667000D01*
X80137000Y-132767606D01*
X80137000Y-132767606D01*
G37*
X80137000Y-132767606D02*
X80137000Y-147773870D01*
X77037906Y-150749000D01*
X64897000Y-150749000D01*
X64847590Y-150759006D01*
X64807197Y-150786197D01*
X63918197Y-151675197D01*
X63890334Y-151717211D01*
X63881000Y-151765000D01*
X63881000Y-162433000D01*
X62103000Y-162433000D01*
X62103000Y-151055606D01*
X64187606Y-148971000D01*
X76327000Y-148971000D01*
X76376410Y-148960994D01*
X76416803Y-148933803D01*
X78321803Y-147028803D01*
X78349666Y-146986789D01*
X78359000Y-146939000D01*
X78359000Y-133604000D01*
X78348994Y-133554590D01*
X78321803Y-133514197D01*
X76416803Y-131609197D01*
X76374789Y-131581334D01*
X76327000Y-131572000D01*
X68199000Y-131572000D01*
X68199000Y-129667000D01*
X77036394Y-129667000D01*
X80137000Y-132767606D01*
G36*
X69913500Y-86434394D02*
X66749394Y-89598500D01*
X47244000Y-89598500D01*
X47194590Y-89608506D01*
X47154197Y-89635697D01*
X44868197Y-91921697D01*
X44840334Y-91963711D01*
X44831000Y-92011500D01*
X44831000Y-112585500D01*
X44841006Y-112634910D01*
X44869447Y-112676535D01*
X44911841Y-112703815D01*
X44958000Y-112712500D01*
X45593000Y-112712500D01*
X45593000Y-114363500D01*
X44248606Y-114363500D01*
X43243500Y-113358394D01*
X43243500Y-91302106D01*
X46598106Y-87947500D01*
X66040000Y-87947500D01*
X66089410Y-87937494D01*
X66129803Y-87910303D01*
X68225303Y-85814803D01*
X68253166Y-85772789D01*
X68262500Y-85725000D01*
X68262500Y-84963000D01*
X69913500Y-84963000D01*
X69913500Y-86434394D01*
X69913500Y-86434394D01*
G37*
X69913500Y-86434394D02*
X66749394Y-89598500D01*
X47244000Y-89598500D01*
X47194590Y-89608506D01*
X47154197Y-89635697D01*
X44868197Y-91921697D01*
X44840334Y-91963711D01*
X44831000Y-92011500D01*
X44831000Y-112585500D01*
X44841006Y-112634910D01*
X44869447Y-112676535D01*
X44911841Y-112703815D01*
X44958000Y-112712500D01*
X45593000Y-112712500D01*
X45593000Y-114363500D01*
X44248606Y-114363500D01*
X43243500Y-113358394D01*
X43243500Y-91302106D01*
X46598106Y-87947500D01*
X66040000Y-87947500D01*
X66089410Y-87937494D01*
X66129803Y-87910303D01*
X68225303Y-85814803D01*
X68253166Y-85772789D01*
X68262500Y-85725000D01*
X68262500Y-84963000D01*
X69913500Y-84963000D01*
X69913500Y-86434394D01*
M02*
