G04 #@! TF.FileFunction,Profile,NP*
%FSLAX46Y46*%
G04 Gerber Fmt 4.6, Leading zero omitted, Abs format (unit mm)*
G04 Created by KiCad (PCBNEW 4.0.7) date 05/06/18 13:24:53*
%MOMM*%
%LPD*%
G01*
G04 APERTURE LIST*
%ADD10C,0.100000*%
%ADD11C,0.150000*%
G04 APERTURE END LIST*
D10*
D11*
X117411500Y-164973000D02*
X117538500Y-164973000D01*
X117411500Y-160274000D02*
X117411500Y-164973000D01*
X118681500Y-160274000D02*
X118681500Y-164973000D01*
X117411500Y-160274000D02*
X117411500Y-147447000D01*
X118681500Y-164973000D02*
X117411500Y-164973000D01*
X118681500Y-146177000D02*
X118681500Y-160274000D01*
X91948000Y-146177000D02*
X118681500Y-146177000D01*
X91948000Y-147447000D02*
X91948000Y-146177000D01*
X117411500Y-147447000D02*
X91948000Y-147447000D01*
X81407000Y-122809000D02*
X83121500Y-122809000D01*
X81407000Y-148272500D02*
X81407000Y-122809000D01*
X81216500Y-148463000D02*
X81153000Y-148526500D01*
X81407000Y-148272500D02*
X81216500Y-148463000D01*
X71501000Y-152717500D02*
X71501000Y-163195000D01*
X78549500Y-151130000D02*
X76771500Y-151130000D01*
X78994000Y-150685500D02*
X78549500Y-151130000D01*
X83121500Y-148844000D02*
X83121500Y-122809000D01*
X83121500Y-148971000D02*
X83121500Y-148844000D01*
X79375000Y-152717500D02*
X83121500Y-148971000D01*
X71501000Y-152717500D02*
X79375000Y-152717500D01*
X69850000Y-152400000D02*
X69850000Y-152590500D01*
X69850000Y-151130000D02*
X69850000Y-152400000D01*
X76835000Y-151130000D02*
X69850000Y-151130000D01*
X83058000Y-122809000D02*
X83121500Y-122809000D01*
X78994000Y-150685500D02*
X81216500Y-148463000D01*
X98488500Y-74739500D02*
X98488500Y-76073000D01*
X123825000Y-74739500D02*
X98488500Y-74739500D01*
X123825000Y-76073000D02*
X123825000Y-74739500D01*
X98488500Y-76073000D02*
X123825000Y-76073000D01*
X126365000Y-93091000D02*
X126365000Y-81597500D01*
X117792500Y-101663500D02*
X126365000Y-93091000D01*
X117792500Y-114490500D02*
X117792500Y-101663500D01*
X115760500Y-114490500D02*
X117792500Y-114490500D01*
X124269500Y-92202000D02*
X124269500Y-81597500D01*
X124079000Y-92392500D02*
X124269500Y-92202000D01*
X115760500Y-100711000D02*
X124079000Y-92392500D01*
X115760500Y-114490500D02*
X115760500Y-100711000D01*
X124269500Y-81597500D02*
X126365000Y-81597500D01*
X68453000Y-103695500D02*
X63373000Y-103695500D01*
X69723000Y-102425500D02*
X68453000Y-103695500D01*
X69723000Y-92265500D02*
X69723000Y-102425500D01*
X69850000Y-92138500D02*
X69723000Y-92265500D01*
X63055500Y-102108000D02*
X63500000Y-102108000D01*
X60642500Y-104521000D02*
X63055500Y-102108000D01*
X60642500Y-115316000D02*
X60642500Y-104521000D01*
X62230000Y-115316000D02*
X60642500Y-115316000D01*
X62230000Y-104838500D02*
X62230000Y-115316000D01*
X63373000Y-103695500D02*
X62230000Y-104838500D01*
X72834500Y-89154000D02*
X69850000Y-92138500D01*
X78486000Y-89154000D02*
X72834500Y-89154000D01*
X81597500Y-86042500D02*
X78486000Y-89154000D01*
X81597500Y-76771500D02*
X81597500Y-86042500D01*
X79946500Y-76771500D02*
X81597500Y-76771500D01*
X79946500Y-84963000D02*
X79946500Y-76771500D01*
X77343000Y-87566500D02*
X79946500Y-84963000D01*
X72009000Y-87566500D02*
X77343000Y-87566500D01*
X67818000Y-91757500D02*
X72009000Y-87566500D01*
X67818000Y-102108000D02*
X67818000Y-91757500D01*
X66484500Y-102108000D02*
X67818000Y-102108000D01*
X63436500Y-102108000D02*
X66484500Y-102108000D01*
X137922000Y-166243000D02*
X137922000Y-165862000D01*
X42926000Y-166243000D02*
X42926000Y-165989000D01*
X69850000Y-152273000D02*
X69850000Y-152400000D01*
X69850000Y-163195000D02*
X71501000Y-163195000D01*
X69850000Y-152400000D02*
X69850000Y-163195000D01*
X137922000Y-166243000D02*
X88011000Y-166243000D01*
X137922000Y-118110000D02*
X137922000Y-165989000D01*
X42926000Y-118110000D02*
X42926000Y-119253000D01*
X89916000Y-166243000D02*
X42926000Y-166243000D01*
X42926000Y-165989000D02*
X42926000Y-118999000D01*
X42926000Y-165989000D02*
X42926000Y-118999000D01*
X137922000Y-118110000D02*
X137922000Y-71120000D01*
X89662000Y-96012000D02*
X90043000Y-96012000D01*
X89789000Y-71120000D02*
X90932000Y-71120000D01*
X90932000Y-71120000D02*
X137922000Y-71120000D01*
X42926000Y-118110000D02*
X42926000Y-71120000D01*
X42926000Y-71120000D02*
X89916000Y-71120000D01*
M02*
