M48
;DRILL file {KiCad 4.0.7} date 05/06/18 13:24:54
;FORMAT={2:4/ absolute / inch / suppress leading zeros}
FMAT,2
INCH,TZ
T1C0.016
T2C0.030
T3C0.035
T4C0.039
T5C0.047
T6C0.060
T7C0.063
T8C0.079
T9C0.110
%
G90
G05
M72
T1
X31650Y-62075
X34375Y-59350
X34900Y-38500
X44450Y-55150
X45600Y-55175
X47425Y-54400
X49375Y-52650
X50125Y-50500
X50400Y-52650
X50775Y-51675
T2
X22800Y-60575
X22800Y-63575
X24800Y-60575
X24800Y-63575
X26800Y-60575
X26800Y-63575
X28800Y-60575
X28800Y-63575
X29800Y-60575
X29800Y-63575
X36675Y-39575
X36675Y-41575
X36675Y-43075
X36675Y-44975
X47275Y-41425
X47275Y-43775
X47275Y-45425
T3
X29900Y-45800
X30400Y-44800
X30900Y-45800
X31400Y-44800
X31900Y-45800
X32400Y-44800
X32900Y-45800
X33400Y-44800
X33450Y-49575
X33450Y-50575
X33450Y-51575
X33450Y-52575
X34450Y-50075
X34450Y-51075
X34450Y-52075
X34450Y-53075
X36500Y-60050
X36500Y-61050
X36500Y-62050
X36500Y-63050
X36950Y-50000
X36950Y-51000
X36950Y-52000
X36950Y-53000
X37500Y-60550
X37500Y-61550
X37500Y-62550
X37500Y-63550
X37950Y-50500
X37950Y-51500
X37950Y-52500
X37950Y-53500
X38900Y-60050
X38900Y-61050
X38900Y-62050
X38900Y-63050
X39900Y-60550
X39900Y-61550
X39900Y-62550
X39900Y-63550
X48800Y-62375
X48800Y-64750
X49300Y-61375
X49300Y-63750
X49800Y-62375
X49800Y-64750
X50300Y-61375
X50300Y-63750
X50800Y-62375
X50800Y-64750
X51300Y-61375
X51300Y-63750
X51800Y-62375
X51800Y-64750
X52300Y-61375
X52300Y-63750
T4
X17650Y-28750
X20825Y-36725
X34650Y-28750
X36550Y-47700
X39725Y-55675
X49500Y-41050
X49500Y-42050
X49500Y-43050
X52900Y-30300
X52900Y-31300
X52900Y-32300
X52900Y-33300
X52900Y-34300
X52900Y-35300
X52900Y-36300
X52900Y-37300
X52900Y-38300
X52900Y-39300
X52900Y-40300
X52900Y-41300
X52900Y-42300
X52900Y-43300
X52900Y-44300
X53550Y-47700
T5
X18400Y-41850
X18400Y-44700
X21400Y-41850
X21400Y-44700
X25400Y-41850
X25400Y-44700
X26400Y-41850
X26400Y-44700
X36800Y-29000
X36800Y-30000
X36800Y-34000
X36800Y-37000
T6
X19200Y-55000
X19200Y-57000
X19200Y-61000
X19200Y-61000
X19200Y-63000
X19200Y-63000
X23000Y-29600
X25000Y-29600
X27000Y-29600
X40600Y-34725
X40600Y-36725
T7
X28500Y-40800
X34700Y-40800
X41950Y-48600
X41950Y-54800
X43900Y-58650
X43900Y-64850
X47400Y-57375
X53600Y-57375
T8
X19600Y-29700
X19600Y-39000
X23200Y-32600
X23200Y-32600
X23200Y-32600
X23200Y-32600
X23200Y-38000
X23200Y-51450
X23200Y-51450
X23200Y-56850
X23200Y-56850
X25000Y-32600
X25000Y-38000
X25000Y-51450
X25000Y-51450
X25000Y-56850
X25000Y-56850
X27200Y-32600
X27200Y-51450
X27200Y-51450
X27200Y-56850
X27200Y-56850
X29000Y-32600
X29000Y-51450
X29000Y-51450
X29000Y-56850
X29000Y-56850
X42300Y-41250
X44100Y-41250
X46000Y-33250
X47800Y-33250
T9
X29300Y-42100
X33900Y-42100
X40650Y-49400
X40650Y-54000
X42600Y-59450
X42600Y-64050
X48200Y-58675
X52800Y-58675
T0
M30
