G04 #@! TF.FileFunction,Copper,L1,Top,Signal*
%FSLAX46Y46*%
G04 Gerber Fmt 4.6, Leading zero omitted, Abs format (unit mm)*
G04 Created by KiCad (PCBNEW 4.0.7) date 05/06/18 13:24:53*
%MOMM*%
%LPD*%
G01*
G04 APERTURE LIST*
%ADD10C,0.100000*%
%ADD11C,0.300000*%
%ADD12C,1.500000*%
%ADD13R,3.000000X3.000000*%
%ADD14C,3.000000*%
%ADD15R,2.000000X1.700000*%
%ADD16R,1.700000X1.700000*%
%ADD17O,1.700000X1.700000*%
%ADD18C,2.600000*%
%ADD19R,1.700000X2.000000*%
%ADD20R,3.500000X3.500000*%
%ADD21R,2.000000X3.000000*%
%ADD22O,2.000000X3.000000*%
%ADD23R,3.000000X2.000000*%
%ADD24O,3.000000X2.000000*%
%ADD25C,1.524000*%
%ADD26C,4.500880*%
%ADD27R,0.600000X2.200000*%
%ADD28C,0.600000*%
%ADD29C,1.800000*%
%ADD30C,2.000000*%
%ADD31C,0.500000*%
G04 APERTURE END LIST*
D10*
D11*
X76006000Y-72444571D02*
X76791714Y-72444571D01*
X76006000Y-73444571D01*
X76791714Y-73444571D01*
X78006000Y-73444571D02*
X78006000Y-72658857D01*
X77934571Y-72516000D01*
X77791714Y-72444571D01*
X77506000Y-72444571D01*
X77363143Y-72516000D01*
X78006000Y-73373143D02*
X77863143Y-73444571D01*
X77506000Y-73444571D01*
X77363143Y-73373143D01*
X77291714Y-73230286D01*
X77291714Y-73087429D01*
X77363143Y-72944571D01*
X77506000Y-72873143D01*
X77863143Y-72873143D01*
X78006000Y-72801714D01*
X78934572Y-73444571D02*
X78791714Y-73373143D01*
X78720286Y-73230286D01*
X78720286Y-71944571D01*
X80148857Y-72444571D02*
X80148857Y-73444571D01*
X79506000Y-72444571D02*
X79506000Y-73230286D01*
X79577428Y-73373143D01*
X79720286Y-73444571D01*
X79934571Y-73444571D01*
X80077428Y-73373143D01*
X80148857Y-73301714D01*
X80720286Y-72444571D02*
X81506000Y-72444571D01*
X80720286Y-73444571D01*
X81506000Y-73444571D01*
X82077429Y-73444571D02*
X82077429Y-72444571D01*
X82077429Y-71944571D02*
X82006000Y-72016000D01*
X82077429Y-72087429D01*
X82148857Y-72016000D01*
X82077429Y-71944571D01*
X82077429Y-72087429D01*
X83363143Y-73373143D02*
X83220286Y-73444571D01*
X82934572Y-73444571D01*
X82791715Y-73373143D01*
X82720286Y-73230286D01*
X82720286Y-72658857D01*
X82791715Y-72516000D01*
X82934572Y-72444571D01*
X83220286Y-72444571D01*
X83363143Y-72516000D01*
X83434572Y-72658857D01*
X83434572Y-72801714D01*
X82720286Y-72944571D01*
X75077428Y-74994571D02*
X75648857Y-74994571D01*
X75291714Y-74494571D02*
X75291714Y-75780286D01*
X75363142Y-75923143D01*
X75506000Y-75994571D01*
X75648857Y-75994571D01*
X76148857Y-75994571D02*
X76148857Y-74994571D01*
X76148857Y-75280286D02*
X76220285Y-75137429D01*
X76291714Y-75066000D01*
X76434571Y-74994571D01*
X76577428Y-74994571D01*
X77291714Y-75994571D02*
X77148856Y-75923143D01*
X77077428Y-75851714D01*
X77005999Y-75708857D01*
X77005999Y-75280286D01*
X77077428Y-75137429D01*
X77148856Y-75066000D01*
X77291714Y-74994571D01*
X77505999Y-74994571D01*
X77648856Y-75066000D01*
X77720285Y-75137429D01*
X77791714Y-75280286D01*
X77791714Y-75708857D01*
X77720285Y-75851714D01*
X77648856Y-75923143D01*
X77505999Y-75994571D01*
X77291714Y-75994571D01*
X78434571Y-74994571D02*
X78434571Y-75994571D01*
X78434571Y-75137429D02*
X78505999Y-75066000D01*
X78648857Y-74994571D01*
X78863142Y-74994571D01*
X79005999Y-75066000D01*
X79077428Y-75208857D01*
X79077428Y-75994571D01*
X79791714Y-75994571D02*
X79791714Y-74994571D01*
X79791714Y-74494571D02*
X79720285Y-74566000D01*
X79791714Y-74637429D01*
X79863142Y-74566000D01*
X79791714Y-74494571D01*
X79791714Y-74637429D01*
X81148857Y-75923143D02*
X81006000Y-75994571D01*
X80720286Y-75994571D01*
X80577428Y-75923143D01*
X80506000Y-75851714D01*
X80434571Y-75708857D01*
X80434571Y-75280286D01*
X80506000Y-75137429D01*
X80577428Y-75066000D01*
X80720286Y-74994571D01*
X81006000Y-74994571D01*
X81148857Y-75066000D01*
X81791714Y-75851714D02*
X81863142Y-75923143D01*
X81791714Y-75994571D01*
X81720285Y-75923143D01*
X81791714Y-75851714D01*
X81791714Y-75994571D01*
X82434571Y-75923143D02*
X82577428Y-75994571D01*
X82863143Y-75994571D01*
X83006000Y-75923143D01*
X83077428Y-75780286D01*
X83077428Y-75708857D01*
X83006000Y-75566000D01*
X82863143Y-75494571D01*
X82648857Y-75494571D01*
X82506000Y-75423143D01*
X82434571Y-75280286D01*
X82434571Y-75208857D01*
X82506000Y-75066000D01*
X82648857Y-74994571D01*
X82863143Y-74994571D01*
X83006000Y-75066000D01*
X83720286Y-75994571D02*
X83720286Y-74494571D01*
X83863143Y-75423143D02*
X84291714Y-75994571D01*
X84291714Y-74994571D02*
X83720286Y-75566000D01*
X103398428Y-114994571D02*
X103969857Y-114994571D01*
X103612714Y-114494571D02*
X103612714Y-115780286D01*
X103684142Y-115923143D01*
X103827000Y-115994571D01*
X103969857Y-115994571D01*
X104469857Y-115994571D02*
X104469857Y-114994571D01*
X104469857Y-115280286D02*
X104541285Y-115137429D01*
X104612714Y-115066000D01*
X104755571Y-114994571D01*
X104898428Y-114994571D01*
X105612714Y-115994571D02*
X105469856Y-115923143D01*
X105398428Y-115851714D01*
X105326999Y-115708857D01*
X105326999Y-115280286D01*
X105398428Y-115137429D01*
X105469856Y-115066000D01*
X105612714Y-114994571D01*
X105826999Y-114994571D01*
X105969856Y-115066000D01*
X106041285Y-115137429D01*
X106112714Y-115280286D01*
X106112714Y-115708857D01*
X106041285Y-115851714D01*
X105969856Y-115923143D01*
X105826999Y-115994571D01*
X105612714Y-115994571D01*
X106755571Y-114994571D02*
X106755571Y-115994571D01*
X106755571Y-115137429D02*
X106826999Y-115066000D01*
X106969857Y-114994571D01*
X107184142Y-114994571D01*
X107326999Y-115066000D01*
X107398428Y-115208857D01*
X107398428Y-115994571D01*
X108112714Y-115994571D02*
X108112714Y-114994571D01*
X108112714Y-114494571D02*
X108041285Y-114566000D01*
X108112714Y-114637429D01*
X108184142Y-114566000D01*
X108112714Y-114494571D01*
X108112714Y-114637429D01*
X109469857Y-115923143D02*
X109327000Y-115994571D01*
X109041286Y-115994571D01*
X108898428Y-115923143D01*
X108827000Y-115851714D01*
X108755571Y-115708857D01*
X108755571Y-115280286D01*
X108827000Y-115137429D01*
X108898428Y-115066000D01*
X109041286Y-114994571D01*
X109327000Y-114994571D01*
X109469857Y-115066000D01*
X110112714Y-115851714D02*
X110184142Y-115923143D01*
X110112714Y-115994571D01*
X110041285Y-115923143D01*
X110112714Y-115851714D01*
X110112714Y-115994571D01*
X110755571Y-115923143D02*
X110898428Y-115994571D01*
X111184143Y-115994571D01*
X111327000Y-115923143D01*
X111398428Y-115780286D01*
X111398428Y-115708857D01*
X111327000Y-115566000D01*
X111184143Y-115494571D01*
X110969857Y-115494571D01*
X110827000Y-115423143D01*
X110755571Y-115280286D01*
X110755571Y-115208857D01*
X110827000Y-115066000D01*
X110969857Y-114994571D01*
X111184143Y-114994571D01*
X111327000Y-115066000D01*
X112041286Y-115994571D02*
X112041286Y-114494571D01*
X112184143Y-115423143D02*
X112612714Y-115994571D01*
X112612714Y-114994571D02*
X112041286Y-115566000D01*
X97422785Y-119947571D02*
X98208499Y-119947571D01*
X97422785Y-120947571D01*
X98208499Y-120947571D01*
X99422785Y-120947571D02*
X99422785Y-120161857D01*
X99351356Y-120019000D01*
X99208499Y-119947571D01*
X98922785Y-119947571D01*
X98779928Y-120019000D01*
X99422785Y-120876143D02*
X99279928Y-120947571D01*
X98922785Y-120947571D01*
X98779928Y-120876143D01*
X98708499Y-120733286D01*
X98708499Y-120590429D01*
X98779928Y-120447571D01*
X98922785Y-120376143D01*
X99279928Y-120376143D01*
X99422785Y-120304714D01*
X100351357Y-120947571D02*
X100208499Y-120876143D01*
X100137071Y-120733286D01*
X100137071Y-119447571D01*
X101565642Y-119947571D02*
X101565642Y-120947571D01*
X100922785Y-119947571D02*
X100922785Y-120733286D01*
X100994213Y-120876143D01*
X101137071Y-120947571D01*
X101351356Y-120947571D01*
X101494213Y-120876143D01*
X101565642Y-120804714D01*
X102137071Y-119947571D02*
X102922785Y-119947571D01*
X102137071Y-120947571D01*
X102922785Y-120947571D01*
X103494214Y-120947571D02*
X103494214Y-119947571D01*
X103494214Y-119447571D02*
X103422785Y-119519000D01*
X103494214Y-119590429D01*
X103565642Y-119519000D01*
X103494214Y-119447571D01*
X103494214Y-119590429D01*
X104779928Y-120876143D02*
X104637071Y-120947571D01*
X104351357Y-120947571D01*
X104208500Y-120876143D01*
X104137071Y-120733286D01*
X104137071Y-120161857D01*
X104208500Y-120019000D01*
X104351357Y-119947571D01*
X104637071Y-119947571D01*
X104779928Y-120019000D01*
X104851357Y-120161857D01*
X104851357Y-120304714D01*
X104137071Y-120447571D01*
X106637071Y-120947571D02*
X106637071Y-119447571D01*
X106637071Y-120019000D02*
X106779928Y-119947571D01*
X107065642Y-119947571D01*
X107208499Y-120019000D01*
X107279928Y-120090429D01*
X107351357Y-120233286D01*
X107351357Y-120661857D01*
X107279928Y-120804714D01*
X107208499Y-120876143D01*
X107065642Y-120947571D01*
X106779928Y-120947571D01*
X106637071Y-120876143D01*
X107851357Y-119947571D02*
X108208500Y-120947571D01*
X108565642Y-119947571D02*
X108208500Y-120947571D01*
X108065642Y-121304714D01*
X107994214Y-121376143D01*
X107851357Y-121447571D01*
X109137071Y-119947571D02*
X109137071Y-121447571D01*
X109137071Y-120019000D02*
X109279928Y-119947571D01*
X109565642Y-119947571D01*
X109708499Y-120019000D01*
X109779928Y-120090429D01*
X109851357Y-120233286D01*
X109851357Y-120661857D01*
X109779928Y-120804714D01*
X109708499Y-120876143D01*
X109565642Y-120947571D01*
X109279928Y-120947571D01*
X109137071Y-120876143D01*
X111137071Y-120947571D02*
X111137071Y-120161857D01*
X111065642Y-120019000D01*
X110922785Y-119947571D01*
X110637071Y-119947571D01*
X110494214Y-120019000D01*
X111137071Y-120876143D02*
X110994214Y-120947571D01*
X110637071Y-120947571D01*
X110494214Y-120876143D01*
X110422785Y-120733286D01*
X110422785Y-120590429D01*
X110494214Y-120447571D01*
X110637071Y-120376143D01*
X110994214Y-120376143D01*
X111137071Y-120304714D01*
X111779928Y-120876143D02*
X111922785Y-120947571D01*
X112208500Y-120947571D01*
X112351357Y-120876143D01*
X112422785Y-120733286D01*
X112422785Y-120661857D01*
X112351357Y-120519000D01*
X112208500Y-120447571D01*
X111994214Y-120447571D01*
X111851357Y-120376143D01*
X111779928Y-120233286D01*
X111779928Y-120161857D01*
X111851357Y-120019000D01*
X111994214Y-119947571D01*
X112208500Y-119947571D01*
X112351357Y-120019000D01*
X112994214Y-120876143D02*
X113137071Y-120947571D01*
X113422786Y-120947571D01*
X113565643Y-120876143D01*
X113637071Y-120733286D01*
X113637071Y-120661857D01*
X113565643Y-120519000D01*
X113422786Y-120447571D01*
X113208500Y-120447571D01*
X113065643Y-120376143D01*
X112994214Y-120233286D01*
X112994214Y-120161857D01*
X113065643Y-120019000D01*
X113208500Y-119947571D01*
X113422786Y-119947571D01*
X113565643Y-120019000D01*
X115422786Y-120376143D02*
X116565643Y-120376143D01*
X118208500Y-119947571D02*
X118779929Y-119947571D01*
X118422786Y-119447571D02*
X118422786Y-120733286D01*
X118494214Y-120876143D01*
X118637072Y-120947571D01*
X118779929Y-120947571D01*
X119279929Y-120947571D02*
X119279929Y-119947571D01*
X119279929Y-120233286D02*
X119351357Y-120090429D01*
X119422786Y-120019000D01*
X119565643Y-119947571D01*
X119708500Y-119947571D01*
X120422786Y-120947571D02*
X120279928Y-120876143D01*
X120208500Y-120804714D01*
X120137071Y-120661857D01*
X120137071Y-120233286D01*
X120208500Y-120090429D01*
X120279928Y-120019000D01*
X120422786Y-119947571D01*
X120637071Y-119947571D01*
X120779928Y-120019000D01*
X120851357Y-120090429D01*
X120922786Y-120233286D01*
X120922786Y-120661857D01*
X120851357Y-120804714D01*
X120779928Y-120876143D01*
X120637071Y-120947571D01*
X120422786Y-120947571D01*
X121565643Y-119947571D02*
X121565643Y-120947571D01*
X121565643Y-120090429D02*
X121637071Y-120019000D01*
X121779929Y-119947571D01*
X121994214Y-119947571D01*
X122137071Y-120019000D01*
X122208500Y-120161857D01*
X122208500Y-120947571D01*
X122922786Y-120947571D02*
X122922786Y-119947571D01*
X122922786Y-119447571D02*
X122851357Y-119519000D01*
X122922786Y-119590429D01*
X122994214Y-119519000D01*
X122922786Y-119447571D01*
X122922786Y-119590429D01*
X124279929Y-120876143D02*
X124137072Y-120947571D01*
X123851358Y-120947571D01*
X123708500Y-120876143D01*
X123637072Y-120804714D01*
X123565643Y-120661857D01*
X123565643Y-120233286D01*
X123637072Y-120090429D01*
X123708500Y-120019000D01*
X123851358Y-119947571D01*
X124137072Y-119947571D01*
X124279929Y-120019000D01*
X124922786Y-120804714D02*
X124994214Y-120876143D01*
X124922786Y-120947571D01*
X124851357Y-120876143D01*
X124922786Y-120804714D01*
X124922786Y-120947571D01*
X125565643Y-120876143D02*
X125708500Y-120947571D01*
X125994215Y-120947571D01*
X126137072Y-120876143D01*
X126208500Y-120733286D01*
X126208500Y-120661857D01*
X126137072Y-120519000D01*
X125994215Y-120447571D01*
X125779929Y-120447571D01*
X125637072Y-120376143D01*
X125565643Y-120233286D01*
X125565643Y-120161857D01*
X125637072Y-120019000D01*
X125779929Y-119947571D01*
X125994215Y-119947571D01*
X126137072Y-120019000D01*
X126851358Y-120947571D02*
X126851358Y-119447571D01*
X126994215Y-120376143D02*
X127422786Y-120947571D01*
X127422786Y-119947571D02*
X126851358Y-120519000D01*
X47510286Y-121760143D02*
X47653143Y-121831571D01*
X47938858Y-121831571D01*
X48081715Y-121760143D01*
X48153143Y-121617286D01*
X48153143Y-121545857D01*
X48081715Y-121403000D01*
X47938858Y-121331571D01*
X47724572Y-121331571D01*
X47581715Y-121260143D01*
X47510286Y-121117286D01*
X47510286Y-121045857D01*
X47581715Y-120903000D01*
X47724572Y-120831571D01*
X47938858Y-120831571D01*
X48081715Y-120903000D01*
X48653144Y-120831571D02*
X49010287Y-121831571D01*
X49367429Y-120831571D01*
X50510286Y-121760143D02*
X50367429Y-121831571D01*
X50081715Y-121831571D01*
X49938858Y-121760143D01*
X49867429Y-121617286D01*
X49867429Y-121045857D01*
X49938858Y-120903000D01*
X50081715Y-120831571D01*
X50367429Y-120831571D01*
X50510286Y-120903000D01*
X50581715Y-121045857D01*
X50581715Y-121188714D01*
X49867429Y-121331571D01*
X51010286Y-120831571D02*
X51581715Y-120831571D01*
X51224572Y-120331571D02*
X51224572Y-121617286D01*
X51296000Y-121760143D01*
X51438858Y-121831571D01*
X51581715Y-121831571D01*
X52296001Y-121831571D02*
X52153143Y-121760143D01*
X52081715Y-121617286D01*
X52081715Y-120331571D01*
X53081715Y-121831571D02*
X52938857Y-121760143D01*
X52867429Y-121688714D01*
X52796000Y-121545857D01*
X52796000Y-121117286D01*
X52867429Y-120974429D01*
X52938857Y-120903000D01*
X53081715Y-120831571D01*
X53296000Y-120831571D01*
X53438857Y-120903000D01*
X53510286Y-120974429D01*
X53581715Y-121117286D01*
X53581715Y-121545857D01*
X53510286Y-121688714D01*
X53438857Y-121760143D01*
X53296000Y-121831571D01*
X53081715Y-121831571D01*
X45867428Y-123381571D02*
X46438857Y-123381571D01*
X46081714Y-122881571D02*
X46081714Y-124167286D01*
X46153142Y-124310143D01*
X46296000Y-124381571D01*
X46438857Y-124381571D01*
X46938857Y-124381571D02*
X46938857Y-123381571D01*
X46938857Y-123667286D02*
X47010285Y-123524429D01*
X47081714Y-123453000D01*
X47224571Y-123381571D01*
X47367428Y-123381571D01*
X48081714Y-124381571D02*
X47938856Y-124310143D01*
X47867428Y-124238714D01*
X47795999Y-124095857D01*
X47795999Y-123667286D01*
X47867428Y-123524429D01*
X47938856Y-123453000D01*
X48081714Y-123381571D01*
X48295999Y-123381571D01*
X48438856Y-123453000D01*
X48510285Y-123524429D01*
X48581714Y-123667286D01*
X48581714Y-124095857D01*
X48510285Y-124238714D01*
X48438856Y-124310143D01*
X48295999Y-124381571D01*
X48081714Y-124381571D01*
X49224571Y-123381571D02*
X49224571Y-124381571D01*
X49224571Y-123524429D02*
X49295999Y-123453000D01*
X49438857Y-123381571D01*
X49653142Y-123381571D01*
X49795999Y-123453000D01*
X49867428Y-123595857D01*
X49867428Y-124381571D01*
X50581714Y-124381571D02*
X50581714Y-123381571D01*
X50581714Y-122881571D02*
X50510285Y-122953000D01*
X50581714Y-123024429D01*
X50653142Y-122953000D01*
X50581714Y-122881571D01*
X50581714Y-123024429D01*
X51938857Y-124310143D02*
X51796000Y-124381571D01*
X51510286Y-124381571D01*
X51367428Y-124310143D01*
X51296000Y-124238714D01*
X51224571Y-124095857D01*
X51224571Y-123667286D01*
X51296000Y-123524429D01*
X51367428Y-123453000D01*
X51510286Y-123381571D01*
X51796000Y-123381571D01*
X51938857Y-123453000D01*
X52581714Y-124238714D02*
X52653142Y-124310143D01*
X52581714Y-124381571D01*
X52510285Y-124310143D01*
X52581714Y-124238714D01*
X52581714Y-124381571D01*
X53224571Y-124310143D02*
X53367428Y-124381571D01*
X53653143Y-124381571D01*
X53796000Y-124310143D01*
X53867428Y-124167286D01*
X53867428Y-124095857D01*
X53796000Y-123953000D01*
X53653143Y-123881571D01*
X53438857Y-123881571D01*
X53296000Y-123810143D01*
X53224571Y-123667286D01*
X53224571Y-123595857D01*
X53296000Y-123453000D01*
X53438857Y-123381571D01*
X53653143Y-123381571D01*
X53796000Y-123453000D01*
X54510286Y-124381571D02*
X54510286Y-122881571D01*
X54653143Y-123810143D02*
X55081714Y-124381571D01*
X55081714Y-123381571D02*
X54510286Y-123953000D01*
D12*
X84963000Y-133540500D03*
X84963000Y-131000500D03*
X84963000Y-128460500D03*
X84963000Y-125920500D03*
X87503000Y-134810500D03*
X87503000Y-132270500D03*
X87503000Y-129730500D03*
X87503000Y-127190500D03*
D13*
X48768000Y-144780000D03*
D14*
X48768000Y-139700000D03*
D13*
X48768000Y-160020000D03*
D14*
X48768000Y-154940000D03*
D15*
X77565000Y-92202000D03*
X73565000Y-92202000D03*
D16*
X125730000Y-109347000D03*
D17*
X125730000Y-106807000D03*
X125730000Y-104267000D03*
D16*
X134366000Y-76962000D03*
D17*
X134366000Y-79502000D03*
X134366000Y-82042000D03*
X134366000Y-84582000D03*
X134366000Y-87122000D03*
X134366000Y-89662000D03*
X134366000Y-92202000D03*
X134366000Y-94742000D03*
X134366000Y-97282000D03*
X134366000Y-99822000D03*
X134366000Y-102362000D03*
X134366000Y-104902000D03*
X134366000Y-107442000D03*
X134366000Y-109982000D03*
X134366000Y-112522000D03*
D15*
X126270000Y-73914000D03*
X130270000Y-73914000D03*
X126270000Y-80010000D03*
X130270000Y-80010000D03*
X126270000Y-76962000D03*
X130270000Y-76962000D03*
D13*
X103124000Y-93281500D03*
D14*
X103124000Y-88201500D03*
D12*
X77216000Y-113792000D03*
X79756000Y-113792000D03*
X82296000Y-113792000D03*
X84836000Y-113792000D03*
X75946000Y-116332000D03*
X78486000Y-116332000D03*
X81026000Y-116332000D03*
X83566000Y-116332000D03*
D18*
X88138000Y-103632000D03*
X72390000Y-103632000D03*
D13*
X68580000Y-75184000D03*
D14*
X63500000Y-75184000D03*
X58420000Y-75184000D03*
D15*
X82328000Y-92202000D03*
X86328000Y-92202000D03*
X77565000Y-92202000D03*
X73565000Y-92202000D03*
D19*
X86360000Y-84360000D03*
X86360000Y-88360000D03*
X70612000Y-116554000D03*
X70612000Y-112554000D03*
D20*
X111731000Y-82296000D03*
X104931000Y-82296000D03*
D13*
X48768000Y-160020000D03*
D14*
X48768000Y-154940000D03*
D12*
X125222000Y-155892500D03*
X127762000Y-155892500D03*
X130302000Y-155892500D03*
X132842000Y-155892500D03*
X123952000Y-158432500D03*
X126492000Y-158432500D03*
X129032000Y-158432500D03*
X131572000Y-158432500D03*
D18*
X136144000Y-145732500D03*
X120396000Y-145732500D03*
D21*
X46736000Y-106299000D03*
D22*
X54356000Y-106299000D03*
X64516000Y-106299000D03*
X67056000Y-106299000D03*
D21*
X46736000Y-113538000D03*
D22*
X54356000Y-113538000D03*
X64516000Y-113538000D03*
X67056000Y-113538000D03*
D23*
X93472000Y-93980000D03*
D24*
X93472000Y-86360000D03*
X93472000Y-76200000D03*
X93472000Y-73660000D03*
D25*
X120078500Y-111188500D03*
X93154500Y-114236500D03*
X93154500Y-109410500D03*
X93154500Y-100520500D03*
X93154500Y-105600500D03*
X120078500Y-115379500D03*
X120078500Y-105219500D03*
D26*
X69088000Y-144399000D03*
X116840000Y-84455000D03*
X73660000Y-144399000D03*
X107442000Y-104775000D03*
X121412000Y-84455000D03*
X63500000Y-144399000D03*
X58928000Y-144399000D03*
X69088000Y-130683000D03*
X73660000Y-130683000D03*
X63500000Y-130683000D03*
X58928000Y-130683000D03*
X73660000Y-82804000D03*
X63500000Y-82804000D03*
X112014000Y-104775000D03*
X69088000Y-82804000D03*
X58928000Y-82804000D03*
X63500000Y-96520000D03*
X58928000Y-96520000D03*
X49784000Y-75438000D03*
X49784000Y-99060000D03*
X69088000Y-144399000D03*
X73660000Y-144399000D03*
X63500000Y-144399000D03*
X58928000Y-144399000D03*
X69088000Y-130683000D03*
X73660000Y-130683000D03*
X63500000Y-130683000D03*
X58928000Y-130683000D03*
X58928000Y-82804000D03*
D19*
X88582500Y-144621000D03*
X88582500Y-140621000D03*
X85852000Y-144621000D03*
X85852000Y-140621000D03*
D15*
X86328000Y-95059500D03*
X82328000Y-95059500D03*
X73565000Y-95123000D03*
X77565000Y-95123000D03*
X124936500Y-115443000D03*
X128936500Y-115443000D03*
D26*
X58928000Y-82804000D03*
D16*
X44831000Y-73025000D03*
X88011000Y-73025000D03*
X52895500Y-93281500D03*
D15*
X135286500Y-132397500D03*
X131286500Y-132397500D03*
X135286500Y-129540000D03*
X131286500Y-129540000D03*
X135286500Y-126746000D03*
X131286500Y-126746000D03*
D19*
X118491000Y-142144500D03*
X118491000Y-138144500D03*
X115697000Y-142144500D03*
X115697000Y-138144500D03*
X112903000Y-142144500D03*
X112903000Y-138144500D03*
D26*
X58928000Y-82804000D03*
D12*
X96393000Y-128270000D03*
X96393000Y-130810000D03*
X96393000Y-133350000D03*
X96393000Y-135890000D03*
X93853000Y-127000000D03*
X93853000Y-129540000D03*
X93853000Y-132080000D03*
X93853000Y-134620000D03*
D18*
X106553000Y-139192000D03*
X106553000Y-123444000D03*
D16*
X100901500Y-141414500D03*
X136017000Y-121158000D03*
X92837000Y-121158000D03*
D12*
X125222000Y-161925000D03*
X127762000Y-161925000D03*
X130302000Y-161925000D03*
X132842000Y-161925000D03*
X123952000Y-164465000D03*
X126492000Y-164465000D03*
X129032000Y-164465000D03*
X131572000Y-164465000D03*
X101346000Y-153797000D03*
X101346000Y-156337000D03*
X101346000Y-158877000D03*
X101346000Y-161417000D03*
X98806000Y-152527000D03*
X98806000Y-155067000D03*
X98806000Y-157607000D03*
X98806000Y-160147000D03*
D18*
X111506000Y-164719000D03*
X111506000Y-148971000D03*
D12*
X95250000Y-153797000D03*
X95250000Y-156337000D03*
X95250000Y-158877000D03*
X95250000Y-161417000D03*
X92710000Y-152527000D03*
X92710000Y-155067000D03*
X92710000Y-157607000D03*
X92710000Y-160147000D03*
D19*
X87249000Y-153003500D03*
X87249000Y-157003500D03*
X87249000Y-163544000D03*
X87249000Y-159544000D03*
D27*
X80899000Y-160434000D03*
X80899000Y-155034000D03*
X79629000Y-160434000D03*
X82169000Y-160434000D03*
X83439000Y-160434000D03*
X79629000Y-155034000D03*
X82169000Y-155034000D03*
X83439000Y-155034000D03*
D25*
X75692000Y-161480500D03*
X73152000Y-161480500D03*
X68072000Y-161480500D03*
X62992000Y-161480500D03*
X57912000Y-161480500D03*
X75692000Y-153860500D03*
X73152000Y-153860500D03*
X68072000Y-153860500D03*
X62992000Y-153860500D03*
X57912000Y-153860500D03*
D28*
X88646000Y-97790000D03*
X87312500Y-150749000D03*
X80391000Y-157670500D03*
X125412500Y-133731000D03*
X127317500Y-128270000D03*
X128968500Y-131254500D03*
X128016000Y-133731000D03*
X112903000Y-140081000D03*
X115824000Y-140144500D03*
X120459500Y-138176000D03*
D29*
X54356000Y-106299000D02*
X54356000Y-113538000D01*
X54356000Y-106299000D02*
X54356000Y-103632000D01*
X54356000Y-103632000D02*
X49784000Y-99060000D01*
X58928000Y-96520000D02*
X63500000Y-96520000D01*
X49784000Y-99060000D02*
X56388000Y-99060000D01*
X56388000Y-99060000D02*
X58928000Y-96520000D01*
D30*
X58801000Y-96393000D02*
X58928000Y-96520000D01*
X58801000Y-96393000D02*
X58928000Y-96520000D01*
X58674000Y-96266000D02*
X58928000Y-96520000D01*
X58674000Y-96266000D02*
X58928000Y-96520000D01*
X58801000Y-96393000D02*
X58928000Y-96520000D01*
X58801000Y-96393000D02*
X58928000Y-96520000D01*
X58801000Y-96393000D02*
X58928000Y-96520000D01*
X58801000Y-96393000D02*
X58928000Y-96520000D01*
X58674000Y-96266000D02*
X58928000Y-96520000D01*
X58674000Y-96266000D02*
X58928000Y-96520000D01*
X58801000Y-96393000D02*
X58928000Y-96520000D01*
X58801000Y-96393000D02*
X58928000Y-96520000D01*
X58420000Y-75184000D02*
X50038000Y-75184000D01*
X50038000Y-75184000D02*
X49784000Y-75438000D01*
D31*
X70612000Y-112554000D02*
X73183500Y-112554000D01*
X73565000Y-100616000D02*
X73565000Y-95123000D01*
X76835000Y-103886000D02*
X73565000Y-100616000D01*
X76835000Y-108902500D02*
X76835000Y-103886000D01*
X73183500Y-112554000D02*
X76835000Y-108902500D01*
X73565000Y-95123000D02*
X73565000Y-92202000D01*
X79883000Y-92202000D02*
X79883000Y-110934500D01*
X79883000Y-110934500D02*
X82296000Y-113347500D01*
X82296000Y-113347500D02*
X82296000Y-113792000D01*
X77565000Y-92202000D02*
X79883000Y-92202000D01*
X79883000Y-92202000D02*
X82328000Y-92202000D01*
X82328000Y-113760000D02*
X82296000Y-113792000D01*
X81026000Y-116332000D02*
X78486000Y-116332000D01*
X79756000Y-113792000D02*
X79756000Y-115062000D01*
X79756000Y-115062000D02*
X81026000Y-116332000D01*
X82296000Y-113792000D02*
X79756000Y-113792000D01*
X67056000Y-113538000D02*
X67056000Y-106299000D01*
X86328000Y-95059500D02*
X86328000Y-92202000D01*
X86328000Y-92202000D02*
X86360000Y-92170000D01*
X86360000Y-92170000D02*
X86360000Y-88360000D01*
X86328000Y-88392000D02*
X86360000Y-88360000D01*
D29*
X69088000Y-82804000D02*
X69088000Y-75692000D01*
X69088000Y-75692000D02*
X68580000Y-75184000D01*
D30*
X69088000Y-82804000D02*
X68580000Y-82296000D01*
X73660000Y-82804000D02*
X69088000Y-82804000D01*
X68580000Y-82296000D02*
X69088000Y-82804000D01*
X68580000Y-82296000D02*
X69088000Y-82804000D01*
X73660000Y-82804000D02*
X69088000Y-82804000D01*
X69088000Y-82804000D02*
X68580000Y-82296000D01*
X69088000Y-82804000D02*
X68580000Y-82296000D01*
X73660000Y-82804000D02*
X69088000Y-82804000D01*
X68580000Y-82296000D02*
X69088000Y-82804000D01*
X68580000Y-82296000D02*
X69088000Y-82804000D01*
X73660000Y-82804000D02*
X69088000Y-82804000D01*
X69088000Y-82804000D02*
X68580000Y-82296000D01*
D29*
X46736000Y-106299000D02*
X46736000Y-106108500D01*
X46736000Y-106108500D02*
X45021500Y-104394000D01*
X45021500Y-104394000D02*
X45021500Y-85661500D01*
X45021500Y-85661500D02*
X47879000Y-82804000D01*
X47879000Y-82804000D02*
X58928000Y-82804000D01*
D30*
X63500000Y-82804000D02*
X63500000Y-75184000D01*
X58928000Y-82804000D02*
X63500000Y-82804000D01*
X58928000Y-82804000D02*
X63500000Y-82804000D01*
X63500000Y-82804000D02*
X63500000Y-75184000D01*
X63500000Y-82804000D02*
X63500000Y-75184000D01*
X58928000Y-82804000D02*
X63500000Y-82804000D01*
X58928000Y-82804000D02*
X63500000Y-82804000D01*
X63500000Y-82804000D02*
X63500000Y-75184000D01*
D29*
X102679500Y-78041500D02*
X119824500Y-78041500D01*
X96964500Y-81280000D02*
X99250500Y-78994000D01*
X99250500Y-78994000D02*
X100203000Y-78041500D01*
X100203000Y-78041500D02*
X102679500Y-78041500D01*
X93472000Y-86360000D02*
X93472000Y-82296000D01*
X121412000Y-79629000D02*
X121412000Y-84455000D01*
X93472000Y-82296000D02*
X94488000Y-81280000D01*
X94488000Y-81280000D02*
X96964500Y-81280000D01*
X119824500Y-78041500D02*
X121412000Y-79629000D01*
X116840000Y-84455000D02*
X113890000Y-84455000D01*
X113890000Y-84455000D02*
X111731000Y-82296000D01*
D30*
X116840000Y-84455000D02*
X116840000Y-83722000D01*
X121412000Y-84455000D02*
X121412000Y-84328000D01*
X121412000Y-84455000D02*
X116840000Y-84455000D01*
D31*
X126270000Y-80010000D02*
X127127000Y-80010000D01*
X127127000Y-80010000D02*
X129032000Y-81915000D01*
X126936500Y-110553500D02*
X125730000Y-109347000D01*
X130429000Y-110553500D02*
X126936500Y-110553500D01*
X131254500Y-109728000D02*
X130429000Y-110553500D01*
X131254500Y-85725000D02*
X131254500Y-109728000D01*
X129032000Y-83502500D02*
X131254500Y-85725000D01*
X129032000Y-81915000D02*
X129032000Y-83502500D01*
X126270000Y-76962000D02*
X126270000Y-80010000D01*
X122428000Y-108839000D02*
X122428000Y-111569500D01*
X122428000Y-108839000D02*
X122428000Y-107632500D01*
X122428000Y-107632500D02*
X123253500Y-106807000D01*
X125730000Y-106807000D02*
X123253500Y-106807000D01*
X128936500Y-113252000D02*
X128936500Y-115443000D01*
X128460500Y-112776000D02*
X128936500Y-113252000D01*
X123634500Y-112776000D02*
X128460500Y-112776000D01*
X122428000Y-111569500D02*
X123634500Y-112776000D01*
X128936500Y-115443000D02*
X131445000Y-115443000D01*
X131445000Y-115443000D02*
X134366000Y-112522000D01*
X133985000Y-112903000D02*
X134366000Y-112522000D01*
X120078500Y-105219500D02*
X120078500Y-105029000D01*
D29*
X103124000Y-93281500D02*
X103124000Y-95059500D01*
X99949000Y-98234500D02*
X99949000Y-107569000D01*
X103124000Y-95059500D02*
X99949000Y-98234500D01*
X103124000Y-93281500D02*
X103124000Y-93535500D01*
X93154500Y-105600500D02*
X97980500Y-105600500D01*
X97980500Y-105600500D02*
X99949000Y-107569000D01*
X98488500Y-114236500D02*
X93154500Y-114236500D01*
X99949000Y-107569000D02*
X99949000Y-112776000D01*
X99949000Y-112776000D02*
X98488500Y-114236500D01*
D31*
X134366000Y-76962000D02*
X130270000Y-76962000D01*
X130270000Y-80010000D02*
X130270000Y-83026000D01*
X131826000Y-84582000D02*
X134366000Y-84582000D01*
X130270000Y-83026000D02*
X131826000Y-84582000D01*
X86360000Y-84360000D02*
X88360000Y-84360000D01*
X88646000Y-84646000D02*
X88646000Y-97790000D01*
X88360000Y-84360000D02*
X88646000Y-84646000D01*
X70612000Y-116554000D02*
X64738000Y-116554000D01*
X64516000Y-116332000D02*
X64516000Y-113538000D01*
X64738000Y-116554000D02*
X64516000Y-116332000D01*
X93472000Y-76200000D02*
X94678500Y-76200000D01*
X94678500Y-76200000D02*
X96202500Y-74676000D01*
X96202500Y-74676000D02*
X96202500Y-74104500D01*
X96202500Y-74104500D02*
X96393000Y-73914000D01*
X96393000Y-73914000D02*
X99631500Y-73914000D01*
X99631500Y-73914000D02*
X126270000Y-73914000D01*
X126270000Y-73914000D02*
X114681000Y-73914000D01*
X130270000Y-73914000D02*
X136906000Y-73914000D01*
X136652000Y-87122000D02*
X134366000Y-87122000D01*
X137160000Y-86614000D02*
X136652000Y-87122000D01*
X137160000Y-74168000D02*
X137160000Y-86614000D01*
X136906000Y-73914000D02*
X137160000Y-74168000D01*
D29*
X104931000Y-82296000D02*
X104931000Y-86394500D01*
X104931000Y-86394500D02*
X103124000Y-88201500D01*
D30*
X50800000Y-137160000D02*
X48260000Y-139700000D01*
X66040000Y-137160000D02*
X50800000Y-137160000D01*
X68580000Y-139700000D02*
X66040000Y-137160000D01*
X68580000Y-143891000D02*
X68580000Y-139700000D01*
X69088000Y-144399000D02*
X68580000Y-143891000D01*
X73660000Y-144399000D02*
X69088000Y-144399000D01*
X73660000Y-144399000D02*
X69088000Y-144399000D01*
X69088000Y-144399000D02*
X68580000Y-143891000D01*
X68580000Y-143891000D02*
X68580000Y-139700000D01*
X68580000Y-139700000D02*
X66040000Y-137160000D01*
X66040000Y-137160000D02*
X50800000Y-137160000D01*
X50800000Y-137160000D02*
X48260000Y-139700000D01*
X58928000Y-144399000D02*
X63500000Y-144399000D01*
X58547000Y-144780000D02*
X58928000Y-144399000D01*
X48260000Y-144780000D02*
X58547000Y-144780000D01*
X48260000Y-144780000D02*
X58547000Y-144780000D01*
X58547000Y-144780000D02*
X58928000Y-144399000D01*
X58928000Y-144399000D02*
X63500000Y-144399000D01*
D31*
X85852000Y-147383500D02*
X85852000Y-150304500D01*
X85852000Y-144621000D02*
X85852000Y-147383500D01*
X85026500Y-151130000D02*
X85026500Y-156337000D01*
X85852000Y-150304500D02*
X85026500Y-151130000D01*
X87249000Y-163544000D02*
X88360500Y-163544000D01*
X82169000Y-156908500D02*
X82169000Y-155034000D01*
X82296000Y-157035500D02*
X82169000Y-156908500D01*
X84328000Y-157035500D02*
X82296000Y-157035500D01*
X84709000Y-156654500D02*
X84328000Y-157035500D01*
X86106000Y-155257500D02*
X85026500Y-156337000D01*
X85026500Y-156337000D02*
X84709000Y-156654500D01*
X88773000Y-155257500D02*
X86106000Y-155257500D01*
X89154000Y-155638500D02*
X88773000Y-155257500D01*
X89154000Y-162750500D02*
X89154000Y-155638500D01*
X88360500Y-163544000D02*
X89154000Y-162750500D01*
X79629000Y-155034000D02*
X79629000Y-153352500D01*
X80391000Y-152590500D02*
X83566000Y-152590500D01*
X79629000Y-153352500D02*
X80391000Y-152590500D01*
X84963000Y-131000500D02*
X84582000Y-131000500D01*
X84582000Y-131000500D02*
X83566000Y-132016500D01*
X83566000Y-132016500D02*
X83566000Y-152590500D01*
X83566000Y-152590500D02*
X83566000Y-154907000D01*
X83566000Y-154907000D02*
X83439000Y-155034000D01*
X87503000Y-132270500D02*
X87566500Y-132270500D01*
X80899000Y-155034000D02*
X80899000Y-157162500D01*
X87249000Y-150812500D02*
X87249000Y-153003500D01*
X87312500Y-150749000D02*
X87249000Y-150812500D01*
X80899000Y-157162500D02*
X80391000Y-157670500D01*
X88582500Y-151162000D02*
X88582500Y-151670000D01*
X88582500Y-144621000D02*
X88582500Y-151162000D01*
X88582500Y-151670000D02*
X87249000Y-153003500D01*
D30*
X68072000Y-164084000D02*
X67056000Y-165100000D01*
X67056000Y-165100000D02*
X50292000Y-165100000D01*
X50292000Y-165100000D02*
X48768000Y-163576000D01*
X50292000Y-165100000D02*
X48768000Y-163576000D01*
X67056000Y-165100000D02*
X50292000Y-165100000D01*
X68072000Y-164084000D02*
X67056000Y-165100000D01*
X48768000Y-163576000D02*
X48768000Y-160020000D01*
X68072000Y-161544000D02*
X68072000Y-164084000D01*
X68072000Y-161544000D02*
X68072000Y-164084000D01*
X48768000Y-163576000D02*
X48768000Y-160020000D01*
X68072000Y-151384000D02*
X66548000Y-149860000D01*
X66548000Y-149860000D02*
X49784000Y-149860000D01*
X49784000Y-149860000D02*
X48768000Y-150876000D01*
X48768000Y-150876000D02*
X48768000Y-154940000D01*
X68072000Y-153924000D02*
X68072000Y-151384000D01*
X68072000Y-153924000D02*
X68072000Y-151384000D01*
X48768000Y-150876000D02*
X48768000Y-154940000D01*
X49784000Y-149860000D02*
X48768000Y-150876000D01*
X66548000Y-149860000D02*
X49784000Y-149860000D01*
X68072000Y-151384000D02*
X66548000Y-149860000D01*
D31*
X89344500Y-138303000D02*
X89344500Y-139351000D01*
X89344500Y-139351000D02*
X88074500Y-140621000D01*
X89344500Y-129032000D02*
X87503000Y-127190500D01*
X89344500Y-138366500D02*
X89344500Y-138303000D01*
X89344500Y-138303000D02*
X89344500Y-129032000D01*
X84963000Y-125920500D02*
X86233000Y-125920500D01*
X86233000Y-125920500D02*
X87503000Y-127190500D01*
X85852000Y-140621000D02*
X85852000Y-136461500D01*
X85852000Y-136461500D02*
X87503000Y-134810500D01*
X87503000Y-134810500D02*
X86233000Y-134810500D01*
X86233000Y-134810500D02*
X84963000Y-133540500D01*
X84836000Y-113792000D02*
X84836000Y-112331500D01*
X84836000Y-112331500D02*
X82328000Y-109823500D01*
X82328000Y-95059500D02*
X82328000Y-109823500D01*
X84836000Y-113792000D02*
X84836000Y-115062000D01*
X84836000Y-115062000D02*
X83566000Y-116332000D01*
X77216000Y-113792000D02*
X77216000Y-110934500D01*
X77914500Y-110236000D02*
X77914500Y-95472500D01*
X77216000Y-110934500D02*
X77914500Y-110236000D01*
X77914500Y-95472500D02*
X77565000Y-95123000D01*
X77216000Y-95472000D02*
X77565000Y-95123000D01*
X75946000Y-116332000D02*
X75946000Y-115062000D01*
X75946000Y-115062000D02*
X77216000Y-113792000D01*
X120078500Y-115379500D02*
X124873000Y-115379500D01*
X124873000Y-115379500D02*
X124936500Y-115443000D01*
X120078500Y-115379500D02*
X120078500Y-111188500D01*
X130302000Y-161925000D02*
X130302000Y-161417000D01*
X131445000Y-151193500D02*
X131445000Y-151320500D01*
X131445000Y-147447000D02*
X131445000Y-151193500D01*
X134556500Y-160210500D02*
X132842000Y-161925000D01*
X134556500Y-154432000D02*
X134556500Y-160210500D01*
X131445000Y-151320500D02*
X134556500Y-154432000D01*
X131445000Y-147447000D02*
X131445000Y-145415000D01*
X135286500Y-141573500D02*
X135286500Y-132397500D01*
X131445000Y-145415000D02*
X135286500Y-141573500D01*
X132842000Y-161925000D02*
X132842000Y-163195000D01*
X132842000Y-163195000D02*
X131572000Y-164465000D01*
X131445000Y-147383500D02*
X131445000Y-147447000D01*
X135286500Y-126746000D02*
X135286500Y-129540000D01*
X135286500Y-129540000D02*
X135286500Y-132397500D01*
X125222000Y-155892500D02*
X125222000Y-154622500D01*
X126619000Y-134937500D02*
X125412500Y-133731000D01*
X126619000Y-153225500D02*
X126619000Y-134937500D01*
X125222000Y-154622500D02*
X126619000Y-153225500D01*
X125222000Y-155892500D02*
X125222000Y-155448000D01*
X131286500Y-126746000D02*
X109855000Y-126746000D01*
X108331000Y-128270000D02*
X96393000Y-128270000D01*
X109855000Y-126746000D02*
X108331000Y-128270000D01*
X128841500Y-126746000D02*
X131286500Y-126746000D01*
X127317500Y-128270000D02*
X128841500Y-126746000D01*
X128016000Y-133731000D02*
X128016000Y-155638500D01*
X128016000Y-155638500D02*
X127762000Y-155892500D01*
X127762000Y-155892500D02*
X127762000Y-155702000D01*
X131286500Y-129540000D02*
X110172500Y-129540000D01*
X108902500Y-130810000D02*
X96393000Y-130810000D01*
X110172500Y-129540000D02*
X108902500Y-130810000D01*
X128968500Y-131254500D02*
X130683000Y-129540000D01*
X130683000Y-129540000D02*
X131286500Y-129540000D01*
X130302000Y-155892500D02*
X130302000Y-154940000D01*
X131286500Y-132397500D02*
X110490000Y-132397500D01*
X109537500Y-133350000D02*
X96393000Y-133350000D01*
X110490000Y-132397500D02*
X109537500Y-133350000D01*
X130302000Y-155575000D02*
X130302000Y-154940000D01*
X130302000Y-154940000D02*
X130302000Y-133382000D01*
X130302000Y-133382000D02*
X131286500Y-132397500D01*
X130302000Y-133382000D02*
X131286500Y-132397500D01*
X112903000Y-140081000D02*
X112903000Y-138144500D01*
X112903000Y-138144500D02*
X112236000Y-138144500D01*
X112236000Y-138144500D02*
X110426500Y-139954000D01*
X110426500Y-139954000D02*
X110426500Y-141478000D01*
X110426500Y-141478000D02*
X106807000Y-145097500D01*
X106807000Y-145097500D02*
X97472500Y-145097500D01*
X97472500Y-145097500D02*
X91440000Y-139065000D01*
X91440000Y-139065000D02*
X91440000Y-127825500D01*
X91440000Y-127825500D02*
X92265500Y-127000000D01*
X92265500Y-127000000D02*
X93853000Y-127000000D01*
X92392500Y-137287000D02*
X92392500Y-137350500D01*
X93599000Y-129540000D02*
X92392500Y-130746500D01*
X92392500Y-130746500D02*
X92392500Y-137287000D01*
X115697000Y-136207500D02*
X115697000Y-138144500D01*
X106172000Y-143827500D02*
X98869500Y-143827500D01*
X108966000Y-141033500D02*
X106172000Y-143827500D01*
X108966000Y-137223500D02*
X108966000Y-141033500D01*
X110426500Y-135763000D02*
X108966000Y-137223500D01*
X115252500Y-135763000D02*
X110426500Y-135763000D01*
X115697000Y-136207500D02*
X115252500Y-135763000D01*
X92392500Y-137350500D02*
X98869500Y-143827500D01*
X93853000Y-129540000D02*
X93599000Y-129540000D01*
X93408500Y-129540000D02*
X93853000Y-129540000D01*
X115824000Y-140144500D02*
X115697000Y-140017500D01*
X115697000Y-140017500D02*
X115697000Y-138144500D01*
X118491000Y-138144500D02*
X118491000Y-135890000D01*
X94361000Y-133159500D02*
X94361000Y-132588000D01*
X95821500Y-134620000D02*
X94361000Y-133159500D01*
X117221000Y-134620000D02*
X95821500Y-134620000D01*
X118491000Y-135890000D02*
X117221000Y-134620000D01*
X94361000Y-132588000D02*
X93853000Y-132080000D01*
X120428000Y-138144500D02*
X118491000Y-138144500D01*
X120459500Y-138176000D02*
X120428000Y-138144500D01*
X118491000Y-142144500D02*
X123158000Y-142144500D01*
X122872500Y-161925000D02*
X125222000Y-161925000D01*
X121475500Y-160528000D02*
X122872500Y-161925000D01*
X121475500Y-155384500D02*
X121475500Y-160528000D01*
X125095000Y-151765000D02*
X121475500Y-155384500D01*
X125095000Y-144081500D02*
X125095000Y-151765000D01*
X123158000Y-142144500D02*
X125095000Y-144081500D01*
X115697000Y-142144500D02*
X118491000Y-142144500D01*
X112903000Y-142144500D02*
X115697000Y-142144500D01*
X123952000Y-164465000D02*
X123952000Y-163195000D01*
X123952000Y-163195000D02*
X125222000Y-161925000D01*
X92710000Y-152527000D02*
X98806000Y-152527000D01*
X92710000Y-155067000D02*
X98806000Y-155067000D01*
X92710000Y-157607000D02*
X98806000Y-157607000D01*
X92710000Y-160147000D02*
X98806000Y-160147000D01*
X87249000Y-159544000D02*
X85820500Y-159544000D01*
X81470500Y-159004000D02*
X81470500Y-160434000D01*
X82105500Y-158369000D02*
X81470500Y-159004000D01*
X84645500Y-158369000D02*
X82105500Y-158369000D01*
X85820500Y-159544000D02*
X84645500Y-158369000D01*
X87249000Y-157003500D02*
X87249000Y-159544000D01*
X80899000Y-160434000D02*
X81470500Y-160434000D01*
X81470500Y-160434000D02*
X82169000Y-160434000D01*
X75692000Y-161544000D02*
X78519000Y-161544000D01*
X78519000Y-161544000D02*
X79629000Y-160434000D01*
X76073000Y-164338000D02*
X75882500Y-164338000D01*
X74485500Y-154051000D02*
X74485500Y-153924000D01*
X74485500Y-153987500D02*
X74485500Y-154051000D01*
X74422000Y-153924000D02*
X74485500Y-153987500D01*
X74422000Y-162877500D02*
X74422000Y-153924000D01*
X75882500Y-164338000D02*
X74422000Y-162877500D01*
X83439000Y-160434000D02*
X83439000Y-163131500D01*
X82232500Y-164338000D02*
X76073000Y-164338000D01*
X76073000Y-164338000D02*
X76009500Y-164338000D01*
X83439000Y-163131500D02*
X82232500Y-164338000D01*
X73152000Y-153924000D02*
X74485500Y-153924000D01*
X74485500Y-153924000D02*
X75692000Y-153924000D01*
M02*
