M48
;DRILL file {KiCad 4.0.7} date 10/11/18 23:23:37
;FORMAT={-:-/ absolute / inch / decimal}
FMAT,2
INCH,TZ
T1C0.016
T2C0.028
T3C0.035
T4C0.039
T5C0.040
T6C0.051
T7C0.063
T8C0.079
T9C0.118
%
G90
G05
M72
T1
X2.669Y-1.9315
X2.861Y-3.589
X2.881Y-3.559
X2.911Y-3.993
X3.128Y-3.96
X3.4252Y-4.5274
X3.453Y-4.553
X4.107Y-4.782
X4.2515Y-2.284
X4.541Y-1.664
X4.574Y-4.23
X4.574Y-4.309
X4.575Y-4.354
X4.589Y-3.259
X4.592Y-3.774
X4.592Y-3.82
X4.592Y-3.866
X4.592Y-3.916
X4.594Y-2.964
X4.594Y-3.014
X4.594Y-3.09
X4.594Y-3.13
X4.594Y-3.314
X4.594Y-3.354
X4.595Y-1.633
X4.595Y-1.709
X4.595Y-1.842
X4.626Y-4.232
X4.684Y-1.803
X4.692Y-1.707
X4.739Y-3.249
X4.832Y-1.902
X4.835Y-1.953
T2
X4.09Y-2.86
X4.19Y-2.76
X4.19Y-2.96
T3
X2.661Y-4.673
X2.661Y-4.773
X2.661Y-4.873
X2.661Y-4.973
X2.663Y-1.473
X2.663Y-1.573
X2.663Y-1.673
X2.663Y-1.773
X2.663Y-2.113
X2.663Y-2.213
X2.663Y-2.313
X2.663Y-2.413
X2.663Y-2.753
X2.663Y-2.853
X2.663Y-2.953
X2.663Y-3.053
X2.663Y-3.393
X2.663Y-3.493
X2.663Y-3.593
X2.663Y-3.693
X2.663Y-4.033
X2.663Y-4.133
X2.663Y-4.233
X2.663Y-4.333
X2.761Y-4.723
X2.761Y-4.823
X2.761Y-4.923
X2.761Y-5.023
X2.763Y-1.523
X2.763Y-1.623
X2.763Y-1.723
X2.763Y-1.823
X2.763Y-2.163
X2.763Y-2.263
X2.763Y-2.363
X2.763Y-2.463
X2.763Y-2.803
X2.763Y-2.903
X2.763Y-3.003
X2.763Y-3.103
X2.763Y-3.443
X2.763Y-3.543
X2.763Y-3.643
X2.763Y-3.743
X2.763Y-4.083
X2.763Y-4.183
X2.763Y-4.283
X2.763Y-4.383
X3.629Y-4.7265
X3.679Y-4.6265
X3.729Y-4.7265
X3.779Y-4.6265
X3.829Y-4.7265
X3.879Y-4.6265
X3.929Y-4.7265
X3.979Y-4.6265
T4
X2.95Y-1.38
X2.95Y-2.95
X3.285Y-2.185
X3.52Y-3.564
X3.5325Y-1.9375
X3.65Y-1.38
X3.65Y-2.95
X3.8357Y-1.9632
X3.84Y-2.31
X3.8421Y-2.1821
X3.94Y-1.8825
X3.99Y-2.355
X3.99Y-3.16
X4.09Y-2.355
X4.09Y-3.16
X4.3082Y-1.9632
T6
X3.8338Y-1.4809
X4.07Y-2.04
X4.3082Y-1.4829
X5.944Y-1.429
X5.944Y-1.529
X5.944Y-1.629
X5.944Y-1.729
X5.944Y-1.979
X5.944Y-2.079
X5.944Y-2.179
X5.944Y-2.279
X5.944Y-2.529
X5.944Y-2.629
X5.944Y-2.729
X5.944Y-2.829
X5.944Y-3.079
X5.944Y-3.179
X5.944Y-3.279
X5.944Y-3.379
X5.944Y-3.629
X5.944Y-3.729
X5.944Y-3.829
X5.944Y-3.929
X5.944Y-4.179
X5.944Y-4.279
X5.944Y-4.379
X5.944Y-4.479
X5.944Y-4.729
X5.944Y-4.829
X5.944Y-4.929
X5.944Y-5.029
X6.044Y-1.479
X6.044Y-1.579
X6.044Y-1.679
X6.044Y-1.779
X6.044Y-2.029
X6.044Y-2.129
X6.044Y-2.229
X6.044Y-2.329
X6.044Y-2.579
X6.044Y-2.679
X6.044Y-2.779
X6.044Y-2.879
X6.044Y-3.129
X6.044Y-3.229
X6.044Y-3.329
X6.044Y-3.429
X6.044Y-3.679
X6.044Y-3.779
X6.044Y-3.879
X6.044Y-3.979
X6.044Y-4.229
X6.044Y-4.329
X6.044Y-4.429
X6.044Y-4.529
X6.044Y-4.779
X6.044Y-4.879
X6.044Y-4.979
X6.044Y-5.079
T7
X2.261Y-4.543
X2.261Y-5.163
X2.263Y-1.343
X2.263Y-1.963
X2.263Y-1.983
X2.263Y-2.603
X2.263Y-2.623
X2.263Y-3.243
X2.263Y-3.263
X2.263Y-3.883
X2.263Y-3.903
X2.263Y-4.523
T8
X3.03Y-4.2
X3.205Y-2.9
X3.23Y-4.2
X3.405Y-2.9
X3.49Y-4.2
X3.69Y-4.2
X4.289Y-3.473
X4.289Y-3.673
X4.289Y-3.979
X4.289Y-4.179
T9
X3.168Y-5.035
X3.2125Y-3.1975
X4.561Y-1.465
X4.561Y-5.035
T5
X2.96Y-3.475G85X3.Y-3.475
G05
X3.Y-3.78G85X2.96Y-3.78
G05
X3.71Y-3.475G85X3.75Y-3.475
G05
X3.75Y-3.78G85X3.71Y-3.78
G05
T0
M30
