G04 #@! TF.FileFunction,Copper,L2,Bot,Signal*
%FSLAX46Y46*%
G04 Gerber Fmt 4.6, Leading zero omitted, Abs format (unit mm)*
G04 Created by KiCad (PCBNEW 4.0.7) date 10/11/18 23:23:36*
%MOMM*%
%LPD*%
G01*
G04 APERTURE LIST*
%ADD10C,0.100000*%
%ADD11C,6.000000*%
%ADD12C,2.000000*%
%ADD13R,1.600000X3.500000*%
%ADD14O,3.048000X2.032000*%
%ADD15C,4.000000*%
%ADD16R,2.000000X1.700000*%
%ADD17R,1.700000X1.700000*%
%ADD18O,1.700000X1.700000*%
%ADD19R,0.900000X1.700000*%
%ADD20R,1.700000X0.900000*%
%ADD21C,1.260000*%
%ADD22C,2.500000*%
%ADD23C,3.000000*%
%ADD24R,0.650000X2.000000*%
%ADD25C,1.500000*%
%ADD26C,2.600000*%
%ADD27C,2.200000*%
%ADD28C,0.600000*%
%ADD29C,0.250000*%
%ADD30C,2.000000*%
%ADD31C,1.000000*%
%ADD32C,0.254000*%
G04 APERTURE END LIST*
D10*
D11*
X80467200Y-127889000D03*
D12*
X92710000Y-35052000D03*
X74930000Y-35052000D03*
X74930000Y-74930000D03*
X92710000Y-74930000D03*
D11*
X81597500Y-81216500D03*
D13*
X86704500Y-38862000D03*
X81824500Y-38862000D03*
D14*
X75692000Y-88265000D03*
X94742000Y-88265000D03*
X94742000Y-96012000D03*
X75692000Y-96012000D03*
D15*
X82042000Y-106680000D03*
X76962000Y-106680000D03*
X93726000Y-106680000D03*
X88646000Y-106680000D03*
X86487000Y-73660000D03*
X81407000Y-73660000D03*
D13*
X86641000Y-64516000D03*
X81761000Y-64516000D03*
D16*
X86201000Y-60960000D03*
X82201000Y-60960000D03*
X86264500Y-35052000D03*
X82264500Y-35052000D03*
D17*
X103886000Y-80264000D03*
D18*
X101346000Y-80264000D03*
D17*
X103886000Y-59817000D03*
D18*
X101346000Y-59817000D03*
D19*
X110898600Y-57950100D03*
X107998600Y-57950100D03*
X96192000Y-48260000D03*
X93292000Y-48260000D03*
X96255500Y-51498500D03*
X93355500Y-51498500D03*
D20*
X99631500Y-38872500D03*
X99631500Y-41772500D03*
X101981000Y-55425000D03*
X101981000Y-52525000D03*
X104775000Y-55425000D03*
X104775000Y-52525000D03*
X107124500Y-38936000D03*
X107124500Y-41836000D03*
D21*
X106426000Y-70104000D03*
X103886000Y-72644000D03*
X106426000Y-75184000D03*
D22*
X109428000Y-49866000D03*
D23*
X109428000Y-37666000D03*
X97378000Y-37616000D03*
D22*
X97428000Y-49866000D03*
D23*
X103378000Y-51816000D03*
D24*
X110360500Y-54796000D03*
X108460500Y-54796000D03*
X109410500Y-51376000D03*
D11*
X115849400Y-127889000D03*
X115849400Y-37211000D03*
D25*
X67589400Y-126314200D03*
X67589400Y-123774200D03*
X67589400Y-121234200D03*
X67589400Y-118694200D03*
X70129400Y-127584200D03*
X70129400Y-125044200D03*
X70129400Y-122504200D03*
X70129400Y-119964200D03*
D26*
X57429400Y-115392200D03*
X57429400Y-131140200D03*
D25*
X67640200Y-61290200D03*
X67640200Y-58750200D03*
X67640200Y-56210200D03*
X67640200Y-53670200D03*
X70180200Y-62560200D03*
X70180200Y-60020200D03*
X70180200Y-57480200D03*
X70180200Y-54940200D03*
D26*
X57480200Y-50368200D03*
X57480200Y-66116200D03*
D25*
X67640200Y-110058200D03*
X67640200Y-107518200D03*
X67640200Y-104978200D03*
X67640200Y-102438200D03*
X70180200Y-111328200D03*
X70180200Y-108788200D03*
X70180200Y-106248200D03*
X70180200Y-103708200D03*
D26*
X57480200Y-99136200D03*
X57480200Y-114884200D03*
D25*
X67640200Y-45034200D03*
X67640200Y-42494200D03*
X67640200Y-39954200D03*
X67640200Y-37414200D03*
X70180200Y-46304200D03*
X70180200Y-43764200D03*
X70180200Y-41224200D03*
X70180200Y-38684200D03*
D26*
X57480200Y-34112200D03*
X57480200Y-49860200D03*
D25*
X67640200Y-93802200D03*
X67640200Y-91262200D03*
X67640200Y-88722200D03*
X67640200Y-86182200D03*
X70180200Y-95072200D03*
X70180200Y-92532200D03*
X70180200Y-89992200D03*
X70180200Y-87452200D03*
D26*
X57480200Y-82880200D03*
X57480200Y-98628200D03*
D25*
X67640200Y-77546200D03*
X67640200Y-75006200D03*
X67640200Y-72466200D03*
X67640200Y-69926200D03*
X70180200Y-78816200D03*
X70180200Y-76276200D03*
X70180200Y-73736200D03*
X70180200Y-71196200D03*
D26*
X57480200Y-66624200D03*
X57480200Y-82372200D03*
D25*
X99796600Y-120053100D03*
X97256600Y-120053100D03*
X94716600Y-120053100D03*
X92176600Y-120053100D03*
X101066600Y-117513100D03*
X98526600Y-117513100D03*
X95986600Y-117513100D03*
X93446600Y-117513100D03*
D15*
X108940600Y-106146600D03*
X108940600Y-101066600D03*
D16*
X109010200Y-111810800D03*
X105010200Y-111810800D03*
D19*
X101928000Y-47244000D03*
X104828000Y-47244000D03*
D27*
X150977600Y-71856600D03*
X150977600Y-69316600D03*
X150977600Y-66776600D03*
X150977600Y-64236600D03*
X153517600Y-73126600D03*
X153517600Y-70586600D03*
X153517600Y-68046600D03*
X153517600Y-65506600D03*
X150977600Y-99796600D03*
X150977600Y-97256600D03*
X150977600Y-94716600D03*
X150977600Y-92176600D03*
X153517600Y-101066600D03*
X153517600Y-98526600D03*
X153517600Y-95986600D03*
X153517600Y-93446600D03*
X150977600Y-127736600D03*
X150977600Y-125196600D03*
X150977600Y-122656600D03*
X150977600Y-120116600D03*
X153517600Y-129006600D03*
X153517600Y-126466600D03*
X153517600Y-123926600D03*
X153517600Y-121386600D03*
X150977600Y-113766600D03*
X150977600Y-111226600D03*
X150977600Y-108686600D03*
X150977600Y-106146600D03*
X153517600Y-115036600D03*
X153517600Y-112496600D03*
X153517600Y-109956600D03*
X153517600Y-107416600D03*
X150977600Y-43916600D03*
X150977600Y-41376600D03*
X150977600Y-38836600D03*
X150977600Y-36296600D03*
X153517600Y-45186600D03*
X153517600Y-42646600D03*
X153517600Y-40106600D03*
X153517600Y-37566600D03*
X150977600Y-85826600D03*
X150977600Y-83286600D03*
X150977600Y-80746600D03*
X150977600Y-78206600D03*
X153517600Y-87096600D03*
X153517600Y-84556600D03*
X153517600Y-82016600D03*
X153517600Y-79476600D03*
D15*
X108940600Y-93294200D03*
X108940600Y-88214200D03*
D27*
X150977600Y-57886600D03*
X150977600Y-55346600D03*
X150977600Y-52806600D03*
X150977600Y-50266600D03*
X153517600Y-59156600D03*
X153517600Y-56616600D03*
X153517600Y-54076600D03*
X153517600Y-51536600D03*
D28*
X79451200Y-100584000D03*
X116636800Y-98196400D03*
X116636800Y-97028000D03*
X73939400Y-101422200D03*
X116636800Y-95859600D03*
X119176800Y-43357800D03*
X67792600Y-49060100D03*
X115341400Y-42265600D03*
X116713000Y-43408600D03*
X116713000Y-41478200D03*
X116687600Y-84175600D03*
X116560600Y-82778600D03*
X73177400Y-90398600D03*
X116687600Y-85191600D03*
X120370600Y-82524600D03*
X72669400Y-91160600D03*
X116687600Y-78486000D03*
X116687600Y-76555600D03*
X116687600Y-79502000D03*
X116687600Y-75285600D03*
X118973600Y-45796200D03*
X122809000Y-49606200D03*
X116713000Y-46786800D03*
X122732800Y-48310800D03*
X116205000Y-110591600D03*
X87706200Y-115646200D03*
X117500400Y-107492800D03*
X116179600Y-109448600D03*
X87000080Y-114995960D03*
X116179600Y-107442000D03*
D25*
X97536000Y-58674000D03*
X89408000Y-90525600D03*
X89725500Y-49212500D03*
X97589000Y-55425000D03*
X83439000Y-55499000D03*
D28*
X107988100Y-58013600D03*
X104317800Y-121462800D03*
X116636800Y-99466400D03*
D25*
X100076000Y-47815500D03*
D29*
X67640200Y-104978200D02*
X66522600Y-103860600D01*
X66167000Y-101142800D02*
X67233800Y-100076000D01*
X66167000Y-103505000D02*
X66167000Y-101142800D01*
X66217800Y-103555800D02*
X66167000Y-103505000D01*
X66294000Y-103632000D02*
X66217800Y-103555800D01*
X66522600Y-103860600D02*
X66294000Y-103632000D01*
X78943200Y-100076000D02*
X67233800Y-100076000D01*
X79451200Y-100584000D02*
X78943200Y-100076000D01*
X147650200Y-98069400D02*
X117830600Y-98069400D01*
X150977600Y-94742000D02*
X147650200Y-98069400D01*
X116763800Y-98069400D02*
X116636800Y-98196400D01*
X117830600Y-98069400D02*
X116763800Y-98069400D01*
X150977600Y-94716600D02*
X150977600Y-94742000D01*
X147650200Y-95504000D02*
X147650200Y-97028000D01*
X147650200Y-97028000D02*
X147091400Y-97586800D01*
X147091400Y-97586800D02*
X118160800Y-97586800D01*
X150977600Y-92176600D02*
X147650200Y-95504000D01*
X117195600Y-97586800D02*
X116636800Y-97028000D01*
X118160800Y-97586800D02*
X117195600Y-97586800D01*
X72771000Y-101422200D02*
X73939400Y-101422200D01*
X119202200Y-97129600D02*
X117906800Y-97129600D01*
X117906800Y-97129600D02*
X116636800Y-95859600D01*
X153517600Y-92075000D02*
X153517600Y-93446600D01*
X146304000Y-97129600D02*
X119202200Y-97129600D01*
X146939000Y-96494600D02*
X146304000Y-97129600D01*
X146939000Y-95199200D02*
X146939000Y-96494600D01*
X149123400Y-93014800D02*
X146939000Y-95199200D01*
X149123400Y-91440000D02*
X149123400Y-93014800D01*
X149961600Y-90601800D02*
X149123400Y-91440000D01*
X152044400Y-90601800D02*
X149961600Y-90601800D01*
X153517600Y-92075000D02*
X152044400Y-90601800D01*
X153517600Y-93446600D02*
X153517600Y-92367100D01*
X72771000Y-101422200D02*
X72440800Y-101422200D01*
X72440800Y-101422200D02*
X70167500Y-103695500D01*
X121958100Y-42887900D02*
X119646700Y-42887900D01*
X119646700Y-42887900D02*
X119176800Y-43357800D01*
X150977600Y-38836600D02*
X149275800Y-37134800D01*
X128143000Y-36703000D02*
X121958100Y-42887900D01*
X148844000Y-36703000D02*
X128143000Y-36703000D01*
X148996400Y-36855400D02*
X148844000Y-36703000D01*
X149275800Y-37134800D02*
X148996400Y-36855400D01*
X63601600Y-42011600D02*
X63627000Y-42011600D01*
X63627000Y-42037000D02*
X63601600Y-42011600D01*
X63627000Y-44894500D02*
X63627000Y-42037000D01*
X67792600Y-49060100D02*
X63627000Y-44894500D01*
X64706500Y-39941500D02*
X67627500Y-39941500D01*
X63627000Y-41021000D02*
X64706500Y-39941500D01*
X63627000Y-42011600D02*
X63627000Y-41021000D01*
X115341400Y-42265600D02*
X115341400Y-42291000D01*
X115341400Y-42291000D02*
X115341400Y-42265600D01*
X115341400Y-42265600D02*
X115341400Y-42291000D01*
X127965200Y-36296600D02*
X121970800Y-42291000D01*
X121970800Y-42291000D02*
X115341400Y-42291000D01*
X127965200Y-36296600D02*
X150977600Y-36296600D01*
X122275600Y-43357800D02*
X120294400Y-43357800D01*
X120294400Y-43357800D02*
X119595900Y-44056300D01*
X116713000Y-43408600D02*
X117348000Y-43408600D01*
X117995700Y-44056300D02*
X119595900Y-44056300D01*
X117995700Y-44056300D02*
X117373400Y-43434000D01*
X155168600Y-43484800D02*
X155168600Y-46482000D01*
X155168600Y-46482000D02*
X154838400Y-46812200D01*
X154330400Y-42646600D02*
X155168600Y-43484800D01*
X122275600Y-43357800D02*
X128397000Y-37236400D01*
X128397000Y-37236400D02*
X147802600Y-37236400D01*
X147802600Y-37236400D02*
X149148800Y-38582600D01*
X149148800Y-38582600D02*
X149148800Y-44754800D01*
X149148800Y-44754800D02*
X151206200Y-46812200D01*
X151206200Y-46812200D02*
X154838400Y-46812200D01*
X153517600Y-42646600D02*
X154330400Y-42646600D01*
X122516900Y-41033700D02*
X122072400Y-41478200D01*
X122072400Y-41478200D02*
X116713000Y-41478200D01*
X152171400Y-34493200D02*
X150190200Y-34493200D01*
X153517600Y-35839400D02*
X153517600Y-37566600D01*
X153517600Y-35839400D02*
X152171400Y-34493200D01*
X150190200Y-34493200D02*
X148844000Y-35839400D01*
X148844000Y-35839400D02*
X127711200Y-35839400D01*
X127711200Y-35839400D02*
X122516900Y-41033700D01*
X146786600Y-84175600D02*
X150215600Y-80746600D01*
X116687600Y-84175600D02*
X146786600Y-84175600D01*
X150215600Y-80746600D02*
X150977600Y-80746600D01*
X117195600Y-82905600D02*
X117005100Y-82715100D01*
X116560600Y-82778600D02*
X116624100Y-82715100D01*
X116624100Y-82715100D02*
X117005100Y-82715100D01*
X121132600Y-83667600D02*
X117957600Y-83667600D01*
X121132600Y-83667600D02*
X145643600Y-83667600D01*
X145643600Y-83667600D02*
X150977600Y-78333600D01*
X117957600Y-83667600D02*
X117195600Y-82905600D01*
X117195600Y-82905600D02*
X117068600Y-82778600D01*
X150977600Y-78333600D02*
X150977600Y-78206600D01*
X71031100Y-86169500D02*
X67627500Y-86169500D01*
X71653400Y-86791800D02*
X71031100Y-86169500D01*
X71653400Y-88011000D02*
X71653400Y-86791800D01*
X73177400Y-89535000D02*
X71653400Y-88011000D01*
X73177400Y-90398600D02*
X73177400Y-89535000D01*
X67627500Y-86169500D02*
X67627500Y-85839300D01*
X116687600Y-85191600D02*
X117043200Y-84836000D01*
X149326600Y-85293200D02*
X149326600Y-86715600D01*
X148717000Y-84683600D02*
X149326600Y-85293200D01*
X117170200Y-84683600D02*
X148717000Y-84683600D01*
X117043200Y-84810600D02*
X117170200Y-84683600D01*
X117043200Y-84836000D02*
X117043200Y-84810600D01*
X154406600Y-88620600D02*
X151231600Y-88620600D01*
X155041600Y-85509100D02*
X155041600Y-87731600D01*
X154089100Y-84556600D02*
X155041600Y-85509100D01*
X149326600Y-86715600D02*
X150088600Y-87477600D01*
X155041600Y-87985600D02*
X154406600Y-88620600D01*
X155041600Y-87731600D02*
X155041600Y-87985600D01*
X151231600Y-88620600D02*
X150088600Y-87477600D01*
X153517600Y-84556600D02*
X154089100Y-84556600D01*
X151993600Y-76555600D02*
X150088600Y-76555600D01*
X150088600Y-76555600D02*
X149072600Y-77571600D01*
X149072600Y-77571600D02*
X149072600Y-79349600D01*
X149072600Y-79349600D02*
X145262600Y-83159600D01*
X145262600Y-83159600D02*
X121005600Y-83159600D01*
X121005600Y-83159600D02*
X120370600Y-82524600D01*
X153517600Y-78079600D02*
X151993600Y-76555600D01*
X151993600Y-76555600D02*
X151930100Y-76492100D01*
X153517600Y-78079600D02*
X153517600Y-79476600D01*
X72517000Y-89789000D02*
X70167500Y-87439500D01*
X72517000Y-91008200D02*
X72517000Y-89789000D01*
X72669400Y-91160600D02*
X72517000Y-91008200D01*
X70167500Y-87439500D02*
X70167500Y-87363300D01*
X70104000Y-87376000D02*
X70485000Y-87376000D01*
X116687600Y-77876400D02*
X116687600Y-78486000D01*
X116687600Y-77876400D02*
X116687600Y-77851000D01*
X120218200Y-74320400D02*
X146989800Y-74320400D01*
X116687600Y-77851000D02*
X120218200Y-74320400D01*
X150977600Y-66776600D02*
X149707600Y-66776600D01*
X148374100Y-72936100D02*
X146989800Y-74320400D01*
X148374100Y-68110100D02*
X148374100Y-72936100D01*
X149707600Y-66776600D02*
X148374100Y-68110100D01*
X121259600Y-73761600D02*
X121259600Y-73736200D01*
X121234200Y-73736200D02*
X121259600Y-73761600D01*
X119507000Y-73736200D02*
X121234200Y-73736200D01*
X116687600Y-76555600D02*
X119507000Y-73736200D01*
X150977600Y-64236600D02*
X150215600Y-64236600D01*
X150215600Y-64236600D02*
X147447000Y-67005200D01*
X147447000Y-67005200D02*
X147447000Y-73050400D01*
X147447000Y-73050400D02*
X146761200Y-73736200D01*
X146761200Y-73736200D02*
X121259600Y-73736200D01*
X155168600Y-73888600D02*
X155168600Y-73964800D01*
X117602000Y-78587600D02*
X116687600Y-79502000D01*
X117602000Y-77851000D02*
X117602000Y-78587600D01*
X120624600Y-74828400D02*
X117602000Y-77851000D01*
X154305000Y-74828400D02*
X120624600Y-74828400D01*
X155168600Y-73964800D02*
X154305000Y-74828400D01*
X153517600Y-70586600D02*
X153962100Y-70586600D01*
X153962100Y-70586600D02*
X155168600Y-71793100D01*
X155168600Y-71793100D02*
X155168600Y-73888600D01*
X153517600Y-65506600D02*
X153517600Y-64236600D01*
X118846600Y-73126600D02*
X116687600Y-75285600D01*
X146405600Y-73126600D02*
X118846600Y-73126600D01*
X146913600Y-72618600D02*
X146405600Y-73126600D01*
X146913600Y-65887600D02*
X146913600Y-72618600D01*
X150088600Y-62712600D02*
X146913600Y-65887600D01*
X151993600Y-62712600D02*
X150088600Y-62712600D01*
X153517600Y-64236600D02*
X151993600Y-62712600D01*
X119303800Y-46126400D02*
X119303800Y-47091600D01*
X118973600Y-45796200D02*
X119303800Y-46126400D01*
X119303800Y-47091600D02*
X125018800Y-52806600D01*
X125018800Y-52806600D02*
X150977600Y-52806600D01*
X150977600Y-50266600D02*
X150622000Y-50266600D01*
X150622000Y-50266600D02*
X148564600Y-52324000D01*
X148564600Y-52324000D02*
X125526800Y-52324000D01*
X125526800Y-52324000D02*
X122809000Y-49606200D01*
X153517600Y-56616600D02*
X154406600Y-56616600D01*
X154406600Y-56616600D02*
X155143200Y-57353200D01*
X123317000Y-53390800D02*
X116713000Y-46786800D01*
X148717000Y-53390800D02*
X123317000Y-53390800D01*
X149148800Y-53822600D02*
X148717000Y-53390800D01*
X149148800Y-58445400D02*
X149148800Y-53822600D01*
X151460200Y-60756800D02*
X149148800Y-58445400D01*
X154381200Y-60756800D02*
X151460200Y-60756800D01*
X155143200Y-59994800D02*
X154381200Y-60756800D01*
X155143200Y-57353200D02*
X155143200Y-59994800D01*
X153517600Y-56616600D02*
X154178000Y-56616600D01*
X153517600Y-50215800D02*
X151968200Y-48666400D01*
X151968200Y-48666400D02*
X150012400Y-48666400D01*
X150012400Y-48666400D02*
X149021800Y-49657000D01*
X149021800Y-49657000D02*
X149021800Y-50927000D01*
X149021800Y-50927000D02*
X148158200Y-51790600D01*
X148158200Y-51790600D02*
X126187200Y-51790600D01*
X126187200Y-51790600D02*
X122707400Y-48310800D01*
X153517600Y-50215800D02*
X153517600Y-51536600D01*
X122720100Y-48323500D02*
X122707400Y-48310800D01*
X122732800Y-48310800D02*
X122720100Y-48323500D01*
D30*
X105010200Y-111810800D02*
X100101400Y-111810800D01*
X100101400Y-111810800D02*
X96329500Y-108038900D01*
X90551000Y-108585000D02*
X89184480Y-108585000D01*
X89184480Y-108585000D02*
X88646000Y-108046520D01*
X88646000Y-108046520D02*
X88646000Y-106680000D01*
X91288870Y-103846630D02*
X89442290Y-103846630D01*
X88646000Y-104642920D02*
X88646000Y-106680000D01*
X89442290Y-103846630D02*
X88646000Y-104642920D01*
X94742000Y-96012000D02*
X94742000Y-88265000D01*
X93726000Y-106680000D02*
X93726000Y-97028000D01*
X93726000Y-97028000D02*
X94742000Y-96012000D01*
X96329500Y-84963000D02*
X96329500Y-108038900D01*
X96329500Y-108038900D02*
X96329500Y-109283500D01*
X96329500Y-109283500D02*
X97104200Y-110058200D01*
X97104200Y-110058200D02*
X93726000Y-106680000D01*
X93853000Y-84137500D02*
X92646500Y-85344000D01*
X92646500Y-85344000D02*
X92646500Y-102489000D01*
X92646500Y-102489000D02*
X91288870Y-103846630D01*
X91288870Y-103846630D02*
X90741500Y-104394000D01*
X97726500Y-64516000D02*
X97726500Y-62865000D01*
X81824500Y-46963000D02*
X81824500Y-45756500D01*
X97726500Y-62865000D02*
X81824500Y-46963000D01*
X93853000Y-87312500D02*
X93853000Y-84137500D01*
X97726500Y-80264000D02*
X97726500Y-80073500D01*
X93853000Y-84137500D02*
X97726500Y-80264000D01*
X95313500Y-107569000D02*
X93726000Y-106680000D01*
X95313500Y-108585000D02*
X95313500Y-105092500D01*
X95472250Y-104933750D02*
X93726000Y-106680000D01*
X95313500Y-105092500D02*
X95472250Y-104933750D01*
X88646000Y-106680000D02*
X90551000Y-108585000D01*
X91630500Y-108585000D02*
X90551000Y-108585000D01*
X95313500Y-108585000D02*
X91630500Y-108585000D01*
X88646000Y-106680000D02*
X88646000Y-106489500D01*
X88646000Y-106489500D02*
X90741500Y-104394000D01*
X90741500Y-104394000D02*
X93853000Y-101282500D01*
X93853000Y-101282500D02*
X93853000Y-87312500D01*
X93853000Y-87312500D02*
X93853000Y-86233000D01*
X93853000Y-86233000D02*
X94742000Y-85344000D01*
X88646000Y-106489500D02*
X90360500Y-104775000D01*
X95821500Y-101981000D02*
X95821500Y-85471000D01*
X93027500Y-104775000D02*
X95821500Y-101981000D01*
X90360500Y-104775000D02*
X93027500Y-104775000D01*
X95821500Y-85471000D02*
X96329500Y-84963000D01*
X96329500Y-84963000D02*
X96329500Y-83756500D01*
X93726000Y-106680000D02*
X88646000Y-106680000D01*
X81824500Y-38862000D02*
X81824500Y-45593000D01*
X97726500Y-79883000D02*
X97726500Y-64516000D01*
X97726500Y-82359500D02*
X97726500Y-79883000D01*
X88646000Y-106680000D02*
X88423502Y-106680000D01*
X88646000Y-106902498D02*
X88646000Y-106680000D01*
X97726500Y-82359500D02*
X96329500Y-83756500D01*
X96329500Y-83756500D02*
X94742000Y-85344000D01*
X81824500Y-38862000D02*
X81824500Y-35492000D01*
X81824500Y-35492000D02*
X82264500Y-35052000D01*
D29*
X152552400Y-116941600D02*
X151561800Y-116941600D01*
X117576600Y-109220000D02*
X116205000Y-110591600D01*
X147650200Y-109220000D02*
X117576600Y-109220000D01*
X148945600Y-110515400D02*
X147650200Y-109220000D01*
X148945600Y-114325400D02*
X148945600Y-110515400D01*
X151561800Y-116941600D02*
X148945600Y-114325400D01*
X153898600Y-112496600D02*
X155168600Y-113766600D01*
X155168600Y-113766600D02*
X155168600Y-116306600D01*
X155168600Y-116306600D02*
X154533600Y-116941600D01*
X154533600Y-116941600D02*
X152552400Y-116941600D01*
X83464400Y-118694200D02*
X72923400Y-118694200D01*
X87376000Y-115976400D02*
X86664800Y-115976400D01*
X83947000Y-118694200D02*
X83464400Y-118694200D01*
X86664800Y-115976400D02*
X83947000Y-118694200D01*
X71393050Y-124339350D02*
X71393050Y-119475250D01*
X72174100Y-118694200D02*
X72923400Y-118694200D01*
X71393050Y-119475250D02*
X72174100Y-118694200D01*
X87706200Y-115646200D02*
X87376000Y-115976400D01*
X71393050Y-124339350D02*
X70700900Y-125031500D01*
X153517600Y-112496600D02*
X153898600Y-112496600D01*
X70167500Y-125031500D02*
X70700900Y-125031500D01*
X148996400Y-105689400D02*
X150190200Y-104495600D01*
X148996400Y-106578400D02*
X148996400Y-105689400D01*
X148082000Y-107492800D02*
X148996400Y-106578400D01*
X117500400Y-107492800D02*
X148082000Y-107492800D01*
X153517600Y-107416600D02*
X153517600Y-105448100D01*
X152565100Y-104495600D02*
X150190200Y-104495600D01*
X153517600Y-105448100D02*
X152565100Y-104495600D01*
X117068600Y-108686600D02*
X117195600Y-108686600D01*
X117195600Y-108686600D02*
X150977600Y-108686600D01*
X116941600Y-108686600D02*
X117068600Y-108686600D01*
X117068600Y-108686600D02*
X117132100Y-108686600D01*
X116179600Y-109448600D02*
X116941600Y-108686600D01*
X86868000Y-115128040D02*
X86868000Y-115163600D01*
X66116200Y-120319800D02*
X66116200Y-118186200D01*
X67017900Y-121221500D02*
X66116200Y-120319800D01*
X86868000Y-115163600D02*
X83794600Y-118237000D01*
X83794600Y-118237000D02*
X69926200Y-118237000D01*
X69926200Y-118237000D02*
X68910200Y-117221000D01*
X68910200Y-117221000D02*
X67081400Y-117221000D01*
X67081400Y-117221000D02*
X66116200Y-118186200D01*
X87000080Y-114995960D02*
X86868000Y-115128040D01*
X67627500Y-121221500D02*
X67017900Y-121221500D01*
X149428200Y-107696000D02*
X148996400Y-108127800D01*
X148996400Y-108127800D02*
X117398800Y-108127800D01*
X149428200Y-107696000D02*
X150977600Y-106146600D01*
X116865400Y-108127800D02*
X116179600Y-107442000D01*
X117398800Y-108127800D02*
X116865400Y-108127800D01*
D31*
X97536000Y-58674000D02*
X97536000Y-57404000D01*
X97536000Y-57404000D02*
X97536000Y-57658000D01*
X97536000Y-57658000D02*
X97536000Y-57404000D01*
X98806000Y-57404000D02*
X97536000Y-57404000D01*
X97536000Y-57404000D02*
X96964500Y-57404000D01*
X98806000Y-57404000D02*
X104648000Y-57404000D01*
X96964500Y-57404000D02*
X93355500Y-53795000D01*
X104648000Y-57404000D02*
X104775000Y-57277000D01*
X93355500Y-53795000D02*
X93355500Y-51498500D01*
X104775000Y-57277000D02*
X104775000Y-55425000D01*
X93472000Y-51615000D02*
X93355500Y-51498500D01*
X89052400Y-90170000D02*
X89052400Y-80619600D01*
X89408000Y-90525600D02*
X89052400Y-90170000D01*
X92710000Y-64008000D02*
X92710000Y-63119000D01*
X87122000Y-57531000D02*
X85979000Y-57531000D01*
X92710000Y-63119000D02*
X87122000Y-57531000D01*
X92710000Y-64516000D02*
X92710000Y-64008000D01*
X92710000Y-64516000D02*
X92710000Y-64643000D01*
X90678000Y-48260000D02*
X93292000Y-48260000D01*
X89725500Y-49212500D02*
X90678000Y-48260000D01*
X101981000Y-55425000D02*
X97589000Y-55425000D01*
X82804000Y-56134000D02*
X83439000Y-55499000D01*
X92710000Y-76962000D02*
X89052400Y-80619600D01*
X89052400Y-80619600D02*
X89027000Y-80645000D01*
X92710000Y-74930000D02*
X92710000Y-76962000D01*
X85979000Y-57531000D02*
X82677000Y-57531000D01*
X92710000Y-74930000D02*
X92710000Y-64643000D01*
X82201000Y-58007000D02*
X82201000Y-60960000D01*
X82677000Y-57531000D02*
X82201000Y-58007000D01*
X82201000Y-60960000D02*
X82201000Y-56737000D01*
X82201000Y-56737000D02*
X82804000Y-56134000D01*
X82804000Y-56134000D02*
X82201000Y-56737000D01*
X82201000Y-60960000D02*
X82201000Y-64076000D01*
X82201000Y-64076000D02*
X81761000Y-64516000D01*
X82042000Y-60801000D02*
X82201000Y-60960000D01*
X81761000Y-64516000D02*
X81761000Y-61400000D01*
X81761000Y-61400000D02*
X82201000Y-60960000D01*
X86201000Y-60960000D02*
X86201000Y-64076000D01*
X86201000Y-64076000D02*
X86641000Y-64516000D01*
X86487000Y-73660000D02*
X86487000Y-64670000D01*
X86487000Y-64670000D02*
X86641000Y-64516000D01*
X86641000Y-64516000D02*
X86641000Y-73506000D01*
X86641000Y-73506000D02*
X86487000Y-73660000D01*
X86641000Y-64516000D02*
X86641000Y-61400000D01*
X86641000Y-61400000D02*
X86201000Y-60960000D01*
X97428000Y-49866000D02*
X100565500Y-49866000D01*
X102378000Y-48053500D02*
X102378000Y-47244000D01*
X100565500Y-49866000D02*
X102378000Y-48053500D01*
X97428000Y-49866000D02*
X99306000Y-49866000D01*
X96255500Y-51498500D02*
X96255500Y-51038500D01*
X96255500Y-51038500D02*
X97428000Y-49866000D01*
X96192000Y-48260000D02*
X96192000Y-48630000D01*
X96192000Y-48630000D02*
X97428000Y-49866000D01*
X104828000Y-47244000D02*
X106806000Y-47244000D01*
X106806000Y-47244000D02*
X109428000Y-49866000D01*
X107441000Y-47879000D02*
X109428000Y-49866000D01*
X109410500Y-51376000D02*
X109410500Y-49883500D01*
X109410500Y-49883500D02*
X109428000Y-49866000D01*
D29*
X107441000Y-47879000D02*
X109428000Y-49866000D01*
X107988100Y-58013600D02*
X107998600Y-58003100D01*
X107998600Y-58003100D02*
X107998600Y-57950100D01*
D31*
X109428000Y-37666000D02*
X108394500Y-37666000D01*
X108394500Y-37666000D02*
X107124500Y-38936000D01*
X97378000Y-37616000D02*
X98375000Y-37616000D01*
X98375000Y-37616000D02*
X99631500Y-38872500D01*
X101981000Y-52525000D02*
X102669000Y-52525000D01*
X102669000Y-52525000D02*
X103378000Y-51816000D01*
X104775000Y-52525000D02*
X104087000Y-52525000D01*
X104087000Y-52525000D02*
X103378000Y-51816000D01*
X102669000Y-52525000D02*
X103378000Y-51816000D01*
D29*
X150977600Y-122656600D02*
X148920200Y-120599200D01*
X95948500Y-121285000D02*
X94716600Y-120053100D01*
X100431600Y-121285000D02*
X95948500Y-121285000D01*
X101117400Y-120599200D02*
X100431600Y-121285000D01*
X148920200Y-120599200D02*
X101117400Y-120599200D01*
X111925100Y-120116600D02*
X104749600Y-120116600D01*
X93383100Y-118846600D02*
X92176600Y-120053100D01*
X103479600Y-118846600D02*
X93383100Y-118846600D01*
X104749600Y-120116600D02*
X103479600Y-118846600D01*
X150977600Y-120116600D02*
X111925100Y-120116600D01*
X111925100Y-120116600D02*
X110909100Y-120116600D01*
X154819350Y-130562350D02*
X151237950Y-130562350D01*
X104724200Y-121056400D02*
X104317800Y-121462800D01*
X148183600Y-121056400D02*
X104724200Y-121056400D01*
X149225000Y-122097800D02*
X148183600Y-121056400D01*
X149225000Y-128549400D02*
X149225000Y-122097800D01*
X151237950Y-130562350D02*
X149225000Y-128549400D01*
X153517600Y-126466600D02*
X154406600Y-126466600D01*
X154406600Y-126466600D02*
X155295600Y-127355600D01*
X155295600Y-127355600D02*
X155295600Y-130086100D01*
X155295600Y-130086100D02*
X154819350Y-130562350D01*
X150723600Y-118465600D02*
X150139400Y-118465600D01*
X94653100Y-116306600D02*
X93446600Y-117513100D01*
X101625400Y-116306600D02*
X94653100Y-116306600D01*
X104978200Y-119659400D02*
X101625400Y-116306600D01*
X148945600Y-119659400D02*
X104978200Y-119659400D01*
X150139400Y-118465600D02*
X148945600Y-119659400D01*
X153517600Y-121386600D02*
X153517600Y-119418100D01*
X152565100Y-118465600D02*
X150723600Y-118465600D01*
X153517600Y-119418100D02*
X152565100Y-118465600D01*
X155143200Y-102057200D02*
X154355800Y-102844600D01*
X154355800Y-102844600D02*
X151561800Y-102844600D01*
X151561800Y-102844600D02*
X147218400Y-98501200D01*
X147218400Y-98501200D02*
X118211600Y-98501200D01*
X154178000Y-98526600D02*
X155143200Y-99491800D01*
X155143200Y-99491800D02*
X155143200Y-102057200D01*
X117602000Y-98501200D02*
X116636800Y-99466400D01*
X118211600Y-98501200D02*
X117602000Y-98501200D01*
X153517600Y-98526600D02*
X154178000Y-98526600D01*
X153517600Y-98526600D02*
X154216100Y-98526600D01*
D31*
X101066600Y-80543400D02*
X101346000Y-80264000D01*
X70929500Y-56832500D02*
X70104000Y-56832500D01*
X70104000Y-56832500D02*
X69469000Y-57467500D01*
X69469000Y-57467500D02*
X70167500Y-57467500D01*
X69024500Y-57912000D02*
X70612000Y-57912000D01*
X70612000Y-57912000D02*
X70993000Y-58293000D01*
X70167500Y-57467500D02*
X69469000Y-57467500D01*
X69469000Y-57467500D02*
X69024500Y-57912000D01*
X74930000Y-58293000D02*
X70993000Y-58293000D01*
X70993000Y-58293000D02*
X70167500Y-57467500D01*
X74930000Y-56832500D02*
X70929500Y-56832500D01*
X70929500Y-56832500D02*
X70802500Y-56832500D01*
X70802500Y-56832500D02*
X70167500Y-57467500D01*
X70167500Y-57467500D02*
X74930000Y-57467500D01*
X67627500Y-58737500D02*
X68199000Y-58737500D01*
X68199000Y-58737500D02*
X69024500Y-57912000D01*
X69024500Y-57912000D02*
X69723000Y-57912000D01*
X69723000Y-57912000D02*
X70167500Y-57467500D01*
X73025000Y-41465500D02*
X69342000Y-41465500D01*
X69342000Y-41465500D02*
X68643500Y-42164000D01*
X70167500Y-41211500D02*
X68897500Y-41211500D01*
X70739000Y-40640000D02*
X69469000Y-40640000D01*
X69469000Y-40640000D02*
X68897500Y-41211500D01*
X70167500Y-41211500D02*
X70421500Y-41211500D01*
X70421500Y-41211500D02*
X70675500Y-41465500D01*
X70675500Y-41465500D02*
X73025000Y-41465500D01*
X73025000Y-41465500D02*
X74930000Y-41465500D01*
X70167500Y-41211500D02*
X74930000Y-41211500D01*
X74612500Y-41465500D02*
X74930000Y-41465500D01*
X74676000Y-41465500D02*
X74612500Y-41465500D01*
X74930000Y-41211500D02*
X74676000Y-41465500D01*
X70167500Y-41211500D02*
X70739000Y-40640000D01*
X74612500Y-40640000D02*
X74930000Y-40322500D01*
X70739000Y-40640000D02*
X74612500Y-40640000D01*
X67627500Y-42481500D02*
X68326000Y-42481500D01*
X68326000Y-42481500D02*
X68643500Y-42164000D01*
X68897500Y-41211500D02*
X67627500Y-42481500D01*
X67627500Y-42481500D02*
X67691000Y-42481500D01*
X67691000Y-42481500D02*
X68961000Y-41211500D01*
X68961000Y-41211500D02*
X70167500Y-41211500D01*
X70167500Y-41211500D02*
X69596000Y-41211500D01*
X69596000Y-41211500D02*
X68643500Y-42164000D01*
X68643500Y-42164000D02*
X67945000Y-42164000D01*
X67945000Y-42164000D02*
X67627500Y-42481500D01*
D29*
X108460500Y-55242500D02*
X103886000Y-59817000D01*
D31*
X104838500Y-60629800D02*
X103886000Y-60629800D01*
X103886000Y-60629800D02*
X104013000Y-60756800D01*
X104013000Y-60833000D02*
X103886000Y-60833000D01*
X104013000Y-60756800D02*
X104013000Y-60833000D01*
X104838500Y-60629800D02*
X104698800Y-60629800D01*
X104698800Y-60629800D02*
X103886000Y-59817000D01*
X81407000Y-73660000D02*
X76200000Y-73660000D01*
X101346000Y-66802000D02*
X101346000Y-65024000D01*
X101346000Y-65024000D02*
X103886000Y-62484000D01*
X103886000Y-62484000D02*
X103886000Y-60833000D01*
X101346000Y-80264000D02*
X101346000Y-66802000D01*
X103886000Y-60833000D02*
X103886000Y-59817000D01*
X101346000Y-80264000D02*
X101346000Y-78422500D01*
X104584500Y-75184000D02*
X106426000Y-75184000D01*
X104584500Y-75184000D02*
X101346000Y-78422500D01*
X82042000Y-106680000D02*
X80264000Y-106680000D01*
X76962000Y-106680000D02*
X75184000Y-106680000D01*
X74676000Y-106680000D02*
X76962000Y-106680000D01*
X70104000Y-106680000D02*
X70104000Y-106426000D01*
X81407000Y-73660000D02*
X81407000Y-73533000D01*
X82296000Y-74549000D02*
X81407000Y-73660000D01*
X65214500Y-107950000D02*
X67564000Y-107950000D01*
X67564000Y-91186000D02*
X68199000Y-91186000D01*
X68199000Y-91186000D02*
X69469000Y-89916000D01*
X69469000Y-89916000D02*
X70104000Y-89916000D01*
X65278000Y-91186000D02*
X67564000Y-91186000D01*
X64643000Y-90551000D02*
X65278000Y-91186000D01*
X74930000Y-58293000D02*
X74930000Y-57404000D01*
X74930000Y-57404000D02*
X74930000Y-56832500D01*
X74930000Y-56832500D02*
X74930000Y-56769000D01*
X74930000Y-56769000D02*
X74930000Y-41465500D01*
X74930000Y-41465500D02*
X74930000Y-40322500D01*
X74930000Y-40322500D02*
X74930000Y-37719000D01*
X74930000Y-37719000D02*
X75057000Y-37592000D01*
X75057000Y-37592000D02*
X74930000Y-37592000D01*
X70104000Y-106680000D02*
X69723000Y-106680000D01*
X69723000Y-106680000D02*
X68770500Y-107632500D01*
X68770500Y-107632500D02*
X67881500Y-107632500D01*
X67881500Y-107632500D02*
X67564000Y-107950000D01*
X76962000Y-106680000D02*
X70104000Y-106680000D01*
X82042000Y-106680000D02*
X79756000Y-106680000D01*
X79756000Y-106680000D02*
X76962000Y-106680000D01*
X74930000Y-35052000D02*
X74930000Y-37592000D01*
X74930000Y-37592000D02*
X74930000Y-39052500D01*
X64643000Y-107378500D02*
X65214500Y-107950000D01*
X64643000Y-89916000D02*
X64643000Y-90551000D01*
X64643000Y-107124500D02*
X64643000Y-122859800D01*
X64643000Y-89916000D02*
X64643000Y-107124500D01*
X64643000Y-107124500D02*
X64643000Y-107378500D01*
X64643000Y-84264500D02*
X64643000Y-89916000D01*
X66167000Y-82740500D02*
X64643000Y-84264500D01*
X65544700Y-123761500D02*
X64643000Y-122859800D01*
X64643000Y-122859800D02*
X64643000Y-124015500D01*
X64643000Y-124015500D02*
X65087500Y-124460000D01*
X67627500Y-123761500D02*
X68160900Y-123761500D01*
X68160900Y-123761500D02*
X69430900Y-122491500D01*
X67627500Y-123761500D02*
X65544700Y-123761500D01*
X67564000Y-124460000D02*
X68326000Y-124460000D01*
X68326000Y-124460000D02*
X69596000Y-123190000D01*
X65087500Y-124460000D02*
X67564000Y-124460000D01*
X69430900Y-122491500D02*
X70167500Y-122491500D01*
X74930000Y-73685400D02*
X74930000Y-58293000D01*
X76200000Y-73660000D02*
X74930000Y-74930000D01*
X70866000Y-82740500D02*
X66167000Y-82740500D01*
X74295000Y-74295000D02*
X74930000Y-74930000D01*
X74650600Y-73685400D02*
X74930000Y-73685400D01*
X74879200Y-73685400D02*
X74650600Y-73685400D01*
X74930000Y-73736200D02*
X74879200Y-73685400D01*
X74930000Y-74930000D02*
X74930000Y-78740000D01*
X74930000Y-78740000D02*
X72517000Y-81153000D01*
X74930000Y-74930000D02*
X74930000Y-73685400D01*
X74091800Y-73736200D02*
X74930000Y-73736200D01*
X72453500Y-81153000D02*
X70866000Y-82740500D01*
X72517000Y-81153000D02*
X72453500Y-81153000D01*
X74079100Y-73723500D02*
X74091800Y-73736200D01*
X69596000Y-74295000D02*
X74295000Y-74295000D01*
X68465700Y-74993500D02*
X69164200Y-74295000D01*
X69164200Y-74295000D02*
X69596000Y-74295000D01*
X67627500Y-74993500D02*
X68465700Y-74993500D01*
X70167500Y-73723500D02*
X74079100Y-73723500D01*
X69596000Y-74295000D02*
X70167500Y-73723500D01*
D29*
X108460500Y-54796000D02*
X108460500Y-55242500D01*
X108460500Y-54796000D02*
X108335500Y-54796000D01*
D31*
X109010200Y-111810800D02*
X109010200Y-106216200D01*
X109010200Y-106216200D02*
X108940600Y-106146600D01*
X92710000Y-35052000D02*
X86264500Y-35052000D01*
X86264500Y-35052000D02*
X86264500Y-38422000D01*
X86264500Y-38422000D02*
X86704500Y-38862000D01*
X86704500Y-38862000D02*
X86704500Y-35492000D01*
X86704500Y-35492000D02*
X86264500Y-35052000D01*
X86264500Y-38422000D02*
X86704500Y-38862000D01*
X98171000Y-45529500D02*
X98171000Y-45910500D01*
X98171000Y-45910500D02*
X100076000Y-47815500D01*
X98171000Y-45529500D02*
X98171000Y-43233000D01*
X98171000Y-43233000D02*
X99631500Y-41772500D01*
X107124500Y-41836000D02*
X103568500Y-41836000D01*
X103568500Y-41836000D02*
X99695000Y-41836000D01*
X99695000Y-41836000D02*
X99631500Y-41772500D01*
D29*
X110360500Y-54796000D02*
X110360500Y-57412000D01*
X110360500Y-54796000D02*
X110360500Y-55512000D01*
X110360500Y-57412000D02*
X110898600Y-57950100D01*
D32*
G36*
X74544540Y-33430144D02*
X74055736Y-33632613D01*
X73957073Y-33899468D01*
X74930000Y-34872395D01*
X75902927Y-33899468D01*
X75804264Y-33632613D01*
X75211787Y-33412500D01*
X124053600Y-33412500D01*
X124053600Y-38422198D01*
X121757598Y-40718200D01*
X117275463Y-40718200D01*
X117243327Y-40686008D01*
X117101020Y-40626917D01*
X117905772Y-40294400D01*
X118929206Y-39272751D01*
X119483768Y-37937218D01*
X119485030Y-36491126D01*
X118932800Y-35154628D01*
X117911151Y-34131194D01*
X116575618Y-33576632D01*
X115129526Y-33575370D01*
X113793028Y-34127600D01*
X112769594Y-35149249D01*
X112215032Y-36484782D01*
X112213770Y-37930874D01*
X112766000Y-39267372D01*
X113787649Y-40290806D01*
X115123182Y-40845368D01*
X116022706Y-40846153D01*
X115920808Y-40947873D01*
X115778162Y-41291401D01*
X115778037Y-41434504D01*
X115528199Y-41330762D01*
X115156233Y-41330438D01*
X114812457Y-41472483D01*
X114549208Y-41735273D01*
X114406562Y-42078801D01*
X114406238Y-42450767D01*
X114548283Y-42794543D01*
X114811073Y-43057792D01*
X115154601Y-43200438D01*
X115526567Y-43200762D01*
X115840814Y-43070918D01*
X115778162Y-43221801D01*
X115777838Y-43593767D01*
X115919883Y-43937543D01*
X116182673Y-44200792D01*
X116526201Y-44343438D01*
X116898167Y-44343762D01*
X117117665Y-44253067D01*
X117458299Y-44593701D01*
X117704861Y-44758448D01*
X117995700Y-44816300D01*
X119595900Y-44816300D01*
X119886739Y-44758448D01*
X120133301Y-44593701D01*
X120609202Y-44117800D01*
X122275600Y-44117800D01*
X122566439Y-44059948D01*
X122813001Y-43895201D01*
X124053600Y-42654602D01*
X124053600Y-48582198D01*
X123667900Y-48196498D01*
X123667962Y-48125633D01*
X123525917Y-47781857D01*
X123263127Y-47518608D01*
X122919599Y-47375962D01*
X122547633Y-47375638D01*
X122203857Y-47517683D01*
X121940608Y-47780473D01*
X121797962Y-48124001D01*
X121797638Y-48495967D01*
X121807967Y-48520964D01*
X120063800Y-46776798D01*
X120063800Y-46126400D01*
X120031466Y-45963846D01*
X120005948Y-45835560D01*
X119908693Y-45690008D01*
X119908762Y-45611033D01*
X119766717Y-45267257D01*
X119503927Y-45004008D01*
X119160399Y-44861362D01*
X118788433Y-44861038D01*
X118444657Y-45003083D01*
X118181408Y-45265873D01*
X118038762Y-45609401D01*
X118038438Y-45981367D01*
X118180483Y-46325143D01*
X118443273Y-46588392D01*
X118543800Y-46630135D01*
X118543800Y-47091600D01*
X118601652Y-47382439D01*
X118766399Y-47629001D01*
X123768197Y-52630800D01*
X123631802Y-52630800D01*
X117648122Y-46647120D01*
X117648162Y-46601633D01*
X117506117Y-46257857D01*
X117243327Y-45994608D01*
X116899799Y-45851962D01*
X116527833Y-45851638D01*
X116184057Y-45993683D01*
X115920808Y-46256473D01*
X115778162Y-46600001D01*
X115777838Y-46971967D01*
X115919883Y-47315743D01*
X116182673Y-47578992D01*
X116526201Y-47721638D01*
X116573077Y-47721679D01*
X122779599Y-53928201D01*
X123026160Y-54092948D01*
X123317000Y-54150800D01*
X124053600Y-54150800D01*
X124053600Y-72366600D01*
X118846600Y-72366600D01*
X118555761Y-72424452D01*
X118309199Y-72589199D01*
X116547920Y-74350478D01*
X116502433Y-74350438D01*
X116158657Y-74492483D01*
X115895408Y-74755273D01*
X115752762Y-75098801D01*
X115752438Y-75470767D01*
X115894483Y-75814543D01*
X116000310Y-75920554D01*
X115895408Y-76025273D01*
X115752762Y-76368801D01*
X115752438Y-76740767D01*
X115894483Y-77084543D01*
X116139349Y-77329837D01*
X115985452Y-77560161D01*
X115927600Y-77851000D01*
X115927600Y-77923537D01*
X115895408Y-77955673D01*
X115752762Y-78299201D01*
X115752438Y-78671167D01*
X115885983Y-78994371D01*
X115752762Y-79315201D01*
X115752438Y-79687167D01*
X115894483Y-80030943D01*
X116157273Y-80294192D01*
X116500801Y-80436838D01*
X116872767Y-80437162D01*
X117216543Y-80295117D01*
X117479792Y-80032327D01*
X117622438Y-79688799D01*
X117622479Y-79641923D01*
X118139401Y-79125001D01*
X118304148Y-78878439D01*
X118362000Y-78587600D01*
X118362000Y-78165802D01*
X120939402Y-75588400D01*
X124053600Y-75588400D01*
X124053600Y-82399600D01*
X121320402Y-82399600D01*
X121305722Y-82384920D01*
X121305762Y-82339433D01*
X121163717Y-81995657D01*
X120900927Y-81732408D01*
X120557399Y-81589762D01*
X120185433Y-81589438D01*
X119841657Y-81731483D01*
X119578408Y-81994273D01*
X119435762Y-82337801D01*
X119435438Y-82709767D01*
X119517181Y-82907600D01*
X118272402Y-82907600D01*
X117542501Y-82177699D01*
X117295939Y-82012952D01*
X117025119Y-81959082D01*
X116747399Y-81843762D01*
X116375433Y-81843438D01*
X116031657Y-81985483D01*
X115768408Y-82248273D01*
X115625762Y-82591801D01*
X115625438Y-82963767D01*
X115767483Y-83307543D01*
X116000199Y-83540665D01*
X115895408Y-83645273D01*
X115752762Y-83988801D01*
X115752438Y-84360767D01*
X115885983Y-84683971D01*
X115752762Y-85004801D01*
X115752438Y-85376767D01*
X115894483Y-85720543D01*
X116157273Y-85983792D01*
X116500801Y-86126438D01*
X116872767Y-86126762D01*
X117216543Y-85984717D01*
X117479792Y-85721927D01*
X117595364Y-85443600D01*
X124053600Y-85443600D01*
X124053600Y-96369600D01*
X118221602Y-96369600D01*
X117571922Y-95719920D01*
X117571962Y-95674433D01*
X117429917Y-95330657D01*
X117167127Y-95067408D01*
X116823599Y-94924762D01*
X116451633Y-94924438D01*
X116107857Y-95066483D01*
X115844608Y-95329273D01*
X115701962Y-95672801D01*
X115701638Y-96044767D01*
X115843683Y-96388543D01*
X115898710Y-96443666D01*
X115844608Y-96497673D01*
X115701962Y-96841201D01*
X115701638Y-97213167D01*
X115843683Y-97556943D01*
X115898710Y-97612066D01*
X115844608Y-97666073D01*
X115701962Y-98009601D01*
X115701638Y-98381567D01*
X115843683Y-98725343D01*
X115949510Y-98831354D01*
X115844608Y-98936073D01*
X115701962Y-99279601D01*
X115701638Y-99651567D01*
X115843683Y-99995343D01*
X116106473Y-100258592D01*
X116450001Y-100401238D01*
X116821967Y-100401562D01*
X117165743Y-100259517D01*
X117428992Y-99996727D01*
X117571638Y-99653199D01*
X117571679Y-99606323D01*
X117916802Y-99261200D01*
X124053600Y-99261200D01*
X124053600Y-106732800D01*
X118062863Y-106732800D01*
X118030727Y-106700608D01*
X117687199Y-106557962D01*
X117315233Y-106557638D01*
X116971457Y-106699683D01*
X116865401Y-106805554D01*
X116709927Y-106649808D01*
X116366399Y-106507162D01*
X115994433Y-106506838D01*
X115650657Y-106648883D01*
X115387408Y-106911673D01*
X115244762Y-107255201D01*
X115244438Y-107627167D01*
X115386483Y-107970943D01*
X115649273Y-108234192D01*
X115992801Y-108376838D01*
X116039677Y-108376879D01*
X116108098Y-108445300D01*
X116039920Y-108513478D01*
X115994433Y-108513438D01*
X115650657Y-108655483D01*
X115387408Y-108918273D01*
X115244762Y-109261801D01*
X115244438Y-109633767D01*
X115386483Y-109977543D01*
X115441487Y-110032644D01*
X115412808Y-110061273D01*
X115270162Y-110404801D01*
X115269838Y-110776767D01*
X115411883Y-111120543D01*
X115674673Y-111383792D01*
X116018201Y-111526438D01*
X116390167Y-111526762D01*
X116733943Y-111384717D01*
X116997192Y-111121927D01*
X117139838Y-110778399D01*
X117139879Y-110731523D01*
X117891402Y-109980000D01*
X124053600Y-109980000D01*
X124053600Y-118899400D01*
X105293002Y-118899400D01*
X102162801Y-115769199D01*
X101916239Y-115604452D01*
X101625400Y-115546600D01*
X94653100Y-115546600D01*
X94362261Y-115604452D01*
X94115699Y-115769199D01*
X93746800Y-116138098D01*
X93723302Y-116128341D01*
X93172315Y-116127860D01*
X92663085Y-116338269D01*
X92273139Y-116727536D01*
X92061841Y-117236398D01*
X92061360Y-117787385D01*
X92271769Y-118296615D01*
X92564770Y-118590128D01*
X92476800Y-118678098D01*
X92453302Y-118668341D01*
X91902315Y-118667860D01*
X91393085Y-118878269D01*
X91003139Y-119267536D01*
X90791841Y-119776398D01*
X90791360Y-120327385D01*
X91001769Y-120836615D01*
X91391036Y-121226561D01*
X91899898Y-121437859D01*
X92450885Y-121438340D01*
X92960115Y-121227931D01*
X93350061Y-120838664D01*
X93446576Y-120606230D01*
X93541769Y-120836615D01*
X93931036Y-121226561D01*
X94439898Y-121437859D01*
X94990885Y-121438340D01*
X95016468Y-121427770D01*
X95411099Y-121822401D01*
X95657661Y-121987148D01*
X95948500Y-122045000D01*
X100431600Y-122045000D01*
X100722439Y-121987148D01*
X100969001Y-121822401D01*
X101432202Y-121359200D01*
X103382890Y-121359200D01*
X103382638Y-121647967D01*
X103524683Y-121991743D01*
X103787473Y-122254992D01*
X104131001Y-122397638D01*
X104502967Y-122397962D01*
X104846743Y-122255917D01*
X105109992Y-121993127D01*
X105183376Y-121816400D01*
X124053600Y-121816400D01*
X124053600Y-131814500D01*
X59244593Y-131814500D01*
X59364063Y-131526784D01*
X59364731Y-130761127D01*
X59520441Y-130917109D01*
X60304859Y-131242828D01*
X61154215Y-131243570D01*
X61939200Y-130919220D01*
X62540309Y-130319159D01*
X62866028Y-129534741D01*
X62866770Y-128685385D01*
X62542420Y-127900400D01*
X61942359Y-127299291D01*
X61157941Y-126973572D01*
X60308585Y-126972830D01*
X59523600Y-127297180D01*
X58922491Y-127897241D01*
X58596772Y-128681659D01*
X58596030Y-129531015D01*
X58623495Y-129597486D01*
X58526921Y-129500743D01*
X57815984Y-129205537D01*
X57046193Y-129204865D01*
X56463000Y-129445835D01*
X56463000Y-126588485D01*
X66204160Y-126588485D01*
X66414569Y-127097715D01*
X66803836Y-127487661D01*
X67312698Y-127698959D01*
X67863685Y-127699440D01*
X68372915Y-127489031D01*
X68762861Y-127099764D01*
X68974159Y-126590902D01*
X68974640Y-126039915D01*
X68764231Y-125530685D01*
X68374964Y-125140739D01*
X68158421Y-125050823D01*
X68313323Y-124986660D01*
X68381312Y-124745717D01*
X67589400Y-123953805D01*
X66797488Y-124745717D01*
X66865477Y-124986660D01*
X67032021Y-125045932D01*
X66805885Y-125139369D01*
X66415939Y-125528636D01*
X66204641Y-126037498D01*
X66204160Y-126588485D01*
X56463000Y-126588485D01*
X56463000Y-123569371D01*
X66192199Y-123569371D01*
X66220170Y-124119648D01*
X66376940Y-124498123D01*
X66617883Y-124566112D01*
X67409795Y-123774200D01*
X67769005Y-123774200D01*
X68560917Y-124566112D01*
X68801860Y-124498123D01*
X68986601Y-123979029D01*
X68958630Y-123428752D01*
X68801860Y-123050277D01*
X68560917Y-122982288D01*
X67769005Y-123774200D01*
X67409795Y-123774200D01*
X66617883Y-122982288D01*
X66376940Y-123050277D01*
X66192199Y-123569371D01*
X56463000Y-123569371D01*
X56463000Y-117086103D01*
X57042816Y-117326863D01*
X57812607Y-117327535D01*
X58524058Y-117033570D01*
X58622783Y-116935017D01*
X58596772Y-116997659D01*
X58596030Y-117847015D01*
X58920380Y-118632000D01*
X59520441Y-119233109D01*
X60304859Y-119558828D01*
X61154215Y-119559570D01*
X61939200Y-119235220D01*
X62540309Y-118635159D01*
X62726733Y-118186200D01*
X65356200Y-118186200D01*
X65356200Y-120319800D01*
X65414052Y-120610639D01*
X65578799Y-120857201D01*
X66204183Y-121482585D01*
X66204160Y-121508485D01*
X66414569Y-122017715D01*
X66803836Y-122407661D01*
X67020379Y-122497577D01*
X66865477Y-122561740D01*
X66797488Y-122802683D01*
X67589400Y-123594595D01*
X68381312Y-122802683D01*
X68313323Y-122561740D01*
X68146779Y-122502468D01*
X68372915Y-122409031D01*
X68482766Y-122299371D01*
X68732199Y-122299371D01*
X68760170Y-122849648D01*
X68916940Y-123228123D01*
X69157883Y-123296112D01*
X69949795Y-122504200D01*
X69157883Y-121712288D01*
X68916940Y-121780277D01*
X68732199Y-122299371D01*
X68482766Y-122299371D01*
X68762861Y-122019764D01*
X68974159Y-121510902D01*
X68974640Y-120959915D01*
X68764231Y-120450685D01*
X68374964Y-120060739D01*
X68142530Y-119964224D01*
X68372915Y-119869031D01*
X68762861Y-119479764D01*
X68974159Y-118970902D01*
X68974640Y-118419915D01*
X68932622Y-118318224D01*
X69386843Y-118772445D01*
X69345885Y-118789369D01*
X68955939Y-119178636D01*
X68744641Y-119687498D01*
X68744160Y-120238485D01*
X68954569Y-120747715D01*
X69343836Y-121137661D01*
X69560379Y-121227577D01*
X69405477Y-121291740D01*
X69337488Y-121532683D01*
X70129400Y-122324595D01*
X70143543Y-122310453D01*
X70323148Y-122490058D01*
X70309005Y-122504200D01*
X70323148Y-122518343D01*
X70143543Y-122697948D01*
X70129400Y-122683805D01*
X69337488Y-123475717D01*
X69405477Y-123716660D01*
X69572021Y-123775932D01*
X69345885Y-123869369D01*
X68955939Y-124258636D01*
X68744641Y-124767498D01*
X68744160Y-125318485D01*
X68954569Y-125827715D01*
X69343836Y-126217661D01*
X69576270Y-126314176D01*
X69345885Y-126409369D01*
X68955939Y-126798636D01*
X68744641Y-127307498D01*
X68744160Y-127858485D01*
X68954569Y-128367715D01*
X69343836Y-128757661D01*
X69852698Y-128968959D01*
X70403685Y-128969440D01*
X70912915Y-128759031D01*
X71063333Y-128608874D01*
X76831570Y-128608874D01*
X77383800Y-129945372D01*
X78405449Y-130968806D01*
X79740982Y-131523368D01*
X81187074Y-131524630D01*
X82523572Y-130972400D01*
X83547006Y-129950751D01*
X84101568Y-128615218D01*
X84102686Y-127333915D01*
X88771230Y-127333915D01*
X89095580Y-128118900D01*
X89695641Y-128720009D01*
X90480059Y-129045728D01*
X91329415Y-129046470D01*
X92114400Y-128722120D01*
X92715509Y-128122059D01*
X93041228Y-127337641D01*
X93041231Y-127333915D01*
X100455230Y-127333915D01*
X100779580Y-128118900D01*
X101379641Y-128720009D01*
X102164059Y-129045728D01*
X103013415Y-129046470D01*
X103798400Y-128722120D01*
X103911843Y-128608874D01*
X112213770Y-128608874D01*
X112766000Y-129945372D01*
X113787649Y-130968806D01*
X115123182Y-131523368D01*
X116569274Y-131524630D01*
X117905772Y-130972400D01*
X118929206Y-129950751D01*
X119483768Y-128615218D01*
X119485030Y-127169126D01*
X118932800Y-125832628D01*
X117911151Y-124809194D01*
X116575618Y-124254632D01*
X115129526Y-124253370D01*
X113793028Y-124805600D01*
X112769594Y-125827249D01*
X112215032Y-127162782D01*
X112213770Y-128608874D01*
X103911843Y-128608874D01*
X104399509Y-128122059D01*
X104725228Y-127337641D01*
X104725970Y-126488285D01*
X104401620Y-125703300D01*
X103801559Y-125102191D01*
X103017141Y-124776472D01*
X102167785Y-124775730D01*
X101382800Y-125100080D01*
X100781691Y-125700141D01*
X100455972Y-126484559D01*
X100455230Y-127333915D01*
X93041231Y-127333915D01*
X93041970Y-126488285D01*
X92717620Y-125703300D01*
X92117559Y-125102191D01*
X91333141Y-124776472D01*
X90483785Y-124775730D01*
X89698800Y-125100080D01*
X89097691Y-125700141D01*
X88771972Y-126484559D01*
X88771230Y-127333915D01*
X84102686Y-127333915D01*
X84102830Y-127169126D01*
X83550600Y-125832628D01*
X82528951Y-124809194D01*
X81193418Y-124254632D01*
X79747326Y-124253370D01*
X78410828Y-124805600D01*
X77387394Y-125827249D01*
X76832832Y-127162782D01*
X76831570Y-128608874D01*
X71063333Y-128608874D01*
X71302861Y-128369764D01*
X71514159Y-127860902D01*
X71514640Y-127309915D01*
X71304231Y-126800685D01*
X70914964Y-126410739D01*
X70682530Y-126314224D01*
X70912915Y-126219031D01*
X71302861Y-125829764D01*
X71514159Y-125320902D01*
X71514183Y-125293019D01*
X71930451Y-124876751D01*
X72095198Y-124630189D01*
X72153050Y-124339350D01*
X72153050Y-119790052D01*
X72488903Y-119454200D01*
X83947000Y-119454200D01*
X84237839Y-119396348D01*
X84484401Y-119231601D01*
X86979602Y-116736400D01*
X87376000Y-116736400D01*
X87666839Y-116678548D01*
X87812391Y-116581293D01*
X87891367Y-116581362D01*
X88235143Y-116439317D01*
X88498392Y-116176527D01*
X88641038Y-115832999D01*
X88641362Y-115461033D01*
X88499317Y-115117257D01*
X88236527Y-114854008D01*
X87894398Y-114711943D01*
X87793197Y-114467017D01*
X87530407Y-114203768D01*
X87186879Y-114061122D01*
X86814913Y-114060798D01*
X86471137Y-114202843D01*
X86207888Y-114465633D01*
X86065242Y-114809161D01*
X86065170Y-114891628D01*
X83479798Y-117477000D01*
X70241002Y-117477000D01*
X69447601Y-116683599D01*
X69201039Y-116518852D01*
X68910200Y-116461000D01*
X67081400Y-116461000D01*
X66790561Y-116518852D01*
X66543999Y-116683599D01*
X65578799Y-117648799D01*
X65414052Y-117895361D01*
X65356200Y-118186200D01*
X62726733Y-118186200D01*
X62866028Y-117850741D01*
X62866770Y-117001385D01*
X62542420Y-116216400D01*
X61942359Y-115615291D01*
X61157941Y-115289572D01*
X60308585Y-115288830D01*
X59523600Y-115613180D01*
X59364069Y-115772433D01*
X59364400Y-115392312D01*
X59414863Y-115270784D01*
X59415531Y-114505127D01*
X59571241Y-114661109D01*
X60355659Y-114986828D01*
X61205015Y-114987570D01*
X61990000Y-114663220D01*
X62591109Y-114063159D01*
X62916828Y-113278741D01*
X62917570Y-112429385D01*
X62593220Y-111644400D01*
X61993159Y-111043291D01*
X61208741Y-110717572D01*
X60359385Y-110716830D01*
X59574400Y-111041180D01*
X58973291Y-111641241D01*
X58647572Y-112425659D01*
X58646830Y-113275015D01*
X58674295Y-113341486D01*
X58577721Y-113244743D01*
X57866784Y-112949537D01*
X57096993Y-112948865D01*
X56463000Y-113210825D01*
X56463000Y-110332485D01*
X66254960Y-110332485D01*
X66465369Y-110841715D01*
X66854636Y-111231661D01*
X67363498Y-111442959D01*
X67914485Y-111443440D01*
X68423715Y-111233031D01*
X68813661Y-110843764D01*
X69024959Y-110334902D01*
X69025440Y-109783915D01*
X68815031Y-109274685D01*
X68603201Y-109062485D01*
X68794960Y-109062485D01*
X69005369Y-109571715D01*
X69394636Y-109961661D01*
X69627070Y-110058176D01*
X69396685Y-110153369D01*
X69006739Y-110542636D01*
X68795441Y-111051498D01*
X68794960Y-111602485D01*
X69005369Y-112111715D01*
X69394636Y-112501661D01*
X69903498Y-112712959D01*
X70454485Y-112713440D01*
X70963715Y-112503031D01*
X71353661Y-112113764D01*
X71564959Y-111604902D01*
X71565440Y-111053915D01*
X71355031Y-110544685D01*
X70965764Y-110154739D01*
X70733330Y-110058224D01*
X70963715Y-109963031D01*
X71353661Y-109573764D01*
X71564959Y-109064902D01*
X71565404Y-108555022D01*
X75266584Y-108555022D01*
X75487353Y-108925743D01*
X76459012Y-109319119D01*
X77507247Y-109310713D01*
X78436647Y-108925743D01*
X78657416Y-108555022D01*
X80346584Y-108555022D01*
X80567353Y-108925743D01*
X81539012Y-109319119D01*
X82587247Y-109310713D01*
X83516647Y-108925743D01*
X83737416Y-108555022D01*
X82042000Y-106859605D01*
X80346584Y-108555022D01*
X78657416Y-108555022D01*
X76962000Y-106859605D01*
X75266584Y-108555022D01*
X71565404Y-108555022D01*
X71565440Y-108513915D01*
X71355031Y-108004685D01*
X70965764Y-107614739D01*
X70749221Y-107524823D01*
X70904123Y-107460660D01*
X70972112Y-107219717D01*
X70180200Y-106427805D01*
X69388288Y-107219717D01*
X69456277Y-107460660D01*
X69622821Y-107519932D01*
X69396685Y-107613369D01*
X69006739Y-108002636D01*
X68795441Y-108511498D01*
X68794960Y-109062485D01*
X68603201Y-109062485D01*
X68425764Y-108884739D01*
X68209221Y-108794823D01*
X68364123Y-108730660D01*
X68432112Y-108489717D01*
X67640200Y-107697805D01*
X66848288Y-108489717D01*
X66916277Y-108730660D01*
X67082821Y-108789932D01*
X66856685Y-108883369D01*
X66466739Y-109272636D01*
X66255441Y-109781498D01*
X66254960Y-110332485D01*
X56463000Y-110332485D01*
X56463000Y-107313371D01*
X66242999Y-107313371D01*
X66270970Y-107863648D01*
X66427740Y-108242123D01*
X66668683Y-108310112D01*
X67460595Y-107518200D01*
X67819805Y-107518200D01*
X68611717Y-108310112D01*
X68852660Y-108242123D01*
X69037401Y-107723029D01*
X69009430Y-107172752D01*
X68852660Y-106794277D01*
X68611717Y-106726288D01*
X67819805Y-107518200D01*
X67460595Y-107518200D01*
X66668683Y-106726288D01*
X66427740Y-106794277D01*
X66242999Y-107313371D01*
X56463000Y-107313371D01*
X56463000Y-100809009D01*
X57093616Y-101070863D01*
X57863407Y-101071535D01*
X58574858Y-100777570D01*
X58673583Y-100679017D01*
X58647572Y-100741659D01*
X58646830Y-101591015D01*
X58971180Y-102376000D01*
X59571241Y-102977109D01*
X60355659Y-103302828D01*
X61205015Y-103303570D01*
X61990000Y-102979220D01*
X62591109Y-102379159D01*
X62916828Y-101594741D01*
X62917222Y-101142800D01*
X65407000Y-101142800D01*
X65407000Y-103505000D01*
X65464852Y-103795839D01*
X65629599Y-104042401D01*
X66265198Y-104678000D01*
X66255441Y-104701498D01*
X66254960Y-105252485D01*
X66465369Y-105761715D01*
X66854636Y-106151661D01*
X67071179Y-106241577D01*
X66916277Y-106305740D01*
X66848288Y-106546683D01*
X67640200Y-107338595D01*
X68432112Y-106546683D01*
X68364123Y-106305740D01*
X68197579Y-106246468D01*
X68423715Y-106153031D01*
X68533566Y-106043371D01*
X68782999Y-106043371D01*
X68810970Y-106593648D01*
X68967740Y-106972123D01*
X69208683Y-107040112D01*
X70000595Y-106248200D01*
X70359805Y-106248200D01*
X71151717Y-107040112D01*
X71392660Y-106972123D01*
X71577401Y-106453029D01*
X71563371Y-106177012D01*
X74322881Y-106177012D01*
X74331287Y-107225247D01*
X74716257Y-108154647D01*
X75086978Y-108375416D01*
X76782395Y-106680000D01*
X77141605Y-106680000D01*
X78837022Y-108375416D01*
X79207743Y-108154647D01*
X79498636Y-107436126D01*
X79796257Y-108154647D01*
X80166978Y-108375416D01*
X81862395Y-106680000D01*
X82221605Y-106680000D01*
X83917022Y-108375416D01*
X84287743Y-108154647D01*
X84681119Y-107182988D01*
X84672713Y-106134753D01*
X84287743Y-105205353D01*
X83917022Y-104984584D01*
X82221605Y-106680000D01*
X81862395Y-106680000D01*
X80166978Y-104984584D01*
X79796257Y-105205353D01*
X79505364Y-105923874D01*
X79207743Y-105205353D01*
X78837022Y-104984584D01*
X77141605Y-106680000D01*
X76782395Y-106680000D01*
X75086978Y-104984584D01*
X74716257Y-105205353D01*
X74322881Y-106177012D01*
X71563371Y-106177012D01*
X71549430Y-105902752D01*
X71392660Y-105524277D01*
X71151717Y-105456288D01*
X70359805Y-106248200D01*
X70000595Y-106248200D01*
X69208683Y-105456288D01*
X68967740Y-105524277D01*
X68782999Y-106043371D01*
X68533566Y-106043371D01*
X68813661Y-105763764D01*
X69024959Y-105254902D01*
X69025440Y-104703915D01*
X68815031Y-104194685D01*
X68425764Y-103804739D01*
X68193330Y-103708224D01*
X68423715Y-103613031D01*
X68813661Y-103223764D01*
X69024959Y-102714902D01*
X69025440Y-102163915D01*
X68815031Y-101654685D01*
X68425764Y-101264739D01*
X67916902Y-101053441D01*
X67365915Y-101052960D01*
X67307509Y-101077093D01*
X67548602Y-100836000D01*
X71976432Y-100836000D01*
X71903399Y-100884799D01*
X70462452Y-102325746D01*
X70456902Y-102323441D01*
X69905915Y-102322960D01*
X69396685Y-102533369D01*
X69006739Y-102922636D01*
X68795441Y-103431498D01*
X68794960Y-103982485D01*
X69005369Y-104491715D01*
X69394636Y-104881661D01*
X69611179Y-104971577D01*
X69456277Y-105035740D01*
X69388288Y-105276683D01*
X70180200Y-106068595D01*
X70972112Y-105276683D01*
X70904123Y-105035740D01*
X70737579Y-104976468D01*
X70963715Y-104883031D01*
X71041904Y-104804978D01*
X75266584Y-104804978D01*
X76962000Y-106500395D01*
X78657416Y-104804978D01*
X80346584Y-104804978D01*
X82042000Y-106500395D01*
X83737416Y-104804978D01*
X83516647Y-104434257D01*
X82544988Y-104040881D01*
X81496753Y-104049287D01*
X80567353Y-104434257D01*
X80346584Y-104804978D01*
X78657416Y-104804978D01*
X78436647Y-104434257D01*
X77464988Y-104040881D01*
X76416753Y-104049287D01*
X75487353Y-104434257D01*
X75266584Y-104804978D01*
X71041904Y-104804978D01*
X71353661Y-104493764D01*
X71564959Y-103984902D01*
X71565440Y-103433915D01*
X71547443Y-103390359D01*
X72755602Y-102182200D01*
X73376937Y-102182200D01*
X73409073Y-102214392D01*
X73752601Y-102357038D01*
X74124567Y-102357362D01*
X74468343Y-102215317D01*
X74731592Y-101952527D01*
X74874238Y-101608999D01*
X74874562Y-101237033D01*
X74732517Y-100893257D01*
X74675360Y-100836000D01*
X78543653Y-100836000D01*
X78658083Y-101112943D01*
X78920873Y-101376192D01*
X79264401Y-101518838D01*
X79636367Y-101519162D01*
X79980143Y-101377117D01*
X80243392Y-101114327D01*
X80386038Y-100770799D01*
X80386362Y-100398833D01*
X80244317Y-100055057D01*
X79981527Y-99791808D01*
X79637999Y-99649162D01*
X79591123Y-99649121D01*
X79480601Y-99538599D01*
X79234039Y-99373852D01*
X78943200Y-99316000D01*
X67233800Y-99316000D01*
X66942961Y-99373852D01*
X66696399Y-99538599D01*
X65629599Y-100605399D01*
X65464852Y-100851961D01*
X65407000Y-101142800D01*
X62917222Y-101142800D01*
X62917570Y-100745385D01*
X62593220Y-99960400D01*
X61993159Y-99359291D01*
X61208741Y-99033572D01*
X60359385Y-99032830D01*
X59574400Y-99357180D01*
X59414869Y-99516433D01*
X59415535Y-98752993D01*
X59415092Y-98751922D01*
X59415531Y-98249127D01*
X59571241Y-98405109D01*
X60355659Y-98730828D01*
X61205015Y-98731570D01*
X61990000Y-98407220D01*
X62591109Y-97807159D01*
X62916828Y-97022741D01*
X62917570Y-96173385D01*
X62593220Y-95388400D01*
X61993159Y-94787291D01*
X61208741Y-94461572D01*
X60359385Y-94460830D01*
X59574400Y-94785180D01*
X58973291Y-95385241D01*
X58647572Y-96169659D01*
X58646830Y-97019015D01*
X58674295Y-97085486D01*
X58577721Y-96988743D01*
X57866784Y-96693537D01*
X57096993Y-96692865D01*
X56463000Y-96954825D01*
X56463000Y-94076485D01*
X66254960Y-94076485D01*
X66465369Y-94585715D01*
X66854636Y-94975661D01*
X67363498Y-95186959D01*
X67914485Y-95187440D01*
X68423715Y-94977031D01*
X68813661Y-94587764D01*
X69024959Y-94078902D01*
X69025440Y-93527915D01*
X68815031Y-93018685D01*
X68603201Y-92806485D01*
X68794960Y-92806485D01*
X69005369Y-93315715D01*
X69394636Y-93705661D01*
X69627070Y-93802176D01*
X69396685Y-93897369D01*
X69006739Y-94286636D01*
X68795441Y-94795498D01*
X68794960Y-95346485D01*
X69005369Y-95855715D01*
X69394636Y-96245661D01*
X69903498Y-96456959D01*
X70454485Y-96457440D01*
X70963715Y-96247031D01*
X71199155Y-96012000D01*
X73490703Y-96012000D01*
X73616378Y-96643810D01*
X73974270Y-97179433D01*
X74509893Y-97537325D01*
X75141703Y-97663000D01*
X76242297Y-97663000D01*
X76874107Y-97537325D01*
X77409730Y-97179433D01*
X77767622Y-96643810D01*
X77893297Y-96012000D01*
X77767622Y-95380190D01*
X77409730Y-94844567D01*
X76874107Y-94486675D01*
X76242297Y-94361000D01*
X75141703Y-94361000D01*
X74509893Y-94486675D01*
X73974270Y-94844567D01*
X73616378Y-95380190D01*
X73490703Y-96012000D01*
X71199155Y-96012000D01*
X71353661Y-95857764D01*
X71564959Y-95348902D01*
X71565440Y-94797915D01*
X71355031Y-94288685D01*
X70965764Y-93898739D01*
X70733330Y-93802224D01*
X70963715Y-93707031D01*
X71353661Y-93317764D01*
X71564959Y-92808902D01*
X71565440Y-92257915D01*
X71355031Y-91748685D01*
X70965764Y-91358739D01*
X70749221Y-91268823D01*
X70904123Y-91204660D01*
X70972112Y-90963717D01*
X70180200Y-90171805D01*
X69388288Y-90963717D01*
X69456277Y-91204660D01*
X69622821Y-91263932D01*
X69396685Y-91357369D01*
X69006739Y-91746636D01*
X68795441Y-92255498D01*
X68794960Y-92806485D01*
X68603201Y-92806485D01*
X68425764Y-92628739D01*
X68209221Y-92538823D01*
X68364123Y-92474660D01*
X68432112Y-92233717D01*
X67640200Y-91441805D01*
X66848288Y-92233717D01*
X66916277Y-92474660D01*
X67082821Y-92533932D01*
X66856685Y-92627369D01*
X66466739Y-93016636D01*
X66255441Y-93525498D01*
X66254960Y-94076485D01*
X56463000Y-94076485D01*
X56463000Y-91057371D01*
X66242999Y-91057371D01*
X66270970Y-91607648D01*
X66427740Y-91986123D01*
X66668683Y-92054112D01*
X67460595Y-91262200D01*
X67819805Y-91262200D01*
X68611717Y-92054112D01*
X68852660Y-91986123D01*
X69037401Y-91467029D01*
X69009430Y-90916752D01*
X68852660Y-90538277D01*
X68611717Y-90470288D01*
X67819805Y-91262200D01*
X67460595Y-91262200D01*
X66668683Y-90470288D01*
X66427740Y-90538277D01*
X66242999Y-91057371D01*
X56463000Y-91057371D01*
X56463000Y-84553009D01*
X57093616Y-84814863D01*
X57863407Y-84815535D01*
X58574858Y-84521570D01*
X58673583Y-84423017D01*
X58647572Y-84485659D01*
X58646830Y-85335015D01*
X58971180Y-86120000D01*
X59571241Y-86721109D01*
X60355659Y-87046828D01*
X61205015Y-87047570D01*
X61990000Y-86723220D01*
X62257200Y-86456485D01*
X66254960Y-86456485D01*
X66465369Y-86965715D01*
X66854636Y-87355661D01*
X67087070Y-87452176D01*
X66856685Y-87547369D01*
X66466739Y-87936636D01*
X66255441Y-88445498D01*
X66254960Y-88996485D01*
X66465369Y-89505715D01*
X66854636Y-89895661D01*
X67071179Y-89985577D01*
X66916277Y-90049740D01*
X66848288Y-90290683D01*
X67640200Y-91082595D01*
X68432112Y-90290683D01*
X68364123Y-90049740D01*
X68197579Y-89990468D01*
X68423715Y-89897031D01*
X68533566Y-89787371D01*
X68782999Y-89787371D01*
X68810970Y-90337648D01*
X68967740Y-90716123D01*
X69208683Y-90784112D01*
X70000595Y-89992200D01*
X69208683Y-89200288D01*
X68967740Y-89268277D01*
X68782999Y-89787371D01*
X68533566Y-89787371D01*
X68813661Y-89507764D01*
X69024959Y-88998902D01*
X69025440Y-88447915D01*
X68815031Y-87938685D01*
X68425764Y-87548739D01*
X68193330Y-87452224D01*
X68423715Y-87357031D01*
X68813661Y-86967764D01*
X68829550Y-86929500D01*
X68897588Y-86929500D01*
X68795441Y-87175498D01*
X68794960Y-87726485D01*
X69005369Y-88235715D01*
X69394636Y-88625661D01*
X69611179Y-88715577D01*
X69456277Y-88779740D01*
X69388288Y-89020683D01*
X70180200Y-89812595D01*
X70194343Y-89798453D01*
X70373948Y-89978058D01*
X70359805Y-89992200D01*
X71151717Y-90784112D01*
X71392660Y-90716123D01*
X71577401Y-90197029D01*
X71562790Y-89909592D01*
X71757000Y-90103802D01*
X71757000Y-90919765D01*
X71734562Y-90973801D01*
X71734238Y-91345767D01*
X71876283Y-91689543D01*
X72139073Y-91952792D01*
X72482601Y-92095438D01*
X72854567Y-92095762D01*
X73198343Y-91953717D01*
X73461592Y-91690927D01*
X73604238Y-91347399D01*
X73604337Y-91233865D01*
X73706343Y-91191717D01*
X73969592Y-90928927D01*
X74112238Y-90585399D01*
X74112562Y-90213433D01*
X73970517Y-89869657D01*
X73937400Y-89836482D01*
X73937400Y-89535000D01*
X73892721Y-89310387D01*
X73974270Y-89432433D01*
X74509893Y-89790325D01*
X75141703Y-89916000D01*
X76242297Y-89916000D01*
X76874107Y-89790325D01*
X77409730Y-89432433D01*
X77767622Y-88896810D01*
X77893297Y-88265000D01*
X77767622Y-87633190D01*
X77409730Y-87097567D01*
X76874107Y-86739675D01*
X76242297Y-86614000D01*
X75141703Y-86614000D01*
X74509893Y-86739675D01*
X73974270Y-87097567D01*
X73616378Y-87633190D01*
X73490703Y-88265000D01*
X73616378Y-88896810D01*
X73621142Y-88903940D01*
X72413400Y-87696198D01*
X72413400Y-86791800D01*
X72355548Y-86500961D01*
X72190801Y-86254399D01*
X71568501Y-85632099D01*
X71321939Y-85467352D01*
X71031100Y-85409500D01*
X68819500Y-85409500D01*
X68815031Y-85398685D01*
X68425764Y-85008739D01*
X67916902Y-84797441D01*
X67365915Y-84796960D01*
X66856685Y-85007369D01*
X66466739Y-85396636D01*
X66255441Y-85905498D01*
X66254960Y-86456485D01*
X62257200Y-86456485D01*
X62591109Y-86123159D01*
X62916828Y-85338741D01*
X62917570Y-84489385D01*
X62593220Y-83704400D01*
X61993159Y-83103291D01*
X61208741Y-82777572D01*
X60359385Y-82776830D01*
X59574400Y-83101180D01*
X59414869Y-83260433D01*
X59415535Y-82496993D01*
X59415092Y-82495922D01*
X59415531Y-81993127D01*
X59571241Y-82149109D01*
X60355659Y-82474828D01*
X61205015Y-82475570D01*
X61990000Y-82151220D01*
X62205221Y-81936374D01*
X77961870Y-81936374D01*
X78514100Y-83272872D01*
X79535749Y-84296306D01*
X80871282Y-84850868D01*
X82317374Y-84852130D01*
X83653872Y-84299900D01*
X84677306Y-83278251D01*
X85231868Y-81942718D01*
X85233130Y-80496626D01*
X84680900Y-79160128D01*
X83659251Y-78136694D01*
X82323718Y-77582132D01*
X80877626Y-77580870D01*
X79541128Y-78133100D01*
X78517694Y-79154749D01*
X77963132Y-80490282D01*
X77961870Y-81936374D01*
X62205221Y-81936374D01*
X62591109Y-81551159D01*
X62916828Y-80766741D01*
X62917570Y-79917385D01*
X62593220Y-79132400D01*
X61993159Y-78531291D01*
X61208741Y-78205572D01*
X60359385Y-78204830D01*
X59574400Y-78529180D01*
X58973291Y-79129241D01*
X58647572Y-79913659D01*
X58646830Y-80763015D01*
X58674295Y-80829486D01*
X58577721Y-80732743D01*
X57866784Y-80437537D01*
X57096993Y-80436865D01*
X56463000Y-80698825D01*
X56463000Y-77820485D01*
X66254960Y-77820485D01*
X66465369Y-78329715D01*
X66854636Y-78719661D01*
X67363498Y-78930959D01*
X67914485Y-78931440D01*
X68423715Y-78721031D01*
X68813661Y-78331764D01*
X69024959Y-77822902D01*
X69025440Y-77271915D01*
X68815031Y-76762685D01*
X68603201Y-76550485D01*
X68794960Y-76550485D01*
X69005369Y-77059715D01*
X69394636Y-77449661D01*
X69627070Y-77546176D01*
X69396685Y-77641369D01*
X69006739Y-78030636D01*
X68795441Y-78539498D01*
X68794960Y-79090485D01*
X69005369Y-79599715D01*
X69394636Y-79989661D01*
X69903498Y-80200959D01*
X70454485Y-80201440D01*
X70963715Y-79991031D01*
X71353661Y-79601764D01*
X71564959Y-79092902D01*
X71565440Y-78541915D01*
X71355031Y-78032685D01*
X70965764Y-77642739D01*
X70733330Y-77546224D01*
X70963715Y-77451031D01*
X71353661Y-77061764D01*
X71564959Y-76552902D01*
X71565369Y-76082532D01*
X73957073Y-76082532D01*
X74055736Y-76349387D01*
X74665461Y-76575908D01*
X75315460Y-76551856D01*
X75804264Y-76349387D01*
X75902927Y-76082532D01*
X74930000Y-75109605D01*
X73957073Y-76082532D01*
X71565369Y-76082532D01*
X71565440Y-76001915D01*
X71355031Y-75492685D01*
X70965764Y-75102739D01*
X70749221Y-75012823D01*
X70904123Y-74948660D01*
X70972112Y-74707717D01*
X70929856Y-74665461D01*
X73284092Y-74665461D01*
X73308144Y-75315460D01*
X73510613Y-75804264D01*
X73777468Y-75902927D01*
X74750395Y-74930000D01*
X75109605Y-74930000D01*
X76082532Y-75902927D01*
X76349387Y-75804264D01*
X76449414Y-75535022D01*
X79711584Y-75535022D01*
X79932353Y-75905743D01*
X80904012Y-76299119D01*
X81952247Y-76290713D01*
X82881647Y-75905743D01*
X83102416Y-75535022D01*
X81407000Y-73839605D01*
X79711584Y-75535022D01*
X76449414Y-75535022D01*
X76575908Y-75194539D01*
X76551856Y-74544540D01*
X76349387Y-74055736D01*
X76082532Y-73957073D01*
X75109605Y-74930000D01*
X74750395Y-74930000D01*
X73777468Y-73957073D01*
X73510613Y-74055736D01*
X73284092Y-74665461D01*
X70929856Y-74665461D01*
X70180200Y-73915805D01*
X69388288Y-74707717D01*
X69456277Y-74948660D01*
X69622821Y-75007932D01*
X69396685Y-75101369D01*
X69006739Y-75490636D01*
X68795441Y-75999498D01*
X68794960Y-76550485D01*
X68603201Y-76550485D01*
X68425764Y-76372739D01*
X68209221Y-76282823D01*
X68364123Y-76218660D01*
X68432112Y-75977717D01*
X67640200Y-75185805D01*
X66848288Y-75977717D01*
X66916277Y-76218660D01*
X67082821Y-76277932D01*
X66856685Y-76371369D01*
X66466739Y-76760636D01*
X66255441Y-77269498D01*
X66254960Y-77820485D01*
X56463000Y-77820485D01*
X56463000Y-74801371D01*
X66242999Y-74801371D01*
X66270970Y-75351648D01*
X66427740Y-75730123D01*
X66668683Y-75798112D01*
X67460595Y-75006200D01*
X67819805Y-75006200D01*
X68611717Y-75798112D01*
X68852660Y-75730123D01*
X69037401Y-75211029D01*
X69009430Y-74660752D01*
X68852660Y-74282277D01*
X68611717Y-74214288D01*
X67819805Y-75006200D01*
X67460595Y-75006200D01*
X66668683Y-74214288D01*
X66427740Y-74282277D01*
X66242999Y-74801371D01*
X56463000Y-74801371D01*
X56463000Y-68297009D01*
X57093616Y-68558863D01*
X57863407Y-68559535D01*
X58574858Y-68265570D01*
X58673583Y-68167017D01*
X58647572Y-68229659D01*
X58646830Y-69079015D01*
X58971180Y-69864000D01*
X59571241Y-70465109D01*
X60355659Y-70790828D01*
X61205015Y-70791570D01*
X61990000Y-70467220D01*
X62257200Y-70200485D01*
X66254960Y-70200485D01*
X66465369Y-70709715D01*
X66854636Y-71099661D01*
X67087070Y-71196176D01*
X66856685Y-71291369D01*
X66466739Y-71680636D01*
X66255441Y-72189498D01*
X66254960Y-72740485D01*
X66465369Y-73249715D01*
X66854636Y-73639661D01*
X67071179Y-73729577D01*
X66916277Y-73793740D01*
X66848288Y-74034683D01*
X67640200Y-74826595D01*
X68432112Y-74034683D01*
X68364123Y-73793740D01*
X68197579Y-73734468D01*
X68423715Y-73641031D01*
X68533566Y-73531371D01*
X68782999Y-73531371D01*
X68810970Y-74081648D01*
X68967740Y-74460123D01*
X69208683Y-74528112D01*
X70000595Y-73736200D01*
X70359805Y-73736200D01*
X71151717Y-74528112D01*
X71392660Y-74460123D01*
X71577401Y-73941029D01*
X71569088Y-73777468D01*
X73957073Y-73777468D01*
X74930000Y-74750395D01*
X75902927Y-73777468D01*
X75804264Y-73510613D01*
X75194539Y-73284092D01*
X74544540Y-73308144D01*
X74055736Y-73510613D01*
X73957073Y-73777468D01*
X71569088Y-73777468D01*
X71549430Y-73390752D01*
X71452612Y-73157012D01*
X78767881Y-73157012D01*
X78776287Y-74205247D01*
X79161257Y-75134647D01*
X79531978Y-75355416D01*
X81227395Y-73660000D01*
X79531978Y-71964584D01*
X79161257Y-72185353D01*
X78767881Y-73157012D01*
X71452612Y-73157012D01*
X71392660Y-73012277D01*
X71151717Y-72944288D01*
X70359805Y-73736200D01*
X70000595Y-73736200D01*
X69208683Y-72944288D01*
X68967740Y-73012277D01*
X68782999Y-73531371D01*
X68533566Y-73531371D01*
X68813661Y-73251764D01*
X69024959Y-72742902D01*
X69025440Y-72191915D01*
X68815031Y-71682685D01*
X68603201Y-71470485D01*
X68794960Y-71470485D01*
X69005369Y-71979715D01*
X69394636Y-72369661D01*
X69611179Y-72459577D01*
X69456277Y-72523740D01*
X69388288Y-72764683D01*
X70180200Y-73556595D01*
X70972112Y-72764683D01*
X70904123Y-72523740D01*
X70737579Y-72464468D01*
X70963715Y-72371031D01*
X71353661Y-71981764D01*
X71435373Y-71784978D01*
X79711584Y-71784978D01*
X81407000Y-73480395D01*
X83102416Y-71784978D01*
X82881647Y-71414257D01*
X81909988Y-71020881D01*
X80861753Y-71029287D01*
X79932353Y-71414257D01*
X79711584Y-71784978D01*
X71435373Y-71784978D01*
X71564959Y-71472902D01*
X71565440Y-70921915D01*
X71355031Y-70412685D01*
X70965764Y-70022739D01*
X70456902Y-69811441D01*
X69905915Y-69810960D01*
X69396685Y-70021369D01*
X69006739Y-70410636D01*
X68795441Y-70919498D01*
X68794960Y-71470485D01*
X68603201Y-71470485D01*
X68425764Y-71292739D01*
X68193330Y-71196224D01*
X68423715Y-71101031D01*
X68813661Y-70711764D01*
X69024959Y-70202902D01*
X69025440Y-69651915D01*
X68815031Y-69142685D01*
X68425764Y-68752739D01*
X67916902Y-68541441D01*
X67365915Y-68540960D01*
X66856685Y-68751369D01*
X66466739Y-69140636D01*
X66255441Y-69649498D01*
X66254960Y-70200485D01*
X62257200Y-70200485D01*
X62591109Y-69867159D01*
X62916828Y-69082741D01*
X62917570Y-68233385D01*
X62593220Y-67448400D01*
X61993159Y-66847291D01*
X61208741Y-66521572D01*
X60359385Y-66520830D01*
X59574400Y-66845180D01*
X59414869Y-67004433D01*
X59415535Y-66240993D01*
X59415092Y-66239922D01*
X59415531Y-65737127D01*
X59571241Y-65893109D01*
X60355659Y-66218828D01*
X61205015Y-66219570D01*
X61990000Y-65895220D01*
X62591109Y-65295159D01*
X62916828Y-64510741D01*
X62917570Y-63661385D01*
X62593220Y-62876400D01*
X61993159Y-62275291D01*
X61208741Y-61949572D01*
X60359385Y-61948830D01*
X59574400Y-62273180D01*
X58973291Y-62873241D01*
X58647572Y-63657659D01*
X58646830Y-64507015D01*
X58674295Y-64573486D01*
X58577721Y-64476743D01*
X57866784Y-64181537D01*
X57096993Y-64180865D01*
X56463000Y-64442825D01*
X56463000Y-61564485D01*
X66254960Y-61564485D01*
X66465369Y-62073715D01*
X66854636Y-62463661D01*
X67363498Y-62674959D01*
X67914485Y-62675440D01*
X68423715Y-62465031D01*
X68813661Y-62075764D01*
X69024959Y-61566902D01*
X69025440Y-61015915D01*
X68815031Y-60506685D01*
X68603201Y-60294485D01*
X68794960Y-60294485D01*
X69005369Y-60803715D01*
X69394636Y-61193661D01*
X69627070Y-61290176D01*
X69396685Y-61385369D01*
X69006739Y-61774636D01*
X68795441Y-62283498D01*
X68794960Y-62834485D01*
X69005369Y-63343715D01*
X69394636Y-63733661D01*
X69903498Y-63944959D01*
X70454485Y-63945440D01*
X70963715Y-63735031D01*
X71353661Y-63345764D01*
X71564959Y-62836902D01*
X71565020Y-62766000D01*
X80313560Y-62766000D01*
X80313560Y-66266000D01*
X80357838Y-66501317D01*
X80496910Y-66717441D01*
X80709110Y-66862431D01*
X80961000Y-66913440D01*
X82561000Y-66913440D01*
X82796317Y-66869162D01*
X83012441Y-66730090D01*
X83157431Y-66517890D01*
X83208440Y-66266000D01*
X83208440Y-64571951D01*
X83249603Y-64510346D01*
X83336000Y-64076000D01*
X83336000Y-62432038D01*
X83436317Y-62413162D01*
X83652441Y-62274090D01*
X83797431Y-62061890D01*
X83848440Y-61810000D01*
X83848440Y-60110000D01*
X83804162Y-59874683D01*
X83665090Y-59658559D01*
X83452890Y-59513569D01*
X83336000Y-59489898D01*
X83336000Y-58666000D01*
X86651868Y-58666000D01*
X87599851Y-59613983D01*
X87452890Y-59513569D01*
X87201000Y-59462560D01*
X85201000Y-59462560D01*
X84965683Y-59506838D01*
X84749559Y-59645910D01*
X84604569Y-59858110D01*
X84553560Y-60110000D01*
X84553560Y-61810000D01*
X84597838Y-62045317D01*
X84736910Y-62261441D01*
X84949110Y-62406431D01*
X85066000Y-62430102D01*
X85066000Y-64076000D01*
X85152397Y-64510346D01*
X85193560Y-64571951D01*
X85193560Y-66266000D01*
X85237838Y-66501317D01*
X85352000Y-66678730D01*
X85352000Y-71277898D01*
X84996342Y-71424853D01*
X84254458Y-72165443D01*
X83949101Y-72900825D01*
X83652743Y-72185353D01*
X83282022Y-71964584D01*
X81586605Y-73660000D01*
X83282022Y-75355416D01*
X83652743Y-75134647D01*
X83945969Y-74410363D01*
X84251853Y-75150658D01*
X84992443Y-75892542D01*
X85960567Y-76294542D01*
X87008834Y-76295457D01*
X87977658Y-75895147D01*
X88719542Y-75154557D01*
X89121542Y-74186433D01*
X89122457Y-73138166D01*
X88722147Y-72169342D01*
X87981557Y-71427458D01*
X87776000Y-71342103D01*
X87776000Y-66805018D01*
X87892441Y-66730090D01*
X88037431Y-66517890D01*
X88088440Y-66266000D01*
X88088440Y-62766000D01*
X88044162Y-62530683D01*
X87905090Y-62314559D01*
X87776000Y-62226356D01*
X87776000Y-62093255D01*
X87797431Y-62061890D01*
X87848440Y-61810000D01*
X87848440Y-60110000D01*
X87804162Y-59874683D01*
X87702385Y-59716517D01*
X91575000Y-63589132D01*
X91575000Y-73752796D01*
X91324722Y-74002637D01*
X91075284Y-74603352D01*
X91074716Y-75253795D01*
X91323106Y-75854943D01*
X91575000Y-76107278D01*
X91575000Y-76491867D01*
X88249834Y-79817034D01*
X88224434Y-79842434D01*
X87978397Y-80210655D01*
X87892000Y-80645000D01*
X87917400Y-80772694D01*
X87917400Y-90170000D01*
X88003797Y-90604346D01*
X88022906Y-90632944D01*
X88022760Y-90799885D01*
X88233169Y-91309115D01*
X88622436Y-91699061D01*
X89131298Y-91910359D01*
X89682285Y-91910840D01*
X90191515Y-91700431D01*
X90581461Y-91311164D01*
X90792759Y-90802302D01*
X90793240Y-90251315D01*
X90582831Y-89742085D01*
X90193564Y-89352139D01*
X90187400Y-89349579D01*
X90187400Y-81089732D01*
X93512567Y-77764566D01*
X93758604Y-77396345D01*
X93845000Y-76962000D01*
X93845000Y-76107204D01*
X94095278Y-75857363D01*
X94344716Y-75256648D01*
X94345284Y-74606205D01*
X94096894Y-74005057D01*
X93845000Y-73752722D01*
X93845000Y-63119000D01*
X93758603Y-62684654D01*
X93512566Y-62316434D01*
X87924566Y-56728434D01*
X87842847Y-56673831D01*
X87556346Y-56482397D01*
X87122000Y-56396000D01*
X84500831Y-56396000D01*
X84612461Y-56284564D01*
X84823759Y-55775702D01*
X84824240Y-55224715D01*
X84613831Y-54715485D01*
X84224564Y-54325539D01*
X83715702Y-54114241D01*
X83164715Y-54113760D01*
X82655485Y-54324169D01*
X82265539Y-54713436D01*
X82054241Y-55222298D01*
X82054192Y-55278676D01*
X81398434Y-55934434D01*
X81152397Y-56302654D01*
X81066000Y-56737000D01*
X81066000Y-59487962D01*
X80965683Y-59506838D01*
X80749559Y-59645910D01*
X80604569Y-59858110D01*
X80553560Y-60110000D01*
X80553560Y-61810000D01*
X80597838Y-62045317D01*
X80626000Y-62089082D01*
X80626000Y-62226982D01*
X80509559Y-62301910D01*
X80364569Y-62514110D01*
X80313560Y-62766000D01*
X71565020Y-62766000D01*
X71565440Y-62285915D01*
X71355031Y-61776685D01*
X70965764Y-61386739D01*
X70733330Y-61290224D01*
X70963715Y-61195031D01*
X71353661Y-60805764D01*
X71564959Y-60296902D01*
X71565440Y-59745915D01*
X71355031Y-59236685D01*
X70965764Y-58846739D01*
X70749221Y-58756823D01*
X70904123Y-58692660D01*
X70972112Y-58451717D01*
X70180200Y-57659805D01*
X69388288Y-58451717D01*
X69456277Y-58692660D01*
X69622821Y-58751932D01*
X69396685Y-58845369D01*
X69006739Y-59234636D01*
X68795441Y-59743498D01*
X68794960Y-60294485D01*
X68603201Y-60294485D01*
X68425764Y-60116739D01*
X68209221Y-60026823D01*
X68364123Y-59962660D01*
X68432112Y-59721717D01*
X67640200Y-58929805D01*
X66848288Y-59721717D01*
X66916277Y-59962660D01*
X67082821Y-60021932D01*
X66856685Y-60115369D01*
X66466739Y-60504636D01*
X66255441Y-61013498D01*
X66254960Y-61564485D01*
X56463000Y-61564485D01*
X56463000Y-58545371D01*
X66242999Y-58545371D01*
X66270970Y-59095648D01*
X66427740Y-59474123D01*
X66668683Y-59542112D01*
X67460595Y-58750200D01*
X67819805Y-58750200D01*
X68611717Y-59542112D01*
X68852660Y-59474123D01*
X69037401Y-58955029D01*
X69009430Y-58404752D01*
X68852660Y-58026277D01*
X68611717Y-57958288D01*
X67819805Y-58750200D01*
X67460595Y-58750200D01*
X66668683Y-57958288D01*
X66427740Y-58026277D01*
X66242999Y-58545371D01*
X56463000Y-58545371D01*
X56463000Y-52041009D01*
X57093616Y-52302863D01*
X57863407Y-52303535D01*
X58574858Y-52009570D01*
X58673583Y-51911017D01*
X58647572Y-51973659D01*
X58646830Y-52823015D01*
X58971180Y-53608000D01*
X59571241Y-54209109D01*
X60355659Y-54534828D01*
X61205015Y-54535570D01*
X61990000Y-54211220D01*
X62257200Y-53944485D01*
X66254960Y-53944485D01*
X66465369Y-54453715D01*
X66854636Y-54843661D01*
X67087070Y-54940176D01*
X66856685Y-55035369D01*
X66466739Y-55424636D01*
X66255441Y-55933498D01*
X66254960Y-56484485D01*
X66465369Y-56993715D01*
X66854636Y-57383661D01*
X67071179Y-57473577D01*
X66916277Y-57537740D01*
X66848288Y-57778683D01*
X67640200Y-58570595D01*
X68432112Y-57778683D01*
X68364123Y-57537740D01*
X68197579Y-57478468D01*
X68423715Y-57385031D01*
X68533566Y-57275371D01*
X68782999Y-57275371D01*
X68810970Y-57825648D01*
X68967740Y-58204123D01*
X69208683Y-58272112D01*
X70000595Y-57480200D01*
X70359805Y-57480200D01*
X71151717Y-58272112D01*
X71392660Y-58204123D01*
X71577401Y-57685029D01*
X71549430Y-57134752D01*
X71392660Y-56756277D01*
X71151717Y-56688288D01*
X70359805Y-57480200D01*
X70000595Y-57480200D01*
X69208683Y-56688288D01*
X68967740Y-56756277D01*
X68782999Y-57275371D01*
X68533566Y-57275371D01*
X68813661Y-56995764D01*
X69024959Y-56486902D01*
X69025440Y-55935915D01*
X68815031Y-55426685D01*
X68603201Y-55214485D01*
X68794960Y-55214485D01*
X69005369Y-55723715D01*
X69394636Y-56113661D01*
X69611179Y-56203577D01*
X69456277Y-56267740D01*
X69388288Y-56508683D01*
X70180200Y-57300595D01*
X70972112Y-56508683D01*
X70904123Y-56267740D01*
X70737579Y-56208468D01*
X70963715Y-56115031D01*
X71353661Y-55725764D01*
X71564959Y-55216902D01*
X71565440Y-54665915D01*
X71355031Y-54156685D01*
X70965764Y-53766739D01*
X70456902Y-53555441D01*
X69905915Y-53554960D01*
X69396685Y-53765369D01*
X69006739Y-54154636D01*
X68795441Y-54663498D01*
X68794960Y-55214485D01*
X68603201Y-55214485D01*
X68425764Y-55036739D01*
X68193330Y-54940224D01*
X68423715Y-54845031D01*
X68813661Y-54455764D01*
X69024959Y-53946902D01*
X69025440Y-53395915D01*
X68815031Y-52886685D01*
X68425764Y-52496739D01*
X67916902Y-52285441D01*
X67365915Y-52284960D01*
X66856685Y-52495369D01*
X66466739Y-52884636D01*
X66255441Y-53393498D01*
X66254960Y-53944485D01*
X62257200Y-53944485D01*
X62591109Y-53611159D01*
X62916828Y-52826741D01*
X62917570Y-51977385D01*
X62593220Y-51192400D01*
X61993159Y-50591291D01*
X61208741Y-50265572D01*
X60359385Y-50264830D01*
X59574400Y-50589180D01*
X59414869Y-50748433D01*
X59415535Y-49984993D01*
X59415092Y-49983922D01*
X59415531Y-49481127D01*
X59571241Y-49637109D01*
X60355659Y-49962828D01*
X61205015Y-49963570D01*
X61990000Y-49639220D01*
X62591109Y-49039159D01*
X62916828Y-48254741D01*
X62917570Y-47405385D01*
X62593220Y-46620400D01*
X61993159Y-46019291D01*
X61208741Y-45693572D01*
X60359385Y-45692830D01*
X59574400Y-46017180D01*
X58973291Y-46617241D01*
X58647572Y-47401659D01*
X58646830Y-48251015D01*
X58674295Y-48317486D01*
X58577721Y-48220743D01*
X57866784Y-47925537D01*
X57096993Y-47924865D01*
X56463000Y-48186825D01*
X56463000Y-42011600D01*
X62841600Y-42011600D01*
X62867000Y-42139293D01*
X62867000Y-44894500D01*
X62924852Y-45185339D01*
X63089599Y-45431901D01*
X66857478Y-49199780D01*
X66857438Y-49245267D01*
X66999483Y-49589043D01*
X67262273Y-49852292D01*
X67605801Y-49994938D01*
X67977767Y-49995262D01*
X68321543Y-49853217D01*
X68584792Y-49590427D01*
X68727438Y-49246899D01*
X68727762Y-48874933D01*
X68585717Y-48531157D01*
X68322927Y-48267908D01*
X67979399Y-48125262D01*
X67932523Y-48125221D01*
X65115787Y-45308485D01*
X66254960Y-45308485D01*
X66465369Y-45817715D01*
X66854636Y-46207661D01*
X67363498Y-46418959D01*
X67914485Y-46419440D01*
X68423715Y-46209031D01*
X68813661Y-45819764D01*
X69024959Y-45310902D01*
X69025440Y-44759915D01*
X68815031Y-44250685D01*
X68603201Y-44038485D01*
X68794960Y-44038485D01*
X69005369Y-44547715D01*
X69394636Y-44937661D01*
X69627070Y-45034176D01*
X69396685Y-45129369D01*
X69006739Y-45518636D01*
X68795441Y-46027498D01*
X68794960Y-46578485D01*
X69005369Y-47087715D01*
X69394636Y-47477661D01*
X69903498Y-47688959D01*
X70454485Y-47689440D01*
X70963715Y-47479031D01*
X71353661Y-47089764D01*
X71564959Y-46580902D01*
X71565440Y-46029915D01*
X71355031Y-45520685D01*
X70965764Y-45130739D01*
X70733330Y-45034224D01*
X70963715Y-44939031D01*
X71353661Y-44549764D01*
X71564959Y-44040902D01*
X71565440Y-43489915D01*
X71355031Y-42980685D01*
X70965764Y-42590739D01*
X70749221Y-42500823D01*
X70904123Y-42436660D01*
X70972112Y-42195717D01*
X70180200Y-41403805D01*
X69388288Y-42195717D01*
X69456277Y-42436660D01*
X69622821Y-42495932D01*
X69396685Y-42589369D01*
X69006739Y-42978636D01*
X68795441Y-43487498D01*
X68794960Y-44038485D01*
X68603201Y-44038485D01*
X68425764Y-43860739D01*
X68209221Y-43770823D01*
X68364123Y-43706660D01*
X68432112Y-43465717D01*
X67640200Y-42673805D01*
X66848288Y-43465717D01*
X66916277Y-43706660D01*
X67082821Y-43765932D01*
X66856685Y-43859369D01*
X66466739Y-44248636D01*
X66255441Y-44757498D01*
X66254960Y-45308485D01*
X65115787Y-45308485D01*
X64387000Y-44579698D01*
X64387000Y-42289371D01*
X66242999Y-42289371D01*
X66270970Y-42839648D01*
X66427740Y-43218123D01*
X66668683Y-43286112D01*
X67460595Y-42494200D01*
X67819805Y-42494200D01*
X68611717Y-43286112D01*
X68852660Y-43218123D01*
X69037401Y-42699029D01*
X69009430Y-42148752D01*
X68852660Y-41770277D01*
X68611717Y-41702288D01*
X67819805Y-42494200D01*
X67460595Y-42494200D01*
X66668683Y-41702288D01*
X66427740Y-41770277D01*
X66242999Y-42289371D01*
X64387000Y-42289371D01*
X64387000Y-42037000D01*
X64384474Y-42024300D01*
X64387000Y-42011600D01*
X64387000Y-41335802D01*
X65021302Y-40701500D01*
X66450405Y-40701500D01*
X66465369Y-40737715D01*
X66854636Y-41127661D01*
X67071179Y-41217577D01*
X66916277Y-41281740D01*
X66848288Y-41522683D01*
X67640200Y-42314595D01*
X68432112Y-41522683D01*
X68364123Y-41281740D01*
X68197579Y-41222468D01*
X68423715Y-41129031D01*
X68533566Y-41019371D01*
X68782999Y-41019371D01*
X68810970Y-41569648D01*
X68967740Y-41948123D01*
X69208683Y-42016112D01*
X70000595Y-41224200D01*
X70359805Y-41224200D01*
X71151717Y-42016112D01*
X71392660Y-41948123D01*
X71577401Y-41429029D01*
X71549430Y-40878752D01*
X71392660Y-40500277D01*
X71151717Y-40432288D01*
X70359805Y-41224200D01*
X70000595Y-41224200D01*
X69208683Y-40432288D01*
X68967740Y-40500277D01*
X68782999Y-41019371D01*
X68533566Y-41019371D01*
X68813661Y-40739764D01*
X69024959Y-40230902D01*
X69025440Y-39679915D01*
X68815031Y-39170685D01*
X68603201Y-38958485D01*
X68794960Y-38958485D01*
X69005369Y-39467715D01*
X69394636Y-39857661D01*
X69611179Y-39947577D01*
X69456277Y-40011740D01*
X69388288Y-40252683D01*
X70180200Y-41044595D01*
X70972112Y-40252683D01*
X70904123Y-40011740D01*
X70737579Y-39952468D01*
X70963715Y-39859031D01*
X71353661Y-39469764D01*
X71564959Y-38960902D01*
X71565440Y-38409915D01*
X71355031Y-37900685D01*
X70965764Y-37510739D01*
X70456902Y-37299441D01*
X69905915Y-37298960D01*
X69396685Y-37509369D01*
X69006739Y-37898636D01*
X68795441Y-38407498D01*
X68794960Y-38958485D01*
X68603201Y-38958485D01*
X68425764Y-38780739D01*
X68193330Y-38684224D01*
X68423715Y-38589031D01*
X68813661Y-38199764D01*
X69024959Y-37690902D01*
X69025440Y-37139915D01*
X68815031Y-36630685D01*
X68425764Y-36240739D01*
X68338568Y-36204532D01*
X73957073Y-36204532D01*
X74055736Y-36471387D01*
X74665461Y-36697908D01*
X75315460Y-36673856D01*
X75804264Y-36471387D01*
X75902927Y-36204532D01*
X74930000Y-35231605D01*
X73957073Y-36204532D01*
X68338568Y-36204532D01*
X67916902Y-36029441D01*
X67365915Y-36028960D01*
X66856685Y-36239369D01*
X66466739Y-36628636D01*
X66255441Y-37137498D01*
X66254960Y-37688485D01*
X66465369Y-38197715D01*
X66854636Y-38587661D01*
X67087070Y-38684176D01*
X66856685Y-38779369D01*
X66466739Y-39168636D01*
X66461397Y-39181500D01*
X64706500Y-39181500D01*
X64415661Y-39239352D01*
X64169099Y-39404099D01*
X63089599Y-40483599D01*
X62924852Y-40730161D01*
X62867000Y-41021000D01*
X62867000Y-41883907D01*
X62841600Y-42011600D01*
X56463000Y-42011600D01*
X56463000Y-35785009D01*
X57093616Y-36046863D01*
X57863407Y-36047535D01*
X58574858Y-35753570D01*
X58673583Y-35655017D01*
X58647572Y-35717659D01*
X58646830Y-36567015D01*
X58971180Y-37352000D01*
X59571241Y-37953109D01*
X60355659Y-38278828D01*
X61205015Y-38279570D01*
X61990000Y-37955220D01*
X62591109Y-37355159D01*
X62916828Y-36570741D01*
X62917570Y-35721385D01*
X62593220Y-34936400D01*
X62444541Y-34787461D01*
X73284092Y-34787461D01*
X73308144Y-35437460D01*
X73510613Y-35926264D01*
X73777468Y-36024927D01*
X74750395Y-35052000D01*
X75109605Y-35052000D01*
X76082532Y-36024927D01*
X76349387Y-35926264D01*
X76510721Y-35492000D01*
X80189499Y-35492000D01*
X80189500Y-35492005D01*
X80189500Y-45593000D01*
X80205761Y-45674750D01*
X80189500Y-45756500D01*
X80189500Y-46962995D01*
X80189499Y-46963000D01*
X80313957Y-47588688D01*
X80668380Y-48119120D01*
X96091500Y-63542240D01*
X96091500Y-79586761D01*
X92696880Y-82981380D01*
X92696878Y-82981383D01*
X91490380Y-84187880D01*
X91135957Y-84718312D01*
X91011499Y-85344000D01*
X91011500Y-85344005D01*
X91011500Y-101811760D01*
X90611630Y-102211630D01*
X89442295Y-102211630D01*
X89442290Y-102211629D01*
X88816602Y-102336087D01*
X88286170Y-102690510D01*
X87489880Y-103486800D01*
X87135457Y-104017232D01*
X87024396Y-104575571D01*
X86413458Y-105185443D01*
X86011458Y-106153567D01*
X86010543Y-107201834D01*
X86410853Y-108170658D01*
X87151443Y-108912542D01*
X87351568Y-108995641D01*
X87489880Y-109202640D01*
X88028358Y-109741117D01*
X88028360Y-109741120D01*
X88558793Y-110095543D01*
X89184480Y-110220001D01*
X89184485Y-110220000D01*
X90550995Y-110220000D01*
X90551000Y-110220001D01*
X90551005Y-110220000D01*
X94953761Y-110220000D01*
X95173378Y-110439618D01*
X95173380Y-110439620D01*
X95575476Y-110841715D01*
X95948080Y-111214319D01*
X96478512Y-111568743D01*
X97104200Y-111693200D01*
X97577429Y-111599069D01*
X98945278Y-112966917D01*
X98945280Y-112966920D01*
X99263251Y-113179381D01*
X99475712Y-113321343D01*
X100101400Y-113445800D01*
X105010200Y-113445800D01*
X105635887Y-113321343D01*
X105655497Y-113308240D01*
X106010200Y-113308240D01*
X106245517Y-113263962D01*
X106461641Y-113124890D01*
X106606631Y-112912690D01*
X106657640Y-112660800D01*
X106657640Y-110960800D01*
X106613362Y-110725483D01*
X106474290Y-110509359D01*
X106262090Y-110364369D01*
X106010200Y-110313360D01*
X105655497Y-110313360D01*
X105635887Y-110300257D01*
X105010200Y-110175800D01*
X100778639Y-110175800D01*
X97964500Y-107361660D01*
X97964500Y-106668434D01*
X106305143Y-106668434D01*
X106705453Y-107637258D01*
X107446043Y-108379142D01*
X107875200Y-108557343D01*
X107875200Y-110338762D01*
X107774883Y-110357638D01*
X107558759Y-110496710D01*
X107413769Y-110708910D01*
X107362760Y-110960800D01*
X107362760Y-112660800D01*
X107407038Y-112896117D01*
X107546110Y-113112241D01*
X107758310Y-113257231D01*
X108010200Y-113308240D01*
X110010200Y-113308240D01*
X110245517Y-113263962D01*
X110461641Y-113124890D01*
X110606631Y-112912690D01*
X110657640Y-112660800D01*
X110657640Y-110960800D01*
X110613362Y-110725483D01*
X110474290Y-110509359D01*
X110262090Y-110364369D01*
X110145200Y-110340698D01*
X110145200Y-108499944D01*
X110431258Y-108381747D01*
X111173142Y-107641157D01*
X111575142Y-106673033D01*
X111576057Y-105624766D01*
X111175747Y-104655942D01*
X110435157Y-103914058D01*
X109699775Y-103608701D01*
X110415247Y-103312343D01*
X110636016Y-102941622D01*
X108940600Y-101246205D01*
X107245184Y-102941622D01*
X107465953Y-103312343D01*
X108190237Y-103605569D01*
X107449942Y-103911453D01*
X106708058Y-104652043D01*
X106306058Y-105620167D01*
X106305143Y-106668434D01*
X97964500Y-106668434D01*
X97964500Y-100563612D01*
X106301481Y-100563612D01*
X106309887Y-101611847D01*
X106694857Y-102541247D01*
X107065578Y-102762016D01*
X108760995Y-101066600D01*
X109120205Y-101066600D01*
X110815622Y-102762016D01*
X111186343Y-102541247D01*
X111579719Y-101569588D01*
X111571313Y-100521353D01*
X111186343Y-99591953D01*
X110815622Y-99371184D01*
X109120205Y-101066600D01*
X108760995Y-101066600D01*
X107065578Y-99371184D01*
X106694857Y-99591953D01*
X106301481Y-100563612D01*
X97964500Y-100563612D01*
X97964500Y-99191578D01*
X107245184Y-99191578D01*
X108940600Y-100886995D01*
X110636016Y-99191578D01*
X110415247Y-98820857D01*
X109443588Y-98427481D01*
X108395353Y-98435887D01*
X107465953Y-98820857D01*
X107245184Y-99191578D01*
X97964500Y-99191578D01*
X97964500Y-95169222D01*
X107245184Y-95169222D01*
X107465953Y-95539943D01*
X108437612Y-95933319D01*
X109485847Y-95924913D01*
X110415247Y-95539943D01*
X110636016Y-95169222D01*
X108940600Y-93473805D01*
X107245184Y-95169222D01*
X97964500Y-95169222D01*
X97964500Y-92791212D01*
X106301481Y-92791212D01*
X106309887Y-93839447D01*
X106694857Y-94768847D01*
X107065578Y-94989616D01*
X108760995Y-93294200D01*
X109120205Y-93294200D01*
X110815622Y-94989616D01*
X111186343Y-94768847D01*
X111579719Y-93797188D01*
X111571313Y-92748953D01*
X111186343Y-91819553D01*
X110815622Y-91598784D01*
X109120205Y-93294200D01*
X108760995Y-93294200D01*
X107065578Y-91598784D01*
X106694857Y-91819553D01*
X106301481Y-92791212D01*
X97964500Y-92791212D01*
X97964500Y-88736034D01*
X106305143Y-88736034D01*
X106705453Y-89704858D01*
X107446043Y-90446742D01*
X108181425Y-90752099D01*
X107465953Y-91048457D01*
X107245184Y-91419178D01*
X108940600Y-93114595D01*
X110636016Y-91419178D01*
X110415247Y-91048457D01*
X109690963Y-90755231D01*
X110431258Y-90449347D01*
X111173142Y-89708757D01*
X111575142Y-88740633D01*
X111576057Y-87692366D01*
X111175747Y-86723542D01*
X110435157Y-85981658D01*
X109467033Y-85579658D01*
X108418766Y-85578743D01*
X107449942Y-85979053D01*
X106708058Y-86719643D01*
X106306058Y-87687767D01*
X106305143Y-88736034D01*
X97964500Y-88736034D01*
X97964500Y-84433740D01*
X98882617Y-83515622D01*
X98882620Y-83515620D01*
X99237043Y-82985187D01*
X99361500Y-82359500D01*
X99361500Y-80620890D01*
X99904524Y-80620890D01*
X100074355Y-81030924D01*
X100464642Y-81459183D01*
X100989108Y-81705486D01*
X101219000Y-81584819D01*
X101219000Y-80391000D01*
X100025845Y-80391000D01*
X99904524Y-80620890D01*
X99361500Y-80620890D01*
X99361500Y-79907110D01*
X99904524Y-79907110D01*
X100025845Y-80137000D01*
X101219000Y-80137000D01*
X101219000Y-78943181D01*
X101473000Y-78943181D01*
X101473000Y-80137000D01*
X101493000Y-80137000D01*
X101493000Y-80391000D01*
X101473000Y-80391000D01*
X101473000Y-81584819D01*
X101702892Y-81705486D01*
X102227358Y-81459183D01*
X102414808Y-81253496D01*
X102432838Y-81349317D01*
X102571910Y-81565441D01*
X102784110Y-81710431D01*
X103036000Y-81761440D01*
X104736000Y-81761440D01*
X104971317Y-81717162D01*
X105187441Y-81578090D01*
X105332431Y-81365890D01*
X105383440Y-81114000D01*
X105383440Y-79414000D01*
X105339162Y-79178683D01*
X105200090Y-78962559D01*
X104987890Y-78817569D01*
X104736000Y-78766560D01*
X103036000Y-78766560D01*
X102800683Y-78810838D01*
X102584559Y-78949910D01*
X102439569Y-79162110D01*
X102416445Y-79276301D01*
X102227358Y-79068817D01*
X101702892Y-78822514D01*
X101473000Y-78943181D01*
X101219000Y-78943181D01*
X100989108Y-78822514D01*
X100464642Y-79068817D01*
X100074355Y-79497076D01*
X99904524Y-79907110D01*
X99361500Y-79907110D01*
X99361500Y-76068506D01*
X105721099Y-76068506D01*
X105774313Y-76297034D01*
X106249860Y-76461700D01*
X106752222Y-76431846D01*
X107077687Y-76297034D01*
X107130901Y-76068506D01*
X106426000Y-75363605D01*
X105721099Y-76068506D01*
X99361500Y-76068506D01*
X99361500Y-75007860D01*
X105148300Y-75007860D01*
X105178154Y-75510222D01*
X105312966Y-75835687D01*
X105541494Y-75888901D01*
X106246395Y-75184000D01*
X106605605Y-75184000D01*
X107310506Y-75888901D01*
X107539034Y-75835687D01*
X107703700Y-75360140D01*
X107673846Y-74857778D01*
X107539034Y-74532313D01*
X107310506Y-74479099D01*
X106605605Y-75184000D01*
X106246395Y-75184000D01*
X105541494Y-74479099D01*
X105312966Y-74532313D01*
X105148300Y-75007860D01*
X99361500Y-75007860D01*
X99361500Y-74299494D01*
X105721099Y-74299494D01*
X106426000Y-75004395D01*
X107130901Y-74299494D01*
X107077687Y-74070966D01*
X106602140Y-73906300D01*
X106099778Y-73936154D01*
X105774313Y-74070966D01*
X105721099Y-74299494D01*
X99361500Y-74299494D01*
X99361500Y-72894520D01*
X102620781Y-72894520D01*
X102812960Y-73359629D01*
X103168499Y-73715790D01*
X103633272Y-73908780D01*
X104136520Y-73909219D01*
X104601629Y-73717040D01*
X104957790Y-73361501D01*
X105150780Y-72896728D01*
X105151219Y-72393480D01*
X104959040Y-71928371D01*
X104603501Y-71572210D01*
X104138728Y-71379220D01*
X103635480Y-71378781D01*
X103170371Y-71570960D01*
X102814210Y-71926499D01*
X102621220Y-72391272D01*
X102620781Y-72894520D01*
X99361500Y-72894520D01*
X99361500Y-70354520D01*
X105160781Y-70354520D01*
X105352960Y-70819629D01*
X105708499Y-71175790D01*
X106173272Y-71368780D01*
X106676520Y-71369219D01*
X107141629Y-71177040D01*
X107497790Y-70821501D01*
X107690780Y-70356728D01*
X107691219Y-69853480D01*
X107499040Y-69388371D01*
X107143501Y-69032210D01*
X106678728Y-68839220D01*
X106175480Y-68838781D01*
X105710371Y-69030960D01*
X105354210Y-69386499D01*
X105161220Y-69851272D01*
X105160781Y-70354520D01*
X99361500Y-70354520D01*
X99361500Y-62865005D01*
X99361501Y-62865000D01*
X99237043Y-62239312D01*
X98882620Y-61708880D01*
X97213469Y-60039729D01*
X97259298Y-60058759D01*
X97810285Y-60059240D01*
X98319515Y-59848831D01*
X98709461Y-59459564D01*
X98920759Y-58950702D01*
X98921118Y-58539000D01*
X100607999Y-58539000D01*
X100266853Y-58766946D01*
X99944946Y-59248715D01*
X99831907Y-59817000D01*
X99944946Y-60385285D01*
X100266853Y-60867054D01*
X100748622Y-61188961D01*
X101316907Y-61302000D01*
X101375093Y-61302000D01*
X101943378Y-61188961D01*
X102425147Y-60867054D01*
X102429097Y-60861142D01*
X102497673Y-61026699D01*
X102676302Y-61205327D01*
X102909691Y-61302000D01*
X103600250Y-61302000D01*
X103759000Y-61143250D01*
X103759000Y-59944000D01*
X104013000Y-59944000D01*
X104013000Y-61143250D01*
X104171750Y-61302000D01*
X104862309Y-61302000D01*
X105095698Y-61205327D01*
X105274327Y-61026699D01*
X105371000Y-60793310D01*
X105371000Y-60102750D01*
X105212250Y-59944000D01*
X104013000Y-59944000D01*
X103759000Y-59944000D01*
X103739000Y-59944000D01*
X103739000Y-59690000D01*
X103759000Y-59690000D01*
X103759000Y-59670000D01*
X104013000Y-59670000D01*
X104013000Y-59690000D01*
X105212250Y-59690000D01*
X105371000Y-59531250D01*
X105371000Y-58840690D01*
X105274327Y-58607301D01*
X105104695Y-58437670D01*
X105450566Y-58206566D01*
X105577566Y-58079566D01*
X105658601Y-57958288D01*
X105823603Y-57711346D01*
X105910000Y-57277000D01*
X105910000Y-57100100D01*
X106901160Y-57100100D01*
X106901160Y-58800100D01*
X106945438Y-59035417D01*
X107084510Y-59251541D01*
X107296710Y-59396531D01*
X107548600Y-59447540D01*
X108448600Y-59447540D01*
X108683917Y-59403262D01*
X108900041Y-59264190D01*
X109045031Y-59051990D01*
X109096040Y-58800100D01*
X109096040Y-57100100D01*
X109051762Y-56864783D01*
X108912690Y-56648659D01*
X108700490Y-56503669D01*
X108448600Y-56452660D01*
X107548600Y-56452660D01*
X107313283Y-56496938D01*
X107097159Y-56636010D01*
X106952169Y-56848210D01*
X106901160Y-57100100D01*
X105910000Y-57100100D01*
X105910000Y-56446192D01*
X106076441Y-56339090D01*
X106221431Y-56126890D01*
X106272440Y-55875000D01*
X106272440Y-55081750D01*
X107500500Y-55081750D01*
X107500500Y-55922309D01*
X107597173Y-56155698D01*
X107775801Y-56334327D01*
X108009190Y-56431000D01*
X108174750Y-56431000D01*
X108333500Y-56272250D01*
X108333500Y-54923000D01*
X107659250Y-54923000D01*
X107500500Y-55081750D01*
X106272440Y-55081750D01*
X106272440Y-54975000D01*
X106228162Y-54739683D01*
X106089090Y-54523559D01*
X105876890Y-54378569D01*
X105625000Y-54327560D01*
X104963826Y-54327560D01*
X104775000Y-54290000D01*
X104586174Y-54327560D01*
X103925000Y-54327560D01*
X103689683Y-54371838D01*
X103473559Y-54510910D01*
X103377457Y-54651560D01*
X103295090Y-54523559D01*
X103082890Y-54378569D01*
X102831000Y-54327560D01*
X102169826Y-54327560D01*
X101981000Y-54290000D01*
X98412958Y-54290000D01*
X98374564Y-54251539D01*
X97865702Y-54040241D01*
X97314715Y-54039760D01*
X96805485Y-54250169D01*
X96415539Y-54639436D01*
X96236424Y-55070792D01*
X94490500Y-53324868D01*
X94490500Y-52094397D01*
X94520603Y-52049345D01*
X94607000Y-51615000D01*
X94520603Y-51180655D01*
X94452940Y-51079390D01*
X94452940Y-50648500D01*
X94408662Y-50413183D01*
X94269590Y-50197059D01*
X94057390Y-50052069D01*
X93805500Y-50001060D01*
X92905500Y-50001060D01*
X92670183Y-50045338D01*
X92454059Y-50184410D01*
X92309069Y-50396610D01*
X92258060Y-50648500D01*
X92258060Y-51309674D01*
X92220500Y-51498500D01*
X92220500Y-53795000D01*
X92306897Y-54229346D01*
X92406605Y-54378569D01*
X92552934Y-54597566D01*
X96161934Y-58206566D01*
X96215561Y-58242398D01*
X96151241Y-58397298D01*
X96150760Y-58948285D01*
X96170993Y-58997253D01*
X86660525Y-49486785D01*
X88340260Y-49486785D01*
X88550669Y-49996015D01*
X88939936Y-50385961D01*
X89448798Y-50597259D01*
X89999785Y-50597740D01*
X90509015Y-50387331D01*
X90898961Y-49998064D01*
X91110259Y-49489202D01*
X91110308Y-49432824D01*
X91148132Y-49395000D01*
X92270808Y-49395000D01*
X92377910Y-49561441D01*
X92590110Y-49706431D01*
X92842000Y-49757440D01*
X93742000Y-49757440D01*
X93977317Y-49713162D01*
X94193441Y-49574090D01*
X94338431Y-49361890D01*
X94389440Y-49110000D01*
X94389440Y-48448826D01*
X94427000Y-48260000D01*
X95057000Y-48260000D01*
X95057000Y-48630000D01*
X95094560Y-48818826D01*
X95094560Y-49110000D01*
X95138838Y-49345317D01*
X95277910Y-49561441D01*
X95490110Y-49706431D01*
X95543129Y-49717168D01*
X95542828Y-50062941D01*
X95354059Y-50184410D01*
X95209069Y-50396610D01*
X95158060Y-50648500D01*
X95158060Y-50849674D01*
X95120500Y-51038500D01*
X95120500Y-51498500D01*
X95158060Y-51687326D01*
X95158060Y-52348500D01*
X95202338Y-52583817D01*
X95341410Y-52799941D01*
X95553610Y-52944931D01*
X95805500Y-52995940D01*
X96705500Y-52995940D01*
X96940817Y-52951662D01*
X97156941Y-52812590D01*
X97301931Y-52600390D01*
X97352940Y-52348500D01*
X97352940Y-52075000D01*
X100483560Y-52075000D01*
X100483560Y-52975000D01*
X100527838Y-53210317D01*
X100666910Y-53426441D01*
X100879110Y-53571431D01*
X101131000Y-53622440D01*
X101792174Y-53622440D01*
X101981000Y-53660000D01*
X102251549Y-53660000D01*
X102951459Y-53950628D01*
X103800815Y-53951370D01*
X104482529Y-53669691D01*
X107500500Y-53669691D01*
X107500500Y-54510250D01*
X107659250Y-54669000D01*
X108333500Y-54669000D01*
X108333500Y-53319750D01*
X108587500Y-53319750D01*
X108587500Y-54669000D01*
X108607500Y-54669000D01*
X108607500Y-54923000D01*
X108587500Y-54923000D01*
X108587500Y-56272250D01*
X108746250Y-56431000D01*
X108911810Y-56431000D01*
X109145199Y-56334327D01*
X109323827Y-56155698D01*
X109414536Y-55936707D01*
X109432338Y-56031317D01*
X109571410Y-56247441D01*
X109600500Y-56267317D01*
X109600500Y-57412000D01*
X109658352Y-57702839D01*
X109801160Y-57916567D01*
X109801160Y-58800100D01*
X109845438Y-59035417D01*
X109984510Y-59251541D01*
X110196710Y-59396531D01*
X110448600Y-59447540D01*
X111348600Y-59447540D01*
X111583917Y-59403262D01*
X111800041Y-59264190D01*
X111945031Y-59051990D01*
X111996040Y-58800100D01*
X111996040Y-57100100D01*
X111951762Y-56864783D01*
X111812690Y-56648659D01*
X111600490Y-56503669D01*
X111348600Y-56452660D01*
X111120500Y-56452660D01*
X111120500Y-56270669D01*
X111136941Y-56260090D01*
X111281931Y-56047890D01*
X111332940Y-55796000D01*
X111332940Y-53796000D01*
X111288662Y-53560683D01*
X111149590Y-53344559D01*
X110937390Y-53199569D01*
X110685500Y-53148560D01*
X110035500Y-53148560D01*
X109800183Y-53192838D01*
X109584059Y-53331910D01*
X109439069Y-53544110D01*
X109415891Y-53658565D01*
X109323827Y-53436302D01*
X109145199Y-53257673D01*
X108911810Y-53161000D01*
X108746250Y-53161000D01*
X108587500Y-53319750D01*
X108333500Y-53319750D01*
X108174750Y-53161000D01*
X108009190Y-53161000D01*
X107775801Y-53257673D01*
X107597173Y-53436302D01*
X107500500Y-53669691D01*
X104482529Y-53669691D01*
X104505983Y-53660000D01*
X104775000Y-53660000D01*
X104963826Y-53622440D01*
X105625000Y-53622440D01*
X105860317Y-53578162D01*
X106076441Y-53439090D01*
X106221431Y-53226890D01*
X106272440Y-52975000D01*
X106272440Y-52075000D01*
X106228162Y-51839683D01*
X106089090Y-51623559D01*
X105876890Y-51478569D01*
X105625000Y-51427560D01*
X105513340Y-51427560D01*
X105513370Y-51393185D01*
X105189020Y-50608200D01*
X104588959Y-50007091D01*
X103804541Y-49681372D01*
X102955185Y-49680630D01*
X102170200Y-50004980D01*
X101569091Y-50605041D01*
X101243372Y-51389459D01*
X101243339Y-51427560D01*
X101131000Y-51427560D01*
X100895683Y-51471838D01*
X100679559Y-51610910D01*
X100534569Y-51823110D01*
X100483560Y-52075000D01*
X97352940Y-52075000D01*
X97352940Y-51750935D01*
X97801305Y-51751326D01*
X98494372Y-51464957D01*
X98959139Y-51001000D01*
X100565500Y-51001000D01*
X100999846Y-50914603D01*
X101368066Y-50668566D01*
X103180566Y-48856066D01*
X103220140Y-48796839D01*
X103426603Y-48487846D01*
X103513000Y-48053500D01*
X103513000Y-47244000D01*
X103693000Y-47244000D01*
X103730560Y-47432826D01*
X103730560Y-48094000D01*
X103774838Y-48329317D01*
X103913910Y-48545441D01*
X104126110Y-48690431D01*
X104378000Y-48741440D01*
X105278000Y-48741440D01*
X105513317Y-48697162D01*
X105729441Y-48558090D01*
X105851808Y-48379000D01*
X106335868Y-48379000D01*
X107543243Y-49586375D01*
X107542674Y-50239305D01*
X107829043Y-50932372D01*
X108276396Y-51380506D01*
X108361897Y-51810346D01*
X108438060Y-51924332D01*
X108438060Y-52376000D01*
X108482338Y-52611317D01*
X108621410Y-52827441D01*
X108833610Y-52972431D01*
X109085500Y-53023440D01*
X109735500Y-53023440D01*
X109970817Y-52979162D01*
X110186941Y-52840090D01*
X110331931Y-52627890D01*
X110382940Y-52376000D01*
X110382940Y-51924332D01*
X110459103Y-51810346D01*
X110536089Y-51423313D01*
X111025093Y-50935161D01*
X111312672Y-50242595D01*
X111313326Y-49492695D01*
X111026957Y-48799628D01*
X110497161Y-48268907D01*
X109804595Y-47981328D01*
X109147887Y-47980755D01*
X107608566Y-46441434D01*
X107537576Y-46394000D01*
X107240346Y-46195397D01*
X106806000Y-46109000D01*
X105849192Y-46109000D01*
X105742090Y-45942559D01*
X105529890Y-45797569D01*
X105278000Y-45746560D01*
X104378000Y-45746560D01*
X104142683Y-45790838D01*
X103926559Y-45929910D01*
X103781569Y-46142110D01*
X103730560Y-46394000D01*
X103730560Y-47055174D01*
X103693000Y-47244000D01*
X103513000Y-47244000D01*
X103426603Y-46809654D01*
X103180566Y-46441434D01*
X103013341Y-46329697D01*
X102981162Y-46158683D01*
X102842090Y-45942559D01*
X102629890Y-45797569D01*
X102378000Y-45746560D01*
X101478000Y-45746560D01*
X101242683Y-45790838D01*
X101026559Y-45929910D01*
X100881569Y-46142110D01*
X100830560Y-46394000D01*
X100830560Y-46629165D01*
X100352702Y-46430741D01*
X100296324Y-46430692D01*
X99306000Y-45440368D01*
X99306000Y-43703132D01*
X100038132Y-42971000D01*
X107124500Y-42971000D01*
X107313326Y-42933440D01*
X107974500Y-42933440D01*
X108209817Y-42889162D01*
X108425941Y-42750090D01*
X108570931Y-42537890D01*
X108621940Y-42286000D01*
X108621940Y-41386000D01*
X108577662Y-41150683D01*
X108438590Y-40934559D01*
X108226390Y-40789569D01*
X107974500Y-40738560D01*
X107313326Y-40738560D01*
X107124500Y-40701000D01*
X100609596Y-40701000D01*
X100481500Y-40675060D01*
X99820326Y-40675060D01*
X99631500Y-40637500D01*
X99442674Y-40675060D01*
X98781500Y-40675060D01*
X98546183Y-40719338D01*
X98330059Y-40858410D01*
X98185069Y-41070610D01*
X98134060Y-41322500D01*
X98134060Y-41664808D01*
X97368434Y-42430434D01*
X97122397Y-42798654D01*
X97036000Y-43233000D01*
X97036000Y-45910500D01*
X97122397Y-46344846D01*
X97320060Y-46640669D01*
X97368434Y-46713066D01*
X98690807Y-48035439D01*
X98690760Y-48089785D01*
X98901169Y-48599015D01*
X99032924Y-48731000D01*
X98958449Y-48731000D01*
X98497161Y-48268907D01*
X97804595Y-47981328D01*
X97289440Y-47980879D01*
X97289440Y-47410000D01*
X97245162Y-47174683D01*
X97106090Y-46958559D01*
X96893890Y-46813569D01*
X96642000Y-46762560D01*
X95742000Y-46762560D01*
X95506683Y-46806838D01*
X95290559Y-46945910D01*
X95145569Y-47158110D01*
X95094560Y-47410000D01*
X95094560Y-48071174D01*
X95057000Y-48260000D01*
X94427000Y-48260000D01*
X94389440Y-48071174D01*
X94389440Y-47410000D01*
X94345162Y-47174683D01*
X94206090Y-46958559D01*
X93993890Y-46813569D01*
X93742000Y-46762560D01*
X92842000Y-46762560D01*
X92606683Y-46806838D01*
X92390559Y-46945910D01*
X92268192Y-47125000D01*
X90678000Y-47125000D01*
X90243654Y-47211397D01*
X89875434Y-47457434D01*
X89505561Y-47827307D01*
X89451215Y-47827260D01*
X88941985Y-48037669D01*
X88552039Y-48426936D01*
X88340741Y-48935798D01*
X88340260Y-49486785D01*
X86660525Y-49486785D01*
X83459500Y-46285760D01*
X83459500Y-45756500D01*
X83443239Y-45674750D01*
X83459500Y-45593000D01*
X83459500Y-36512748D01*
X83499817Y-36505162D01*
X83715941Y-36366090D01*
X83860931Y-36153890D01*
X83911940Y-35902000D01*
X83911940Y-34202000D01*
X84617060Y-34202000D01*
X84617060Y-35902000D01*
X84661338Y-36137317D01*
X84800410Y-36353441D01*
X85012610Y-36498431D01*
X85129500Y-36522102D01*
X85129500Y-38422000D01*
X85215897Y-38856346D01*
X85257060Y-38917951D01*
X85257060Y-40612000D01*
X85301338Y-40847317D01*
X85440410Y-41063441D01*
X85652610Y-41208431D01*
X85904500Y-41259440D01*
X87504500Y-41259440D01*
X87739817Y-41215162D01*
X87955941Y-41076090D01*
X88100931Y-40863890D01*
X88151940Y-40612000D01*
X88151940Y-38038815D01*
X95242630Y-38038815D01*
X95566980Y-38823800D01*
X96167041Y-39424909D01*
X96951459Y-39750628D01*
X97800815Y-39751370D01*
X98197432Y-39587491D01*
X98317410Y-39773941D01*
X98529610Y-39918931D01*
X98781500Y-39969940D01*
X99442676Y-39969940D01*
X99631500Y-40007499D01*
X99820323Y-39969940D01*
X100481500Y-39969940D01*
X100716817Y-39925662D01*
X100932941Y-39786590D01*
X101077931Y-39574390D01*
X101128940Y-39322500D01*
X101128940Y-38486000D01*
X105627060Y-38486000D01*
X105627060Y-39386000D01*
X105671338Y-39621317D01*
X105810410Y-39837441D01*
X106022610Y-39982431D01*
X106274500Y-40033440D01*
X106935674Y-40033440D01*
X107124500Y-40071000D01*
X107313326Y-40033440D01*
X107974500Y-40033440D01*
X108209817Y-39989162D01*
X108425941Y-39850090D01*
X108570931Y-39637890D01*
X108573926Y-39623101D01*
X109001459Y-39800628D01*
X109850815Y-39801370D01*
X110635800Y-39477020D01*
X111236909Y-38876959D01*
X111562628Y-38092541D01*
X111563370Y-37243185D01*
X111239020Y-36458200D01*
X110638959Y-35857091D01*
X109854541Y-35531372D01*
X109005185Y-35530630D01*
X108220200Y-35854980D01*
X107619091Y-36455041D01*
X107348378Y-37106990D01*
X106616808Y-37838560D01*
X106274500Y-37838560D01*
X106039183Y-37882838D01*
X105823059Y-38021910D01*
X105678069Y-38234110D01*
X105627060Y-38486000D01*
X101128940Y-38486000D01*
X101128940Y-38422500D01*
X101084662Y-38187183D01*
X100945590Y-37971059D01*
X100733390Y-37826069D01*
X100481500Y-37775060D01*
X100139192Y-37775060D01*
X99482425Y-37118293D01*
X99189020Y-36408200D01*
X98588959Y-35807091D01*
X97804541Y-35481372D01*
X96955185Y-35480630D01*
X96170200Y-35804980D01*
X95569091Y-36405041D01*
X95243372Y-37189459D01*
X95242630Y-38038815D01*
X88151940Y-38038815D01*
X88151940Y-37112000D01*
X88107662Y-36876683D01*
X87968590Y-36660559D01*
X87839500Y-36572356D01*
X87839500Y-36187000D01*
X91532796Y-36187000D01*
X91782637Y-36437278D01*
X92383352Y-36686716D01*
X93033795Y-36687284D01*
X93634943Y-36438894D01*
X94095278Y-35979363D01*
X94344716Y-35378648D01*
X94345284Y-34728205D01*
X94096894Y-34127057D01*
X93637363Y-33666722D01*
X93036648Y-33417284D01*
X92386205Y-33416716D01*
X91785057Y-33665106D01*
X91532722Y-33917000D01*
X87835692Y-33917000D01*
X87728590Y-33750559D01*
X87516390Y-33605569D01*
X87264500Y-33554560D01*
X85264500Y-33554560D01*
X85029183Y-33598838D01*
X84813059Y-33737910D01*
X84668069Y-33950110D01*
X84617060Y-34202000D01*
X83911940Y-34202000D01*
X83867662Y-33966683D01*
X83728590Y-33750559D01*
X83516390Y-33605569D01*
X83264500Y-33554560D01*
X82909798Y-33554560D01*
X82890188Y-33541457D01*
X82264500Y-33416999D01*
X81638812Y-33541457D01*
X81619202Y-33554560D01*
X81264500Y-33554560D01*
X81029183Y-33598838D01*
X80813059Y-33737910D01*
X80668069Y-33950110D01*
X80617060Y-34202000D01*
X80617060Y-34412686D01*
X80313957Y-34866312D01*
X80189499Y-35492000D01*
X76510721Y-35492000D01*
X76575908Y-35316539D01*
X76551856Y-34666540D01*
X76349387Y-34177736D01*
X76082532Y-34079073D01*
X75109605Y-35052000D01*
X74750395Y-35052000D01*
X73777468Y-34079073D01*
X73510613Y-34177736D01*
X73284092Y-34787461D01*
X62444541Y-34787461D01*
X61993159Y-34335291D01*
X61208741Y-34009572D01*
X60359385Y-34008830D01*
X59574400Y-34333180D01*
X59414869Y-34492433D01*
X59415535Y-33728993D01*
X59284763Y-33412500D01*
X75021364Y-33412500D01*
X74544540Y-33430144D01*
X74544540Y-33430144D01*
G37*
X74544540Y-33430144D02*
X74055736Y-33632613D01*
X73957073Y-33899468D01*
X74930000Y-34872395D01*
X75902927Y-33899468D01*
X75804264Y-33632613D01*
X75211787Y-33412500D01*
X124053600Y-33412500D01*
X124053600Y-38422198D01*
X121757598Y-40718200D01*
X117275463Y-40718200D01*
X117243327Y-40686008D01*
X117101020Y-40626917D01*
X117905772Y-40294400D01*
X118929206Y-39272751D01*
X119483768Y-37937218D01*
X119485030Y-36491126D01*
X118932800Y-35154628D01*
X117911151Y-34131194D01*
X116575618Y-33576632D01*
X115129526Y-33575370D01*
X113793028Y-34127600D01*
X112769594Y-35149249D01*
X112215032Y-36484782D01*
X112213770Y-37930874D01*
X112766000Y-39267372D01*
X113787649Y-40290806D01*
X115123182Y-40845368D01*
X116022706Y-40846153D01*
X115920808Y-40947873D01*
X115778162Y-41291401D01*
X115778037Y-41434504D01*
X115528199Y-41330762D01*
X115156233Y-41330438D01*
X114812457Y-41472483D01*
X114549208Y-41735273D01*
X114406562Y-42078801D01*
X114406238Y-42450767D01*
X114548283Y-42794543D01*
X114811073Y-43057792D01*
X115154601Y-43200438D01*
X115526567Y-43200762D01*
X115840814Y-43070918D01*
X115778162Y-43221801D01*
X115777838Y-43593767D01*
X115919883Y-43937543D01*
X116182673Y-44200792D01*
X116526201Y-44343438D01*
X116898167Y-44343762D01*
X117117665Y-44253067D01*
X117458299Y-44593701D01*
X117704861Y-44758448D01*
X117995700Y-44816300D01*
X119595900Y-44816300D01*
X119886739Y-44758448D01*
X120133301Y-44593701D01*
X120609202Y-44117800D01*
X122275600Y-44117800D01*
X122566439Y-44059948D01*
X122813001Y-43895201D01*
X124053600Y-42654602D01*
X124053600Y-48582198D01*
X123667900Y-48196498D01*
X123667962Y-48125633D01*
X123525917Y-47781857D01*
X123263127Y-47518608D01*
X122919599Y-47375962D01*
X122547633Y-47375638D01*
X122203857Y-47517683D01*
X121940608Y-47780473D01*
X121797962Y-48124001D01*
X121797638Y-48495967D01*
X121807967Y-48520964D01*
X120063800Y-46776798D01*
X120063800Y-46126400D01*
X120031466Y-45963846D01*
X120005948Y-45835560D01*
X119908693Y-45690008D01*
X119908762Y-45611033D01*
X119766717Y-45267257D01*
X119503927Y-45004008D01*
X119160399Y-44861362D01*
X118788433Y-44861038D01*
X118444657Y-45003083D01*
X118181408Y-45265873D01*
X118038762Y-45609401D01*
X118038438Y-45981367D01*
X118180483Y-46325143D01*
X118443273Y-46588392D01*
X118543800Y-46630135D01*
X118543800Y-47091600D01*
X118601652Y-47382439D01*
X118766399Y-47629001D01*
X123768197Y-52630800D01*
X123631802Y-52630800D01*
X117648122Y-46647120D01*
X117648162Y-46601633D01*
X117506117Y-46257857D01*
X117243327Y-45994608D01*
X116899799Y-45851962D01*
X116527833Y-45851638D01*
X116184057Y-45993683D01*
X115920808Y-46256473D01*
X115778162Y-46600001D01*
X115777838Y-46971967D01*
X115919883Y-47315743D01*
X116182673Y-47578992D01*
X116526201Y-47721638D01*
X116573077Y-47721679D01*
X122779599Y-53928201D01*
X123026160Y-54092948D01*
X123317000Y-54150800D01*
X124053600Y-54150800D01*
X124053600Y-72366600D01*
X118846600Y-72366600D01*
X118555761Y-72424452D01*
X118309199Y-72589199D01*
X116547920Y-74350478D01*
X116502433Y-74350438D01*
X116158657Y-74492483D01*
X115895408Y-74755273D01*
X115752762Y-75098801D01*
X115752438Y-75470767D01*
X115894483Y-75814543D01*
X116000310Y-75920554D01*
X115895408Y-76025273D01*
X115752762Y-76368801D01*
X115752438Y-76740767D01*
X115894483Y-77084543D01*
X116139349Y-77329837D01*
X115985452Y-77560161D01*
X115927600Y-77851000D01*
X115927600Y-77923537D01*
X115895408Y-77955673D01*
X115752762Y-78299201D01*
X115752438Y-78671167D01*
X115885983Y-78994371D01*
X115752762Y-79315201D01*
X115752438Y-79687167D01*
X115894483Y-80030943D01*
X116157273Y-80294192D01*
X116500801Y-80436838D01*
X116872767Y-80437162D01*
X117216543Y-80295117D01*
X117479792Y-80032327D01*
X117622438Y-79688799D01*
X117622479Y-79641923D01*
X118139401Y-79125001D01*
X118304148Y-78878439D01*
X118362000Y-78587600D01*
X118362000Y-78165802D01*
X120939402Y-75588400D01*
X124053600Y-75588400D01*
X124053600Y-82399600D01*
X121320402Y-82399600D01*
X121305722Y-82384920D01*
X121305762Y-82339433D01*
X121163717Y-81995657D01*
X120900927Y-81732408D01*
X120557399Y-81589762D01*
X120185433Y-81589438D01*
X119841657Y-81731483D01*
X119578408Y-81994273D01*
X119435762Y-82337801D01*
X119435438Y-82709767D01*
X119517181Y-82907600D01*
X118272402Y-82907600D01*
X117542501Y-82177699D01*
X117295939Y-82012952D01*
X117025119Y-81959082D01*
X116747399Y-81843762D01*
X116375433Y-81843438D01*
X116031657Y-81985483D01*
X115768408Y-82248273D01*
X115625762Y-82591801D01*
X115625438Y-82963767D01*
X115767483Y-83307543D01*
X116000199Y-83540665D01*
X115895408Y-83645273D01*
X115752762Y-83988801D01*
X115752438Y-84360767D01*
X115885983Y-84683971D01*
X115752762Y-85004801D01*
X115752438Y-85376767D01*
X115894483Y-85720543D01*
X116157273Y-85983792D01*
X116500801Y-86126438D01*
X116872767Y-86126762D01*
X117216543Y-85984717D01*
X117479792Y-85721927D01*
X117595364Y-85443600D01*
X124053600Y-85443600D01*
X124053600Y-96369600D01*
X118221602Y-96369600D01*
X117571922Y-95719920D01*
X117571962Y-95674433D01*
X117429917Y-95330657D01*
X117167127Y-95067408D01*
X116823599Y-94924762D01*
X116451633Y-94924438D01*
X116107857Y-95066483D01*
X115844608Y-95329273D01*
X115701962Y-95672801D01*
X115701638Y-96044767D01*
X115843683Y-96388543D01*
X115898710Y-96443666D01*
X115844608Y-96497673D01*
X115701962Y-96841201D01*
X115701638Y-97213167D01*
X115843683Y-97556943D01*
X115898710Y-97612066D01*
X115844608Y-97666073D01*
X115701962Y-98009601D01*
X115701638Y-98381567D01*
X115843683Y-98725343D01*
X115949510Y-98831354D01*
X115844608Y-98936073D01*
X115701962Y-99279601D01*
X115701638Y-99651567D01*
X115843683Y-99995343D01*
X116106473Y-100258592D01*
X116450001Y-100401238D01*
X116821967Y-100401562D01*
X117165743Y-100259517D01*
X117428992Y-99996727D01*
X117571638Y-99653199D01*
X117571679Y-99606323D01*
X117916802Y-99261200D01*
X124053600Y-99261200D01*
X124053600Y-106732800D01*
X118062863Y-106732800D01*
X118030727Y-106700608D01*
X117687199Y-106557962D01*
X117315233Y-106557638D01*
X116971457Y-106699683D01*
X116865401Y-106805554D01*
X116709927Y-106649808D01*
X116366399Y-106507162D01*
X115994433Y-106506838D01*
X115650657Y-106648883D01*
X115387408Y-106911673D01*
X115244762Y-107255201D01*
X115244438Y-107627167D01*
X115386483Y-107970943D01*
X115649273Y-108234192D01*
X115992801Y-108376838D01*
X116039677Y-108376879D01*
X116108098Y-108445300D01*
X116039920Y-108513478D01*
X115994433Y-108513438D01*
X115650657Y-108655483D01*
X115387408Y-108918273D01*
X115244762Y-109261801D01*
X115244438Y-109633767D01*
X115386483Y-109977543D01*
X115441487Y-110032644D01*
X115412808Y-110061273D01*
X115270162Y-110404801D01*
X115269838Y-110776767D01*
X115411883Y-111120543D01*
X115674673Y-111383792D01*
X116018201Y-111526438D01*
X116390167Y-111526762D01*
X116733943Y-111384717D01*
X116997192Y-111121927D01*
X117139838Y-110778399D01*
X117139879Y-110731523D01*
X117891402Y-109980000D01*
X124053600Y-109980000D01*
X124053600Y-118899400D01*
X105293002Y-118899400D01*
X102162801Y-115769199D01*
X101916239Y-115604452D01*
X101625400Y-115546600D01*
X94653100Y-115546600D01*
X94362261Y-115604452D01*
X94115699Y-115769199D01*
X93746800Y-116138098D01*
X93723302Y-116128341D01*
X93172315Y-116127860D01*
X92663085Y-116338269D01*
X92273139Y-116727536D01*
X92061841Y-117236398D01*
X92061360Y-117787385D01*
X92271769Y-118296615D01*
X92564770Y-118590128D01*
X92476800Y-118678098D01*
X92453302Y-118668341D01*
X91902315Y-118667860D01*
X91393085Y-118878269D01*
X91003139Y-119267536D01*
X90791841Y-119776398D01*
X90791360Y-120327385D01*
X91001769Y-120836615D01*
X91391036Y-121226561D01*
X91899898Y-121437859D01*
X92450885Y-121438340D01*
X92960115Y-121227931D01*
X93350061Y-120838664D01*
X93446576Y-120606230D01*
X93541769Y-120836615D01*
X93931036Y-121226561D01*
X94439898Y-121437859D01*
X94990885Y-121438340D01*
X95016468Y-121427770D01*
X95411099Y-121822401D01*
X95657661Y-121987148D01*
X95948500Y-122045000D01*
X100431600Y-122045000D01*
X100722439Y-121987148D01*
X100969001Y-121822401D01*
X101432202Y-121359200D01*
X103382890Y-121359200D01*
X103382638Y-121647967D01*
X103524683Y-121991743D01*
X103787473Y-122254992D01*
X104131001Y-122397638D01*
X104502967Y-122397962D01*
X104846743Y-122255917D01*
X105109992Y-121993127D01*
X105183376Y-121816400D01*
X124053600Y-121816400D01*
X124053600Y-131814500D01*
X59244593Y-131814500D01*
X59364063Y-131526784D01*
X59364731Y-130761127D01*
X59520441Y-130917109D01*
X60304859Y-131242828D01*
X61154215Y-131243570D01*
X61939200Y-130919220D01*
X62540309Y-130319159D01*
X62866028Y-129534741D01*
X62866770Y-128685385D01*
X62542420Y-127900400D01*
X61942359Y-127299291D01*
X61157941Y-126973572D01*
X60308585Y-126972830D01*
X59523600Y-127297180D01*
X58922491Y-127897241D01*
X58596772Y-128681659D01*
X58596030Y-129531015D01*
X58623495Y-129597486D01*
X58526921Y-129500743D01*
X57815984Y-129205537D01*
X57046193Y-129204865D01*
X56463000Y-129445835D01*
X56463000Y-126588485D01*
X66204160Y-126588485D01*
X66414569Y-127097715D01*
X66803836Y-127487661D01*
X67312698Y-127698959D01*
X67863685Y-127699440D01*
X68372915Y-127489031D01*
X68762861Y-127099764D01*
X68974159Y-126590902D01*
X68974640Y-126039915D01*
X68764231Y-125530685D01*
X68374964Y-125140739D01*
X68158421Y-125050823D01*
X68313323Y-124986660D01*
X68381312Y-124745717D01*
X67589400Y-123953805D01*
X66797488Y-124745717D01*
X66865477Y-124986660D01*
X67032021Y-125045932D01*
X66805885Y-125139369D01*
X66415939Y-125528636D01*
X66204641Y-126037498D01*
X66204160Y-126588485D01*
X56463000Y-126588485D01*
X56463000Y-123569371D01*
X66192199Y-123569371D01*
X66220170Y-124119648D01*
X66376940Y-124498123D01*
X66617883Y-124566112D01*
X67409795Y-123774200D01*
X67769005Y-123774200D01*
X68560917Y-124566112D01*
X68801860Y-124498123D01*
X68986601Y-123979029D01*
X68958630Y-123428752D01*
X68801860Y-123050277D01*
X68560917Y-122982288D01*
X67769005Y-123774200D01*
X67409795Y-123774200D01*
X66617883Y-122982288D01*
X66376940Y-123050277D01*
X66192199Y-123569371D01*
X56463000Y-123569371D01*
X56463000Y-117086103D01*
X57042816Y-117326863D01*
X57812607Y-117327535D01*
X58524058Y-117033570D01*
X58622783Y-116935017D01*
X58596772Y-116997659D01*
X58596030Y-117847015D01*
X58920380Y-118632000D01*
X59520441Y-119233109D01*
X60304859Y-119558828D01*
X61154215Y-119559570D01*
X61939200Y-119235220D01*
X62540309Y-118635159D01*
X62726733Y-118186200D01*
X65356200Y-118186200D01*
X65356200Y-120319800D01*
X65414052Y-120610639D01*
X65578799Y-120857201D01*
X66204183Y-121482585D01*
X66204160Y-121508485D01*
X66414569Y-122017715D01*
X66803836Y-122407661D01*
X67020379Y-122497577D01*
X66865477Y-122561740D01*
X66797488Y-122802683D01*
X67589400Y-123594595D01*
X68381312Y-122802683D01*
X68313323Y-122561740D01*
X68146779Y-122502468D01*
X68372915Y-122409031D01*
X68482766Y-122299371D01*
X68732199Y-122299371D01*
X68760170Y-122849648D01*
X68916940Y-123228123D01*
X69157883Y-123296112D01*
X69949795Y-122504200D01*
X69157883Y-121712288D01*
X68916940Y-121780277D01*
X68732199Y-122299371D01*
X68482766Y-122299371D01*
X68762861Y-122019764D01*
X68974159Y-121510902D01*
X68974640Y-120959915D01*
X68764231Y-120450685D01*
X68374964Y-120060739D01*
X68142530Y-119964224D01*
X68372915Y-119869031D01*
X68762861Y-119479764D01*
X68974159Y-118970902D01*
X68974640Y-118419915D01*
X68932622Y-118318224D01*
X69386843Y-118772445D01*
X69345885Y-118789369D01*
X68955939Y-119178636D01*
X68744641Y-119687498D01*
X68744160Y-120238485D01*
X68954569Y-120747715D01*
X69343836Y-121137661D01*
X69560379Y-121227577D01*
X69405477Y-121291740D01*
X69337488Y-121532683D01*
X70129400Y-122324595D01*
X70143543Y-122310453D01*
X70323148Y-122490058D01*
X70309005Y-122504200D01*
X70323148Y-122518343D01*
X70143543Y-122697948D01*
X70129400Y-122683805D01*
X69337488Y-123475717D01*
X69405477Y-123716660D01*
X69572021Y-123775932D01*
X69345885Y-123869369D01*
X68955939Y-124258636D01*
X68744641Y-124767498D01*
X68744160Y-125318485D01*
X68954569Y-125827715D01*
X69343836Y-126217661D01*
X69576270Y-126314176D01*
X69345885Y-126409369D01*
X68955939Y-126798636D01*
X68744641Y-127307498D01*
X68744160Y-127858485D01*
X68954569Y-128367715D01*
X69343836Y-128757661D01*
X69852698Y-128968959D01*
X70403685Y-128969440D01*
X70912915Y-128759031D01*
X71063333Y-128608874D01*
X76831570Y-128608874D01*
X77383800Y-129945372D01*
X78405449Y-130968806D01*
X79740982Y-131523368D01*
X81187074Y-131524630D01*
X82523572Y-130972400D01*
X83547006Y-129950751D01*
X84101568Y-128615218D01*
X84102686Y-127333915D01*
X88771230Y-127333915D01*
X89095580Y-128118900D01*
X89695641Y-128720009D01*
X90480059Y-129045728D01*
X91329415Y-129046470D01*
X92114400Y-128722120D01*
X92715509Y-128122059D01*
X93041228Y-127337641D01*
X93041231Y-127333915D01*
X100455230Y-127333915D01*
X100779580Y-128118900D01*
X101379641Y-128720009D01*
X102164059Y-129045728D01*
X103013415Y-129046470D01*
X103798400Y-128722120D01*
X103911843Y-128608874D01*
X112213770Y-128608874D01*
X112766000Y-129945372D01*
X113787649Y-130968806D01*
X115123182Y-131523368D01*
X116569274Y-131524630D01*
X117905772Y-130972400D01*
X118929206Y-129950751D01*
X119483768Y-128615218D01*
X119485030Y-127169126D01*
X118932800Y-125832628D01*
X117911151Y-124809194D01*
X116575618Y-124254632D01*
X115129526Y-124253370D01*
X113793028Y-124805600D01*
X112769594Y-125827249D01*
X112215032Y-127162782D01*
X112213770Y-128608874D01*
X103911843Y-128608874D01*
X104399509Y-128122059D01*
X104725228Y-127337641D01*
X104725970Y-126488285D01*
X104401620Y-125703300D01*
X103801559Y-125102191D01*
X103017141Y-124776472D01*
X102167785Y-124775730D01*
X101382800Y-125100080D01*
X100781691Y-125700141D01*
X100455972Y-126484559D01*
X100455230Y-127333915D01*
X93041231Y-127333915D01*
X93041970Y-126488285D01*
X92717620Y-125703300D01*
X92117559Y-125102191D01*
X91333141Y-124776472D01*
X90483785Y-124775730D01*
X89698800Y-125100080D01*
X89097691Y-125700141D01*
X88771972Y-126484559D01*
X88771230Y-127333915D01*
X84102686Y-127333915D01*
X84102830Y-127169126D01*
X83550600Y-125832628D01*
X82528951Y-124809194D01*
X81193418Y-124254632D01*
X79747326Y-124253370D01*
X78410828Y-124805600D01*
X77387394Y-125827249D01*
X76832832Y-127162782D01*
X76831570Y-128608874D01*
X71063333Y-128608874D01*
X71302861Y-128369764D01*
X71514159Y-127860902D01*
X71514640Y-127309915D01*
X71304231Y-126800685D01*
X70914964Y-126410739D01*
X70682530Y-126314224D01*
X70912915Y-126219031D01*
X71302861Y-125829764D01*
X71514159Y-125320902D01*
X71514183Y-125293019D01*
X71930451Y-124876751D01*
X72095198Y-124630189D01*
X72153050Y-124339350D01*
X72153050Y-119790052D01*
X72488903Y-119454200D01*
X83947000Y-119454200D01*
X84237839Y-119396348D01*
X84484401Y-119231601D01*
X86979602Y-116736400D01*
X87376000Y-116736400D01*
X87666839Y-116678548D01*
X87812391Y-116581293D01*
X87891367Y-116581362D01*
X88235143Y-116439317D01*
X88498392Y-116176527D01*
X88641038Y-115832999D01*
X88641362Y-115461033D01*
X88499317Y-115117257D01*
X88236527Y-114854008D01*
X87894398Y-114711943D01*
X87793197Y-114467017D01*
X87530407Y-114203768D01*
X87186879Y-114061122D01*
X86814913Y-114060798D01*
X86471137Y-114202843D01*
X86207888Y-114465633D01*
X86065242Y-114809161D01*
X86065170Y-114891628D01*
X83479798Y-117477000D01*
X70241002Y-117477000D01*
X69447601Y-116683599D01*
X69201039Y-116518852D01*
X68910200Y-116461000D01*
X67081400Y-116461000D01*
X66790561Y-116518852D01*
X66543999Y-116683599D01*
X65578799Y-117648799D01*
X65414052Y-117895361D01*
X65356200Y-118186200D01*
X62726733Y-118186200D01*
X62866028Y-117850741D01*
X62866770Y-117001385D01*
X62542420Y-116216400D01*
X61942359Y-115615291D01*
X61157941Y-115289572D01*
X60308585Y-115288830D01*
X59523600Y-115613180D01*
X59364069Y-115772433D01*
X59364400Y-115392312D01*
X59414863Y-115270784D01*
X59415531Y-114505127D01*
X59571241Y-114661109D01*
X60355659Y-114986828D01*
X61205015Y-114987570D01*
X61990000Y-114663220D01*
X62591109Y-114063159D01*
X62916828Y-113278741D01*
X62917570Y-112429385D01*
X62593220Y-111644400D01*
X61993159Y-111043291D01*
X61208741Y-110717572D01*
X60359385Y-110716830D01*
X59574400Y-111041180D01*
X58973291Y-111641241D01*
X58647572Y-112425659D01*
X58646830Y-113275015D01*
X58674295Y-113341486D01*
X58577721Y-113244743D01*
X57866784Y-112949537D01*
X57096993Y-112948865D01*
X56463000Y-113210825D01*
X56463000Y-110332485D01*
X66254960Y-110332485D01*
X66465369Y-110841715D01*
X66854636Y-111231661D01*
X67363498Y-111442959D01*
X67914485Y-111443440D01*
X68423715Y-111233031D01*
X68813661Y-110843764D01*
X69024959Y-110334902D01*
X69025440Y-109783915D01*
X68815031Y-109274685D01*
X68603201Y-109062485D01*
X68794960Y-109062485D01*
X69005369Y-109571715D01*
X69394636Y-109961661D01*
X69627070Y-110058176D01*
X69396685Y-110153369D01*
X69006739Y-110542636D01*
X68795441Y-111051498D01*
X68794960Y-111602485D01*
X69005369Y-112111715D01*
X69394636Y-112501661D01*
X69903498Y-112712959D01*
X70454485Y-112713440D01*
X70963715Y-112503031D01*
X71353661Y-112113764D01*
X71564959Y-111604902D01*
X71565440Y-111053915D01*
X71355031Y-110544685D01*
X70965764Y-110154739D01*
X70733330Y-110058224D01*
X70963715Y-109963031D01*
X71353661Y-109573764D01*
X71564959Y-109064902D01*
X71565404Y-108555022D01*
X75266584Y-108555022D01*
X75487353Y-108925743D01*
X76459012Y-109319119D01*
X77507247Y-109310713D01*
X78436647Y-108925743D01*
X78657416Y-108555022D01*
X80346584Y-108555022D01*
X80567353Y-108925743D01*
X81539012Y-109319119D01*
X82587247Y-109310713D01*
X83516647Y-108925743D01*
X83737416Y-108555022D01*
X82042000Y-106859605D01*
X80346584Y-108555022D01*
X78657416Y-108555022D01*
X76962000Y-106859605D01*
X75266584Y-108555022D01*
X71565404Y-108555022D01*
X71565440Y-108513915D01*
X71355031Y-108004685D01*
X70965764Y-107614739D01*
X70749221Y-107524823D01*
X70904123Y-107460660D01*
X70972112Y-107219717D01*
X70180200Y-106427805D01*
X69388288Y-107219717D01*
X69456277Y-107460660D01*
X69622821Y-107519932D01*
X69396685Y-107613369D01*
X69006739Y-108002636D01*
X68795441Y-108511498D01*
X68794960Y-109062485D01*
X68603201Y-109062485D01*
X68425764Y-108884739D01*
X68209221Y-108794823D01*
X68364123Y-108730660D01*
X68432112Y-108489717D01*
X67640200Y-107697805D01*
X66848288Y-108489717D01*
X66916277Y-108730660D01*
X67082821Y-108789932D01*
X66856685Y-108883369D01*
X66466739Y-109272636D01*
X66255441Y-109781498D01*
X66254960Y-110332485D01*
X56463000Y-110332485D01*
X56463000Y-107313371D01*
X66242999Y-107313371D01*
X66270970Y-107863648D01*
X66427740Y-108242123D01*
X66668683Y-108310112D01*
X67460595Y-107518200D01*
X67819805Y-107518200D01*
X68611717Y-108310112D01*
X68852660Y-108242123D01*
X69037401Y-107723029D01*
X69009430Y-107172752D01*
X68852660Y-106794277D01*
X68611717Y-106726288D01*
X67819805Y-107518200D01*
X67460595Y-107518200D01*
X66668683Y-106726288D01*
X66427740Y-106794277D01*
X66242999Y-107313371D01*
X56463000Y-107313371D01*
X56463000Y-100809009D01*
X57093616Y-101070863D01*
X57863407Y-101071535D01*
X58574858Y-100777570D01*
X58673583Y-100679017D01*
X58647572Y-100741659D01*
X58646830Y-101591015D01*
X58971180Y-102376000D01*
X59571241Y-102977109D01*
X60355659Y-103302828D01*
X61205015Y-103303570D01*
X61990000Y-102979220D01*
X62591109Y-102379159D01*
X62916828Y-101594741D01*
X62917222Y-101142800D01*
X65407000Y-101142800D01*
X65407000Y-103505000D01*
X65464852Y-103795839D01*
X65629599Y-104042401D01*
X66265198Y-104678000D01*
X66255441Y-104701498D01*
X66254960Y-105252485D01*
X66465369Y-105761715D01*
X66854636Y-106151661D01*
X67071179Y-106241577D01*
X66916277Y-106305740D01*
X66848288Y-106546683D01*
X67640200Y-107338595D01*
X68432112Y-106546683D01*
X68364123Y-106305740D01*
X68197579Y-106246468D01*
X68423715Y-106153031D01*
X68533566Y-106043371D01*
X68782999Y-106043371D01*
X68810970Y-106593648D01*
X68967740Y-106972123D01*
X69208683Y-107040112D01*
X70000595Y-106248200D01*
X70359805Y-106248200D01*
X71151717Y-107040112D01*
X71392660Y-106972123D01*
X71577401Y-106453029D01*
X71563371Y-106177012D01*
X74322881Y-106177012D01*
X74331287Y-107225247D01*
X74716257Y-108154647D01*
X75086978Y-108375416D01*
X76782395Y-106680000D01*
X77141605Y-106680000D01*
X78837022Y-108375416D01*
X79207743Y-108154647D01*
X79498636Y-107436126D01*
X79796257Y-108154647D01*
X80166978Y-108375416D01*
X81862395Y-106680000D01*
X82221605Y-106680000D01*
X83917022Y-108375416D01*
X84287743Y-108154647D01*
X84681119Y-107182988D01*
X84672713Y-106134753D01*
X84287743Y-105205353D01*
X83917022Y-104984584D01*
X82221605Y-106680000D01*
X81862395Y-106680000D01*
X80166978Y-104984584D01*
X79796257Y-105205353D01*
X79505364Y-105923874D01*
X79207743Y-105205353D01*
X78837022Y-104984584D01*
X77141605Y-106680000D01*
X76782395Y-106680000D01*
X75086978Y-104984584D01*
X74716257Y-105205353D01*
X74322881Y-106177012D01*
X71563371Y-106177012D01*
X71549430Y-105902752D01*
X71392660Y-105524277D01*
X71151717Y-105456288D01*
X70359805Y-106248200D01*
X70000595Y-106248200D01*
X69208683Y-105456288D01*
X68967740Y-105524277D01*
X68782999Y-106043371D01*
X68533566Y-106043371D01*
X68813661Y-105763764D01*
X69024959Y-105254902D01*
X69025440Y-104703915D01*
X68815031Y-104194685D01*
X68425764Y-103804739D01*
X68193330Y-103708224D01*
X68423715Y-103613031D01*
X68813661Y-103223764D01*
X69024959Y-102714902D01*
X69025440Y-102163915D01*
X68815031Y-101654685D01*
X68425764Y-101264739D01*
X67916902Y-101053441D01*
X67365915Y-101052960D01*
X67307509Y-101077093D01*
X67548602Y-100836000D01*
X71976432Y-100836000D01*
X71903399Y-100884799D01*
X70462452Y-102325746D01*
X70456902Y-102323441D01*
X69905915Y-102322960D01*
X69396685Y-102533369D01*
X69006739Y-102922636D01*
X68795441Y-103431498D01*
X68794960Y-103982485D01*
X69005369Y-104491715D01*
X69394636Y-104881661D01*
X69611179Y-104971577D01*
X69456277Y-105035740D01*
X69388288Y-105276683D01*
X70180200Y-106068595D01*
X70972112Y-105276683D01*
X70904123Y-105035740D01*
X70737579Y-104976468D01*
X70963715Y-104883031D01*
X71041904Y-104804978D01*
X75266584Y-104804978D01*
X76962000Y-106500395D01*
X78657416Y-104804978D01*
X80346584Y-104804978D01*
X82042000Y-106500395D01*
X83737416Y-104804978D01*
X83516647Y-104434257D01*
X82544988Y-104040881D01*
X81496753Y-104049287D01*
X80567353Y-104434257D01*
X80346584Y-104804978D01*
X78657416Y-104804978D01*
X78436647Y-104434257D01*
X77464988Y-104040881D01*
X76416753Y-104049287D01*
X75487353Y-104434257D01*
X75266584Y-104804978D01*
X71041904Y-104804978D01*
X71353661Y-104493764D01*
X71564959Y-103984902D01*
X71565440Y-103433915D01*
X71547443Y-103390359D01*
X72755602Y-102182200D01*
X73376937Y-102182200D01*
X73409073Y-102214392D01*
X73752601Y-102357038D01*
X74124567Y-102357362D01*
X74468343Y-102215317D01*
X74731592Y-101952527D01*
X74874238Y-101608999D01*
X74874562Y-101237033D01*
X74732517Y-100893257D01*
X74675360Y-100836000D01*
X78543653Y-100836000D01*
X78658083Y-101112943D01*
X78920873Y-101376192D01*
X79264401Y-101518838D01*
X79636367Y-101519162D01*
X79980143Y-101377117D01*
X80243392Y-101114327D01*
X80386038Y-100770799D01*
X80386362Y-100398833D01*
X80244317Y-100055057D01*
X79981527Y-99791808D01*
X79637999Y-99649162D01*
X79591123Y-99649121D01*
X79480601Y-99538599D01*
X79234039Y-99373852D01*
X78943200Y-99316000D01*
X67233800Y-99316000D01*
X66942961Y-99373852D01*
X66696399Y-99538599D01*
X65629599Y-100605399D01*
X65464852Y-100851961D01*
X65407000Y-101142800D01*
X62917222Y-101142800D01*
X62917570Y-100745385D01*
X62593220Y-99960400D01*
X61993159Y-99359291D01*
X61208741Y-99033572D01*
X60359385Y-99032830D01*
X59574400Y-99357180D01*
X59414869Y-99516433D01*
X59415535Y-98752993D01*
X59415092Y-98751922D01*
X59415531Y-98249127D01*
X59571241Y-98405109D01*
X60355659Y-98730828D01*
X61205015Y-98731570D01*
X61990000Y-98407220D01*
X62591109Y-97807159D01*
X62916828Y-97022741D01*
X62917570Y-96173385D01*
X62593220Y-95388400D01*
X61993159Y-94787291D01*
X61208741Y-94461572D01*
X60359385Y-94460830D01*
X59574400Y-94785180D01*
X58973291Y-95385241D01*
X58647572Y-96169659D01*
X58646830Y-97019015D01*
X58674295Y-97085486D01*
X58577721Y-96988743D01*
X57866784Y-96693537D01*
X57096993Y-96692865D01*
X56463000Y-96954825D01*
X56463000Y-94076485D01*
X66254960Y-94076485D01*
X66465369Y-94585715D01*
X66854636Y-94975661D01*
X67363498Y-95186959D01*
X67914485Y-95187440D01*
X68423715Y-94977031D01*
X68813661Y-94587764D01*
X69024959Y-94078902D01*
X69025440Y-93527915D01*
X68815031Y-93018685D01*
X68603201Y-92806485D01*
X68794960Y-92806485D01*
X69005369Y-93315715D01*
X69394636Y-93705661D01*
X69627070Y-93802176D01*
X69396685Y-93897369D01*
X69006739Y-94286636D01*
X68795441Y-94795498D01*
X68794960Y-95346485D01*
X69005369Y-95855715D01*
X69394636Y-96245661D01*
X69903498Y-96456959D01*
X70454485Y-96457440D01*
X70963715Y-96247031D01*
X71199155Y-96012000D01*
X73490703Y-96012000D01*
X73616378Y-96643810D01*
X73974270Y-97179433D01*
X74509893Y-97537325D01*
X75141703Y-97663000D01*
X76242297Y-97663000D01*
X76874107Y-97537325D01*
X77409730Y-97179433D01*
X77767622Y-96643810D01*
X77893297Y-96012000D01*
X77767622Y-95380190D01*
X77409730Y-94844567D01*
X76874107Y-94486675D01*
X76242297Y-94361000D01*
X75141703Y-94361000D01*
X74509893Y-94486675D01*
X73974270Y-94844567D01*
X73616378Y-95380190D01*
X73490703Y-96012000D01*
X71199155Y-96012000D01*
X71353661Y-95857764D01*
X71564959Y-95348902D01*
X71565440Y-94797915D01*
X71355031Y-94288685D01*
X70965764Y-93898739D01*
X70733330Y-93802224D01*
X70963715Y-93707031D01*
X71353661Y-93317764D01*
X71564959Y-92808902D01*
X71565440Y-92257915D01*
X71355031Y-91748685D01*
X70965764Y-91358739D01*
X70749221Y-91268823D01*
X70904123Y-91204660D01*
X70972112Y-90963717D01*
X70180200Y-90171805D01*
X69388288Y-90963717D01*
X69456277Y-91204660D01*
X69622821Y-91263932D01*
X69396685Y-91357369D01*
X69006739Y-91746636D01*
X68795441Y-92255498D01*
X68794960Y-92806485D01*
X68603201Y-92806485D01*
X68425764Y-92628739D01*
X68209221Y-92538823D01*
X68364123Y-92474660D01*
X68432112Y-92233717D01*
X67640200Y-91441805D01*
X66848288Y-92233717D01*
X66916277Y-92474660D01*
X67082821Y-92533932D01*
X66856685Y-92627369D01*
X66466739Y-93016636D01*
X66255441Y-93525498D01*
X66254960Y-94076485D01*
X56463000Y-94076485D01*
X56463000Y-91057371D01*
X66242999Y-91057371D01*
X66270970Y-91607648D01*
X66427740Y-91986123D01*
X66668683Y-92054112D01*
X67460595Y-91262200D01*
X67819805Y-91262200D01*
X68611717Y-92054112D01*
X68852660Y-91986123D01*
X69037401Y-91467029D01*
X69009430Y-90916752D01*
X68852660Y-90538277D01*
X68611717Y-90470288D01*
X67819805Y-91262200D01*
X67460595Y-91262200D01*
X66668683Y-90470288D01*
X66427740Y-90538277D01*
X66242999Y-91057371D01*
X56463000Y-91057371D01*
X56463000Y-84553009D01*
X57093616Y-84814863D01*
X57863407Y-84815535D01*
X58574858Y-84521570D01*
X58673583Y-84423017D01*
X58647572Y-84485659D01*
X58646830Y-85335015D01*
X58971180Y-86120000D01*
X59571241Y-86721109D01*
X60355659Y-87046828D01*
X61205015Y-87047570D01*
X61990000Y-86723220D01*
X62257200Y-86456485D01*
X66254960Y-86456485D01*
X66465369Y-86965715D01*
X66854636Y-87355661D01*
X67087070Y-87452176D01*
X66856685Y-87547369D01*
X66466739Y-87936636D01*
X66255441Y-88445498D01*
X66254960Y-88996485D01*
X66465369Y-89505715D01*
X66854636Y-89895661D01*
X67071179Y-89985577D01*
X66916277Y-90049740D01*
X66848288Y-90290683D01*
X67640200Y-91082595D01*
X68432112Y-90290683D01*
X68364123Y-90049740D01*
X68197579Y-89990468D01*
X68423715Y-89897031D01*
X68533566Y-89787371D01*
X68782999Y-89787371D01*
X68810970Y-90337648D01*
X68967740Y-90716123D01*
X69208683Y-90784112D01*
X70000595Y-89992200D01*
X69208683Y-89200288D01*
X68967740Y-89268277D01*
X68782999Y-89787371D01*
X68533566Y-89787371D01*
X68813661Y-89507764D01*
X69024959Y-88998902D01*
X69025440Y-88447915D01*
X68815031Y-87938685D01*
X68425764Y-87548739D01*
X68193330Y-87452224D01*
X68423715Y-87357031D01*
X68813661Y-86967764D01*
X68829550Y-86929500D01*
X68897588Y-86929500D01*
X68795441Y-87175498D01*
X68794960Y-87726485D01*
X69005369Y-88235715D01*
X69394636Y-88625661D01*
X69611179Y-88715577D01*
X69456277Y-88779740D01*
X69388288Y-89020683D01*
X70180200Y-89812595D01*
X70194343Y-89798453D01*
X70373948Y-89978058D01*
X70359805Y-89992200D01*
X71151717Y-90784112D01*
X71392660Y-90716123D01*
X71577401Y-90197029D01*
X71562790Y-89909592D01*
X71757000Y-90103802D01*
X71757000Y-90919765D01*
X71734562Y-90973801D01*
X71734238Y-91345767D01*
X71876283Y-91689543D01*
X72139073Y-91952792D01*
X72482601Y-92095438D01*
X72854567Y-92095762D01*
X73198343Y-91953717D01*
X73461592Y-91690927D01*
X73604238Y-91347399D01*
X73604337Y-91233865D01*
X73706343Y-91191717D01*
X73969592Y-90928927D01*
X74112238Y-90585399D01*
X74112562Y-90213433D01*
X73970517Y-89869657D01*
X73937400Y-89836482D01*
X73937400Y-89535000D01*
X73892721Y-89310387D01*
X73974270Y-89432433D01*
X74509893Y-89790325D01*
X75141703Y-89916000D01*
X76242297Y-89916000D01*
X76874107Y-89790325D01*
X77409730Y-89432433D01*
X77767622Y-88896810D01*
X77893297Y-88265000D01*
X77767622Y-87633190D01*
X77409730Y-87097567D01*
X76874107Y-86739675D01*
X76242297Y-86614000D01*
X75141703Y-86614000D01*
X74509893Y-86739675D01*
X73974270Y-87097567D01*
X73616378Y-87633190D01*
X73490703Y-88265000D01*
X73616378Y-88896810D01*
X73621142Y-88903940D01*
X72413400Y-87696198D01*
X72413400Y-86791800D01*
X72355548Y-86500961D01*
X72190801Y-86254399D01*
X71568501Y-85632099D01*
X71321939Y-85467352D01*
X71031100Y-85409500D01*
X68819500Y-85409500D01*
X68815031Y-85398685D01*
X68425764Y-85008739D01*
X67916902Y-84797441D01*
X67365915Y-84796960D01*
X66856685Y-85007369D01*
X66466739Y-85396636D01*
X66255441Y-85905498D01*
X66254960Y-86456485D01*
X62257200Y-86456485D01*
X62591109Y-86123159D01*
X62916828Y-85338741D01*
X62917570Y-84489385D01*
X62593220Y-83704400D01*
X61993159Y-83103291D01*
X61208741Y-82777572D01*
X60359385Y-82776830D01*
X59574400Y-83101180D01*
X59414869Y-83260433D01*
X59415535Y-82496993D01*
X59415092Y-82495922D01*
X59415531Y-81993127D01*
X59571241Y-82149109D01*
X60355659Y-82474828D01*
X61205015Y-82475570D01*
X61990000Y-82151220D01*
X62205221Y-81936374D01*
X77961870Y-81936374D01*
X78514100Y-83272872D01*
X79535749Y-84296306D01*
X80871282Y-84850868D01*
X82317374Y-84852130D01*
X83653872Y-84299900D01*
X84677306Y-83278251D01*
X85231868Y-81942718D01*
X85233130Y-80496626D01*
X84680900Y-79160128D01*
X83659251Y-78136694D01*
X82323718Y-77582132D01*
X80877626Y-77580870D01*
X79541128Y-78133100D01*
X78517694Y-79154749D01*
X77963132Y-80490282D01*
X77961870Y-81936374D01*
X62205221Y-81936374D01*
X62591109Y-81551159D01*
X62916828Y-80766741D01*
X62917570Y-79917385D01*
X62593220Y-79132400D01*
X61993159Y-78531291D01*
X61208741Y-78205572D01*
X60359385Y-78204830D01*
X59574400Y-78529180D01*
X58973291Y-79129241D01*
X58647572Y-79913659D01*
X58646830Y-80763015D01*
X58674295Y-80829486D01*
X58577721Y-80732743D01*
X57866784Y-80437537D01*
X57096993Y-80436865D01*
X56463000Y-80698825D01*
X56463000Y-77820485D01*
X66254960Y-77820485D01*
X66465369Y-78329715D01*
X66854636Y-78719661D01*
X67363498Y-78930959D01*
X67914485Y-78931440D01*
X68423715Y-78721031D01*
X68813661Y-78331764D01*
X69024959Y-77822902D01*
X69025440Y-77271915D01*
X68815031Y-76762685D01*
X68603201Y-76550485D01*
X68794960Y-76550485D01*
X69005369Y-77059715D01*
X69394636Y-77449661D01*
X69627070Y-77546176D01*
X69396685Y-77641369D01*
X69006739Y-78030636D01*
X68795441Y-78539498D01*
X68794960Y-79090485D01*
X69005369Y-79599715D01*
X69394636Y-79989661D01*
X69903498Y-80200959D01*
X70454485Y-80201440D01*
X70963715Y-79991031D01*
X71353661Y-79601764D01*
X71564959Y-79092902D01*
X71565440Y-78541915D01*
X71355031Y-78032685D01*
X70965764Y-77642739D01*
X70733330Y-77546224D01*
X70963715Y-77451031D01*
X71353661Y-77061764D01*
X71564959Y-76552902D01*
X71565369Y-76082532D01*
X73957073Y-76082532D01*
X74055736Y-76349387D01*
X74665461Y-76575908D01*
X75315460Y-76551856D01*
X75804264Y-76349387D01*
X75902927Y-76082532D01*
X74930000Y-75109605D01*
X73957073Y-76082532D01*
X71565369Y-76082532D01*
X71565440Y-76001915D01*
X71355031Y-75492685D01*
X70965764Y-75102739D01*
X70749221Y-75012823D01*
X70904123Y-74948660D01*
X70972112Y-74707717D01*
X70929856Y-74665461D01*
X73284092Y-74665461D01*
X73308144Y-75315460D01*
X73510613Y-75804264D01*
X73777468Y-75902927D01*
X74750395Y-74930000D01*
X75109605Y-74930000D01*
X76082532Y-75902927D01*
X76349387Y-75804264D01*
X76449414Y-75535022D01*
X79711584Y-75535022D01*
X79932353Y-75905743D01*
X80904012Y-76299119D01*
X81952247Y-76290713D01*
X82881647Y-75905743D01*
X83102416Y-75535022D01*
X81407000Y-73839605D01*
X79711584Y-75535022D01*
X76449414Y-75535022D01*
X76575908Y-75194539D01*
X76551856Y-74544540D01*
X76349387Y-74055736D01*
X76082532Y-73957073D01*
X75109605Y-74930000D01*
X74750395Y-74930000D01*
X73777468Y-73957073D01*
X73510613Y-74055736D01*
X73284092Y-74665461D01*
X70929856Y-74665461D01*
X70180200Y-73915805D01*
X69388288Y-74707717D01*
X69456277Y-74948660D01*
X69622821Y-75007932D01*
X69396685Y-75101369D01*
X69006739Y-75490636D01*
X68795441Y-75999498D01*
X68794960Y-76550485D01*
X68603201Y-76550485D01*
X68425764Y-76372739D01*
X68209221Y-76282823D01*
X68364123Y-76218660D01*
X68432112Y-75977717D01*
X67640200Y-75185805D01*
X66848288Y-75977717D01*
X66916277Y-76218660D01*
X67082821Y-76277932D01*
X66856685Y-76371369D01*
X66466739Y-76760636D01*
X66255441Y-77269498D01*
X66254960Y-77820485D01*
X56463000Y-77820485D01*
X56463000Y-74801371D01*
X66242999Y-74801371D01*
X66270970Y-75351648D01*
X66427740Y-75730123D01*
X66668683Y-75798112D01*
X67460595Y-75006200D01*
X67819805Y-75006200D01*
X68611717Y-75798112D01*
X68852660Y-75730123D01*
X69037401Y-75211029D01*
X69009430Y-74660752D01*
X68852660Y-74282277D01*
X68611717Y-74214288D01*
X67819805Y-75006200D01*
X67460595Y-75006200D01*
X66668683Y-74214288D01*
X66427740Y-74282277D01*
X66242999Y-74801371D01*
X56463000Y-74801371D01*
X56463000Y-68297009D01*
X57093616Y-68558863D01*
X57863407Y-68559535D01*
X58574858Y-68265570D01*
X58673583Y-68167017D01*
X58647572Y-68229659D01*
X58646830Y-69079015D01*
X58971180Y-69864000D01*
X59571241Y-70465109D01*
X60355659Y-70790828D01*
X61205015Y-70791570D01*
X61990000Y-70467220D01*
X62257200Y-70200485D01*
X66254960Y-70200485D01*
X66465369Y-70709715D01*
X66854636Y-71099661D01*
X67087070Y-71196176D01*
X66856685Y-71291369D01*
X66466739Y-71680636D01*
X66255441Y-72189498D01*
X66254960Y-72740485D01*
X66465369Y-73249715D01*
X66854636Y-73639661D01*
X67071179Y-73729577D01*
X66916277Y-73793740D01*
X66848288Y-74034683D01*
X67640200Y-74826595D01*
X68432112Y-74034683D01*
X68364123Y-73793740D01*
X68197579Y-73734468D01*
X68423715Y-73641031D01*
X68533566Y-73531371D01*
X68782999Y-73531371D01*
X68810970Y-74081648D01*
X68967740Y-74460123D01*
X69208683Y-74528112D01*
X70000595Y-73736200D01*
X70359805Y-73736200D01*
X71151717Y-74528112D01*
X71392660Y-74460123D01*
X71577401Y-73941029D01*
X71569088Y-73777468D01*
X73957073Y-73777468D01*
X74930000Y-74750395D01*
X75902927Y-73777468D01*
X75804264Y-73510613D01*
X75194539Y-73284092D01*
X74544540Y-73308144D01*
X74055736Y-73510613D01*
X73957073Y-73777468D01*
X71569088Y-73777468D01*
X71549430Y-73390752D01*
X71452612Y-73157012D01*
X78767881Y-73157012D01*
X78776287Y-74205247D01*
X79161257Y-75134647D01*
X79531978Y-75355416D01*
X81227395Y-73660000D01*
X79531978Y-71964584D01*
X79161257Y-72185353D01*
X78767881Y-73157012D01*
X71452612Y-73157012D01*
X71392660Y-73012277D01*
X71151717Y-72944288D01*
X70359805Y-73736200D01*
X70000595Y-73736200D01*
X69208683Y-72944288D01*
X68967740Y-73012277D01*
X68782999Y-73531371D01*
X68533566Y-73531371D01*
X68813661Y-73251764D01*
X69024959Y-72742902D01*
X69025440Y-72191915D01*
X68815031Y-71682685D01*
X68603201Y-71470485D01*
X68794960Y-71470485D01*
X69005369Y-71979715D01*
X69394636Y-72369661D01*
X69611179Y-72459577D01*
X69456277Y-72523740D01*
X69388288Y-72764683D01*
X70180200Y-73556595D01*
X70972112Y-72764683D01*
X70904123Y-72523740D01*
X70737579Y-72464468D01*
X70963715Y-72371031D01*
X71353661Y-71981764D01*
X71435373Y-71784978D01*
X79711584Y-71784978D01*
X81407000Y-73480395D01*
X83102416Y-71784978D01*
X82881647Y-71414257D01*
X81909988Y-71020881D01*
X80861753Y-71029287D01*
X79932353Y-71414257D01*
X79711584Y-71784978D01*
X71435373Y-71784978D01*
X71564959Y-71472902D01*
X71565440Y-70921915D01*
X71355031Y-70412685D01*
X70965764Y-70022739D01*
X70456902Y-69811441D01*
X69905915Y-69810960D01*
X69396685Y-70021369D01*
X69006739Y-70410636D01*
X68795441Y-70919498D01*
X68794960Y-71470485D01*
X68603201Y-71470485D01*
X68425764Y-71292739D01*
X68193330Y-71196224D01*
X68423715Y-71101031D01*
X68813661Y-70711764D01*
X69024959Y-70202902D01*
X69025440Y-69651915D01*
X68815031Y-69142685D01*
X68425764Y-68752739D01*
X67916902Y-68541441D01*
X67365915Y-68540960D01*
X66856685Y-68751369D01*
X66466739Y-69140636D01*
X66255441Y-69649498D01*
X66254960Y-70200485D01*
X62257200Y-70200485D01*
X62591109Y-69867159D01*
X62916828Y-69082741D01*
X62917570Y-68233385D01*
X62593220Y-67448400D01*
X61993159Y-66847291D01*
X61208741Y-66521572D01*
X60359385Y-66520830D01*
X59574400Y-66845180D01*
X59414869Y-67004433D01*
X59415535Y-66240993D01*
X59415092Y-66239922D01*
X59415531Y-65737127D01*
X59571241Y-65893109D01*
X60355659Y-66218828D01*
X61205015Y-66219570D01*
X61990000Y-65895220D01*
X62591109Y-65295159D01*
X62916828Y-64510741D01*
X62917570Y-63661385D01*
X62593220Y-62876400D01*
X61993159Y-62275291D01*
X61208741Y-61949572D01*
X60359385Y-61948830D01*
X59574400Y-62273180D01*
X58973291Y-62873241D01*
X58647572Y-63657659D01*
X58646830Y-64507015D01*
X58674295Y-64573486D01*
X58577721Y-64476743D01*
X57866784Y-64181537D01*
X57096993Y-64180865D01*
X56463000Y-64442825D01*
X56463000Y-61564485D01*
X66254960Y-61564485D01*
X66465369Y-62073715D01*
X66854636Y-62463661D01*
X67363498Y-62674959D01*
X67914485Y-62675440D01*
X68423715Y-62465031D01*
X68813661Y-62075764D01*
X69024959Y-61566902D01*
X69025440Y-61015915D01*
X68815031Y-60506685D01*
X68603201Y-60294485D01*
X68794960Y-60294485D01*
X69005369Y-60803715D01*
X69394636Y-61193661D01*
X69627070Y-61290176D01*
X69396685Y-61385369D01*
X69006739Y-61774636D01*
X68795441Y-62283498D01*
X68794960Y-62834485D01*
X69005369Y-63343715D01*
X69394636Y-63733661D01*
X69903498Y-63944959D01*
X70454485Y-63945440D01*
X70963715Y-63735031D01*
X71353661Y-63345764D01*
X71564959Y-62836902D01*
X71565020Y-62766000D01*
X80313560Y-62766000D01*
X80313560Y-66266000D01*
X80357838Y-66501317D01*
X80496910Y-66717441D01*
X80709110Y-66862431D01*
X80961000Y-66913440D01*
X82561000Y-66913440D01*
X82796317Y-66869162D01*
X83012441Y-66730090D01*
X83157431Y-66517890D01*
X83208440Y-66266000D01*
X83208440Y-64571951D01*
X83249603Y-64510346D01*
X83336000Y-64076000D01*
X83336000Y-62432038D01*
X83436317Y-62413162D01*
X83652441Y-62274090D01*
X83797431Y-62061890D01*
X83848440Y-61810000D01*
X83848440Y-60110000D01*
X83804162Y-59874683D01*
X83665090Y-59658559D01*
X83452890Y-59513569D01*
X83336000Y-59489898D01*
X83336000Y-58666000D01*
X86651868Y-58666000D01*
X87599851Y-59613983D01*
X87452890Y-59513569D01*
X87201000Y-59462560D01*
X85201000Y-59462560D01*
X84965683Y-59506838D01*
X84749559Y-59645910D01*
X84604569Y-59858110D01*
X84553560Y-60110000D01*
X84553560Y-61810000D01*
X84597838Y-62045317D01*
X84736910Y-62261441D01*
X84949110Y-62406431D01*
X85066000Y-62430102D01*
X85066000Y-64076000D01*
X85152397Y-64510346D01*
X85193560Y-64571951D01*
X85193560Y-66266000D01*
X85237838Y-66501317D01*
X85352000Y-66678730D01*
X85352000Y-71277898D01*
X84996342Y-71424853D01*
X84254458Y-72165443D01*
X83949101Y-72900825D01*
X83652743Y-72185353D01*
X83282022Y-71964584D01*
X81586605Y-73660000D01*
X83282022Y-75355416D01*
X83652743Y-75134647D01*
X83945969Y-74410363D01*
X84251853Y-75150658D01*
X84992443Y-75892542D01*
X85960567Y-76294542D01*
X87008834Y-76295457D01*
X87977658Y-75895147D01*
X88719542Y-75154557D01*
X89121542Y-74186433D01*
X89122457Y-73138166D01*
X88722147Y-72169342D01*
X87981557Y-71427458D01*
X87776000Y-71342103D01*
X87776000Y-66805018D01*
X87892441Y-66730090D01*
X88037431Y-66517890D01*
X88088440Y-66266000D01*
X88088440Y-62766000D01*
X88044162Y-62530683D01*
X87905090Y-62314559D01*
X87776000Y-62226356D01*
X87776000Y-62093255D01*
X87797431Y-62061890D01*
X87848440Y-61810000D01*
X87848440Y-60110000D01*
X87804162Y-59874683D01*
X87702385Y-59716517D01*
X91575000Y-63589132D01*
X91575000Y-73752796D01*
X91324722Y-74002637D01*
X91075284Y-74603352D01*
X91074716Y-75253795D01*
X91323106Y-75854943D01*
X91575000Y-76107278D01*
X91575000Y-76491867D01*
X88249834Y-79817034D01*
X88224434Y-79842434D01*
X87978397Y-80210655D01*
X87892000Y-80645000D01*
X87917400Y-80772694D01*
X87917400Y-90170000D01*
X88003797Y-90604346D01*
X88022906Y-90632944D01*
X88022760Y-90799885D01*
X88233169Y-91309115D01*
X88622436Y-91699061D01*
X89131298Y-91910359D01*
X89682285Y-91910840D01*
X90191515Y-91700431D01*
X90581461Y-91311164D01*
X90792759Y-90802302D01*
X90793240Y-90251315D01*
X90582831Y-89742085D01*
X90193564Y-89352139D01*
X90187400Y-89349579D01*
X90187400Y-81089732D01*
X93512567Y-77764566D01*
X93758604Y-77396345D01*
X93845000Y-76962000D01*
X93845000Y-76107204D01*
X94095278Y-75857363D01*
X94344716Y-75256648D01*
X94345284Y-74606205D01*
X94096894Y-74005057D01*
X93845000Y-73752722D01*
X93845000Y-63119000D01*
X93758603Y-62684654D01*
X93512566Y-62316434D01*
X87924566Y-56728434D01*
X87842847Y-56673831D01*
X87556346Y-56482397D01*
X87122000Y-56396000D01*
X84500831Y-56396000D01*
X84612461Y-56284564D01*
X84823759Y-55775702D01*
X84824240Y-55224715D01*
X84613831Y-54715485D01*
X84224564Y-54325539D01*
X83715702Y-54114241D01*
X83164715Y-54113760D01*
X82655485Y-54324169D01*
X82265539Y-54713436D01*
X82054241Y-55222298D01*
X82054192Y-55278676D01*
X81398434Y-55934434D01*
X81152397Y-56302654D01*
X81066000Y-56737000D01*
X81066000Y-59487962D01*
X80965683Y-59506838D01*
X80749559Y-59645910D01*
X80604569Y-59858110D01*
X80553560Y-60110000D01*
X80553560Y-61810000D01*
X80597838Y-62045317D01*
X80626000Y-62089082D01*
X80626000Y-62226982D01*
X80509559Y-62301910D01*
X80364569Y-62514110D01*
X80313560Y-62766000D01*
X71565020Y-62766000D01*
X71565440Y-62285915D01*
X71355031Y-61776685D01*
X70965764Y-61386739D01*
X70733330Y-61290224D01*
X70963715Y-61195031D01*
X71353661Y-60805764D01*
X71564959Y-60296902D01*
X71565440Y-59745915D01*
X71355031Y-59236685D01*
X70965764Y-58846739D01*
X70749221Y-58756823D01*
X70904123Y-58692660D01*
X70972112Y-58451717D01*
X70180200Y-57659805D01*
X69388288Y-58451717D01*
X69456277Y-58692660D01*
X69622821Y-58751932D01*
X69396685Y-58845369D01*
X69006739Y-59234636D01*
X68795441Y-59743498D01*
X68794960Y-60294485D01*
X68603201Y-60294485D01*
X68425764Y-60116739D01*
X68209221Y-60026823D01*
X68364123Y-59962660D01*
X68432112Y-59721717D01*
X67640200Y-58929805D01*
X66848288Y-59721717D01*
X66916277Y-59962660D01*
X67082821Y-60021932D01*
X66856685Y-60115369D01*
X66466739Y-60504636D01*
X66255441Y-61013498D01*
X66254960Y-61564485D01*
X56463000Y-61564485D01*
X56463000Y-58545371D01*
X66242999Y-58545371D01*
X66270970Y-59095648D01*
X66427740Y-59474123D01*
X66668683Y-59542112D01*
X67460595Y-58750200D01*
X67819805Y-58750200D01*
X68611717Y-59542112D01*
X68852660Y-59474123D01*
X69037401Y-58955029D01*
X69009430Y-58404752D01*
X68852660Y-58026277D01*
X68611717Y-57958288D01*
X67819805Y-58750200D01*
X67460595Y-58750200D01*
X66668683Y-57958288D01*
X66427740Y-58026277D01*
X66242999Y-58545371D01*
X56463000Y-58545371D01*
X56463000Y-52041009D01*
X57093616Y-52302863D01*
X57863407Y-52303535D01*
X58574858Y-52009570D01*
X58673583Y-51911017D01*
X58647572Y-51973659D01*
X58646830Y-52823015D01*
X58971180Y-53608000D01*
X59571241Y-54209109D01*
X60355659Y-54534828D01*
X61205015Y-54535570D01*
X61990000Y-54211220D01*
X62257200Y-53944485D01*
X66254960Y-53944485D01*
X66465369Y-54453715D01*
X66854636Y-54843661D01*
X67087070Y-54940176D01*
X66856685Y-55035369D01*
X66466739Y-55424636D01*
X66255441Y-55933498D01*
X66254960Y-56484485D01*
X66465369Y-56993715D01*
X66854636Y-57383661D01*
X67071179Y-57473577D01*
X66916277Y-57537740D01*
X66848288Y-57778683D01*
X67640200Y-58570595D01*
X68432112Y-57778683D01*
X68364123Y-57537740D01*
X68197579Y-57478468D01*
X68423715Y-57385031D01*
X68533566Y-57275371D01*
X68782999Y-57275371D01*
X68810970Y-57825648D01*
X68967740Y-58204123D01*
X69208683Y-58272112D01*
X70000595Y-57480200D01*
X70359805Y-57480200D01*
X71151717Y-58272112D01*
X71392660Y-58204123D01*
X71577401Y-57685029D01*
X71549430Y-57134752D01*
X71392660Y-56756277D01*
X71151717Y-56688288D01*
X70359805Y-57480200D01*
X70000595Y-57480200D01*
X69208683Y-56688288D01*
X68967740Y-56756277D01*
X68782999Y-57275371D01*
X68533566Y-57275371D01*
X68813661Y-56995764D01*
X69024959Y-56486902D01*
X69025440Y-55935915D01*
X68815031Y-55426685D01*
X68603201Y-55214485D01*
X68794960Y-55214485D01*
X69005369Y-55723715D01*
X69394636Y-56113661D01*
X69611179Y-56203577D01*
X69456277Y-56267740D01*
X69388288Y-56508683D01*
X70180200Y-57300595D01*
X70972112Y-56508683D01*
X70904123Y-56267740D01*
X70737579Y-56208468D01*
X70963715Y-56115031D01*
X71353661Y-55725764D01*
X71564959Y-55216902D01*
X71565440Y-54665915D01*
X71355031Y-54156685D01*
X70965764Y-53766739D01*
X70456902Y-53555441D01*
X69905915Y-53554960D01*
X69396685Y-53765369D01*
X69006739Y-54154636D01*
X68795441Y-54663498D01*
X68794960Y-55214485D01*
X68603201Y-55214485D01*
X68425764Y-55036739D01*
X68193330Y-54940224D01*
X68423715Y-54845031D01*
X68813661Y-54455764D01*
X69024959Y-53946902D01*
X69025440Y-53395915D01*
X68815031Y-52886685D01*
X68425764Y-52496739D01*
X67916902Y-52285441D01*
X67365915Y-52284960D01*
X66856685Y-52495369D01*
X66466739Y-52884636D01*
X66255441Y-53393498D01*
X66254960Y-53944485D01*
X62257200Y-53944485D01*
X62591109Y-53611159D01*
X62916828Y-52826741D01*
X62917570Y-51977385D01*
X62593220Y-51192400D01*
X61993159Y-50591291D01*
X61208741Y-50265572D01*
X60359385Y-50264830D01*
X59574400Y-50589180D01*
X59414869Y-50748433D01*
X59415535Y-49984993D01*
X59415092Y-49983922D01*
X59415531Y-49481127D01*
X59571241Y-49637109D01*
X60355659Y-49962828D01*
X61205015Y-49963570D01*
X61990000Y-49639220D01*
X62591109Y-49039159D01*
X62916828Y-48254741D01*
X62917570Y-47405385D01*
X62593220Y-46620400D01*
X61993159Y-46019291D01*
X61208741Y-45693572D01*
X60359385Y-45692830D01*
X59574400Y-46017180D01*
X58973291Y-46617241D01*
X58647572Y-47401659D01*
X58646830Y-48251015D01*
X58674295Y-48317486D01*
X58577721Y-48220743D01*
X57866784Y-47925537D01*
X57096993Y-47924865D01*
X56463000Y-48186825D01*
X56463000Y-42011600D01*
X62841600Y-42011600D01*
X62867000Y-42139293D01*
X62867000Y-44894500D01*
X62924852Y-45185339D01*
X63089599Y-45431901D01*
X66857478Y-49199780D01*
X66857438Y-49245267D01*
X66999483Y-49589043D01*
X67262273Y-49852292D01*
X67605801Y-49994938D01*
X67977767Y-49995262D01*
X68321543Y-49853217D01*
X68584792Y-49590427D01*
X68727438Y-49246899D01*
X68727762Y-48874933D01*
X68585717Y-48531157D01*
X68322927Y-48267908D01*
X67979399Y-48125262D01*
X67932523Y-48125221D01*
X65115787Y-45308485D01*
X66254960Y-45308485D01*
X66465369Y-45817715D01*
X66854636Y-46207661D01*
X67363498Y-46418959D01*
X67914485Y-46419440D01*
X68423715Y-46209031D01*
X68813661Y-45819764D01*
X69024959Y-45310902D01*
X69025440Y-44759915D01*
X68815031Y-44250685D01*
X68603201Y-44038485D01*
X68794960Y-44038485D01*
X69005369Y-44547715D01*
X69394636Y-44937661D01*
X69627070Y-45034176D01*
X69396685Y-45129369D01*
X69006739Y-45518636D01*
X68795441Y-46027498D01*
X68794960Y-46578485D01*
X69005369Y-47087715D01*
X69394636Y-47477661D01*
X69903498Y-47688959D01*
X70454485Y-47689440D01*
X70963715Y-47479031D01*
X71353661Y-47089764D01*
X71564959Y-46580902D01*
X71565440Y-46029915D01*
X71355031Y-45520685D01*
X70965764Y-45130739D01*
X70733330Y-45034224D01*
X70963715Y-44939031D01*
X71353661Y-44549764D01*
X71564959Y-44040902D01*
X71565440Y-43489915D01*
X71355031Y-42980685D01*
X70965764Y-42590739D01*
X70749221Y-42500823D01*
X70904123Y-42436660D01*
X70972112Y-42195717D01*
X70180200Y-41403805D01*
X69388288Y-42195717D01*
X69456277Y-42436660D01*
X69622821Y-42495932D01*
X69396685Y-42589369D01*
X69006739Y-42978636D01*
X68795441Y-43487498D01*
X68794960Y-44038485D01*
X68603201Y-44038485D01*
X68425764Y-43860739D01*
X68209221Y-43770823D01*
X68364123Y-43706660D01*
X68432112Y-43465717D01*
X67640200Y-42673805D01*
X66848288Y-43465717D01*
X66916277Y-43706660D01*
X67082821Y-43765932D01*
X66856685Y-43859369D01*
X66466739Y-44248636D01*
X66255441Y-44757498D01*
X66254960Y-45308485D01*
X65115787Y-45308485D01*
X64387000Y-44579698D01*
X64387000Y-42289371D01*
X66242999Y-42289371D01*
X66270970Y-42839648D01*
X66427740Y-43218123D01*
X66668683Y-43286112D01*
X67460595Y-42494200D01*
X67819805Y-42494200D01*
X68611717Y-43286112D01*
X68852660Y-43218123D01*
X69037401Y-42699029D01*
X69009430Y-42148752D01*
X68852660Y-41770277D01*
X68611717Y-41702288D01*
X67819805Y-42494200D01*
X67460595Y-42494200D01*
X66668683Y-41702288D01*
X66427740Y-41770277D01*
X66242999Y-42289371D01*
X64387000Y-42289371D01*
X64387000Y-42037000D01*
X64384474Y-42024300D01*
X64387000Y-42011600D01*
X64387000Y-41335802D01*
X65021302Y-40701500D01*
X66450405Y-40701500D01*
X66465369Y-40737715D01*
X66854636Y-41127661D01*
X67071179Y-41217577D01*
X66916277Y-41281740D01*
X66848288Y-41522683D01*
X67640200Y-42314595D01*
X68432112Y-41522683D01*
X68364123Y-41281740D01*
X68197579Y-41222468D01*
X68423715Y-41129031D01*
X68533566Y-41019371D01*
X68782999Y-41019371D01*
X68810970Y-41569648D01*
X68967740Y-41948123D01*
X69208683Y-42016112D01*
X70000595Y-41224200D01*
X70359805Y-41224200D01*
X71151717Y-42016112D01*
X71392660Y-41948123D01*
X71577401Y-41429029D01*
X71549430Y-40878752D01*
X71392660Y-40500277D01*
X71151717Y-40432288D01*
X70359805Y-41224200D01*
X70000595Y-41224200D01*
X69208683Y-40432288D01*
X68967740Y-40500277D01*
X68782999Y-41019371D01*
X68533566Y-41019371D01*
X68813661Y-40739764D01*
X69024959Y-40230902D01*
X69025440Y-39679915D01*
X68815031Y-39170685D01*
X68603201Y-38958485D01*
X68794960Y-38958485D01*
X69005369Y-39467715D01*
X69394636Y-39857661D01*
X69611179Y-39947577D01*
X69456277Y-40011740D01*
X69388288Y-40252683D01*
X70180200Y-41044595D01*
X70972112Y-40252683D01*
X70904123Y-40011740D01*
X70737579Y-39952468D01*
X70963715Y-39859031D01*
X71353661Y-39469764D01*
X71564959Y-38960902D01*
X71565440Y-38409915D01*
X71355031Y-37900685D01*
X70965764Y-37510739D01*
X70456902Y-37299441D01*
X69905915Y-37298960D01*
X69396685Y-37509369D01*
X69006739Y-37898636D01*
X68795441Y-38407498D01*
X68794960Y-38958485D01*
X68603201Y-38958485D01*
X68425764Y-38780739D01*
X68193330Y-38684224D01*
X68423715Y-38589031D01*
X68813661Y-38199764D01*
X69024959Y-37690902D01*
X69025440Y-37139915D01*
X68815031Y-36630685D01*
X68425764Y-36240739D01*
X68338568Y-36204532D01*
X73957073Y-36204532D01*
X74055736Y-36471387D01*
X74665461Y-36697908D01*
X75315460Y-36673856D01*
X75804264Y-36471387D01*
X75902927Y-36204532D01*
X74930000Y-35231605D01*
X73957073Y-36204532D01*
X68338568Y-36204532D01*
X67916902Y-36029441D01*
X67365915Y-36028960D01*
X66856685Y-36239369D01*
X66466739Y-36628636D01*
X66255441Y-37137498D01*
X66254960Y-37688485D01*
X66465369Y-38197715D01*
X66854636Y-38587661D01*
X67087070Y-38684176D01*
X66856685Y-38779369D01*
X66466739Y-39168636D01*
X66461397Y-39181500D01*
X64706500Y-39181500D01*
X64415661Y-39239352D01*
X64169099Y-39404099D01*
X63089599Y-40483599D01*
X62924852Y-40730161D01*
X62867000Y-41021000D01*
X62867000Y-41883907D01*
X62841600Y-42011600D01*
X56463000Y-42011600D01*
X56463000Y-35785009D01*
X57093616Y-36046863D01*
X57863407Y-36047535D01*
X58574858Y-35753570D01*
X58673583Y-35655017D01*
X58647572Y-35717659D01*
X58646830Y-36567015D01*
X58971180Y-37352000D01*
X59571241Y-37953109D01*
X60355659Y-38278828D01*
X61205015Y-38279570D01*
X61990000Y-37955220D01*
X62591109Y-37355159D01*
X62916828Y-36570741D01*
X62917570Y-35721385D01*
X62593220Y-34936400D01*
X62444541Y-34787461D01*
X73284092Y-34787461D01*
X73308144Y-35437460D01*
X73510613Y-35926264D01*
X73777468Y-36024927D01*
X74750395Y-35052000D01*
X75109605Y-35052000D01*
X76082532Y-36024927D01*
X76349387Y-35926264D01*
X76510721Y-35492000D01*
X80189499Y-35492000D01*
X80189500Y-35492005D01*
X80189500Y-45593000D01*
X80205761Y-45674750D01*
X80189500Y-45756500D01*
X80189500Y-46962995D01*
X80189499Y-46963000D01*
X80313957Y-47588688D01*
X80668380Y-48119120D01*
X96091500Y-63542240D01*
X96091500Y-79586761D01*
X92696880Y-82981380D01*
X92696878Y-82981383D01*
X91490380Y-84187880D01*
X91135957Y-84718312D01*
X91011499Y-85344000D01*
X91011500Y-85344005D01*
X91011500Y-101811760D01*
X90611630Y-102211630D01*
X89442295Y-102211630D01*
X89442290Y-102211629D01*
X88816602Y-102336087D01*
X88286170Y-102690510D01*
X87489880Y-103486800D01*
X87135457Y-104017232D01*
X87024396Y-104575571D01*
X86413458Y-105185443D01*
X86011458Y-106153567D01*
X86010543Y-107201834D01*
X86410853Y-108170658D01*
X87151443Y-108912542D01*
X87351568Y-108995641D01*
X87489880Y-109202640D01*
X88028358Y-109741117D01*
X88028360Y-109741120D01*
X88558793Y-110095543D01*
X89184480Y-110220001D01*
X89184485Y-110220000D01*
X90550995Y-110220000D01*
X90551000Y-110220001D01*
X90551005Y-110220000D01*
X94953761Y-110220000D01*
X95173378Y-110439618D01*
X95173380Y-110439620D01*
X95575476Y-110841715D01*
X95948080Y-111214319D01*
X96478512Y-111568743D01*
X97104200Y-111693200D01*
X97577429Y-111599069D01*
X98945278Y-112966917D01*
X98945280Y-112966920D01*
X99263251Y-113179381D01*
X99475712Y-113321343D01*
X100101400Y-113445800D01*
X105010200Y-113445800D01*
X105635887Y-113321343D01*
X105655497Y-113308240D01*
X106010200Y-113308240D01*
X106245517Y-113263962D01*
X106461641Y-113124890D01*
X106606631Y-112912690D01*
X106657640Y-112660800D01*
X106657640Y-110960800D01*
X106613362Y-110725483D01*
X106474290Y-110509359D01*
X106262090Y-110364369D01*
X106010200Y-110313360D01*
X105655497Y-110313360D01*
X105635887Y-110300257D01*
X105010200Y-110175800D01*
X100778639Y-110175800D01*
X97964500Y-107361660D01*
X97964500Y-106668434D01*
X106305143Y-106668434D01*
X106705453Y-107637258D01*
X107446043Y-108379142D01*
X107875200Y-108557343D01*
X107875200Y-110338762D01*
X107774883Y-110357638D01*
X107558759Y-110496710D01*
X107413769Y-110708910D01*
X107362760Y-110960800D01*
X107362760Y-112660800D01*
X107407038Y-112896117D01*
X107546110Y-113112241D01*
X107758310Y-113257231D01*
X108010200Y-113308240D01*
X110010200Y-113308240D01*
X110245517Y-113263962D01*
X110461641Y-113124890D01*
X110606631Y-112912690D01*
X110657640Y-112660800D01*
X110657640Y-110960800D01*
X110613362Y-110725483D01*
X110474290Y-110509359D01*
X110262090Y-110364369D01*
X110145200Y-110340698D01*
X110145200Y-108499944D01*
X110431258Y-108381747D01*
X111173142Y-107641157D01*
X111575142Y-106673033D01*
X111576057Y-105624766D01*
X111175747Y-104655942D01*
X110435157Y-103914058D01*
X109699775Y-103608701D01*
X110415247Y-103312343D01*
X110636016Y-102941622D01*
X108940600Y-101246205D01*
X107245184Y-102941622D01*
X107465953Y-103312343D01*
X108190237Y-103605569D01*
X107449942Y-103911453D01*
X106708058Y-104652043D01*
X106306058Y-105620167D01*
X106305143Y-106668434D01*
X97964500Y-106668434D01*
X97964500Y-100563612D01*
X106301481Y-100563612D01*
X106309887Y-101611847D01*
X106694857Y-102541247D01*
X107065578Y-102762016D01*
X108760995Y-101066600D01*
X109120205Y-101066600D01*
X110815622Y-102762016D01*
X111186343Y-102541247D01*
X111579719Y-101569588D01*
X111571313Y-100521353D01*
X111186343Y-99591953D01*
X110815622Y-99371184D01*
X109120205Y-101066600D01*
X108760995Y-101066600D01*
X107065578Y-99371184D01*
X106694857Y-99591953D01*
X106301481Y-100563612D01*
X97964500Y-100563612D01*
X97964500Y-99191578D01*
X107245184Y-99191578D01*
X108940600Y-100886995D01*
X110636016Y-99191578D01*
X110415247Y-98820857D01*
X109443588Y-98427481D01*
X108395353Y-98435887D01*
X107465953Y-98820857D01*
X107245184Y-99191578D01*
X97964500Y-99191578D01*
X97964500Y-95169222D01*
X107245184Y-95169222D01*
X107465953Y-95539943D01*
X108437612Y-95933319D01*
X109485847Y-95924913D01*
X110415247Y-95539943D01*
X110636016Y-95169222D01*
X108940600Y-93473805D01*
X107245184Y-95169222D01*
X97964500Y-95169222D01*
X97964500Y-92791212D01*
X106301481Y-92791212D01*
X106309887Y-93839447D01*
X106694857Y-94768847D01*
X107065578Y-94989616D01*
X108760995Y-93294200D01*
X109120205Y-93294200D01*
X110815622Y-94989616D01*
X111186343Y-94768847D01*
X111579719Y-93797188D01*
X111571313Y-92748953D01*
X111186343Y-91819553D01*
X110815622Y-91598784D01*
X109120205Y-93294200D01*
X108760995Y-93294200D01*
X107065578Y-91598784D01*
X106694857Y-91819553D01*
X106301481Y-92791212D01*
X97964500Y-92791212D01*
X97964500Y-88736034D01*
X106305143Y-88736034D01*
X106705453Y-89704858D01*
X107446043Y-90446742D01*
X108181425Y-90752099D01*
X107465953Y-91048457D01*
X107245184Y-91419178D01*
X108940600Y-93114595D01*
X110636016Y-91419178D01*
X110415247Y-91048457D01*
X109690963Y-90755231D01*
X110431258Y-90449347D01*
X111173142Y-89708757D01*
X111575142Y-88740633D01*
X111576057Y-87692366D01*
X111175747Y-86723542D01*
X110435157Y-85981658D01*
X109467033Y-85579658D01*
X108418766Y-85578743D01*
X107449942Y-85979053D01*
X106708058Y-86719643D01*
X106306058Y-87687767D01*
X106305143Y-88736034D01*
X97964500Y-88736034D01*
X97964500Y-84433740D01*
X98882617Y-83515622D01*
X98882620Y-83515620D01*
X99237043Y-82985187D01*
X99361500Y-82359500D01*
X99361500Y-80620890D01*
X99904524Y-80620890D01*
X100074355Y-81030924D01*
X100464642Y-81459183D01*
X100989108Y-81705486D01*
X101219000Y-81584819D01*
X101219000Y-80391000D01*
X100025845Y-80391000D01*
X99904524Y-80620890D01*
X99361500Y-80620890D01*
X99361500Y-79907110D01*
X99904524Y-79907110D01*
X100025845Y-80137000D01*
X101219000Y-80137000D01*
X101219000Y-78943181D01*
X101473000Y-78943181D01*
X101473000Y-80137000D01*
X101493000Y-80137000D01*
X101493000Y-80391000D01*
X101473000Y-80391000D01*
X101473000Y-81584819D01*
X101702892Y-81705486D01*
X102227358Y-81459183D01*
X102414808Y-81253496D01*
X102432838Y-81349317D01*
X102571910Y-81565441D01*
X102784110Y-81710431D01*
X103036000Y-81761440D01*
X104736000Y-81761440D01*
X104971317Y-81717162D01*
X105187441Y-81578090D01*
X105332431Y-81365890D01*
X105383440Y-81114000D01*
X105383440Y-79414000D01*
X105339162Y-79178683D01*
X105200090Y-78962559D01*
X104987890Y-78817569D01*
X104736000Y-78766560D01*
X103036000Y-78766560D01*
X102800683Y-78810838D01*
X102584559Y-78949910D01*
X102439569Y-79162110D01*
X102416445Y-79276301D01*
X102227358Y-79068817D01*
X101702892Y-78822514D01*
X101473000Y-78943181D01*
X101219000Y-78943181D01*
X100989108Y-78822514D01*
X100464642Y-79068817D01*
X100074355Y-79497076D01*
X99904524Y-79907110D01*
X99361500Y-79907110D01*
X99361500Y-76068506D01*
X105721099Y-76068506D01*
X105774313Y-76297034D01*
X106249860Y-76461700D01*
X106752222Y-76431846D01*
X107077687Y-76297034D01*
X107130901Y-76068506D01*
X106426000Y-75363605D01*
X105721099Y-76068506D01*
X99361500Y-76068506D01*
X99361500Y-75007860D01*
X105148300Y-75007860D01*
X105178154Y-75510222D01*
X105312966Y-75835687D01*
X105541494Y-75888901D01*
X106246395Y-75184000D01*
X106605605Y-75184000D01*
X107310506Y-75888901D01*
X107539034Y-75835687D01*
X107703700Y-75360140D01*
X107673846Y-74857778D01*
X107539034Y-74532313D01*
X107310506Y-74479099D01*
X106605605Y-75184000D01*
X106246395Y-75184000D01*
X105541494Y-74479099D01*
X105312966Y-74532313D01*
X105148300Y-75007860D01*
X99361500Y-75007860D01*
X99361500Y-74299494D01*
X105721099Y-74299494D01*
X106426000Y-75004395D01*
X107130901Y-74299494D01*
X107077687Y-74070966D01*
X106602140Y-73906300D01*
X106099778Y-73936154D01*
X105774313Y-74070966D01*
X105721099Y-74299494D01*
X99361500Y-74299494D01*
X99361500Y-72894520D01*
X102620781Y-72894520D01*
X102812960Y-73359629D01*
X103168499Y-73715790D01*
X103633272Y-73908780D01*
X104136520Y-73909219D01*
X104601629Y-73717040D01*
X104957790Y-73361501D01*
X105150780Y-72896728D01*
X105151219Y-72393480D01*
X104959040Y-71928371D01*
X104603501Y-71572210D01*
X104138728Y-71379220D01*
X103635480Y-71378781D01*
X103170371Y-71570960D01*
X102814210Y-71926499D01*
X102621220Y-72391272D01*
X102620781Y-72894520D01*
X99361500Y-72894520D01*
X99361500Y-70354520D01*
X105160781Y-70354520D01*
X105352960Y-70819629D01*
X105708499Y-71175790D01*
X106173272Y-71368780D01*
X106676520Y-71369219D01*
X107141629Y-71177040D01*
X107497790Y-70821501D01*
X107690780Y-70356728D01*
X107691219Y-69853480D01*
X107499040Y-69388371D01*
X107143501Y-69032210D01*
X106678728Y-68839220D01*
X106175480Y-68838781D01*
X105710371Y-69030960D01*
X105354210Y-69386499D01*
X105161220Y-69851272D01*
X105160781Y-70354520D01*
X99361500Y-70354520D01*
X99361500Y-62865005D01*
X99361501Y-62865000D01*
X99237043Y-62239312D01*
X98882620Y-61708880D01*
X97213469Y-60039729D01*
X97259298Y-60058759D01*
X97810285Y-60059240D01*
X98319515Y-59848831D01*
X98709461Y-59459564D01*
X98920759Y-58950702D01*
X98921118Y-58539000D01*
X100607999Y-58539000D01*
X100266853Y-58766946D01*
X99944946Y-59248715D01*
X99831907Y-59817000D01*
X99944946Y-60385285D01*
X100266853Y-60867054D01*
X100748622Y-61188961D01*
X101316907Y-61302000D01*
X101375093Y-61302000D01*
X101943378Y-61188961D01*
X102425147Y-60867054D01*
X102429097Y-60861142D01*
X102497673Y-61026699D01*
X102676302Y-61205327D01*
X102909691Y-61302000D01*
X103600250Y-61302000D01*
X103759000Y-61143250D01*
X103759000Y-59944000D01*
X104013000Y-59944000D01*
X104013000Y-61143250D01*
X104171750Y-61302000D01*
X104862309Y-61302000D01*
X105095698Y-61205327D01*
X105274327Y-61026699D01*
X105371000Y-60793310D01*
X105371000Y-60102750D01*
X105212250Y-59944000D01*
X104013000Y-59944000D01*
X103759000Y-59944000D01*
X103739000Y-59944000D01*
X103739000Y-59690000D01*
X103759000Y-59690000D01*
X103759000Y-59670000D01*
X104013000Y-59670000D01*
X104013000Y-59690000D01*
X105212250Y-59690000D01*
X105371000Y-59531250D01*
X105371000Y-58840690D01*
X105274327Y-58607301D01*
X105104695Y-58437670D01*
X105450566Y-58206566D01*
X105577566Y-58079566D01*
X105658601Y-57958288D01*
X105823603Y-57711346D01*
X105910000Y-57277000D01*
X105910000Y-57100100D01*
X106901160Y-57100100D01*
X106901160Y-58800100D01*
X106945438Y-59035417D01*
X107084510Y-59251541D01*
X107296710Y-59396531D01*
X107548600Y-59447540D01*
X108448600Y-59447540D01*
X108683917Y-59403262D01*
X108900041Y-59264190D01*
X109045031Y-59051990D01*
X109096040Y-58800100D01*
X109096040Y-57100100D01*
X109051762Y-56864783D01*
X108912690Y-56648659D01*
X108700490Y-56503669D01*
X108448600Y-56452660D01*
X107548600Y-56452660D01*
X107313283Y-56496938D01*
X107097159Y-56636010D01*
X106952169Y-56848210D01*
X106901160Y-57100100D01*
X105910000Y-57100100D01*
X105910000Y-56446192D01*
X106076441Y-56339090D01*
X106221431Y-56126890D01*
X106272440Y-55875000D01*
X106272440Y-55081750D01*
X107500500Y-55081750D01*
X107500500Y-55922309D01*
X107597173Y-56155698D01*
X107775801Y-56334327D01*
X108009190Y-56431000D01*
X108174750Y-56431000D01*
X108333500Y-56272250D01*
X108333500Y-54923000D01*
X107659250Y-54923000D01*
X107500500Y-55081750D01*
X106272440Y-55081750D01*
X106272440Y-54975000D01*
X106228162Y-54739683D01*
X106089090Y-54523559D01*
X105876890Y-54378569D01*
X105625000Y-54327560D01*
X104963826Y-54327560D01*
X104775000Y-54290000D01*
X104586174Y-54327560D01*
X103925000Y-54327560D01*
X103689683Y-54371838D01*
X103473559Y-54510910D01*
X103377457Y-54651560D01*
X103295090Y-54523559D01*
X103082890Y-54378569D01*
X102831000Y-54327560D01*
X102169826Y-54327560D01*
X101981000Y-54290000D01*
X98412958Y-54290000D01*
X98374564Y-54251539D01*
X97865702Y-54040241D01*
X97314715Y-54039760D01*
X96805485Y-54250169D01*
X96415539Y-54639436D01*
X96236424Y-55070792D01*
X94490500Y-53324868D01*
X94490500Y-52094397D01*
X94520603Y-52049345D01*
X94607000Y-51615000D01*
X94520603Y-51180655D01*
X94452940Y-51079390D01*
X94452940Y-50648500D01*
X94408662Y-50413183D01*
X94269590Y-50197059D01*
X94057390Y-50052069D01*
X93805500Y-50001060D01*
X92905500Y-50001060D01*
X92670183Y-50045338D01*
X92454059Y-50184410D01*
X92309069Y-50396610D01*
X92258060Y-50648500D01*
X92258060Y-51309674D01*
X92220500Y-51498500D01*
X92220500Y-53795000D01*
X92306897Y-54229346D01*
X92406605Y-54378569D01*
X92552934Y-54597566D01*
X96161934Y-58206566D01*
X96215561Y-58242398D01*
X96151241Y-58397298D01*
X96150760Y-58948285D01*
X96170993Y-58997253D01*
X86660525Y-49486785D01*
X88340260Y-49486785D01*
X88550669Y-49996015D01*
X88939936Y-50385961D01*
X89448798Y-50597259D01*
X89999785Y-50597740D01*
X90509015Y-50387331D01*
X90898961Y-49998064D01*
X91110259Y-49489202D01*
X91110308Y-49432824D01*
X91148132Y-49395000D01*
X92270808Y-49395000D01*
X92377910Y-49561441D01*
X92590110Y-49706431D01*
X92842000Y-49757440D01*
X93742000Y-49757440D01*
X93977317Y-49713162D01*
X94193441Y-49574090D01*
X94338431Y-49361890D01*
X94389440Y-49110000D01*
X94389440Y-48448826D01*
X94427000Y-48260000D01*
X95057000Y-48260000D01*
X95057000Y-48630000D01*
X95094560Y-48818826D01*
X95094560Y-49110000D01*
X95138838Y-49345317D01*
X95277910Y-49561441D01*
X95490110Y-49706431D01*
X95543129Y-49717168D01*
X95542828Y-50062941D01*
X95354059Y-50184410D01*
X95209069Y-50396610D01*
X95158060Y-50648500D01*
X95158060Y-50849674D01*
X95120500Y-51038500D01*
X95120500Y-51498500D01*
X95158060Y-51687326D01*
X95158060Y-52348500D01*
X95202338Y-52583817D01*
X95341410Y-52799941D01*
X95553610Y-52944931D01*
X95805500Y-52995940D01*
X96705500Y-52995940D01*
X96940817Y-52951662D01*
X97156941Y-52812590D01*
X97301931Y-52600390D01*
X97352940Y-52348500D01*
X97352940Y-52075000D01*
X100483560Y-52075000D01*
X100483560Y-52975000D01*
X100527838Y-53210317D01*
X100666910Y-53426441D01*
X100879110Y-53571431D01*
X101131000Y-53622440D01*
X101792174Y-53622440D01*
X101981000Y-53660000D01*
X102251549Y-53660000D01*
X102951459Y-53950628D01*
X103800815Y-53951370D01*
X104482529Y-53669691D01*
X107500500Y-53669691D01*
X107500500Y-54510250D01*
X107659250Y-54669000D01*
X108333500Y-54669000D01*
X108333500Y-53319750D01*
X108587500Y-53319750D01*
X108587500Y-54669000D01*
X108607500Y-54669000D01*
X108607500Y-54923000D01*
X108587500Y-54923000D01*
X108587500Y-56272250D01*
X108746250Y-56431000D01*
X108911810Y-56431000D01*
X109145199Y-56334327D01*
X109323827Y-56155698D01*
X109414536Y-55936707D01*
X109432338Y-56031317D01*
X109571410Y-56247441D01*
X109600500Y-56267317D01*
X109600500Y-57412000D01*
X109658352Y-57702839D01*
X109801160Y-57916567D01*
X109801160Y-58800100D01*
X109845438Y-59035417D01*
X109984510Y-59251541D01*
X110196710Y-59396531D01*
X110448600Y-59447540D01*
X111348600Y-59447540D01*
X111583917Y-59403262D01*
X111800041Y-59264190D01*
X111945031Y-59051990D01*
X111996040Y-58800100D01*
X111996040Y-57100100D01*
X111951762Y-56864783D01*
X111812690Y-56648659D01*
X111600490Y-56503669D01*
X111348600Y-56452660D01*
X111120500Y-56452660D01*
X111120500Y-56270669D01*
X111136941Y-56260090D01*
X111281931Y-56047890D01*
X111332940Y-55796000D01*
X111332940Y-53796000D01*
X111288662Y-53560683D01*
X111149590Y-53344559D01*
X110937390Y-53199569D01*
X110685500Y-53148560D01*
X110035500Y-53148560D01*
X109800183Y-53192838D01*
X109584059Y-53331910D01*
X109439069Y-53544110D01*
X109415891Y-53658565D01*
X109323827Y-53436302D01*
X109145199Y-53257673D01*
X108911810Y-53161000D01*
X108746250Y-53161000D01*
X108587500Y-53319750D01*
X108333500Y-53319750D01*
X108174750Y-53161000D01*
X108009190Y-53161000D01*
X107775801Y-53257673D01*
X107597173Y-53436302D01*
X107500500Y-53669691D01*
X104482529Y-53669691D01*
X104505983Y-53660000D01*
X104775000Y-53660000D01*
X104963826Y-53622440D01*
X105625000Y-53622440D01*
X105860317Y-53578162D01*
X106076441Y-53439090D01*
X106221431Y-53226890D01*
X106272440Y-52975000D01*
X106272440Y-52075000D01*
X106228162Y-51839683D01*
X106089090Y-51623559D01*
X105876890Y-51478569D01*
X105625000Y-51427560D01*
X105513340Y-51427560D01*
X105513370Y-51393185D01*
X105189020Y-50608200D01*
X104588959Y-50007091D01*
X103804541Y-49681372D01*
X102955185Y-49680630D01*
X102170200Y-50004980D01*
X101569091Y-50605041D01*
X101243372Y-51389459D01*
X101243339Y-51427560D01*
X101131000Y-51427560D01*
X100895683Y-51471838D01*
X100679559Y-51610910D01*
X100534569Y-51823110D01*
X100483560Y-52075000D01*
X97352940Y-52075000D01*
X97352940Y-51750935D01*
X97801305Y-51751326D01*
X98494372Y-51464957D01*
X98959139Y-51001000D01*
X100565500Y-51001000D01*
X100999846Y-50914603D01*
X101368066Y-50668566D01*
X103180566Y-48856066D01*
X103220140Y-48796839D01*
X103426603Y-48487846D01*
X103513000Y-48053500D01*
X103513000Y-47244000D01*
X103693000Y-47244000D01*
X103730560Y-47432826D01*
X103730560Y-48094000D01*
X103774838Y-48329317D01*
X103913910Y-48545441D01*
X104126110Y-48690431D01*
X104378000Y-48741440D01*
X105278000Y-48741440D01*
X105513317Y-48697162D01*
X105729441Y-48558090D01*
X105851808Y-48379000D01*
X106335868Y-48379000D01*
X107543243Y-49586375D01*
X107542674Y-50239305D01*
X107829043Y-50932372D01*
X108276396Y-51380506D01*
X108361897Y-51810346D01*
X108438060Y-51924332D01*
X108438060Y-52376000D01*
X108482338Y-52611317D01*
X108621410Y-52827441D01*
X108833610Y-52972431D01*
X109085500Y-53023440D01*
X109735500Y-53023440D01*
X109970817Y-52979162D01*
X110186941Y-52840090D01*
X110331931Y-52627890D01*
X110382940Y-52376000D01*
X110382940Y-51924332D01*
X110459103Y-51810346D01*
X110536089Y-51423313D01*
X111025093Y-50935161D01*
X111312672Y-50242595D01*
X111313326Y-49492695D01*
X111026957Y-48799628D01*
X110497161Y-48268907D01*
X109804595Y-47981328D01*
X109147887Y-47980755D01*
X107608566Y-46441434D01*
X107537576Y-46394000D01*
X107240346Y-46195397D01*
X106806000Y-46109000D01*
X105849192Y-46109000D01*
X105742090Y-45942559D01*
X105529890Y-45797569D01*
X105278000Y-45746560D01*
X104378000Y-45746560D01*
X104142683Y-45790838D01*
X103926559Y-45929910D01*
X103781569Y-46142110D01*
X103730560Y-46394000D01*
X103730560Y-47055174D01*
X103693000Y-47244000D01*
X103513000Y-47244000D01*
X103426603Y-46809654D01*
X103180566Y-46441434D01*
X103013341Y-46329697D01*
X102981162Y-46158683D01*
X102842090Y-45942559D01*
X102629890Y-45797569D01*
X102378000Y-45746560D01*
X101478000Y-45746560D01*
X101242683Y-45790838D01*
X101026559Y-45929910D01*
X100881569Y-46142110D01*
X100830560Y-46394000D01*
X100830560Y-46629165D01*
X100352702Y-46430741D01*
X100296324Y-46430692D01*
X99306000Y-45440368D01*
X99306000Y-43703132D01*
X100038132Y-42971000D01*
X107124500Y-42971000D01*
X107313326Y-42933440D01*
X107974500Y-42933440D01*
X108209817Y-42889162D01*
X108425941Y-42750090D01*
X108570931Y-42537890D01*
X108621940Y-42286000D01*
X108621940Y-41386000D01*
X108577662Y-41150683D01*
X108438590Y-40934559D01*
X108226390Y-40789569D01*
X107974500Y-40738560D01*
X107313326Y-40738560D01*
X107124500Y-40701000D01*
X100609596Y-40701000D01*
X100481500Y-40675060D01*
X99820326Y-40675060D01*
X99631500Y-40637500D01*
X99442674Y-40675060D01*
X98781500Y-40675060D01*
X98546183Y-40719338D01*
X98330059Y-40858410D01*
X98185069Y-41070610D01*
X98134060Y-41322500D01*
X98134060Y-41664808D01*
X97368434Y-42430434D01*
X97122397Y-42798654D01*
X97036000Y-43233000D01*
X97036000Y-45910500D01*
X97122397Y-46344846D01*
X97320060Y-46640669D01*
X97368434Y-46713066D01*
X98690807Y-48035439D01*
X98690760Y-48089785D01*
X98901169Y-48599015D01*
X99032924Y-48731000D01*
X98958449Y-48731000D01*
X98497161Y-48268907D01*
X97804595Y-47981328D01*
X97289440Y-47980879D01*
X97289440Y-47410000D01*
X97245162Y-47174683D01*
X97106090Y-46958559D01*
X96893890Y-46813569D01*
X96642000Y-46762560D01*
X95742000Y-46762560D01*
X95506683Y-46806838D01*
X95290559Y-46945910D01*
X95145569Y-47158110D01*
X95094560Y-47410000D01*
X95094560Y-48071174D01*
X95057000Y-48260000D01*
X94427000Y-48260000D01*
X94389440Y-48071174D01*
X94389440Y-47410000D01*
X94345162Y-47174683D01*
X94206090Y-46958559D01*
X93993890Y-46813569D01*
X93742000Y-46762560D01*
X92842000Y-46762560D01*
X92606683Y-46806838D01*
X92390559Y-46945910D01*
X92268192Y-47125000D01*
X90678000Y-47125000D01*
X90243654Y-47211397D01*
X89875434Y-47457434D01*
X89505561Y-47827307D01*
X89451215Y-47827260D01*
X88941985Y-48037669D01*
X88552039Y-48426936D01*
X88340741Y-48935798D01*
X88340260Y-49486785D01*
X86660525Y-49486785D01*
X83459500Y-46285760D01*
X83459500Y-45756500D01*
X83443239Y-45674750D01*
X83459500Y-45593000D01*
X83459500Y-36512748D01*
X83499817Y-36505162D01*
X83715941Y-36366090D01*
X83860931Y-36153890D01*
X83911940Y-35902000D01*
X83911940Y-34202000D01*
X84617060Y-34202000D01*
X84617060Y-35902000D01*
X84661338Y-36137317D01*
X84800410Y-36353441D01*
X85012610Y-36498431D01*
X85129500Y-36522102D01*
X85129500Y-38422000D01*
X85215897Y-38856346D01*
X85257060Y-38917951D01*
X85257060Y-40612000D01*
X85301338Y-40847317D01*
X85440410Y-41063441D01*
X85652610Y-41208431D01*
X85904500Y-41259440D01*
X87504500Y-41259440D01*
X87739817Y-41215162D01*
X87955941Y-41076090D01*
X88100931Y-40863890D01*
X88151940Y-40612000D01*
X88151940Y-38038815D01*
X95242630Y-38038815D01*
X95566980Y-38823800D01*
X96167041Y-39424909D01*
X96951459Y-39750628D01*
X97800815Y-39751370D01*
X98197432Y-39587491D01*
X98317410Y-39773941D01*
X98529610Y-39918931D01*
X98781500Y-39969940D01*
X99442676Y-39969940D01*
X99631500Y-40007499D01*
X99820323Y-39969940D01*
X100481500Y-39969940D01*
X100716817Y-39925662D01*
X100932941Y-39786590D01*
X101077931Y-39574390D01*
X101128940Y-39322500D01*
X101128940Y-38486000D01*
X105627060Y-38486000D01*
X105627060Y-39386000D01*
X105671338Y-39621317D01*
X105810410Y-39837441D01*
X106022610Y-39982431D01*
X106274500Y-40033440D01*
X106935674Y-40033440D01*
X107124500Y-40071000D01*
X107313326Y-40033440D01*
X107974500Y-40033440D01*
X108209817Y-39989162D01*
X108425941Y-39850090D01*
X108570931Y-39637890D01*
X108573926Y-39623101D01*
X109001459Y-39800628D01*
X109850815Y-39801370D01*
X110635800Y-39477020D01*
X111236909Y-38876959D01*
X111562628Y-38092541D01*
X111563370Y-37243185D01*
X111239020Y-36458200D01*
X110638959Y-35857091D01*
X109854541Y-35531372D01*
X109005185Y-35530630D01*
X108220200Y-35854980D01*
X107619091Y-36455041D01*
X107348378Y-37106990D01*
X106616808Y-37838560D01*
X106274500Y-37838560D01*
X106039183Y-37882838D01*
X105823059Y-38021910D01*
X105678069Y-38234110D01*
X105627060Y-38486000D01*
X101128940Y-38486000D01*
X101128940Y-38422500D01*
X101084662Y-38187183D01*
X100945590Y-37971059D01*
X100733390Y-37826069D01*
X100481500Y-37775060D01*
X100139192Y-37775060D01*
X99482425Y-37118293D01*
X99189020Y-36408200D01*
X98588959Y-35807091D01*
X97804541Y-35481372D01*
X96955185Y-35480630D01*
X96170200Y-35804980D01*
X95569091Y-36405041D01*
X95243372Y-37189459D01*
X95242630Y-38038815D01*
X88151940Y-38038815D01*
X88151940Y-37112000D01*
X88107662Y-36876683D01*
X87968590Y-36660559D01*
X87839500Y-36572356D01*
X87839500Y-36187000D01*
X91532796Y-36187000D01*
X91782637Y-36437278D01*
X92383352Y-36686716D01*
X93033795Y-36687284D01*
X93634943Y-36438894D01*
X94095278Y-35979363D01*
X94344716Y-35378648D01*
X94345284Y-34728205D01*
X94096894Y-34127057D01*
X93637363Y-33666722D01*
X93036648Y-33417284D01*
X92386205Y-33416716D01*
X91785057Y-33665106D01*
X91532722Y-33917000D01*
X87835692Y-33917000D01*
X87728590Y-33750559D01*
X87516390Y-33605569D01*
X87264500Y-33554560D01*
X85264500Y-33554560D01*
X85029183Y-33598838D01*
X84813059Y-33737910D01*
X84668069Y-33950110D01*
X84617060Y-34202000D01*
X83911940Y-34202000D01*
X83867662Y-33966683D01*
X83728590Y-33750559D01*
X83516390Y-33605569D01*
X83264500Y-33554560D01*
X82909798Y-33554560D01*
X82890188Y-33541457D01*
X82264500Y-33416999D01*
X81638812Y-33541457D01*
X81619202Y-33554560D01*
X81264500Y-33554560D01*
X81029183Y-33598838D01*
X80813059Y-33737910D01*
X80668069Y-33950110D01*
X80617060Y-34202000D01*
X80617060Y-34412686D01*
X80313957Y-34866312D01*
X80189499Y-35492000D01*
X76510721Y-35492000D01*
X76575908Y-35316539D01*
X76551856Y-34666540D01*
X76349387Y-34177736D01*
X76082532Y-34079073D01*
X75109605Y-35052000D01*
X74750395Y-35052000D01*
X73777468Y-34079073D01*
X73510613Y-34177736D01*
X73284092Y-34787461D01*
X62444541Y-34787461D01*
X61993159Y-34335291D01*
X61208741Y-34009572D01*
X60359385Y-34008830D01*
X59574400Y-34333180D01*
X59414869Y-34492433D01*
X59415535Y-33728993D01*
X59284763Y-33412500D01*
X75021364Y-33412500D01*
X74544540Y-33430144D01*
M02*
